G75*
%MOIN*%
%OFA0B0*%
%FSLAX25Y25*%
%IPPOS*%
%LPD*%
%AMOC8*
5,1,8,0,0,1.08239X$1,22.5*
%
%ADD10C,0.06000*%
%ADD11C,0.02400*%
%ADD12C,0.04000*%
%ADD13C,0.01000*%
D10*
X0038500Y0114500D03*
X0048500Y0114500D03*
X0058500Y0114500D03*
X0068500Y0114500D03*
X0078500Y0114500D03*
X0088500Y0114500D03*
X0098500Y0114500D03*
X0108500Y0114500D03*
X0118500Y0114500D03*
X0128500Y0114500D03*
D11*
X0037700Y0108961D02*
X0037700Y0031700D01*
X0129300Y0031700D01*
X0129300Y0109500D01*
X0127505Y0109500D01*
X0125668Y0110261D01*
X0124261Y0111668D01*
X0123500Y0113505D01*
X0123500Y0115495D01*
X0123539Y0115590D01*
X0123446Y0115625D01*
X0123500Y0115495D01*
X0123500Y0113505D01*
X0122739Y0111668D01*
X0121332Y0110261D01*
X0119495Y0109500D01*
X0118036Y0109500D01*
X0123036Y0104500D01*
X0124296Y0104500D01*
X0125766Y0103891D01*
X0126891Y0102766D01*
X0127500Y0101296D01*
X0127500Y0099704D01*
X0126891Y0098234D01*
X0125766Y0097109D01*
X0124296Y0096500D01*
X0122704Y0096500D01*
X0121234Y0097109D01*
X0120109Y0098234D01*
X0119500Y0099704D01*
X0119500Y0100964D01*
X0115464Y0105000D01*
X0111657Y0105000D01*
X0111891Y0104766D01*
X0112500Y0103296D01*
X0112500Y0101704D01*
X0111891Y0100234D01*
X0111000Y0099343D01*
X0111000Y0087003D01*
X0110619Y0086084D01*
X0109916Y0085381D01*
X0079500Y0054964D01*
X0079500Y0053704D01*
X0078891Y0052234D01*
X0077766Y0051109D01*
X0076296Y0050500D01*
X0074704Y0050500D01*
X0073234Y0051109D01*
X0072109Y0052234D01*
X0071500Y0053704D01*
X0071500Y0055296D01*
X0072109Y0056766D01*
X0073234Y0057891D01*
X0074704Y0058500D01*
X0075964Y0058500D01*
X0106000Y0088536D01*
X0106000Y0099343D01*
X0105109Y0100234D01*
X0104500Y0101704D01*
X0104500Y0102000D01*
X0089657Y0102000D01*
X0088766Y0101109D01*
X0087296Y0100500D01*
X0085704Y0100500D01*
X0084234Y0101109D01*
X0084000Y0101343D01*
X0084000Y0095536D01*
X0084036Y0095500D01*
X0085296Y0095500D01*
X0086766Y0094891D01*
X0087891Y0093766D01*
X0088500Y0092296D01*
X0088500Y0090704D01*
X0087891Y0089234D01*
X0086766Y0088109D01*
X0085296Y0087500D01*
X0083704Y0087500D01*
X0082234Y0088109D01*
X0081109Y0089234D01*
X0080500Y0090704D01*
X0080500Y0091964D01*
X0079381Y0093084D01*
X0079000Y0094003D01*
X0079000Y0108997D01*
X0079208Y0109500D01*
X0077505Y0109500D01*
X0075668Y0110261D01*
X0074261Y0111668D01*
X0073500Y0113505D01*
X0073500Y0115495D01*
X0074248Y0117300D01*
X0072752Y0117300D01*
X0073500Y0115495D01*
X0073500Y0113505D01*
X0072739Y0111668D01*
X0071332Y0110261D01*
X0069495Y0109500D01*
X0067505Y0109500D01*
X0065668Y0110261D01*
X0064261Y0111668D01*
X0063500Y0113505D01*
X0063500Y0115495D01*
X0064248Y0117300D01*
X0062752Y0117300D01*
X0063500Y0115495D01*
X0063500Y0113505D01*
X0062739Y0111668D01*
X0061332Y0110261D01*
X0059495Y0109500D01*
X0057505Y0109500D01*
X0055668Y0110261D01*
X0054261Y0111668D01*
X0053500Y0113505D01*
X0053500Y0115233D01*
X0053500Y0115233D01*
X0053500Y0113505D01*
X0052739Y0111668D01*
X0051332Y0110261D01*
X0049495Y0109500D01*
X0047505Y0109500D01*
X0045668Y0110261D01*
X0044261Y0111668D01*
X0043578Y0113318D01*
X0043572Y0113282D01*
X0043319Y0112504D01*
X0042947Y0111775D01*
X0042466Y0111112D01*
X0041888Y0110534D01*
X0041225Y0110053D01*
X0040496Y0109681D01*
X0039718Y0109428D01*
X0038909Y0109300D01*
X0038500Y0109300D01*
X0038500Y0110146D01*
X0038500Y0110146D01*
X0038500Y0109300D01*
X0038091Y0109300D01*
X0037990Y0109316D01*
X0037879Y0109168D01*
X0037700Y0108961D01*
X0037700Y0108049D02*
X0079000Y0108049D01*
X0079000Y0105651D02*
X0037700Y0105651D01*
X0037700Y0103252D02*
X0079000Y0103252D01*
X0079000Y0100854D02*
X0037700Y0100854D01*
X0037700Y0098455D02*
X0079000Y0098455D01*
X0079000Y0096057D02*
X0037700Y0096057D01*
X0037700Y0093658D02*
X0079143Y0093658D01*
X0080500Y0091260D02*
X0037700Y0091260D01*
X0037700Y0088861D02*
X0081482Y0088861D01*
X0087518Y0088861D02*
X0106000Y0088861D01*
X0106000Y0091260D02*
X0088500Y0091260D01*
X0087936Y0093658D02*
X0106000Y0093658D01*
X0106000Y0096057D02*
X0084000Y0096057D01*
X0084000Y0098455D02*
X0106000Y0098455D01*
X0104852Y0100854D02*
X0088150Y0100854D01*
X0084850Y0100854D02*
X0084000Y0100854D01*
X0075481Y0110448D02*
X0071519Y0110448D01*
X0073227Y0112846D02*
X0073773Y0112846D01*
X0073500Y0115245D02*
X0073500Y0115245D01*
X0065481Y0110448D02*
X0061519Y0110448D01*
X0063227Y0112846D02*
X0063773Y0112846D01*
X0063500Y0115245D02*
X0063500Y0115245D01*
X0055481Y0110448D02*
X0051519Y0110448D01*
X0053227Y0112846D02*
X0053773Y0112846D01*
X0045481Y0110448D02*
X0041770Y0110448D01*
X0043430Y0112846D02*
X0043773Y0112846D01*
X0037700Y0086463D02*
X0103927Y0086463D01*
X0101529Y0084064D02*
X0037700Y0084064D01*
X0037700Y0081666D02*
X0099130Y0081666D01*
X0096732Y0079267D02*
X0037700Y0079267D01*
X0037700Y0076869D02*
X0094333Y0076869D01*
X0091935Y0074470D02*
X0037700Y0074470D01*
X0037700Y0072072D02*
X0089536Y0072072D01*
X0087138Y0069673D02*
X0037700Y0069673D01*
X0037700Y0067275D02*
X0084739Y0067275D01*
X0082341Y0064876D02*
X0037700Y0064876D01*
X0037700Y0062478D02*
X0079942Y0062478D01*
X0077544Y0060079D02*
X0037700Y0060079D01*
X0037700Y0057681D02*
X0073024Y0057681D01*
X0071500Y0055282D02*
X0037700Y0055282D01*
X0037700Y0052884D02*
X0071840Y0052884D01*
X0079160Y0052884D02*
X0129300Y0052884D01*
X0129300Y0055282D02*
X0079818Y0055282D01*
X0082216Y0057681D02*
X0129300Y0057681D01*
X0129300Y0060079D02*
X0084615Y0060079D01*
X0087013Y0062478D02*
X0129300Y0062478D01*
X0129300Y0064876D02*
X0089412Y0064876D01*
X0091810Y0067275D02*
X0129300Y0067275D01*
X0129300Y0069673D02*
X0112073Y0069673D01*
X0111891Y0069234D02*
X0112500Y0070704D01*
X0112500Y0071964D01*
X0120619Y0080084D01*
X0121000Y0081003D01*
X0121000Y0088343D01*
X0121891Y0089234D01*
X0122500Y0090704D01*
X0122500Y0092296D01*
X0121891Y0093766D01*
X0120766Y0094891D01*
X0119296Y0095500D01*
X0117704Y0095500D01*
X0116234Y0094891D01*
X0115109Y0093766D01*
X0114500Y0092296D01*
X0114500Y0090704D01*
X0115109Y0089234D01*
X0116000Y0088343D01*
X0116000Y0082536D01*
X0108964Y0075500D01*
X0107704Y0075500D01*
X0106234Y0074891D01*
X0105109Y0073766D01*
X0104500Y0072296D01*
X0104500Y0070704D01*
X0105109Y0069234D01*
X0106234Y0068109D01*
X0107704Y0067500D01*
X0109296Y0067500D01*
X0110766Y0068109D01*
X0111891Y0069234D01*
X0112607Y0072072D02*
X0129300Y0072072D01*
X0129300Y0074470D02*
X0115006Y0074470D01*
X0117404Y0076869D02*
X0129300Y0076869D01*
X0129300Y0079267D02*
X0119803Y0079267D01*
X0121000Y0081666D02*
X0129300Y0081666D01*
X0129300Y0084064D02*
X0121000Y0084064D01*
X0121000Y0086463D02*
X0129300Y0086463D01*
X0129300Y0088861D02*
X0121518Y0088861D01*
X0122500Y0091260D02*
X0129300Y0091260D01*
X0129300Y0093658D02*
X0121936Y0093658D01*
X0120017Y0098455D02*
X0111000Y0098455D01*
X0111000Y0096057D02*
X0129300Y0096057D01*
X0129300Y0098455D02*
X0126983Y0098455D01*
X0127500Y0100854D02*
X0129300Y0100854D01*
X0129300Y0103252D02*
X0126404Y0103252D01*
X0129300Y0105651D02*
X0121885Y0105651D01*
X0119486Y0108049D02*
X0129300Y0108049D01*
X0125481Y0110448D02*
X0121519Y0110448D01*
X0123227Y0112846D02*
X0123773Y0112846D01*
X0123500Y0115245D02*
X0123500Y0115245D01*
X0117212Y0103252D02*
X0112500Y0103252D01*
X0112148Y0100854D02*
X0119500Y0100854D01*
X0115064Y0093658D02*
X0111000Y0093658D01*
X0111000Y0091260D02*
X0114500Y0091260D01*
X0115482Y0088861D02*
X0111000Y0088861D01*
X0110776Y0086463D02*
X0116000Y0086463D01*
X0116000Y0084064D02*
X0108600Y0084064D01*
X0106201Y0081666D02*
X0115130Y0081666D01*
X0112732Y0079267D02*
X0103803Y0079267D01*
X0101404Y0076869D02*
X0110333Y0076869D01*
X0105813Y0074470D02*
X0099006Y0074470D01*
X0096607Y0072072D02*
X0104500Y0072072D01*
X0104927Y0069673D02*
X0094209Y0069673D01*
X0129300Y0050485D02*
X0037700Y0050485D01*
X0037700Y0048087D02*
X0129300Y0048087D01*
X0129300Y0045688D02*
X0037700Y0045688D01*
X0037700Y0043290D02*
X0129300Y0043290D01*
X0129300Y0040891D02*
X0037700Y0040891D01*
X0037700Y0038493D02*
X0129300Y0038493D01*
X0129300Y0036094D02*
X0037700Y0036094D01*
X0037700Y0033696D02*
X0129300Y0033696D01*
D12*
X0108500Y0071500D03*
X0118500Y0091500D03*
X0123500Y0100500D03*
X0108500Y0102500D03*
X0086500Y0104500D03*
X0076500Y0097500D03*
X0084500Y0091500D03*
X0075500Y0054500D03*
X0042500Y0097500D03*
D13*
X0076500Y0097500D01*
X0081500Y0094500D02*
X0084500Y0091500D01*
X0081500Y0094500D02*
X0081500Y0108500D01*
X0087500Y0114500D01*
X0088500Y0114500D01*
X0098500Y0114500D02*
X0100500Y0114500D01*
X0107500Y0107500D01*
X0116500Y0107500D01*
X0123500Y0100500D01*
X0118500Y0091500D02*
X0118500Y0081500D01*
X0108500Y0071500D01*
X0108500Y0087500D02*
X0108500Y0102500D01*
X0106500Y0104500D01*
X0086500Y0104500D01*
X0108500Y0087500D02*
X0075500Y0054500D01*
M02*
