G75*
%MOIN*%
%OFA0B0*%
%FSLAX25Y25*%
%IPPOS*%
%LPD*%
%AMOC8*
5,1,8,0,0,1.08239X$1,22.5*
%
%ADD10R,0.05131X0.04737*%
%ADD11R,0.02375X0.06115*%
%ADD12R,0.07887X0.07887*%
%ADD13R,0.09855X0.05918*%
%ADD14R,0.07099X0.07099*%
%ADD15R,0.06706X0.05918*%
%ADD16R,0.09855X0.07099*%
%ADD17R,0.02769X0.02769*%
%ADD18R,0.06706X0.01600*%
%ADD19R,0.01600X0.06706*%
%ADD20C,0.06800*%
%ADD21C,0.04800*%
D10*
X0091154Y0047500D03*
X0097846Y0047500D03*
X0100846Y0101500D03*
X0094154Y0101500D03*
D11*
X0070018Y0045642D03*
X0067459Y0045642D03*
X0064900Y0045642D03*
X0062341Y0045642D03*
X0059782Y0045642D03*
D12*
X0060372Y0035209D03*
X0069428Y0035209D03*
D13*
X0050136Y0035209D03*
X0079664Y0035209D03*
D14*
X0077498Y0044795D03*
X0052302Y0044795D03*
D15*
X0091500Y0038240D03*
X0091500Y0030760D03*
D16*
G36*
X0114724Y0033705D02*
X0107757Y0026738D01*
X0102738Y0031757D01*
X0109705Y0038724D01*
X0114724Y0033705D01*
G37*
G36*
X0132262Y0051243D02*
X0125295Y0044276D01*
X0120276Y0049295D01*
X0127243Y0056262D01*
X0132262Y0051243D01*
G37*
D17*
X0065669Y0054744D03*
X0061731Y0054744D03*
X0061731Y0060256D03*
X0065669Y0060256D03*
D18*
X0083783Y0063673D03*
X0083783Y0065642D03*
X0083783Y0067610D03*
X0083783Y0069579D03*
X0083783Y0071547D03*
X0083783Y0073516D03*
X0083783Y0075484D03*
X0083783Y0077453D03*
X0083783Y0079421D03*
X0083783Y0081390D03*
X0083783Y0083358D03*
X0083783Y0085327D03*
X0119217Y0085327D03*
X0119217Y0083358D03*
X0119217Y0081390D03*
X0119217Y0079421D03*
X0119217Y0077453D03*
X0119217Y0075484D03*
X0119217Y0073516D03*
X0119217Y0071547D03*
X0119217Y0069579D03*
X0119217Y0067610D03*
X0119217Y0065642D03*
X0119217Y0063673D03*
D19*
X0112327Y0056783D03*
X0110358Y0056783D03*
X0108390Y0056783D03*
X0106421Y0056783D03*
X0104453Y0056783D03*
X0102484Y0056783D03*
X0100516Y0056783D03*
X0098547Y0056783D03*
X0096579Y0056783D03*
X0094610Y0056783D03*
X0092642Y0056783D03*
X0090673Y0056783D03*
X0090673Y0092217D03*
X0092642Y0092217D03*
X0094610Y0092217D03*
X0096579Y0092217D03*
X0098547Y0092217D03*
X0100516Y0092217D03*
X0102484Y0092217D03*
X0104453Y0092217D03*
X0106421Y0092217D03*
X0108390Y0092217D03*
X0110358Y0092217D03*
X0112327Y0092217D03*
D20*
X0108500Y0114500D03*
X0118500Y0114500D03*
X0128500Y0114500D03*
X0098500Y0114500D03*
X0088500Y0114500D03*
X0078500Y0114500D03*
X0068500Y0114500D03*
X0058500Y0114500D03*
X0048500Y0114500D03*
X0038500Y0114500D03*
D21*
X0042500Y0097500D03*
X0076500Y0097500D03*
X0084500Y0091500D03*
X0086500Y0104500D03*
X0108500Y0102500D03*
X0118500Y0091500D03*
X0123500Y0100500D03*
X0108500Y0071500D03*
X0075500Y0054500D03*
M02*
