G75*
%MOIN*%
%OFA0B0*%
%FSLAX25Y25*%
%IPPOS*%
%LPD*%
%AMOC8*
5,1,8,0,0,1.08239X$1,22.5*
%
%ADD10C,0.00000*%
%ADD11R,0.01800X0.01800*%
%ADD12R,0.03268X0.02480*%
%ADD13R,0.02480X0.03268*%
%ADD14R,0.02756X0.03543*%
%ADD15R,0.01575X0.05709*%
%ADD16R,0.07087X0.05906*%
%ADD17R,0.09843X0.05906*%
%ADD18C,0.07400*%
%ADD19R,0.04331X0.03937*%
%ADD20R,0.03937X0.04331*%
%ADD21R,0.03000X0.06000*%
%ADD22R,0.05800X0.01100*%
%ADD23R,0.01100X0.05800*%
%ADD24R,0.07480X0.04331*%
%ADD25R,0.07400X0.07400*%
%ADD26C,0.01000*%
%ADD27C,0.03600*%
D10*
X0307500Y0205500D02*
X0307500Y0355500D01*
X0457500Y0355500D01*
X0457500Y0205500D01*
X0307500Y0205500D01*
X0373347Y0338839D02*
X0373349Y0338920D01*
X0373355Y0339002D01*
X0373365Y0339083D01*
X0373379Y0339163D01*
X0373396Y0339242D01*
X0373418Y0339321D01*
X0373443Y0339398D01*
X0373472Y0339475D01*
X0373505Y0339549D01*
X0373542Y0339622D01*
X0373581Y0339693D01*
X0373625Y0339762D01*
X0373671Y0339829D01*
X0373721Y0339893D01*
X0373774Y0339955D01*
X0373830Y0340015D01*
X0373888Y0340071D01*
X0373950Y0340125D01*
X0374014Y0340176D01*
X0374080Y0340223D01*
X0374148Y0340267D01*
X0374219Y0340308D01*
X0374291Y0340345D01*
X0374366Y0340379D01*
X0374441Y0340409D01*
X0374519Y0340435D01*
X0374597Y0340458D01*
X0374676Y0340476D01*
X0374756Y0340491D01*
X0374837Y0340502D01*
X0374918Y0340509D01*
X0375000Y0340512D01*
X0375081Y0340511D01*
X0375162Y0340506D01*
X0375243Y0340497D01*
X0375324Y0340484D01*
X0375404Y0340467D01*
X0375482Y0340447D01*
X0375560Y0340422D01*
X0375637Y0340394D01*
X0375712Y0340362D01*
X0375785Y0340327D01*
X0375856Y0340288D01*
X0375926Y0340245D01*
X0375993Y0340200D01*
X0376059Y0340151D01*
X0376121Y0340099D01*
X0376181Y0340043D01*
X0376238Y0339985D01*
X0376293Y0339925D01*
X0376344Y0339861D01*
X0376392Y0339796D01*
X0376437Y0339728D01*
X0376479Y0339658D01*
X0376517Y0339586D01*
X0376552Y0339512D01*
X0376583Y0339437D01*
X0376610Y0339360D01*
X0376633Y0339282D01*
X0376653Y0339203D01*
X0376669Y0339123D01*
X0376681Y0339042D01*
X0376689Y0338961D01*
X0376693Y0338880D01*
X0376693Y0338798D01*
X0376689Y0338717D01*
X0376681Y0338636D01*
X0376669Y0338555D01*
X0376653Y0338475D01*
X0376633Y0338396D01*
X0376610Y0338318D01*
X0376583Y0338241D01*
X0376552Y0338166D01*
X0376517Y0338092D01*
X0376479Y0338020D01*
X0376437Y0337950D01*
X0376392Y0337882D01*
X0376344Y0337817D01*
X0376293Y0337753D01*
X0376238Y0337693D01*
X0376181Y0337635D01*
X0376121Y0337579D01*
X0376059Y0337527D01*
X0375993Y0337478D01*
X0375926Y0337433D01*
X0375857Y0337390D01*
X0375785Y0337351D01*
X0375712Y0337316D01*
X0375637Y0337284D01*
X0375560Y0337256D01*
X0375482Y0337231D01*
X0375404Y0337211D01*
X0375324Y0337194D01*
X0375243Y0337181D01*
X0375162Y0337172D01*
X0375081Y0337167D01*
X0375000Y0337166D01*
X0374918Y0337169D01*
X0374837Y0337176D01*
X0374756Y0337187D01*
X0374676Y0337202D01*
X0374597Y0337220D01*
X0374519Y0337243D01*
X0374441Y0337269D01*
X0374366Y0337299D01*
X0374291Y0337333D01*
X0374219Y0337370D01*
X0374148Y0337411D01*
X0374080Y0337455D01*
X0374014Y0337502D01*
X0373950Y0337553D01*
X0373888Y0337607D01*
X0373830Y0337663D01*
X0373774Y0337723D01*
X0373721Y0337785D01*
X0373671Y0337849D01*
X0373625Y0337916D01*
X0373581Y0337985D01*
X0373542Y0338056D01*
X0373505Y0338129D01*
X0373472Y0338203D01*
X0373443Y0338280D01*
X0373418Y0338357D01*
X0373396Y0338436D01*
X0373379Y0338515D01*
X0373365Y0338595D01*
X0373355Y0338676D01*
X0373349Y0338758D01*
X0373347Y0338839D01*
X0388307Y0338839D02*
X0388309Y0338920D01*
X0388315Y0339002D01*
X0388325Y0339083D01*
X0388339Y0339163D01*
X0388356Y0339242D01*
X0388378Y0339321D01*
X0388403Y0339398D01*
X0388432Y0339475D01*
X0388465Y0339549D01*
X0388502Y0339622D01*
X0388541Y0339693D01*
X0388585Y0339762D01*
X0388631Y0339829D01*
X0388681Y0339893D01*
X0388734Y0339955D01*
X0388790Y0340015D01*
X0388848Y0340071D01*
X0388910Y0340125D01*
X0388974Y0340176D01*
X0389040Y0340223D01*
X0389108Y0340267D01*
X0389179Y0340308D01*
X0389251Y0340345D01*
X0389326Y0340379D01*
X0389401Y0340409D01*
X0389479Y0340435D01*
X0389557Y0340458D01*
X0389636Y0340476D01*
X0389716Y0340491D01*
X0389797Y0340502D01*
X0389878Y0340509D01*
X0389960Y0340512D01*
X0390041Y0340511D01*
X0390122Y0340506D01*
X0390203Y0340497D01*
X0390284Y0340484D01*
X0390364Y0340467D01*
X0390442Y0340447D01*
X0390520Y0340422D01*
X0390597Y0340394D01*
X0390672Y0340362D01*
X0390745Y0340327D01*
X0390816Y0340288D01*
X0390886Y0340245D01*
X0390953Y0340200D01*
X0391019Y0340151D01*
X0391081Y0340099D01*
X0391141Y0340043D01*
X0391198Y0339985D01*
X0391253Y0339925D01*
X0391304Y0339861D01*
X0391352Y0339796D01*
X0391397Y0339728D01*
X0391439Y0339658D01*
X0391477Y0339586D01*
X0391512Y0339512D01*
X0391543Y0339437D01*
X0391570Y0339360D01*
X0391593Y0339282D01*
X0391613Y0339203D01*
X0391629Y0339123D01*
X0391641Y0339042D01*
X0391649Y0338961D01*
X0391653Y0338880D01*
X0391653Y0338798D01*
X0391649Y0338717D01*
X0391641Y0338636D01*
X0391629Y0338555D01*
X0391613Y0338475D01*
X0391593Y0338396D01*
X0391570Y0338318D01*
X0391543Y0338241D01*
X0391512Y0338166D01*
X0391477Y0338092D01*
X0391439Y0338020D01*
X0391397Y0337950D01*
X0391352Y0337882D01*
X0391304Y0337817D01*
X0391253Y0337753D01*
X0391198Y0337693D01*
X0391141Y0337635D01*
X0391081Y0337579D01*
X0391019Y0337527D01*
X0390953Y0337478D01*
X0390886Y0337433D01*
X0390817Y0337390D01*
X0390745Y0337351D01*
X0390672Y0337316D01*
X0390597Y0337284D01*
X0390520Y0337256D01*
X0390442Y0337231D01*
X0390364Y0337211D01*
X0390284Y0337194D01*
X0390203Y0337181D01*
X0390122Y0337172D01*
X0390041Y0337167D01*
X0389960Y0337166D01*
X0389878Y0337169D01*
X0389797Y0337176D01*
X0389716Y0337187D01*
X0389636Y0337202D01*
X0389557Y0337220D01*
X0389479Y0337243D01*
X0389401Y0337269D01*
X0389326Y0337299D01*
X0389251Y0337333D01*
X0389179Y0337370D01*
X0389108Y0337411D01*
X0389040Y0337455D01*
X0388974Y0337502D01*
X0388910Y0337553D01*
X0388848Y0337607D01*
X0388790Y0337663D01*
X0388734Y0337723D01*
X0388681Y0337785D01*
X0388631Y0337849D01*
X0388585Y0337916D01*
X0388541Y0337985D01*
X0388502Y0338056D01*
X0388465Y0338129D01*
X0388432Y0338203D01*
X0388403Y0338280D01*
X0388378Y0338357D01*
X0388356Y0338436D01*
X0388339Y0338515D01*
X0388325Y0338595D01*
X0388315Y0338676D01*
X0388309Y0338758D01*
X0388307Y0338839D01*
D11*
X0406800Y0325200D03*
X0410200Y0325200D03*
X0410200Y0321800D03*
X0406800Y0321800D03*
D12*
X0428500Y0320972D03*
X0428500Y0330028D03*
D13*
X0443972Y0330500D03*
X0453028Y0330500D03*
X0453028Y0339500D03*
X0443972Y0339500D03*
D14*
X0413059Y0347500D03*
X0407941Y0347500D03*
X0365059Y0257500D03*
X0359941Y0257500D03*
D15*
X0377382Y0336772D03*
X0379941Y0336772D03*
X0382500Y0336772D03*
X0385059Y0336772D03*
X0387618Y0336772D03*
D16*
X0397008Y0347500D03*
X0367992Y0347500D03*
D17*
X0382500Y0347500D03*
D18*
X0324200Y0349500D03*
X0312800Y0349500D03*
X0313500Y0315500D03*
X0313500Y0305500D03*
X0313500Y0295500D03*
X0313500Y0285500D03*
X0313500Y0275500D03*
X0313500Y0265500D03*
X0313500Y0255500D03*
X0312800Y0211500D03*
X0324200Y0211500D03*
X0440800Y0211500D03*
X0452200Y0211500D03*
X0451500Y0240500D03*
X0451500Y0250500D03*
X0451500Y0260500D03*
X0451500Y0270500D03*
X0451500Y0280500D03*
X0451500Y0290500D03*
X0451500Y0300500D03*
X0451500Y0310500D03*
X0451500Y0320500D03*
X0452200Y0349500D03*
X0440800Y0349500D03*
D19*
X0428846Y0347500D03*
X0422154Y0347500D03*
X0348846Y0257500D03*
X0342154Y0257500D03*
D20*
X0398500Y0305154D03*
X0398500Y0311846D03*
X0408500Y0311846D03*
X0408500Y0305154D03*
X0418500Y0305154D03*
X0418500Y0311846D03*
X0389500Y0320154D03*
X0389500Y0326846D03*
X0380500Y0326846D03*
X0380500Y0320154D03*
D21*
X0350000Y0297500D03*
X0335000Y0297500D03*
X0335000Y0275500D03*
X0350000Y0275500D03*
D22*
X0385000Y0275400D03*
X0385000Y0277300D03*
X0385000Y0279300D03*
X0385000Y0281300D03*
X0385000Y0273400D03*
X0385000Y0271400D03*
X0385000Y0269500D03*
X0385000Y0267500D03*
X0385000Y0265500D03*
X0385000Y0263500D03*
X0385000Y0261600D03*
X0385000Y0259600D03*
X0385000Y0257600D03*
X0385000Y0255700D03*
X0385000Y0253700D03*
X0385000Y0251700D03*
X0430000Y0251700D03*
X0430000Y0253700D03*
X0430000Y0255700D03*
X0430000Y0257600D03*
X0430000Y0259600D03*
X0430000Y0261600D03*
X0430000Y0263500D03*
X0430000Y0265500D03*
X0430000Y0267500D03*
X0430000Y0269500D03*
X0430000Y0271400D03*
X0430000Y0273400D03*
X0430000Y0275400D03*
X0430000Y0277300D03*
X0430000Y0279300D03*
X0430000Y0281300D03*
X0360100Y0315700D03*
X0360100Y0317600D03*
X0360100Y0319600D03*
X0360100Y0321600D03*
X0360100Y0323500D03*
X0360100Y0325500D03*
X0360100Y0327500D03*
X0360100Y0329500D03*
X0360100Y0331400D03*
X0360100Y0333400D03*
X0360100Y0335400D03*
X0360100Y0337300D03*
X0326900Y0337300D03*
X0326900Y0335400D03*
X0326900Y0333400D03*
X0326900Y0331400D03*
X0326900Y0329500D03*
X0326900Y0327500D03*
X0326900Y0325500D03*
X0326900Y0323500D03*
X0326900Y0321600D03*
X0326900Y0319600D03*
X0326900Y0317600D03*
X0326900Y0315700D03*
D23*
X0332700Y0309900D03*
X0334600Y0309900D03*
X0336600Y0309900D03*
X0338600Y0309900D03*
X0340500Y0309900D03*
X0342500Y0309900D03*
X0344500Y0309900D03*
X0346500Y0309900D03*
X0348400Y0309900D03*
X0350400Y0309900D03*
X0352400Y0309900D03*
X0354300Y0309900D03*
X0392700Y0289000D03*
X0394700Y0289000D03*
X0396700Y0289000D03*
X0398600Y0289000D03*
X0400600Y0289000D03*
X0402600Y0289000D03*
X0404500Y0289000D03*
X0406500Y0289000D03*
X0408500Y0289000D03*
X0410500Y0289000D03*
X0412400Y0289000D03*
X0414400Y0289000D03*
X0416400Y0289000D03*
X0418300Y0289000D03*
X0420300Y0289000D03*
X0422300Y0289000D03*
X0422300Y0244000D03*
X0420300Y0244000D03*
X0418300Y0244000D03*
X0416400Y0244000D03*
X0414400Y0244000D03*
X0412400Y0244000D03*
X0410500Y0244000D03*
X0408500Y0244000D03*
X0406500Y0244000D03*
X0404500Y0244000D03*
X0402600Y0244000D03*
X0400600Y0244000D03*
X0398600Y0244000D03*
X0396700Y0244000D03*
X0394700Y0244000D03*
X0392700Y0244000D03*
X0354300Y0343100D03*
X0352400Y0343100D03*
X0350400Y0343100D03*
X0348400Y0343100D03*
X0346500Y0343100D03*
X0344500Y0343100D03*
X0342500Y0343100D03*
X0340500Y0343100D03*
X0338600Y0343100D03*
X0336600Y0343100D03*
X0334600Y0343100D03*
X0332700Y0343100D03*
D24*
X0420217Y0234028D03*
X0434783Y0234028D03*
X0434783Y0224972D03*
X0420217Y0224972D03*
D25*
X0313500Y0245500D03*
D26*
X0320500Y0241500D02*
X0317500Y0238500D01*
X0310500Y0238500D01*
X0309500Y0237500D01*
X0309500Y0221500D01*
X0312500Y0218500D01*
X0324500Y0218500D01*
X0335500Y0207500D01*
X0433500Y0207500D01*
X0434500Y0208500D01*
X0434500Y0215500D01*
X0438500Y0219500D01*
X0441500Y0219500D01*
X0442500Y0220500D01*
X0442500Y0237500D01*
X0439500Y0240500D01*
X0439500Y0251500D01*
X0435300Y0255700D01*
X0430000Y0255700D01*
X0430000Y0257600D02*
X0438400Y0257600D01*
X0438500Y0257500D01*
X0437500Y0261500D02*
X0435500Y0263500D01*
X0430000Y0263500D01*
X0430000Y0261600D02*
X0429900Y0261500D01*
X0417500Y0261500D01*
X0412500Y0266500D01*
X0416300Y0266409D02*
X0419764Y0266409D01*
X0419700Y0266256D02*
X0419700Y0264744D01*
X0420008Y0264000D01*
X0418536Y0264000D01*
X0416300Y0266236D01*
X0416300Y0267256D01*
X0415721Y0268653D01*
X0414653Y0269721D01*
X0413256Y0270300D01*
X0411744Y0270300D01*
X0411300Y0270116D01*
X0411300Y0270256D01*
X0410721Y0271653D01*
X0409653Y0272721D01*
X0408256Y0273300D01*
X0406744Y0273300D01*
X0406000Y0272992D01*
X0406000Y0276464D01*
X0406536Y0277000D01*
X0414997Y0277000D01*
X0415011Y0277005D01*
X0414700Y0276256D01*
X0414700Y0274744D01*
X0415279Y0273347D01*
X0416347Y0272279D01*
X0417010Y0272004D01*
X0416700Y0271256D01*
X0416700Y0269744D01*
X0417279Y0268347D01*
X0418347Y0267279D01*
X0419744Y0266700D01*
X0419884Y0266700D01*
X0419700Y0266256D01*
X0419700Y0265411D02*
X0417125Y0265411D01*
X0418123Y0264412D02*
X0419837Y0264412D01*
X0418218Y0267408D02*
X0416237Y0267408D01*
X0415823Y0268406D02*
X0417254Y0268406D01*
X0416841Y0269405D02*
X0414969Y0269405D01*
X0416700Y0270403D02*
X0411239Y0270403D01*
X0410825Y0271402D02*
X0416760Y0271402D01*
X0416226Y0272400D02*
X0409974Y0272400D01*
X0407500Y0269500D02*
X0411400Y0259600D01*
X0430000Y0259600D01*
X0430000Y0253700D02*
X0427700Y0253700D01*
X0427500Y0253500D01*
X0420500Y0257500D01*
X0409500Y0257500D01*
X0407500Y0260500D01*
X0404500Y0262500D01*
X0403500Y0267500D02*
X0396500Y0260500D01*
X0396500Y0257500D01*
X0397500Y0256500D01*
X0406500Y0256500D01*
X0410500Y0252500D01*
X0416500Y0252500D01*
X0418300Y0250700D01*
X0418300Y0244000D01*
X0416400Y0244000D02*
X0416400Y0249600D01*
X0415500Y0250500D01*
X0409500Y0250500D01*
X0405500Y0254500D01*
X0395500Y0254500D01*
X0394500Y0255500D01*
X0394500Y0261500D01*
X0401500Y0268500D01*
X0401500Y0278500D01*
X0405500Y0282500D01*
X0412500Y0282500D01*
X0413500Y0283500D01*
X0414500Y0279500D02*
X0418500Y0283500D01*
X0422500Y0283500D01*
X0425500Y0283500D01*
X0427700Y0281300D01*
X0430000Y0281300D01*
X0430000Y0279300D02*
X0424300Y0279300D01*
X0423500Y0278500D01*
X0421500Y0280500D01*
X0418500Y0280500D01*
X0415500Y0277500D01*
X0409500Y0277500D01*
X0407500Y0275500D01*
X0406000Y0275396D02*
X0414700Y0275396D01*
X0414757Y0276394D02*
X0406000Y0276394D01*
X0406000Y0274397D02*
X0414844Y0274397D01*
X0415257Y0273399D02*
X0406000Y0273399D01*
X0403500Y0277500D02*
X0403500Y0267500D01*
X0399500Y0269500D02*
X0392500Y0262500D01*
X0392500Y0254500D01*
X0395500Y0251500D01*
X0395500Y0249500D01*
X0399300Y0249434D02*
X0407030Y0249434D01*
X0407381Y0249084D02*
X0407564Y0248900D01*
X0401222Y0248900D01*
X0400722Y0248400D01*
X0400600Y0248400D01*
X0400600Y0248278D01*
X0400600Y0248278D01*
X0400600Y0248278D01*
X0400600Y0248400D01*
X0400478Y0248400D01*
X0399978Y0248900D01*
X0399300Y0248900D01*
X0399300Y0250256D01*
X0398721Y0251653D01*
X0398374Y0252000D01*
X0404464Y0252000D01*
X0407381Y0249084D01*
X0406031Y0250433D02*
X0399227Y0250433D01*
X0398813Y0251432D02*
X0405033Y0251432D01*
X0400500Y0249500D02*
X0400500Y0244100D01*
X0400600Y0244000D01*
X0402500Y0243900D02*
X0402600Y0244000D01*
X0402600Y0237400D01*
X0406500Y0233500D01*
X0406500Y0221500D01*
X0402500Y0217500D01*
X0375500Y0217500D01*
X0371500Y0221500D01*
X0369500Y0221500D01*
X0370500Y0226500D02*
X0377500Y0219500D01*
X0401500Y0219500D01*
X0404500Y0222500D01*
X0404500Y0226500D01*
X0402500Y0228500D01*
X0402500Y0229500D01*
X0408500Y0234500D02*
X0404500Y0238500D01*
X0404500Y0244000D01*
X0406500Y0244000D02*
X0406500Y0239500D01*
X0410500Y0235500D01*
X0410500Y0219500D01*
X0404500Y0213500D01*
X0369500Y0213500D01*
X0361500Y0221500D01*
X0361500Y0223500D01*
X0360500Y0224500D01*
X0351500Y0224500D01*
X0350500Y0223500D01*
X0350500Y0216500D01*
X0349500Y0215500D01*
X0339500Y0215500D01*
X0328500Y0226500D01*
X0318500Y0226500D01*
X0317500Y0227500D01*
X0317500Y0229500D01*
X0318500Y0230500D01*
X0321500Y0230500D01*
X0328500Y0237500D01*
X0328500Y0269500D01*
X0323500Y0274500D01*
X0323500Y0286500D01*
X0325500Y0288500D01*
X0325500Y0295500D01*
X0326500Y0296500D01*
X0326500Y0309500D01*
X0327500Y0310500D01*
X0332100Y0310500D01*
X0332700Y0309900D01*
X0334500Y0309800D02*
X0334600Y0309900D01*
X0334600Y0320600D01*
X0336500Y0322500D01*
X0344500Y0322500D01*
X0347500Y0319500D01*
X0351300Y0319330D02*
X0353000Y0319330D01*
X0353000Y0318332D02*
X0351129Y0318332D01*
X0351300Y0318744D02*
X0351300Y0320256D01*
X0350721Y0321653D01*
X0349653Y0322721D01*
X0348256Y0323300D01*
X0347236Y0323300D01*
X0345916Y0324619D01*
X0344997Y0325000D01*
X0336003Y0325000D01*
X0335084Y0324619D01*
X0334381Y0323916D01*
X0332481Y0322016D01*
X0332199Y0321336D01*
X0331916Y0321619D01*
X0331800Y0321667D01*
X0331800Y0336778D01*
X0331300Y0337278D01*
X0331300Y0337300D01*
X0331300Y0338047D01*
X0331236Y0338285D01*
X0331322Y0338200D01*
X0338000Y0338200D01*
X0338000Y0332374D01*
X0337279Y0331653D01*
X0336700Y0330256D01*
X0336700Y0328744D01*
X0337279Y0327347D01*
X0338347Y0326279D01*
X0339744Y0325700D01*
X0341256Y0325700D01*
X0342653Y0326279D01*
X0343721Y0327347D01*
X0344300Y0328744D01*
X0344300Y0330256D01*
X0343721Y0331653D01*
X0343000Y0332374D01*
X0343000Y0338200D01*
X0345878Y0338200D01*
X0346378Y0338700D01*
X0346500Y0338700D01*
X0346522Y0338700D01*
X0347022Y0338200D01*
X0350826Y0338200D01*
X0349779Y0337153D01*
X0349200Y0335756D01*
X0349200Y0334244D01*
X0349779Y0332847D01*
X0350847Y0331779D01*
X0352244Y0331200D01*
X0353084Y0331200D01*
X0353000Y0330997D01*
X0353000Y0314800D01*
X0352922Y0314800D01*
X0352422Y0314300D01*
X0352400Y0314300D01*
X0352400Y0314278D01*
X0352400Y0314300D01*
X0352278Y0314300D01*
X0351778Y0314800D01*
X0344667Y0314800D01*
X0344619Y0314916D01*
X0343300Y0316236D01*
X0343300Y0317256D01*
X0342721Y0318653D01*
X0341653Y0319721D01*
X0340980Y0320000D01*
X0343464Y0320000D01*
X0343700Y0319764D01*
X0343700Y0318744D01*
X0344279Y0317347D01*
X0345347Y0316279D01*
X0346744Y0315700D01*
X0348256Y0315700D01*
X0349653Y0316279D01*
X0350721Y0317347D01*
X0351300Y0318744D01*
X0350707Y0317333D02*
X0353000Y0317333D01*
X0353000Y0316335D02*
X0349709Y0316335D01*
X0352241Y0314338D02*
X0352459Y0314338D01*
X0352400Y0314278D02*
X0352400Y0314278D01*
X0353000Y0315336D02*
X0344199Y0315336D01*
X0343300Y0316335D02*
X0345291Y0316335D01*
X0344293Y0317333D02*
X0343268Y0317333D01*
X0342854Y0318332D02*
X0343871Y0318332D01*
X0343700Y0319330D02*
X0342044Y0319330D01*
X0339500Y0316500D02*
X0342500Y0313500D01*
X0342500Y0309900D01*
X0342500Y0303500D01*
X0344500Y0301500D01*
X0344500Y0292500D01*
X0348500Y0288500D01*
X0351000Y0288500D01*
X0360000Y0297500D01*
X0360500Y0297500D01*
X0361500Y0298500D01*
X0367500Y0304500D01*
X0371500Y0307500D02*
X0369500Y0309500D01*
X0369500Y0318500D01*
X0371500Y0320500D01*
X0367500Y0322500D02*
X0370500Y0325500D01*
X0367500Y0322500D02*
X0367500Y0313500D01*
X0365500Y0311500D01*
X0363500Y0311500D01*
X0362500Y0306500D02*
X0355500Y0314500D01*
X0355500Y0330500D01*
X0356400Y0331400D01*
X0360100Y0331400D01*
X0360100Y0329500D02*
X0372500Y0329500D01*
X0375500Y0326500D01*
X0375500Y0316500D01*
X0372500Y0313500D01*
X0372500Y0309500D01*
X0373500Y0308500D01*
X0373500Y0285500D01*
X0370500Y0281500D01*
X0371500Y0277500D02*
X0375500Y0281500D01*
X0375500Y0310500D01*
X0378500Y0313500D01*
X0383500Y0312500D02*
X0377500Y0306500D01*
X0377500Y0280500D01*
X0372500Y0275500D01*
X0368500Y0275500D01*
X0367500Y0274500D01*
X0367500Y0272500D01*
X0369500Y0270500D01*
X0371500Y0270500D01*
X0374400Y0273400D01*
X0385000Y0273400D01*
X0384900Y0271500D02*
X0375500Y0271500D01*
X0372500Y0268500D01*
X0368500Y0268500D01*
X0365500Y0271500D01*
X0365500Y0275500D01*
X0367500Y0277500D01*
X0371500Y0277500D01*
X0376436Y0275900D02*
X0378916Y0278381D01*
X0379619Y0279084D01*
X0380000Y0280003D01*
X0380000Y0305464D01*
X0385081Y0310545D01*
X0385347Y0310279D01*
X0386744Y0309700D01*
X0388256Y0309700D01*
X0389653Y0310279D01*
X0390000Y0310626D01*
X0390000Y0307536D01*
X0386381Y0303916D01*
X0386000Y0302997D01*
X0386000Y0293003D01*
X0386381Y0292084D01*
X0387000Y0291464D01*
X0387000Y0285003D01*
X0387381Y0284084D01*
X0387614Y0283850D01*
X0381272Y0283850D01*
X0380100Y0282678D01*
X0380100Y0275922D01*
X0380122Y0275900D01*
X0376436Y0275900D01*
X0376930Y0276394D02*
X0380100Y0276394D01*
X0379500Y0276500D02*
X0380600Y0275400D01*
X0385000Y0275400D01*
X0391600Y0275400D01*
X0393500Y0275500D01*
X0395000Y0275396D02*
X0390931Y0275396D01*
X0390916Y0275381D02*
X0393236Y0277700D01*
X0394256Y0277700D01*
X0395000Y0278008D01*
X0395000Y0271980D01*
X0394721Y0272653D01*
X0393653Y0273721D01*
X0392256Y0274300D01*
X0390744Y0274300D01*
X0389900Y0273950D01*
X0389900Y0274778D01*
X0389678Y0275000D01*
X0389997Y0275000D01*
X0390916Y0275381D01*
X0389900Y0274397D02*
X0395000Y0274397D01*
X0395000Y0273399D02*
X0393975Y0273399D01*
X0394826Y0272400D02*
X0395000Y0272400D01*
X0397500Y0270500D02*
X0392500Y0265500D01*
X0390500Y0265500D01*
X0389500Y0269500D02*
X0391500Y0270500D01*
X0389500Y0269500D02*
X0385000Y0269500D01*
X0376059Y0269500D01*
X0365059Y0258500D01*
X0365059Y0257500D01*
X0365059Y0259941D01*
X0361500Y0263500D01*
X0355500Y0263500D01*
X0359941Y0257500D02*
X0348846Y0257500D01*
X0342154Y0257500D02*
X0340500Y0257500D01*
X0336500Y0253500D01*
X0320500Y0262500D02*
X0320500Y0241500D01*
X0322500Y0240500D02*
X0318500Y0236500D01*
X0312500Y0236500D01*
X0311500Y0235500D01*
X0311500Y0222500D01*
X0313500Y0220500D01*
X0325500Y0220500D01*
X0336500Y0209500D01*
X0428500Y0209500D01*
X0430500Y0211500D01*
X0420217Y0224972D02*
X0418028Y0224972D01*
X0414500Y0228500D01*
X0414500Y0236500D01*
X0415500Y0237500D01*
X0421500Y0237500D01*
X0422300Y0238300D01*
X0422300Y0244000D01*
X0420300Y0244000D02*
X0420300Y0246300D01*
X0420500Y0246500D01*
X0420500Y0248500D01*
X0422500Y0250500D01*
X0422500Y0252500D01*
X0422586Y0253429D02*
X0419107Y0253429D01*
X0419716Y0252819D02*
X0417916Y0254619D01*
X0416997Y0255000D01*
X0411536Y0255000D01*
X0411536Y0255000D01*
X0419836Y0255000D01*
X0425100Y0251992D01*
X0425100Y0250322D01*
X0426272Y0249150D01*
X0433000Y0249150D01*
X0433000Y0241300D01*
X0424850Y0241300D01*
X0424850Y0247728D01*
X0423678Y0248900D01*
X0420922Y0248900D01*
X0420800Y0248778D01*
X0420800Y0251197D01*
X0420419Y0252116D01*
X0419716Y0252819D01*
X0419716Y0252819D01*
X0420105Y0252430D02*
X0424334Y0252430D01*
X0425100Y0251432D02*
X0420703Y0251432D01*
X0420800Y0250433D02*
X0425100Y0250433D01*
X0425987Y0249434D02*
X0420800Y0249434D01*
X0424142Y0248436D02*
X0433000Y0248436D01*
X0433000Y0247437D02*
X0424850Y0247437D01*
X0424850Y0246439D02*
X0433000Y0246439D01*
X0433000Y0245440D02*
X0424850Y0245440D01*
X0424850Y0244442D02*
X0433000Y0244442D01*
X0433000Y0243443D02*
X0424850Y0243443D01*
X0424850Y0242445D02*
X0433000Y0242445D01*
X0433000Y0241446D02*
X0424850Y0241446D01*
X0430000Y0251700D02*
X0434300Y0251700D01*
X0435500Y0250500D01*
X0435500Y0234744D01*
X0434783Y0234028D01*
X0412500Y0236500D02*
X0408500Y0240500D01*
X0408500Y0244000D01*
X0412500Y0236500D02*
X0412500Y0218500D01*
X0405500Y0211500D01*
X0368500Y0211500D01*
X0359500Y0220500D01*
X0359500Y0221500D01*
X0358500Y0222500D01*
X0353500Y0222500D01*
X0352500Y0221500D01*
X0352500Y0215500D01*
X0350500Y0213500D01*
X0338500Y0213500D01*
X0327500Y0224500D01*
X0316500Y0224500D01*
X0315500Y0225500D01*
X0315500Y0231500D01*
X0316500Y0232500D01*
X0320500Y0232500D01*
X0326500Y0238500D01*
X0326500Y0268500D01*
X0321500Y0273500D01*
X0321500Y0287500D01*
X0323500Y0289500D01*
X0323500Y0296500D01*
X0324500Y0297500D01*
X0324500Y0311500D01*
X0325500Y0312500D01*
X0329500Y0312500D01*
X0332500Y0315500D01*
X0332500Y0317500D01*
X0330500Y0319500D01*
X0326800Y0319500D01*
X0326900Y0319600D01*
X0326900Y0321600D01*
X0326900Y0323500D02*
X0323500Y0323500D01*
X0322500Y0322500D01*
X0322500Y0298500D01*
X0321500Y0297500D01*
X0321500Y0290500D01*
X0319500Y0288500D01*
X0319500Y0272500D01*
X0324500Y0267500D01*
X0324500Y0239500D01*
X0319500Y0234500D01*
X0314500Y0234500D01*
X0313500Y0233500D01*
X0313500Y0223500D01*
X0314500Y0222500D01*
X0326500Y0222500D01*
X0337500Y0211500D01*
X0353500Y0211500D01*
X0357500Y0215500D01*
X0357500Y0217500D01*
X0363500Y0222500D02*
X0370500Y0215500D01*
X0403500Y0215500D01*
X0408500Y0220500D01*
X0408500Y0234500D01*
X0400758Y0248436D02*
X0400442Y0248436D01*
X0392700Y0244000D02*
X0392500Y0243800D01*
X0391500Y0242500D01*
X0383500Y0242500D01*
X0384800Y0251500D02*
X0379500Y0251500D01*
X0371500Y0243500D01*
X0371500Y0227500D01*
X0370500Y0226500D01*
X0367500Y0226500D01*
X0363500Y0225500D02*
X0363500Y0222500D01*
X0363500Y0225500D02*
X0362500Y0226500D01*
X0349500Y0226500D01*
X0348500Y0225500D01*
X0348500Y0218500D01*
X0347500Y0217500D01*
X0340500Y0217500D01*
X0329500Y0228500D01*
X0325500Y0228500D01*
X0324500Y0229500D01*
X0324500Y0230500D01*
X0330500Y0236500D01*
X0330500Y0270500D01*
X0325500Y0275500D01*
X0325500Y0285500D01*
X0327500Y0287500D01*
X0327500Y0294500D01*
X0328500Y0295500D01*
X0328500Y0303500D01*
X0329500Y0304500D01*
X0333500Y0304500D01*
X0334600Y0305600D01*
X0334600Y0309900D01*
X0337500Y0303500D02*
X0335000Y0301000D01*
X0335000Y0297500D01*
X0347000Y0297363D02*
X0349750Y0297363D01*
X0349750Y0297250D02*
X0347000Y0297250D01*
X0347000Y0294303D01*
X0347102Y0293921D01*
X0347300Y0293579D01*
X0347579Y0293300D01*
X0347921Y0293102D01*
X0348303Y0293000D01*
X0349750Y0293000D01*
X0349750Y0297250D01*
X0350250Y0297250D01*
X0350250Y0297750D01*
X0349750Y0297750D01*
X0349750Y0302000D01*
X0348303Y0302000D01*
X0347921Y0301898D01*
X0347579Y0301700D01*
X0347300Y0301421D01*
X0347102Y0301079D01*
X0347000Y0300697D01*
X0347000Y0297750D01*
X0349750Y0297750D01*
X0349750Y0297250D01*
X0350000Y0297500D02*
X0352000Y0299500D01*
X0355500Y0299500D01*
X0357326Y0298362D02*
X0353000Y0298362D01*
X0353000Y0297750D02*
X0353000Y0300697D01*
X0352898Y0301079D01*
X0352700Y0301421D01*
X0352421Y0301700D01*
X0352079Y0301898D01*
X0351697Y0302000D01*
X0350250Y0302000D01*
X0350250Y0297750D01*
X0353000Y0297750D01*
X0353000Y0297250D02*
X0350250Y0297250D01*
X0350250Y0293000D01*
X0351697Y0293000D01*
X0352062Y0293098D01*
X0349964Y0291000D01*
X0349536Y0291000D01*
X0347000Y0293536D01*
X0347000Y0301997D01*
X0346619Y0302916D01*
X0345916Y0303619D01*
X0345000Y0304536D01*
X0345000Y0305000D01*
X0351778Y0305000D01*
X0352278Y0305500D01*
X0352400Y0305500D01*
X0352422Y0305500D01*
X0352922Y0305000D01*
X0355678Y0305000D01*
X0356850Y0306172D01*
X0356850Y0309161D01*
X0358700Y0307046D01*
X0358700Y0305744D01*
X0359279Y0304347D01*
X0360347Y0303279D01*
X0361744Y0302700D01*
X0362164Y0302700D01*
X0361764Y0302300D01*
X0360744Y0302300D01*
X0359347Y0301721D01*
X0358279Y0300653D01*
X0357700Y0299256D01*
X0357700Y0298736D01*
X0352902Y0293938D01*
X0353000Y0294303D01*
X0353000Y0297250D01*
X0353000Y0296365D02*
X0355329Y0296365D01*
X0356328Y0297363D02*
X0350250Y0297363D01*
X0350000Y0297500D02*
X0350000Y0300000D01*
X0352500Y0302500D01*
X0352500Y0309800D01*
X0352400Y0309900D01*
X0352400Y0320600D01*
X0346500Y0326500D01*
X0346500Y0327500D01*
X0346500Y0343100D01*
X0346500Y0347500D01*
X0347500Y0348500D01*
X0356500Y0348500D01*
X0362500Y0342500D01*
X0366500Y0342500D01*
X0375228Y0333772D01*
X0377382Y0333925D01*
X0377382Y0336772D01*
X0377382Y0340382D01*
X0379500Y0342500D01*
X0406500Y0342500D01*
X0404500Y0340500D01*
X0404500Y0336500D01*
X0405772Y0334308D02*
X0390405Y0334308D01*
X0390405Y0334130D02*
X0390405Y0335165D01*
X0390711Y0335165D01*
X0392061Y0335725D01*
X0393094Y0336758D01*
X0393654Y0338108D01*
X0393654Y0339569D01*
X0393094Y0340919D01*
X0392061Y0341953D01*
X0390711Y0342512D01*
X0389250Y0342512D01*
X0387900Y0341953D01*
X0387573Y0341626D01*
X0378325Y0341626D01*
X0377876Y0341177D01*
X0377100Y0341953D01*
X0375750Y0342512D01*
X0374289Y0342512D01*
X0372939Y0341953D01*
X0371906Y0340919D01*
X0371346Y0339569D01*
X0371346Y0338189D01*
X0366988Y0342547D01*
X0372364Y0342547D01*
X0373535Y0343719D01*
X0373535Y0345000D01*
X0375579Y0345000D01*
X0375579Y0343719D01*
X0376750Y0342547D01*
X0388250Y0342547D01*
X0389421Y0343719D01*
X0389421Y0345000D01*
X0391465Y0345000D01*
X0391465Y0343719D01*
X0392636Y0342547D01*
X0401380Y0342547D01*
X0402551Y0343719D01*
X0402551Y0345000D01*
X0404563Y0345000D01*
X0404563Y0344900D01*
X0405735Y0343728D01*
X0410147Y0343728D01*
X0410879Y0344460D01*
X0411102Y0344331D01*
X0411484Y0344228D01*
X0412870Y0344228D01*
X0412870Y0347311D01*
X0413248Y0347311D01*
X0413248Y0344228D01*
X0413854Y0344228D01*
X0413279Y0343653D01*
X0412700Y0342256D01*
X0412700Y0341236D01*
X0405464Y0334000D01*
X0390536Y0334000D01*
X0390405Y0334130D01*
X0391052Y0335306D02*
X0406771Y0335306D01*
X0407769Y0336305D02*
X0392641Y0336305D01*
X0393320Y0337303D02*
X0408768Y0337303D01*
X0409766Y0338302D02*
X0393654Y0338302D01*
X0393654Y0339301D02*
X0410765Y0339301D01*
X0411764Y0340299D02*
X0393351Y0340299D01*
X0392716Y0341298D02*
X0412700Y0341298D01*
X0412717Y0342296D02*
X0391232Y0342296D01*
X0391889Y0343295D02*
X0388997Y0343295D01*
X0388729Y0342296D02*
X0376271Y0342296D01*
X0376003Y0343295D02*
X0373111Y0343295D01*
X0373535Y0344293D02*
X0375579Y0344293D01*
X0373768Y0342296D02*
X0367239Y0342296D01*
X0368238Y0341298D02*
X0372284Y0341298D01*
X0371649Y0340299D02*
X0369236Y0340299D01*
X0370235Y0339301D02*
X0371346Y0339301D01*
X0371346Y0338302D02*
X0371234Y0338302D01*
X0365500Y0340500D02*
X0374500Y0331500D01*
X0378500Y0331500D01*
X0379941Y0332941D01*
X0379941Y0336772D01*
X0382500Y0336772D02*
X0382500Y0330500D01*
X0378846Y0326846D01*
X0380500Y0326846D01*
X0385059Y0331287D02*
X0385059Y0336772D01*
X0387618Y0336772D02*
X0387772Y0336772D01*
X0387772Y0333228D01*
X0389500Y0331500D01*
X0406500Y0331500D01*
X0416500Y0341500D01*
X0419154Y0344154D01*
X0422154Y0344154D01*
X0422154Y0347500D01*
X0417988Y0347289D02*
X0415937Y0347289D01*
X0415937Y0347311D02*
X0413248Y0347311D01*
X0413248Y0347689D01*
X0412870Y0347689D01*
X0412870Y0350772D01*
X0411484Y0350772D01*
X0411102Y0350669D01*
X0410879Y0350540D01*
X0410147Y0351272D01*
X0405735Y0351272D01*
X0404563Y0350100D01*
X0404563Y0350000D01*
X0402551Y0350000D01*
X0402551Y0351281D01*
X0401380Y0352453D01*
X0392636Y0352453D01*
X0391465Y0351281D01*
X0391465Y0350000D01*
X0389421Y0350000D01*
X0389421Y0351281D01*
X0388250Y0352453D01*
X0376750Y0352453D01*
X0375579Y0351281D01*
X0375579Y0350000D01*
X0373535Y0350000D01*
X0373535Y0351281D01*
X0372364Y0352453D01*
X0363620Y0352453D01*
X0362449Y0351281D01*
X0362449Y0343719D01*
X0363168Y0343000D01*
X0357003Y0343000D01*
X0356850Y0342937D01*
X0356850Y0346828D01*
X0355678Y0348000D01*
X0347022Y0348000D01*
X0346522Y0347500D01*
X0346500Y0347500D01*
X0346500Y0347478D01*
X0346500Y0347500D01*
X0346378Y0347500D01*
X0345878Y0348000D01*
X0331322Y0348000D01*
X0330150Y0346828D01*
X0330150Y0339372D01*
X0330235Y0339286D01*
X0329997Y0339350D01*
X0326900Y0339350D01*
X0326900Y0337950D01*
X0326900Y0337950D01*
X0326900Y0339350D01*
X0323803Y0339350D01*
X0323421Y0339248D01*
X0323079Y0339050D01*
X0322800Y0338771D01*
X0322602Y0338429D01*
X0322500Y0338047D01*
X0322500Y0337300D01*
X0322522Y0337300D01*
X0322522Y0337300D01*
X0322500Y0337300D01*
X0322500Y0337278D01*
X0322000Y0336778D01*
X0322000Y0327536D01*
X0319000Y0330536D01*
X0319000Y0334700D01*
X0319256Y0334700D01*
X0320653Y0335279D01*
X0321721Y0336347D01*
X0322300Y0337744D01*
X0322300Y0339256D01*
X0321721Y0340653D01*
X0320653Y0341721D01*
X0319256Y0342300D01*
X0317744Y0342300D01*
X0316347Y0341721D01*
X0315279Y0340653D01*
X0314700Y0339256D01*
X0314700Y0338236D01*
X0314381Y0337916D01*
X0314000Y0336997D01*
X0314000Y0333992D01*
X0314000Y0343827D01*
X0316029Y0344668D01*
X0317632Y0346271D01*
X0318500Y0348366D01*
X0318500Y0350634D01*
X0317632Y0352729D01*
X0316861Y0353500D01*
X0320859Y0353500D01*
X0320812Y0353466D01*
X0320234Y0352888D01*
X0319753Y0352225D01*
X0319381Y0351496D01*
X0319128Y0350718D01*
X0319014Y0350000D01*
X0323700Y0350000D01*
X0323700Y0349000D01*
X0324700Y0349000D01*
X0324700Y0350000D01*
X0329386Y0350000D01*
X0329272Y0350718D01*
X0329019Y0351496D01*
X0328647Y0352225D01*
X0328166Y0352888D01*
X0327588Y0353466D01*
X0327541Y0353500D01*
X0436739Y0353500D01*
X0435968Y0352729D01*
X0435100Y0350634D01*
X0435100Y0348366D01*
X0435968Y0346271D01*
X0437239Y0345000D01*
X0436536Y0345000D01*
X0433619Y0347916D01*
X0433012Y0348524D01*
X0433012Y0350297D01*
X0431840Y0351468D01*
X0425853Y0351468D01*
X0425500Y0351116D01*
X0425147Y0351468D01*
X0419160Y0351468D01*
X0417988Y0350297D01*
X0417988Y0346377D01*
X0417737Y0346273D01*
X0416764Y0345300D01*
X0415875Y0345300D01*
X0415937Y0345531D01*
X0415937Y0347311D01*
X0415937Y0347689D02*
X0415937Y0349469D01*
X0415835Y0349851D01*
X0415637Y0350193D01*
X0415358Y0350472D01*
X0415016Y0350669D01*
X0414634Y0350772D01*
X0413248Y0350772D01*
X0413248Y0347689D01*
X0415937Y0347689D01*
X0415937Y0348287D02*
X0417988Y0348287D01*
X0417988Y0349286D02*
X0415937Y0349286D01*
X0415546Y0350284D02*
X0417988Y0350284D01*
X0418974Y0351283D02*
X0402550Y0351283D01*
X0402551Y0350284D02*
X0404747Y0350284D01*
X0401551Y0352281D02*
X0435782Y0352281D01*
X0435369Y0351283D02*
X0432026Y0351283D01*
X0433012Y0350284D02*
X0435100Y0350284D01*
X0435100Y0349286D02*
X0433012Y0349286D01*
X0433248Y0348287D02*
X0435133Y0348287D01*
X0435546Y0347289D02*
X0434247Y0347289D01*
X0435245Y0346290D02*
X0435960Y0346290D01*
X0436244Y0345292D02*
X0436947Y0345292D01*
X0435500Y0342500D02*
X0431500Y0346500D01*
X0429846Y0346500D01*
X0428846Y0347500D01*
X0425667Y0351283D02*
X0425333Y0351283D01*
X0417779Y0346290D02*
X0415937Y0346290D01*
X0413500Y0347059D02*
X0413500Y0344500D01*
X0411500Y0342500D01*
X0406500Y0342500D01*
X0405170Y0344293D02*
X0402551Y0344293D01*
X0402127Y0343295D02*
X0413130Y0343295D01*
X0413248Y0344293D02*
X0412870Y0344293D01*
X0412870Y0345292D02*
X0413248Y0345292D01*
X0413248Y0346290D02*
X0412870Y0346290D01*
X0413500Y0347059D02*
X0413059Y0347500D01*
X0412870Y0347289D02*
X0413248Y0347289D01*
X0413248Y0348287D02*
X0412870Y0348287D01*
X0412870Y0349286D02*
X0413248Y0349286D01*
X0413248Y0350284D02*
X0412870Y0350284D01*
X0407941Y0347500D02*
X0397008Y0347500D01*
X0382500Y0347500D01*
X0367992Y0347500D01*
X0362449Y0347289D02*
X0356390Y0347289D01*
X0356850Y0346290D02*
X0362449Y0346290D01*
X0362449Y0345292D02*
X0356850Y0345292D01*
X0356850Y0344293D02*
X0362449Y0344293D01*
X0362873Y0343295D02*
X0356850Y0343295D01*
X0357500Y0340500D02*
X0353000Y0336000D01*
X0353000Y0335000D01*
X0350315Y0332311D02*
X0343063Y0332311D01*
X0343000Y0333309D02*
X0349587Y0333309D01*
X0349200Y0334308D02*
X0343000Y0334308D01*
X0343000Y0335306D02*
X0349200Y0335306D01*
X0349427Y0336305D02*
X0343000Y0336305D01*
X0343000Y0337303D02*
X0349930Y0337303D01*
X0346920Y0338302D02*
X0345980Y0338302D01*
X0346500Y0338700D02*
X0346500Y0338722D01*
X0346500Y0338722D01*
X0346500Y0338700D01*
X0340500Y0343100D02*
X0340500Y0329500D01*
X0337937Y0332311D02*
X0331800Y0332311D01*
X0331800Y0333309D02*
X0338000Y0333309D01*
X0338000Y0334308D02*
X0331800Y0334308D01*
X0331800Y0335306D02*
X0338000Y0335306D01*
X0338000Y0336305D02*
X0331800Y0336305D01*
X0331300Y0337300D02*
X0331278Y0337300D01*
X0331300Y0337300D01*
X0331300Y0337303D02*
X0338000Y0337303D01*
X0336000Y0333000D02*
X0336000Y0328000D01*
X0338500Y0325500D01*
X0344500Y0325500D01*
X0346500Y0327500D01*
X0344123Y0328317D02*
X0353000Y0328317D01*
X0353000Y0329315D02*
X0344300Y0329315D01*
X0344276Y0330314D02*
X0353000Y0330314D01*
X0351973Y0331312D02*
X0343862Y0331312D01*
X0343692Y0327318D02*
X0353000Y0327318D01*
X0353000Y0326320D02*
X0342694Y0326320D01*
X0346213Y0324323D02*
X0353000Y0324323D01*
X0353000Y0325321D02*
X0331800Y0325321D01*
X0331800Y0324323D02*
X0334787Y0324323D01*
X0333789Y0323324D02*
X0331800Y0323324D01*
X0331800Y0322326D02*
X0332790Y0322326D01*
X0331800Y0326320D02*
X0338306Y0326320D01*
X0337308Y0327318D02*
X0331800Y0327318D01*
X0331800Y0328317D02*
X0336877Y0328317D01*
X0336700Y0329315D02*
X0331800Y0329315D01*
X0331800Y0330314D02*
X0336724Y0330314D01*
X0337138Y0331312D02*
X0331800Y0331312D01*
X0336000Y0333000D02*
X0331500Y0337500D01*
X0327100Y0337500D01*
X0326900Y0337300D01*
X0326700Y0337500D01*
X0324500Y0337500D01*
X0323500Y0338500D01*
X0323500Y0347800D01*
X0324200Y0348500D01*
X0324200Y0349500D01*
X0324700Y0349286D02*
X0362449Y0349286D01*
X0362449Y0350284D02*
X0329341Y0350284D01*
X0329088Y0351283D02*
X0362450Y0351283D01*
X0363449Y0352281D02*
X0328607Y0352281D01*
X0327774Y0353280D02*
X0436519Y0353280D01*
X0435500Y0342500D02*
X0451500Y0342500D01*
X0452500Y0341500D01*
X0452500Y0340028D01*
X0453028Y0339500D01*
X0453028Y0330500D01*
X0443972Y0330500D02*
X0440461Y0334012D01*
X0443972Y0330500D02*
X0443972Y0339500D01*
X0432500Y0340500D02*
X0431500Y0341500D01*
X0432500Y0340500D02*
X0432500Y0322500D01*
X0430972Y0320972D01*
X0428500Y0320972D01*
X0422500Y0316500D02*
X0424500Y0314500D01*
X0424500Y0305500D01*
X0425500Y0304500D01*
X0425500Y0303500D01*
X0420500Y0299500D02*
X0434500Y0299500D01*
X0443500Y0290500D01*
X0451500Y0290500D01*
X0451500Y0280500D02*
X0445500Y0280500D01*
X0441500Y0284500D01*
X0441500Y0289500D01*
X0433500Y0297500D01*
X0421500Y0297500D01*
X0418500Y0294500D01*
X0418500Y0289200D01*
X0418300Y0289000D01*
X0416500Y0289100D02*
X0416500Y0295500D01*
X0420500Y0299500D01*
X0422500Y0295500D02*
X0428500Y0295500D01*
X0434500Y0289500D01*
X0435500Y0289500D01*
X0425500Y0293500D02*
X0448500Y0270500D01*
X0451500Y0270500D01*
X0451500Y0260500D02*
X0434700Y0277300D01*
X0430000Y0277300D01*
X0430000Y0275400D02*
X0421400Y0275400D01*
X0418500Y0275500D01*
X0420983Y0278391D02*
X0425100Y0278391D01*
X0425100Y0278678D02*
X0425100Y0277900D01*
X0421474Y0277900D01*
X0420653Y0278721D01*
X0419256Y0279300D01*
X0417836Y0279300D01*
X0419536Y0281000D01*
X0419626Y0281000D01*
X0420347Y0280279D01*
X0421744Y0279700D01*
X0423256Y0279700D01*
X0424653Y0280279D01*
X0424919Y0280545D01*
X0425100Y0280364D01*
X0425100Y0279922D01*
X0425600Y0279422D01*
X0425600Y0279300D01*
X0425722Y0279300D01*
X0425722Y0279300D01*
X0425722Y0279300D01*
X0425600Y0279300D01*
X0425600Y0279178D01*
X0425100Y0278678D01*
X0425600Y0279390D02*
X0417925Y0279390D01*
X0418924Y0280388D02*
X0420238Y0280388D01*
X0424762Y0280388D02*
X0425076Y0280388D01*
X0425400Y0273400D02*
X0420500Y0270500D01*
X0423500Y0268500D02*
X0423500Y0265500D01*
X0423500Y0268500D02*
X0426400Y0271400D01*
X0430000Y0271400D01*
X0430000Y0273400D02*
X0425400Y0273400D01*
X0430000Y0265500D02*
X0439500Y0265500D01*
X0440500Y0261500D02*
X0451500Y0250500D01*
X0440500Y0261500D02*
X0437500Y0261500D01*
X0430000Y0253700D02*
X0429800Y0253500D01*
X0420839Y0254427D02*
X0418108Y0254427D01*
X0399500Y0269500D02*
X0399500Y0279500D01*
X0404500Y0284500D01*
X0404500Y0289000D01*
X0402600Y0289000D02*
X0402500Y0288900D01*
X0402500Y0285500D01*
X0397500Y0280500D01*
X0397500Y0270500D01*
X0395000Y0276394D02*
X0391930Y0276394D01*
X0392928Y0277393D02*
X0395000Y0277393D01*
X0393500Y0281500D02*
X0389500Y0277500D01*
X0387500Y0277500D01*
X0387300Y0277300D01*
X0385000Y0277300D01*
X0380100Y0277393D02*
X0377928Y0277393D01*
X0378927Y0278391D02*
X0380100Y0278391D01*
X0380100Y0279390D02*
X0379746Y0279390D01*
X0380000Y0280388D02*
X0380100Y0280388D01*
X0380100Y0281387D02*
X0380000Y0281387D01*
X0379500Y0281500D02*
X0379500Y0276500D01*
X0379500Y0281500D02*
X0381500Y0283500D01*
X0381500Y0284500D01*
X0380805Y0283384D02*
X0380000Y0283384D01*
X0380000Y0284382D02*
X0387257Y0284382D01*
X0387000Y0285381D02*
X0380000Y0285381D01*
X0380000Y0286379D02*
X0387000Y0286379D01*
X0387000Y0287378D02*
X0380000Y0287378D01*
X0380000Y0288376D02*
X0387000Y0288376D01*
X0387000Y0289375D02*
X0380000Y0289375D01*
X0380000Y0290373D02*
X0387000Y0290373D01*
X0387000Y0291372D02*
X0380000Y0291372D01*
X0380000Y0292370D02*
X0386262Y0292370D01*
X0386000Y0293369D02*
X0380000Y0293369D01*
X0380000Y0294368D02*
X0386000Y0294368D01*
X0386000Y0295366D02*
X0380000Y0295366D01*
X0380000Y0296365D02*
X0386000Y0296365D01*
X0386000Y0297363D02*
X0380000Y0297363D01*
X0380000Y0298362D02*
X0386000Y0298362D01*
X0386000Y0299360D02*
X0380000Y0299360D01*
X0380000Y0300359D02*
X0386000Y0300359D01*
X0386000Y0301357D02*
X0380000Y0301357D01*
X0380000Y0302356D02*
X0386000Y0302356D01*
X0386148Y0303354D02*
X0380000Y0303354D01*
X0380000Y0304353D02*
X0386817Y0304353D01*
X0387816Y0305351D02*
X0380000Y0305351D01*
X0380885Y0306350D02*
X0388814Y0306350D01*
X0389813Y0307348D02*
X0381884Y0307348D01*
X0382882Y0308347D02*
X0390000Y0308347D01*
X0390000Y0309345D02*
X0383881Y0309345D01*
X0384879Y0310344D02*
X0385282Y0310344D01*
X0383500Y0312500D02*
X0383500Y0317154D01*
X0380500Y0320154D01*
X0389500Y0320154D02*
X0387500Y0313500D01*
X0389718Y0310344D02*
X0390000Y0310344D01*
X0392500Y0306500D02*
X0392500Y0315500D01*
X0393500Y0316500D01*
X0395500Y0316500D01*
X0396500Y0317500D01*
X0396500Y0325500D01*
X0400500Y0329500D01*
X0410500Y0329500D01*
X0413500Y0326500D01*
X0413500Y0322800D01*
X0420728Y0330028D01*
X0428500Y0330028D01*
X0422500Y0316500D02*
X0419500Y0316500D01*
X0414200Y0321800D01*
X0412500Y0321800D01*
X0413500Y0322800D01*
X0412500Y0321800D02*
X0410200Y0321800D01*
X0406800Y0321800D02*
X0406800Y0317200D01*
X0408500Y0315500D01*
X0408500Y0311846D01*
X0408500Y0305154D02*
X0408500Y0296500D01*
X0405500Y0293500D01*
X0399500Y0293500D01*
X0398600Y0292600D01*
X0398600Y0289000D01*
X0396700Y0289000D02*
X0396700Y0293700D01*
X0400500Y0297500D01*
X0394500Y0296500D02*
X0394700Y0295300D01*
X0394700Y0289000D01*
X0392700Y0289000D02*
X0392700Y0292300D01*
X0390500Y0294500D01*
X0390500Y0301500D01*
X0393500Y0304500D01*
X0397846Y0304500D01*
X0398500Y0305154D01*
X0392500Y0306500D02*
X0388500Y0302500D01*
X0388500Y0293500D01*
X0389500Y0292500D01*
X0389500Y0285500D01*
X0393500Y0281500D01*
X0403500Y0277500D02*
X0405500Y0279500D01*
X0414500Y0279500D01*
X0416400Y0289000D02*
X0416500Y0289100D01*
X0420300Y0289000D02*
X0420500Y0289200D01*
X0420500Y0293500D01*
X0422500Y0295500D01*
X0423500Y0293500D02*
X0425500Y0293500D01*
X0423500Y0293500D02*
X0422300Y0292300D01*
X0422300Y0289000D01*
X0414500Y0298500D02*
X0414500Y0301154D01*
X0418500Y0305154D01*
X0418500Y0311846D02*
X0418500Y0312500D01*
X0412500Y0318500D01*
X0410200Y0325200D02*
X0410200Y0326800D01*
X0409500Y0327500D01*
X0401500Y0327500D01*
X0398500Y0324500D01*
X0398500Y0311846D01*
X0402500Y0318500D02*
X0401500Y0319500D01*
X0401500Y0324500D01*
X0402200Y0325200D01*
X0406800Y0325200D01*
X0389500Y0326846D02*
X0385059Y0331287D01*
X0377997Y0341298D02*
X0377755Y0341298D01*
X0375579Y0350284D02*
X0373535Y0350284D01*
X0373534Y0351283D02*
X0375580Y0351283D01*
X0376579Y0352281D02*
X0372535Y0352281D01*
X0362449Y0348287D02*
X0329273Y0348287D01*
X0329272Y0348282D02*
X0329386Y0349000D01*
X0324700Y0349000D01*
X0324700Y0344314D01*
X0325418Y0344428D01*
X0326196Y0344681D01*
X0326925Y0345053D01*
X0327588Y0345534D01*
X0328166Y0346112D01*
X0328647Y0346775D01*
X0329019Y0347504D01*
X0329272Y0348282D01*
X0328909Y0347289D02*
X0330610Y0347289D01*
X0330150Y0346290D02*
X0328295Y0346290D01*
X0327254Y0345292D02*
X0330150Y0345292D01*
X0330150Y0344293D02*
X0315124Y0344293D01*
X0314000Y0343295D02*
X0330150Y0343295D01*
X0330150Y0342296D02*
X0319265Y0342296D01*
X0317735Y0342296D02*
X0314000Y0342296D01*
X0314000Y0341298D02*
X0315924Y0341298D01*
X0315132Y0340299D02*
X0314000Y0340299D01*
X0314000Y0339301D02*
X0314719Y0339301D01*
X0314700Y0338302D02*
X0314000Y0338302D01*
X0314000Y0337303D02*
X0314127Y0337303D01*
X0314000Y0336305D02*
X0314000Y0336305D01*
X0314000Y0335306D02*
X0314000Y0335306D01*
X0314000Y0334308D02*
X0314000Y0334308D01*
X0314000Y0333992D02*
X0314000Y0333992D01*
X0311500Y0331500D02*
X0311500Y0347200D01*
X0312800Y0348500D01*
X0312800Y0349500D01*
X0318054Y0347289D02*
X0319491Y0347289D01*
X0319381Y0347504D02*
X0319753Y0346775D01*
X0320234Y0346112D01*
X0320812Y0345534D01*
X0321475Y0345053D01*
X0322204Y0344681D01*
X0322982Y0344428D01*
X0323700Y0344314D01*
X0323700Y0349000D01*
X0319014Y0349000D01*
X0319128Y0348282D01*
X0319381Y0347504D01*
X0319127Y0348287D02*
X0318467Y0348287D01*
X0318500Y0349286D02*
X0323700Y0349286D01*
X0323700Y0348287D02*
X0324700Y0348287D01*
X0324700Y0347289D02*
X0323700Y0347289D01*
X0323700Y0346290D02*
X0324700Y0346290D01*
X0324700Y0345292D02*
X0323700Y0345292D01*
X0321146Y0345292D02*
X0316653Y0345292D01*
X0317640Y0346290D02*
X0320105Y0346290D01*
X0319059Y0350284D02*
X0318500Y0350284D01*
X0318231Y0351283D02*
X0319312Y0351283D01*
X0319793Y0352281D02*
X0317818Y0352281D01*
X0317081Y0353280D02*
X0320626Y0353280D01*
X0321076Y0341298D02*
X0330150Y0341298D01*
X0330150Y0340299D02*
X0321868Y0340299D01*
X0322281Y0339301D02*
X0323618Y0339301D01*
X0322568Y0338302D02*
X0322300Y0338302D01*
X0322117Y0337303D02*
X0322500Y0337303D01*
X0322000Y0336305D02*
X0321679Y0336305D01*
X0322000Y0335306D02*
X0320680Y0335306D01*
X0322000Y0334308D02*
X0319000Y0334308D01*
X0319000Y0333309D02*
X0322000Y0333309D01*
X0322000Y0332311D02*
X0319000Y0332311D01*
X0319000Y0331312D02*
X0322000Y0331312D01*
X0322000Y0330314D02*
X0319222Y0330314D01*
X0320220Y0329315D02*
X0322000Y0329315D01*
X0322000Y0328317D02*
X0321219Y0328317D01*
X0320500Y0325500D02*
X0316500Y0329500D01*
X0316500Y0336500D01*
X0318500Y0338500D01*
X0326900Y0338302D02*
X0326900Y0338302D01*
X0326900Y0339301D02*
X0326900Y0339301D01*
X0330182Y0339301D02*
X0330221Y0339301D01*
X0331278Y0337300D02*
X0331278Y0337300D01*
X0320500Y0325500D02*
X0320500Y0299500D01*
X0319500Y0298500D01*
X0319500Y0291500D01*
X0313500Y0285500D01*
X0313500Y0295500D02*
X0318500Y0300500D01*
X0318500Y0320500D01*
X0314500Y0324500D01*
X0312500Y0324500D01*
X0312500Y0330500D02*
X0311500Y0331500D01*
X0347211Y0323324D02*
X0353000Y0323324D01*
X0353000Y0322326D02*
X0350048Y0322326D01*
X0350856Y0321327D02*
X0353000Y0321327D01*
X0353000Y0320329D02*
X0351270Y0320329D01*
X0356850Y0308347D02*
X0357562Y0308347D01*
X0356850Y0307348D02*
X0358436Y0307348D01*
X0358700Y0306350D02*
X0356850Y0306350D01*
X0356030Y0305351D02*
X0358863Y0305351D01*
X0359276Y0304353D02*
X0345183Y0304353D01*
X0346181Y0303354D02*
X0360272Y0303354D01*
X0361820Y0302356D02*
X0346852Y0302356D01*
X0347000Y0301357D02*
X0347263Y0301357D01*
X0347000Y0300359D02*
X0347000Y0300359D01*
X0347000Y0299360D02*
X0347000Y0299360D01*
X0347000Y0298362D02*
X0347000Y0298362D01*
X0347000Y0296365D02*
X0347000Y0296365D01*
X0347000Y0295366D02*
X0347000Y0295366D01*
X0347000Y0294368D02*
X0347000Y0294368D01*
X0347167Y0293369D02*
X0347510Y0293369D01*
X0348165Y0292370D02*
X0351335Y0292370D01*
X0350336Y0291372D02*
X0349164Y0291372D01*
X0349750Y0293369D02*
X0350250Y0293369D01*
X0350250Y0294368D02*
X0349750Y0294368D01*
X0349750Y0295366D02*
X0350250Y0295366D01*
X0350250Y0296365D02*
X0349750Y0296365D01*
X0349750Y0298362D02*
X0350250Y0298362D01*
X0350250Y0299360D02*
X0349750Y0299360D01*
X0349750Y0300359D02*
X0350250Y0300359D01*
X0350250Y0301357D02*
X0349750Y0301357D01*
X0352737Y0301357D02*
X0358983Y0301357D01*
X0358157Y0300359D02*
X0353000Y0300359D01*
X0353000Y0299360D02*
X0357743Y0299360D01*
X0354330Y0295366D02*
X0353000Y0295366D01*
X0353000Y0294368D02*
X0353332Y0294368D01*
X0362500Y0279500D02*
X0371500Y0288500D01*
X0371500Y0307500D01*
X0352570Y0305351D02*
X0352130Y0305351D01*
X0352400Y0305500D02*
X0352400Y0305522D01*
X0352400Y0305522D01*
X0352400Y0305500D01*
X0362500Y0279500D02*
X0362500Y0270500D01*
X0374500Y0261500D02*
X0380500Y0267500D01*
X0385000Y0267500D01*
X0385000Y0271400D02*
X0384900Y0271500D01*
X0380100Y0282385D02*
X0380000Y0282385D01*
X0380500Y0257500D02*
X0384900Y0257500D01*
X0385000Y0257600D01*
X0385000Y0253700D02*
X0385000Y0251700D01*
X0384800Y0251500D01*
X0379500Y0254500D02*
X0374500Y0249500D01*
X0371500Y0249500D01*
X0370500Y0250500D01*
X0363500Y0250500D01*
X0359941Y0254059D01*
X0359941Y0257500D01*
X0359941Y0256059D01*
X0379500Y0256500D02*
X0380500Y0257500D01*
X0379500Y0256500D02*
X0379500Y0254500D01*
X0322500Y0266500D02*
X0322500Y0240500D01*
X0320500Y0262500D02*
X0317500Y0265500D01*
X0313500Y0265500D01*
X0322500Y0266500D02*
X0313500Y0275500D01*
X0357500Y0340500D02*
X0365500Y0340500D01*
X0346500Y0347478D02*
X0346500Y0347478D01*
X0388421Y0352281D02*
X0392465Y0352281D01*
X0391466Y0351283D02*
X0389420Y0351283D01*
X0389421Y0350284D02*
X0391465Y0350284D01*
X0391465Y0344293D02*
X0389421Y0344293D01*
X0410712Y0344293D02*
X0411242Y0344293D01*
X0440500Y0309500D02*
X0451500Y0320500D01*
X0451500Y0310500D02*
X0444500Y0303500D01*
X0432500Y0303500D01*
X0430500Y0309500D02*
X0440500Y0309500D01*
D27*
X0432500Y0303500D03*
X0430500Y0309500D03*
X0425500Y0303500D03*
X0414500Y0298500D03*
X0400500Y0297500D03*
X0394500Y0296500D03*
X0393500Y0281500D03*
X0393500Y0275500D03*
X0391500Y0270500D03*
X0390500Y0265500D03*
X0404500Y0262500D03*
X0407500Y0269500D03*
X0412500Y0266500D03*
X0420500Y0270500D03*
X0418500Y0275500D03*
X0423500Y0278500D03*
X0422500Y0283500D03*
X0413500Y0283500D03*
X0407500Y0275500D03*
X0423500Y0265500D03*
X0422500Y0252500D03*
X0438500Y0257500D03*
X0439500Y0265500D03*
X0435500Y0289500D03*
X0387500Y0313500D03*
X0378500Y0313500D03*
X0371500Y0320500D03*
X0370500Y0325500D03*
X0353000Y0335000D03*
X0340500Y0329500D03*
X0347500Y0319500D03*
X0339500Y0316500D03*
X0337500Y0303500D03*
X0355500Y0299500D03*
X0361500Y0298500D03*
X0362500Y0306500D03*
X0363500Y0311500D03*
X0367500Y0304500D03*
X0370500Y0281500D03*
X0381500Y0284500D03*
X0362500Y0270500D03*
X0355500Y0263500D03*
X0374500Y0261500D03*
X0371500Y0249500D03*
X0383500Y0242500D03*
X0395500Y0249500D03*
X0400500Y0249500D03*
X0402500Y0229500D03*
X0430500Y0211500D03*
X0369500Y0221500D03*
X0367500Y0226500D03*
X0357500Y0217500D03*
X0336500Y0253500D03*
X0312500Y0324500D03*
X0312500Y0330500D03*
X0318500Y0338500D03*
X0404500Y0336500D03*
X0416500Y0341500D03*
X0431500Y0341500D03*
X0440461Y0334012D03*
X0412500Y0318500D03*
X0402500Y0318500D03*
M02*
