G75*
%MOIN*%
%OFA0B0*%
%FSLAX25Y25*%
%IPPOS*%
%LPD*%
%AMOC8*
5,1,8,0,0,1.08239X$1,22.5*
%
%ADD10R,0.03937X0.04331*%
%ADD11R,0.04331X0.03937*%
%ADD12R,0.04800X0.08800*%
%ADD13R,0.14173X0.08661*%
%ADD14C,0.07400*%
%ADD15C,0.01000*%
%ADD16C,0.03600*%
%ADD17C,0.03962*%
D10*
X0110500Y0113154D03*
X0110500Y0119846D03*
X0127500Y0209154D03*
X0127500Y0215846D03*
X0121000Y0229154D03*
X0121000Y0235846D03*
D11*
X0139154Y0233500D03*
X0145846Y0233500D03*
X0145346Y0222000D03*
X0138654Y0222000D03*
D12*
X0130600Y0170700D03*
X0121500Y0170700D03*
X0112400Y0170700D03*
D13*
X0121500Y0146299D03*
D14*
X0097500Y0144500D03*
X0097500Y0134500D03*
X0097500Y0124500D03*
X0097500Y0114500D03*
X0096800Y0100500D03*
X0108200Y0100500D03*
X0160800Y0100500D03*
X0172200Y0100500D03*
X0224800Y0100500D03*
X0236200Y0100500D03*
X0235500Y0129500D03*
X0235500Y0139500D03*
X0235500Y0149500D03*
X0235500Y0159500D03*
X0235500Y0169500D03*
X0235500Y0179500D03*
X0235500Y0189500D03*
X0235500Y0199500D03*
X0235500Y0209500D03*
X0236200Y0238500D03*
X0224800Y0238500D03*
X0108200Y0238500D03*
X0096800Y0238500D03*
X0097500Y0224500D03*
X0097500Y0214500D03*
X0097500Y0204500D03*
X0097500Y0194500D03*
X0097500Y0184500D03*
X0097500Y0174500D03*
X0097500Y0164500D03*
X0097500Y0154500D03*
D15*
X0101632Y0097271D02*
X0100861Y0096500D01*
X0104139Y0096500D01*
X0103368Y0097271D01*
X0102500Y0099366D01*
X0102500Y0101634D01*
X0101632Y0103729D01*
X0100029Y0105332D01*
X0097934Y0106200D01*
X0095666Y0106200D01*
X0093571Y0105332D01*
X0093500Y0105261D01*
X0093500Y0111159D01*
X0093534Y0111112D01*
X0094112Y0110534D01*
X0094775Y0110053D01*
X0095504Y0109681D01*
X0096282Y0109428D01*
X0097000Y0109314D01*
X0097000Y0114000D01*
X0098000Y0114000D01*
X0098000Y0115000D01*
X0102686Y0115000D01*
X0102572Y0115718D01*
X0102319Y0116496D01*
X0101947Y0117225D01*
X0101466Y0117888D01*
X0100888Y0118466D01*
X0100225Y0118947D01*
X0099496Y0119319D01*
X0098939Y0119500D01*
X0099496Y0119681D01*
X0100225Y0120053D01*
X0100888Y0120534D01*
X0101466Y0121112D01*
X0101947Y0121775D01*
X0102319Y0122504D01*
X0102572Y0123282D01*
X0102686Y0124000D01*
X0098000Y0124000D01*
X0098000Y0125000D01*
X0102686Y0125000D01*
X0102572Y0125718D01*
X0102319Y0126496D01*
X0101947Y0127225D01*
X0101466Y0127888D01*
X0100888Y0128466D01*
X0100225Y0128947D01*
X0099496Y0129319D01*
X0098939Y0129500D01*
X0099496Y0129681D01*
X0100225Y0130053D01*
X0100888Y0130534D01*
X0101466Y0131112D01*
X0101947Y0131775D01*
X0102319Y0132504D01*
X0102572Y0133282D01*
X0102686Y0134000D01*
X0098000Y0134000D01*
X0098000Y0135000D01*
X0102686Y0135000D01*
X0102572Y0135718D01*
X0102319Y0136496D01*
X0101947Y0137225D01*
X0101466Y0137888D01*
X0100888Y0138466D01*
X0100225Y0138947D01*
X0099496Y0139319D01*
X0098939Y0139500D01*
X0099496Y0139681D01*
X0100225Y0140053D01*
X0100888Y0140534D01*
X0101466Y0141112D01*
X0101947Y0141775D01*
X0102319Y0142504D01*
X0102572Y0143282D01*
X0102686Y0144000D01*
X0098000Y0144000D01*
X0098000Y0145000D01*
X0102686Y0145000D01*
X0102572Y0145718D01*
X0102319Y0146496D01*
X0101947Y0147225D01*
X0101466Y0147888D01*
X0100888Y0148466D01*
X0100225Y0148947D01*
X0099496Y0149319D01*
X0098939Y0149500D01*
X0099496Y0149681D01*
X0100225Y0150053D01*
X0100888Y0150534D01*
X0101466Y0151112D01*
X0101947Y0151775D01*
X0102319Y0152504D01*
X0102572Y0153282D01*
X0102686Y0154000D01*
X0098000Y0154000D01*
X0098000Y0155000D01*
X0102686Y0155000D01*
X0102572Y0155718D01*
X0102319Y0156496D01*
X0101947Y0157225D01*
X0101466Y0157888D01*
X0100888Y0158466D01*
X0100225Y0158947D01*
X0099496Y0159319D01*
X0098939Y0159500D01*
X0099496Y0159681D01*
X0100225Y0160053D01*
X0100888Y0160534D01*
X0101466Y0161112D01*
X0101947Y0161775D01*
X0102319Y0162504D01*
X0102572Y0163282D01*
X0102686Y0164000D01*
X0098000Y0164000D01*
X0098000Y0165000D01*
X0102686Y0165000D01*
X0102572Y0165718D01*
X0102319Y0166496D01*
X0101947Y0167225D01*
X0101466Y0167888D01*
X0100888Y0168466D01*
X0100225Y0168947D01*
X0099671Y0169230D01*
X0100729Y0169668D01*
X0102332Y0171271D01*
X0103200Y0173366D01*
X0103200Y0175634D01*
X0102332Y0177729D01*
X0100729Y0179332D01*
X0100324Y0179500D01*
X0100729Y0179668D01*
X0102332Y0181271D01*
X0103200Y0183366D01*
X0103200Y0185634D01*
X0102332Y0187729D01*
X0100729Y0189332D01*
X0100324Y0189500D01*
X0100729Y0189668D01*
X0102332Y0191271D01*
X0103200Y0193366D01*
X0103200Y0195634D01*
X0102332Y0197729D01*
X0100729Y0199332D01*
X0100324Y0199500D01*
X0100729Y0199668D01*
X0102332Y0201271D01*
X0103200Y0203366D01*
X0103200Y0205634D01*
X0102332Y0207729D01*
X0100729Y0209332D01*
X0100324Y0209500D01*
X0100729Y0209668D01*
X0102332Y0211271D01*
X0103200Y0213366D01*
X0103200Y0215634D01*
X0102332Y0217729D01*
X0100729Y0219332D01*
X0100324Y0219500D01*
X0100729Y0219668D01*
X0102332Y0221271D01*
X0103200Y0223366D01*
X0103200Y0225634D01*
X0102332Y0227729D01*
X0100729Y0229332D01*
X0098634Y0230200D01*
X0096366Y0230200D01*
X0094271Y0229332D01*
X0093500Y0228561D01*
X0093500Y0233739D01*
X0093571Y0233668D01*
X0095666Y0232800D01*
X0097934Y0232800D01*
X0100029Y0233668D01*
X0101632Y0235271D01*
X0102500Y0237366D01*
X0102500Y0239634D01*
X0101632Y0241729D01*
X0100861Y0242500D01*
X0104859Y0242500D01*
X0104812Y0242466D01*
X0104234Y0241888D01*
X0103753Y0241225D01*
X0103381Y0240496D01*
X0103128Y0239718D01*
X0103014Y0239000D01*
X0107700Y0239000D01*
X0107700Y0238000D01*
X0108700Y0238000D01*
X0108700Y0239000D01*
X0113386Y0239000D01*
X0113272Y0239718D01*
X0113019Y0240496D01*
X0112647Y0241225D01*
X0112166Y0241888D01*
X0111588Y0242466D01*
X0111541Y0242500D01*
X0220739Y0242500D01*
X0219968Y0241729D01*
X0219100Y0239634D01*
X0219100Y0237366D01*
X0219252Y0237000D01*
X0205003Y0237000D01*
X0204084Y0236619D01*
X0203381Y0235916D01*
X0200323Y0232858D01*
X0199256Y0233300D01*
X0197744Y0233300D01*
X0196347Y0232721D01*
X0195279Y0231653D01*
X0194700Y0230256D01*
X0194700Y0229282D01*
X0193347Y0228721D01*
X0192279Y0227653D01*
X0191700Y0226256D01*
X0191700Y0224744D01*
X0192279Y0223347D01*
X0193347Y0222279D01*
X0194334Y0221870D01*
X0187441Y0214976D01*
X0187441Y0222212D01*
X0186212Y0223441D01*
X0175595Y0223441D01*
X0171119Y0227916D01*
X0170416Y0228619D01*
X0169497Y0229000D01*
X0159980Y0229000D01*
X0160653Y0229279D01*
X0161721Y0230347D01*
X0162300Y0231744D01*
X0162300Y0233256D01*
X0161721Y0234653D01*
X0160653Y0235721D01*
X0159256Y0236300D01*
X0157744Y0236300D01*
X0157020Y0236000D01*
X0150012Y0236000D01*
X0150012Y0236297D01*
X0148840Y0237468D01*
X0142853Y0237468D01*
X0142121Y0236737D01*
X0141898Y0236866D01*
X0141516Y0236968D01*
X0139638Y0236968D01*
X0139638Y0233984D01*
X0138669Y0233984D01*
X0138669Y0233016D01*
X0135488Y0233016D01*
X0135488Y0231334D01*
X0135590Y0230953D01*
X0135788Y0230610D01*
X0136067Y0230331D01*
X0136409Y0230134D01*
X0136791Y0230031D01*
X0138669Y0230031D01*
X0138669Y0233016D01*
X0139638Y0233016D01*
X0139638Y0230031D01*
X0141516Y0230031D01*
X0141898Y0230134D01*
X0142121Y0230263D01*
X0142853Y0229531D01*
X0148840Y0229531D01*
X0150012Y0230703D01*
X0150012Y0231000D01*
X0155008Y0231000D01*
X0155279Y0230347D01*
X0156347Y0229279D01*
X0157020Y0229000D01*
X0151003Y0229000D01*
X0150084Y0228619D01*
X0149381Y0227916D01*
X0147433Y0225968D01*
X0142353Y0225968D01*
X0142000Y0225616D01*
X0141647Y0225968D01*
X0135660Y0225968D01*
X0134488Y0224797D01*
X0134488Y0219203D01*
X0135660Y0218031D01*
X0141647Y0218031D01*
X0142000Y0218384D01*
X0142353Y0218031D01*
X0148340Y0218031D01*
X0149512Y0219203D01*
X0149512Y0220976D01*
X0152536Y0224000D01*
X0158700Y0224000D01*
X0158700Y0222744D01*
X0159279Y0221347D01*
X0160000Y0220626D01*
X0160000Y0215003D01*
X0160381Y0214084D01*
X0163559Y0210905D01*
X0163559Y0200788D01*
X0164788Y0199559D01*
X0167240Y0199559D01*
X0166700Y0198256D01*
X0166700Y0196744D01*
X0167279Y0195347D01*
X0168000Y0194626D01*
X0168000Y0184980D01*
X0167700Y0184256D01*
X0167700Y0182744D01*
X0168279Y0181347D01*
X0169000Y0180626D01*
X0169000Y0177536D01*
X0165464Y0174000D01*
X0163003Y0174000D01*
X0162084Y0173619D01*
X0161381Y0172916D01*
X0161000Y0171997D01*
X0161000Y0168536D01*
X0157916Y0171619D01*
X0157000Y0172536D01*
X0157000Y0179700D01*
X0157256Y0179700D01*
X0158653Y0180279D01*
X0159721Y0181347D01*
X0160300Y0182744D01*
X0160300Y0184256D01*
X0159721Y0185653D01*
X0159000Y0186374D01*
X0159000Y0186997D01*
X0158619Y0187916D01*
X0157916Y0188619D01*
X0153000Y0193536D01*
X0153000Y0203497D01*
X0152619Y0204416D01*
X0149619Y0207416D01*
X0149036Y0208000D01*
X0154126Y0208000D01*
X0154847Y0207279D01*
X0156244Y0206700D01*
X0157756Y0206700D01*
X0159153Y0207279D01*
X0160221Y0208347D01*
X0160800Y0209744D01*
X0160800Y0211256D01*
X0160221Y0212653D01*
X0159153Y0213721D01*
X0157756Y0214300D01*
X0156244Y0214300D01*
X0154847Y0213721D01*
X0154126Y0213000D01*
X0141003Y0213000D01*
X0140084Y0212619D01*
X0139381Y0211916D01*
X0130764Y0203300D01*
X0129744Y0203300D01*
X0128347Y0202721D01*
X0127279Y0201653D01*
X0126700Y0200256D01*
X0126700Y0198744D01*
X0127279Y0197347D01*
X0102491Y0197347D01*
X0102904Y0196348D02*
X0128278Y0196348D01*
X0128326Y0196300D02*
X0127744Y0196300D01*
X0126347Y0195721D01*
X0125279Y0194653D01*
X0124700Y0193256D01*
X0124700Y0191744D01*
X0125279Y0190347D01*
X0126126Y0189500D01*
X0125279Y0188653D01*
X0124700Y0187256D01*
X0124700Y0185744D01*
X0125279Y0184347D01*
X0126347Y0183279D01*
X0127744Y0182700D01*
X0128100Y0182700D01*
X0128100Y0177100D01*
X0127372Y0177100D01*
X0126200Y0175928D01*
X0126200Y0165472D01*
X0127372Y0164300D01*
X0133828Y0164300D01*
X0135000Y0165472D01*
X0135000Y0172464D01*
X0139381Y0168084D01*
X0140084Y0167381D01*
X0141003Y0167000D01*
X0155464Y0167000D01*
X0157700Y0164764D01*
X0157700Y0163744D01*
X0158008Y0163000D01*
X0156374Y0163000D01*
X0155653Y0163721D01*
X0154256Y0164300D01*
X0152744Y0164300D01*
X0151347Y0163721D01*
X0150279Y0162653D01*
X0149700Y0161256D01*
X0149700Y0159744D01*
X0150279Y0158347D01*
X0151347Y0157279D01*
X0152744Y0156700D01*
X0154256Y0156700D01*
X0155653Y0157279D01*
X0156374Y0158000D01*
X0169626Y0158000D01*
X0170347Y0157279D01*
X0171744Y0156700D01*
X0173256Y0156700D01*
X0174653Y0157279D01*
X0175374Y0158000D01*
X0192997Y0158000D01*
X0193916Y0158381D01*
X0196536Y0161000D01*
X0211464Y0161000D01*
X0188381Y0137916D01*
X0188000Y0136997D01*
X0188000Y0135472D01*
X0182773Y0135472D01*
X0183300Y0136744D01*
X0183300Y0138256D01*
X0182721Y0139653D01*
X0181653Y0140721D01*
X0180256Y0141300D01*
X0178744Y0141300D01*
X0177347Y0140721D01*
X0176279Y0139653D01*
X0175700Y0138256D01*
X0175700Y0138236D01*
X0175381Y0137916D01*
X0175000Y0136997D01*
X0175000Y0133003D01*
X0175381Y0132084D01*
X0178000Y0129464D01*
X0178000Y0123536D01*
X0175464Y0121000D01*
X0159003Y0121000D01*
X0158084Y0120619D01*
X0152764Y0115300D01*
X0151744Y0115300D01*
X0150347Y0114721D01*
X0149279Y0113653D01*
X0148700Y0112256D01*
X0148700Y0110744D01*
X0149279Y0109347D01*
X0150347Y0108279D01*
X0151744Y0107700D01*
X0153256Y0107700D01*
X0154653Y0108279D01*
X0155721Y0109347D01*
X0156300Y0110744D01*
X0156300Y0111764D01*
X0160536Y0116000D01*
X0176997Y0116000D01*
X0177916Y0116381D01*
X0178619Y0117084D01*
X0180528Y0118992D01*
X0180528Y0116902D01*
X0180279Y0116653D01*
X0179700Y0115256D01*
X0179700Y0113744D01*
X0180279Y0112347D01*
X0181347Y0111279D01*
X0182744Y0110700D01*
X0183764Y0110700D01*
X0184381Y0110084D01*
X0185084Y0109381D01*
X0186003Y0109000D01*
X0190020Y0109000D01*
X0189347Y0108721D01*
X0188626Y0108000D01*
X0180536Y0108000D01*
X0179300Y0109236D01*
X0179300Y0110256D01*
X0178721Y0111653D01*
X0177653Y0112721D01*
X0176256Y0113300D01*
X0174744Y0113300D01*
X0173347Y0112721D01*
X0172279Y0111653D01*
X0171700Y0110256D01*
X0171700Y0108744D01*
X0172279Y0107347D01*
X0173347Y0106279D01*
X0174744Y0105700D01*
X0175764Y0105700D01*
X0177381Y0104084D01*
X0178084Y0103381D01*
X0179003Y0103000D01*
X0188626Y0103000D01*
X0189347Y0102279D01*
X0190744Y0101700D01*
X0192256Y0101700D01*
X0193653Y0102279D01*
X0194721Y0103347D01*
X0195300Y0104744D01*
X0195300Y0106256D01*
X0194721Y0107653D01*
X0193653Y0108721D01*
X0192980Y0109000D01*
X0206997Y0109000D01*
X0207916Y0109381D01*
X0209236Y0110700D01*
X0210256Y0110700D01*
X0211653Y0111279D01*
X0212721Y0112347D01*
X0213300Y0113744D01*
X0213300Y0115256D01*
X0212721Y0116653D01*
X0211653Y0117721D01*
X0210256Y0118300D01*
X0208836Y0118300D01*
X0212916Y0122381D01*
X0213619Y0123084D01*
X0214000Y0124003D01*
X0214000Y0135020D01*
X0214300Y0135744D01*
X0214300Y0137256D01*
X0213721Y0138653D01*
X0212653Y0139721D01*
X0211256Y0140300D01*
X0210836Y0140300D01*
X0219000Y0148464D01*
X0219000Y0135003D01*
X0219381Y0134084D01*
X0221700Y0131764D01*
X0221700Y0130744D01*
X0222279Y0129347D01*
X0223347Y0128279D01*
X0224744Y0127700D01*
X0226256Y0127700D01*
X0227653Y0128279D01*
X0228721Y0129347D01*
X0229300Y0130744D01*
X0229300Y0132164D01*
X0230102Y0131363D01*
X0229800Y0130634D01*
X0229800Y0128366D01*
X0230668Y0126271D01*
X0232271Y0124668D01*
X0234366Y0123800D01*
X0236634Y0123800D01*
X0238729Y0124668D01*
X0239500Y0125439D01*
X0239500Y0105261D01*
X0239429Y0105332D01*
X0237334Y0106200D01*
X0235066Y0106200D01*
X0232971Y0105332D01*
X0231368Y0103729D01*
X0230500Y0101634D01*
X0229632Y0103729D01*
X0228029Y0105332D01*
X0225934Y0106200D01*
X0223666Y0106200D01*
X0221571Y0105332D01*
X0219968Y0103729D01*
X0219100Y0101634D01*
X0219100Y0099366D01*
X0219968Y0097271D01*
X0220739Y0096500D01*
X0175541Y0096500D01*
X0175588Y0096534D01*
X0176166Y0097112D01*
X0176647Y0097775D01*
X0177019Y0098504D01*
X0177272Y0099282D01*
X0177386Y0100000D01*
X0172700Y0100000D01*
X0172700Y0101000D01*
X0171700Y0101000D01*
X0171700Y0105686D01*
X0170982Y0105572D01*
X0170204Y0105319D01*
X0169475Y0104947D01*
X0168812Y0104466D01*
X0168234Y0103888D01*
X0167753Y0103225D01*
X0167381Y0102496D01*
X0167128Y0101718D01*
X0167014Y0101000D01*
X0171700Y0101000D01*
X0171700Y0100000D01*
X0167014Y0100000D01*
X0167128Y0099282D01*
X0167381Y0098504D01*
X0167753Y0097775D01*
X0168234Y0097112D01*
X0168812Y0096534D01*
X0168859Y0096500D01*
X0164861Y0096500D01*
X0165632Y0097271D01*
X0166500Y0099366D01*
X0166500Y0101634D01*
X0165632Y0103729D01*
X0164029Y0105332D01*
X0161934Y0106200D01*
X0159666Y0106200D01*
X0157571Y0105332D01*
X0155968Y0103729D01*
X0155100Y0101634D01*
X0155100Y0099366D01*
X0155968Y0097271D01*
X0156739Y0096500D01*
X0131199Y0096500D01*
X0131300Y0096744D01*
X0131300Y0098256D01*
X0130721Y0099653D01*
X0129901Y0100473D01*
X0130792Y0101364D01*
X0131366Y0102750D01*
X0131366Y0104250D01*
X0130792Y0105636D01*
X0129731Y0106697D01*
X0128345Y0107272D01*
X0126844Y0107272D01*
X0125458Y0106697D01*
X0124397Y0105636D01*
X0123958Y0104577D01*
X0122000Y0106536D01*
X0122000Y0123464D01*
X0122236Y0123700D01*
X0123256Y0123700D01*
X0124653Y0124279D01*
X0125374Y0125000D01*
X0129997Y0125000D01*
X0130916Y0125381D01*
X0131619Y0126084D01*
X0132000Y0127003D01*
X0132000Y0127997D01*
X0131619Y0128916D01*
X0130916Y0129619D01*
X0129997Y0130000D01*
X0125374Y0130000D01*
X0124653Y0130721D01*
X0123256Y0131300D01*
X0121744Y0131300D01*
X0120347Y0130721D01*
X0119279Y0129653D01*
X0119008Y0129000D01*
X0111003Y0129000D01*
X0110672Y0128863D01*
X0108000Y0131536D01*
X0108000Y0151464D01*
X0114519Y0157984D01*
X0114900Y0158903D01*
X0114900Y0164300D01*
X0115628Y0164300D01*
X0116800Y0165472D01*
X0116800Y0175928D01*
X0115628Y0177100D01*
X0109172Y0177100D01*
X0108000Y0175928D01*
X0108000Y0165472D01*
X0109172Y0164300D01*
X0109900Y0164300D01*
X0109900Y0160436D01*
X0104084Y0154619D01*
X0103381Y0153916D01*
X0103000Y0152997D01*
X0103000Y0130003D01*
X0103381Y0129084D01*
X0108000Y0124464D01*
X0108000Y0124012D01*
X0107703Y0124012D01*
X0106531Y0122840D01*
X0106531Y0116853D01*
X0107263Y0116121D01*
X0107134Y0115898D01*
X0107031Y0115516D01*
X0107031Y0113638D01*
X0110016Y0113638D01*
X0110016Y0112669D01*
X0110984Y0112669D01*
X0110984Y0109488D01*
X0112666Y0109488D01*
X0113047Y0109590D01*
X0113390Y0109788D01*
X0113669Y0110067D01*
X0113866Y0110409D01*
X0113968Y0110791D01*
X0113968Y0112669D01*
X0110984Y0112669D01*
X0110984Y0113638D01*
X0113968Y0113638D01*
X0113968Y0115516D01*
X0113866Y0115898D01*
X0113737Y0116121D01*
X0114468Y0116853D01*
X0114468Y0122840D01*
X0113309Y0124000D01*
X0117000Y0124000D01*
X0117000Y0105003D01*
X0117381Y0104084D01*
X0118084Y0103381D01*
X0123700Y0097764D01*
X0123700Y0096744D01*
X0123801Y0096500D01*
X0112261Y0096500D01*
X0113032Y0097271D01*
X0113900Y0099366D01*
X0113900Y0101634D01*
X0113032Y0103729D01*
X0111429Y0105332D01*
X0109334Y0106200D01*
X0107066Y0106200D01*
X0104971Y0105332D01*
X0103368Y0103729D01*
X0102500Y0101634D01*
X0102500Y0099366D01*
X0101632Y0097271D01*
X0101725Y0097496D02*
X0103275Y0097496D01*
X0102861Y0098494D02*
X0102139Y0098494D01*
X0102500Y0099493D02*
X0102500Y0099493D01*
X0102500Y0100491D02*
X0102500Y0100491D01*
X0102500Y0101490D02*
X0102500Y0101490D01*
X0102146Y0102488D02*
X0102854Y0102488D01*
X0103267Y0103487D02*
X0101733Y0103487D01*
X0100876Y0104485D02*
X0104124Y0104485D01*
X0105337Y0105484D02*
X0099663Y0105484D01*
X0098718Y0109428D02*
X0099496Y0109681D01*
X0100225Y0110053D01*
X0100888Y0110534D01*
X0101466Y0111112D01*
X0101947Y0111775D01*
X0102319Y0112504D01*
X0102572Y0113282D01*
X0102686Y0114000D01*
X0098000Y0114000D01*
X0098000Y0109314D01*
X0098718Y0109428D01*
X0098870Y0109478D02*
X0117000Y0109478D01*
X0117000Y0110476D02*
X0113884Y0110476D01*
X0113968Y0111475D02*
X0117000Y0111475D01*
X0117000Y0112473D02*
X0113968Y0112473D01*
X0113968Y0114470D02*
X0117000Y0114470D01*
X0117000Y0113472D02*
X0110984Y0113472D01*
X0110500Y0113154D02*
X0098846Y0113154D01*
X0097500Y0114500D01*
X0098000Y0114470D02*
X0107031Y0114470D01*
X0107031Y0115469D02*
X0102611Y0115469D01*
X0102328Y0116467D02*
X0106917Y0116467D01*
X0106531Y0117466D02*
X0101773Y0117466D01*
X0100890Y0118464D02*
X0106531Y0118464D01*
X0106531Y0119463D02*
X0099054Y0119463D01*
X0098000Y0119463D02*
X0097000Y0119463D01*
X0097000Y0120461D02*
X0098000Y0120461D01*
X0098000Y0119686D02*
X0098000Y0124000D01*
X0097000Y0124000D01*
X0097000Y0115000D01*
X0098000Y0115000D01*
X0098000Y0119686D01*
X0098000Y0118464D02*
X0097000Y0118464D01*
X0097000Y0117466D02*
X0098000Y0117466D01*
X0098000Y0116467D02*
X0097000Y0116467D01*
X0097000Y0115469D02*
X0098000Y0115469D01*
X0098000Y0113472D02*
X0097000Y0113472D01*
X0097000Y0112473D02*
X0098000Y0112473D01*
X0098000Y0111475D02*
X0097000Y0111475D01*
X0097000Y0110476D02*
X0098000Y0110476D01*
X0098000Y0109478D02*
X0097000Y0109478D01*
X0096130Y0109478D02*
X0093500Y0109478D01*
X0093500Y0110476D02*
X0094192Y0110476D01*
X0093500Y0108479D02*
X0117000Y0108479D01*
X0117000Y0107481D02*
X0093500Y0107481D01*
X0093500Y0106482D02*
X0117000Y0106482D01*
X0117000Y0105484D02*
X0111063Y0105484D01*
X0112276Y0104485D02*
X0117214Y0104485D01*
X0117978Y0103487D02*
X0113133Y0103487D01*
X0113546Y0102488D02*
X0118976Y0102488D01*
X0119975Y0101490D02*
X0113900Y0101490D01*
X0113900Y0100491D02*
X0120973Y0100491D01*
X0121972Y0099493D02*
X0113900Y0099493D01*
X0113539Y0098494D02*
X0122970Y0098494D01*
X0123700Y0097496D02*
X0113125Y0097496D01*
X0119500Y0105500D02*
X0119500Y0124500D01*
X0122500Y0127500D01*
X0129500Y0127500D01*
X0131813Y0128449D02*
X0145822Y0128449D01*
X0145700Y0128744D02*
X0146279Y0127347D01*
X0147347Y0126279D01*
X0148744Y0125700D01*
X0150256Y0125700D01*
X0151653Y0126279D01*
X0152721Y0127347D01*
X0152996Y0128010D01*
X0153744Y0127700D01*
X0155256Y0127700D01*
X0156653Y0128279D01*
X0157374Y0129000D01*
X0165464Y0129000D01*
X0166700Y0127764D01*
X0166700Y0126744D01*
X0167279Y0125347D01*
X0168347Y0124279D01*
X0169744Y0123700D01*
X0171256Y0123700D01*
X0172653Y0124279D01*
X0173721Y0125347D01*
X0174300Y0126744D01*
X0174300Y0128256D01*
X0173721Y0129653D01*
X0172653Y0130721D01*
X0171256Y0131300D01*
X0170236Y0131300D01*
X0167916Y0133619D01*
X0166997Y0134000D01*
X0157374Y0134000D01*
X0156653Y0134721D01*
X0155256Y0135300D01*
X0153744Y0135300D01*
X0152347Y0134721D01*
X0152000Y0134374D01*
X0152000Y0145464D01*
X0155381Y0142084D01*
X0156084Y0141381D01*
X0157003Y0141000D01*
X0163464Y0141000D01*
X0166700Y0137764D01*
X0166700Y0136744D01*
X0167279Y0135347D01*
X0168347Y0134279D01*
X0169744Y0133700D01*
X0171256Y0133700D01*
X0172653Y0134279D01*
X0173721Y0135347D01*
X0174300Y0136744D01*
X0174300Y0138256D01*
X0173721Y0139653D01*
X0172653Y0140721D01*
X0171256Y0141300D01*
X0170236Y0141300D01*
X0165916Y0145619D01*
X0164997Y0146000D01*
X0158536Y0146000D01*
X0152300Y0152236D01*
X0152300Y0153256D01*
X0151721Y0154653D01*
X0150653Y0155721D01*
X0149256Y0156300D01*
X0147744Y0156300D01*
X0146347Y0155721D01*
X0145279Y0154653D01*
X0144700Y0153256D01*
X0144700Y0151744D01*
X0145279Y0150347D01*
X0146347Y0149279D01*
X0147000Y0149008D01*
X0147000Y0132374D01*
X0146279Y0131653D01*
X0145700Y0130256D01*
X0145700Y0128744D01*
X0145700Y0129448D02*
X0131088Y0129448D01*
X0132000Y0127451D02*
X0146236Y0127451D01*
X0147174Y0126452D02*
X0131772Y0126452D01*
X0130989Y0125454D02*
X0167234Y0125454D01*
X0166821Y0126452D02*
X0151826Y0126452D01*
X0152764Y0127451D02*
X0166700Y0127451D01*
X0166015Y0128449D02*
X0156823Y0128449D01*
X0154500Y0131500D02*
X0166500Y0131500D01*
X0170500Y0127500D01*
X0174300Y0127451D02*
X0178000Y0127451D01*
X0178000Y0128449D02*
X0174220Y0128449D01*
X0173806Y0129448D02*
X0178000Y0129448D01*
X0177018Y0130446D02*
X0172928Y0130446D01*
X0170091Y0131445D02*
X0176020Y0131445D01*
X0175232Y0132443D02*
X0169092Y0132443D01*
X0168094Y0133442D02*
X0175000Y0133442D01*
X0175000Y0134440D02*
X0172814Y0134440D01*
X0173759Y0135439D02*
X0175000Y0135439D01*
X0175000Y0136437D02*
X0174173Y0136437D01*
X0174300Y0137436D02*
X0175182Y0137436D01*
X0175774Y0138434D02*
X0174226Y0138434D01*
X0173812Y0139433D02*
X0176188Y0139433D01*
X0177058Y0140432D02*
X0172942Y0140432D01*
X0170105Y0141430D02*
X0191895Y0141430D01*
X0192893Y0142429D02*
X0169107Y0142429D01*
X0168108Y0143427D02*
X0193892Y0143427D01*
X0194890Y0144426D02*
X0167110Y0144426D01*
X0166111Y0145424D02*
X0195889Y0145424D01*
X0196887Y0146423D02*
X0158113Y0146423D01*
X0157114Y0147421D02*
X0197886Y0147421D01*
X0198884Y0148420D02*
X0156116Y0148420D01*
X0155117Y0149418D02*
X0199883Y0149418D01*
X0200881Y0150417D02*
X0154119Y0150417D01*
X0153120Y0151415D02*
X0201880Y0151415D01*
X0202878Y0152414D02*
X0152300Y0152414D01*
X0152235Y0153412D02*
X0203877Y0153412D01*
X0204875Y0154411D02*
X0151822Y0154411D01*
X0151500Y0155500D02*
X0154500Y0152500D01*
X0151500Y0155500D02*
X0143500Y0155500D01*
X0141500Y0153500D01*
X0139500Y0151500D01*
X0139500Y0132500D01*
X0138500Y0131500D01*
X0110500Y0131500D01*
X0113500Y0134500D01*
X0132500Y0134500D01*
X0129166Y0140571D02*
X0129508Y0140768D01*
X0129787Y0141047D01*
X0129984Y0141390D01*
X0130087Y0141771D01*
X0130087Y0145799D01*
X0122000Y0145799D01*
X0122000Y0140469D01*
X0128784Y0140469D01*
X0129166Y0140571D01*
X0129995Y0141430D02*
X0147000Y0141430D01*
X0147000Y0140432D02*
X0108000Y0140432D01*
X0108000Y0141430D02*
X0113005Y0141430D01*
X0113016Y0141390D02*
X0113213Y0141047D01*
X0113492Y0140768D01*
X0113834Y0140571D01*
X0114216Y0140469D01*
X0121000Y0140469D01*
X0121000Y0145799D01*
X0122000Y0145799D01*
X0122000Y0146799D01*
X0130087Y0146799D01*
X0130087Y0150827D01*
X0129984Y0151209D01*
X0129787Y0151551D01*
X0129508Y0151830D01*
X0129166Y0152028D01*
X0128784Y0152130D01*
X0122000Y0152130D01*
X0122000Y0146799D01*
X0121000Y0146799D01*
X0121000Y0145799D01*
X0112913Y0145799D01*
X0112913Y0141771D01*
X0113016Y0141390D01*
X0112913Y0142429D02*
X0108000Y0142429D01*
X0108000Y0143427D02*
X0112913Y0143427D01*
X0112913Y0144426D02*
X0108000Y0144426D01*
X0108000Y0145424D02*
X0112913Y0145424D01*
X0112913Y0146799D02*
X0121000Y0146799D01*
X0121000Y0152130D01*
X0114216Y0152130D01*
X0113834Y0152028D01*
X0113492Y0151830D01*
X0113213Y0151551D01*
X0113016Y0151209D01*
X0112913Y0150827D01*
X0112913Y0146799D01*
X0112913Y0147421D02*
X0108000Y0147421D01*
X0108000Y0146423D02*
X0121000Y0146423D01*
X0121500Y0146299D02*
X0121500Y0142500D01*
X0110500Y0131500D01*
X0109089Y0130446D02*
X0120072Y0130446D01*
X0119194Y0129448D02*
X0110088Y0129448D01*
X0108091Y0131445D02*
X0146193Y0131445D01*
X0145779Y0130446D02*
X0124928Y0130446D01*
X0122500Y0127500D02*
X0121500Y0126500D01*
X0111500Y0126500D01*
X0110500Y0125500D01*
X0105500Y0130500D01*
X0105500Y0152500D01*
X0112400Y0159400D01*
X0112400Y0170700D01*
X0116800Y0170387D02*
X0121000Y0170387D01*
X0121000Y0170200D02*
X0117600Y0170200D01*
X0117600Y0166103D01*
X0117702Y0165721D01*
X0117900Y0165379D01*
X0118179Y0165100D01*
X0118521Y0164902D01*
X0118903Y0164800D01*
X0121000Y0164800D01*
X0121000Y0170200D01*
X0122000Y0170200D01*
X0122000Y0171200D01*
X0125400Y0171200D01*
X0125400Y0175297D01*
X0125298Y0175679D01*
X0125100Y0176021D01*
X0124821Y0176300D01*
X0124479Y0176498D01*
X0124097Y0176600D01*
X0122000Y0176600D01*
X0122000Y0171200D01*
X0121000Y0171200D01*
X0121000Y0176600D01*
X0118903Y0176600D01*
X0118521Y0176498D01*
X0118179Y0176300D01*
X0117900Y0176021D01*
X0117702Y0175679D01*
X0117600Y0175297D01*
X0117600Y0171200D01*
X0121000Y0171200D01*
X0121000Y0170200D01*
X0121500Y0170700D02*
X0117500Y0174700D01*
X0117500Y0177500D01*
X0114500Y0177500D01*
X0114500Y0181500D01*
X0121500Y0188500D01*
X0121500Y0191500D01*
X0124700Y0192354D02*
X0102781Y0192354D01*
X0102367Y0191356D02*
X0124861Y0191356D01*
X0125275Y0190357D02*
X0101418Y0190357D01*
X0100665Y0189359D02*
X0125985Y0189359D01*
X0125157Y0188360D02*
X0101701Y0188360D01*
X0102484Y0187362D02*
X0124744Y0187362D01*
X0124700Y0186363D02*
X0102898Y0186363D01*
X0103200Y0185365D02*
X0124857Y0185365D01*
X0125271Y0184366D02*
X0103200Y0184366D01*
X0103200Y0183368D02*
X0126258Y0183368D01*
X0128100Y0182369D02*
X0102787Y0182369D01*
X0102373Y0181370D02*
X0128100Y0181370D01*
X0128100Y0180372D02*
X0101433Y0180372D01*
X0100629Y0179373D02*
X0128100Y0179373D01*
X0128100Y0178375D02*
X0101686Y0178375D01*
X0102478Y0177376D02*
X0128100Y0177376D01*
X0126650Y0176378D02*
X0124687Y0176378D01*
X0125378Y0175379D02*
X0126200Y0175379D01*
X0126200Y0174381D02*
X0125400Y0174381D01*
X0125400Y0173382D02*
X0126200Y0173382D01*
X0126200Y0172384D02*
X0125400Y0172384D01*
X0125400Y0171385D02*
X0126200Y0171385D01*
X0126200Y0170387D02*
X0122000Y0170387D01*
X0122000Y0170200D02*
X0125400Y0170200D01*
X0125400Y0166103D01*
X0125298Y0165721D01*
X0125100Y0165379D01*
X0124821Y0165100D01*
X0124479Y0164902D01*
X0124097Y0164800D01*
X0122000Y0164800D01*
X0122000Y0170200D01*
X0122000Y0169388D02*
X0121000Y0169388D01*
X0121000Y0168390D02*
X0122000Y0168390D01*
X0122000Y0167391D02*
X0121000Y0167391D01*
X0121000Y0166393D02*
X0122000Y0166393D01*
X0122000Y0165394D02*
X0121000Y0165394D01*
X0117891Y0165394D02*
X0116723Y0165394D01*
X0116800Y0166393D02*
X0117600Y0166393D01*
X0117600Y0167391D02*
X0116800Y0167391D01*
X0116800Y0168390D02*
X0117600Y0168390D01*
X0117600Y0169388D02*
X0116800Y0169388D01*
X0116800Y0171385D02*
X0117600Y0171385D01*
X0117600Y0172384D02*
X0116800Y0172384D01*
X0116800Y0173382D02*
X0117600Y0173382D01*
X0117600Y0174381D02*
X0116800Y0174381D01*
X0116800Y0175379D02*
X0117622Y0175379D01*
X0118313Y0176378D02*
X0116350Y0176378D01*
X0121000Y0176378D02*
X0122000Y0176378D01*
X0122000Y0175379D02*
X0121000Y0175379D01*
X0121000Y0174381D02*
X0122000Y0174381D01*
X0122000Y0173382D02*
X0121000Y0173382D01*
X0121000Y0172384D02*
X0122000Y0172384D01*
X0122000Y0171385D02*
X0121000Y0171385D01*
X0125400Y0169388D02*
X0126200Y0169388D01*
X0126200Y0168390D02*
X0125400Y0168390D01*
X0125400Y0167391D02*
X0126200Y0167391D01*
X0126200Y0166393D02*
X0125400Y0166393D01*
X0125109Y0165394D02*
X0126277Y0165394D01*
X0127276Y0164396D02*
X0115724Y0164396D01*
X0114900Y0163397D02*
X0151023Y0163397D01*
X0150173Y0162399D02*
X0114900Y0162399D01*
X0114900Y0161400D02*
X0149760Y0161400D01*
X0149700Y0160402D02*
X0114900Y0160402D01*
X0114900Y0159403D02*
X0149841Y0159403D01*
X0150255Y0158405D02*
X0114694Y0158405D01*
X0113942Y0157406D02*
X0151220Y0157406D01*
X0150965Y0155409D02*
X0205874Y0155409D01*
X0206872Y0156408D02*
X0112943Y0156408D01*
X0111945Y0155409D02*
X0146035Y0155409D01*
X0145178Y0154411D02*
X0110946Y0154411D01*
X0109948Y0153412D02*
X0144765Y0153412D01*
X0144700Y0152414D02*
X0108949Y0152414D01*
X0108000Y0151415D02*
X0113135Y0151415D01*
X0112913Y0150417D02*
X0108000Y0150417D01*
X0108000Y0149418D02*
X0112913Y0149418D01*
X0112913Y0148420D02*
X0108000Y0148420D01*
X0103000Y0148420D02*
X0100934Y0148420D01*
X0101805Y0147421D02*
X0103000Y0147421D01*
X0103000Y0146423D02*
X0102343Y0146423D01*
X0102618Y0145424D02*
X0103000Y0145424D01*
X0103000Y0144426D02*
X0098000Y0144426D01*
X0098000Y0144000D02*
X0098000Y0139314D01*
X0098000Y0135000D01*
X0097000Y0135000D01*
X0097000Y0144000D01*
X0098000Y0144000D01*
X0098000Y0143427D02*
X0097000Y0143427D01*
X0097000Y0142429D02*
X0098000Y0142429D01*
X0098000Y0141430D02*
X0097000Y0141430D01*
X0097000Y0140432D02*
X0098000Y0140432D01*
X0098000Y0139433D02*
X0097000Y0139433D01*
X0097000Y0138434D02*
X0098000Y0138434D01*
X0098000Y0137436D02*
X0097000Y0137436D01*
X0097000Y0136437D02*
X0098000Y0136437D01*
X0098000Y0135439D02*
X0097000Y0135439D01*
X0098000Y0134440D02*
X0103000Y0134440D01*
X0103000Y0133442D02*
X0102597Y0133442D01*
X0102288Y0132443D02*
X0103000Y0132443D01*
X0103000Y0131445D02*
X0101708Y0131445D01*
X0100767Y0130446D02*
X0103000Y0130446D01*
X0103230Y0129448D02*
X0099099Y0129448D01*
X0098000Y0129448D02*
X0097000Y0129448D01*
X0097000Y0130446D02*
X0098000Y0130446D01*
X0098000Y0131445D02*
X0097000Y0131445D01*
X0097000Y0132443D02*
X0098000Y0132443D01*
X0098000Y0133442D02*
X0097000Y0133442D01*
X0097000Y0134000D02*
X0098000Y0134000D01*
X0098000Y0129314D01*
X0098000Y0125000D01*
X0097000Y0125000D01*
X0097000Y0134000D01*
X0097000Y0128449D02*
X0098000Y0128449D01*
X0098000Y0127451D02*
X0097000Y0127451D01*
X0097000Y0126452D02*
X0098000Y0126452D01*
X0098000Y0125454D02*
X0097000Y0125454D01*
X0098000Y0124455D02*
X0108000Y0124455D01*
X0107148Y0123457D02*
X0102600Y0123457D01*
X0102296Y0122458D02*
X0106531Y0122458D01*
X0106531Y0121460D02*
X0101719Y0121460D01*
X0100788Y0120461D02*
X0106531Y0120461D01*
X0110500Y0119846D02*
X0110500Y0125500D01*
X0107011Y0125454D02*
X0102614Y0125454D01*
X0102333Y0126452D02*
X0106012Y0126452D01*
X0105014Y0127451D02*
X0101784Y0127451D01*
X0100905Y0128449D02*
X0104015Y0128449D01*
X0108000Y0132443D02*
X0147000Y0132443D01*
X0147000Y0133442D02*
X0108000Y0133442D01*
X0108000Y0134440D02*
X0147000Y0134440D01*
X0147000Y0135439D02*
X0108000Y0135439D01*
X0108000Y0136437D02*
X0147000Y0136437D01*
X0147000Y0137436D02*
X0108000Y0137436D01*
X0108000Y0138434D02*
X0147000Y0138434D01*
X0147000Y0139433D02*
X0108000Y0139433D01*
X0103000Y0139433D02*
X0099145Y0139433D01*
X0100747Y0140432D02*
X0103000Y0140432D01*
X0103000Y0141430D02*
X0101697Y0141430D01*
X0102281Y0142429D02*
X0103000Y0142429D01*
X0103000Y0143427D02*
X0102595Y0143427D01*
X0098000Y0145000D02*
X0097000Y0145000D01*
X0097000Y0154000D01*
X0098000Y0154000D01*
X0098000Y0149314D01*
X0098000Y0145000D01*
X0098000Y0145424D02*
X0097000Y0145424D01*
X0097000Y0146423D02*
X0098000Y0146423D01*
X0098000Y0147421D02*
X0097000Y0147421D01*
X0097000Y0148420D02*
X0098000Y0148420D01*
X0098000Y0149418D02*
X0097000Y0149418D01*
X0097000Y0150417D02*
X0098000Y0150417D01*
X0098000Y0151415D02*
X0097000Y0151415D01*
X0097000Y0152414D02*
X0098000Y0152414D01*
X0098000Y0153412D02*
X0097000Y0153412D01*
X0098000Y0154411D02*
X0103875Y0154411D01*
X0103172Y0153412D02*
X0102593Y0153412D01*
X0102273Y0152414D02*
X0103000Y0152414D01*
X0103000Y0151415D02*
X0101686Y0151415D01*
X0100726Y0150417D02*
X0103000Y0150417D01*
X0103000Y0149418D02*
X0099191Y0149418D01*
X0098000Y0155000D02*
X0097000Y0155000D01*
X0097000Y0164000D01*
X0098000Y0164000D01*
X0098000Y0159314D01*
X0098000Y0155000D01*
X0098000Y0155409D02*
X0097000Y0155409D01*
X0097000Y0156408D02*
X0098000Y0156408D01*
X0098000Y0157406D02*
X0097000Y0157406D01*
X0097000Y0158405D02*
X0098000Y0158405D01*
X0098000Y0159403D02*
X0097000Y0159403D01*
X0097000Y0160402D02*
X0098000Y0160402D01*
X0098000Y0161400D02*
X0097000Y0161400D01*
X0097000Y0162399D02*
X0098000Y0162399D01*
X0098000Y0163397D02*
X0097000Y0163397D01*
X0098000Y0164396D02*
X0109076Y0164396D01*
X0109900Y0163397D02*
X0102590Y0163397D01*
X0102265Y0162399D02*
X0109900Y0162399D01*
X0109900Y0161400D02*
X0101675Y0161400D01*
X0100706Y0160402D02*
X0109866Y0160402D01*
X0108868Y0159403D02*
X0099237Y0159403D01*
X0100949Y0158405D02*
X0107869Y0158405D01*
X0106871Y0157406D02*
X0101816Y0157406D01*
X0102348Y0156408D02*
X0105872Y0156408D01*
X0104874Y0155409D02*
X0102621Y0155409D01*
X0102623Y0165394D02*
X0108077Y0165394D01*
X0108000Y0166393D02*
X0102353Y0166393D01*
X0101827Y0167391D02*
X0108000Y0167391D01*
X0108000Y0168390D02*
X0100964Y0168390D01*
X0100054Y0169388D02*
X0108000Y0169388D01*
X0108000Y0170387D02*
X0101448Y0170387D01*
X0102380Y0171385D02*
X0108000Y0171385D01*
X0108000Y0172384D02*
X0102793Y0172384D01*
X0103200Y0173382D02*
X0108000Y0173382D01*
X0108000Y0174381D02*
X0103200Y0174381D01*
X0103200Y0175379D02*
X0108000Y0175379D01*
X0108450Y0176378D02*
X0102892Y0176378D01*
X0103194Y0193353D02*
X0124740Y0193353D01*
X0125154Y0194351D02*
X0103200Y0194351D01*
X0103200Y0195350D02*
X0125976Y0195350D01*
X0127279Y0197347D02*
X0128326Y0196300D01*
X0126865Y0198345D02*
X0101716Y0198345D01*
X0100701Y0199344D02*
X0126700Y0199344D01*
X0126736Y0200342D02*
X0101403Y0200342D01*
X0102361Y0201341D02*
X0127149Y0201341D01*
X0127965Y0202339D02*
X0102775Y0202339D01*
X0103188Y0203338D02*
X0130802Y0203338D01*
X0131801Y0204336D02*
X0103200Y0204336D01*
X0103200Y0205335D02*
X0132799Y0205335D01*
X0133798Y0206333D02*
X0130822Y0206333D01*
X0130866Y0206409D02*
X0130968Y0206791D01*
X0130968Y0208669D01*
X0127984Y0208669D01*
X0127984Y0205488D01*
X0129666Y0205488D01*
X0130047Y0205590D01*
X0130390Y0205788D01*
X0130669Y0206067D01*
X0130866Y0206409D01*
X0130968Y0207332D02*
X0134796Y0207332D01*
X0135795Y0208330D02*
X0130968Y0208330D01*
X0131154Y0209154D02*
X0133500Y0211500D01*
X0136500Y0214500D01*
X0147000Y0214500D01*
X0148624Y0218315D02*
X0160000Y0218315D01*
X0160000Y0217317D02*
X0131468Y0217317D01*
X0131468Y0218315D02*
X0135376Y0218315D01*
X0134488Y0219314D02*
X0130995Y0219314D01*
X0131468Y0218840D02*
X0130297Y0220012D01*
X0129346Y0220012D01*
X0129346Y0223651D01*
X0128966Y0224570D01*
X0128263Y0225273D01*
X0128263Y0225273D01*
X0124968Y0228567D01*
X0124968Y0232147D01*
X0124237Y0232879D01*
X0124366Y0233102D01*
X0124468Y0233484D01*
X0124468Y0235362D01*
X0121484Y0235362D01*
X0121484Y0236331D01*
X0120516Y0236331D01*
X0120516Y0239512D01*
X0118834Y0239512D01*
X0118453Y0239410D01*
X0118110Y0239212D01*
X0117831Y0238933D01*
X0117634Y0238591D01*
X0117531Y0238209D01*
X0117531Y0236331D01*
X0120516Y0236331D01*
X0120516Y0235362D01*
X0117531Y0235362D01*
X0117531Y0233484D01*
X0117634Y0233102D01*
X0117763Y0232879D01*
X0117031Y0232147D01*
X0117031Y0226160D01*
X0118203Y0224988D01*
X0121476Y0224988D01*
X0124346Y0222118D01*
X0124346Y0219655D01*
X0123691Y0219000D01*
X0113374Y0219000D01*
X0112653Y0219721D01*
X0111256Y0220300D01*
X0109744Y0220300D01*
X0108347Y0219721D01*
X0107279Y0218653D01*
X0106700Y0217256D01*
X0106700Y0215744D01*
X0107279Y0214347D01*
X0108347Y0213279D01*
X0109744Y0212700D01*
X0111256Y0212700D01*
X0112653Y0213279D01*
X0113374Y0214000D01*
X0123531Y0214000D01*
X0123531Y0212853D01*
X0124263Y0212121D01*
X0124134Y0211898D01*
X0124031Y0211516D01*
X0124031Y0209638D01*
X0127016Y0209638D01*
X0127016Y0208669D01*
X0127984Y0208669D01*
X0127984Y0209638D01*
X0130968Y0209638D01*
X0130968Y0211516D01*
X0130866Y0211898D01*
X0130737Y0212121D01*
X0131468Y0212853D01*
X0131468Y0218840D01*
X0131468Y0216318D02*
X0160000Y0216318D01*
X0160000Y0215320D02*
X0131468Y0215320D01*
X0131468Y0214321D02*
X0160282Y0214321D01*
X0159551Y0213323D02*
X0161142Y0213323D01*
X0160357Y0212324D02*
X0162140Y0212324D01*
X0163139Y0211326D02*
X0160771Y0211326D01*
X0160800Y0210327D02*
X0163559Y0210327D01*
X0163559Y0209329D02*
X0160628Y0209329D01*
X0160204Y0208330D02*
X0163559Y0208330D01*
X0163559Y0207332D02*
X0159206Y0207332D01*
X0157000Y0210500D02*
X0141500Y0210500D01*
X0130500Y0199500D01*
X0127016Y0205488D02*
X0127016Y0208669D01*
X0124031Y0208669D01*
X0124031Y0206791D01*
X0124134Y0206409D01*
X0124331Y0206067D01*
X0124610Y0205788D01*
X0124953Y0205590D01*
X0125334Y0205488D01*
X0127016Y0205488D01*
X0127016Y0206333D02*
X0127984Y0206333D01*
X0127984Y0207332D02*
X0127016Y0207332D01*
X0127016Y0208330D02*
X0127984Y0208330D01*
X0127500Y0209154D02*
X0131154Y0209154D01*
X0130968Y0210327D02*
X0137792Y0210327D01*
X0136793Y0209329D02*
X0127984Y0209329D01*
X0127016Y0209329D02*
X0100732Y0209329D01*
X0101388Y0210327D02*
X0124031Y0210327D01*
X0124031Y0211326D02*
X0102355Y0211326D01*
X0102768Y0212324D02*
X0124060Y0212324D01*
X0123531Y0213323D02*
X0112697Y0213323D01*
X0110500Y0216500D02*
X0126846Y0216500D01*
X0126846Y0223154D01*
X0121000Y0229000D01*
X0121000Y0229154D01*
X0124968Y0229299D02*
X0156327Y0229299D01*
X0155328Y0230298D02*
X0149606Y0230298D01*
X0149765Y0228301D02*
X0125235Y0228301D01*
X0126234Y0227302D02*
X0148766Y0227302D01*
X0147768Y0226303D02*
X0127232Y0226303D01*
X0128231Y0225305D02*
X0134996Y0225305D01*
X0134488Y0224306D02*
X0129075Y0224306D01*
X0129346Y0223308D02*
X0134488Y0223308D01*
X0134488Y0222309D02*
X0129346Y0222309D01*
X0129346Y0221311D02*
X0134488Y0221311D01*
X0134488Y0220312D02*
X0129346Y0220312D01*
X0124346Y0220312D02*
X0101373Y0220312D01*
X0100747Y0219314D02*
X0107940Y0219314D01*
X0107139Y0218315D02*
X0101746Y0218315D01*
X0102503Y0217317D02*
X0106725Y0217317D01*
X0106700Y0216318D02*
X0102916Y0216318D01*
X0103200Y0215320D02*
X0106876Y0215320D01*
X0107305Y0214321D02*
X0103200Y0214321D01*
X0103182Y0213323D02*
X0108303Y0213323D01*
X0113060Y0219314D02*
X0124005Y0219314D01*
X0124346Y0221311D02*
X0102349Y0221311D01*
X0102762Y0222309D02*
X0124155Y0222309D01*
X0123156Y0223308D02*
X0103176Y0223308D01*
X0103200Y0224306D02*
X0122158Y0224306D01*
X0117886Y0225305D02*
X0103200Y0225305D01*
X0102923Y0226303D02*
X0117031Y0226303D01*
X0117031Y0227302D02*
X0102509Y0227302D01*
X0101760Y0228301D02*
X0117031Y0228301D01*
X0117031Y0229299D02*
X0100762Y0229299D01*
X0099124Y0233293D02*
X0117583Y0233293D01*
X0117531Y0234292D02*
X0111254Y0234292D01*
X0110925Y0234053D02*
X0111588Y0234534D01*
X0112166Y0235112D01*
X0112647Y0235775D01*
X0113019Y0236504D01*
X0113272Y0237282D01*
X0113386Y0238000D01*
X0108700Y0238000D01*
X0108700Y0233314D01*
X0109418Y0233428D01*
X0110196Y0233681D01*
X0110925Y0234053D01*
X0112295Y0235290D02*
X0117531Y0235290D01*
X0117531Y0237287D02*
X0113273Y0237287D01*
X0112909Y0236289D02*
X0120516Y0236289D01*
X0121484Y0236289D02*
X0135730Y0236289D01*
X0135788Y0236390D02*
X0135590Y0236047D01*
X0135488Y0235666D01*
X0135488Y0233984D01*
X0138669Y0233984D01*
X0138669Y0236968D01*
X0136791Y0236968D01*
X0136409Y0236866D01*
X0136067Y0236669D01*
X0135788Y0236390D01*
X0135488Y0235290D02*
X0124468Y0235290D01*
X0124468Y0234292D02*
X0135488Y0234292D01*
X0135488Y0232295D02*
X0124821Y0232295D01*
X0124968Y0231296D02*
X0135498Y0231296D01*
X0136125Y0230298D02*
X0124968Y0230298D01*
X0124417Y0233293D02*
X0138669Y0233293D01*
X0139154Y0233500D02*
X0133500Y0227846D01*
X0133500Y0211500D01*
X0130968Y0211326D02*
X0138790Y0211326D01*
X0139789Y0212324D02*
X0130940Y0212324D01*
X0131468Y0213323D02*
X0154449Y0213323D01*
X0149512Y0219314D02*
X0160000Y0219314D01*
X0160000Y0220312D02*
X0149512Y0220312D01*
X0149846Y0221311D02*
X0159315Y0221311D01*
X0158880Y0222309D02*
X0150845Y0222309D01*
X0151843Y0223308D02*
X0158700Y0223308D01*
X0162500Y0223500D02*
X0162500Y0215500D01*
X0170500Y0207500D01*
X0170500Y0197500D01*
X0170500Y0184500D01*
X0171500Y0183500D01*
X0171500Y0176500D01*
X0166500Y0171500D01*
X0163500Y0171500D01*
X0163500Y0166500D01*
X0161500Y0164500D01*
X0156500Y0169500D01*
X0141500Y0169500D01*
X0136500Y0174500D01*
X0136500Y0178500D01*
X0128500Y0186500D01*
X0130600Y0184400D01*
X0130600Y0170700D01*
X0135000Y0170387D02*
X0137078Y0170387D01*
X0138076Y0169388D02*
X0135000Y0169388D01*
X0135000Y0168390D02*
X0139075Y0168390D01*
X0140073Y0167391D02*
X0135000Y0167391D01*
X0135000Y0166393D02*
X0156072Y0166393D01*
X0157070Y0165394D02*
X0134923Y0165394D01*
X0133924Y0164396D02*
X0157700Y0164396D01*
X0157844Y0163397D02*
X0155977Y0163397D01*
X0153500Y0160500D02*
X0172500Y0160500D01*
X0192500Y0160500D01*
X0195500Y0163500D01*
X0213500Y0163500D01*
X0227500Y0177500D01*
X0227500Y0194500D01*
X0232500Y0199500D01*
X0235500Y0199500D01*
X0230500Y0207500D02*
X0230500Y0224500D01*
X0220500Y0234500D01*
X0205500Y0234500D01*
X0200500Y0229500D01*
X0198500Y0229500D01*
X0195921Y0232295D02*
X0162300Y0232295D01*
X0162285Y0233293D02*
X0197727Y0233293D01*
X0199273Y0233293D02*
X0200758Y0233293D01*
X0201756Y0234292D02*
X0161871Y0234292D01*
X0161084Y0235290D02*
X0202755Y0235290D01*
X0203753Y0236289D02*
X0159283Y0236289D01*
X0157717Y0236289D02*
X0150012Y0236289D01*
X0149022Y0237287D02*
X0219133Y0237287D01*
X0219100Y0238286D02*
X0124448Y0238286D01*
X0124468Y0238209D02*
X0124366Y0238591D01*
X0124169Y0238933D01*
X0123890Y0239212D01*
X0123547Y0239410D01*
X0123166Y0239512D01*
X0121484Y0239512D01*
X0121484Y0236331D01*
X0124468Y0236331D01*
X0124468Y0238209D01*
X0124468Y0237287D02*
X0142671Y0237287D01*
X0139638Y0236289D02*
X0138669Y0236289D01*
X0138669Y0235290D02*
X0139638Y0235290D01*
X0139638Y0234292D02*
X0138669Y0234292D01*
X0138669Y0232295D02*
X0139638Y0232295D01*
X0139638Y0231296D02*
X0138669Y0231296D01*
X0138669Y0230298D02*
X0139638Y0230298D01*
X0145846Y0233500D02*
X0157500Y0233500D01*
X0158500Y0232500D01*
X0162114Y0231296D02*
X0195131Y0231296D01*
X0194717Y0230298D02*
X0161672Y0230298D01*
X0160673Y0229299D02*
X0194700Y0229299D01*
X0192927Y0228301D02*
X0170735Y0228301D01*
X0171119Y0227916D02*
X0171119Y0227916D01*
X0171734Y0227302D02*
X0192133Y0227302D01*
X0191720Y0226303D02*
X0172732Y0226303D01*
X0173731Y0225305D02*
X0191700Y0225305D01*
X0191881Y0224306D02*
X0174729Y0224306D01*
X0169000Y0226500D02*
X0184000Y0211500D01*
X0184000Y0196500D01*
X0192500Y0188000D01*
X0196500Y0188000D01*
X0201000Y0183500D01*
X0207500Y0183500D02*
X0200500Y0190500D01*
X0194500Y0190500D01*
X0186500Y0198500D01*
X0186500Y0210500D01*
X0198500Y0222500D01*
X0207500Y0222500D01*
X0210069Y0225305D02*
X0212321Y0225305D01*
X0212347Y0225279D02*
X0213744Y0224700D01*
X0214764Y0224700D01*
X0215000Y0224464D01*
X0215000Y0212980D01*
X0214721Y0213653D01*
X0213653Y0214721D01*
X0212256Y0215300D01*
X0210744Y0215300D01*
X0209347Y0214721D01*
X0208279Y0213653D01*
X0207700Y0212256D01*
X0207700Y0210744D01*
X0208279Y0209347D01*
X0209266Y0208360D01*
X0209381Y0208084D01*
X0210381Y0207084D01*
X0211084Y0206381D01*
X0212003Y0206000D01*
X0214997Y0206000D01*
X0215916Y0206381D01*
X0218916Y0209381D01*
X0219619Y0210084D01*
X0220000Y0211003D01*
X0220000Y0225997D01*
X0219619Y0226916D01*
X0218300Y0228236D01*
X0218300Y0229256D01*
X0217992Y0230000D01*
X0218464Y0230000D01*
X0226000Y0222464D01*
X0226000Y0213536D01*
X0221381Y0208916D01*
X0221000Y0207997D01*
X0221000Y0194536D01*
X0216084Y0189619D01*
X0215381Y0188916D01*
X0215000Y0187997D01*
X0215000Y0180374D01*
X0214279Y0179653D01*
X0213700Y0178256D01*
X0213700Y0176744D01*
X0214279Y0175347D01*
X0215347Y0174279D01*
X0216744Y0173700D01*
X0218256Y0173700D01*
X0219653Y0174279D01*
X0220721Y0175347D01*
X0221300Y0176744D01*
X0221300Y0177884D01*
X0221744Y0177700D01*
X0223256Y0177700D01*
X0224653Y0178279D01*
X0225000Y0178626D01*
X0225000Y0178536D01*
X0214130Y0167666D01*
X0213721Y0168653D01*
X0213000Y0169374D01*
X0213000Y0169997D01*
X0212619Y0170916D01*
X0210000Y0173536D01*
X0210000Y0183997D01*
X0209619Y0184916D01*
X0204836Y0189700D01*
X0206256Y0189700D01*
X0207653Y0190279D01*
X0208374Y0191000D01*
X0209997Y0191000D01*
X0210916Y0191381D01*
X0211619Y0192084D01*
X0213619Y0194084D01*
X0214000Y0195003D01*
X0214000Y0200997D01*
X0213619Y0201916D01*
X0205151Y0210384D01*
X0205300Y0210744D01*
X0205300Y0212256D01*
X0204721Y0213653D01*
X0203653Y0214721D01*
X0202256Y0215300D01*
X0200744Y0215300D01*
X0199347Y0214721D01*
X0198279Y0213653D01*
X0197700Y0212256D01*
X0197700Y0210744D01*
X0198279Y0209347D01*
X0199347Y0208279D01*
X0200744Y0207700D01*
X0200764Y0207700D01*
X0209000Y0199464D01*
X0209000Y0196536D01*
X0208464Y0196000D01*
X0208374Y0196000D01*
X0207653Y0196721D01*
X0206256Y0197300D01*
X0204744Y0197300D01*
X0203347Y0196721D01*
X0202279Y0195653D01*
X0201700Y0194256D01*
X0201700Y0194116D01*
X0201256Y0194300D01*
X0199744Y0194300D01*
X0198347Y0193721D01*
X0197626Y0193000D01*
X0195536Y0193000D01*
X0189000Y0199536D01*
X0189000Y0209464D01*
X0199536Y0220000D01*
X0204626Y0220000D01*
X0205347Y0219279D01*
X0206744Y0218700D01*
X0208256Y0218700D01*
X0209653Y0219279D01*
X0210721Y0220347D01*
X0211300Y0221744D01*
X0211300Y0223256D01*
X0210721Y0224653D01*
X0209653Y0225721D01*
X0208256Y0226300D01*
X0206744Y0226300D01*
X0205347Y0225721D01*
X0204626Y0225000D01*
X0202536Y0225000D01*
X0207536Y0230000D01*
X0211008Y0230000D01*
X0210700Y0229256D01*
X0210700Y0227744D01*
X0211279Y0226347D01*
X0212347Y0225279D01*
X0211322Y0226303D02*
X0203839Y0226303D01*
X0202841Y0225305D02*
X0204931Y0225305D01*
X0204838Y0227302D02*
X0210883Y0227302D01*
X0210700Y0228301D02*
X0205836Y0228301D01*
X0206835Y0229299D02*
X0210718Y0229299D01*
X0214500Y0228500D02*
X0217500Y0225500D01*
X0217500Y0211500D01*
X0214500Y0208500D01*
X0212500Y0208500D01*
X0211500Y0209500D01*
X0211500Y0211500D01*
X0207700Y0211326D02*
X0205300Y0211326D01*
X0205272Y0212324D02*
X0207728Y0212324D01*
X0208142Y0213323D02*
X0204858Y0213323D01*
X0204053Y0214321D02*
X0208947Y0214321D01*
X0207873Y0210327D02*
X0205208Y0210327D01*
X0206207Y0209329D02*
X0208297Y0209329D01*
X0209279Y0208330D02*
X0207205Y0208330D01*
X0208204Y0207332D02*
X0210133Y0207332D01*
X0209202Y0206333D02*
X0211198Y0206333D01*
X0210201Y0205335D02*
X0221000Y0205335D01*
X0221000Y0206333D02*
X0215802Y0206333D01*
X0216867Y0207332D02*
X0221000Y0207332D01*
X0221138Y0208330D02*
X0217866Y0208330D01*
X0218864Y0209329D02*
X0221793Y0209329D01*
X0222792Y0210327D02*
X0219720Y0210327D01*
X0220000Y0211326D02*
X0223790Y0211326D01*
X0224789Y0212324D02*
X0220000Y0212324D01*
X0220000Y0213323D02*
X0225787Y0213323D01*
X0226000Y0214321D02*
X0220000Y0214321D01*
X0220000Y0215320D02*
X0226000Y0215320D01*
X0226000Y0216318D02*
X0220000Y0216318D01*
X0220000Y0217317D02*
X0226000Y0217317D01*
X0226000Y0218315D02*
X0220000Y0218315D01*
X0220000Y0219314D02*
X0226000Y0219314D01*
X0226000Y0220312D02*
X0220000Y0220312D01*
X0220000Y0221311D02*
X0226000Y0221311D01*
X0226000Y0222309D02*
X0220000Y0222309D01*
X0220000Y0223308D02*
X0225156Y0223308D01*
X0224158Y0224306D02*
X0220000Y0224306D01*
X0220000Y0225305D02*
X0223159Y0225305D01*
X0222161Y0226303D02*
X0219873Y0226303D01*
X0219234Y0227302D02*
X0221162Y0227302D01*
X0220164Y0228301D02*
X0218300Y0228301D01*
X0218282Y0229299D02*
X0219165Y0229299D01*
X0219500Y0232500D02*
X0228500Y0223500D01*
X0228500Y0212500D01*
X0223500Y0207500D01*
X0223500Y0193500D01*
X0217500Y0187500D01*
X0217500Y0177500D01*
X0221300Y0177376D02*
X0223841Y0177376D01*
X0224749Y0178375D02*
X0224839Y0178375D01*
X0222842Y0176378D02*
X0221148Y0176378D01*
X0220735Y0175379D02*
X0221844Y0175379D01*
X0220845Y0174381D02*
X0219755Y0174381D01*
X0219847Y0173382D02*
X0210153Y0173382D01*
X0210000Y0174381D02*
X0215245Y0174381D01*
X0214265Y0175379D02*
X0210000Y0175379D01*
X0210000Y0176378D02*
X0213852Y0176378D01*
X0213700Y0177376D02*
X0210000Y0177376D01*
X0210000Y0178375D02*
X0213749Y0178375D01*
X0214163Y0179373D02*
X0210000Y0179373D01*
X0210000Y0180372D02*
X0214998Y0180372D01*
X0215000Y0181370D02*
X0210000Y0181370D01*
X0210000Y0182369D02*
X0215000Y0182369D01*
X0215000Y0183368D02*
X0210000Y0183368D01*
X0209847Y0184366D02*
X0215000Y0184366D01*
X0215000Y0185365D02*
X0209171Y0185365D01*
X0208172Y0186363D02*
X0215000Y0186363D01*
X0215000Y0187362D02*
X0207174Y0187362D01*
X0206175Y0188360D02*
X0215150Y0188360D01*
X0215823Y0189359D02*
X0205177Y0189359D01*
X0207731Y0190357D02*
X0216822Y0190357D01*
X0217820Y0191356D02*
X0210856Y0191356D01*
X0211500Y0190500D02*
X0211500Y0182500D01*
X0207500Y0183500D02*
X0207500Y0172500D01*
X0210500Y0169500D01*
X0210500Y0166500D01*
X0205500Y0166500D01*
X0199500Y0172500D01*
X0194500Y0167500D02*
X0195500Y0166500D01*
X0195500Y0163500D01*
X0195937Y0160402D02*
X0210866Y0160402D01*
X0209868Y0159403D02*
X0194939Y0159403D01*
X0193940Y0158405D02*
X0208869Y0158405D01*
X0207871Y0157406D02*
X0174780Y0157406D01*
X0170220Y0157406D02*
X0155780Y0157406D01*
X0149500Y0151500D02*
X0148500Y0152500D01*
X0157500Y0143500D01*
X0164500Y0143500D01*
X0170500Y0137500D01*
X0166700Y0137436D02*
X0152000Y0137436D01*
X0152000Y0138434D02*
X0166030Y0138434D01*
X0165031Y0139433D02*
X0152000Y0139433D01*
X0152000Y0140432D02*
X0164033Y0140432D01*
X0166827Y0136437D02*
X0152000Y0136437D01*
X0152000Y0135439D02*
X0167241Y0135439D01*
X0168186Y0134440D02*
X0156934Y0134440D01*
X0152066Y0134440D02*
X0152000Y0134440D01*
X0149500Y0129500D02*
X0149500Y0151500D01*
X0146208Y0149418D02*
X0130087Y0149418D01*
X0130087Y0148420D02*
X0147000Y0148420D01*
X0147000Y0147421D02*
X0130087Y0147421D01*
X0130087Y0145424D02*
X0147000Y0145424D01*
X0147000Y0144426D02*
X0130087Y0144426D01*
X0130087Y0143427D02*
X0147000Y0143427D01*
X0147000Y0142429D02*
X0130087Y0142429D01*
X0130087Y0150417D02*
X0145250Y0150417D01*
X0144836Y0151415D02*
X0129865Y0151415D01*
X0122000Y0151415D02*
X0121000Y0151415D01*
X0121000Y0150417D02*
X0122000Y0150417D01*
X0122000Y0149418D02*
X0121000Y0149418D01*
X0121000Y0148420D02*
X0122000Y0148420D01*
X0122000Y0147421D02*
X0121000Y0147421D01*
X0122000Y0146423D02*
X0147000Y0146423D01*
X0152000Y0145424D02*
X0152040Y0145424D01*
X0152000Y0144426D02*
X0153039Y0144426D01*
X0154037Y0143427D02*
X0152000Y0143427D01*
X0152000Y0142429D02*
X0155036Y0142429D01*
X0156034Y0141430D02*
X0152000Y0141430D01*
X0141500Y0153500D02*
X0141500Y0157500D01*
X0149500Y0165500D01*
X0154500Y0171500D02*
X0161500Y0164500D01*
X0164992Y0163000D02*
X0165300Y0163744D01*
X0165300Y0164764D01*
X0165619Y0165084D01*
X0166000Y0166003D01*
X0166000Y0169000D01*
X0166997Y0169000D01*
X0167916Y0169381D01*
X0172916Y0174381D01*
X0173619Y0175084D01*
X0174000Y0176003D01*
X0174000Y0180626D01*
X0174374Y0181000D01*
X0180464Y0181000D01*
X0180700Y0180764D01*
X0180700Y0179744D01*
X0181279Y0178347D01*
X0182347Y0177279D01*
X0183744Y0176700D01*
X0185256Y0176700D01*
X0185700Y0176884D01*
X0185700Y0175744D01*
X0186010Y0174996D01*
X0185347Y0174721D01*
X0184279Y0173653D01*
X0183700Y0172256D01*
X0183700Y0170744D01*
X0184279Y0169347D01*
X0185347Y0168279D01*
X0186744Y0167700D01*
X0188248Y0167700D01*
X0188847Y0167221D01*
X0188626Y0167000D01*
X0185374Y0167000D01*
X0184653Y0167721D01*
X0183256Y0168300D01*
X0181744Y0168300D01*
X0180347Y0167721D01*
X0179279Y0166653D01*
X0178700Y0165256D01*
X0178700Y0163744D01*
X0179008Y0163000D01*
X0175374Y0163000D01*
X0174653Y0163721D01*
X0173256Y0164300D01*
X0171744Y0164300D01*
X0170347Y0163721D01*
X0169626Y0163000D01*
X0164992Y0163000D01*
X0165156Y0163397D02*
X0170023Y0163397D01*
X0167500Y0165500D02*
X0176500Y0165500D01*
X0182500Y0171500D01*
X0183700Y0171385D02*
X0169921Y0171385D01*
X0168922Y0170387D02*
X0183848Y0170387D01*
X0184262Y0169388D02*
X0167924Y0169388D01*
X0166000Y0168390D02*
X0185236Y0168390D01*
X0184983Y0167391D02*
X0188634Y0167391D01*
X0192500Y0167500D02*
X0187500Y0171500D01*
X0185007Y0174381D02*
X0172916Y0174381D01*
X0172916Y0174381D01*
X0173742Y0175379D02*
X0185851Y0175379D01*
X0185700Y0176378D02*
X0174000Y0176378D01*
X0174000Y0177376D02*
X0182250Y0177376D01*
X0181267Y0178375D02*
X0174000Y0178375D01*
X0174000Y0179373D02*
X0180854Y0179373D01*
X0180700Y0180372D02*
X0174000Y0180372D01*
X0171500Y0183500D02*
X0181500Y0183500D01*
X0184500Y0180500D01*
X0187006Y0183368D02*
X0187832Y0183368D01*
X0188084Y0183619D02*
X0187419Y0182955D01*
X0186653Y0183721D01*
X0185256Y0184300D01*
X0184236Y0184300D01*
X0182916Y0185619D01*
X0181997Y0186000D01*
X0174374Y0186000D01*
X0173653Y0186721D01*
X0173000Y0186992D01*
X0173000Y0194626D01*
X0173721Y0195347D01*
X0174300Y0196744D01*
X0174300Y0198256D01*
X0173760Y0199559D01*
X0181500Y0199559D01*
X0181500Y0196003D01*
X0181881Y0195084D01*
X0189795Y0187169D01*
X0189279Y0186653D01*
X0188700Y0185256D01*
X0188700Y0184236D01*
X0188084Y0183619D01*
X0188700Y0184366D02*
X0184170Y0184366D01*
X0183171Y0185365D02*
X0188745Y0185365D01*
X0189159Y0186363D02*
X0174011Y0186363D01*
X0173000Y0187362D02*
X0189603Y0187362D01*
X0188604Y0188360D02*
X0173000Y0188360D01*
X0173000Y0189359D02*
X0187606Y0189359D01*
X0186607Y0190357D02*
X0173000Y0190357D01*
X0173000Y0191356D02*
X0185609Y0191356D01*
X0184610Y0192354D02*
X0173000Y0192354D01*
X0173000Y0193353D02*
X0183612Y0193353D01*
X0182613Y0194351D02*
X0173000Y0194351D01*
X0173722Y0195350D02*
X0181770Y0195350D01*
X0181500Y0194500D02*
X0177500Y0190500D01*
X0181500Y0194500D02*
X0181500Y0204500D01*
X0177500Y0208500D01*
X0181500Y0208330D02*
X0172862Y0208330D01*
X0173000Y0207997D02*
X0172619Y0208916D01*
X0171916Y0209619D01*
X0167756Y0213780D01*
X0167756Y0219244D01*
X0172720Y0219244D01*
X0181500Y0210464D01*
X0181500Y0203756D01*
X0173000Y0203756D01*
X0173000Y0207997D01*
X0173000Y0207332D02*
X0181500Y0207332D01*
X0181500Y0206333D02*
X0173000Y0206333D01*
X0173000Y0205335D02*
X0181500Y0205335D01*
X0181500Y0204336D02*
X0173000Y0204336D01*
X0172207Y0209329D02*
X0181500Y0209329D01*
X0181500Y0210327D02*
X0171208Y0210327D01*
X0170210Y0211326D02*
X0180639Y0211326D01*
X0179640Y0212324D02*
X0169211Y0212324D01*
X0168213Y0213323D02*
X0178642Y0213323D01*
X0177643Y0214321D02*
X0167756Y0214321D01*
X0167756Y0215320D02*
X0176645Y0215320D01*
X0175646Y0216318D02*
X0167756Y0216318D01*
X0167756Y0217317D02*
X0174648Y0217317D01*
X0173649Y0218315D02*
X0167756Y0218315D01*
X0169000Y0226500D02*
X0151500Y0226500D01*
X0147000Y0222000D01*
X0145346Y0222000D01*
X0142069Y0218315D02*
X0141931Y0218315D01*
X0142000Y0206000D02*
X0128500Y0192500D01*
X0137000Y0189500D02*
X0137000Y0183000D01*
X0143500Y0176500D01*
X0145500Y0181500D02*
X0144000Y0183000D01*
X0144000Y0190000D01*
X0150500Y0192500D02*
X0150500Y0203000D01*
X0147500Y0206000D01*
X0142000Y0206000D01*
X0149704Y0207332D02*
X0154794Y0207332D01*
X0151701Y0205335D02*
X0163559Y0205335D01*
X0163559Y0206333D02*
X0150702Y0206333D01*
X0152652Y0204336D02*
X0163559Y0204336D01*
X0163559Y0203338D02*
X0153000Y0203338D01*
X0153000Y0202339D02*
X0163559Y0202339D01*
X0163559Y0201341D02*
X0153000Y0201341D01*
X0153000Y0200342D02*
X0164005Y0200342D01*
X0167151Y0199344D02*
X0153000Y0199344D01*
X0153000Y0198345D02*
X0166737Y0198345D01*
X0166700Y0197347D02*
X0153000Y0197347D01*
X0153000Y0196348D02*
X0166864Y0196348D01*
X0167278Y0195350D02*
X0153000Y0195350D01*
X0153000Y0194351D02*
X0168000Y0194351D01*
X0168000Y0193353D02*
X0153183Y0193353D01*
X0154181Y0192354D02*
X0168000Y0192354D01*
X0168000Y0191356D02*
X0155180Y0191356D01*
X0156178Y0190357D02*
X0168000Y0190357D01*
X0168000Y0189359D02*
X0157177Y0189359D01*
X0158175Y0188360D02*
X0168000Y0188360D01*
X0168000Y0187362D02*
X0158849Y0187362D01*
X0159011Y0186363D02*
X0168000Y0186363D01*
X0168000Y0185365D02*
X0159841Y0185365D01*
X0160254Y0184366D02*
X0167746Y0184366D01*
X0167700Y0183368D02*
X0160300Y0183368D01*
X0160145Y0182369D02*
X0167855Y0182369D01*
X0168269Y0181370D02*
X0159731Y0181370D01*
X0158746Y0180372D02*
X0169000Y0180372D01*
X0169000Y0179373D02*
X0157000Y0179373D01*
X0157000Y0178375D02*
X0169000Y0178375D01*
X0168841Y0177376D02*
X0157000Y0177376D01*
X0157000Y0176378D02*
X0167842Y0176378D01*
X0166844Y0175379D02*
X0157000Y0175379D01*
X0157000Y0174381D02*
X0165845Y0174381D01*
X0161847Y0173382D02*
X0157000Y0173382D01*
X0157152Y0172384D02*
X0161160Y0172384D01*
X0161000Y0171385D02*
X0158150Y0171385D01*
X0159149Y0170387D02*
X0161000Y0170387D01*
X0161000Y0169388D02*
X0160147Y0169388D01*
X0166000Y0167391D02*
X0180017Y0167391D01*
X0179171Y0166393D02*
X0166000Y0166393D01*
X0165748Y0165394D02*
X0178757Y0165394D01*
X0178700Y0164396D02*
X0165300Y0164396D01*
X0166500Y0164500D02*
X0167500Y0165500D01*
X0174977Y0163397D02*
X0178844Y0163397D01*
X0182500Y0164500D02*
X0191500Y0164500D01*
X0192500Y0167500D02*
X0194500Y0167500D01*
X0189500Y0176500D02*
X0189500Y0181500D01*
X0192500Y0184500D01*
X0195183Y0193353D02*
X0197979Y0193353D01*
X0201739Y0194351D02*
X0194184Y0194351D01*
X0193186Y0195350D02*
X0202153Y0195350D01*
X0202974Y0196348D02*
X0192187Y0196348D01*
X0191189Y0197347D02*
X0209000Y0197347D01*
X0209000Y0198345D02*
X0190190Y0198345D01*
X0189192Y0199344D02*
X0209000Y0199344D01*
X0208122Y0200342D02*
X0189000Y0200342D01*
X0189000Y0201341D02*
X0207124Y0201341D01*
X0206125Y0202339D02*
X0189000Y0202339D01*
X0189000Y0203338D02*
X0205127Y0203338D01*
X0204128Y0204336D02*
X0189000Y0204336D01*
X0189000Y0205335D02*
X0203130Y0205335D01*
X0202131Y0206333D02*
X0189000Y0206333D01*
X0189000Y0207332D02*
X0201133Y0207332D01*
X0199296Y0208330D02*
X0189000Y0208330D01*
X0189000Y0209329D02*
X0198297Y0209329D01*
X0197873Y0210327D02*
X0189863Y0210327D01*
X0190861Y0211326D02*
X0197700Y0211326D01*
X0197728Y0212324D02*
X0191860Y0212324D01*
X0192858Y0213323D02*
X0198142Y0213323D01*
X0198947Y0214321D02*
X0193857Y0214321D01*
X0194855Y0215320D02*
X0215000Y0215320D01*
X0215000Y0216318D02*
X0195854Y0216318D01*
X0196852Y0217317D02*
X0215000Y0217317D01*
X0215000Y0218315D02*
X0197851Y0218315D01*
X0198849Y0219314D02*
X0205312Y0219314D01*
X0209688Y0219314D02*
X0215000Y0219314D01*
X0215000Y0220312D02*
X0210686Y0220312D01*
X0211121Y0221311D02*
X0215000Y0221311D01*
X0215000Y0222309D02*
X0211300Y0222309D01*
X0211278Y0223308D02*
X0215000Y0223308D01*
X0215000Y0224306D02*
X0210865Y0224306D01*
X0206500Y0232500D02*
X0219500Y0232500D01*
X0219100Y0239284D02*
X0123765Y0239284D01*
X0121484Y0239284D02*
X0120516Y0239284D01*
X0120516Y0238286D02*
X0121484Y0238286D01*
X0121484Y0237287D02*
X0120516Y0237287D01*
X0118235Y0239284D02*
X0113341Y0239284D01*
X0113088Y0240283D02*
X0219369Y0240283D01*
X0219782Y0241281D02*
X0112607Y0241281D01*
X0111774Y0242280D02*
X0220519Y0242280D01*
X0206500Y0232500D02*
X0199500Y0225500D01*
X0195500Y0225500D01*
X0192318Y0223308D02*
X0186345Y0223308D01*
X0187343Y0222309D02*
X0193317Y0222309D01*
X0193775Y0221311D02*
X0187441Y0221311D01*
X0187441Y0220312D02*
X0192777Y0220312D01*
X0191778Y0219314D02*
X0187441Y0219314D01*
X0187441Y0218315D02*
X0190780Y0218315D01*
X0189781Y0217317D02*
X0187441Y0217317D01*
X0187441Y0216318D02*
X0188783Y0216318D01*
X0187784Y0215320D02*
X0187441Y0215320D01*
X0201500Y0211500D02*
X0201500Y0210500D01*
X0211500Y0200500D01*
X0211500Y0195500D01*
X0209500Y0193500D01*
X0205500Y0193500D01*
X0208026Y0196348D02*
X0208813Y0196348D01*
X0211890Y0192354D02*
X0218819Y0192354D01*
X0219817Y0193353D02*
X0212888Y0193353D01*
X0213730Y0194351D02*
X0220816Y0194351D01*
X0221000Y0195350D02*
X0214000Y0195350D01*
X0214000Y0196348D02*
X0221000Y0196348D01*
X0221000Y0197347D02*
X0214000Y0197347D01*
X0214000Y0198345D02*
X0221000Y0198345D01*
X0221000Y0199344D02*
X0214000Y0199344D01*
X0214000Y0200342D02*
X0221000Y0200342D01*
X0221000Y0201341D02*
X0213858Y0201341D01*
X0213196Y0202339D02*
X0221000Y0202339D01*
X0221000Y0203338D02*
X0212198Y0203338D01*
X0211199Y0204336D02*
X0221000Y0204336D01*
X0225500Y0202500D02*
X0230500Y0207500D01*
X0225500Y0202500D02*
X0225500Y0191500D01*
X0220500Y0186500D01*
X0220500Y0183500D01*
X0222500Y0181500D01*
X0230500Y0176500D02*
X0230500Y0186500D01*
X0233500Y0189500D01*
X0235500Y0189500D01*
X0235500Y0179500D02*
X0235500Y0177500D01*
X0217500Y0159500D01*
X0217500Y0150500D01*
X0201500Y0134500D01*
X0207500Y0130500D02*
X0203500Y0126500D01*
X0192500Y0126500D01*
X0190500Y0128500D01*
X0190500Y0136500D01*
X0230500Y0176500D01*
X0218848Y0172384D02*
X0211152Y0172384D01*
X0212150Y0171385D02*
X0217850Y0171385D01*
X0216851Y0170387D02*
X0212839Y0170387D01*
X0213000Y0169388D02*
X0215853Y0169388D01*
X0214854Y0168390D02*
X0213830Y0168390D01*
X0221500Y0158500D02*
X0221500Y0135500D01*
X0225500Y0131500D01*
X0229300Y0131445D02*
X0230020Y0131445D01*
X0229800Y0130446D02*
X0229177Y0130446D01*
X0228763Y0129448D02*
X0229800Y0129448D01*
X0229800Y0128449D02*
X0227823Y0128449D01*
X0230179Y0127451D02*
X0214000Y0127451D01*
X0214000Y0128449D02*
X0223177Y0128449D01*
X0222237Y0129448D02*
X0214000Y0129448D01*
X0214000Y0130446D02*
X0221823Y0130446D01*
X0221700Y0131445D02*
X0214000Y0131445D01*
X0214000Y0132443D02*
X0221021Y0132443D01*
X0220023Y0133442D02*
X0214000Y0133442D01*
X0214000Y0134440D02*
X0219233Y0134440D01*
X0219000Y0135439D02*
X0214174Y0135439D01*
X0214300Y0136437D02*
X0219000Y0136437D01*
X0219000Y0137436D02*
X0214225Y0137436D01*
X0213812Y0138434D02*
X0219000Y0138434D01*
X0219000Y0139433D02*
X0212941Y0139433D01*
X0210967Y0140432D02*
X0219000Y0140432D01*
X0219000Y0141430D02*
X0211966Y0141430D01*
X0212964Y0142429D02*
X0219000Y0142429D01*
X0219000Y0143427D02*
X0213963Y0143427D01*
X0214961Y0144426D02*
X0219000Y0144426D01*
X0219000Y0145424D02*
X0215960Y0145424D01*
X0216958Y0146423D02*
X0219000Y0146423D01*
X0219000Y0147421D02*
X0217957Y0147421D01*
X0218955Y0148420D02*
X0219000Y0148420D01*
X0225500Y0139500D02*
X0235500Y0129500D01*
X0231485Y0125454D02*
X0214000Y0125454D01*
X0214000Y0126452D02*
X0230593Y0126452D01*
X0232784Y0124455D02*
X0214000Y0124455D01*
X0213774Y0123457D02*
X0239500Y0123457D01*
X0239500Y0124455D02*
X0238216Y0124455D01*
X0239500Y0122458D02*
X0212994Y0122458D01*
X0212916Y0122381D02*
X0212916Y0122381D01*
X0211995Y0121460D02*
X0239500Y0121460D01*
X0239500Y0120461D02*
X0210997Y0120461D01*
X0209998Y0119463D02*
X0239500Y0119463D01*
X0239500Y0118464D02*
X0209000Y0118464D01*
X0211908Y0117466D02*
X0239500Y0117466D01*
X0239500Y0116467D02*
X0212798Y0116467D01*
X0213212Y0115469D02*
X0239500Y0115469D01*
X0239500Y0114470D02*
X0213300Y0114470D01*
X0213187Y0113472D02*
X0239500Y0113472D01*
X0239500Y0112473D02*
X0212774Y0112473D01*
X0211849Y0111475D02*
X0239500Y0111475D01*
X0239500Y0110476D02*
X0209012Y0110476D01*
X0208013Y0109478D02*
X0239500Y0109478D01*
X0239500Y0108479D02*
X0193895Y0108479D01*
X0194793Y0107481D02*
X0239500Y0107481D01*
X0239500Y0106482D02*
X0195206Y0106482D01*
X0195300Y0105484D02*
X0221937Y0105484D01*
X0220724Y0104485D02*
X0195193Y0104485D01*
X0194779Y0103487D02*
X0219867Y0103487D01*
X0219454Y0102488D02*
X0193862Y0102488D01*
X0191500Y0105500D02*
X0179500Y0105500D01*
X0175500Y0109500D01*
X0179300Y0109478D02*
X0184987Y0109478D01*
X0183988Y0110476D02*
X0179209Y0110476D01*
X0178795Y0111475D02*
X0181151Y0111475D01*
X0180226Y0112473D02*
X0177901Y0112473D01*
X0179813Y0113472D02*
X0158007Y0113472D01*
X0159006Y0114470D02*
X0179700Y0114470D01*
X0179788Y0115469D02*
X0160004Y0115469D01*
X0159500Y0118500D02*
X0152500Y0111500D01*
X0156300Y0111475D02*
X0172205Y0111475D01*
X0171791Y0110476D02*
X0156189Y0110476D01*
X0155775Y0109478D02*
X0171700Y0109478D01*
X0171810Y0108479D02*
X0154853Y0108479D01*
X0157937Y0105484D02*
X0142666Y0105484D01*
X0142603Y0105636D02*
X0141542Y0106697D01*
X0140156Y0107272D01*
X0138655Y0107272D01*
X0137269Y0106697D01*
X0136208Y0105636D01*
X0135634Y0104250D01*
X0135634Y0102750D01*
X0136208Y0101364D01*
X0137269Y0100303D01*
X0138655Y0099728D01*
X0140156Y0099728D01*
X0141542Y0100303D01*
X0142603Y0101364D01*
X0143177Y0102750D01*
X0143177Y0104250D01*
X0142603Y0105636D01*
X0141757Y0106482D02*
X0173144Y0106482D01*
X0172700Y0105686D02*
X0172700Y0101000D01*
X0177386Y0101000D01*
X0177272Y0101718D01*
X0177019Y0102496D01*
X0176647Y0103225D01*
X0176166Y0103888D01*
X0175588Y0104466D01*
X0174925Y0104947D01*
X0174196Y0105319D01*
X0173418Y0105572D01*
X0172700Y0105686D01*
X0172700Y0105484D02*
X0171700Y0105484D01*
X0170710Y0105484D02*
X0163663Y0105484D01*
X0164876Y0104485D02*
X0168838Y0104485D01*
X0167942Y0103487D02*
X0165733Y0103487D01*
X0166146Y0102488D02*
X0167378Y0102488D01*
X0167092Y0101490D02*
X0166500Y0101490D01*
X0166500Y0100491D02*
X0171700Y0100491D01*
X0171700Y0101490D02*
X0172700Y0101490D01*
X0172700Y0102488D02*
X0171700Y0102488D01*
X0171700Y0103487D02*
X0172700Y0103487D01*
X0172700Y0104485D02*
X0171700Y0104485D01*
X0173690Y0105484D02*
X0175981Y0105484D01*
X0175562Y0104485D02*
X0176979Y0104485D01*
X0176458Y0103487D02*
X0177978Y0103487D01*
X0177022Y0102488D02*
X0189138Y0102488D01*
X0189105Y0108479D02*
X0180056Y0108479D01*
X0183500Y0114500D02*
X0186500Y0111500D01*
X0206500Y0111500D01*
X0209500Y0114500D01*
X0201500Y0114500D02*
X0190500Y0114500D01*
X0180528Y0117466D02*
X0179001Y0117466D01*
X0178003Y0116467D02*
X0180202Y0116467D01*
X0180000Y0118464D02*
X0180528Y0118464D01*
X0176500Y0118500D02*
X0180500Y0122500D01*
X0180500Y0130500D01*
X0177500Y0133500D01*
X0177500Y0136500D01*
X0178500Y0137500D01*
X0179500Y0137500D01*
X0183300Y0137436D02*
X0188182Y0137436D01*
X0188000Y0136437D02*
X0183173Y0136437D01*
X0183226Y0138434D02*
X0188899Y0138434D01*
X0189897Y0139433D02*
X0182812Y0139433D01*
X0181942Y0140432D02*
X0190896Y0140432D01*
X0178000Y0126452D02*
X0174179Y0126452D01*
X0173766Y0125454D02*
X0178000Y0125454D01*
X0178000Y0124455D02*
X0172829Y0124455D01*
X0175924Y0121460D02*
X0122000Y0121460D01*
X0122000Y0122458D02*
X0176923Y0122458D01*
X0177921Y0123457D02*
X0122000Y0123457D01*
X0122000Y0120461D02*
X0157926Y0120461D01*
X0156927Y0119463D02*
X0122000Y0119463D01*
X0122000Y0118464D02*
X0155929Y0118464D01*
X0154930Y0117466D02*
X0122000Y0117466D01*
X0122000Y0116467D02*
X0153932Y0116467D01*
X0152933Y0115469D02*
X0122000Y0115469D01*
X0122000Y0114470D02*
X0150096Y0114470D01*
X0149204Y0113472D02*
X0122000Y0113472D01*
X0122000Y0112473D02*
X0148790Y0112473D01*
X0148700Y0111475D02*
X0122000Y0111475D01*
X0122000Y0110476D02*
X0148811Y0110476D01*
X0149225Y0109478D02*
X0122000Y0109478D01*
X0122000Y0108479D02*
X0150147Y0108479D01*
X0155867Y0103487D02*
X0143177Y0103487D01*
X0143080Y0104485D02*
X0156724Y0104485D01*
X0155454Y0102488D02*
X0143069Y0102488D01*
X0142655Y0101490D02*
X0155100Y0101490D01*
X0155100Y0100491D02*
X0141730Y0100491D01*
X0137081Y0100491D02*
X0129919Y0100491D01*
X0130788Y0099493D02*
X0155100Y0099493D01*
X0155461Y0098494D02*
X0131201Y0098494D01*
X0131300Y0097496D02*
X0155875Y0097496D01*
X0165725Y0097496D02*
X0167955Y0097496D01*
X0167386Y0098494D02*
X0166139Y0098494D01*
X0166500Y0099493D02*
X0167095Y0099493D01*
X0172700Y0100491D02*
X0219100Y0100491D01*
X0219100Y0099493D02*
X0177305Y0099493D01*
X0177014Y0098494D02*
X0219461Y0098494D01*
X0219875Y0097496D02*
X0176445Y0097496D01*
X0177308Y0101490D02*
X0219100Y0101490D01*
X0227663Y0105484D02*
X0233337Y0105484D01*
X0232124Y0104485D02*
X0228876Y0104485D01*
X0229733Y0103487D02*
X0231267Y0103487D01*
X0230854Y0102488D02*
X0230146Y0102488D01*
X0230500Y0101634D02*
X0230500Y0099366D01*
X0229632Y0097271D01*
X0228861Y0096500D01*
X0232139Y0096500D01*
X0231368Y0097271D01*
X0230500Y0099366D01*
X0230500Y0101634D01*
X0230500Y0101490D02*
X0230500Y0101490D01*
X0230500Y0100491D02*
X0230500Y0100491D01*
X0230500Y0099493D02*
X0230500Y0099493D01*
X0230139Y0098494D02*
X0230861Y0098494D01*
X0231275Y0097496D02*
X0229725Y0097496D01*
X0239063Y0105484D02*
X0239500Y0105484D01*
X0211500Y0124500D02*
X0211500Y0135500D01*
X0210500Y0136500D01*
X0211500Y0124500D02*
X0201500Y0114500D01*
X0176500Y0118500D02*
X0159500Y0118500D01*
X0157009Y0112473D02*
X0173099Y0112473D01*
X0172223Y0107481D02*
X0122000Y0107481D01*
X0122053Y0106482D02*
X0125243Y0106482D01*
X0124334Y0105484D02*
X0123052Y0105484D01*
X0119500Y0105500D02*
X0127500Y0097500D01*
X0130844Y0101490D02*
X0136156Y0101490D01*
X0135742Y0102488D02*
X0131258Y0102488D01*
X0131366Y0103487D02*
X0135634Y0103487D01*
X0135731Y0104485D02*
X0131269Y0104485D01*
X0130855Y0105484D02*
X0136145Y0105484D01*
X0137054Y0106482D02*
X0129946Y0106482D01*
X0117000Y0115469D02*
X0113968Y0115469D01*
X0114083Y0116467D02*
X0117000Y0116467D01*
X0117000Y0117466D02*
X0114468Y0117466D01*
X0114468Y0118464D02*
X0117000Y0118464D01*
X0117000Y0119463D02*
X0114468Y0119463D01*
X0114468Y0120461D02*
X0117000Y0120461D01*
X0117000Y0121460D02*
X0114468Y0121460D01*
X0114468Y0122458D02*
X0117000Y0122458D01*
X0117000Y0123457D02*
X0113852Y0123457D01*
X0110016Y0113472D02*
X0102602Y0113472D01*
X0102303Y0112473D02*
X0107031Y0112473D01*
X0107031Y0112669D02*
X0107031Y0110791D01*
X0107134Y0110409D01*
X0107331Y0110067D01*
X0107610Y0109788D01*
X0107953Y0109590D01*
X0108334Y0109488D01*
X0110016Y0109488D01*
X0110016Y0112669D01*
X0107031Y0112669D01*
X0107031Y0111475D02*
X0101730Y0111475D01*
X0100808Y0110476D02*
X0107116Y0110476D01*
X0110016Y0110476D02*
X0110984Y0110476D01*
X0110984Y0111475D02*
X0110016Y0111475D01*
X0110016Y0112473D02*
X0110984Y0112473D01*
X0098000Y0121460D02*
X0097000Y0121460D01*
X0097000Y0122458D02*
X0098000Y0122458D01*
X0098000Y0123457D02*
X0097000Y0123457D01*
X0102616Y0135439D02*
X0103000Y0135439D01*
X0103000Y0136437D02*
X0102338Y0136437D01*
X0101794Y0137436D02*
X0103000Y0137436D01*
X0103000Y0138434D02*
X0100919Y0138434D01*
X0121000Y0141430D02*
X0122000Y0141430D01*
X0122000Y0142429D02*
X0121000Y0142429D01*
X0121000Y0143427D02*
X0122000Y0143427D01*
X0122000Y0144426D02*
X0121000Y0144426D01*
X0121000Y0145424D02*
X0122000Y0145424D01*
X0124829Y0124455D02*
X0168171Y0124455D01*
X0170919Y0172384D02*
X0183753Y0172384D01*
X0184167Y0173382D02*
X0171918Y0173382D01*
X0166500Y0179500D02*
X0166500Y0190500D01*
X0171500Y0183500D02*
X0176500Y0183500D01*
X0174136Y0196348D02*
X0181500Y0196348D01*
X0181500Y0197347D02*
X0174300Y0197347D01*
X0174263Y0198345D02*
X0181500Y0198345D01*
X0181500Y0199344D02*
X0173849Y0199344D01*
X0156500Y0186500D02*
X0156500Y0183500D01*
X0156500Y0186500D02*
X0150500Y0192500D01*
X0150500Y0182500D02*
X0152500Y0182500D01*
X0154500Y0180500D01*
X0154500Y0171500D01*
X0136079Y0171385D02*
X0135000Y0171385D01*
X0135000Y0172384D02*
X0135081Y0172384D01*
X0124178Y0206333D02*
X0102910Y0206333D01*
X0102497Y0207332D02*
X0124031Y0207332D01*
X0124031Y0208330D02*
X0101731Y0208330D01*
X0094238Y0229299D02*
X0093500Y0229299D01*
X0093500Y0230298D02*
X0117031Y0230298D01*
X0117031Y0231296D02*
X0093500Y0231296D01*
X0093500Y0232295D02*
X0117179Y0232295D01*
X0117552Y0238286D02*
X0108700Y0238286D01*
X0108700Y0237287D02*
X0107700Y0237287D01*
X0107700Y0238000D02*
X0107700Y0233314D01*
X0106982Y0233428D01*
X0106204Y0233681D01*
X0105475Y0234053D01*
X0104812Y0234534D01*
X0104234Y0235112D01*
X0103753Y0235775D01*
X0103381Y0236504D01*
X0103128Y0237282D01*
X0103014Y0238000D01*
X0107700Y0238000D01*
X0107700Y0238286D02*
X0102500Y0238286D01*
X0102500Y0239284D02*
X0103059Y0239284D01*
X0103312Y0240283D02*
X0102231Y0240283D01*
X0101818Y0241281D02*
X0103793Y0241281D01*
X0104626Y0242280D02*
X0101081Y0242280D01*
X0102467Y0237287D02*
X0103127Y0237287D01*
X0103491Y0236289D02*
X0102054Y0236289D01*
X0101640Y0235290D02*
X0104105Y0235290D01*
X0105146Y0234292D02*
X0100653Y0234292D01*
X0094476Y0233293D02*
X0093500Y0233293D01*
X0107700Y0234292D02*
X0108700Y0234292D01*
X0108700Y0235290D02*
X0107700Y0235290D01*
X0107700Y0236289D02*
X0108700Y0236289D01*
X0126846Y0216500D02*
X0127500Y0215846D01*
X0214053Y0214321D02*
X0215000Y0214321D01*
X0215000Y0213323D02*
X0214858Y0213323D01*
X0225500Y0162500D02*
X0225500Y0139500D01*
X0093937Y0105484D02*
X0093500Y0105484D01*
D16*
X0122500Y0127500D03*
X0132500Y0134500D03*
X0149500Y0129500D03*
X0154500Y0131500D03*
X0170500Y0127500D03*
X0170500Y0137500D03*
X0179500Y0137500D03*
X0201500Y0134500D03*
X0207500Y0130500D03*
X0210500Y0136500D03*
X0225500Y0131500D03*
X0209500Y0114500D03*
X0191500Y0105500D03*
X0190500Y0114500D03*
X0183500Y0114500D03*
X0175500Y0109500D03*
X0152500Y0111500D03*
X0127500Y0097500D03*
X0110500Y0131500D03*
X0141500Y0153500D03*
X0148500Y0152500D03*
X0154500Y0152500D03*
X0153500Y0160500D03*
X0149500Y0165500D03*
X0161500Y0164500D03*
X0166500Y0164500D03*
X0172500Y0160500D03*
X0182500Y0164500D03*
X0182500Y0171500D03*
X0187500Y0171500D03*
X0189500Y0176500D03*
X0184500Y0180500D03*
X0192500Y0184500D03*
X0200500Y0190500D03*
X0205500Y0193500D03*
X0211500Y0190500D03*
X0211500Y0182500D03*
X0217500Y0177500D03*
X0222500Y0181500D03*
X0210500Y0166500D03*
X0199500Y0172500D03*
X0191500Y0164500D03*
X0171500Y0183500D03*
X0166500Y0179500D03*
X0156500Y0183500D03*
X0150500Y0182500D03*
X0145500Y0181500D03*
X0143500Y0176500D03*
X0144000Y0190000D03*
X0137000Y0189500D03*
X0128500Y0186500D03*
X0128500Y0192500D03*
X0121500Y0191500D03*
X0130500Y0199500D03*
X0110500Y0216500D03*
X0114500Y0177500D03*
X0157000Y0210500D03*
X0162500Y0223500D03*
X0158500Y0232500D03*
X0177500Y0208500D03*
X0170500Y0197500D03*
X0166500Y0190500D03*
X0177500Y0190500D03*
X0201500Y0211500D03*
X0211500Y0211500D03*
X0207500Y0222500D03*
X0214500Y0228500D03*
X0198500Y0229500D03*
X0195500Y0225500D03*
X0225500Y0162500D03*
X0221500Y0158500D03*
D17*
X0201000Y0183500D03*
X0147000Y0214500D03*
M02*
