G75*
%MOIN*%
%OFA0B0*%
%FSLAX25Y25*%
%IPPOS*%
%LPD*%
%AMOC8*
5,1,8,0,0,1.08239X$1,22.5*
%
%ADD10R,0.02756X0.03543*%
%ADD11C,0.07400*%
%ADD12R,0.07400X0.07400*%
%ADD13R,0.04331X0.03937*%
%ADD14R,0.03937X0.04331*%
%ADD15C,0.03600*%
%ADD16C,0.01000*%
D10*
X0431941Y0314500D03*
X0437059Y0314500D03*
D11*
X0312800Y0211500D03*
X0324200Y0211500D03*
X0313500Y0255500D03*
X0313500Y0265500D03*
X0313500Y0275500D03*
X0313500Y0285500D03*
X0313500Y0295500D03*
X0313500Y0305500D03*
X0313500Y0315500D03*
X0312800Y0349500D03*
X0324200Y0349500D03*
X0440800Y0349500D03*
X0452200Y0349500D03*
X0451500Y0320500D03*
X0451500Y0310500D03*
X0451500Y0300500D03*
X0451500Y0290500D03*
X0451500Y0280500D03*
X0451500Y0270500D03*
X0451500Y0260500D03*
X0451500Y0250500D03*
X0451500Y0240500D03*
X0452200Y0211500D03*
X0440800Y0211500D03*
D12*
X0313500Y0245500D03*
D13*
X0415154Y0333500D03*
X0421846Y0333500D03*
D14*
X0437500Y0327846D03*
X0437500Y0321154D03*
X0361500Y0285846D03*
X0361500Y0279154D03*
X0344500Y0284154D03*
X0344500Y0290846D03*
X0328500Y0285846D03*
X0328500Y0279154D03*
X0330500Y0270846D03*
X0330500Y0264154D03*
X0344500Y0264154D03*
X0344500Y0270846D03*
X0347500Y0242846D03*
X0347500Y0236154D03*
X0333500Y0236154D03*
X0333500Y0242846D03*
X0361500Y0242846D03*
X0361500Y0236154D03*
D15*
X0367500Y0226500D03*
X0369500Y0221500D03*
X0357500Y0217500D03*
X0383500Y0242500D03*
X0395500Y0249500D03*
X0400500Y0249500D03*
X0404500Y0262500D03*
X0407500Y0269500D03*
X0412500Y0266500D03*
X0420500Y0270500D03*
X0418500Y0275500D03*
X0423500Y0278500D03*
X0422500Y0283500D03*
X0413500Y0283500D03*
X0407500Y0275500D03*
X0423500Y0265500D03*
X0422500Y0252500D03*
X0438500Y0257500D03*
X0439500Y0265500D03*
X0435500Y0289500D03*
X0432500Y0303500D03*
X0430500Y0309500D03*
X0425500Y0303500D03*
X0414500Y0298500D03*
X0400500Y0297500D03*
X0394500Y0296500D03*
X0393500Y0281500D03*
X0393500Y0275500D03*
X0391500Y0270500D03*
X0390500Y0265500D03*
X0374500Y0261500D03*
X0362500Y0270500D03*
X0355500Y0263500D03*
X0371500Y0249500D03*
X0336500Y0253500D03*
X0370500Y0281500D03*
X0381500Y0284500D03*
X0361500Y0298500D03*
X0355500Y0299500D03*
X0362500Y0306500D03*
X0363500Y0311500D03*
X0367500Y0304500D03*
X0378500Y0313500D03*
X0387500Y0313500D03*
X0402500Y0318500D03*
X0412500Y0318500D03*
X0404500Y0336500D03*
X0416500Y0341500D03*
X0431500Y0341500D03*
X0440461Y0334012D03*
X0371500Y0320500D03*
X0370500Y0325500D03*
X0353000Y0335000D03*
X0340500Y0329500D03*
X0347500Y0319500D03*
X0339500Y0316500D03*
X0337500Y0303500D03*
X0312500Y0324500D03*
X0312500Y0330500D03*
X0318500Y0338500D03*
X0402500Y0229500D03*
X0430500Y0211500D03*
D16*
X0430500Y0244500D01*
X0440500Y0254500D01*
X0440500Y0256500D01*
X0439500Y0257500D01*
X0438500Y0257500D01*
X0442000Y0258980D02*
X0441721Y0259653D01*
X0440653Y0260721D01*
X0439256Y0261300D01*
X0437744Y0261300D01*
X0436347Y0260721D01*
X0435279Y0259653D01*
X0434700Y0258256D01*
X0434700Y0256744D01*
X0435279Y0255347D01*
X0436347Y0254279D01*
X0436627Y0254163D01*
X0429084Y0246619D01*
X0429084Y0246619D01*
X0428381Y0245916D01*
X0428000Y0244997D01*
X0428000Y0214374D01*
X0427279Y0213653D01*
X0426700Y0212256D01*
X0426700Y0210744D01*
X0427279Y0209347D01*
X0428347Y0208279D01*
X0429744Y0207700D01*
X0431256Y0207700D01*
X0432653Y0208279D01*
X0433721Y0209347D01*
X0434300Y0210744D01*
X0434300Y0212256D01*
X0433721Y0213653D01*
X0433000Y0214374D01*
X0433000Y0243464D01*
X0441916Y0252381D01*
X0442000Y0252464D01*
X0442000Y0247003D01*
X0442381Y0246084D01*
X0446102Y0242363D01*
X0445800Y0241634D01*
X0445800Y0239366D01*
X0446668Y0237271D01*
X0448271Y0235668D01*
X0450366Y0234800D01*
X0452634Y0234800D01*
X0454729Y0235668D01*
X0455500Y0236439D01*
X0455500Y0216261D01*
X0455429Y0216332D01*
X0453334Y0217200D01*
X0451066Y0217200D01*
X0448971Y0216332D01*
X0447368Y0214729D01*
X0446500Y0212634D01*
X0445632Y0214729D01*
X0444029Y0216332D01*
X0441934Y0217200D01*
X0439666Y0217200D01*
X0437571Y0216332D01*
X0435968Y0214729D01*
X0435100Y0212634D01*
X0435100Y0210366D01*
X0435968Y0208271D01*
X0436739Y0207500D01*
X0390793Y0207500D01*
X0395308Y0212767D01*
X0395569Y0213012D01*
X0395629Y0213142D01*
X0395722Y0213251D01*
X0395833Y0213591D01*
X0395981Y0213917D01*
X0395986Y0214060D01*
X0396031Y0214196D01*
X0396003Y0214553D01*
X0396965Y0242429D01*
X0397619Y0243084D01*
X0398000Y0244003D01*
X0398000Y0246626D01*
X0398721Y0247347D01*
X0399300Y0248744D01*
X0399300Y0250256D01*
X0398992Y0251000D01*
X0411997Y0251000D01*
X0412916Y0251381D01*
X0423236Y0261700D01*
X0424256Y0261700D01*
X0425653Y0262279D01*
X0426721Y0263347D01*
X0427000Y0264020D01*
X0427000Y0253536D01*
X0423464Y0250000D01*
X0414003Y0250000D01*
X0413084Y0249619D01*
X0412381Y0248916D01*
X0401084Y0237619D01*
X0401084Y0237619D01*
X0400381Y0236916D01*
X0400000Y0235997D01*
X0400000Y0232374D01*
X0399279Y0231653D01*
X0398700Y0230256D01*
X0398700Y0228744D01*
X0399279Y0227347D01*
X0400347Y0226279D01*
X0401744Y0225700D01*
X0403256Y0225700D01*
X0404653Y0226279D01*
X0405721Y0227347D01*
X0406300Y0228744D01*
X0406300Y0230256D01*
X0405721Y0231653D01*
X0405000Y0232374D01*
X0405000Y0234464D01*
X0415536Y0245000D01*
X0424997Y0245000D01*
X0425916Y0245381D01*
X0426619Y0246084D01*
X0431619Y0251084D01*
X0432000Y0252003D01*
X0432000Y0288020D01*
X0432279Y0287347D01*
X0433347Y0286279D01*
X0434744Y0285700D01*
X0436256Y0285700D01*
X0437653Y0286279D01*
X0438374Y0287000D01*
X0441064Y0287000D01*
X0441122Y0286979D01*
X0441559Y0287000D01*
X0441997Y0287000D01*
X0442054Y0287024D01*
X0442116Y0287026D01*
X0442512Y0287213D01*
X0442916Y0287381D01*
X0442960Y0287424D01*
X0443015Y0287450D01*
X0443310Y0287774D01*
X0443619Y0288084D01*
X0443643Y0288141D01*
X0445800Y0290514D01*
X0445800Y0289366D01*
X0446668Y0287271D01*
X0448271Y0285668D01*
X0448676Y0285500D01*
X0448271Y0285332D01*
X0446668Y0283729D01*
X0445800Y0281634D01*
X0445800Y0279366D01*
X0446668Y0277271D01*
X0448271Y0275668D01*
X0448676Y0275500D01*
X0448271Y0275332D01*
X0446668Y0273729D01*
X0445800Y0271634D01*
X0445800Y0269366D01*
X0446668Y0267271D01*
X0448271Y0265668D01*
X0448676Y0265500D01*
X0448271Y0265332D01*
X0446688Y0263749D01*
X0446619Y0263916D01*
X0445916Y0264619D01*
X0442916Y0267619D01*
X0442640Y0267734D01*
X0441653Y0268721D01*
X0440256Y0269300D01*
X0438744Y0269300D01*
X0437347Y0268721D01*
X0436279Y0267653D01*
X0435700Y0266256D01*
X0435700Y0264744D01*
X0436279Y0263347D01*
X0437347Y0262279D01*
X0438744Y0261700D01*
X0440256Y0261700D01*
X0441323Y0262142D01*
X0442000Y0261464D01*
X0442000Y0258980D01*
X0442000Y0259420D02*
X0441818Y0259420D01*
X0442000Y0260418D02*
X0440956Y0260418D01*
X0442000Y0261417D02*
X0432000Y0261417D01*
X0432000Y0262415D02*
X0437211Y0262415D01*
X0436251Y0263414D02*
X0432000Y0263414D01*
X0432000Y0264412D02*
X0435837Y0264412D01*
X0435700Y0265411D02*
X0432000Y0265411D01*
X0432000Y0266409D02*
X0435764Y0266409D01*
X0436177Y0267408D02*
X0432000Y0267408D01*
X0432000Y0268406D02*
X0437032Y0268406D01*
X0439500Y0265500D02*
X0441500Y0265500D01*
X0444500Y0262500D01*
X0444500Y0247500D01*
X0451500Y0240500D01*
X0447485Y0236454D02*
X0433000Y0236454D01*
X0433000Y0237452D02*
X0446593Y0237452D01*
X0446179Y0238451D02*
X0433000Y0238451D01*
X0433000Y0239449D02*
X0445800Y0239449D01*
X0445800Y0240448D02*
X0433000Y0240448D01*
X0433000Y0241446D02*
X0445800Y0241446D01*
X0446020Y0242445D02*
X0433000Y0242445D01*
X0433000Y0243443D02*
X0445021Y0243443D01*
X0444023Y0244442D02*
X0433977Y0244442D01*
X0434976Y0245440D02*
X0443024Y0245440D01*
X0442234Y0246439D02*
X0435974Y0246439D01*
X0436973Y0247437D02*
X0442000Y0247437D01*
X0442000Y0248436D02*
X0437972Y0248436D01*
X0438970Y0249434D02*
X0442000Y0249434D01*
X0442000Y0250433D02*
X0439969Y0250433D01*
X0440967Y0251432D02*
X0442000Y0251432D01*
X0441916Y0252381D02*
X0441916Y0252381D01*
X0441966Y0252430D02*
X0442000Y0252430D01*
X0436199Y0254427D02*
X0432000Y0254427D01*
X0432000Y0253429D02*
X0435893Y0253429D01*
X0434895Y0252430D02*
X0432000Y0252430D01*
X0431763Y0251432D02*
X0433896Y0251432D01*
X0432897Y0250433D02*
X0430969Y0250433D01*
X0431899Y0249434D02*
X0429970Y0249434D01*
X0430900Y0248436D02*
X0428972Y0248436D01*
X0429902Y0247437D02*
X0427973Y0247437D01*
X0428903Y0246439D02*
X0426974Y0246439D01*
X0425976Y0245440D02*
X0428184Y0245440D01*
X0428000Y0244442D02*
X0414977Y0244442D01*
X0413979Y0243443D02*
X0428000Y0243443D01*
X0428000Y0242445D02*
X0412980Y0242445D01*
X0411982Y0241446D02*
X0428000Y0241446D01*
X0428000Y0240448D02*
X0410983Y0240448D01*
X0409985Y0239449D02*
X0428000Y0239449D01*
X0428000Y0238451D02*
X0408986Y0238451D01*
X0407988Y0237452D02*
X0428000Y0237452D01*
X0428000Y0236454D02*
X0406989Y0236454D01*
X0405991Y0235455D02*
X0428000Y0235455D01*
X0428000Y0234457D02*
X0405000Y0234457D01*
X0405000Y0233458D02*
X0428000Y0233458D01*
X0428000Y0232460D02*
X0405000Y0232460D01*
X0405801Y0231461D02*
X0428000Y0231461D01*
X0428000Y0230463D02*
X0406214Y0230463D01*
X0406300Y0229464D02*
X0428000Y0229464D01*
X0428000Y0228466D02*
X0406185Y0228466D01*
X0405771Y0227467D02*
X0428000Y0227467D01*
X0428000Y0226469D02*
X0404843Y0226469D01*
X0402500Y0229500D02*
X0402500Y0235500D01*
X0414500Y0247500D01*
X0424500Y0247500D01*
X0429500Y0252500D01*
X0429500Y0295500D01*
X0437500Y0303500D01*
X0437500Y0314059D01*
X0437059Y0314500D01*
X0440437Y0314338D02*
X0447277Y0314338D01*
X0446668Y0313729D02*
X0445800Y0311634D01*
X0445800Y0309366D01*
X0446668Y0307271D01*
X0448271Y0305668D01*
X0448676Y0305500D01*
X0448271Y0305332D01*
X0446668Y0303729D01*
X0445800Y0301634D01*
X0445800Y0299366D01*
X0446204Y0298391D01*
X0440394Y0292000D01*
X0438374Y0292000D01*
X0437653Y0292721D01*
X0436256Y0293300D01*
X0434744Y0293300D01*
X0433347Y0292721D01*
X0432279Y0291653D01*
X0432000Y0290980D01*
X0432000Y0294464D01*
X0438916Y0301381D01*
X0439619Y0302084D01*
X0440000Y0303003D01*
X0440000Y0311463D01*
X0440437Y0311900D01*
X0440437Y0317100D01*
X0439968Y0317569D01*
X0440047Y0317590D01*
X0440390Y0317788D01*
X0440669Y0318067D01*
X0440866Y0318409D01*
X0440968Y0318791D01*
X0440968Y0320669D01*
X0437984Y0320669D01*
X0437984Y0321638D01*
X0440968Y0321638D01*
X0440968Y0323516D01*
X0440866Y0323898D01*
X0440737Y0324121D01*
X0441468Y0324853D01*
X0441468Y0328279D01*
X0441877Y0328688D01*
X0442580Y0329391D01*
X0442961Y0330310D01*
X0442961Y0331138D01*
X0443682Y0331859D01*
X0444261Y0333256D01*
X0444261Y0334768D01*
X0443682Y0336164D01*
X0442613Y0337233D01*
X0441216Y0337812D01*
X0439705Y0337812D01*
X0438308Y0337233D01*
X0437587Y0336512D01*
X0434024Y0336512D01*
X0432666Y0337870D01*
X0433653Y0338279D01*
X0434721Y0339347D01*
X0435300Y0340744D01*
X0435300Y0342256D01*
X0434721Y0343653D01*
X0433653Y0344721D01*
X0432256Y0345300D01*
X0431236Y0345300D01*
X0425916Y0350619D01*
X0424997Y0351000D01*
X0413003Y0351000D01*
X0412084Y0350619D01*
X0411381Y0349916D01*
X0408464Y0347000D01*
X0375003Y0347000D01*
X0374084Y0346619D01*
X0370084Y0342619D01*
X0369381Y0341916D01*
X0369000Y0340997D01*
X0369000Y0328992D01*
X0368347Y0328721D01*
X0368000Y0328374D01*
X0368000Y0338997D01*
X0367619Y0339916D01*
X0366916Y0340619D01*
X0354619Y0352916D01*
X0354036Y0353500D01*
X0436739Y0353500D01*
X0435968Y0352729D01*
X0435100Y0350634D01*
X0435100Y0348366D01*
X0435968Y0346271D01*
X0437571Y0344668D01*
X0439666Y0343800D01*
X0441934Y0343800D01*
X0444029Y0344668D01*
X0445632Y0346271D01*
X0446500Y0348366D01*
X0447368Y0346271D01*
X0448971Y0344668D01*
X0451066Y0343800D01*
X0453334Y0343800D01*
X0455429Y0344668D01*
X0455500Y0344739D01*
X0455500Y0324561D01*
X0454729Y0325332D01*
X0452634Y0326200D01*
X0450366Y0326200D01*
X0448271Y0325332D01*
X0446668Y0323729D01*
X0445800Y0321634D01*
X0445800Y0319366D01*
X0446668Y0317271D01*
X0448271Y0315668D01*
X0448676Y0315500D01*
X0448271Y0315332D01*
X0446668Y0313729D01*
X0446506Y0313339D02*
X0440437Y0313339D01*
X0440437Y0312341D02*
X0446093Y0312341D01*
X0445800Y0311342D02*
X0440000Y0311342D01*
X0440000Y0310344D02*
X0445800Y0310344D01*
X0445809Y0309345D02*
X0440000Y0309345D01*
X0440000Y0308347D02*
X0446222Y0308347D01*
X0446636Y0307348D02*
X0440000Y0307348D01*
X0440000Y0306350D02*
X0447589Y0306350D01*
X0448317Y0305351D02*
X0440000Y0305351D01*
X0440000Y0304353D02*
X0447292Y0304353D01*
X0446513Y0303354D02*
X0440000Y0303354D01*
X0439732Y0302356D02*
X0446099Y0302356D01*
X0445800Y0301357D02*
X0438893Y0301357D01*
X0437894Y0300359D02*
X0445800Y0300359D01*
X0445803Y0299360D02*
X0436896Y0299360D01*
X0435897Y0298362D02*
X0446177Y0298362D01*
X0445270Y0297363D02*
X0434899Y0297363D01*
X0433900Y0296365D02*
X0444362Y0296365D01*
X0443454Y0295366D02*
X0432902Y0295366D01*
X0432000Y0294368D02*
X0442546Y0294368D01*
X0441639Y0293369D02*
X0432000Y0293369D01*
X0432000Y0292370D02*
X0432996Y0292370D01*
X0432162Y0291372D02*
X0432000Y0291372D01*
X0435500Y0289500D02*
X0441500Y0289500D01*
X0451500Y0300500D01*
X0440731Y0292370D02*
X0438004Y0292370D01*
X0437753Y0286379D02*
X0447560Y0286379D01*
X0448389Y0285381D02*
X0432000Y0285381D01*
X0432000Y0286379D02*
X0433247Y0286379D01*
X0432266Y0287378D02*
X0432000Y0287378D01*
X0432000Y0284382D02*
X0447321Y0284382D01*
X0446525Y0283384D02*
X0432000Y0283384D01*
X0432000Y0282385D02*
X0446111Y0282385D01*
X0445800Y0281387D02*
X0432000Y0281387D01*
X0432000Y0280388D02*
X0445800Y0280388D01*
X0445800Y0279390D02*
X0432000Y0279390D01*
X0432000Y0278391D02*
X0446204Y0278391D01*
X0446617Y0277393D02*
X0432000Y0277393D01*
X0432000Y0276394D02*
X0447545Y0276394D01*
X0448425Y0275396D02*
X0432000Y0275396D01*
X0432000Y0274397D02*
X0447336Y0274397D01*
X0446531Y0273399D02*
X0432000Y0273399D01*
X0432000Y0272400D02*
X0446117Y0272400D01*
X0445800Y0271402D02*
X0432000Y0271402D01*
X0432000Y0270403D02*
X0445800Y0270403D01*
X0445800Y0269405D02*
X0432000Y0269405D01*
X0427000Y0269405D02*
X0424159Y0269405D01*
X0424116Y0269300D02*
X0424300Y0269744D01*
X0424300Y0271256D01*
X0423721Y0272653D01*
X0422653Y0273721D01*
X0421990Y0273996D01*
X0422300Y0274744D01*
X0422300Y0276256D01*
X0421721Y0277653D01*
X0420653Y0278721D01*
X0419256Y0279300D01*
X0417744Y0279300D01*
X0416347Y0278721D01*
X0416000Y0278374D01*
X0416000Y0278997D01*
X0415619Y0279916D01*
X0415373Y0280163D01*
X0415653Y0280279D01*
X0416721Y0281347D01*
X0417300Y0282744D01*
X0417300Y0284256D01*
X0416721Y0285653D01*
X0416000Y0286374D01*
X0416000Y0295008D01*
X0416653Y0295279D01*
X0417721Y0296347D01*
X0418300Y0297744D01*
X0418300Y0299256D01*
X0417721Y0300653D01*
X0416653Y0301721D01*
X0415256Y0302300D01*
X0413744Y0302300D01*
X0412347Y0301721D01*
X0412000Y0301374D01*
X0412000Y0301464D01*
X0418536Y0308000D01*
X0422464Y0308000D01*
X0423627Y0306837D01*
X0423347Y0306721D01*
X0422279Y0305653D01*
X0421700Y0304256D01*
X0421700Y0302744D01*
X0422279Y0301347D01*
X0423347Y0300279D01*
X0424000Y0300008D01*
X0424000Y0288536D01*
X0422764Y0287300D01*
X0421744Y0287300D01*
X0420347Y0286721D01*
X0419279Y0285653D01*
X0418700Y0284256D01*
X0418700Y0282744D01*
X0419279Y0281347D01*
X0420347Y0280279D01*
X0421744Y0279700D01*
X0423256Y0279700D01*
X0424653Y0280279D01*
X0425721Y0281347D01*
X0426300Y0282744D01*
X0426300Y0283764D01*
X0427000Y0284464D01*
X0427000Y0266980D01*
X0426721Y0267653D01*
X0425653Y0268721D01*
X0424256Y0269300D01*
X0424116Y0269300D01*
X0424300Y0270403D02*
X0427000Y0270403D01*
X0427000Y0271402D02*
X0424240Y0271402D01*
X0423826Y0272400D02*
X0427000Y0272400D01*
X0427000Y0273399D02*
X0422975Y0273399D01*
X0422156Y0274397D02*
X0427000Y0274397D01*
X0427500Y0274500D02*
X0427500Y0254500D01*
X0425500Y0252500D01*
X0422500Y0252500D01*
X0421500Y0252500D01*
X0420500Y0251500D01*
X0402500Y0251500D01*
X0400500Y0249500D01*
X0399300Y0249434D02*
X0412899Y0249434D01*
X0412381Y0248916D02*
X0412381Y0248916D01*
X0411900Y0248436D02*
X0399172Y0248436D01*
X0398759Y0247437D02*
X0410902Y0247437D01*
X0409903Y0246439D02*
X0398000Y0246439D01*
X0398000Y0245440D02*
X0408905Y0245440D01*
X0407906Y0244442D02*
X0398000Y0244442D01*
X0397768Y0243443D02*
X0406908Y0243443D01*
X0405909Y0242445D02*
X0396980Y0242445D01*
X0396931Y0241446D02*
X0404911Y0241446D01*
X0403912Y0240448D02*
X0396896Y0240448D01*
X0396862Y0239449D02*
X0402914Y0239449D01*
X0401915Y0238451D02*
X0396827Y0238451D01*
X0396793Y0237452D02*
X0400917Y0237452D01*
X0400189Y0236454D02*
X0396758Y0236454D01*
X0396724Y0235455D02*
X0400000Y0235455D01*
X0400000Y0234457D02*
X0396690Y0234457D01*
X0396655Y0233458D02*
X0400000Y0233458D01*
X0400000Y0232460D02*
X0396621Y0232460D01*
X0396586Y0231461D02*
X0399199Y0231461D01*
X0398786Y0230463D02*
X0396552Y0230463D01*
X0396517Y0229464D02*
X0398700Y0229464D01*
X0398815Y0228466D02*
X0396483Y0228466D01*
X0396449Y0227467D02*
X0399229Y0227467D01*
X0400157Y0226469D02*
X0396414Y0226469D01*
X0396380Y0225470D02*
X0428000Y0225470D01*
X0428000Y0224472D02*
X0396345Y0224472D01*
X0396311Y0223473D02*
X0428000Y0223473D01*
X0428000Y0222475D02*
X0396276Y0222475D01*
X0396242Y0221476D02*
X0428000Y0221476D01*
X0428000Y0220478D02*
X0396208Y0220478D01*
X0396173Y0219479D02*
X0428000Y0219479D01*
X0428000Y0218481D02*
X0396139Y0218481D01*
X0396104Y0217482D02*
X0428000Y0217482D01*
X0428000Y0216484D02*
X0396070Y0216484D01*
X0396035Y0215485D02*
X0428000Y0215485D01*
X0428000Y0214487D02*
X0396008Y0214487D01*
X0395799Y0213488D02*
X0427210Y0213488D01*
X0426797Y0212490D02*
X0395069Y0212490D01*
X0394214Y0211491D02*
X0426700Y0211491D01*
X0426804Y0210493D02*
X0393358Y0210493D01*
X0392502Y0209494D02*
X0427218Y0209494D01*
X0428130Y0208496D02*
X0391646Y0208496D01*
X0387500Y0207500D02*
X0393500Y0214500D01*
X0394500Y0243500D01*
X0395500Y0244500D01*
X0395500Y0249500D01*
X0399227Y0250433D02*
X0423897Y0250433D01*
X0424896Y0251432D02*
X0412967Y0251432D01*
X0413966Y0252430D02*
X0425895Y0252430D01*
X0426893Y0253429D02*
X0414964Y0253429D01*
X0415963Y0254427D02*
X0427000Y0254427D01*
X0427000Y0255426D02*
X0416961Y0255426D01*
X0417960Y0256424D02*
X0427000Y0256424D01*
X0427000Y0257423D02*
X0418958Y0257423D01*
X0419957Y0258421D02*
X0427000Y0258421D01*
X0427000Y0259420D02*
X0420955Y0259420D01*
X0421954Y0260418D02*
X0427000Y0260418D01*
X0427000Y0261417D02*
X0422952Y0261417D01*
X0425789Y0262415D02*
X0427000Y0262415D01*
X0427000Y0263414D02*
X0426749Y0263414D01*
X0423500Y0265500D02*
X0411500Y0253500D01*
X0393500Y0253500D01*
X0391500Y0251500D01*
X0391500Y0215500D01*
X0386500Y0209500D01*
X0336500Y0209500D01*
X0325500Y0220500D01*
X0313500Y0220500D01*
X0311500Y0222500D01*
X0311500Y0237500D01*
X0312500Y0238500D01*
X0317500Y0238500D01*
X0320500Y0241500D01*
X0320500Y0249500D01*
X0314500Y0255500D01*
X0313500Y0255500D01*
X0319500Y0253500D02*
X0322500Y0250500D01*
X0322500Y0240500D01*
X0318500Y0236500D01*
X0314500Y0236500D01*
X0313500Y0235500D01*
X0313500Y0223500D01*
X0314500Y0222500D01*
X0326500Y0222500D01*
X0337500Y0211500D01*
X0385500Y0211500D01*
X0389500Y0216500D01*
X0389500Y0252500D01*
X0392500Y0255500D01*
X0410500Y0255500D01*
X0419500Y0264500D01*
X0420500Y0270500D01*
X0416500Y0273500D02*
X0416500Y0264500D01*
X0409500Y0257500D01*
X0391500Y0257500D01*
X0387500Y0253500D01*
X0387500Y0217500D01*
X0384500Y0213500D01*
X0338500Y0213500D01*
X0327500Y0224500D01*
X0316500Y0224500D01*
X0315500Y0225500D01*
X0315500Y0233500D01*
X0316500Y0234500D01*
X0319500Y0234500D01*
X0324500Y0239500D01*
X0324500Y0251500D01*
X0321500Y0254500D01*
X0321500Y0307500D01*
X0313500Y0315500D01*
X0319200Y0315336D02*
X0335869Y0315336D01*
X0335700Y0315744D02*
X0336279Y0314347D01*
X0337347Y0313279D01*
X0338744Y0312700D01*
X0339164Y0312700D01*
X0335381Y0308916D01*
X0335000Y0307997D01*
X0335000Y0306374D01*
X0334279Y0305653D01*
X0333700Y0304256D01*
X0333700Y0302744D01*
X0334008Y0302000D01*
X0332003Y0302000D01*
X0331084Y0301619D01*
X0330381Y0300916D01*
X0327084Y0297619D01*
X0327084Y0297619D01*
X0326381Y0296916D01*
X0326000Y0295997D01*
X0326000Y0290012D01*
X0325703Y0290012D01*
X0324531Y0288840D01*
X0324531Y0282853D01*
X0325263Y0282121D01*
X0325134Y0281898D01*
X0325031Y0281516D01*
X0325031Y0279638D01*
X0328016Y0279638D01*
X0328016Y0278669D01*
X0328984Y0278669D01*
X0328984Y0275488D01*
X0330666Y0275488D01*
X0331047Y0275590D01*
X0331390Y0275788D01*
X0331669Y0276067D01*
X0331866Y0276409D01*
X0331968Y0276791D01*
X0331968Y0278669D01*
X0328984Y0278669D01*
X0328984Y0279638D01*
X0331968Y0279638D01*
X0331968Y0281516D01*
X0331866Y0281898D01*
X0331737Y0282121D01*
X0332468Y0282853D01*
X0332468Y0288840D01*
X0331297Y0290012D01*
X0331000Y0290012D01*
X0331000Y0294464D01*
X0333536Y0297000D01*
X0344997Y0297000D01*
X0345000Y0297001D01*
X0345000Y0295012D01*
X0341703Y0295012D01*
X0340531Y0293840D01*
X0340531Y0287853D01*
X0341263Y0287121D01*
X0341134Y0286898D01*
X0341031Y0286516D01*
X0341031Y0284638D01*
X0344016Y0284638D01*
X0344016Y0283669D01*
X0344984Y0283669D01*
X0344984Y0280488D01*
X0346666Y0280488D01*
X0347047Y0280590D01*
X0347390Y0280788D01*
X0347669Y0281067D01*
X0347866Y0281409D01*
X0347968Y0281791D01*
X0347968Y0283669D01*
X0344984Y0283669D01*
X0344984Y0284638D01*
X0347968Y0284638D01*
X0347968Y0286516D01*
X0347866Y0286898D01*
X0347737Y0287121D01*
X0348468Y0287853D01*
X0348468Y0291279D01*
X0348916Y0291727D01*
X0348916Y0291727D01*
X0349619Y0292430D01*
X0350000Y0293349D01*
X0350000Y0298464D01*
X0352536Y0301000D01*
X0355464Y0301000D01*
X0357700Y0298764D01*
X0357700Y0297744D01*
X0358279Y0296347D01*
X0359000Y0295626D01*
X0359000Y0290012D01*
X0358703Y0290012D01*
X0357531Y0288840D01*
X0357531Y0282853D01*
X0358263Y0282121D01*
X0358134Y0281898D01*
X0358031Y0281516D01*
X0358031Y0279638D01*
X0361016Y0279638D01*
X0361016Y0278669D01*
X0361984Y0278669D01*
X0361984Y0275488D01*
X0363666Y0275488D01*
X0364047Y0275590D01*
X0364390Y0275788D01*
X0364669Y0276067D01*
X0364866Y0276409D01*
X0364968Y0276791D01*
X0364968Y0278669D01*
X0361984Y0278669D01*
X0361984Y0279638D01*
X0364968Y0279638D01*
X0364968Y0281516D01*
X0364866Y0281898D01*
X0364737Y0282121D01*
X0365468Y0282853D01*
X0365468Y0288840D01*
X0364297Y0290012D01*
X0364000Y0290012D01*
X0364000Y0295626D01*
X0364721Y0296347D01*
X0364837Y0296627D01*
X0366381Y0295084D01*
X0367084Y0294381D01*
X0368003Y0294000D01*
X0374464Y0294000D01*
X0385000Y0283464D01*
X0385000Y0268003D01*
X0385381Y0267084D01*
X0386700Y0265764D01*
X0386700Y0264744D01*
X0387279Y0263347D01*
X0387626Y0263000D01*
X0384536Y0263000D01*
X0373000Y0274536D01*
X0373000Y0278626D01*
X0373721Y0279347D01*
X0374300Y0280744D01*
X0374300Y0282256D01*
X0373721Y0283653D01*
X0372653Y0284721D01*
X0371256Y0285300D01*
X0369744Y0285300D01*
X0368347Y0284721D01*
X0367279Y0283653D01*
X0366700Y0282256D01*
X0366700Y0280744D01*
X0367279Y0279347D01*
X0368000Y0278626D01*
X0368000Y0273003D01*
X0368381Y0272084D01*
X0375164Y0265300D01*
X0373744Y0265300D01*
X0372347Y0264721D01*
X0372081Y0264455D01*
X0366300Y0270236D01*
X0366300Y0271256D01*
X0365721Y0272653D01*
X0364653Y0273721D01*
X0363256Y0274300D01*
X0361744Y0274300D01*
X0360347Y0273721D01*
X0359279Y0272653D01*
X0358700Y0271256D01*
X0358700Y0269744D01*
X0359279Y0268347D01*
X0360347Y0267279D01*
X0361744Y0266700D01*
X0362764Y0266700D01*
X0369381Y0260084D01*
X0370084Y0259381D01*
X0371003Y0259000D01*
X0371626Y0259000D01*
X0372347Y0258279D01*
X0373744Y0257700D01*
X0375256Y0257700D01*
X0376653Y0258279D01*
X0377721Y0259347D01*
X0378300Y0260744D01*
X0378300Y0262164D01*
X0381381Y0259084D01*
X0382084Y0258381D01*
X0383003Y0258000D01*
X0388464Y0258000D01*
X0386084Y0255619D01*
X0385381Y0254916D01*
X0385000Y0253997D01*
X0385000Y0245992D01*
X0384256Y0246300D01*
X0382744Y0246300D01*
X0381677Y0245858D01*
X0380500Y0247036D01*
X0380500Y0250497D01*
X0380119Y0251416D01*
X0375916Y0255619D01*
X0374997Y0256000D01*
X0359503Y0256000D01*
X0358584Y0255619D01*
X0357881Y0254916D01*
X0349976Y0247012D01*
X0344703Y0247012D01*
X0343531Y0245840D01*
X0343531Y0239853D01*
X0343884Y0239500D01*
X0343531Y0239147D01*
X0343531Y0237488D01*
X0337468Y0237488D01*
X0337468Y0239147D01*
X0337116Y0239500D01*
X0337468Y0239853D01*
X0337468Y0243971D01*
X0338393Y0245204D01*
X0338619Y0245430D01*
X0338689Y0245599D01*
X0338798Y0245744D01*
X0338878Y0246054D01*
X0339000Y0246349D01*
X0339000Y0246531D01*
X0339045Y0246708D01*
X0339000Y0247024D01*
X0339000Y0250626D01*
X0339721Y0251347D01*
X0340300Y0252744D01*
X0340300Y0254256D01*
X0339721Y0255653D01*
X0338653Y0256721D01*
X0337256Y0257300D01*
X0335744Y0257300D01*
X0334347Y0256721D01*
X0333279Y0255653D01*
X0332700Y0254256D01*
X0332700Y0252744D01*
X0333279Y0251347D01*
X0334000Y0250626D01*
X0334000Y0247680D01*
X0333499Y0247012D01*
X0330703Y0247012D01*
X0329531Y0245840D01*
X0329531Y0239853D01*
X0329884Y0239500D01*
X0329531Y0239147D01*
X0329531Y0233160D01*
X0330703Y0231988D01*
X0336297Y0231988D01*
X0336797Y0232488D01*
X0344203Y0232488D01*
X0344703Y0231988D01*
X0350297Y0231988D01*
X0351468Y0233160D01*
X0351468Y0233654D01*
X0357531Y0233654D01*
X0357531Y0233160D01*
X0358703Y0231988D01*
X0362000Y0231988D01*
X0362000Y0229003D01*
X0362381Y0228084D01*
X0363700Y0226764D01*
X0363700Y0225744D01*
X0364279Y0224347D01*
X0364626Y0224000D01*
X0361003Y0224000D01*
X0360084Y0223619D01*
X0357764Y0221300D01*
X0356744Y0221300D01*
X0355347Y0220721D01*
X0354279Y0219653D01*
X0353700Y0218256D01*
X0353700Y0216744D01*
X0354008Y0216000D01*
X0339536Y0216000D01*
X0328916Y0226619D01*
X0327997Y0227000D01*
X0318000Y0227000D01*
X0318000Y0232000D01*
X0319997Y0232000D01*
X0320916Y0232381D01*
X0321619Y0233084D01*
X0326619Y0238084D01*
X0327000Y0239003D01*
X0327000Y0251997D01*
X0326619Y0252916D01*
X0325916Y0253619D01*
X0324000Y0255536D01*
X0324000Y0307997D01*
X0323619Y0308916D01*
X0322916Y0309619D01*
X0318898Y0313637D01*
X0319200Y0314366D01*
X0319200Y0316634D01*
X0318332Y0318729D01*
X0316729Y0320332D01*
X0314634Y0321200D01*
X0314463Y0321200D01*
X0314653Y0321279D01*
X0315721Y0322347D01*
X0316130Y0323334D01*
X0318084Y0321381D01*
X0319003Y0321000D01*
X0330561Y0321000D01*
X0335700Y0316503D01*
X0335700Y0315744D01*
X0335700Y0316335D02*
X0319200Y0316335D01*
X0318910Y0317333D02*
X0334751Y0317333D01*
X0333610Y0318332D02*
X0318497Y0318332D01*
X0317731Y0319330D02*
X0332469Y0319330D01*
X0331328Y0320329D02*
X0316732Y0320329D01*
X0318213Y0321327D02*
X0314701Y0321327D01*
X0315700Y0322326D02*
X0317139Y0322326D01*
X0316140Y0323324D02*
X0316126Y0323324D01*
X0319500Y0323500D02*
X0312500Y0330500D01*
X0308500Y0328500D02*
X0308500Y0333500D01*
X0309500Y0334500D01*
X0324500Y0334500D01*
X0339500Y0349500D01*
X0351500Y0349500D01*
X0363500Y0337500D01*
X0363500Y0318500D01*
X0385500Y0296500D01*
X0394500Y0296500D01*
X0391626Y0294000D02*
X0392347Y0293279D01*
X0393744Y0292700D01*
X0395256Y0292700D01*
X0396653Y0293279D01*
X0397721Y0294347D01*
X0397885Y0294741D01*
X0398347Y0294279D01*
X0399744Y0293700D01*
X0401256Y0293700D01*
X0402653Y0294279D01*
X0403721Y0295347D01*
X0404300Y0296744D01*
X0404300Y0298256D01*
X0403721Y0299653D01*
X0402653Y0300721D01*
X0401256Y0301300D01*
X0400236Y0301300D01*
X0399619Y0301916D01*
X0398916Y0302619D01*
X0397997Y0303000D01*
X0385536Y0303000D01*
X0378836Y0309700D01*
X0379256Y0309700D01*
X0380653Y0310279D01*
X0381374Y0311000D01*
X0384626Y0311000D01*
X0385347Y0310279D01*
X0386744Y0309700D01*
X0388256Y0309700D01*
X0389653Y0310279D01*
X0390721Y0311347D01*
X0391300Y0312744D01*
X0391300Y0314256D01*
X0390721Y0315653D01*
X0389653Y0316721D01*
X0388256Y0317300D01*
X0386744Y0317300D01*
X0385347Y0316721D01*
X0384626Y0316000D01*
X0381374Y0316000D01*
X0380653Y0316721D01*
X0379256Y0317300D01*
X0377744Y0317300D01*
X0376347Y0316721D01*
X0375279Y0315653D01*
X0374700Y0314256D01*
X0374700Y0313836D01*
X0371836Y0316700D01*
X0372256Y0316700D01*
X0373653Y0317279D01*
X0374721Y0318347D01*
X0375300Y0319744D01*
X0375300Y0320764D01*
X0379619Y0325084D01*
X0380000Y0326003D01*
X0380000Y0332000D01*
X0393997Y0332000D01*
X0394916Y0332381D01*
X0401536Y0339000D01*
X0409997Y0339000D01*
X0410916Y0339381D01*
X0412700Y0341164D01*
X0412700Y0340744D01*
X0413279Y0339347D01*
X0414347Y0338279D01*
X0415744Y0337700D01*
X0416764Y0337700D01*
X0417496Y0336968D01*
X0415638Y0336968D01*
X0415638Y0333984D01*
X0414669Y0333984D01*
X0414669Y0333016D01*
X0411488Y0333016D01*
X0411488Y0331334D01*
X0411590Y0330953D01*
X0411788Y0330610D01*
X0412067Y0330331D01*
X0412409Y0330134D01*
X0412791Y0330031D01*
X0414669Y0330031D01*
X0414669Y0333016D01*
X0415638Y0333016D01*
X0415638Y0330031D01*
X0417516Y0330031D01*
X0417898Y0330134D01*
X0418121Y0330263D01*
X0418853Y0329531D01*
X0424840Y0329531D01*
X0426012Y0330703D01*
X0426012Y0336297D01*
X0424840Y0337468D01*
X0424008Y0337468D01*
X0423966Y0337570D01*
X0423263Y0338273D01*
X0420300Y0341236D01*
X0420300Y0342256D01*
X0419721Y0343653D01*
X0419374Y0344000D01*
X0419464Y0344000D01*
X0430869Y0332596D01*
X0431572Y0331892D01*
X0432491Y0331512D01*
X0434203Y0331512D01*
X0433531Y0330840D01*
X0433531Y0324853D01*
X0434263Y0324121D01*
X0434134Y0323898D01*
X0434031Y0323516D01*
X0434031Y0321638D01*
X0437016Y0321638D01*
X0437016Y0320669D01*
X0434031Y0320669D01*
X0434031Y0318791D01*
X0434134Y0318409D01*
X0434331Y0318067D01*
X0434490Y0317909D01*
X0434121Y0317540D01*
X0433898Y0317669D01*
X0433516Y0317772D01*
X0432130Y0317772D01*
X0432130Y0314689D01*
X0431752Y0314689D01*
X0431752Y0317772D01*
X0430366Y0317772D01*
X0429984Y0317669D01*
X0429642Y0317472D01*
X0429363Y0317193D01*
X0429165Y0316851D01*
X0429063Y0316469D01*
X0429063Y0314689D01*
X0431752Y0314689D01*
X0431752Y0314311D01*
X0429063Y0314311D01*
X0429063Y0313018D01*
X0428347Y0312721D01*
X0428081Y0312455D01*
X0425916Y0314619D01*
X0424997Y0315000D01*
X0416003Y0315000D01*
X0415084Y0314619D01*
X0405381Y0304916D01*
X0405000Y0303997D01*
X0405000Y0281003D01*
X0405381Y0280084D01*
X0406084Y0279381D01*
X0409000Y0276464D01*
X0409000Y0274536D01*
X0407764Y0273300D01*
X0406744Y0273300D01*
X0405347Y0272721D01*
X0404279Y0271653D01*
X0403700Y0270256D01*
X0403700Y0268744D01*
X0404279Y0267347D01*
X0405347Y0266279D01*
X0406744Y0265700D01*
X0408256Y0265700D01*
X0408700Y0265884D01*
X0408700Y0265744D01*
X0409279Y0264347D01*
X0410347Y0263279D01*
X0411334Y0262870D01*
X0408464Y0260000D01*
X0407374Y0260000D01*
X0407721Y0260347D01*
X0408300Y0261744D01*
X0408300Y0263256D01*
X0407721Y0264653D01*
X0406653Y0265721D01*
X0405256Y0266300D01*
X0403744Y0266300D01*
X0402347Y0265721D01*
X0401279Y0264653D01*
X0400700Y0263256D01*
X0400700Y0263000D01*
X0393374Y0263000D01*
X0393721Y0263347D01*
X0394300Y0264744D01*
X0394300Y0266256D01*
X0393811Y0267437D01*
X0394721Y0268347D01*
X0395300Y0269744D01*
X0395300Y0271256D01*
X0394721Y0272653D01*
X0393653Y0273721D01*
X0392256Y0274300D01*
X0392000Y0274300D01*
X0392000Y0276464D01*
X0393236Y0277700D01*
X0394256Y0277700D01*
X0395653Y0278279D01*
X0396721Y0279347D01*
X0397300Y0280744D01*
X0397300Y0282256D01*
X0396721Y0283653D01*
X0395653Y0284721D01*
X0394256Y0285300D01*
X0393236Y0285300D01*
X0384205Y0294330D01*
X0385003Y0294000D01*
X0391626Y0294000D01*
X0392257Y0293369D02*
X0385167Y0293369D01*
X0386165Y0292370D02*
X0405000Y0292370D01*
X0405000Y0291372D02*
X0387164Y0291372D01*
X0388162Y0290373D02*
X0405000Y0290373D01*
X0405000Y0289375D02*
X0389161Y0289375D01*
X0390159Y0288376D02*
X0405000Y0288376D01*
X0405000Y0287378D02*
X0391158Y0287378D01*
X0392156Y0286379D02*
X0405000Y0286379D01*
X0405000Y0285381D02*
X0393155Y0285381D01*
X0395992Y0284382D02*
X0405000Y0284382D01*
X0405000Y0283384D02*
X0396833Y0283384D01*
X0397246Y0282385D02*
X0405000Y0282385D01*
X0405000Y0281387D02*
X0397300Y0281387D01*
X0397153Y0280388D02*
X0405254Y0280388D01*
X0406075Y0279390D02*
X0396739Y0279390D01*
X0395765Y0278391D02*
X0407073Y0278391D01*
X0406084Y0279381D02*
X0406084Y0279381D01*
X0407500Y0281500D02*
X0411500Y0277500D01*
X0411500Y0273500D01*
X0407500Y0269500D01*
X0403700Y0269405D02*
X0395159Y0269405D01*
X0395300Y0270403D02*
X0403761Y0270403D01*
X0404175Y0271402D02*
X0395240Y0271402D01*
X0394826Y0272400D02*
X0405026Y0272400D01*
X0407863Y0273399D02*
X0393975Y0273399D01*
X0393500Y0275500D02*
X0407500Y0275500D01*
X0409000Y0275396D02*
X0392000Y0275396D01*
X0392000Y0276394D02*
X0409000Y0276394D01*
X0408072Y0277393D02*
X0392928Y0277393D01*
X0392000Y0274397D02*
X0408862Y0274397D01*
X0413500Y0278500D02*
X0413500Y0267500D01*
X0412500Y0266500D01*
X0408838Y0265411D02*
X0406963Y0265411D01*
X0407821Y0264412D02*
X0409252Y0264412D01*
X0410212Y0263414D02*
X0408235Y0263414D01*
X0408300Y0262415D02*
X0410880Y0262415D01*
X0409881Y0261417D02*
X0408164Y0261417D01*
X0407751Y0260418D02*
X0408883Y0260418D01*
X0404500Y0262500D02*
X0402500Y0260500D01*
X0383500Y0260500D01*
X0370500Y0273500D01*
X0370500Y0281500D01*
X0374300Y0281387D02*
X0385000Y0281387D01*
X0385000Y0282385D02*
X0374246Y0282385D01*
X0373833Y0283384D02*
X0385000Y0283384D01*
X0384082Y0284382D02*
X0372992Y0284382D01*
X0374153Y0280388D02*
X0385000Y0280388D01*
X0385000Y0279390D02*
X0373739Y0279390D01*
X0373000Y0278391D02*
X0385000Y0278391D01*
X0385000Y0277393D02*
X0373000Y0277393D01*
X0373000Y0276394D02*
X0385000Y0276394D01*
X0385000Y0275396D02*
X0373000Y0275396D01*
X0373138Y0274397D02*
X0385000Y0274397D01*
X0385000Y0273399D02*
X0374137Y0273399D01*
X0375135Y0272400D02*
X0385000Y0272400D01*
X0385000Y0271402D02*
X0376134Y0271402D01*
X0377132Y0270403D02*
X0385000Y0270403D01*
X0385000Y0269405D02*
X0378131Y0269405D01*
X0379129Y0268406D02*
X0385000Y0268406D01*
X0385246Y0267408D02*
X0380128Y0267408D01*
X0381126Y0266409D02*
X0386055Y0266409D01*
X0386700Y0265411D02*
X0382125Y0265411D01*
X0383123Y0264412D02*
X0386837Y0264412D01*
X0387251Y0263414D02*
X0384122Y0263414D01*
X0381045Y0259420D02*
X0377751Y0259420D01*
X0378165Y0260418D02*
X0380046Y0260418D01*
X0379048Y0261417D02*
X0378300Y0261417D01*
X0376795Y0258421D02*
X0382043Y0258421D01*
X0385890Y0255426D02*
X0376110Y0255426D01*
X0377108Y0254427D02*
X0385178Y0254427D01*
X0385000Y0253429D02*
X0378107Y0253429D01*
X0379105Y0252430D02*
X0385000Y0252430D01*
X0385000Y0251432D02*
X0380104Y0251432D01*
X0380500Y0250433D02*
X0385000Y0250433D01*
X0385000Y0249434D02*
X0380500Y0249434D01*
X0380500Y0248436D02*
X0385000Y0248436D01*
X0385000Y0247437D02*
X0380500Y0247437D01*
X0381097Y0246439D02*
X0385000Y0246439D01*
X0383500Y0242500D02*
X0381500Y0242500D01*
X0378000Y0246000D01*
X0378000Y0250000D01*
X0374500Y0253500D01*
X0360000Y0253500D01*
X0349346Y0242846D01*
X0347500Y0242846D01*
X0343531Y0242445D02*
X0337468Y0242445D01*
X0337468Y0243443D02*
X0343531Y0243443D01*
X0343531Y0244442D02*
X0337822Y0244442D01*
X0338624Y0245440D02*
X0343531Y0245440D01*
X0344130Y0246439D02*
X0339000Y0246439D01*
X0339000Y0247437D02*
X0350402Y0247437D01*
X0351400Y0248436D02*
X0339000Y0248436D01*
X0339000Y0249434D02*
X0352399Y0249434D01*
X0353397Y0250433D02*
X0339000Y0250433D01*
X0339756Y0251432D02*
X0354396Y0251432D01*
X0355395Y0252430D02*
X0340170Y0252430D01*
X0340300Y0253429D02*
X0356393Y0253429D01*
X0357392Y0254427D02*
X0340229Y0254427D01*
X0339815Y0255426D02*
X0358390Y0255426D01*
X0355500Y0257500D02*
X0360500Y0262500D01*
X0360500Y0264500D01*
X0358500Y0266500D01*
X0358500Y0276154D01*
X0361500Y0279154D01*
X0361846Y0279500D01*
X0362500Y0279500D01*
X0371500Y0288500D01*
X0377500Y0288500D01*
X0381500Y0284500D01*
X0383084Y0285381D02*
X0365468Y0285381D01*
X0365468Y0286379D02*
X0382085Y0286379D01*
X0381087Y0287378D02*
X0365468Y0287378D01*
X0365468Y0288376D02*
X0380088Y0288376D01*
X0379090Y0289375D02*
X0364934Y0289375D01*
X0364000Y0290373D02*
X0378091Y0290373D01*
X0377092Y0291372D02*
X0364000Y0291372D01*
X0364000Y0292370D02*
X0376094Y0292370D01*
X0375095Y0293369D02*
X0364000Y0293369D01*
X0364000Y0294368D02*
X0367115Y0294368D01*
X0366098Y0295366D02*
X0364000Y0295366D01*
X0364729Y0296365D02*
X0365100Y0296365D01*
X0368500Y0296500D02*
X0375500Y0296500D01*
X0387500Y0284500D01*
X0387500Y0268500D01*
X0390500Y0265500D01*
X0394300Y0265411D02*
X0402037Y0265411D01*
X0401179Y0264412D02*
X0394162Y0264412D01*
X0393749Y0263414D02*
X0400765Y0263414D01*
X0404254Y0267408D02*
X0393823Y0267408D01*
X0394236Y0266409D02*
X0405217Y0266409D01*
X0403840Y0268406D02*
X0394746Y0268406D01*
X0391500Y0270500D02*
X0389500Y0272500D01*
X0389500Y0277500D01*
X0393500Y0281500D01*
X0370500Y0304500D01*
X0367500Y0304500D01*
X0362500Y0302500D02*
X0368500Y0296500D01*
X0361500Y0298500D02*
X0361500Y0285846D01*
X0357531Y0285381D02*
X0347968Y0285381D01*
X0347968Y0286379D02*
X0357531Y0286379D01*
X0357531Y0287378D02*
X0347994Y0287378D01*
X0348468Y0288376D02*
X0357531Y0288376D01*
X0358066Y0289375D02*
X0348468Y0289375D01*
X0348468Y0290373D02*
X0359000Y0290373D01*
X0359000Y0291372D02*
X0348561Y0291372D01*
X0349560Y0292370D02*
X0359000Y0292370D01*
X0359000Y0293369D02*
X0350000Y0293369D01*
X0350000Y0294368D02*
X0359000Y0294368D01*
X0359000Y0295366D02*
X0350000Y0295366D01*
X0350000Y0296365D02*
X0358271Y0296365D01*
X0357858Y0297363D02*
X0350000Y0297363D01*
X0350000Y0298362D02*
X0357700Y0298362D01*
X0357104Y0299360D02*
X0350896Y0299360D01*
X0351894Y0300359D02*
X0356106Y0300359D01*
X0355500Y0299500D02*
X0355500Y0289500D01*
X0355500Y0282500D01*
X0358846Y0279154D01*
X0361500Y0279154D01*
X0361984Y0279390D02*
X0367261Y0279390D01*
X0366847Y0280388D02*
X0364968Y0280388D01*
X0364968Y0281387D02*
X0366700Y0281387D01*
X0366754Y0282385D02*
X0365001Y0282385D01*
X0365468Y0283384D02*
X0367167Y0283384D01*
X0368008Y0284382D02*
X0365468Y0284382D01*
X0364968Y0278391D02*
X0368000Y0278391D01*
X0368000Y0277393D02*
X0364968Y0277393D01*
X0364858Y0276394D02*
X0368000Y0276394D01*
X0368000Y0275396D02*
X0324000Y0275396D01*
X0324000Y0276394D02*
X0325142Y0276394D01*
X0325134Y0276409D02*
X0325331Y0276067D01*
X0325610Y0275788D01*
X0325953Y0275590D01*
X0326334Y0275488D01*
X0328016Y0275488D01*
X0328016Y0278669D01*
X0325031Y0278669D01*
X0325031Y0276791D01*
X0325134Y0276409D01*
X0324500Y0276500D02*
X0327154Y0279154D01*
X0328500Y0279154D01*
X0328984Y0279390D02*
X0361016Y0279390D01*
X0361016Y0278669D02*
X0358031Y0278669D01*
X0358031Y0276791D01*
X0358134Y0276409D01*
X0358331Y0276067D01*
X0358610Y0275788D01*
X0358953Y0275590D01*
X0359334Y0275488D01*
X0361016Y0275488D01*
X0361016Y0278669D01*
X0361016Y0278391D02*
X0361984Y0278391D01*
X0361984Y0277393D02*
X0361016Y0277393D01*
X0361016Y0276394D02*
X0361984Y0276394D01*
X0360025Y0273399D02*
X0348468Y0273399D01*
X0348468Y0273346D02*
X0348468Y0273840D01*
X0347297Y0275012D01*
X0341703Y0275012D01*
X0340531Y0273840D01*
X0340531Y0273346D01*
X0334468Y0273346D01*
X0334468Y0273840D01*
X0333297Y0275012D01*
X0327703Y0275012D01*
X0326531Y0273840D01*
X0326531Y0267853D01*
X0327263Y0267121D01*
X0327134Y0266898D01*
X0327031Y0266516D01*
X0327031Y0264638D01*
X0330016Y0264638D01*
X0330016Y0263669D01*
X0330984Y0263669D01*
X0330984Y0260488D01*
X0332666Y0260488D01*
X0333047Y0260590D01*
X0333390Y0260788D01*
X0333669Y0261067D01*
X0333866Y0261409D01*
X0333968Y0261791D01*
X0333968Y0263669D01*
X0330984Y0263669D01*
X0330984Y0264638D01*
X0333968Y0264638D01*
X0333968Y0266516D01*
X0333866Y0266898D01*
X0333737Y0267121D01*
X0334468Y0267853D01*
X0334468Y0268346D01*
X0340531Y0268346D01*
X0340531Y0267853D01*
X0341263Y0267121D01*
X0341134Y0266898D01*
X0341031Y0266516D01*
X0341031Y0264638D01*
X0344016Y0264638D01*
X0344016Y0263669D01*
X0344984Y0263669D01*
X0344984Y0260488D01*
X0346666Y0260488D01*
X0347047Y0260590D01*
X0347390Y0260788D01*
X0347669Y0261067D01*
X0347866Y0261409D01*
X0347968Y0261791D01*
X0347968Y0263669D01*
X0344984Y0263669D01*
X0344984Y0264638D01*
X0347968Y0264638D01*
X0347968Y0266516D01*
X0347866Y0266898D01*
X0347737Y0267121D01*
X0348040Y0267424D01*
X0351700Y0263764D01*
X0351700Y0262744D01*
X0352279Y0261347D01*
X0353347Y0260279D01*
X0354744Y0259700D01*
X0356256Y0259700D01*
X0357653Y0260279D01*
X0358721Y0261347D01*
X0359300Y0262744D01*
X0359300Y0264256D01*
X0358721Y0265653D01*
X0357653Y0266721D01*
X0356256Y0267300D01*
X0355236Y0267300D01*
X0349570Y0272966D01*
X0348651Y0273346D01*
X0348468Y0273346D01*
X0347911Y0274397D02*
X0368000Y0274397D01*
X0368000Y0273399D02*
X0364975Y0273399D01*
X0365826Y0272400D02*
X0368250Y0272400D01*
X0369063Y0271402D02*
X0366240Y0271402D01*
X0366300Y0270403D02*
X0370061Y0270403D01*
X0371060Y0269405D02*
X0367131Y0269405D01*
X0368129Y0268406D02*
X0372058Y0268406D01*
X0373057Y0267408D02*
X0369128Y0267408D01*
X0370126Y0266409D02*
X0374055Y0266409D01*
X0375054Y0265411D02*
X0371125Y0265411D01*
X0371500Y0261500D02*
X0362500Y0270500D01*
X0358700Y0270403D02*
X0352132Y0270403D01*
X0351134Y0271402D02*
X0358760Y0271402D01*
X0359174Y0272400D02*
X0350135Y0272400D01*
X0348154Y0270846D02*
X0344500Y0270846D01*
X0330500Y0270846D01*
X0326531Y0270403D02*
X0324000Y0270403D01*
X0324000Y0269405D02*
X0326531Y0269405D01*
X0326531Y0268406D02*
X0324000Y0268406D01*
X0324000Y0267408D02*
X0326976Y0267408D01*
X0327031Y0266409D02*
X0324000Y0266409D01*
X0324000Y0265411D02*
X0327031Y0265411D01*
X0327500Y0264500D02*
X0324500Y0267500D01*
X0324500Y0276500D01*
X0324000Y0277393D02*
X0325031Y0277393D01*
X0325031Y0278391D02*
X0324000Y0278391D01*
X0324000Y0279390D02*
X0328016Y0279390D01*
X0328016Y0278391D02*
X0328984Y0278391D01*
X0328984Y0277393D02*
X0328016Y0277393D01*
X0328016Y0276394D02*
X0328984Y0276394D01*
X0327089Y0274397D02*
X0324000Y0274397D01*
X0324000Y0273399D02*
X0326531Y0273399D01*
X0326531Y0272400D02*
X0324000Y0272400D01*
X0324000Y0271402D02*
X0326531Y0271402D01*
X0327500Y0264500D02*
X0330154Y0264500D01*
X0330500Y0264154D01*
X0344500Y0264154D01*
X0344500Y0262500D01*
X0349500Y0257500D01*
X0355500Y0257500D01*
X0357792Y0260418D02*
X0369046Y0260418D01*
X0368048Y0261417D02*
X0358750Y0261417D01*
X0359164Y0262415D02*
X0367049Y0262415D01*
X0366051Y0263414D02*
X0359300Y0263414D01*
X0359235Y0264412D02*
X0365052Y0264412D01*
X0364054Y0265411D02*
X0358822Y0265411D01*
X0357965Y0266409D02*
X0363055Y0266409D01*
X0360218Y0267408D02*
X0355128Y0267408D01*
X0354129Y0268406D02*
X0359254Y0268406D01*
X0358841Y0269405D02*
X0353131Y0269405D01*
X0350054Y0265411D02*
X0347968Y0265411D01*
X0347968Y0266409D02*
X0349055Y0266409D01*
X0348057Y0267408D02*
X0348024Y0267408D01*
X0348154Y0270846D02*
X0355500Y0263500D01*
X0351700Y0263414D02*
X0347968Y0263414D01*
X0347968Y0262415D02*
X0351836Y0262415D01*
X0352250Y0261417D02*
X0347868Y0261417D01*
X0344984Y0261417D02*
X0344016Y0261417D01*
X0344016Y0260488D02*
X0344016Y0263669D01*
X0341031Y0263669D01*
X0341031Y0261791D01*
X0341134Y0261409D01*
X0341331Y0261067D01*
X0341610Y0260788D01*
X0341953Y0260590D01*
X0342334Y0260488D01*
X0344016Y0260488D01*
X0344016Y0262415D02*
X0344984Y0262415D01*
X0344984Y0263414D02*
X0344016Y0263414D01*
X0344016Y0264412D02*
X0330984Y0264412D01*
X0330016Y0264412D02*
X0324000Y0264412D01*
X0324000Y0263414D02*
X0327031Y0263414D01*
X0327031Y0263669D02*
X0327031Y0261791D01*
X0327134Y0261409D01*
X0327331Y0261067D01*
X0327610Y0260788D01*
X0327953Y0260590D01*
X0328334Y0260488D01*
X0330016Y0260488D01*
X0330016Y0263669D01*
X0327031Y0263669D01*
X0327031Y0262415D02*
X0324000Y0262415D01*
X0324000Y0261417D02*
X0327132Y0261417D01*
X0330016Y0261417D02*
X0330984Y0261417D01*
X0330984Y0262415D02*
X0330016Y0262415D01*
X0330016Y0263414D02*
X0330984Y0263414D01*
X0333968Y0263414D02*
X0341031Y0263414D01*
X0341031Y0262415D02*
X0333968Y0262415D01*
X0333868Y0261417D02*
X0341132Y0261417D01*
X0341031Y0265411D02*
X0333968Y0265411D01*
X0333968Y0266409D02*
X0341031Y0266409D01*
X0340976Y0267408D02*
X0334024Y0267408D01*
X0334468Y0273399D02*
X0340531Y0273399D01*
X0341089Y0274397D02*
X0333911Y0274397D01*
X0331858Y0276394D02*
X0358142Y0276394D01*
X0358031Y0277393D02*
X0331968Y0277393D01*
X0331968Y0278391D02*
X0358031Y0278391D01*
X0358031Y0280388D02*
X0331968Y0280388D01*
X0331968Y0281387D02*
X0341147Y0281387D01*
X0341134Y0281409D02*
X0341331Y0281067D01*
X0341610Y0280788D01*
X0341953Y0280590D01*
X0342334Y0280488D01*
X0344016Y0280488D01*
X0344016Y0283669D01*
X0341031Y0283669D01*
X0341031Y0281791D01*
X0341134Y0281409D01*
X0341031Y0282385D02*
X0332001Y0282385D01*
X0332468Y0283384D02*
X0341031Y0283384D01*
X0341031Y0285381D02*
X0332468Y0285381D01*
X0332468Y0286379D02*
X0341031Y0286379D01*
X0341006Y0287378D02*
X0332468Y0287378D01*
X0332468Y0288376D02*
X0340531Y0288376D01*
X0340531Y0289375D02*
X0331934Y0289375D01*
X0331000Y0290373D02*
X0340531Y0290373D01*
X0340531Y0291372D02*
X0331000Y0291372D01*
X0331000Y0292370D02*
X0340531Y0292370D01*
X0340531Y0293369D02*
X0331000Y0293369D01*
X0331000Y0294368D02*
X0341059Y0294368D01*
X0345000Y0295366D02*
X0331902Y0295366D01*
X0332900Y0296365D02*
X0345000Y0296365D01*
X0344500Y0299500D02*
X0332500Y0299500D01*
X0328500Y0295500D01*
X0328500Y0285846D01*
X0324531Y0285381D02*
X0324000Y0285381D01*
X0324000Y0286379D02*
X0324531Y0286379D01*
X0324531Y0287378D02*
X0324000Y0287378D01*
X0324000Y0288376D02*
X0324531Y0288376D01*
X0324000Y0289375D02*
X0325066Y0289375D01*
X0326000Y0290373D02*
X0324000Y0290373D01*
X0324000Y0291372D02*
X0326000Y0291372D01*
X0326000Y0292370D02*
X0324000Y0292370D01*
X0324000Y0293369D02*
X0326000Y0293369D01*
X0326000Y0294368D02*
X0324000Y0294368D01*
X0324000Y0295366D02*
X0326000Y0295366D01*
X0326152Y0296365D02*
X0324000Y0296365D01*
X0324000Y0297363D02*
X0326828Y0297363D01*
X0327826Y0298362D02*
X0324000Y0298362D01*
X0324000Y0299360D02*
X0328825Y0299360D01*
X0329823Y0300359D02*
X0324000Y0300359D01*
X0324000Y0301357D02*
X0330822Y0301357D01*
X0330381Y0300916D02*
X0330381Y0300916D01*
X0333861Y0302356D02*
X0324000Y0302356D01*
X0324000Y0303354D02*
X0333700Y0303354D01*
X0333740Y0304353D02*
X0324000Y0304353D01*
X0324000Y0305351D02*
X0334154Y0305351D01*
X0334976Y0306350D02*
X0324000Y0306350D01*
X0324000Y0307348D02*
X0335000Y0307348D01*
X0335145Y0308347D02*
X0323855Y0308347D01*
X0323190Y0309345D02*
X0335810Y0309345D01*
X0336808Y0310344D02*
X0322192Y0310344D01*
X0321193Y0311342D02*
X0337807Y0311342D01*
X0338805Y0312341D02*
X0320195Y0312341D01*
X0319196Y0313339D02*
X0337287Y0313339D01*
X0336288Y0314338D02*
X0319188Y0314338D01*
X0319500Y0323500D02*
X0331500Y0323500D01*
X0339500Y0316500D01*
X0338500Y0316500D01*
X0342500Y0319500D02*
X0344500Y0317500D01*
X0344500Y0314500D01*
X0337500Y0307500D01*
X0337500Y0303500D01*
X0344500Y0299500D02*
X0356500Y0311500D01*
X0363500Y0311500D01*
X0362500Y0306500D02*
X0362500Y0302500D01*
X0361500Y0298500D02*
X0356500Y0303500D01*
X0351500Y0303500D01*
X0347500Y0299500D01*
X0347500Y0293846D01*
X0344500Y0290846D01*
X0344016Y0284382D02*
X0332468Y0284382D01*
X0324999Y0282385D02*
X0324000Y0282385D01*
X0324000Y0281387D02*
X0325031Y0281387D01*
X0325031Y0280388D02*
X0324000Y0280388D01*
X0324000Y0283384D02*
X0324531Y0283384D01*
X0324531Y0284382D02*
X0324000Y0284382D01*
X0344016Y0283384D02*
X0344984Y0283384D01*
X0344500Y0284154D02*
X0349823Y0284154D01*
X0349988Y0283988D01*
X0355500Y0289500D01*
X0357531Y0284382D02*
X0344984Y0284382D01*
X0344984Y0282385D02*
X0344016Y0282385D01*
X0344016Y0281387D02*
X0344984Y0281387D01*
X0347853Y0281387D02*
X0358031Y0281387D01*
X0357999Y0282385D02*
X0347968Y0282385D01*
X0347968Y0283384D02*
X0357531Y0283384D01*
X0351052Y0264412D02*
X0344984Y0264412D01*
X0353208Y0260418D02*
X0324000Y0260418D01*
X0324000Y0259420D02*
X0370045Y0259420D01*
X0372205Y0258421D02*
X0324000Y0258421D01*
X0324000Y0257423D02*
X0387887Y0257423D01*
X0386889Y0256424D02*
X0338950Y0256424D01*
X0336500Y0253500D02*
X0336500Y0246846D01*
X0333500Y0242846D01*
X0329531Y0242445D02*
X0327000Y0242445D01*
X0327000Y0243443D02*
X0329531Y0243443D01*
X0329531Y0244442D02*
X0327000Y0244442D01*
X0327000Y0245440D02*
X0329531Y0245440D01*
X0330130Y0246439D02*
X0327000Y0246439D01*
X0327000Y0247437D02*
X0333818Y0247437D01*
X0334000Y0248436D02*
X0327000Y0248436D01*
X0327000Y0249434D02*
X0334000Y0249434D01*
X0334000Y0250433D02*
X0327000Y0250433D01*
X0327000Y0251432D02*
X0333244Y0251432D01*
X0332830Y0252430D02*
X0326821Y0252430D01*
X0326107Y0253429D02*
X0332700Y0253429D01*
X0332771Y0254427D02*
X0325108Y0254427D01*
X0324110Y0255426D02*
X0333185Y0255426D01*
X0334050Y0256424D02*
X0324000Y0256424D01*
X0319500Y0253500D02*
X0319500Y0298500D01*
X0313500Y0304500D01*
X0313500Y0305500D01*
X0312500Y0324500D02*
X0308500Y0328500D01*
X0309500Y0337000D02*
X0309500Y0344739D01*
X0309571Y0344668D01*
X0311666Y0343800D01*
X0313934Y0343800D01*
X0316029Y0344668D01*
X0317632Y0346271D01*
X0318500Y0348366D01*
X0318500Y0350634D01*
X0317632Y0352729D01*
X0316861Y0353500D01*
X0320859Y0353500D01*
X0320812Y0353466D01*
X0320234Y0352888D01*
X0319753Y0352225D01*
X0319381Y0351496D01*
X0319128Y0350718D01*
X0319014Y0350000D01*
X0323700Y0350000D01*
X0323700Y0349000D01*
X0324700Y0349000D01*
X0324700Y0350000D01*
X0329386Y0350000D01*
X0329272Y0350718D01*
X0329019Y0351496D01*
X0328647Y0352225D01*
X0328166Y0352888D01*
X0327588Y0353466D01*
X0327541Y0353500D01*
X0336964Y0353500D01*
X0324464Y0341000D01*
X0321374Y0341000D01*
X0320653Y0341721D01*
X0319256Y0342300D01*
X0317744Y0342300D01*
X0316347Y0341721D01*
X0315279Y0340653D01*
X0314700Y0339256D01*
X0314700Y0337744D01*
X0315008Y0337000D01*
X0309500Y0337000D01*
X0309500Y0337303D02*
X0314883Y0337303D01*
X0314700Y0338302D02*
X0309500Y0338302D01*
X0309500Y0339301D02*
X0314719Y0339301D01*
X0315132Y0340299D02*
X0309500Y0340299D01*
X0309500Y0341298D02*
X0315924Y0341298D01*
X0317735Y0342296D02*
X0309500Y0342296D01*
X0309500Y0343295D02*
X0326759Y0343295D01*
X0327758Y0344293D02*
X0315124Y0344293D01*
X0316653Y0345292D02*
X0321146Y0345292D01*
X0321475Y0345053D02*
X0322204Y0344681D01*
X0322982Y0344428D01*
X0323700Y0344314D01*
X0323700Y0349000D01*
X0319014Y0349000D01*
X0319128Y0348282D01*
X0319381Y0347504D01*
X0319753Y0346775D01*
X0320234Y0346112D01*
X0320812Y0345534D01*
X0321475Y0345053D01*
X0320105Y0346290D02*
X0317640Y0346290D01*
X0318054Y0347289D02*
X0319491Y0347289D01*
X0319127Y0348287D02*
X0318467Y0348287D01*
X0318500Y0349286D02*
X0323700Y0349286D01*
X0323700Y0348287D02*
X0324700Y0348287D01*
X0324700Y0349000D02*
X0324700Y0344314D01*
X0325418Y0344428D01*
X0326196Y0344681D01*
X0326925Y0345053D01*
X0327588Y0345534D01*
X0328166Y0346112D01*
X0328647Y0346775D01*
X0329019Y0347504D01*
X0329272Y0348282D01*
X0329386Y0349000D01*
X0324700Y0349000D01*
X0324700Y0349286D02*
X0332750Y0349286D01*
X0333749Y0350284D02*
X0329341Y0350284D01*
X0329088Y0351283D02*
X0334747Y0351283D01*
X0335746Y0352281D02*
X0328607Y0352281D01*
X0327774Y0353280D02*
X0336744Y0353280D01*
X0338500Y0351500D02*
X0325500Y0338500D01*
X0318500Y0338500D01*
X0321076Y0341298D02*
X0324762Y0341298D01*
X0325761Y0342296D02*
X0319265Y0342296D01*
X0323700Y0345292D02*
X0324700Y0345292D01*
X0324700Y0346290D02*
X0323700Y0346290D01*
X0323700Y0347289D02*
X0324700Y0347289D01*
X0327254Y0345292D02*
X0328756Y0345292D01*
X0328295Y0346290D02*
X0329755Y0346290D01*
X0328909Y0347289D02*
X0330753Y0347289D01*
X0331752Y0348287D02*
X0329273Y0348287D01*
X0338500Y0351500D02*
X0352500Y0351500D01*
X0365500Y0338500D01*
X0365500Y0319500D01*
X0384500Y0300500D01*
X0397500Y0300500D01*
X0400500Y0297500D01*
X0404300Y0297363D02*
X0405000Y0297363D01*
X0405000Y0296365D02*
X0404143Y0296365D01*
X0403729Y0295366D02*
X0405000Y0295366D01*
X0405000Y0294368D02*
X0402742Y0294368D01*
X0405000Y0293369D02*
X0396743Y0293369D01*
X0397730Y0294368D02*
X0398258Y0294368D01*
X0404256Y0298362D02*
X0405000Y0298362D01*
X0405000Y0299360D02*
X0403843Y0299360D01*
X0403015Y0300359D02*
X0405000Y0300359D01*
X0405000Y0301357D02*
X0400178Y0301357D01*
X0399180Y0302356D02*
X0405000Y0302356D01*
X0405000Y0303354D02*
X0385181Y0303354D01*
X0384183Y0304353D02*
X0405147Y0304353D01*
X0405816Y0305351D02*
X0383184Y0305351D01*
X0382186Y0306350D02*
X0406814Y0306350D01*
X0407813Y0307348D02*
X0381187Y0307348D01*
X0380189Y0308347D02*
X0408811Y0308347D01*
X0409810Y0309345D02*
X0379190Y0309345D01*
X0380718Y0310344D02*
X0385282Y0310344D01*
X0387500Y0313500D02*
X0378500Y0313500D01*
X0381039Y0316335D02*
X0384961Y0316335D01*
X0390039Y0316335D02*
X0399291Y0316335D01*
X0399279Y0316347D02*
X0400347Y0315279D01*
X0401744Y0314700D01*
X0403256Y0314700D01*
X0404653Y0315279D01*
X0405374Y0316000D01*
X0409626Y0316000D01*
X0410347Y0315279D01*
X0411744Y0314700D01*
X0413256Y0314700D01*
X0414653Y0315279D01*
X0415721Y0316347D01*
X0416300Y0317744D01*
X0416300Y0319256D01*
X0415721Y0320653D01*
X0414653Y0321721D01*
X0413256Y0322300D01*
X0411744Y0322300D01*
X0410347Y0321721D01*
X0409626Y0321000D01*
X0405374Y0321000D01*
X0404653Y0321721D01*
X0403256Y0322300D01*
X0401744Y0322300D01*
X0400347Y0321721D01*
X0399279Y0320653D01*
X0398700Y0319256D01*
X0398700Y0317744D01*
X0399279Y0316347D01*
X0398870Y0317333D02*
X0373707Y0317333D01*
X0374706Y0318332D02*
X0398700Y0318332D01*
X0398731Y0319330D02*
X0375129Y0319330D01*
X0375300Y0320329D02*
X0399144Y0320329D01*
X0399953Y0321327D02*
X0375863Y0321327D01*
X0376861Y0322326D02*
X0434031Y0322326D01*
X0434031Y0323324D02*
X0377860Y0323324D01*
X0378858Y0324323D02*
X0434061Y0324323D01*
X0433531Y0325321D02*
X0379718Y0325321D01*
X0380000Y0326320D02*
X0433531Y0326320D01*
X0433531Y0327318D02*
X0380000Y0327318D01*
X0380000Y0328317D02*
X0433531Y0328317D01*
X0433531Y0329315D02*
X0380000Y0329315D01*
X0380000Y0330314D02*
X0412097Y0330314D01*
X0411494Y0331312D02*
X0380000Y0331312D01*
X0377500Y0334500D02*
X0377500Y0326500D01*
X0371500Y0320500D01*
X0372201Y0316335D02*
X0375961Y0316335D01*
X0375148Y0315336D02*
X0373199Y0315336D01*
X0374198Y0314338D02*
X0374734Y0314338D01*
X0389718Y0310344D02*
X0410808Y0310344D01*
X0411807Y0311342D02*
X0390716Y0311342D01*
X0391133Y0312341D02*
X0412805Y0312341D01*
X0413804Y0313339D02*
X0391300Y0313339D01*
X0391266Y0314338D02*
X0414802Y0314338D01*
X0414710Y0315336D02*
X0429063Y0315336D01*
X0429063Y0316335D02*
X0415709Y0316335D01*
X0416130Y0317333D02*
X0429503Y0317333D01*
X0431752Y0317333D02*
X0432130Y0317333D01*
X0432500Y0317500D02*
X0432500Y0315059D01*
X0431941Y0314500D01*
X0429988Y0314500D01*
X0415154Y0329335D01*
X0415154Y0333500D01*
X0412154Y0336500D01*
X0404500Y0336500D01*
X0400838Y0338302D02*
X0414324Y0338302D01*
X0414669Y0336968D02*
X0412791Y0336968D01*
X0412409Y0336866D01*
X0412067Y0336669D01*
X0411788Y0336390D01*
X0411590Y0336047D01*
X0411488Y0335666D01*
X0411488Y0333984D01*
X0414669Y0333984D01*
X0414669Y0336968D01*
X0414669Y0336305D02*
X0415638Y0336305D01*
X0415638Y0335306D02*
X0414669Y0335306D01*
X0414669Y0334308D02*
X0415638Y0334308D01*
X0414669Y0333309D02*
X0395845Y0333309D01*
X0396843Y0334308D02*
X0411488Y0334308D01*
X0411488Y0335306D02*
X0397842Y0335306D01*
X0398841Y0336305D02*
X0411739Y0336305D01*
X0410723Y0339301D02*
X0413325Y0339301D01*
X0412884Y0340299D02*
X0411835Y0340299D01*
X0409500Y0341500D02*
X0414500Y0346500D01*
X0420500Y0346500D01*
X0432988Y0334012D01*
X0440461Y0334012D01*
X0440461Y0330807D01*
X0437500Y0327846D01*
X0441468Y0327318D02*
X0455500Y0327318D01*
X0455500Y0326320D02*
X0441468Y0326320D01*
X0441468Y0325321D02*
X0448260Y0325321D01*
X0447262Y0324323D02*
X0440939Y0324323D01*
X0440968Y0323324D02*
X0446500Y0323324D01*
X0446087Y0322326D02*
X0440968Y0322326D01*
X0440968Y0320329D02*
X0445800Y0320329D01*
X0445800Y0321327D02*
X0437984Y0321327D01*
X0437500Y0321154D02*
X0436154Y0321154D01*
X0432500Y0317500D01*
X0432130Y0316335D02*
X0431752Y0316335D01*
X0431752Y0315336D02*
X0432130Y0315336D01*
X0431752Y0314338D02*
X0426198Y0314338D01*
X0427196Y0313339D02*
X0429063Y0313339D01*
X0430500Y0309500D02*
X0427500Y0309500D01*
X0424500Y0312500D01*
X0416500Y0312500D01*
X0407500Y0303500D01*
X0407500Y0281500D01*
X0409500Y0282500D02*
X0413500Y0278500D01*
X0415837Y0279390D02*
X0427000Y0279390D01*
X0427000Y0280388D02*
X0424762Y0280388D01*
X0425738Y0281387D02*
X0427000Y0281387D01*
X0427000Y0282385D02*
X0426151Y0282385D01*
X0426300Y0283384D02*
X0427000Y0283384D01*
X0427000Y0284382D02*
X0426918Y0284382D01*
X0426500Y0287500D02*
X0426500Y0301500D01*
X0425500Y0303500D01*
X0421700Y0303354D02*
X0413890Y0303354D01*
X0414888Y0304353D02*
X0421740Y0304353D01*
X0422154Y0305351D02*
X0415887Y0305351D01*
X0416885Y0306350D02*
X0422976Y0306350D01*
X0423116Y0307348D02*
X0417884Y0307348D01*
X0417500Y0310500D02*
X0423500Y0310500D01*
X0430500Y0303500D01*
X0432500Y0303500D01*
X0431500Y0303500D01*
X0424000Y0299360D02*
X0418257Y0299360D01*
X0418300Y0298362D02*
X0424000Y0298362D01*
X0424000Y0297363D02*
X0418142Y0297363D01*
X0417729Y0296365D02*
X0424000Y0296365D01*
X0424000Y0295366D02*
X0416740Y0295366D01*
X0416000Y0294368D02*
X0424000Y0294368D01*
X0424000Y0293369D02*
X0416000Y0293369D01*
X0416000Y0292370D02*
X0424000Y0292370D01*
X0424000Y0291372D02*
X0416000Y0291372D01*
X0416000Y0290373D02*
X0424000Y0290373D01*
X0424000Y0289375D02*
X0416000Y0289375D01*
X0416000Y0288376D02*
X0423841Y0288376D01*
X0422842Y0287378D02*
X0416000Y0287378D01*
X0416000Y0286379D02*
X0420005Y0286379D01*
X0419166Y0285381D02*
X0416834Y0285381D01*
X0417248Y0284382D02*
X0418752Y0284382D01*
X0418700Y0283384D02*
X0417300Y0283384D01*
X0417151Y0282385D02*
X0418849Y0282385D01*
X0419262Y0281387D02*
X0416738Y0281387D01*
X0415762Y0280388D02*
X0420238Y0280388D01*
X0420983Y0278391D02*
X0427000Y0278391D01*
X0427000Y0277393D02*
X0421829Y0277393D01*
X0422243Y0276394D02*
X0427000Y0276394D01*
X0427000Y0275396D02*
X0422300Y0275396D01*
X0423500Y0278500D02*
X0427500Y0274500D01*
X0427000Y0268406D02*
X0425968Y0268406D01*
X0426823Y0267408D02*
X0427000Y0267408D01*
X0432000Y0260418D02*
X0436044Y0260418D01*
X0435182Y0259420D02*
X0432000Y0259420D01*
X0432000Y0258421D02*
X0434768Y0258421D01*
X0434700Y0257423D02*
X0432000Y0257423D01*
X0432000Y0256424D02*
X0434833Y0256424D01*
X0435246Y0255426D02*
X0432000Y0255426D01*
X0446123Y0264412D02*
X0447351Y0264412D01*
X0448461Y0265411D02*
X0445125Y0265411D01*
X0444126Y0266409D02*
X0447530Y0266409D01*
X0446611Y0267408D02*
X0443128Y0267408D01*
X0441968Y0268406D02*
X0446198Y0268406D01*
X0426500Y0287500D02*
X0422500Y0283500D01*
X0416017Y0278391D02*
X0416000Y0278391D01*
X0418500Y0275500D02*
X0416500Y0273500D01*
X0413500Y0283500D02*
X0413500Y0297500D01*
X0414500Y0298500D01*
X0417017Y0301357D02*
X0422275Y0301357D01*
X0421861Y0302356D02*
X0412891Y0302356D01*
X0409500Y0302500D02*
X0417500Y0310500D01*
X0410290Y0315336D02*
X0404710Y0315336D01*
X0402500Y0318500D02*
X0412500Y0318500D01*
X0416300Y0318332D02*
X0434178Y0318332D01*
X0434031Y0319330D02*
X0416269Y0319330D01*
X0415856Y0320329D02*
X0434031Y0320329D01*
X0437016Y0321327D02*
X0415047Y0321327D01*
X0409953Y0321327D02*
X0405047Y0321327D01*
X0400290Y0315336D02*
X0390852Y0315336D01*
X0371500Y0326500D02*
X0370500Y0325500D01*
X0371500Y0326500D02*
X0371500Y0340500D01*
X0375500Y0344500D01*
X0409500Y0344500D01*
X0413500Y0348500D01*
X0424500Y0348500D01*
X0431500Y0341500D01*
X0434081Y0344293D02*
X0438476Y0344293D01*
X0436947Y0345292D02*
X0432276Y0345292D01*
X0430245Y0346290D02*
X0435960Y0346290D01*
X0435546Y0347289D02*
X0429247Y0347289D01*
X0428248Y0348287D02*
X0435133Y0348287D01*
X0435100Y0349286D02*
X0427250Y0349286D01*
X0426251Y0350284D02*
X0435100Y0350284D01*
X0435369Y0351283D02*
X0356253Y0351283D01*
X0355254Y0352281D02*
X0435782Y0352281D01*
X0436519Y0353280D02*
X0354256Y0353280D01*
X0354619Y0352916D02*
X0354619Y0352916D01*
X0357251Y0350284D02*
X0411749Y0350284D01*
X0410750Y0349286D02*
X0358250Y0349286D01*
X0359248Y0348287D02*
X0409752Y0348287D01*
X0408753Y0347289D02*
X0360247Y0347289D01*
X0361245Y0346290D02*
X0373755Y0346290D01*
X0372756Y0345292D02*
X0362244Y0345292D01*
X0363242Y0344293D02*
X0371758Y0344293D01*
X0370759Y0343295D02*
X0364241Y0343295D01*
X0365239Y0342296D02*
X0369761Y0342296D01*
X0369124Y0341298D02*
X0366238Y0341298D01*
X0367236Y0340299D02*
X0369000Y0340299D01*
X0369000Y0339301D02*
X0367874Y0339301D01*
X0368000Y0338302D02*
X0369000Y0338302D01*
X0369000Y0337303D02*
X0368000Y0337303D01*
X0368000Y0336305D02*
X0369000Y0336305D01*
X0369000Y0335306D02*
X0368000Y0335306D01*
X0368000Y0334308D02*
X0369000Y0334308D01*
X0369000Y0333309D02*
X0368000Y0333309D01*
X0368000Y0332311D02*
X0369000Y0332311D01*
X0369000Y0331312D02*
X0368000Y0331312D01*
X0368000Y0330314D02*
X0369000Y0330314D01*
X0369000Y0329315D02*
X0368000Y0329315D01*
X0377500Y0334500D02*
X0393500Y0334500D01*
X0400500Y0341500D01*
X0409500Y0341500D01*
X0416500Y0341500D02*
X0421846Y0336154D01*
X0421846Y0333500D01*
X0426012Y0333309D02*
X0430155Y0333309D01*
X0431154Y0332311D02*
X0426012Y0332311D01*
X0426012Y0331312D02*
X0434004Y0331312D01*
X0433531Y0330314D02*
X0425623Y0330314D01*
X0426012Y0334308D02*
X0429156Y0334308D01*
X0428158Y0335306D02*
X0426012Y0335306D01*
X0426004Y0336305D02*
X0427159Y0336305D01*
X0426161Y0337303D02*
X0425005Y0337303D01*
X0425162Y0338302D02*
X0423234Y0338302D01*
X0424164Y0339301D02*
X0422235Y0339301D01*
X0423165Y0340299D02*
X0421236Y0340299D01*
X0422167Y0341298D02*
X0420300Y0341298D01*
X0420283Y0342296D02*
X0421168Y0342296D01*
X0420170Y0343295D02*
X0419870Y0343295D01*
X0417161Y0337303D02*
X0399839Y0337303D01*
X0394748Y0332311D02*
X0411488Y0332311D01*
X0414669Y0332311D02*
X0415638Y0332311D01*
X0415638Y0331312D02*
X0414669Y0331312D01*
X0414669Y0330314D02*
X0415638Y0330314D01*
X0433232Y0337303D02*
X0438478Y0337303D01*
X0442444Y0337303D02*
X0455500Y0337303D01*
X0455500Y0336305D02*
X0443541Y0336305D01*
X0444037Y0335306D02*
X0455500Y0335306D01*
X0455500Y0334308D02*
X0444261Y0334308D01*
X0444261Y0333309D02*
X0455500Y0333309D01*
X0455500Y0332311D02*
X0443869Y0332311D01*
X0443135Y0331312D02*
X0455500Y0331312D01*
X0455500Y0330314D02*
X0442961Y0330314D01*
X0442504Y0329315D02*
X0455500Y0329315D01*
X0455500Y0328317D02*
X0441506Y0328317D01*
X0440968Y0319330D02*
X0445815Y0319330D01*
X0446228Y0318332D02*
X0440822Y0318332D01*
X0440204Y0317333D02*
X0446642Y0317333D01*
X0447604Y0316335D02*
X0440437Y0316335D01*
X0440437Y0315336D02*
X0448281Y0315336D01*
X0454740Y0325321D02*
X0455500Y0325321D01*
X0455500Y0338302D02*
X0433676Y0338302D01*
X0434675Y0339301D02*
X0455500Y0339301D01*
X0455500Y0340299D02*
X0435116Y0340299D01*
X0435300Y0341298D02*
X0455500Y0341298D01*
X0455500Y0342296D02*
X0435283Y0342296D01*
X0434870Y0343295D02*
X0455500Y0343295D01*
X0455500Y0344293D02*
X0454524Y0344293D01*
X0449876Y0344293D02*
X0443124Y0344293D01*
X0444653Y0345292D02*
X0448347Y0345292D01*
X0447360Y0346290D02*
X0445640Y0346290D01*
X0446054Y0347289D02*
X0446946Y0347289D01*
X0446533Y0348287D02*
X0446467Y0348287D01*
X0446500Y0348366D02*
X0446500Y0350634D01*
X0447368Y0352729D01*
X0448139Y0353500D01*
X0444861Y0353500D01*
X0445632Y0352729D01*
X0446500Y0350634D01*
X0446500Y0348366D01*
X0446500Y0349286D02*
X0446500Y0349286D01*
X0446500Y0350284D02*
X0446500Y0350284D01*
X0446231Y0351283D02*
X0446769Y0351283D01*
X0447182Y0352281D02*
X0445818Y0352281D01*
X0445081Y0353280D02*
X0447919Y0353280D01*
X0423267Y0300359D02*
X0417843Y0300359D01*
X0409500Y0302500D02*
X0409500Y0282500D01*
X0442910Y0287378D02*
X0446624Y0287378D01*
X0446210Y0288376D02*
X0443857Y0288376D01*
X0444765Y0289375D02*
X0445800Y0289375D01*
X0445800Y0290373D02*
X0445673Y0290373D01*
X0374500Y0261500D02*
X0371500Y0261500D01*
X0373500Y0261500D02*
X0374500Y0261500D01*
X0371500Y0249500D02*
X0364846Y0242846D01*
X0361500Y0242846D01*
X0361500Y0236154D02*
X0348665Y0236154D01*
X0347500Y0236154D02*
X0346335Y0234988D01*
X0335665Y0234988D01*
X0333500Y0236154D01*
X0329531Y0236454D02*
X0324989Y0236454D01*
X0323991Y0235455D02*
X0329531Y0235455D01*
X0329531Y0234457D02*
X0322992Y0234457D01*
X0321994Y0233458D02*
X0329531Y0233458D01*
X0330231Y0232460D02*
X0320995Y0232460D01*
X0318000Y0231461D02*
X0362000Y0231461D01*
X0362000Y0230463D02*
X0318000Y0230463D01*
X0318000Y0229464D02*
X0362000Y0229464D01*
X0362222Y0228466D02*
X0318000Y0228466D01*
X0318000Y0227467D02*
X0362997Y0227467D01*
X0363700Y0226469D02*
X0329067Y0226469D01*
X0330065Y0225470D02*
X0363813Y0225470D01*
X0364227Y0224472D02*
X0331064Y0224472D01*
X0332062Y0223473D02*
X0359938Y0223473D01*
X0358939Y0222475D02*
X0333061Y0222475D01*
X0334059Y0221476D02*
X0357941Y0221476D01*
X0355104Y0220478D02*
X0335058Y0220478D01*
X0336056Y0219479D02*
X0354207Y0219479D01*
X0353793Y0218481D02*
X0337055Y0218481D01*
X0338053Y0217482D02*
X0353700Y0217482D01*
X0353808Y0216484D02*
X0339052Y0216484D01*
X0335500Y0207500D02*
X0387500Y0207500D01*
X0369500Y0221500D02*
X0361500Y0221500D01*
X0357500Y0217500D01*
X0367500Y0226500D02*
X0364500Y0229500D01*
X0364500Y0234154D01*
X0361500Y0236154D01*
X0357531Y0233458D02*
X0351468Y0233458D01*
X0350769Y0232460D02*
X0358231Y0232460D01*
X0344231Y0232460D02*
X0336769Y0232460D01*
X0337468Y0238451D02*
X0343531Y0238451D01*
X0343834Y0239449D02*
X0337166Y0239449D01*
X0337468Y0240448D02*
X0343531Y0240448D01*
X0343531Y0241446D02*
X0337468Y0241446D01*
X0329834Y0239449D02*
X0327000Y0239449D01*
X0327000Y0240448D02*
X0329531Y0240448D01*
X0329531Y0241446D02*
X0327000Y0241446D01*
X0326771Y0238451D02*
X0329531Y0238451D01*
X0329531Y0237452D02*
X0325988Y0237452D01*
X0313500Y0245500D02*
X0309500Y0241500D01*
X0309500Y0221500D01*
X0312500Y0218500D01*
X0324500Y0218500D01*
X0335500Y0207500D01*
X0432870Y0208496D02*
X0435875Y0208496D01*
X0435461Y0209494D02*
X0433782Y0209494D01*
X0434196Y0210493D02*
X0435100Y0210493D01*
X0435100Y0211491D02*
X0434300Y0211491D01*
X0434203Y0212490D02*
X0435100Y0212490D01*
X0435454Y0213488D02*
X0433790Y0213488D01*
X0433000Y0214487D02*
X0435867Y0214487D01*
X0436724Y0215485D02*
X0433000Y0215485D01*
X0433000Y0216484D02*
X0437937Y0216484D01*
X0433000Y0217482D02*
X0455500Y0217482D01*
X0455500Y0216484D02*
X0455063Y0216484D01*
X0455500Y0218481D02*
X0433000Y0218481D01*
X0433000Y0219479D02*
X0455500Y0219479D01*
X0455500Y0220478D02*
X0433000Y0220478D01*
X0433000Y0221476D02*
X0455500Y0221476D01*
X0455500Y0222475D02*
X0433000Y0222475D01*
X0433000Y0223473D02*
X0455500Y0223473D01*
X0455500Y0224472D02*
X0433000Y0224472D01*
X0433000Y0225470D02*
X0455500Y0225470D01*
X0455500Y0226469D02*
X0433000Y0226469D01*
X0433000Y0227467D02*
X0455500Y0227467D01*
X0455500Y0228466D02*
X0433000Y0228466D01*
X0433000Y0229464D02*
X0455500Y0229464D01*
X0455500Y0230463D02*
X0433000Y0230463D01*
X0433000Y0231461D02*
X0455500Y0231461D01*
X0455500Y0232460D02*
X0433000Y0232460D01*
X0433000Y0233458D02*
X0455500Y0233458D01*
X0455500Y0234457D02*
X0433000Y0234457D01*
X0433000Y0235455D02*
X0448784Y0235455D01*
X0454216Y0235455D02*
X0455500Y0235455D01*
X0449337Y0216484D02*
X0443663Y0216484D01*
X0444876Y0215485D02*
X0448124Y0215485D01*
X0447267Y0214487D02*
X0445733Y0214487D01*
X0446146Y0213488D02*
X0446854Y0213488D01*
X0446500Y0212634D02*
X0446500Y0210366D01*
X0446500Y0212634D01*
X0446500Y0212490D02*
X0446500Y0212490D01*
X0446500Y0211491D02*
X0446500Y0211491D01*
X0446500Y0210493D02*
X0446500Y0210493D01*
X0446500Y0210366D02*
X0445632Y0208271D01*
X0444861Y0207500D01*
X0448139Y0207500D01*
X0447368Y0208271D01*
X0446500Y0210366D01*
X0446139Y0209494D02*
X0446861Y0209494D01*
X0447275Y0208496D02*
X0445725Y0208496D01*
X0349500Y0319500D02*
X0353500Y0323500D01*
X0353500Y0327000D01*
X0351000Y0329500D01*
X0351000Y0333000D01*
X0353000Y0335000D01*
X0342500Y0327500D02*
X0342500Y0319500D01*
X0347500Y0319500D02*
X0349500Y0319500D01*
X0342500Y0327500D02*
X0340500Y0329500D01*
X0310476Y0344293D02*
X0309500Y0344293D01*
X0318500Y0350284D02*
X0319059Y0350284D01*
X0319312Y0351283D02*
X0318231Y0351283D01*
X0317818Y0352281D02*
X0319793Y0352281D01*
X0320626Y0353280D02*
X0317081Y0353280D01*
M02*
