G75*
%MOIN*%
%OFA0B0*%
%FSLAX25Y25*%
%IPPOS*%
%LPD*%
%AMOC8*
5,1,8,0,0,1.08239X$1,22.5*
%
%ADD10C,0.00000*%
%ADD11C,0.00100*%
%ADD12C,0.00800*%
%ADD13C,0.00400*%
%ADD14C,0.01300*%
%ADD15C,0.00600*%
%ADD16C,0.00500*%
%ADD17C,0.00200*%
%ADD18C,0.00300*%
%ADD19C,0.00197*%
%ADD20C,0.00394*%
%ADD21C,0.01575*%
D10*
X0193378Y0168967D02*
X0377878Y0168967D01*
X0377878Y0352467D01*
X0357878Y0368967D02*
X0177878Y0368967D01*
X0177878Y0192467D01*
X0368206Y0197822D02*
X0368208Y0197906D01*
X0368214Y0197989D01*
X0368224Y0198072D01*
X0368238Y0198155D01*
X0368255Y0198237D01*
X0368277Y0198318D01*
X0368302Y0198397D01*
X0368331Y0198476D01*
X0368364Y0198553D01*
X0368400Y0198628D01*
X0368440Y0198702D01*
X0368483Y0198774D01*
X0368530Y0198843D01*
X0368580Y0198910D01*
X0368633Y0198975D01*
X0368689Y0199037D01*
X0368747Y0199097D01*
X0368809Y0199154D01*
X0368873Y0199207D01*
X0368940Y0199258D01*
X0369009Y0199305D01*
X0369080Y0199350D01*
X0369153Y0199390D01*
X0369228Y0199427D01*
X0369305Y0199461D01*
X0369383Y0199491D01*
X0369462Y0199517D01*
X0369543Y0199540D01*
X0369625Y0199558D01*
X0369707Y0199573D01*
X0369790Y0199584D01*
X0369873Y0199591D01*
X0369957Y0199594D01*
X0370041Y0199593D01*
X0370124Y0199588D01*
X0370208Y0199579D01*
X0370290Y0199566D01*
X0370372Y0199550D01*
X0370453Y0199529D01*
X0370534Y0199505D01*
X0370612Y0199477D01*
X0370690Y0199445D01*
X0370766Y0199409D01*
X0370840Y0199370D01*
X0370912Y0199328D01*
X0370982Y0199282D01*
X0371050Y0199233D01*
X0371115Y0199181D01*
X0371178Y0199126D01*
X0371238Y0199068D01*
X0371296Y0199007D01*
X0371350Y0198943D01*
X0371402Y0198877D01*
X0371450Y0198809D01*
X0371495Y0198738D01*
X0371536Y0198665D01*
X0371575Y0198591D01*
X0371609Y0198515D01*
X0371640Y0198437D01*
X0371667Y0198358D01*
X0371691Y0198277D01*
X0371710Y0198196D01*
X0371726Y0198114D01*
X0371738Y0198031D01*
X0371746Y0197947D01*
X0371750Y0197864D01*
X0371750Y0197780D01*
X0371746Y0197697D01*
X0371738Y0197613D01*
X0371726Y0197530D01*
X0371710Y0197448D01*
X0371691Y0197367D01*
X0371667Y0197286D01*
X0371640Y0197207D01*
X0371609Y0197129D01*
X0371575Y0197053D01*
X0371536Y0196979D01*
X0371495Y0196906D01*
X0371450Y0196835D01*
X0371402Y0196767D01*
X0371350Y0196701D01*
X0371296Y0196637D01*
X0371238Y0196576D01*
X0371178Y0196518D01*
X0371115Y0196463D01*
X0371050Y0196411D01*
X0370982Y0196362D01*
X0370912Y0196316D01*
X0370840Y0196274D01*
X0370766Y0196235D01*
X0370690Y0196199D01*
X0370612Y0196167D01*
X0370534Y0196139D01*
X0370453Y0196115D01*
X0370372Y0196094D01*
X0370290Y0196078D01*
X0370208Y0196065D01*
X0370124Y0196056D01*
X0370041Y0196051D01*
X0369957Y0196050D01*
X0369873Y0196053D01*
X0369790Y0196060D01*
X0369707Y0196071D01*
X0369625Y0196086D01*
X0369543Y0196104D01*
X0369462Y0196127D01*
X0369383Y0196153D01*
X0369305Y0196183D01*
X0369228Y0196217D01*
X0369153Y0196254D01*
X0369080Y0196294D01*
X0369009Y0196339D01*
X0368940Y0196386D01*
X0368873Y0196437D01*
X0368809Y0196490D01*
X0368747Y0196547D01*
X0368689Y0196607D01*
X0368633Y0196669D01*
X0368580Y0196734D01*
X0368530Y0196801D01*
X0368483Y0196870D01*
X0368440Y0196942D01*
X0368400Y0197016D01*
X0368364Y0197091D01*
X0368331Y0197168D01*
X0368302Y0197247D01*
X0368277Y0197326D01*
X0368255Y0197407D01*
X0368238Y0197489D01*
X0368224Y0197572D01*
X0368214Y0197655D01*
X0368208Y0197738D01*
X0368206Y0197822D01*
X0368206Y0186011D02*
X0368208Y0186095D01*
X0368214Y0186178D01*
X0368224Y0186261D01*
X0368238Y0186344D01*
X0368255Y0186426D01*
X0368277Y0186507D01*
X0368302Y0186586D01*
X0368331Y0186665D01*
X0368364Y0186742D01*
X0368400Y0186817D01*
X0368440Y0186891D01*
X0368483Y0186963D01*
X0368530Y0187032D01*
X0368580Y0187099D01*
X0368633Y0187164D01*
X0368689Y0187226D01*
X0368747Y0187286D01*
X0368809Y0187343D01*
X0368873Y0187396D01*
X0368940Y0187447D01*
X0369009Y0187494D01*
X0369080Y0187539D01*
X0369153Y0187579D01*
X0369228Y0187616D01*
X0369305Y0187650D01*
X0369383Y0187680D01*
X0369462Y0187706D01*
X0369543Y0187729D01*
X0369625Y0187747D01*
X0369707Y0187762D01*
X0369790Y0187773D01*
X0369873Y0187780D01*
X0369957Y0187783D01*
X0370041Y0187782D01*
X0370124Y0187777D01*
X0370208Y0187768D01*
X0370290Y0187755D01*
X0370372Y0187739D01*
X0370453Y0187718D01*
X0370534Y0187694D01*
X0370612Y0187666D01*
X0370690Y0187634D01*
X0370766Y0187598D01*
X0370840Y0187559D01*
X0370912Y0187517D01*
X0370982Y0187471D01*
X0371050Y0187422D01*
X0371115Y0187370D01*
X0371178Y0187315D01*
X0371238Y0187257D01*
X0371296Y0187196D01*
X0371350Y0187132D01*
X0371402Y0187066D01*
X0371450Y0186998D01*
X0371495Y0186927D01*
X0371536Y0186854D01*
X0371575Y0186780D01*
X0371609Y0186704D01*
X0371640Y0186626D01*
X0371667Y0186547D01*
X0371691Y0186466D01*
X0371710Y0186385D01*
X0371726Y0186303D01*
X0371738Y0186220D01*
X0371746Y0186136D01*
X0371750Y0186053D01*
X0371750Y0185969D01*
X0371746Y0185886D01*
X0371738Y0185802D01*
X0371726Y0185719D01*
X0371710Y0185637D01*
X0371691Y0185556D01*
X0371667Y0185475D01*
X0371640Y0185396D01*
X0371609Y0185318D01*
X0371575Y0185242D01*
X0371536Y0185168D01*
X0371495Y0185095D01*
X0371450Y0185024D01*
X0371402Y0184956D01*
X0371350Y0184890D01*
X0371296Y0184826D01*
X0371238Y0184765D01*
X0371178Y0184707D01*
X0371115Y0184652D01*
X0371050Y0184600D01*
X0370982Y0184551D01*
X0370912Y0184505D01*
X0370840Y0184463D01*
X0370766Y0184424D01*
X0370690Y0184388D01*
X0370612Y0184356D01*
X0370534Y0184328D01*
X0370453Y0184304D01*
X0370372Y0184283D01*
X0370290Y0184267D01*
X0370208Y0184254D01*
X0370124Y0184245D01*
X0370041Y0184240D01*
X0369957Y0184239D01*
X0369873Y0184242D01*
X0369790Y0184249D01*
X0369707Y0184260D01*
X0369625Y0184275D01*
X0369543Y0184293D01*
X0369462Y0184316D01*
X0369383Y0184342D01*
X0369305Y0184372D01*
X0369228Y0184406D01*
X0369153Y0184443D01*
X0369080Y0184483D01*
X0369009Y0184528D01*
X0368940Y0184575D01*
X0368873Y0184626D01*
X0368809Y0184679D01*
X0368747Y0184736D01*
X0368689Y0184796D01*
X0368633Y0184858D01*
X0368580Y0184923D01*
X0368530Y0184990D01*
X0368483Y0185059D01*
X0368440Y0185131D01*
X0368400Y0185205D01*
X0368364Y0185280D01*
X0368331Y0185357D01*
X0368302Y0185436D01*
X0368277Y0185515D01*
X0368255Y0185596D01*
X0368238Y0185678D01*
X0368224Y0185761D01*
X0368214Y0185844D01*
X0368208Y0185927D01*
X0368206Y0186011D01*
D11*
X0193378Y0168967D02*
X0177878Y0168967D01*
X0177878Y0192467D01*
X0193378Y0192467D01*
X0193378Y0168967D01*
X0207977Y0176597D02*
X0208227Y0176347D01*
X0209228Y0176347D01*
X0209478Y0176597D01*
X0209478Y0177098D01*
X0209228Y0177348D01*
X0209228Y0177820D02*
X0209478Y0178070D01*
X0209478Y0178571D01*
X0209228Y0178821D01*
X0208978Y0178821D01*
X0208728Y0178571D01*
X0208728Y0178321D01*
X0208728Y0178571D02*
X0208478Y0178821D01*
X0208227Y0178821D01*
X0207977Y0178571D01*
X0207977Y0178070D01*
X0208227Y0177820D01*
X0208227Y0177348D02*
X0207977Y0177098D01*
X0207977Y0176597D01*
X0208478Y0179293D02*
X0207977Y0179794D01*
X0209478Y0179794D01*
X0209478Y0180294D02*
X0209478Y0179293D01*
X0217027Y0180947D02*
X0217277Y0180697D01*
X0218278Y0180697D01*
X0218528Y0180947D01*
X0218528Y0181448D01*
X0218278Y0181698D01*
X0218278Y0182170D02*
X0218528Y0182420D01*
X0218528Y0182921D01*
X0218278Y0183171D01*
X0218028Y0183171D01*
X0217778Y0182921D01*
X0217778Y0182671D01*
X0217778Y0182921D02*
X0217528Y0183171D01*
X0217277Y0183171D01*
X0217027Y0182921D01*
X0217027Y0182420D01*
X0217277Y0182170D01*
X0217277Y0181698D02*
X0217027Y0181448D01*
X0217027Y0180947D01*
X0217277Y0183643D02*
X0217027Y0183894D01*
X0217027Y0184394D01*
X0217277Y0184644D01*
X0217528Y0184644D01*
X0217778Y0184394D01*
X0218028Y0184644D01*
X0218278Y0184644D01*
X0218528Y0184394D01*
X0218528Y0183894D01*
X0218278Y0183643D01*
X0217778Y0184144D02*
X0217778Y0184394D01*
X0218028Y0186070D02*
X0218028Y0187071D01*
X0218028Y0187543D02*
X0217778Y0187543D01*
X0216777Y0188544D01*
X0216527Y0188544D01*
X0216527Y0187543D01*
X0216527Y0186070D02*
X0218028Y0186070D01*
X0221179Y0182318D02*
X0220928Y0182068D01*
X0220928Y0181067D01*
X0221179Y0180817D01*
X0221679Y0180817D01*
X0221929Y0181067D01*
X0222402Y0181067D02*
X0222652Y0180817D01*
X0223152Y0180817D01*
X0223403Y0181067D01*
X0223403Y0181317D01*
X0223152Y0181567D01*
X0222902Y0181567D01*
X0223152Y0181567D02*
X0223403Y0181818D01*
X0223403Y0182068D01*
X0223152Y0182318D01*
X0222652Y0182318D01*
X0222402Y0182068D01*
X0221929Y0182068D02*
X0221679Y0182318D01*
X0221179Y0182318D01*
X0223875Y0181567D02*
X0224876Y0181567D01*
X0224626Y0180817D02*
X0224626Y0182318D01*
X0223875Y0181567D01*
X0235977Y0192047D02*
X0236227Y0191797D01*
X0237228Y0191797D01*
X0237478Y0192047D01*
X0237478Y0192548D01*
X0237228Y0192798D01*
X0237478Y0193270D02*
X0236478Y0194271D01*
X0236227Y0194271D01*
X0235977Y0194021D01*
X0235977Y0193520D01*
X0236227Y0193270D01*
X0236227Y0192798D02*
X0235977Y0192548D01*
X0235977Y0192047D01*
X0237478Y0193270D02*
X0237478Y0194271D01*
X0237478Y0194743D02*
X0237228Y0194743D01*
X0236227Y0195744D01*
X0235977Y0195744D01*
X0235977Y0194743D01*
X0222376Y0198767D02*
X0222376Y0199017D01*
X0222126Y0199267D01*
X0221375Y0199267D01*
X0221375Y0198767D01*
X0221625Y0198517D01*
X0222126Y0198517D01*
X0222376Y0198767D01*
X0221375Y0199267D02*
X0221875Y0199768D01*
X0222376Y0200018D01*
X0220903Y0199768D02*
X0220652Y0200018D01*
X0220152Y0200018D01*
X0219902Y0199768D01*
X0219429Y0199768D02*
X0219179Y0200018D01*
X0218679Y0200018D01*
X0218428Y0199768D01*
X0218428Y0198767D01*
X0218679Y0198517D01*
X0219179Y0198517D01*
X0219429Y0198767D01*
X0219902Y0198517D02*
X0220903Y0199518D01*
X0220903Y0199768D01*
X0220903Y0198517D02*
X0219902Y0198517D01*
X0223577Y0203697D02*
X0224578Y0203697D01*
X0224828Y0203947D01*
X0224828Y0204448D01*
X0224578Y0204698D01*
X0224828Y0205170D02*
X0223828Y0206171D01*
X0223577Y0206171D01*
X0223327Y0205921D01*
X0223327Y0205420D01*
X0223577Y0205170D01*
X0223577Y0204698D02*
X0223327Y0204448D01*
X0223327Y0203947D01*
X0223577Y0203697D01*
X0224828Y0205170D02*
X0224828Y0206171D01*
X0224578Y0206643D02*
X0224828Y0206894D01*
X0224828Y0207394D01*
X0224578Y0207644D01*
X0224078Y0207644D01*
X0223828Y0207394D01*
X0223828Y0207144D01*
X0224078Y0206643D01*
X0223327Y0206643D01*
X0223327Y0207644D01*
X0222478Y0214770D02*
X0222728Y0215020D01*
X0222728Y0215521D01*
X0222478Y0215771D01*
X0221227Y0215771D01*
X0221477Y0216243D02*
X0221728Y0216243D01*
X0221978Y0216494D01*
X0221978Y0216994D01*
X0222228Y0217244D01*
X0222478Y0217244D01*
X0222728Y0216994D01*
X0222728Y0216494D01*
X0222478Y0216243D01*
X0222228Y0216243D01*
X0221978Y0216494D01*
X0221978Y0216994D02*
X0221728Y0217244D01*
X0221477Y0217244D01*
X0221227Y0216994D01*
X0221227Y0216494D01*
X0221477Y0216243D01*
X0221227Y0214770D02*
X0222478Y0214770D01*
X0218337Y0219791D02*
X0217837Y0219791D01*
X0217586Y0220042D01*
X0217114Y0220042D02*
X0216864Y0219791D01*
X0216363Y0219791D01*
X0216113Y0220042D01*
X0216113Y0220542D02*
X0216613Y0220792D01*
X0216864Y0220792D01*
X0217114Y0220542D01*
X0217114Y0220042D01*
X0218087Y0220542D02*
X0218337Y0220542D01*
X0218587Y0220292D01*
X0218587Y0220042D01*
X0218337Y0219791D01*
X0218337Y0220542D02*
X0218587Y0220792D01*
X0218587Y0221043D01*
X0218337Y0221293D01*
X0217837Y0221293D01*
X0217586Y0221043D01*
X0217114Y0221293D02*
X0216113Y0221293D01*
X0216113Y0220542D01*
X0215641Y0220542D02*
X0215390Y0220292D01*
X0214640Y0220292D01*
X0214640Y0219791D02*
X0214640Y0221293D01*
X0215390Y0221293D01*
X0215641Y0221043D01*
X0215641Y0220542D01*
X0214167Y0221293D02*
X0213167Y0221293D01*
X0213667Y0221293D02*
X0213667Y0219791D01*
X0217217Y0226941D02*
X0217217Y0228443D01*
X0216717Y0228443D02*
X0217717Y0228443D01*
X0218190Y0228443D02*
X0218940Y0228443D01*
X0219191Y0228193D01*
X0219191Y0227692D01*
X0218940Y0227442D01*
X0218190Y0227442D01*
X0218190Y0226941D02*
X0218190Y0228443D01*
X0219663Y0228443D02*
X0219663Y0227692D01*
X0220163Y0227942D01*
X0220414Y0227942D01*
X0220664Y0227692D01*
X0220664Y0227192D01*
X0220414Y0226941D01*
X0219913Y0226941D01*
X0219663Y0227192D01*
X0219663Y0228443D02*
X0220664Y0228443D01*
X0221136Y0227942D02*
X0221637Y0228443D01*
X0221637Y0226941D01*
X0222137Y0226941D02*
X0221136Y0226941D01*
X0223617Y0228043D02*
X0224617Y0228043D01*
X0225090Y0228043D02*
X0225840Y0228043D01*
X0226091Y0227793D01*
X0226091Y0227292D01*
X0225840Y0227042D01*
X0225090Y0227042D01*
X0225090Y0226541D02*
X0225090Y0228043D01*
X0224117Y0228043D02*
X0224117Y0226541D01*
X0226563Y0226792D02*
X0226813Y0226541D01*
X0227314Y0226541D01*
X0227564Y0226792D01*
X0227564Y0227292D01*
X0227314Y0227542D01*
X0227063Y0227542D01*
X0226563Y0227292D01*
X0226563Y0228043D01*
X0227564Y0228043D01*
X0228036Y0227292D02*
X0229037Y0227292D01*
X0228787Y0226541D02*
X0228787Y0228043D01*
X0228036Y0227292D01*
X0230677Y0218794D02*
X0230928Y0218794D01*
X0231178Y0218544D01*
X0231178Y0218044D01*
X0230928Y0217793D01*
X0230677Y0217793D01*
X0230427Y0218044D01*
X0230427Y0218544D01*
X0230677Y0218794D01*
X0231178Y0218544D02*
X0231428Y0218794D01*
X0231678Y0218794D01*
X0231928Y0218544D01*
X0231928Y0218044D01*
X0231678Y0217793D01*
X0231428Y0217793D01*
X0231178Y0218044D01*
X0230928Y0217321D02*
X0230677Y0217321D01*
X0230427Y0217071D01*
X0230427Y0216570D01*
X0230677Y0216320D01*
X0230677Y0215848D02*
X0230427Y0215598D01*
X0230427Y0215097D01*
X0230677Y0214847D01*
X0231678Y0214847D01*
X0231928Y0215097D01*
X0231928Y0215598D01*
X0231678Y0215848D01*
X0231928Y0216320D02*
X0230928Y0217321D01*
X0231928Y0217321D02*
X0231928Y0216320D01*
X0250271Y0223340D02*
X0250802Y0223871D01*
X0251156Y0223871D01*
X0251864Y0223163D01*
X0251864Y0222809D01*
X0251333Y0222278D01*
X0250271Y0223340D01*
X0251490Y0224205D02*
X0251667Y0224028D01*
X0252021Y0224028D01*
X0252375Y0224382D01*
X0252729Y0224382D01*
X0252905Y0224205D01*
X0252905Y0223851D01*
X0252552Y0223497D01*
X0252198Y0223497D01*
X0251490Y0224205D02*
X0251490Y0224558D01*
X0251844Y0224912D01*
X0252198Y0224912D01*
X0252532Y0225246D02*
X0252532Y0225600D01*
X0252886Y0225954D01*
X0253239Y0225954D01*
X0253416Y0225777D01*
X0253416Y0225423D01*
X0253770Y0225423D01*
X0253947Y0225246D01*
X0253947Y0224893D01*
X0253593Y0224539D01*
X0253239Y0224539D01*
X0253239Y0225246D02*
X0253416Y0225423D01*
X0266828Y0223668D02*
X0266828Y0222667D01*
X0267079Y0222417D01*
X0267579Y0222417D01*
X0267829Y0222667D01*
X0268302Y0222667D02*
X0268552Y0222417D01*
X0269052Y0222417D01*
X0269303Y0222667D01*
X0269303Y0223167D01*
X0269052Y0223418D01*
X0268802Y0223418D01*
X0268302Y0223167D01*
X0268302Y0223918D01*
X0269303Y0223918D01*
X0267829Y0223668D02*
X0267579Y0223918D01*
X0267079Y0223918D01*
X0266828Y0223668D01*
X0253578Y0233959D02*
X0252871Y0234667D01*
X0254286Y0234667D01*
X0254463Y0234844D01*
X0254463Y0235198D01*
X0254109Y0235552D01*
X0253755Y0235552D01*
X0253421Y0235886D02*
X0253421Y0236240D01*
X0253067Y0236593D01*
X0252714Y0236593D01*
X0252537Y0236417D01*
X0252537Y0236063D01*
X0252891Y0235709D01*
X0252891Y0235355D01*
X0252714Y0235178D01*
X0252360Y0235178D01*
X0252006Y0235532D01*
X0252006Y0235886D01*
X0251672Y0236220D02*
X0252380Y0236927D01*
X0252380Y0237281D01*
X0251849Y0237812D01*
X0250787Y0236751D01*
X0251318Y0236220D01*
X0251672Y0236220D01*
X0249264Y0237845D02*
X0248556Y0238553D01*
X0248910Y0238199D02*
X0249972Y0239260D01*
X0249264Y0239260D01*
X0249107Y0239771D02*
X0249107Y0240125D01*
X0248753Y0240479D01*
X0248399Y0240479D01*
X0248222Y0240302D01*
X0248222Y0239948D01*
X0248576Y0239594D01*
X0248576Y0239241D01*
X0248399Y0239064D01*
X0248045Y0239064D01*
X0247691Y0239417D01*
X0247691Y0239771D01*
X0247357Y0240105D02*
X0248065Y0240813D01*
X0248065Y0241167D01*
X0247534Y0241698D01*
X0246473Y0240636D01*
X0247004Y0240105D01*
X0247357Y0240105D01*
X0245487Y0244291D02*
X0244987Y0244291D01*
X0244736Y0244542D01*
X0244264Y0244542D02*
X0244014Y0244291D01*
X0243513Y0244291D01*
X0243263Y0244542D01*
X0243263Y0245042D02*
X0243763Y0245292D01*
X0244014Y0245292D01*
X0244264Y0245042D01*
X0244264Y0244542D01*
X0244736Y0245042D02*
X0245237Y0245292D01*
X0245487Y0245292D01*
X0245737Y0245042D01*
X0245737Y0244542D01*
X0245487Y0244291D01*
X0244736Y0245042D02*
X0244736Y0245793D01*
X0245737Y0245793D01*
X0244264Y0245793D02*
X0243263Y0245793D01*
X0243263Y0245042D01*
X0242791Y0245042D02*
X0242540Y0244792D01*
X0241790Y0244792D01*
X0241790Y0244291D02*
X0241790Y0245793D01*
X0242540Y0245793D01*
X0242791Y0245543D01*
X0242791Y0245042D01*
X0241317Y0245793D02*
X0240317Y0245793D01*
X0240817Y0245793D02*
X0240817Y0244291D01*
X0240187Y0246641D02*
X0239186Y0246641D01*
X0240187Y0247642D01*
X0240187Y0247893D01*
X0239937Y0248143D01*
X0239437Y0248143D01*
X0239186Y0247893D01*
X0238714Y0248143D02*
X0237713Y0248143D01*
X0237713Y0247392D01*
X0238213Y0247642D01*
X0238464Y0247642D01*
X0238714Y0247392D01*
X0238714Y0246892D01*
X0238464Y0246641D01*
X0237963Y0246641D01*
X0237713Y0246892D01*
X0237241Y0247392D02*
X0236990Y0247142D01*
X0236240Y0247142D01*
X0236240Y0246641D02*
X0236240Y0248143D01*
X0236990Y0248143D01*
X0237241Y0247893D01*
X0237241Y0247392D01*
X0235767Y0248143D02*
X0234767Y0248143D01*
X0235267Y0248143D02*
X0235267Y0246641D01*
X0235167Y0238393D02*
X0235167Y0236891D01*
X0236140Y0236891D02*
X0236140Y0238393D01*
X0236890Y0238393D01*
X0237141Y0238143D01*
X0237141Y0237642D01*
X0236890Y0237392D01*
X0236140Y0237392D01*
X0235667Y0238393D02*
X0234667Y0238393D01*
X0237613Y0238393D02*
X0237613Y0237642D01*
X0238113Y0237892D01*
X0238364Y0237892D01*
X0238614Y0237642D01*
X0238614Y0237142D01*
X0238364Y0236891D01*
X0237863Y0236891D01*
X0237613Y0237142D01*
X0237613Y0238393D02*
X0238614Y0238393D01*
X0239086Y0237642D02*
X0239837Y0237642D01*
X0240087Y0237392D01*
X0240087Y0237142D01*
X0239837Y0236891D01*
X0239337Y0236891D01*
X0239086Y0237142D01*
X0239086Y0237642D01*
X0239587Y0238143D01*
X0240087Y0238393D01*
X0265728Y0237018D02*
X0265728Y0236017D01*
X0265979Y0235767D01*
X0266479Y0235767D01*
X0266729Y0236017D01*
X0267202Y0236517D02*
X0268203Y0236517D01*
X0267952Y0235767D02*
X0267952Y0237268D01*
X0267202Y0236517D01*
X0266729Y0237018D02*
X0266479Y0237268D01*
X0265979Y0237268D01*
X0265728Y0237018D01*
X0291628Y0237667D02*
X0291879Y0237417D01*
X0292379Y0237417D01*
X0292629Y0237667D01*
X0293102Y0237667D02*
X0293102Y0237417D01*
X0293102Y0237667D02*
X0294103Y0238668D01*
X0294103Y0238918D01*
X0293102Y0238918D01*
X0292629Y0238668D02*
X0292379Y0238918D01*
X0291879Y0238918D01*
X0291628Y0238668D01*
X0291628Y0237667D01*
X0291779Y0225718D02*
X0291528Y0225468D01*
X0291528Y0224467D01*
X0291779Y0224217D01*
X0292279Y0224217D01*
X0292529Y0224467D01*
X0293002Y0224467D02*
X0293252Y0224217D01*
X0293752Y0224217D01*
X0294003Y0224467D01*
X0294003Y0224717D01*
X0293752Y0224967D01*
X0293002Y0224967D01*
X0293002Y0224467D01*
X0293002Y0224967D02*
X0293502Y0225468D01*
X0294003Y0225718D01*
X0292529Y0225468D02*
X0292279Y0225718D01*
X0291779Y0225718D01*
X0304677Y0242070D02*
X0305678Y0242070D01*
X0305928Y0242320D01*
X0305928Y0242821D01*
X0305678Y0243071D01*
X0305678Y0243543D02*
X0305428Y0243543D01*
X0305178Y0243794D01*
X0305178Y0244294D01*
X0305428Y0244544D01*
X0305678Y0244544D01*
X0305928Y0244294D01*
X0305928Y0243794D01*
X0305678Y0243543D01*
X0305178Y0243794D02*
X0304928Y0243543D01*
X0304677Y0243543D01*
X0304427Y0243794D01*
X0304427Y0244294D01*
X0304677Y0244544D01*
X0304928Y0244544D01*
X0305178Y0244294D01*
X0304677Y0243071D02*
X0304427Y0242821D01*
X0304427Y0242320D01*
X0304677Y0242070D01*
X0310427Y0246920D02*
X0310677Y0246920D01*
X0311178Y0247421D01*
X0311928Y0247421D01*
X0311178Y0247421D02*
X0310677Y0247921D01*
X0310427Y0247921D01*
X0310677Y0248393D02*
X0310427Y0248644D01*
X0310427Y0249144D01*
X0310677Y0249394D01*
X0310928Y0249394D01*
X0311928Y0248393D01*
X0311928Y0249394D01*
X0321882Y0246168D02*
X0321882Y0245167D01*
X0322132Y0244917D01*
X0322633Y0244917D01*
X0322883Y0245167D01*
X0323355Y0244917D02*
X0324356Y0244917D01*
X0323856Y0244917D02*
X0323856Y0246418D01*
X0323355Y0245918D01*
X0322883Y0246168D02*
X0322633Y0246418D01*
X0322132Y0246418D01*
X0321882Y0246168D01*
X0326629Y0253567D02*
X0326879Y0253567D01*
X0327129Y0253817D01*
X0327129Y0255068D01*
X0326879Y0255068D02*
X0327379Y0255068D01*
X0327852Y0254568D02*
X0328352Y0255068D01*
X0328352Y0253567D01*
X0327852Y0253567D02*
X0328853Y0253567D01*
X0326629Y0253567D02*
X0326378Y0253817D01*
X0335928Y0244268D02*
X0336679Y0244268D01*
X0336929Y0244018D01*
X0336929Y0243017D01*
X0336679Y0242767D01*
X0335928Y0242767D01*
X0335928Y0244268D01*
X0337402Y0244018D02*
X0337402Y0243768D01*
X0337652Y0243517D01*
X0338152Y0243517D01*
X0338403Y0243267D01*
X0338403Y0243017D01*
X0338152Y0242767D01*
X0337652Y0242767D01*
X0337402Y0243017D01*
X0337402Y0244018D02*
X0337652Y0244268D01*
X0338152Y0244268D01*
X0338403Y0244018D01*
X0338875Y0243768D02*
X0339375Y0244268D01*
X0339375Y0242767D01*
X0338875Y0242767D02*
X0339876Y0242767D01*
X0340348Y0243017D02*
X0340598Y0242767D01*
X0341099Y0242767D01*
X0341349Y0243017D01*
X0341349Y0243267D01*
X0341099Y0243517D01*
X0340849Y0243517D01*
X0341099Y0243517D02*
X0341349Y0243768D01*
X0341349Y0244018D01*
X0341099Y0244268D01*
X0340598Y0244268D01*
X0340348Y0244018D01*
X0341099Y0234268D02*
X0340348Y0233517D01*
X0341349Y0233517D01*
X0341099Y0232767D02*
X0341099Y0234268D01*
X0339375Y0234268D02*
X0339375Y0232767D01*
X0338875Y0232767D02*
X0339876Y0232767D01*
X0338875Y0233768D02*
X0339375Y0234268D01*
X0338403Y0234018D02*
X0338152Y0234268D01*
X0337652Y0234268D01*
X0337402Y0234018D01*
X0337402Y0233768D01*
X0337652Y0233517D01*
X0338152Y0233517D01*
X0338403Y0233267D01*
X0338403Y0233017D01*
X0338152Y0232767D01*
X0337652Y0232767D01*
X0337402Y0233017D01*
X0336929Y0233017D02*
X0336929Y0234018D01*
X0336679Y0234268D01*
X0335928Y0234268D01*
X0335928Y0232767D01*
X0336679Y0232767D01*
X0336929Y0233017D01*
X0336679Y0224268D02*
X0335928Y0224268D01*
X0335928Y0222767D01*
X0336679Y0222767D01*
X0336929Y0223017D01*
X0336929Y0224018D01*
X0336679Y0224268D01*
X0337402Y0224018D02*
X0337402Y0223768D01*
X0337652Y0223517D01*
X0338152Y0223517D01*
X0338403Y0223267D01*
X0338403Y0223017D01*
X0338152Y0222767D01*
X0337652Y0222767D01*
X0337402Y0223017D01*
X0337402Y0224018D02*
X0337652Y0224268D01*
X0338152Y0224268D01*
X0338403Y0224018D01*
X0338875Y0223768D02*
X0339375Y0224268D01*
X0339375Y0222767D01*
X0338875Y0222767D02*
X0339876Y0222767D01*
X0340348Y0223017D02*
X0340598Y0222767D01*
X0341099Y0222767D01*
X0341349Y0223017D01*
X0341349Y0223517D01*
X0341099Y0223768D01*
X0340849Y0223768D01*
X0340348Y0223517D01*
X0340348Y0224268D01*
X0341349Y0224268D01*
X0334506Y0205118D02*
X0334005Y0205118D01*
X0333755Y0204868D01*
X0333755Y0204618D01*
X0334005Y0204367D01*
X0334756Y0204367D01*
X0334756Y0203867D02*
X0334756Y0204868D01*
X0334506Y0205118D01*
X0333283Y0204868D02*
X0333033Y0205118D01*
X0332532Y0205118D01*
X0332282Y0204868D01*
X0332282Y0203867D01*
X0332532Y0203617D01*
X0333033Y0203617D01*
X0333283Y0203867D01*
X0333755Y0203867D02*
X0334005Y0203617D01*
X0334506Y0203617D01*
X0334756Y0203867D01*
X0318828Y0188541D02*
X0318828Y0187540D01*
X0317828Y0188541D01*
X0317577Y0188541D01*
X0317327Y0188291D01*
X0317327Y0187790D01*
X0317577Y0187540D01*
X0317327Y0187068D02*
X0318578Y0187068D01*
X0318828Y0186817D01*
X0318828Y0186317D01*
X0318578Y0186067D01*
X0317327Y0186067D01*
X0315728Y0186221D02*
X0315728Y0185220D01*
X0315728Y0185721D02*
X0314227Y0185721D01*
X0314728Y0185220D01*
X0314477Y0184748D02*
X0314227Y0184498D01*
X0314227Y0183997D01*
X0314477Y0183747D01*
X0315478Y0183747D01*
X0315728Y0183997D01*
X0315728Y0184498D01*
X0315478Y0184748D01*
X0315478Y0186693D02*
X0314477Y0187694D01*
X0315478Y0187694D01*
X0315728Y0187444D01*
X0315728Y0186944D01*
X0315478Y0186693D01*
X0314477Y0186693D01*
X0314227Y0186944D01*
X0314227Y0187444D01*
X0314477Y0187694D01*
X0301206Y0186349D02*
X0300955Y0186599D01*
X0300455Y0186599D01*
X0300205Y0186349D01*
X0301206Y0186349D02*
X0301206Y0186099D01*
X0300205Y0185098D01*
X0301206Y0185098D01*
X0299732Y0185098D02*
X0298732Y0185098D01*
X0299232Y0185098D02*
X0299232Y0186599D01*
X0298732Y0186099D01*
X0298259Y0186349D02*
X0298009Y0186599D01*
X0297509Y0186599D01*
X0297258Y0186349D01*
X0297258Y0185348D01*
X0297509Y0185098D01*
X0298009Y0185098D01*
X0298259Y0185348D01*
X0289706Y0185198D02*
X0288705Y0185198D01*
X0288232Y0185198D02*
X0287232Y0185198D01*
X0287732Y0185198D02*
X0287732Y0186699D01*
X0287232Y0186199D01*
X0286759Y0186449D02*
X0286509Y0186699D01*
X0286009Y0186699D01*
X0285758Y0186449D01*
X0285758Y0185448D01*
X0286009Y0185198D01*
X0286509Y0185198D01*
X0286759Y0185448D01*
X0288705Y0186199D02*
X0289205Y0186699D01*
X0289205Y0185198D01*
X0273128Y0204674D02*
X0273128Y0205424D01*
X0272878Y0205675D01*
X0271877Y0205675D01*
X0271627Y0205424D01*
X0271627Y0204674D01*
X0273128Y0204674D01*
X0272878Y0206147D02*
X0273128Y0206397D01*
X0273128Y0206898D01*
X0272878Y0207148D01*
X0272628Y0207148D01*
X0272378Y0206898D01*
X0272378Y0206397D01*
X0272128Y0206147D01*
X0271877Y0206147D01*
X0271627Y0206397D01*
X0271627Y0206898D01*
X0271877Y0207148D01*
X0272128Y0207620D02*
X0271627Y0208121D01*
X0273128Y0208121D01*
X0273128Y0208621D02*
X0273128Y0207620D01*
X0272878Y0209093D02*
X0271877Y0210094D01*
X0272878Y0210094D01*
X0273128Y0209844D01*
X0273128Y0209344D01*
X0272878Y0209093D01*
X0271877Y0209093D01*
X0271627Y0209344D01*
X0271627Y0209844D01*
X0271877Y0210094D01*
X0263128Y0210094D02*
X0263128Y0209093D01*
X0263128Y0208621D02*
X0263128Y0207620D01*
X0263128Y0208121D02*
X0261627Y0208121D01*
X0262128Y0207620D01*
X0261877Y0207148D02*
X0261627Y0206898D01*
X0261627Y0206397D01*
X0261877Y0206147D01*
X0262128Y0206147D01*
X0262378Y0206397D01*
X0262378Y0206898D01*
X0262628Y0207148D01*
X0262878Y0207148D01*
X0263128Y0206898D01*
X0263128Y0206397D01*
X0262878Y0206147D01*
X0262878Y0205675D02*
X0261877Y0205675D01*
X0261627Y0205424D01*
X0261627Y0204674D01*
X0263128Y0204674D01*
X0263128Y0205424D01*
X0262878Y0205675D01*
X0262128Y0209093D02*
X0261627Y0209594D01*
X0263128Y0209594D01*
X0253128Y0210094D02*
X0253128Y0209093D01*
X0252128Y0210094D01*
X0251877Y0210094D01*
X0251627Y0209844D01*
X0251627Y0209344D01*
X0251877Y0209093D01*
X0251627Y0208121D02*
X0253128Y0208121D01*
X0253128Y0208621D02*
X0253128Y0207620D01*
X0252878Y0207148D02*
X0253128Y0206898D01*
X0253128Y0206397D01*
X0252878Y0206147D01*
X0252878Y0205675D02*
X0251877Y0205675D01*
X0251627Y0205424D01*
X0251627Y0204674D01*
X0253128Y0204674D01*
X0253128Y0205424D01*
X0252878Y0205675D01*
X0252378Y0206397D02*
X0252378Y0206898D01*
X0252628Y0207148D01*
X0252878Y0207148D01*
X0252128Y0207620D02*
X0251627Y0208121D01*
X0251877Y0207148D02*
X0251627Y0206898D01*
X0251627Y0206397D01*
X0251877Y0206147D01*
X0252128Y0206147D01*
X0252378Y0206397D01*
X0205406Y0196818D02*
X0204405Y0196818D01*
X0204405Y0196067D01*
X0204906Y0196318D01*
X0205156Y0196318D01*
X0205406Y0196067D01*
X0205406Y0195567D01*
X0205156Y0195317D01*
X0204655Y0195317D01*
X0204405Y0195567D01*
X0203933Y0195317D02*
X0202932Y0195317D01*
X0202932Y0196818D01*
X0201603Y0193718D02*
X0201102Y0193468D01*
X0200602Y0192967D01*
X0201352Y0192967D01*
X0201603Y0192717D01*
X0201603Y0192467D01*
X0201352Y0192217D01*
X0200852Y0192217D01*
X0200602Y0192467D01*
X0200602Y0192967D01*
X0200129Y0192217D02*
X0199128Y0192217D01*
X0199128Y0193718D01*
X0198952Y0191268D02*
X0199203Y0191018D01*
X0199203Y0190768D01*
X0198952Y0190517D01*
X0199203Y0190267D01*
X0199203Y0190017D01*
X0198952Y0189767D01*
X0198452Y0189767D01*
X0198202Y0190017D01*
X0197729Y0190017D02*
X0197479Y0189767D01*
X0196979Y0189767D01*
X0196728Y0190017D01*
X0196728Y0191018D01*
X0196979Y0191268D01*
X0197479Y0191268D01*
X0197729Y0191018D01*
X0198202Y0191018D02*
X0198452Y0191268D01*
X0198952Y0191268D01*
X0198952Y0190517D02*
X0198702Y0190517D01*
X0199675Y0191018D02*
X0199925Y0191268D01*
X0200426Y0191268D01*
X0200676Y0191018D01*
X0200676Y0190768D01*
X0199675Y0189767D01*
X0200676Y0189767D01*
X0190428Y0185044D02*
X0190428Y0184043D01*
X0189428Y0185044D01*
X0189177Y0185044D01*
X0188927Y0184794D01*
X0188927Y0184294D01*
X0189177Y0184043D01*
X0188927Y0183571D02*
X0188927Y0182570D01*
X0190428Y0182570D01*
X0190428Y0183571D01*
X0189678Y0183071D02*
X0189678Y0182570D01*
X0189678Y0182098D02*
X0189678Y0181097D01*
X0189428Y0181097D02*
X0188927Y0181597D01*
X0189428Y0182098D01*
X0190428Y0182098D01*
X0190428Y0181097D02*
X0189428Y0181097D01*
X0186556Y0202667D02*
X0186055Y0202667D01*
X0185805Y0202917D01*
X0186806Y0203918D01*
X0186806Y0202917D01*
X0186556Y0202667D01*
X0185805Y0202917D02*
X0185805Y0203918D01*
X0186055Y0204168D01*
X0186556Y0204168D01*
X0186806Y0203918D01*
X0185333Y0203918D02*
X0185333Y0203668D01*
X0185083Y0203417D01*
X0185333Y0203167D01*
X0185333Y0202917D01*
X0185083Y0202667D01*
X0184582Y0202667D01*
X0184332Y0202917D01*
X0183860Y0202917D02*
X0183609Y0202667D01*
X0183109Y0202667D01*
X0182859Y0202917D01*
X0182859Y0203918D01*
X0183109Y0204168D01*
X0183609Y0204168D01*
X0183860Y0203918D01*
X0184332Y0203918D02*
X0184582Y0204168D01*
X0185083Y0204168D01*
X0185333Y0203918D01*
X0185083Y0203417D02*
X0184832Y0203417D01*
X0198377Y0223420D02*
X0198627Y0223420D01*
X0199128Y0223921D01*
X0199878Y0223921D01*
X0199128Y0223921D02*
X0198627Y0224421D01*
X0198377Y0224421D01*
X0199128Y0224893D02*
X0199128Y0225894D01*
X0199878Y0225644D02*
X0198377Y0225644D01*
X0199128Y0224893D01*
X0187226Y0230567D02*
X0187226Y0231568D01*
X0186976Y0231818D01*
X0186475Y0231818D01*
X0186225Y0231568D01*
X0186225Y0231318D01*
X0186475Y0231067D01*
X0187226Y0231067D01*
X0187226Y0230567D02*
X0186976Y0230317D01*
X0186475Y0230317D01*
X0186225Y0230567D01*
X0185753Y0230317D02*
X0184752Y0230317D01*
X0185753Y0231318D01*
X0185753Y0231568D01*
X0185502Y0231818D01*
X0185002Y0231818D01*
X0184752Y0231568D01*
X0184279Y0231568D02*
X0184029Y0231818D01*
X0183529Y0231818D01*
X0183278Y0231568D01*
X0183278Y0230567D01*
X0183529Y0230317D01*
X0184029Y0230317D01*
X0184279Y0230567D01*
X0215259Y0259117D02*
X0216009Y0259117D01*
X0216260Y0259367D01*
X0216260Y0260368D01*
X0216009Y0260618D01*
X0215259Y0260618D01*
X0215259Y0259117D01*
X0216732Y0259367D02*
X0216982Y0259117D01*
X0217483Y0259117D01*
X0217733Y0259367D01*
X0217733Y0259617D01*
X0217483Y0259867D01*
X0216982Y0259867D01*
X0216732Y0260118D01*
X0216732Y0260368D01*
X0216982Y0260618D01*
X0217483Y0260618D01*
X0217733Y0260368D01*
X0218205Y0259867D02*
X0219206Y0259867D01*
X0218956Y0259117D02*
X0218956Y0260618D01*
X0218205Y0259867D01*
X0218455Y0269117D02*
X0218205Y0269367D01*
X0218455Y0269117D02*
X0218956Y0269117D01*
X0219206Y0269367D01*
X0219206Y0269867D01*
X0218956Y0270118D01*
X0218706Y0270118D01*
X0218205Y0269867D01*
X0218205Y0270618D01*
X0219206Y0270618D01*
X0217733Y0270368D02*
X0217483Y0270618D01*
X0216982Y0270618D01*
X0216732Y0270368D01*
X0216732Y0270118D01*
X0216982Y0269867D01*
X0217483Y0269867D01*
X0217733Y0269617D01*
X0217733Y0269367D01*
X0217483Y0269117D01*
X0216982Y0269117D01*
X0216732Y0269367D01*
X0216260Y0269367D02*
X0216260Y0270368D01*
X0216009Y0270618D01*
X0215259Y0270618D01*
X0215259Y0269117D01*
X0216009Y0269117D01*
X0216260Y0269367D01*
X0216009Y0279117D02*
X0216260Y0279367D01*
X0216260Y0280368D01*
X0216009Y0280618D01*
X0215259Y0280618D01*
X0215259Y0279117D01*
X0216009Y0279117D01*
X0216732Y0279367D02*
X0216982Y0279117D01*
X0217483Y0279117D01*
X0217733Y0279367D01*
X0217733Y0279617D01*
X0217483Y0279867D01*
X0216982Y0279867D01*
X0216732Y0280118D01*
X0216732Y0280368D01*
X0216982Y0280618D01*
X0217483Y0280618D01*
X0217733Y0280368D01*
X0218205Y0279867D02*
X0218956Y0279867D01*
X0219206Y0279617D01*
X0219206Y0279367D01*
X0218956Y0279117D01*
X0218455Y0279117D01*
X0218205Y0279367D01*
X0218205Y0279867D01*
X0218706Y0280368D01*
X0219206Y0280618D01*
X0233979Y0296567D02*
X0234479Y0296567D01*
X0234729Y0296817D01*
X0235202Y0296567D02*
X0236203Y0296567D01*
X0235702Y0296567D02*
X0235702Y0298068D01*
X0235202Y0297568D01*
X0234729Y0297818D02*
X0234479Y0298068D01*
X0233979Y0298068D01*
X0233728Y0297818D01*
X0233728Y0296817D01*
X0233979Y0296567D01*
X0236675Y0296817D02*
X0236925Y0296567D01*
X0237426Y0296567D01*
X0237676Y0296817D01*
X0237676Y0297317D01*
X0237426Y0297568D01*
X0237175Y0297568D01*
X0236675Y0297317D01*
X0236675Y0298068D01*
X0237676Y0298068D01*
X0246427Y0297090D02*
X0247928Y0297090D01*
X0247928Y0296590D02*
X0247928Y0297591D01*
X0247678Y0298063D02*
X0247928Y0298313D01*
X0247928Y0298814D01*
X0247678Y0299064D01*
X0247428Y0299064D01*
X0247178Y0298814D01*
X0247178Y0298063D01*
X0247678Y0298063D01*
X0247178Y0298063D02*
X0246677Y0298564D01*
X0246427Y0299064D01*
X0246427Y0297090D02*
X0246928Y0296590D01*
X0246677Y0296118D02*
X0246427Y0295867D01*
X0246427Y0295367D01*
X0246677Y0295117D01*
X0247678Y0295117D01*
X0247928Y0295367D01*
X0247928Y0295867D01*
X0247678Y0296118D01*
X0245368Y0290343D02*
X0245368Y0288842D01*
X0245868Y0288842D02*
X0244867Y0288842D01*
X0244145Y0288842D02*
X0244145Y0290343D01*
X0243394Y0289593D01*
X0244395Y0289593D01*
X0244867Y0289843D02*
X0245368Y0290343D01*
X0242921Y0290093D02*
X0242921Y0289593D01*
X0242671Y0289342D01*
X0241921Y0289342D01*
X0241921Y0288842D02*
X0241921Y0290343D01*
X0242671Y0290343D01*
X0242921Y0290093D01*
X0241448Y0290343D02*
X0240447Y0290343D01*
X0240948Y0290343D02*
X0240948Y0288842D01*
X0243097Y0286893D02*
X0244098Y0286893D01*
X0244571Y0286893D02*
X0245321Y0286893D01*
X0245571Y0286643D01*
X0245571Y0286143D01*
X0245321Y0285892D01*
X0244571Y0285892D01*
X0244571Y0285392D02*
X0244571Y0286893D01*
X0243598Y0286893D02*
X0243598Y0285392D01*
X0246044Y0286143D02*
X0247045Y0286143D01*
X0247517Y0286643D02*
X0247767Y0286893D01*
X0248268Y0286893D01*
X0248518Y0286643D01*
X0248518Y0286393D01*
X0248268Y0286143D01*
X0248518Y0285892D01*
X0248518Y0285642D01*
X0248268Y0285392D01*
X0247767Y0285392D01*
X0247517Y0285642D01*
X0248018Y0286143D02*
X0248268Y0286143D01*
X0246795Y0286893D02*
X0246044Y0286143D01*
X0246795Y0286893D02*
X0246795Y0285392D01*
X0255178Y0289817D02*
X0255429Y0289567D01*
X0255929Y0289567D01*
X0256179Y0289817D01*
X0256652Y0289567D02*
X0257653Y0290568D01*
X0257653Y0290818D01*
X0257402Y0291068D01*
X0256902Y0291068D01*
X0256652Y0290818D01*
X0256179Y0290818D02*
X0255929Y0291068D01*
X0255429Y0291068D01*
X0255178Y0290818D01*
X0255178Y0289817D01*
X0256652Y0289567D02*
X0257653Y0289567D01*
X0276498Y0305492D02*
X0276498Y0306993D01*
X0276998Y0306993D02*
X0275997Y0306993D01*
X0277471Y0306993D02*
X0277471Y0305492D01*
X0277471Y0305992D02*
X0278221Y0305992D01*
X0278471Y0306243D01*
X0278471Y0306743D01*
X0278221Y0306993D01*
X0277471Y0306993D01*
X0278944Y0306243D02*
X0279695Y0306993D01*
X0279695Y0305492D01*
X0280417Y0305742D02*
X0280667Y0305492D01*
X0281168Y0305492D01*
X0281418Y0305742D01*
X0281418Y0306243D01*
X0281168Y0306493D01*
X0280918Y0306493D01*
X0280417Y0306243D01*
X0280417Y0306993D01*
X0281418Y0306993D01*
X0279945Y0306243D02*
X0278944Y0306243D01*
X0278618Y0310092D02*
X0278618Y0311593D01*
X0277867Y0310843D01*
X0278868Y0310843D01*
X0277395Y0310843D02*
X0276394Y0310843D01*
X0277145Y0311593D01*
X0277145Y0310092D01*
X0275921Y0310843D02*
X0275921Y0311343D01*
X0275671Y0311593D01*
X0274921Y0311593D01*
X0274921Y0310092D01*
X0274921Y0310592D02*
X0275671Y0310592D01*
X0275921Y0310843D01*
X0274448Y0311593D02*
X0273447Y0311593D01*
X0273948Y0311593D02*
X0273948Y0310092D01*
X0284497Y0303943D02*
X0285498Y0303943D01*
X0285971Y0303943D02*
X0286721Y0303943D01*
X0286971Y0303693D01*
X0286971Y0303193D01*
X0286721Y0302942D01*
X0285971Y0302942D01*
X0285971Y0302442D02*
X0285971Y0303943D01*
X0284998Y0303943D02*
X0284998Y0302442D01*
X0287444Y0303193D02*
X0288445Y0303193D01*
X0288917Y0302692D02*
X0288917Y0302442D01*
X0288917Y0302692D02*
X0289918Y0303693D01*
X0289918Y0303943D01*
X0288917Y0303943D01*
X0288195Y0303943D02*
X0287444Y0303193D01*
X0288195Y0303943D02*
X0288195Y0302442D01*
X0293052Y0306686D02*
X0293052Y0307686D01*
X0293052Y0308159D02*
X0293052Y0308909D01*
X0293302Y0309160D01*
X0293803Y0309160D01*
X0294053Y0308909D01*
X0294053Y0308159D01*
X0294553Y0308159D02*
X0293052Y0308159D01*
X0293052Y0307186D02*
X0294553Y0307186D01*
X0293803Y0309632D02*
X0293803Y0310633D01*
X0293552Y0311105D02*
X0293803Y0311356D01*
X0293803Y0312106D01*
X0294303Y0312106D02*
X0293302Y0312106D01*
X0293052Y0311856D01*
X0293052Y0311356D01*
X0293302Y0311105D01*
X0293552Y0311105D01*
X0294303Y0311105D02*
X0294553Y0311356D01*
X0294553Y0311856D01*
X0294303Y0312106D01*
X0294553Y0310383D02*
X0293052Y0310383D01*
X0293803Y0309632D01*
X0291468Y0316942D02*
X0291718Y0317192D01*
X0291718Y0317442D01*
X0291468Y0317693D01*
X0290717Y0317693D01*
X0290717Y0317192D01*
X0290967Y0316942D01*
X0291468Y0316942D01*
X0290717Y0317693D02*
X0291218Y0318193D01*
X0291718Y0318443D01*
X0290245Y0317693D02*
X0289244Y0317693D01*
X0289995Y0318443D01*
X0289995Y0316942D01*
X0288771Y0317693D02*
X0288521Y0317442D01*
X0287771Y0317442D01*
X0287771Y0316942D02*
X0287771Y0318443D01*
X0288521Y0318443D01*
X0288771Y0318193D01*
X0288771Y0317693D01*
X0287298Y0318443D02*
X0286297Y0318443D01*
X0286798Y0318443D02*
X0286798Y0316942D01*
X0293247Y0298293D02*
X0294248Y0298293D01*
X0294721Y0298293D02*
X0295471Y0298293D01*
X0295721Y0298043D01*
X0295721Y0297543D01*
X0295471Y0297292D01*
X0294721Y0297292D01*
X0294721Y0296792D02*
X0294721Y0298293D01*
X0293748Y0298293D02*
X0293748Y0296792D01*
X0296194Y0297042D02*
X0296444Y0296792D01*
X0296945Y0296792D01*
X0297195Y0297042D01*
X0297195Y0297543D01*
X0296945Y0297793D01*
X0296694Y0297793D01*
X0296194Y0297543D01*
X0296194Y0298293D01*
X0297195Y0298293D01*
X0297667Y0298043D02*
X0297917Y0298293D01*
X0298418Y0298293D01*
X0298668Y0298043D01*
X0297667Y0297042D01*
X0297917Y0296792D01*
X0298418Y0296792D01*
X0298668Y0297042D01*
X0298668Y0298043D01*
X0297667Y0298043D02*
X0297667Y0297042D01*
X0298978Y0294468D02*
X0298978Y0294218D01*
X0299479Y0293717D01*
X0299479Y0292967D01*
X0299479Y0293717D02*
X0299979Y0294218D01*
X0299979Y0294468D01*
X0300452Y0293968D02*
X0300952Y0294468D01*
X0300952Y0292967D01*
X0300452Y0292967D02*
X0301453Y0292967D01*
X0300871Y0300242D02*
X0300871Y0301743D01*
X0301621Y0301743D01*
X0301871Y0301493D01*
X0301871Y0300993D01*
X0301621Y0300742D01*
X0300871Y0300742D01*
X0299898Y0300242D02*
X0299898Y0301743D01*
X0300398Y0301743D02*
X0299397Y0301743D01*
X0302344Y0300993D02*
X0303345Y0300993D01*
X0303817Y0301243D02*
X0303817Y0301493D01*
X0304067Y0301743D01*
X0304568Y0301743D01*
X0304818Y0301493D01*
X0304818Y0301243D01*
X0304568Y0300993D01*
X0304067Y0300993D01*
X0303817Y0301243D01*
X0304067Y0300993D02*
X0303817Y0300742D01*
X0303817Y0300492D01*
X0304067Y0300242D01*
X0304568Y0300242D01*
X0304818Y0300492D01*
X0304818Y0300742D01*
X0304568Y0300993D01*
X0303095Y0301743D02*
X0302344Y0300993D01*
X0303095Y0301743D02*
X0303095Y0300242D01*
X0345827Y0308967D02*
X0346077Y0308967D01*
X0346578Y0309467D01*
X0347328Y0309467D01*
X0346578Y0309467D02*
X0346077Y0309968D01*
X0345827Y0309968D01*
X0346077Y0310440D02*
X0345827Y0310690D01*
X0345827Y0311191D01*
X0346077Y0311441D01*
X0346328Y0311441D01*
X0346578Y0311191D01*
X0346828Y0311441D01*
X0347078Y0311441D01*
X0347328Y0311191D01*
X0347328Y0310690D01*
X0347078Y0310440D01*
X0346578Y0310940D02*
X0346578Y0311191D01*
X0360427Y0306094D02*
X0361178Y0305343D01*
X0361178Y0306344D01*
X0361928Y0306094D02*
X0360427Y0306094D01*
X0360677Y0304871D02*
X0360427Y0304621D01*
X0360427Y0304120D01*
X0360677Y0303870D01*
X0360677Y0303398D02*
X0360427Y0303148D01*
X0360427Y0302647D01*
X0360677Y0302397D01*
X0361678Y0302397D01*
X0361928Y0302647D01*
X0361928Y0303148D01*
X0361678Y0303398D01*
X0361928Y0303870D02*
X0360928Y0304871D01*
X0360677Y0304871D01*
X0361928Y0304871D02*
X0361928Y0303870D01*
X0364029Y0328217D02*
X0364529Y0328217D01*
X0364779Y0328467D01*
X0365252Y0328217D02*
X0366253Y0329218D01*
X0366253Y0329468D01*
X0366002Y0329718D01*
X0365502Y0329718D01*
X0365252Y0329468D01*
X0364779Y0329468D02*
X0364529Y0329718D01*
X0364029Y0329718D01*
X0363778Y0329468D01*
X0363778Y0328467D01*
X0364029Y0328217D01*
X0365252Y0328217D02*
X0366253Y0328217D01*
X0366725Y0328467D02*
X0367726Y0329468D01*
X0367726Y0328467D01*
X0367476Y0328217D01*
X0366975Y0328217D01*
X0366725Y0328467D01*
X0366725Y0329468D01*
X0366975Y0329718D01*
X0367476Y0329718D01*
X0367726Y0329468D01*
X0367975Y0341517D02*
X0368476Y0341517D01*
X0368726Y0341767D01*
X0368726Y0342768D01*
X0368476Y0343018D01*
X0367975Y0343018D01*
X0367725Y0342768D01*
X0367725Y0342518D01*
X0367975Y0342267D01*
X0368726Y0342267D01*
X0367975Y0341517D02*
X0367725Y0341767D01*
X0367253Y0341517D02*
X0366252Y0341517D01*
X0366752Y0341517D02*
X0366752Y0343018D01*
X0366252Y0342518D01*
X0365779Y0342768D02*
X0365529Y0343018D01*
X0365029Y0343018D01*
X0364778Y0342768D01*
X0364778Y0341767D01*
X0365029Y0341517D01*
X0365529Y0341517D01*
X0365779Y0341767D01*
X0357878Y0352467D02*
X0357878Y0368967D01*
X0377878Y0368967D01*
X0377878Y0352467D01*
X0357878Y0352467D01*
X0349631Y0352426D02*
X0349631Y0352072D01*
X0349278Y0351718D01*
X0348924Y0351718D01*
X0348747Y0351895D01*
X0348747Y0352249D01*
X0349101Y0352603D01*
X0349454Y0352603D01*
X0349631Y0352426D01*
X0349101Y0352603D02*
X0349101Y0352956D01*
X0348924Y0353133D01*
X0348570Y0353133D01*
X0348216Y0352780D01*
X0348216Y0352426D01*
X0348393Y0352249D01*
X0348747Y0352249D01*
X0348767Y0351207D02*
X0348059Y0350499D01*
X0348413Y0350853D02*
X0347351Y0351915D01*
X0347351Y0351207D01*
X0346840Y0351050D02*
X0346486Y0351050D01*
X0346132Y0350696D01*
X0346132Y0350342D01*
X0346840Y0349634D01*
X0347194Y0349634D01*
X0347548Y0349988D01*
X0347548Y0350342D01*
X0341853Y0355890D02*
X0341676Y0355713D01*
X0341323Y0355713D01*
X0340969Y0356066D01*
X0340969Y0356420D01*
X0340458Y0356577D02*
X0339750Y0357285D01*
X0340812Y0358347D01*
X0341676Y0357128D02*
X0342030Y0357128D01*
X0342384Y0356774D01*
X0342384Y0356420D01*
X0342207Y0356243D01*
X0341853Y0356243D01*
X0341853Y0355890D01*
X0341853Y0356243D02*
X0341676Y0356420D01*
X0333797Y0349332D02*
X0333089Y0348624D01*
X0333089Y0349686D01*
X0334151Y0348624D01*
X0333286Y0347759D02*
X0332579Y0347051D01*
X0331517Y0348113D01*
X0323356Y0347967D02*
X0322355Y0347967D01*
X0321883Y0347967D02*
X0320882Y0347967D01*
X0321883Y0348968D01*
X0321883Y0349218D01*
X0321633Y0349468D01*
X0321132Y0349468D01*
X0320882Y0349218D01*
X0320410Y0349218D02*
X0320159Y0349468D01*
X0319659Y0349468D01*
X0319409Y0349218D01*
X0319409Y0348217D01*
X0319659Y0347967D01*
X0320159Y0347967D01*
X0320410Y0348217D01*
X0322355Y0348968D02*
X0322856Y0349468D01*
X0322856Y0347967D01*
X0312776Y0348167D02*
X0311775Y0348167D01*
X0312776Y0349168D01*
X0312776Y0349418D01*
X0312526Y0349668D01*
X0312025Y0349668D01*
X0311775Y0349418D01*
X0311303Y0349418D02*
X0311052Y0349668D01*
X0310552Y0349668D01*
X0310302Y0349418D01*
X0309829Y0349418D02*
X0309579Y0349668D01*
X0309079Y0349668D01*
X0308828Y0349418D01*
X0308828Y0348417D01*
X0309079Y0348167D01*
X0309579Y0348167D01*
X0309829Y0348417D01*
X0310302Y0348167D02*
X0311303Y0349168D01*
X0311303Y0349418D01*
X0311303Y0348167D02*
X0310302Y0348167D01*
X0338578Y0339568D02*
X0338578Y0338317D01*
X0338829Y0338067D01*
X0339329Y0338067D01*
X0339579Y0338317D01*
X0339579Y0339568D01*
X0340052Y0338817D02*
X0340802Y0338817D01*
X0341053Y0338567D01*
X0341053Y0338317D01*
X0340802Y0338067D01*
X0340302Y0338067D01*
X0340052Y0338317D01*
X0340052Y0338817D01*
X0340552Y0339318D01*
X0341053Y0339568D01*
X0346227Y0334564D02*
X0346477Y0334814D01*
X0346728Y0334814D01*
X0346978Y0334564D01*
X0347228Y0334814D01*
X0347478Y0334814D01*
X0347728Y0334564D01*
X0347728Y0334063D01*
X0347478Y0333813D01*
X0347728Y0333341D02*
X0347728Y0332340D01*
X0346728Y0333341D01*
X0346477Y0333341D01*
X0346227Y0333091D01*
X0346227Y0332590D01*
X0346477Y0332340D01*
X0346477Y0331868D02*
X0346227Y0331617D01*
X0346227Y0331117D01*
X0346477Y0330867D01*
X0347478Y0330867D01*
X0347728Y0331117D01*
X0347728Y0331617D01*
X0347478Y0331868D01*
X0346477Y0333813D02*
X0346227Y0334063D01*
X0346227Y0334564D01*
X0346978Y0334564D02*
X0346978Y0334314D01*
X0367409Y0355317D02*
X0367409Y0356318D01*
X0367909Y0356818D01*
X0368410Y0356318D01*
X0368410Y0355317D01*
X0368882Y0355317D02*
X0369883Y0355317D01*
X0370355Y0355317D02*
X0371356Y0355317D01*
X0370856Y0355317D02*
X0370856Y0356818D01*
X0370355Y0356318D01*
X0369883Y0356818D02*
X0368882Y0356818D01*
X0368882Y0355317D01*
X0368882Y0356067D02*
X0369382Y0356067D01*
X0368410Y0356067D02*
X0367409Y0356067D01*
X0257078Y0332464D02*
X0256828Y0332714D01*
X0255827Y0332714D01*
X0255577Y0332464D01*
X0255577Y0331963D01*
X0255827Y0331713D01*
X0256078Y0331713D01*
X0256328Y0331963D01*
X0256328Y0332714D01*
X0257078Y0332464D02*
X0257078Y0331963D01*
X0256828Y0331713D01*
X0256828Y0331241D02*
X0257078Y0330991D01*
X0257078Y0330490D01*
X0256828Y0330240D01*
X0256828Y0329768D02*
X0255827Y0329768D01*
X0255577Y0329517D01*
X0255577Y0328767D01*
X0257078Y0328767D01*
X0257078Y0329517D01*
X0256828Y0329768D01*
X0256328Y0330490D02*
X0256328Y0330991D01*
X0256578Y0331241D01*
X0256828Y0331241D01*
X0256328Y0330490D02*
X0256078Y0330240D01*
X0255827Y0330240D01*
X0255577Y0330490D01*
X0255577Y0330991D01*
X0255827Y0331241D01*
X0247078Y0330991D02*
X0247078Y0330490D01*
X0246828Y0330240D01*
X0246828Y0329768D02*
X0245827Y0329768D01*
X0245577Y0329517D01*
X0245577Y0328767D01*
X0247078Y0328767D01*
X0247078Y0329517D01*
X0246828Y0329768D01*
X0246328Y0330490D02*
X0246328Y0330991D01*
X0246578Y0331241D01*
X0246828Y0331241D01*
X0247078Y0330991D01*
X0246828Y0331713D02*
X0246578Y0331713D01*
X0246328Y0331963D01*
X0246328Y0332464D01*
X0246578Y0332714D01*
X0246828Y0332714D01*
X0247078Y0332464D01*
X0247078Y0331963D01*
X0246828Y0331713D01*
X0246328Y0331963D02*
X0246078Y0331713D01*
X0245827Y0331713D01*
X0245577Y0331963D01*
X0245577Y0332464D01*
X0245827Y0332714D01*
X0246078Y0332714D01*
X0246328Y0332464D01*
X0245827Y0331241D02*
X0245577Y0330991D01*
X0245577Y0330490D01*
X0245827Y0330240D01*
X0246078Y0330240D01*
X0246328Y0330490D01*
X0237078Y0330490D02*
X0236828Y0330240D01*
X0237078Y0330490D02*
X0237078Y0330991D01*
X0236828Y0331241D01*
X0236578Y0331241D01*
X0236328Y0330991D01*
X0236328Y0330490D01*
X0236078Y0330240D01*
X0235827Y0330240D01*
X0235577Y0330490D01*
X0235577Y0330991D01*
X0235827Y0331241D01*
X0235577Y0331713D02*
X0235577Y0332714D01*
X0235827Y0332714D01*
X0236828Y0331713D01*
X0237078Y0331713D01*
X0236828Y0329768D02*
X0235827Y0329768D01*
X0235577Y0329517D01*
X0235577Y0328767D01*
X0237078Y0328767D01*
X0237078Y0329517D01*
X0236828Y0329768D01*
X0248447Y0317693D02*
X0249448Y0317693D01*
X0249921Y0317693D02*
X0250671Y0317693D01*
X0250921Y0317443D01*
X0250921Y0316943D01*
X0250671Y0316692D01*
X0249921Y0316692D01*
X0249921Y0316192D02*
X0249921Y0317693D01*
X0248948Y0317693D02*
X0248948Y0316192D01*
X0251394Y0316943D02*
X0252395Y0316943D01*
X0252867Y0317443D02*
X0253117Y0317693D01*
X0253618Y0317693D01*
X0253868Y0317443D01*
X0253868Y0317193D01*
X0252867Y0316192D01*
X0253868Y0316192D01*
X0252145Y0316192D02*
X0252145Y0317693D01*
X0251394Y0316943D01*
X0225428Y0304693D02*
X0225178Y0304693D01*
X0224177Y0305694D01*
X0223927Y0305694D01*
X0223927Y0304693D01*
X0223927Y0303721D02*
X0225428Y0303721D01*
X0225428Y0304221D02*
X0225428Y0303220D01*
X0225178Y0302748D02*
X0225428Y0302498D01*
X0225428Y0301997D01*
X0225178Y0301747D01*
X0224177Y0301747D01*
X0223927Y0301997D01*
X0223927Y0302498D01*
X0224177Y0302748D01*
X0224428Y0303220D02*
X0223927Y0303721D01*
X0191078Y0338497D02*
X0191328Y0338747D01*
X0191328Y0339248D01*
X0191078Y0339498D01*
X0191328Y0339970D02*
X0191328Y0340971D01*
X0191328Y0340471D02*
X0189827Y0340471D01*
X0190328Y0339970D01*
X0190077Y0339498D02*
X0189827Y0339248D01*
X0189827Y0338747D01*
X0190077Y0338497D01*
X0191078Y0338497D01*
X0191078Y0341443D02*
X0191328Y0341694D01*
X0191328Y0342194D01*
X0191078Y0342444D01*
X0190828Y0342444D01*
X0190578Y0342194D01*
X0190578Y0341944D01*
X0190578Y0342194D02*
X0190328Y0342444D01*
X0190077Y0342444D01*
X0189827Y0342194D01*
X0189827Y0341694D01*
X0190077Y0341443D01*
X0180154Y0341605D02*
X0178652Y0341605D01*
X0178652Y0341105D02*
X0178652Y0342106D01*
X0178652Y0342578D02*
X0178652Y0343329D01*
X0178903Y0343579D01*
X0179403Y0343579D01*
X0179653Y0343329D01*
X0179653Y0342578D01*
X0180154Y0342578D02*
X0178652Y0342578D01*
X0178903Y0344051D02*
X0178652Y0344301D01*
X0178652Y0344802D01*
X0178903Y0345052D01*
X0179153Y0345052D01*
X0179403Y0344802D01*
X0179653Y0345052D01*
X0179903Y0345052D01*
X0180154Y0344802D01*
X0180154Y0344301D01*
X0179903Y0344051D01*
X0179403Y0344552D02*
X0179403Y0344802D01*
X0179903Y0345525D02*
X0180154Y0345525D01*
X0179903Y0345525D02*
X0178903Y0346525D01*
X0178652Y0346525D01*
X0178652Y0345525D01*
X0178652Y0347986D02*
X0178652Y0348986D01*
X0178652Y0349459D02*
X0178652Y0350209D01*
X0178902Y0350460D01*
X0179403Y0350460D01*
X0179653Y0350209D01*
X0179653Y0349459D01*
X0180153Y0349459D02*
X0178652Y0349459D01*
X0178652Y0348486D02*
X0180153Y0348486D01*
X0179903Y0350932D02*
X0180153Y0351182D01*
X0180153Y0351683D01*
X0179903Y0351933D01*
X0179653Y0351933D01*
X0179403Y0351683D01*
X0179403Y0351433D01*
X0179403Y0351683D02*
X0179152Y0351933D01*
X0178902Y0351933D01*
X0178652Y0351683D01*
X0178652Y0351182D01*
X0178902Y0350932D01*
X0178902Y0352405D02*
X0178652Y0352656D01*
X0178652Y0353156D01*
X0178902Y0353406D01*
X0179152Y0353406D01*
X0179403Y0353156D01*
X0179403Y0352656D01*
X0179152Y0352405D01*
X0178902Y0352405D01*
X0179403Y0352656D02*
X0179653Y0352405D01*
X0179903Y0352405D01*
X0180153Y0352656D01*
X0180153Y0353156D01*
X0179903Y0353406D01*
X0179653Y0353406D01*
X0179403Y0353156D01*
X0184047Y0354743D02*
X0185048Y0354743D01*
X0185521Y0354743D02*
X0186271Y0354743D01*
X0186521Y0354493D01*
X0186521Y0353993D01*
X0186271Y0353742D01*
X0185521Y0353742D01*
X0185521Y0353242D02*
X0185521Y0354743D01*
X0184548Y0354743D02*
X0184548Y0353242D01*
X0186994Y0353492D02*
X0187244Y0353242D01*
X0187745Y0353242D01*
X0187995Y0353492D01*
X0187995Y0353742D01*
X0187745Y0353993D01*
X0187494Y0353993D01*
X0187745Y0353993D02*
X0187995Y0354243D01*
X0187995Y0354493D01*
X0187745Y0354743D01*
X0187244Y0354743D01*
X0186994Y0354493D01*
X0188467Y0354493D02*
X0188467Y0354243D01*
X0188717Y0353993D01*
X0189468Y0353993D01*
X0189468Y0354493D02*
X0189218Y0354743D01*
X0188717Y0354743D01*
X0188467Y0354493D01*
X0188467Y0353492D02*
X0188717Y0353242D01*
X0189218Y0353242D01*
X0189468Y0353492D01*
X0189468Y0354493D01*
X0301427Y0274191D02*
X0301677Y0274441D01*
X0301928Y0274441D01*
X0302178Y0274191D01*
X0302428Y0274441D01*
X0302678Y0274441D01*
X0302928Y0274191D01*
X0302928Y0273690D01*
X0302678Y0273440D01*
X0302678Y0272968D02*
X0302928Y0272717D01*
X0302928Y0272217D01*
X0302678Y0271967D01*
X0301677Y0271967D01*
X0301427Y0272217D01*
X0301427Y0272717D01*
X0301677Y0272968D01*
X0301677Y0273440D02*
X0301427Y0273690D01*
X0301427Y0274191D01*
X0302178Y0274191D02*
X0302178Y0273940D01*
X0308847Y0269493D02*
X0309848Y0269493D01*
X0310321Y0269493D02*
X0311071Y0269493D01*
X0311321Y0269243D01*
X0311321Y0268743D01*
X0311071Y0268492D01*
X0310321Y0268492D01*
X0310321Y0267992D02*
X0310321Y0269493D01*
X0309348Y0269493D02*
X0309348Y0267992D01*
X0311794Y0268743D02*
X0312795Y0268743D01*
X0313267Y0269243D02*
X0313517Y0269493D01*
X0314018Y0269493D01*
X0314268Y0269243D01*
X0313267Y0268242D01*
X0313517Y0267992D01*
X0314018Y0267992D01*
X0314268Y0268242D01*
X0314268Y0269243D01*
X0313267Y0269243D02*
X0313267Y0268242D01*
X0312545Y0267992D02*
X0312545Y0269493D01*
X0311794Y0268743D01*
X0344078Y0273267D02*
X0344329Y0273017D01*
X0344829Y0273017D01*
X0345079Y0273267D01*
X0345552Y0273017D02*
X0346553Y0273017D01*
X0346052Y0273017D02*
X0346052Y0274518D01*
X0345552Y0274018D01*
X0345079Y0274268D02*
X0344829Y0274518D01*
X0344329Y0274518D01*
X0344078Y0274268D01*
X0344078Y0273267D01*
X0347025Y0273767D02*
X0348026Y0273767D01*
X0347776Y0273017D02*
X0347776Y0274518D01*
X0347025Y0273767D01*
X0349432Y0275267D02*
X0349682Y0275017D01*
X0350183Y0275017D01*
X0350433Y0275267D01*
X0350433Y0276518D01*
X0350905Y0275767D02*
X0351906Y0275767D01*
X0351656Y0275017D02*
X0351656Y0276518D01*
X0350905Y0275767D01*
X0349432Y0275267D02*
X0349432Y0276518D01*
X0372479Y0207268D02*
X0372228Y0207018D01*
X0372228Y0206768D01*
X0372479Y0206517D01*
X0372979Y0206517D01*
X0373229Y0206267D01*
X0373229Y0206017D01*
X0372979Y0205767D01*
X0372479Y0205767D01*
X0372228Y0206017D01*
X0372479Y0207268D02*
X0372979Y0207268D01*
X0373229Y0207018D01*
X0373702Y0206768D02*
X0374202Y0207268D01*
X0374202Y0205767D01*
X0373702Y0205767D02*
X0374703Y0205767D01*
D12*
X0375097Y0202547D02*
X0375097Y0181287D01*
X0371160Y0178728D02*
X0368797Y0178728D01*
X0364860Y0186011D02*
X0364860Y0191917D01*
X0368797Y0205106D02*
X0371160Y0205106D01*
X0333828Y0220369D02*
X0329024Y0220369D01*
X0331426Y0217967D01*
X0331426Y0221169D01*
X0331426Y0227667D02*
X0330626Y0229268D01*
X0330626Y0230069D01*
X0331426Y0230869D01*
X0333028Y0230869D01*
X0333828Y0230069D01*
X0333828Y0228467D01*
X0333028Y0227667D01*
X0331426Y0227667D02*
X0329024Y0227667D01*
X0329024Y0230869D01*
X0331426Y0237767D02*
X0331426Y0240169D01*
X0332227Y0240969D01*
X0333028Y0240969D01*
X0333828Y0240169D01*
X0333828Y0238567D01*
X0333028Y0237767D01*
X0331426Y0237767D01*
X0329825Y0239368D01*
X0329024Y0240969D01*
X0354328Y0251369D02*
X0357531Y0251369D01*
X0355930Y0252970D02*
X0355930Y0249767D01*
X0359485Y0248967D02*
X0362688Y0253771D01*
X0359485Y0253771D02*
X0362688Y0248967D01*
X0293564Y0243782D02*
X0293564Y0283152D01*
X0254193Y0283152D01*
X0254193Y0247719D01*
X0258130Y0243782D01*
X0293564Y0243782D01*
X0286365Y0237050D02*
X0278491Y0237050D01*
X0278491Y0222483D01*
X0286365Y0222483D01*
X0286365Y0237050D01*
X0268731Y0216571D02*
X0267129Y0216571D01*
X0266328Y0215770D01*
X0267930Y0214169D02*
X0268731Y0214169D01*
X0269531Y0213368D01*
X0269531Y0212567D01*
X0268731Y0211767D01*
X0267129Y0211767D01*
X0266328Y0212567D01*
X0268731Y0214169D02*
X0269531Y0214969D01*
X0269531Y0215770D01*
X0268731Y0216571D01*
X0259731Y0215770D02*
X0258931Y0216571D01*
X0257329Y0216571D01*
X0256528Y0215770D01*
X0259731Y0215770D02*
X0259731Y0214969D01*
X0256528Y0211767D01*
X0259731Y0211767D01*
X0249181Y0211767D02*
X0245978Y0211767D01*
X0247580Y0211767D02*
X0247580Y0216571D01*
X0245978Y0214969D01*
X0251261Y0226859D02*
X0251473Y0228373D01*
X0252753Y0227092D01*
X0251473Y0228373D02*
X0250192Y0229653D01*
X0249218Y0230628D02*
X0247937Y0231908D01*
X0247725Y0230394D01*
X0247937Y0231908D02*
X0246657Y0233189D01*
X0245682Y0234163D02*
X0244402Y0235444D01*
X0244190Y0233930D01*
X0244402Y0235444D02*
X0243121Y0236724D01*
X0242931Y0235189D02*
X0244288Y0235472D01*
X0246466Y0231653D02*
X0247824Y0231936D01*
X0250002Y0228118D02*
X0251359Y0228401D01*
X0286360Y0200016D02*
X0286360Y0187417D01*
X0296597Y0187417D02*
X0296597Y0200016D01*
X0297360Y0200016D02*
X0297360Y0187417D01*
X0307597Y0187417D02*
X0307597Y0200016D01*
X0315478Y0200517D02*
X0315478Y0203117D01*
X0328478Y0203117D02*
X0328478Y0200517D01*
X0328478Y0194017D02*
X0328478Y0191417D01*
X0326707Y0187819D02*
X0330250Y0187819D01*
X0316073Y0191311D02*
X0315089Y0190327D01*
X0326707Y0175614D02*
X0330250Y0175614D01*
X0197128Y0213954D02*
X0197128Y0218679D01*
X0192010Y0226159D02*
X0189647Y0226159D01*
X0184529Y0218679D02*
X0184529Y0213954D01*
X0189647Y0206474D02*
X0192010Y0206474D01*
X0187378Y0182467D02*
X0187378Y0178467D01*
X0180378Y0178467D02*
X0180378Y0182467D01*
X0194535Y0248917D02*
X0197738Y0253721D01*
X0194535Y0253721D02*
X0197738Y0248917D01*
X0192581Y0251319D02*
X0189378Y0251319D01*
X0221978Y0259458D02*
X0221978Y0262660D01*
X0221978Y0261059D02*
X0226783Y0261059D01*
X0225181Y0262660D01*
X0221978Y0264614D02*
X0221978Y0267817D01*
X0221978Y0266215D02*
X0226783Y0266215D01*
X0225181Y0267817D01*
X0226032Y0270308D02*
X0222829Y0273510D01*
X0222028Y0272710D01*
X0222028Y0271108D01*
X0222829Y0270308D01*
X0226032Y0270308D01*
X0226833Y0271108D01*
X0226833Y0272710D01*
X0226032Y0273510D01*
X0222829Y0273510D01*
X0222028Y0275464D02*
X0222028Y0278667D01*
X0222028Y0277065D02*
X0226833Y0277065D01*
X0225231Y0278667D01*
X0225982Y0282914D02*
X0226783Y0283715D01*
X0226783Y0285316D01*
X0225982Y0286117D01*
X0225181Y0286117D01*
X0224381Y0285316D01*
X0224381Y0282914D01*
X0225982Y0282914D02*
X0222779Y0282914D01*
X0221978Y0283715D01*
X0221978Y0285316D01*
X0222779Y0286117D01*
X0240126Y0321513D02*
X0239326Y0322313D01*
X0239326Y0323114D01*
X0240126Y0323915D01*
X0241728Y0323915D01*
X0242528Y0323114D01*
X0242528Y0322313D01*
X0241728Y0321513D01*
X0240126Y0321513D01*
X0240126Y0323915D02*
X0239326Y0324715D01*
X0239326Y0325516D01*
X0240126Y0326317D01*
X0241728Y0326317D01*
X0242528Y0325516D01*
X0242528Y0324715D01*
X0241728Y0323915D01*
X0248526Y0322313D02*
X0251728Y0325516D01*
X0251728Y0326317D01*
X0251728Y0321513D02*
X0248526Y0321513D01*
X0248526Y0322313D01*
X0259426Y0321513D02*
X0261027Y0322313D01*
X0262628Y0323915D01*
X0260226Y0323915D01*
X0259426Y0324715D01*
X0259426Y0325516D01*
X0260226Y0326317D01*
X0261828Y0326317D01*
X0262628Y0325516D01*
X0262628Y0323915D01*
X0348579Y0321279D02*
X0348579Y0316554D01*
X0353697Y0309074D02*
X0356060Y0309074D01*
X0361178Y0316554D02*
X0361178Y0321279D01*
X0356060Y0328759D02*
X0353697Y0328759D01*
X0364778Y0358367D02*
X0368778Y0358367D01*
X0368778Y0365367D02*
X0364778Y0365367D01*
D13*
X0283654Y0355721D02*
X0283654Y0354854D01*
X0281920Y0353119D01*
X0281920Y0350517D01*
X0281920Y0353119D02*
X0280185Y0354854D01*
X0280185Y0355721D01*
X0278498Y0353119D02*
X0275028Y0353119D01*
X0276763Y0354854D02*
X0276763Y0351384D01*
X0276854Y0334071D02*
X0273385Y0334071D01*
X0271698Y0331469D02*
X0268228Y0331469D01*
X0269963Y0333204D02*
X0269963Y0329734D01*
X0273385Y0329734D02*
X0273385Y0328867D01*
X0276854Y0328867D01*
X0276854Y0326271D02*
X0276854Y0325404D01*
X0273385Y0321934D01*
X0273385Y0321067D01*
X0276854Y0321067D01*
X0276854Y0326271D02*
X0273385Y0326271D01*
X0271698Y0323669D02*
X0268228Y0323669D01*
X0273385Y0329734D02*
X0276854Y0333204D01*
X0276854Y0334071D01*
X0280185Y0184021D02*
X0280185Y0183154D01*
X0281920Y0181419D01*
X0281920Y0178817D01*
X0281920Y0181419D02*
X0283654Y0183154D01*
X0283654Y0184021D01*
X0278498Y0181419D02*
X0275028Y0181419D01*
D14*
X0211512Y0233019D02*
X0209790Y0231297D01*
X0208067Y0231297D01*
X0204623Y0234741D01*
X0204623Y0236463D01*
X0206345Y0238185D01*
X0208067Y0238185D01*
X0209362Y0241202D02*
X0210223Y0242063D01*
X0215389Y0236896D01*
X0214528Y0236035D02*
X0216250Y0237757D01*
X0217400Y0240629D02*
X0217400Y0242351D01*
X0219983Y0244935D01*
X0219122Y0245796D02*
X0221705Y0243212D01*
X0219122Y0240629D01*
X0217400Y0240629D01*
X0215678Y0244074D02*
X0217400Y0245796D01*
X0219122Y0245796D01*
X0220416Y0248812D02*
X0222999Y0246229D01*
X0224721Y0246229D01*
X0227304Y0248812D01*
X0228165Y0247951D02*
X0223860Y0252256D01*
X0228165Y0247951D02*
X0228165Y0246229D01*
X0227304Y0245368D01*
X0211512Y0234741D02*
X0211512Y0233019D01*
D15*
X0236228Y0199367D02*
X0236228Y0196717D01*
X0280314Y0322315D02*
X0282789Y0324789D01*
X0278491Y0323552D02*
X0278493Y0323663D01*
X0278499Y0323773D01*
X0278509Y0323883D01*
X0278523Y0323993D01*
X0278541Y0324102D01*
X0278563Y0324210D01*
X0278588Y0324318D01*
X0278618Y0324424D01*
X0278651Y0324529D01*
X0278688Y0324633D01*
X0278729Y0324736D01*
X0278774Y0324837D01*
X0278822Y0324937D01*
X0278874Y0325034D01*
X0278929Y0325130D01*
X0278988Y0325224D01*
X0279050Y0325315D01*
X0279115Y0325404D01*
X0279184Y0325491D01*
X0279255Y0325575D01*
X0279330Y0325657D01*
X0279407Y0325736D01*
X0279487Y0325812D01*
X0279570Y0325885D01*
X0279656Y0325955D01*
X0279744Y0326022D01*
X0279834Y0326086D01*
X0279927Y0326146D01*
X0280021Y0326203D01*
X0280118Y0326256D01*
X0280217Y0326306D01*
X0280317Y0326353D01*
X0280419Y0326396D01*
X0280522Y0326435D01*
X0280627Y0326470D01*
X0280733Y0326501D01*
X0280840Y0326529D01*
X0280948Y0326553D01*
X0281057Y0326573D01*
X0281166Y0326589D01*
X0281276Y0326601D01*
X0281386Y0326609D01*
X0281497Y0326613D01*
X0281607Y0326613D01*
X0281718Y0326609D01*
X0281828Y0326601D01*
X0281938Y0326589D01*
X0282047Y0326573D01*
X0282156Y0326553D01*
X0282264Y0326529D01*
X0282371Y0326501D01*
X0282477Y0326470D01*
X0282582Y0326435D01*
X0282685Y0326396D01*
X0282787Y0326353D01*
X0282887Y0326306D01*
X0282986Y0326256D01*
X0283082Y0326203D01*
X0283177Y0326146D01*
X0283270Y0326086D01*
X0283360Y0326022D01*
X0283448Y0325955D01*
X0283534Y0325885D01*
X0283617Y0325812D01*
X0283697Y0325736D01*
X0283774Y0325657D01*
X0283849Y0325575D01*
X0283920Y0325491D01*
X0283989Y0325404D01*
X0284054Y0325315D01*
X0284116Y0325224D01*
X0284175Y0325130D01*
X0284230Y0325034D01*
X0284282Y0324937D01*
X0284330Y0324837D01*
X0284375Y0324736D01*
X0284416Y0324633D01*
X0284453Y0324529D01*
X0284486Y0324424D01*
X0284516Y0324318D01*
X0284541Y0324210D01*
X0284563Y0324102D01*
X0284581Y0323993D01*
X0284595Y0323883D01*
X0284605Y0323773D01*
X0284611Y0323663D01*
X0284613Y0323552D01*
X0284611Y0323441D01*
X0284605Y0323331D01*
X0284595Y0323221D01*
X0284581Y0323111D01*
X0284563Y0323002D01*
X0284541Y0322894D01*
X0284516Y0322786D01*
X0284486Y0322680D01*
X0284453Y0322575D01*
X0284416Y0322471D01*
X0284375Y0322368D01*
X0284330Y0322267D01*
X0284282Y0322167D01*
X0284230Y0322070D01*
X0284175Y0321974D01*
X0284116Y0321880D01*
X0284054Y0321789D01*
X0283989Y0321700D01*
X0283920Y0321613D01*
X0283849Y0321529D01*
X0283774Y0321447D01*
X0283697Y0321368D01*
X0283617Y0321292D01*
X0283534Y0321219D01*
X0283448Y0321149D01*
X0283360Y0321082D01*
X0283270Y0321018D01*
X0283177Y0320958D01*
X0283083Y0320901D01*
X0282986Y0320848D01*
X0282887Y0320798D01*
X0282787Y0320751D01*
X0282685Y0320708D01*
X0282582Y0320669D01*
X0282477Y0320634D01*
X0282371Y0320603D01*
X0282264Y0320575D01*
X0282156Y0320551D01*
X0282047Y0320531D01*
X0281938Y0320515D01*
X0281828Y0320503D01*
X0281718Y0320495D01*
X0281607Y0320491D01*
X0281497Y0320491D01*
X0281386Y0320495D01*
X0281276Y0320503D01*
X0281166Y0320515D01*
X0281057Y0320531D01*
X0280948Y0320551D01*
X0280840Y0320575D01*
X0280733Y0320603D01*
X0280627Y0320634D01*
X0280522Y0320669D01*
X0280419Y0320708D01*
X0280317Y0320751D01*
X0280217Y0320798D01*
X0280118Y0320848D01*
X0280021Y0320901D01*
X0279927Y0320958D01*
X0279834Y0321018D01*
X0279744Y0321082D01*
X0279656Y0321149D01*
X0279570Y0321219D01*
X0279487Y0321292D01*
X0279407Y0321368D01*
X0279330Y0321447D01*
X0279255Y0321529D01*
X0279184Y0321613D01*
X0279115Y0321700D01*
X0279050Y0321789D01*
X0278988Y0321880D01*
X0278929Y0321974D01*
X0278874Y0322070D01*
X0278822Y0322167D01*
X0278774Y0322267D01*
X0278729Y0322368D01*
X0278688Y0322471D01*
X0278651Y0322575D01*
X0278618Y0322680D01*
X0278588Y0322786D01*
X0278563Y0322894D01*
X0278541Y0323002D01*
X0278523Y0323111D01*
X0278509Y0323221D01*
X0278499Y0323331D01*
X0278493Y0323441D01*
X0278491Y0323552D01*
X0280314Y0324789D02*
X0282789Y0322315D01*
X0281378Y0331467D02*
X0281380Y0331498D01*
X0281386Y0331529D01*
X0281396Y0331559D01*
X0281409Y0331587D01*
X0281426Y0331614D01*
X0281446Y0331638D01*
X0281469Y0331660D01*
X0281494Y0331678D01*
X0281522Y0331693D01*
X0281551Y0331705D01*
X0281581Y0331713D01*
X0281612Y0331717D01*
X0281644Y0331717D01*
X0281675Y0331713D01*
X0281705Y0331705D01*
X0281734Y0331693D01*
X0281762Y0331678D01*
X0281787Y0331660D01*
X0281810Y0331638D01*
X0281830Y0331614D01*
X0281847Y0331587D01*
X0281860Y0331559D01*
X0281870Y0331529D01*
X0281876Y0331498D01*
X0281878Y0331467D01*
X0281876Y0331436D01*
X0281870Y0331405D01*
X0281860Y0331375D01*
X0281847Y0331347D01*
X0281830Y0331320D01*
X0281810Y0331296D01*
X0281787Y0331274D01*
X0281762Y0331256D01*
X0281734Y0331241D01*
X0281705Y0331229D01*
X0281675Y0331221D01*
X0281644Y0331217D01*
X0281612Y0331217D01*
X0281581Y0331221D01*
X0281551Y0331229D01*
X0281522Y0331241D01*
X0281494Y0331256D01*
X0281469Y0331274D01*
X0281446Y0331296D01*
X0281426Y0331320D01*
X0281409Y0331347D01*
X0281396Y0331375D01*
X0281386Y0331405D01*
X0281380Y0331436D01*
X0281378Y0331467D01*
X0278567Y0331467D02*
X0278569Y0331578D01*
X0278575Y0331688D01*
X0278585Y0331798D01*
X0278599Y0331908D01*
X0278617Y0332017D01*
X0278639Y0332125D01*
X0278664Y0332233D01*
X0278694Y0332339D01*
X0278727Y0332444D01*
X0278764Y0332548D01*
X0278805Y0332651D01*
X0278850Y0332752D01*
X0278898Y0332852D01*
X0278950Y0332949D01*
X0279005Y0333045D01*
X0279064Y0333139D01*
X0279126Y0333230D01*
X0279191Y0333319D01*
X0279260Y0333406D01*
X0279331Y0333490D01*
X0279406Y0333572D01*
X0279483Y0333651D01*
X0279563Y0333727D01*
X0279646Y0333800D01*
X0279732Y0333870D01*
X0279820Y0333937D01*
X0279910Y0334001D01*
X0280003Y0334061D01*
X0280097Y0334118D01*
X0280194Y0334171D01*
X0280293Y0334221D01*
X0280393Y0334268D01*
X0280495Y0334311D01*
X0280598Y0334350D01*
X0280703Y0334385D01*
X0280809Y0334416D01*
X0280916Y0334444D01*
X0281024Y0334468D01*
X0281133Y0334488D01*
X0281242Y0334504D01*
X0281352Y0334516D01*
X0281462Y0334524D01*
X0281573Y0334528D01*
X0281683Y0334528D01*
X0281794Y0334524D01*
X0281904Y0334516D01*
X0282014Y0334504D01*
X0282123Y0334488D01*
X0282232Y0334468D01*
X0282340Y0334444D01*
X0282447Y0334416D01*
X0282553Y0334385D01*
X0282658Y0334350D01*
X0282761Y0334311D01*
X0282863Y0334268D01*
X0282963Y0334221D01*
X0283062Y0334171D01*
X0283158Y0334118D01*
X0283253Y0334061D01*
X0283346Y0334001D01*
X0283436Y0333937D01*
X0283524Y0333870D01*
X0283610Y0333800D01*
X0283693Y0333727D01*
X0283773Y0333651D01*
X0283850Y0333572D01*
X0283925Y0333490D01*
X0283996Y0333406D01*
X0284065Y0333319D01*
X0284130Y0333230D01*
X0284192Y0333139D01*
X0284251Y0333045D01*
X0284306Y0332949D01*
X0284358Y0332852D01*
X0284406Y0332752D01*
X0284451Y0332651D01*
X0284492Y0332548D01*
X0284529Y0332444D01*
X0284562Y0332339D01*
X0284592Y0332233D01*
X0284617Y0332125D01*
X0284639Y0332017D01*
X0284657Y0331908D01*
X0284671Y0331798D01*
X0284681Y0331688D01*
X0284687Y0331578D01*
X0284689Y0331467D01*
X0284687Y0331356D01*
X0284681Y0331246D01*
X0284671Y0331136D01*
X0284657Y0331026D01*
X0284639Y0330917D01*
X0284617Y0330809D01*
X0284592Y0330701D01*
X0284562Y0330595D01*
X0284529Y0330490D01*
X0284492Y0330386D01*
X0284451Y0330283D01*
X0284406Y0330182D01*
X0284358Y0330082D01*
X0284306Y0329985D01*
X0284251Y0329889D01*
X0284192Y0329795D01*
X0284130Y0329704D01*
X0284065Y0329615D01*
X0283996Y0329528D01*
X0283925Y0329444D01*
X0283850Y0329362D01*
X0283773Y0329283D01*
X0283693Y0329207D01*
X0283610Y0329134D01*
X0283524Y0329064D01*
X0283436Y0328997D01*
X0283346Y0328933D01*
X0283253Y0328873D01*
X0283159Y0328816D01*
X0283062Y0328763D01*
X0282963Y0328713D01*
X0282863Y0328666D01*
X0282761Y0328623D01*
X0282658Y0328584D01*
X0282553Y0328549D01*
X0282447Y0328518D01*
X0282340Y0328490D01*
X0282232Y0328466D01*
X0282123Y0328446D01*
X0282014Y0328430D01*
X0281904Y0328418D01*
X0281794Y0328410D01*
X0281683Y0328406D01*
X0281573Y0328406D01*
X0281462Y0328410D01*
X0281352Y0328418D01*
X0281242Y0328430D01*
X0281133Y0328446D01*
X0281024Y0328466D01*
X0280916Y0328490D01*
X0280809Y0328518D01*
X0280703Y0328549D01*
X0280598Y0328584D01*
X0280495Y0328623D01*
X0280393Y0328666D01*
X0280293Y0328713D01*
X0280194Y0328763D01*
X0280097Y0328816D01*
X0280003Y0328873D01*
X0279910Y0328933D01*
X0279820Y0328997D01*
X0279732Y0329064D01*
X0279646Y0329134D01*
X0279563Y0329207D01*
X0279483Y0329283D01*
X0279406Y0329362D01*
X0279331Y0329444D01*
X0279260Y0329528D01*
X0279191Y0329615D01*
X0279126Y0329704D01*
X0279064Y0329795D01*
X0279005Y0329889D01*
X0278950Y0329985D01*
X0278898Y0330082D01*
X0278850Y0330182D01*
X0278805Y0330283D01*
X0278764Y0330386D01*
X0278727Y0330490D01*
X0278694Y0330595D01*
X0278664Y0330701D01*
X0278639Y0330809D01*
X0278617Y0330917D01*
X0278599Y0331026D01*
X0278585Y0331136D01*
X0278575Y0331246D01*
X0278569Y0331356D01*
X0278567Y0331467D01*
D16*
X0290416Y0327754D02*
X0290416Y0323979D01*
X0298141Y0323979D01*
X0298141Y0327754D01*
X0290416Y0327754D01*
X0298878Y0339767D02*
X0298878Y0315367D01*
X0300078Y0314167D01*
X0319878Y0314167D01*
X0319878Y0339767D01*
X0298878Y0339767D01*
X0309891Y0340254D02*
X0309891Y0347979D01*
X0313666Y0347979D01*
X0313666Y0340254D01*
X0309891Y0340254D01*
X0318491Y0338204D02*
X0318491Y0345929D01*
X0322266Y0345929D01*
X0322266Y0338204D01*
X0318491Y0338204D01*
X0322536Y0337309D02*
X0341146Y0337309D01*
X0343221Y0335234D01*
X0343221Y0316624D01*
X0322536Y0316624D01*
X0322536Y0337309D01*
X0329536Y0343367D02*
X0332860Y0340044D01*
X0341097Y0348282D01*
X0337774Y0351605D01*
X0329536Y0343367D01*
X0326578Y0349867D02*
X0316978Y0349867D01*
X0316978Y0354867D01*
X0326578Y0354867D01*
X0326578Y0349867D01*
X0333042Y0356654D02*
X0341280Y0348416D01*
X0344604Y0351740D01*
X0336366Y0359977D01*
X0333042Y0356654D01*
X0344768Y0351675D02*
X0348303Y0348139D01*
X0341515Y0341351D01*
X0337980Y0344887D01*
X0344768Y0351675D01*
X0353975Y0347633D02*
X0356644Y0344963D01*
X0351182Y0339501D01*
X0348512Y0342170D01*
X0353975Y0347633D01*
X0356925Y0344583D02*
X0359594Y0341913D01*
X0354132Y0336451D01*
X0351462Y0339120D01*
X0356925Y0344583D01*
X0358578Y0340867D02*
X0358578Y0336067D01*
X0370178Y0336067D01*
X0370178Y0340867D01*
X0358578Y0340867D01*
X0357878Y0335267D02*
X0348278Y0335267D01*
X0348278Y0330267D01*
X0357878Y0330267D01*
X0357878Y0335267D01*
X0360478Y0335117D02*
X0370078Y0335117D01*
X0370078Y0330117D01*
X0360478Y0330117D01*
X0360478Y0335117D01*
X0343221Y0335234D02*
X0343221Y0337309D01*
X0341146Y0337309D01*
X0316778Y0350067D02*
X0305178Y0350067D01*
X0305178Y0354867D01*
X0316778Y0354867D01*
X0316778Y0350067D01*
X0245684Y0312072D02*
X0245684Y0310891D01*
X0245684Y0312072D02*
X0244503Y0312072D01*
X0248328Y0304717D02*
X0248328Y0295117D01*
X0253328Y0295117D01*
X0253328Y0304717D01*
X0248328Y0304717D01*
X0245684Y0301442D02*
X0245684Y0300261D01*
X0244503Y0300261D01*
X0243078Y0296167D02*
X0233478Y0296167D01*
X0233478Y0291167D01*
X0243078Y0291167D01*
X0243078Y0296167D01*
X0235054Y0300261D02*
X0233873Y0300261D01*
X0233873Y0301442D01*
X0230778Y0302367D02*
X0225778Y0302367D01*
X0225778Y0311967D01*
X0230778Y0311967D01*
X0230778Y0302367D01*
X0233873Y0310891D02*
X0233873Y0312072D01*
X0235054Y0312072D01*
X0210666Y0313654D02*
X0206891Y0313654D01*
X0206891Y0321379D01*
X0210666Y0321379D01*
X0210666Y0313654D01*
X0206466Y0313654D02*
X0202691Y0313654D01*
X0202691Y0321379D01*
X0206466Y0321379D01*
X0206466Y0313654D01*
X0202266Y0313654D02*
X0198491Y0313654D01*
X0198491Y0321379D01*
X0202266Y0321379D01*
X0202266Y0313654D01*
X0198066Y0313654D02*
X0194291Y0313654D01*
X0194291Y0321379D01*
X0198066Y0321379D01*
X0198066Y0313654D01*
X0196391Y0321854D02*
X0196391Y0329579D01*
X0200166Y0329579D01*
X0200166Y0321854D01*
X0196391Y0321854D01*
X0195966Y0321854D02*
X0192191Y0321854D01*
X0192191Y0329579D01*
X0195966Y0329579D01*
X0195966Y0321854D01*
X0200591Y0321854D02*
X0200591Y0329579D01*
X0204366Y0329579D01*
X0204366Y0321854D01*
X0200591Y0321854D01*
X0204791Y0321854D02*
X0204791Y0329579D01*
X0208566Y0329579D01*
X0208566Y0321854D01*
X0204791Y0321854D01*
X0189528Y0334567D02*
X0184528Y0334567D01*
X0184528Y0344167D01*
X0189528Y0344167D01*
X0189528Y0334567D01*
X0208666Y0347029D02*
X0208666Y0350804D01*
X0216391Y0350804D01*
X0216391Y0347029D01*
X0208666Y0347029D01*
X0208666Y0351229D02*
X0208666Y0355004D01*
X0216391Y0355004D01*
X0216391Y0351229D01*
X0208666Y0351229D01*
X0208666Y0355429D02*
X0208666Y0359204D01*
X0216391Y0359204D01*
X0216391Y0355429D01*
X0208666Y0355429D01*
X0216866Y0357104D02*
X0216866Y0353329D01*
X0224591Y0353329D01*
X0224591Y0357104D01*
X0216866Y0357104D01*
X0216866Y0357529D02*
X0216866Y0361304D01*
X0224591Y0361304D01*
X0224591Y0357529D01*
X0216866Y0357529D01*
X0216866Y0352904D02*
X0216866Y0349129D01*
X0224591Y0349129D01*
X0224591Y0352904D01*
X0216866Y0352904D01*
X0216866Y0348704D02*
X0216866Y0344929D01*
X0224591Y0344929D01*
X0224591Y0348704D01*
X0216866Y0348704D01*
X0216866Y0344954D02*
X0216866Y0341179D01*
X0224591Y0341179D01*
X0224591Y0344954D01*
X0216866Y0344954D01*
X0255028Y0296367D02*
X0264628Y0296367D01*
X0264628Y0291367D01*
X0255028Y0291367D01*
X0255028Y0296367D01*
X0299028Y0292417D02*
X0299028Y0288367D01*
X0306378Y0288367D01*
X0306378Y0292567D01*
X0299178Y0292567D01*
X0299028Y0292417D01*
X0311216Y0291029D02*
X0311216Y0294804D01*
X0318941Y0294804D01*
X0318941Y0291029D01*
X0311216Y0291029D01*
X0311216Y0294779D02*
X0311216Y0298554D01*
X0318941Y0298554D01*
X0318941Y0294779D01*
X0311216Y0294779D01*
X0320816Y0288854D02*
X0328541Y0288854D01*
X0328541Y0285079D01*
X0320816Y0285079D01*
X0320816Y0288854D01*
X0321278Y0280567D02*
X0320028Y0279317D01*
X0320028Y0276817D01*
X0321278Y0275567D01*
X0320028Y0274317D01*
X0320028Y0271817D01*
X0321278Y0270567D01*
X0320028Y0269317D01*
X0320028Y0266817D01*
X0321278Y0265567D01*
X0320028Y0264317D01*
X0320028Y0261817D01*
X0321278Y0260567D01*
X0320028Y0259317D01*
X0320028Y0256817D01*
X0321278Y0255567D01*
X0328778Y0255567D01*
X0330028Y0256817D01*
X0330028Y0259317D01*
X0328778Y0260567D01*
X0330028Y0261817D01*
X0330028Y0264317D01*
X0328778Y0265567D01*
X0330028Y0266817D01*
X0330028Y0269317D01*
X0328778Y0270567D01*
X0330028Y0271817D01*
X0330028Y0274317D01*
X0328778Y0275567D01*
X0330028Y0276817D01*
X0330028Y0279317D01*
X0328778Y0280567D01*
X0321278Y0280567D01*
X0314816Y0279379D02*
X0311041Y0279379D01*
X0311041Y0271654D01*
X0314816Y0271654D01*
X0314816Y0279379D01*
X0308378Y0280267D02*
X0308378Y0270667D01*
X0303378Y0270667D01*
X0303378Y0280267D01*
X0308378Y0280267D01*
X0310541Y0262679D02*
X0314316Y0262679D01*
X0314316Y0254954D01*
X0310541Y0254954D01*
X0310541Y0262679D01*
X0309978Y0256317D02*
X0303778Y0256317D01*
X0303778Y0247017D01*
X0309978Y0247017D01*
X0309978Y0256317D01*
X0314128Y0251617D02*
X0325728Y0251617D01*
X0325728Y0246817D01*
X0314128Y0246817D01*
X0314128Y0251617D01*
X0304128Y0246267D02*
X0304128Y0236667D01*
X0299128Y0236667D01*
X0299128Y0246267D01*
X0304128Y0246267D01*
X0309825Y0240491D02*
X0312495Y0237822D01*
X0307032Y0232359D01*
X0304363Y0235029D01*
X0309825Y0240491D01*
X0312795Y0237521D02*
X0315465Y0234852D01*
X0310002Y0229389D01*
X0307333Y0232059D01*
X0312795Y0237521D01*
X0315765Y0234552D02*
X0318435Y0231882D01*
X0312972Y0226419D01*
X0310303Y0229089D01*
X0315765Y0234552D01*
X0318735Y0231582D02*
X0321405Y0228912D01*
X0315942Y0223449D01*
X0313273Y0226119D01*
X0318735Y0231582D01*
X0314121Y0224599D02*
X0311452Y0227268D01*
X0305989Y0221806D01*
X0308659Y0219136D01*
X0314121Y0224599D01*
X0314422Y0224299D02*
X0317091Y0221629D01*
X0311629Y0216166D01*
X0308959Y0218836D01*
X0314422Y0224299D01*
X0311152Y0227569D02*
X0308482Y0230238D01*
X0303020Y0224775D01*
X0305689Y0222106D01*
X0311152Y0227569D01*
X0308182Y0230538D02*
X0302719Y0225076D01*
X0300050Y0227745D01*
X0305512Y0233208D01*
X0308182Y0230538D01*
X0298778Y0231067D02*
X0298778Y0226267D01*
X0287178Y0226267D01*
X0287178Y0231067D01*
X0298778Y0231067D01*
X0296828Y0231967D02*
X0296828Y0236967D01*
X0287228Y0236967D01*
X0287228Y0231967D01*
X0296828Y0231967D01*
X0270178Y0229217D02*
X0270178Y0224417D01*
X0258578Y0224417D01*
X0258578Y0229217D01*
X0270178Y0229217D01*
X0269178Y0230317D02*
X0269178Y0235317D01*
X0259578Y0235317D01*
X0259578Y0230317D01*
X0269178Y0230317D01*
X0247994Y0222225D02*
X0242532Y0216762D01*
X0239862Y0219432D01*
X0245325Y0224895D01*
X0247994Y0222225D01*
X0244459Y0225761D02*
X0238997Y0220298D01*
X0236327Y0222968D01*
X0241789Y0228430D01*
X0244459Y0225761D01*
X0240923Y0229296D02*
X0238254Y0231966D01*
X0232791Y0226503D01*
X0235461Y0223833D01*
X0240923Y0229296D01*
X0230128Y0220517D02*
X0225128Y0220517D01*
X0225128Y0210917D01*
X0230128Y0210917D01*
X0230128Y0220517D01*
X0220652Y0217241D02*
X0220652Y0214872D01*
X0218284Y0217241D01*
X0220652Y0217241D01*
X0218284Y0217241D02*
X0204104Y0217241D01*
X0204104Y0200693D01*
X0220652Y0200693D01*
X0220652Y0214872D01*
X0225128Y0210267D02*
X0225128Y0200667D01*
X0230128Y0200667D01*
X0230128Y0210267D01*
X0225128Y0210267D01*
X0233228Y0211017D02*
X0238028Y0211017D01*
X0238028Y0199417D01*
X0233228Y0199417D01*
X0233228Y0211017D01*
X0231516Y0200079D02*
X0227741Y0200079D01*
X0227741Y0192354D01*
X0231516Y0192354D01*
X0231516Y0200079D01*
X0226678Y0198217D02*
X0217078Y0198217D01*
X0217078Y0193217D01*
X0226678Y0193217D01*
X0226678Y0198217D01*
X0215678Y0199267D02*
X0215678Y0194867D01*
X0206878Y0194867D01*
X0206878Y0199267D01*
X0215678Y0199267D01*
X0215978Y0194767D02*
X0211578Y0194767D01*
X0211578Y0185967D01*
X0215978Y0185967D01*
X0215978Y0194767D01*
X0210678Y0194267D02*
X0210678Y0189867D01*
X0201878Y0189867D01*
X0201878Y0194267D01*
X0210678Y0194267D01*
X0197628Y0199317D02*
X0188028Y0199317D01*
X0188028Y0204317D01*
X0197628Y0204317D01*
X0197628Y0199317D01*
X0198091Y0207554D02*
X0198091Y0215279D01*
X0201866Y0215279D01*
X0201866Y0207554D01*
X0198091Y0207554D01*
X0197628Y0228317D02*
X0188028Y0228317D01*
X0188028Y0233317D01*
X0197628Y0233317D01*
X0197628Y0228317D01*
X0257847Y0248435D02*
X0257849Y0248498D01*
X0257855Y0248560D01*
X0257865Y0248622D01*
X0257878Y0248684D01*
X0257896Y0248744D01*
X0257917Y0248803D01*
X0257942Y0248861D01*
X0257971Y0248917D01*
X0258003Y0248971D01*
X0258038Y0249023D01*
X0258076Y0249072D01*
X0258118Y0249120D01*
X0258162Y0249164D01*
X0258210Y0249206D01*
X0258259Y0249244D01*
X0258311Y0249279D01*
X0258365Y0249311D01*
X0258421Y0249340D01*
X0258479Y0249365D01*
X0258538Y0249386D01*
X0258598Y0249404D01*
X0258660Y0249417D01*
X0258722Y0249427D01*
X0258784Y0249433D01*
X0258847Y0249435D01*
X0258910Y0249433D01*
X0258972Y0249427D01*
X0259034Y0249417D01*
X0259096Y0249404D01*
X0259156Y0249386D01*
X0259215Y0249365D01*
X0259273Y0249340D01*
X0259329Y0249311D01*
X0259383Y0249279D01*
X0259435Y0249244D01*
X0259484Y0249206D01*
X0259532Y0249164D01*
X0259576Y0249120D01*
X0259618Y0249072D01*
X0259656Y0249023D01*
X0259691Y0248971D01*
X0259723Y0248917D01*
X0259752Y0248861D01*
X0259777Y0248803D01*
X0259798Y0248744D01*
X0259816Y0248684D01*
X0259829Y0248622D01*
X0259839Y0248560D01*
X0259845Y0248498D01*
X0259847Y0248435D01*
X0259845Y0248372D01*
X0259839Y0248310D01*
X0259829Y0248248D01*
X0259816Y0248186D01*
X0259798Y0248126D01*
X0259777Y0248067D01*
X0259752Y0248009D01*
X0259723Y0247953D01*
X0259691Y0247899D01*
X0259656Y0247847D01*
X0259618Y0247798D01*
X0259576Y0247750D01*
X0259532Y0247706D01*
X0259484Y0247664D01*
X0259435Y0247626D01*
X0259383Y0247591D01*
X0259329Y0247559D01*
X0259273Y0247530D01*
X0259215Y0247505D01*
X0259156Y0247484D01*
X0259096Y0247466D01*
X0259034Y0247453D01*
X0258972Y0247443D01*
X0258910Y0247437D01*
X0258847Y0247435D01*
X0258784Y0247437D01*
X0258722Y0247443D01*
X0258660Y0247453D01*
X0258598Y0247466D01*
X0258538Y0247484D01*
X0258479Y0247505D01*
X0258421Y0247530D01*
X0258365Y0247559D01*
X0258311Y0247591D01*
X0258259Y0247626D01*
X0258210Y0247664D01*
X0258162Y0247706D01*
X0258118Y0247750D01*
X0258076Y0247798D01*
X0258038Y0247847D01*
X0258003Y0247899D01*
X0257971Y0247953D01*
X0257942Y0248009D01*
X0257917Y0248067D01*
X0257896Y0248126D01*
X0257878Y0248186D01*
X0257865Y0248248D01*
X0257855Y0248310D01*
X0257849Y0248372D01*
X0257847Y0248435D01*
X0312591Y0212079D02*
X0316366Y0212079D01*
X0316366Y0204354D01*
X0312591Y0204354D01*
X0312591Y0212079D01*
X0311341Y0208104D02*
X0303616Y0208104D01*
X0303616Y0204329D01*
X0311341Y0204329D01*
X0311341Y0208104D01*
X0318116Y0208329D02*
X0318116Y0212104D01*
X0325841Y0212104D01*
X0325841Y0208329D01*
X0318116Y0208329D01*
X0327116Y0208329D02*
X0327116Y0212104D01*
X0334841Y0212104D01*
X0334841Y0208329D01*
X0327116Y0208329D01*
X0331078Y0203017D02*
X0335878Y0203017D01*
X0335878Y0191417D01*
X0331078Y0191417D01*
X0331078Y0203017D01*
X0337378Y0206717D02*
X0359378Y0206717D01*
X0359378Y0174717D01*
X0337378Y0174717D01*
X0337378Y0206717D01*
X0314728Y0198517D02*
X0309728Y0198517D01*
X0309728Y0188917D01*
X0314728Y0188917D01*
X0314728Y0198517D01*
X0226178Y0180467D02*
X0226178Y0175467D01*
X0216578Y0175467D01*
X0216578Y0180467D01*
X0226178Y0180467D01*
X0216378Y0175667D02*
X0216378Y0185267D01*
X0211378Y0185267D01*
X0211378Y0175667D01*
X0216378Y0175667D01*
X0206878Y0179667D02*
X0206878Y0189267D01*
X0201878Y0189267D01*
X0201878Y0179667D01*
X0206878Y0179667D01*
X0201378Y0179667D02*
X0201378Y0189267D01*
X0196378Y0189267D01*
X0196378Y0179667D01*
X0201378Y0179667D01*
X0334391Y0253804D02*
X0334391Y0261529D01*
X0338166Y0261529D01*
X0338166Y0253804D01*
X0334391Y0253804D01*
X0351941Y0258504D02*
X0351941Y0266229D01*
X0355716Y0266229D01*
X0355716Y0258504D01*
X0351941Y0258504D01*
X0356141Y0258504D02*
X0356141Y0266229D01*
X0359916Y0266229D01*
X0359916Y0258504D01*
X0356141Y0258504D01*
X0360341Y0258504D02*
X0360341Y0266229D01*
X0364116Y0266229D01*
X0364116Y0258504D01*
X0360341Y0258504D01*
X0364541Y0258504D02*
X0364541Y0266229D01*
X0368316Y0266229D01*
X0368316Y0258504D01*
X0364541Y0258504D01*
X0366216Y0266704D02*
X0362441Y0266704D01*
X0362441Y0274429D01*
X0366216Y0274429D01*
X0366216Y0266704D01*
X0362016Y0266704D02*
X0362016Y0274429D01*
X0358241Y0274429D01*
X0358241Y0266704D01*
X0362016Y0266704D01*
X0357816Y0266704D02*
X0354041Y0266704D01*
X0354041Y0274429D01*
X0357816Y0274429D01*
X0357816Y0266704D01*
X0353616Y0266704D02*
X0353616Y0274429D01*
X0349841Y0274429D01*
X0349841Y0266704D01*
X0353616Y0266704D01*
X0348678Y0274967D02*
X0348678Y0284567D01*
X0343678Y0284567D01*
X0343678Y0274967D01*
X0348678Y0274967D01*
X0350278Y0302467D02*
X0359878Y0302467D01*
X0359878Y0307467D01*
X0350278Y0307467D01*
X0350278Y0302467D01*
D17*
X0303286Y0313102D02*
X0301819Y0311634D01*
X0301819Y0311267D01*
X0301077Y0311634D02*
X0301077Y0313469D01*
X0301819Y0313469D02*
X0303286Y0313469D01*
X0303286Y0313102D01*
X0301077Y0311634D02*
X0300710Y0311267D01*
X0299976Y0311267D01*
X0299609Y0311634D01*
X0299609Y0313469D01*
X0270532Y0346967D02*
X0269598Y0346967D01*
X0270532Y0347901D01*
X0270532Y0348134D01*
X0270299Y0348368D01*
X0269832Y0348368D01*
X0269598Y0348134D01*
X0268592Y0348368D02*
X0268592Y0346967D01*
X0268125Y0346967D02*
X0269059Y0346967D01*
X0268125Y0347901D02*
X0268592Y0348368D01*
X0267586Y0348134D02*
X0267586Y0347667D01*
X0267352Y0347434D01*
X0266652Y0347434D01*
X0266652Y0346967D02*
X0266652Y0348368D01*
X0267352Y0348368D01*
X0267586Y0348134D01*
X0266113Y0348368D02*
X0265178Y0348368D01*
X0265646Y0348368D02*
X0265646Y0346967D01*
X0247739Y0348317D02*
X0246805Y0348317D01*
X0247506Y0349018D01*
X0247506Y0347617D01*
X0246266Y0347617D02*
X0245332Y0347617D01*
X0245799Y0347617D02*
X0245799Y0349018D01*
X0245332Y0348551D01*
X0244793Y0348784D02*
X0244793Y0348317D01*
X0244559Y0348084D01*
X0243859Y0348084D01*
X0243859Y0347617D02*
X0243859Y0349018D01*
X0244559Y0349018D01*
X0244793Y0348784D01*
X0243320Y0349018D02*
X0242385Y0349018D01*
X0242852Y0349018D02*
X0242852Y0347617D01*
X0236239Y0347850D02*
X0236006Y0347617D01*
X0235539Y0347617D01*
X0235305Y0347850D01*
X0234766Y0347617D02*
X0233832Y0347617D01*
X0234299Y0347617D02*
X0234299Y0349018D01*
X0233832Y0348551D01*
X0233293Y0348784D02*
X0233293Y0348317D01*
X0233059Y0348084D01*
X0232359Y0348084D01*
X0232359Y0347617D02*
X0232359Y0349018D01*
X0233059Y0349018D01*
X0233293Y0348784D01*
X0231820Y0349018D02*
X0230885Y0349018D01*
X0231352Y0349018D02*
X0231352Y0347617D01*
X0235305Y0348784D02*
X0235539Y0349018D01*
X0236006Y0349018D01*
X0236239Y0348784D01*
X0236239Y0348551D01*
X0236006Y0348317D01*
X0236239Y0348084D01*
X0236239Y0347850D01*
X0236006Y0348317D02*
X0235772Y0348317D01*
X0235539Y0356867D02*
X0236006Y0356867D01*
X0236239Y0357100D01*
X0236239Y0357334D01*
X0236006Y0357567D01*
X0235305Y0357567D01*
X0235305Y0357100D01*
X0235539Y0356867D01*
X0235305Y0357567D02*
X0235772Y0358034D01*
X0236239Y0358268D01*
X0234299Y0358268D02*
X0234299Y0356867D01*
X0233832Y0356867D02*
X0234766Y0356867D01*
X0233832Y0357801D02*
X0234299Y0358268D01*
X0233293Y0358034D02*
X0233293Y0357567D01*
X0233059Y0357334D01*
X0232359Y0357334D01*
X0232359Y0356867D02*
X0232359Y0358268D01*
X0233059Y0358268D01*
X0233293Y0358034D01*
X0231820Y0358268D02*
X0230885Y0358268D01*
X0231352Y0358268D02*
X0231352Y0356867D01*
X0242385Y0358268D02*
X0243320Y0358268D01*
X0242852Y0358268D02*
X0242852Y0356867D01*
X0243859Y0356867D02*
X0243859Y0358268D01*
X0244559Y0358268D01*
X0244793Y0358034D01*
X0244793Y0357567D01*
X0244559Y0357334D01*
X0243859Y0357334D01*
X0245332Y0357801D02*
X0245799Y0358268D01*
X0245799Y0356867D01*
X0245332Y0356867D02*
X0246266Y0356867D01*
X0246805Y0356867D02*
X0246805Y0357100D01*
X0247739Y0358034D01*
X0247739Y0358268D01*
X0246805Y0358268D01*
X0246805Y0366117D02*
X0247739Y0366117D01*
X0247272Y0366117D02*
X0247272Y0367518D01*
X0246805Y0367051D01*
X0246266Y0366117D02*
X0245332Y0366117D01*
X0245799Y0366117D02*
X0245799Y0367518D01*
X0245332Y0367051D01*
X0244793Y0367284D02*
X0244793Y0366817D01*
X0244559Y0366584D01*
X0243859Y0366584D01*
X0243859Y0366117D02*
X0243859Y0367518D01*
X0244559Y0367518D01*
X0244793Y0367284D01*
X0243320Y0367518D02*
X0242385Y0367518D01*
X0242852Y0367518D02*
X0242852Y0366117D01*
X0236239Y0366350D02*
X0236006Y0366117D01*
X0235539Y0366117D01*
X0235305Y0366350D01*
X0236239Y0367284D01*
X0236239Y0366350D01*
X0235305Y0366350D02*
X0235305Y0367284D01*
X0235539Y0367518D01*
X0236006Y0367518D01*
X0236239Y0367284D01*
X0234766Y0366117D02*
X0233832Y0366117D01*
X0234299Y0366117D02*
X0234299Y0367518D01*
X0233832Y0367051D01*
X0233293Y0367284D02*
X0233293Y0366817D01*
X0233059Y0366584D01*
X0232359Y0366584D01*
X0232359Y0366117D02*
X0232359Y0367518D01*
X0233059Y0367518D01*
X0233293Y0367284D01*
X0231820Y0367518D02*
X0230885Y0367518D01*
X0231352Y0367518D02*
X0231352Y0366117D01*
X0265178Y0366868D02*
X0266113Y0366868D01*
X0265646Y0366868D02*
X0265646Y0365467D01*
X0266652Y0365467D02*
X0266652Y0366868D01*
X0267352Y0366868D01*
X0267586Y0366634D01*
X0267586Y0366167D01*
X0267352Y0365934D01*
X0266652Y0365934D01*
X0268125Y0366401D02*
X0268592Y0366868D01*
X0268592Y0365467D01*
X0268125Y0365467D02*
X0269059Y0365467D01*
X0269598Y0365700D02*
X0269832Y0365467D01*
X0270299Y0365467D01*
X0270532Y0365700D01*
X0270532Y0366167D01*
X0270299Y0366401D01*
X0270065Y0366401D01*
X0269598Y0366167D01*
X0269598Y0366868D01*
X0270532Y0366868D01*
X0270299Y0357618D02*
X0270532Y0357384D01*
X0270532Y0357151D01*
X0270299Y0356917D01*
X0269832Y0356917D01*
X0269598Y0357151D01*
X0269598Y0357384D01*
X0269832Y0357618D01*
X0270299Y0357618D01*
X0270299Y0356917D02*
X0270532Y0356684D01*
X0270532Y0356450D01*
X0270299Y0356217D01*
X0269832Y0356217D01*
X0269598Y0356450D01*
X0269598Y0356684D01*
X0269832Y0356917D01*
X0269059Y0356217D02*
X0268125Y0356217D01*
X0268592Y0356217D02*
X0268592Y0357618D01*
X0268125Y0357151D01*
X0267586Y0357384D02*
X0267586Y0356917D01*
X0267352Y0356684D01*
X0266652Y0356684D01*
X0266652Y0356217D02*
X0266652Y0357618D01*
X0267352Y0357618D01*
X0267586Y0357384D01*
X0266113Y0357618D02*
X0265178Y0357618D01*
X0265646Y0357618D02*
X0265646Y0356217D01*
X0237463Y0314898D02*
X0236528Y0314898D01*
X0236528Y0314198D01*
X0236996Y0314431D01*
X0237229Y0314431D01*
X0237463Y0314198D01*
X0237463Y0313731D01*
X0237229Y0313497D01*
X0236762Y0313497D01*
X0236528Y0313731D01*
X0235989Y0313731D02*
X0235989Y0314898D01*
X0235055Y0314898D02*
X0235055Y0313731D01*
X0235289Y0313497D01*
X0235756Y0313497D01*
X0235989Y0313731D01*
X0200428Y0290514D02*
X0200195Y0290747D01*
X0199261Y0290747D01*
X0199027Y0290514D01*
X0199027Y0290047D01*
X0199261Y0289813D01*
X0199494Y0289813D01*
X0199728Y0290047D01*
X0199728Y0290747D01*
X0200428Y0290514D02*
X0200428Y0290047D01*
X0200195Y0289813D01*
X0199728Y0289274D02*
X0199961Y0289041D01*
X0199961Y0288340D01*
X0200428Y0288340D02*
X0199027Y0288340D01*
X0199027Y0289041D01*
X0199261Y0289274D01*
X0199728Y0289274D01*
X0199027Y0287801D02*
X0199027Y0286867D01*
X0199027Y0287334D02*
X0200428Y0287334D01*
X0200361Y0280747D02*
X0200595Y0280747D01*
X0200828Y0280514D01*
X0200828Y0280047D01*
X0200595Y0279813D01*
X0200361Y0279813D01*
X0200128Y0280047D01*
X0200128Y0280514D01*
X0200361Y0280747D01*
X0200128Y0280514D02*
X0199894Y0280747D01*
X0199661Y0280747D01*
X0199427Y0280514D01*
X0199427Y0280047D01*
X0199661Y0279813D01*
X0199894Y0279813D01*
X0200128Y0280047D01*
X0200128Y0279274D02*
X0200361Y0279041D01*
X0200361Y0278340D01*
X0200828Y0278340D02*
X0199427Y0278340D01*
X0199427Y0279041D01*
X0199661Y0279274D01*
X0200128Y0279274D01*
X0199427Y0277801D02*
X0199427Y0276867D01*
X0199427Y0277334D02*
X0200828Y0277334D01*
X0199211Y0270847D02*
X0200145Y0269913D01*
X0200378Y0269913D01*
X0199678Y0269374D02*
X0199911Y0269141D01*
X0199911Y0268440D01*
X0200378Y0268440D02*
X0198977Y0268440D01*
X0198977Y0269141D01*
X0199211Y0269374D01*
X0199678Y0269374D01*
X0198977Y0269913D02*
X0198977Y0270847D01*
X0199211Y0270847D01*
X0198977Y0267901D02*
X0198977Y0266967D01*
X0198977Y0267434D02*
X0200378Y0267434D01*
X0190528Y0267234D02*
X0189127Y0267234D01*
X0189127Y0266767D02*
X0189127Y0267701D01*
X0189127Y0268240D02*
X0189127Y0268941D01*
X0189361Y0269174D01*
X0189828Y0269174D01*
X0190061Y0268941D01*
X0190061Y0268240D01*
X0190528Y0268240D02*
X0189127Y0268240D01*
X0189594Y0269713D02*
X0189127Y0270180D01*
X0190528Y0270180D01*
X0190528Y0269713D02*
X0190528Y0270647D01*
X0189177Y0276867D02*
X0189177Y0277801D01*
X0189177Y0277334D02*
X0190578Y0277334D01*
X0190578Y0278340D02*
X0189177Y0278340D01*
X0189177Y0279041D01*
X0189411Y0279274D01*
X0189878Y0279274D01*
X0190111Y0279041D01*
X0190111Y0278340D01*
X0190578Y0279813D02*
X0189644Y0280747D01*
X0189411Y0280747D01*
X0189177Y0280514D01*
X0189177Y0280047D01*
X0189411Y0279813D01*
X0190578Y0279813D02*
X0190578Y0280747D01*
X0189077Y0287017D02*
X0189077Y0287951D01*
X0189077Y0287484D02*
X0190478Y0287484D01*
X0190478Y0288490D02*
X0189077Y0288490D01*
X0189077Y0289191D01*
X0189311Y0289424D01*
X0189778Y0289424D01*
X0190011Y0289191D01*
X0190011Y0288490D01*
X0190245Y0289963D02*
X0190478Y0290197D01*
X0190478Y0290664D01*
X0190245Y0290897D01*
X0190011Y0290897D01*
X0189778Y0290664D01*
X0189778Y0290430D01*
X0189778Y0290664D02*
X0189544Y0290897D01*
X0189311Y0290897D01*
X0189077Y0290664D01*
X0189077Y0290197D01*
X0189311Y0289963D01*
X0180478Y0289947D02*
X0180478Y0290414D01*
X0180245Y0290647D01*
X0180011Y0290647D01*
X0179778Y0290414D01*
X0179778Y0289713D01*
X0180245Y0289713D01*
X0180478Y0289947D01*
X0179778Y0289713D02*
X0179311Y0290180D01*
X0179077Y0290647D01*
X0179311Y0289174D02*
X0179778Y0289174D01*
X0180011Y0288941D01*
X0180011Y0288240D01*
X0180478Y0288240D02*
X0179077Y0288240D01*
X0179077Y0288941D01*
X0179311Y0289174D01*
X0179077Y0287701D02*
X0179077Y0286767D01*
X0179077Y0287234D02*
X0180478Y0287234D01*
X0180195Y0280647D02*
X0180428Y0280414D01*
X0180428Y0279947D01*
X0180195Y0279713D01*
X0179728Y0279713D02*
X0179494Y0280180D01*
X0179494Y0280414D01*
X0179728Y0280647D01*
X0180195Y0280647D01*
X0179728Y0279713D02*
X0179027Y0279713D01*
X0179027Y0280647D01*
X0179261Y0279174D02*
X0179728Y0279174D01*
X0179961Y0278941D01*
X0179961Y0278240D01*
X0180428Y0278240D02*
X0179027Y0278240D01*
X0179027Y0278941D01*
X0179261Y0279174D01*
X0179027Y0277701D02*
X0179027Y0276767D01*
X0179027Y0277234D02*
X0180428Y0277234D01*
X0179878Y0270897D02*
X0179878Y0269963D01*
X0179177Y0270664D01*
X0180578Y0270664D01*
X0179878Y0269424D02*
X0180111Y0269191D01*
X0180111Y0268490D01*
X0180578Y0268490D02*
X0179177Y0268490D01*
X0179177Y0269191D01*
X0179411Y0269424D01*
X0179878Y0269424D01*
X0179177Y0267951D02*
X0179177Y0267017D01*
X0179177Y0267484D02*
X0180578Y0267484D01*
X0258532Y0237818D02*
X0258532Y0236650D01*
X0258765Y0236417D01*
X0259233Y0236417D01*
X0259466Y0236650D01*
X0259466Y0237818D01*
X0260005Y0237351D02*
X0260472Y0237818D01*
X0260472Y0236417D01*
X0260005Y0236417D02*
X0260939Y0236417D01*
X0273378Y0196268D02*
X0274313Y0196268D01*
X0273846Y0196268D02*
X0273846Y0194867D01*
X0274852Y0194867D02*
X0274852Y0196268D01*
X0275552Y0196268D01*
X0275786Y0196034D01*
X0275786Y0195567D01*
X0275552Y0195334D01*
X0274852Y0195334D01*
X0276325Y0194867D02*
X0277259Y0195801D01*
X0277259Y0196034D01*
X0277026Y0196268D01*
X0276559Y0196268D01*
X0276325Y0196034D01*
X0276325Y0194867D02*
X0277259Y0194867D01*
X0277798Y0194867D02*
X0278732Y0195801D01*
X0278732Y0196034D01*
X0278499Y0196268D01*
X0278032Y0196268D01*
X0277798Y0196034D01*
X0277798Y0194867D02*
X0278732Y0194867D01*
X0278849Y0186068D02*
X0279082Y0185834D01*
X0279082Y0185601D01*
X0278849Y0185367D01*
X0278382Y0185367D01*
X0278148Y0185601D01*
X0278148Y0185834D01*
X0278382Y0186068D01*
X0278849Y0186068D01*
X0278849Y0185367D02*
X0279082Y0185134D01*
X0279082Y0184900D01*
X0278849Y0184667D01*
X0278382Y0184667D01*
X0278148Y0184900D01*
X0278148Y0185134D01*
X0278382Y0185367D01*
X0277609Y0185601D02*
X0277609Y0185834D01*
X0277376Y0186068D01*
X0276909Y0186068D01*
X0276675Y0185834D01*
X0276136Y0185834D02*
X0276136Y0185367D01*
X0275902Y0185134D01*
X0275202Y0185134D01*
X0275202Y0184667D02*
X0275202Y0186068D01*
X0275902Y0186068D01*
X0276136Y0185834D01*
X0276675Y0184667D02*
X0277609Y0185601D01*
X0277609Y0184667D02*
X0276675Y0184667D01*
X0274663Y0186068D02*
X0273728Y0186068D01*
X0274196Y0186068D02*
X0274196Y0184667D01*
X0274163Y0175918D02*
X0273228Y0175918D01*
X0273696Y0175918D02*
X0273696Y0174517D01*
X0274702Y0174517D02*
X0274702Y0175918D01*
X0275402Y0175918D01*
X0275636Y0175684D01*
X0275636Y0175217D01*
X0275402Y0174984D01*
X0274702Y0174984D01*
X0276175Y0174750D02*
X0276409Y0174517D01*
X0276876Y0174517D01*
X0277109Y0174750D01*
X0277109Y0174984D01*
X0276876Y0175217D01*
X0276642Y0175217D01*
X0276876Y0175217D02*
X0277109Y0175451D01*
X0277109Y0175684D01*
X0276876Y0175918D01*
X0276409Y0175918D01*
X0276175Y0175684D01*
X0277648Y0175217D02*
X0278349Y0175918D01*
X0278349Y0174517D01*
X0278582Y0175217D02*
X0277648Y0175217D01*
X0255982Y0171168D02*
X0255048Y0171168D01*
X0255048Y0170467D01*
X0255515Y0170701D01*
X0255749Y0170701D01*
X0255982Y0170467D01*
X0255982Y0170000D01*
X0255749Y0169767D01*
X0255282Y0169767D01*
X0255048Y0170000D01*
X0254509Y0170000D02*
X0254276Y0169767D01*
X0253809Y0169767D01*
X0253575Y0170000D01*
X0254042Y0170467D02*
X0254276Y0170467D01*
X0254509Y0170234D01*
X0254509Y0170000D01*
X0254276Y0170467D02*
X0254509Y0170701D01*
X0254509Y0170934D01*
X0254276Y0171168D01*
X0253809Y0171168D01*
X0253575Y0170934D01*
X0253036Y0170934D02*
X0253036Y0170467D01*
X0252802Y0170234D01*
X0252102Y0170234D01*
X0252102Y0169767D02*
X0252102Y0171168D01*
X0252802Y0171168D01*
X0253036Y0170934D01*
X0251563Y0171168D02*
X0250628Y0171168D01*
X0251096Y0171168D02*
X0251096Y0169767D01*
X0243532Y0174800D02*
X0243532Y0175034D01*
X0243299Y0175267D01*
X0242598Y0175267D01*
X0242598Y0174800D01*
X0242832Y0174567D01*
X0243299Y0174567D01*
X0243532Y0174800D01*
X0243065Y0175734D02*
X0242598Y0175267D01*
X0242059Y0175034D02*
X0242059Y0174800D01*
X0241826Y0174567D01*
X0241359Y0174567D01*
X0241125Y0174800D01*
X0241592Y0175267D02*
X0241826Y0175267D01*
X0242059Y0175034D01*
X0241826Y0175267D02*
X0242059Y0175501D01*
X0242059Y0175734D01*
X0241826Y0175968D01*
X0241359Y0175968D01*
X0241125Y0175734D01*
X0240586Y0175734D02*
X0240586Y0175267D01*
X0240352Y0175034D01*
X0239652Y0175034D01*
X0239652Y0174567D02*
X0239652Y0175968D01*
X0240352Y0175968D01*
X0240586Y0175734D01*
X0239113Y0175968D02*
X0238178Y0175968D01*
X0238646Y0175968D02*
X0238646Y0174567D01*
X0243065Y0175734D02*
X0243532Y0175968D01*
X0251146Y0179517D02*
X0251146Y0180918D01*
X0251613Y0180918D02*
X0250678Y0180918D01*
X0252152Y0180918D02*
X0252152Y0179517D01*
X0252152Y0179984D02*
X0252852Y0179984D01*
X0253086Y0180217D01*
X0253086Y0180684D01*
X0252852Y0180918D01*
X0252152Y0180918D01*
X0253625Y0180684D02*
X0253859Y0180918D01*
X0254326Y0180918D01*
X0254559Y0180684D01*
X0254559Y0180451D01*
X0253625Y0179517D01*
X0254559Y0179517D01*
X0255098Y0179750D02*
X0255332Y0179517D01*
X0255799Y0179517D01*
X0256032Y0179750D01*
X0256032Y0180684D01*
X0255799Y0180918D01*
X0255332Y0180918D01*
X0255098Y0180684D01*
X0255098Y0180451D01*
X0255332Y0180217D01*
X0256032Y0180217D01*
X0243432Y0184850D02*
X0243432Y0185784D01*
X0242498Y0184850D01*
X0242732Y0184617D01*
X0243199Y0184617D01*
X0243432Y0184850D01*
X0242498Y0184850D02*
X0242498Y0185784D01*
X0242732Y0186018D01*
X0243199Y0186018D01*
X0243432Y0185784D01*
X0241959Y0185784D02*
X0241959Y0185551D01*
X0241726Y0185317D01*
X0241959Y0185084D01*
X0241959Y0184850D01*
X0241726Y0184617D01*
X0241259Y0184617D01*
X0241025Y0184850D01*
X0241492Y0185317D02*
X0241726Y0185317D01*
X0241959Y0185784D02*
X0241726Y0186018D01*
X0241259Y0186018D01*
X0241025Y0185784D01*
X0240486Y0185784D02*
X0240486Y0185317D01*
X0240252Y0185084D01*
X0239552Y0185084D01*
X0239552Y0184617D02*
X0239552Y0186018D01*
X0240252Y0186018D01*
X0240486Y0185784D01*
X0239013Y0186018D02*
X0238078Y0186018D01*
X0238546Y0186018D02*
X0238546Y0184617D01*
X0238946Y0193817D02*
X0238946Y0195218D01*
X0239413Y0195218D02*
X0238478Y0195218D01*
X0239952Y0195218D02*
X0240652Y0195218D01*
X0240886Y0194984D01*
X0240886Y0194517D01*
X0240652Y0194284D01*
X0239952Y0194284D01*
X0239952Y0193817D02*
X0239952Y0195218D01*
X0241425Y0194984D02*
X0241659Y0195218D01*
X0242126Y0195218D01*
X0242359Y0194984D01*
X0242359Y0194751D01*
X0241425Y0193817D01*
X0242359Y0193817D01*
X0242898Y0194517D02*
X0243832Y0194517D01*
X0243599Y0193817D02*
X0243599Y0195218D01*
X0242898Y0194517D01*
X0250528Y0190918D02*
X0251463Y0190918D01*
X0250996Y0190918D02*
X0250996Y0189517D01*
X0252002Y0189517D02*
X0252002Y0190918D01*
X0252702Y0190918D01*
X0252936Y0190684D01*
X0252936Y0190217D01*
X0252702Y0189984D01*
X0252002Y0189984D01*
X0253475Y0189517D02*
X0254409Y0190451D01*
X0254409Y0190684D01*
X0254176Y0190918D01*
X0253709Y0190918D01*
X0253475Y0190684D01*
X0253475Y0189517D02*
X0254409Y0189517D01*
X0254948Y0189750D02*
X0255182Y0189517D01*
X0255649Y0189517D01*
X0255882Y0189750D01*
X0255882Y0189984D01*
X0255649Y0190217D01*
X0255415Y0190217D01*
X0255649Y0190217D02*
X0255882Y0190451D01*
X0255882Y0190684D01*
X0255649Y0190918D01*
X0255182Y0190918D01*
X0254948Y0190684D01*
X0355177Y0221467D02*
X0355177Y0222401D01*
X0355177Y0221934D02*
X0356578Y0221934D01*
X0356578Y0222940D02*
X0355177Y0222940D01*
X0355177Y0223641D01*
X0355411Y0223874D01*
X0355878Y0223874D01*
X0356111Y0223641D01*
X0356111Y0222940D01*
X0356578Y0224413D02*
X0355644Y0225347D01*
X0355411Y0225347D01*
X0355177Y0225114D01*
X0355177Y0224647D01*
X0355411Y0224413D01*
X0356578Y0224413D02*
X0356578Y0225347D01*
X0356578Y0225886D02*
X0356578Y0226821D01*
X0356578Y0226354D02*
X0355177Y0226354D01*
X0355644Y0225886D01*
X0355727Y0230774D02*
X0355727Y0231708D01*
X0355727Y0231241D02*
X0357128Y0231241D01*
X0357128Y0232247D02*
X0355727Y0232247D01*
X0355727Y0232948D01*
X0355961Y0233181D01*
X0356428Y0233181D01*
X0356661Y0232948D01*
X0356661Y0232247D01*
X0357128Y0233720D02*
X0356194Y0234654D01*
X0355961Y0234654D01*
X0355727Y0234421D01*
X0355727Y0233954D01*
X0355961Y0233720D01*
X0357128Y0233720D02*
X0357128Y0234654D01*
X0356895Y0235193D02*
X0355961Y0236128D01*
X0356895Y0236128D01*
X0357128Y0235894D01*
X0357128Y0235427D01*
X0356895Y0235193D01*
X0355961Y0235193D01*
X0355727Y0235427D01*
X0355727Y0235894D01*
X0355961Y0236128D01*
X0355727Y0242517D02*
X0355727Y0243451D01*
X0355727Y0242984D02*
X0357128Y0242984D01*
X0357128Y0243990D02*
X0355727Y0243990D01*
X0355727Y0244691D01*
X0355961Y0244924D01*
X0356428Y0244924D01*
X0356661Y0244691D01*
X0356661Y0243990D01*
X0356194Y0245463D02*
X0355727Y0245930D01*
X0357128Y0245930D01*
X0357128Y0245463D02*
X0357128Y0246397D01*
X0356895Y0246936D02*
X0357128Y0247170D01*
X0357128Y0247637D01*
X0356895Y0247871D01*
X0355961Y0247871D01*
X0355727Y0247637D01*
X0355727Y0247170D01*
X0355961Y0246936D01*
X0356194Y0246936D01*
X0356428Y0247170D01*
X0356428Y0247871D01*
X0365627Y0247404D02*
X0367028Y0247404D01*
X0367028Y0247871D02*
X0367028Y0246936D01*
X0366795Y0246397D02*
X0367028Y0246164D01*
X0367028Y0245697D01*
X0366795Y0245463D01*
X0366328Y0245930D02*
X0366328Y0246164D01*
X0366561Y0246397D01*
X0366795Y0246397D01*
X0366328Y0246164D02*
X0366094Y0246397D01*
X0365861Y0246397D01*
X0365627Y0246164D01*
X0365627Y0245697D01*
X0365861Y0245463D01*
X0365861Y0244924D02*
X0366328Y0244924D01*
X0366561Y0244691D01*
X0366561Y0243990D01*
X0367028Y0243990D02*
X0365627Y0243990D01*
X0365627Y0244691D01*
X0365861Y0244924D01*
X0365627Y0243451D02*
X0365627Y0242517D01*
X0365627Y0242984D02*
X0367028Y0242984D01*
X0366094Y0246936D02*
X0365627Y0247404D01*
X0375127Y0247721D02*
X0375127Y0246786D01*
X0375828Y0246786D01*
X0375594Y0247254D01*
X0375594Y0247487D01*
X0375828Y0247721D01*
X0376295Y0247721D01*
X0376528Y0247487D01*
X0376528Y0247020D01*
X0376295Y0246786D01*
X0376528Y0246247D02*
X0376528Y0245313D01*
X0375594Y0246247D01*
X0375361Y0246247D01*
X0375127Y0246014D01*
X0375127Y0245547D01*
X0375361Y0245313D01*
X0375361Y0244774D02*
X0375828Y0244774D01*
X0376061Y0244541D01*
X0376061Y0243840D01*
X0376528Y0243840D02*
X0375127Y0243840D01*
X0375127Y0244541D01*
X0375361Y0244774D01*
X0375127Y0243301D02*
X0375127Y0242367D01*
X0375127Y0242834D02*
X0376528Y0242834D01*
X0376495Y0237121D02*
X0376261Y0237121D01*
X0376028Y0236887D01*
X0376028Y0236186D01*
X0376495Y0236186D01*
X0376728Y0236420D01*
X0376728Y0236887D01*
X0376495Y0237121D01*
X0375561Y0236654D02*
X0376028Y0236186D01*
X0375794Y0235647D02*
X0375561Y0235647D01*
X0375327Y0235414D01*
X0375327Y0234947D01*
X0375561Y0234713D01*
X0375561Y0234174D02*
X0376028Y0234174D01*
X0376261Y0233941D01*
X0376261Y0233240D01*
X0376728Y0233240D02*
X0375327Y0233240D01*
X0375327Y0233941D01*
X0375561Y0234174D01*
X0376728Y0234713D02*
X0375794Y0235647D01*
X0376728Y0235647D02*
X0376728Y0234713D01*
X0375561Y0236654D02*
X0375327Y0237121D01*
X0375327Y0232701D02*
X0375327Y0231767D01*
X0375327Y0232234D02*
X0376728Y0232234D01*
X0375561Y0226721D02*
X0376495Y0225786D01*
X0376728Y0225786D01*
X0376728Y0225247D02*
X0376728Y0224313D01*
X0375794Y0225247D01*
X0375561Y0225247D01*
X0375327Y0225014D01*
X0375327Y0224547D01*
X0375561Y0224313D01*
X0375561Y0223774D02*
X0376028Y0223774D01*
X0376261Y0223541D01*
X0376261Y0222840D01*
X0376728Y0222840D02*
X0375327Y0222840D01*
X0375327Y0223541D01*
X0375561Y0223774D01*
X0375327Y0222301D02*
X0375327Y0221367D01*
X0375327Y0221834D02*
X0376728Y0221834D01*
X0375327Y0225786D02*
X0375327Y0226721D01*
X0375561Y0226721D01*
X0366678Y0226537D02*
X0366678Y0226070D01*
X0366445Y0225836D01*
X0366445Y0225297D02*
X0366678Y0225064D01*
X0366678Y0224597D01*
X0366445Y0224363D01*
X0365978Y0224830D02*
X0365978Y0225064D01*
X0366211Y0225297D01*
X0366445Y0225297D01*
X0365978Y0225064D02*
X0365744Y0225297D01*
X0365511Y0225297D01*
X0365277Y0225064D01*
X0365277Y0224597D01*
X0365511Y0224363D01*
X0365511Y0223824D02*
X0365978Y0223824D01*
X0366211Y0223591D01*
X0366211Y0222890D01*
X0366678Y0222890D02*
X0365277Y0222890D01*
X0365277Y0223591D01*
X0365511Y0223824D01*
X0365277Y0222351D02*
X0365277Y0221417D01*
X0365277Y0221884D02*
X0366678Y0221884D01*
X0365511Y0225836D02*
X0365277Y0226070D01*
X0365277Y0226537D01*
X0365511Y0226771D01*
X0365744Y0226771D01*
X0365978Y0226537D01*
X0366211Y0226771D01*
X0366445Y0226771D01*
X0366678Y0226537D01*
X0365978Y0226537D02*
X0365978Y0226304D01*
X0365477Y0231767D02*
X0365477Y0232701D01*
X0365477Y0232234D02*
X0366878Y0232234D01*
X0366878Y0233240D02*
X0365477Y0233240D01*
X0365477Y0233941D01*
X0365711Y0234174D01*
X0366178Y0234174D01*
X0366411Y0233941D01*
X0366411Y0233240D01*
X0366645Y0234713D02*
X0366878Y0234947D01*
X0366878Y0235414D01*
X0366645Y0235647D01*
X0366411Y0235647D01*
X0366178Y0235414D01*
X0366178Y0235180D01*
X0366178Y0235414D02*
X0365944Y0235647D01*
X0365711Y0235647D01*
X0365477Y0235414D01*
X0365477Y0234947D01*
X0365711Y0234713D01*
X0365711Y0236186D02*
X0365477Y0236420D01*
X0365477Y0236887D01*
X0365711Y0237121D01*
X0365944Y0237121D01*
X0366878Y0236186D01*
X0366878Y0237121D01*
X0361728Y0206428D02*
X0361728Y0205493D01*
X0361728Y0205960D02*
X0360327Y0205960D01*
X0360794Y0205493D01*
X0360561Y0204954D02*
X0361028Y0204954D01*
X0361261Y0204721D01*
X0361261Y0204020D01*
X0361728Y0204020D02*
X0360327Y0204020D01*
X0360327Y0204721D01*
X0360561Y0204954D01*
X0360327Y0203481D02*
X0360327Y0203014D01*
X0360327Y0203248D02*
X0361495Y0203248D01*
X0361728Y0203014D01*
X0361728Y0202780D01*
X0361495Y0202547D01*
D18*
X0333319Y0206559D02*
X0333319Y0207427D01*
X0333102Y0207643D01*
X0332669Y0207643D01*
X0332452Y0207427D01*
X0332452Y0207210D01*
X0332669Y0206993D01*
X0333319Y0206993D01*
X0333319Y0206559D02*
X0333102Y0206342D01*
X0332669Y0206342D01*
X0332452Y0206559D01*
X0331846Y0206342D02*
X0331412Y0206776D01*
X0331629Y0206776D02*
X0330978Y0206776D01*
X0330978Y0206342D02*
X0330978Y0207643D01*
X0331629Y0207643D01*
X0331846Y0207427D01*
X0331846Y0206993D01*
X0331629Y0206776D01*
X0327542Y0206359D02*
X0327326Y0206142D01*
X0326892Y0206142D01*
X0326675Y0206359D01*
X0327542Y0207227D01*
X0327542Y0206359D01*
X0326675Y0206359D02*
X0326675Y0207227D01*
X0326892Y0207443D01*
X0327326Y0207443D01*
X0327542Y0207227D01*
X0326069Y0206142D02*
X0325202Y0206142D01*
X0325635Y0206142D02*
X0325635Y0207443D01*
X0325202Y0207010D01*
X0324596Y0207227D02*
X0324379Y0207443D01*
X0323728Y0207443D01*
X0323728Y0206142D01*
X0323728Y0206576D02*
X0324379Y0206576D01*
X0324596Y0206793D01*
X0324596Y0207227D01*
X0324162Y0206576D02*
X0324596Y0206142D01*
X0318454Y0206104D02*
X0317153Y0206104D01*
X0317587Y0205670D01*
X0317804Y0205064D02*
X0318020Y0204847D01*
X0318020Y0204197D01*
X0318020Y0204631D02*
X0318454Y0205064D01*
X0318454Y0205670D02*
X0318454Y0206538D01*
X0318454Y0207143D02*
X0317587Y0208011D01*
X0317370Y0208011D01*
X0317153Y0207794D01*
X0317153Y0207360D01*
X0317370Y0207143D01*
X0318454Y0207143D02*
X0318454Y0208011D01*
X0317804Y0205064D02*
X0317370Y0205064D01*
X0317153Y0204847D01*
X0317153Y0204197D01*
X0318454Y0204197D01*
X0310923Y0202291D02*
X0310055Y0202291D01*
X0310489Y0202291D02*
X0310489Y0203592D01*
X0310055Y0203159D01*
X0309449Y0202291D02*
X0308582Y0202291D01*
X0309016Y0202291D02*
X0309016Y0203592D01*
X0308582Y0203159D01*
X0307976Y0203375D02*
X0307976Y0202942D01*
X0307759Y0202725D01*
X0307109Y0202725D01*
X0307542Y0202725D02*
X0307976Y0202291D01*
X0307109Y0202291D02*
X0307109Y0203592D01*
X0307759Y0203592D01*
X0307976Y0203375D01*
X0307043Y0213329D02*
X0306123Y0214250D01*
X0306583Y0214710D01*
X0306890Y0214710D01*
X0307196Y0214403D01*
X0307196Y0214096D01*
X0306736Y0213636D01*
X0307043Y0213943D02*
X0307656Y0213943D01*
X0307931Y0214525D02*
X0308238Y0214525D01*
X0308545Y0214831D01*
X0308545Y0215138D01*
X0308391Y0215291D01*
X0308085Y0215291D01*
X0307931Y0215138D01*
X0308085Y0215291D02*
X0308085Y0215598D01*
X0307931Y0215751D01*
X0307625Y0215751D01*
X0307318Y0215445D01*
X0307318Y0215138D01*
X0308360Y0216180D02*
X0308360Y0216486D01*
X0308666Y0216793D01*
X0308973Y0216793D01*
X0308973Y0215566D01*
X0309280Y0215566D01*
X0309586Y0215873D01*
X0309586Y0216180D01*
X0308973Y0216793D01*
X0308360Y0216180D02*
X0308973Y0215566D01*
X0306157Y0218233D02*
X0306157Y0219459D01*
X0306003Y0219613D01*
X0305697Y0219613D01*
X0305390Y0219306D01*
X0305390Y0218999D01*
X0304962Y0218571D02*
X0305115Y0218418D01*
X0305115Y0218111D01*
X0305422Y0218111D01*
X0305575Y0217958D01*
X0305575Y0217651D01*
X0305268Y0217344D01*
X0304962Y0217344D01*
X0304962Y0217958D02*
X0305115Y0218111D01*
X0304962Y0218571D02*
X0304655Y0218571D01*
X0304348Y0218264D01*
X0304348Y0217958D01*
X0303920Y0217529D02*
X0304226Y0217223D01*
X0304226Y0216916D01*
X0303766Y0216456D01*
X0304073Y0216763D02*
X0304686Y0216763D01*
X0304073Y0216149D02*
X0303153Y0217069D01*
X0303613Y0217529D01*
X0303920Y0217529D01*
X0306157Y0218233D02*
X0306770Y0218846D01*
X0304047Y0222013D02*
X0303127Y0222933D01*
X0303127Y0222013D01*
X0303740Y0222626D01*
X0302545Y0221738D02*
X0302545Y0221431D01*
X0302852Y0221431D01*
X0303005Y0221278D01*
X0303005Y0220971D01*
X0302698Y0220664D01*
X0302392Y0220664D01*
X0302392Y0221278D02*
X0302545Y0221431D01*
X0302545Y0221738D02*
X0302392Y0221891D01*
X0302085Y0221891D01*
X0301778Y0221584D01*
X0301778Y0221278D01*
X0301350Y0220849D02*
X0301657Y0220543D01*
X0301657Y0220236D01*
X0301197Y0219776D01*
X0301503Y0220083D02*
X0302117Y0220083D01*
X0301503Y0219469D02*
X0300583Y0220389D01*
X0301043Y0220849D01*
X0301350Y0220849D01*
X0299647Y0222652D02*
X0299033Y0222652D01*
X0299187Y0222806D02*
X0298727Y0222346D01*
X0299033Y0222039D02*
X0298113Y0222959D01*
X0298573Y0223419D01*
X0298880Y0223419D01*
X0299187Y0223112D01*
X0299187Y0222806D01*
X0299922Y0223234D02*
X0300229Y0223234D01*
X0300535Y0223541D01*
X0300535Y0223847D01*
X0300382Y0224001D01*
X0300075Y0224001D01*
X0299922Y0223847D01*
X0300075Y0224001D02*
X0300075Y0224307D01*
X0299922Y0224461D01*
X0299615Y0224461D01*
X0299309Y0224154D01*
X0299309Y0223847D01*
X0300657Y0224583D02*
X0301117Y0225043D01*
X0301424Y0225043D01*
X0301577Y0224889D01*
X0301577Y0224583D01*
X0301270Y0224276D01*
X0300964Y0224276D01*
X0300657Y0224583D01*
X0300657Y0225196D01*
X0300810Y0225656D01*
X0313297Y0237222D02*
X0313757Y0237682D01*
X0314063Y0237682D01*
X0314370Y0237376D01*
X0314370Y0237069D01*
X0313910Y0236609D01*
X0314217Y0236302D02*
X0313297Y0237222D01*
X0314217Y0236916D02*
X0314830Y0236916D01*
X0315105Y0237497D02*
X0315412Y0237497D01*
X0315718Y0237804D01*
X0315718Y0238111D01*
X0315565Y0238264D01*
X0315258Y0238264D01*
X0315105Y0238111D01*
X0315258Y0238264D02*
X0315258Y0238571D01*
X0315105Y0238724D01*
X0314798Y0238724D01*
X0314492Y0238417D01*
X0314492Y0238111D01*
X0315380Y0239306D02*
X0315840Y0238846D01*
X0315993Y0239306D01*
X0316147Y0239459D01*
X0316453Y0239459D01*
X0316760Y0239153D01*
X0316760Y0238846D01*
X0316453Y0238539D01*
X0316147Y0238539D01*
X0315380Y0239306D02*
X0315993Y0239919D01*
X0312080Y0243656D02*
X0311927Y0243809D01*
X0311927Y0245036D01*
X0311774Y0245189D01*
X0311160Y0244576D01*
X0310885Y0243994D02*
X0311039Y0243841D01*
X0311039Y0243534D01*
X0311345Y0243534D01*
X0311499Y0243381D01*
X0311499Y0243074D01*
X0311192Y0242767D01*
X0310885Y0242767D01*
X0310885Y0243381D02*
X0311039Y0243534D01*
X0310885Y0243994D02*
X0310579Y0243994D01*
X0310272Y0243687D01*
X0310272Y0243381D01*
X0309843Y0242952D02*
X0310150Y0242646D01*
X0310150Y0242339D01*
X0309690Y0241879D01*
X0309997Y0242186D02*
X0310610Y0242186D01*
X0309997Y0241572D02*
X0309077Y0242492D01*
X0309537Y0242952D01*
X0309843Y0242952D01*
X0318080Y0234228D02*
X0318731Y0234228D01*
X0318948Y0234011D01*
X0318948Y0233578D01*
X0318731Y0233361D01*
X0318080Y0233361D01*
X0318080Y0232927D02*
X0318080Y0234228D01*
X0318514Y0233361D02*
X0318948Y0232927D01*
X0319554Y0233144D02*
X0319770Y0232927D01*
X0320204Y0232927D01*
X0320421Y0233144D01*
X0320421Y0233361D01*
X0320204Y0233578D01*
X0319987Y0233578D01*
X0320204Y0233578D02*
X0320421Y0233794D01*
X0320421Y0234011D01*
X0320204Y0234228D01*
X0319770Y0234228D01*
X0319554Y0234011D01*
X0321027Y0234011D02*
X0321244Y0234228D01*
X0321677Y0234228D01*
X0321894Y0234011D01*
X0321894Y0233794D01*
X0321677Y0233578D01*
X0321894Y0233361D01*
X0321894Y0233144D01*
X0321677Y0232927D01*
X0321244Y0232927D01*
X0321027Y0233144D01*
X0321461Y0233578D02*
X0321677Y0233578D01*
X0320326Y0227073D02*
X0321247Y0226153D01*
X0321553Y0226459D02*
X0320940Y0225846D01*
X0320358Y0225571D02*
X0320358Y0225264D01*
X0320051Y0224958D01*
X0319745Y0224958D01*
X0319745Y0225571D02*
X0319898Y0225724D01*
X0320205Y0225724D01*
X0320358Y0225571D01*
X0319898Y0225724D02*
X0319898Y0226031D01*
X0319745Y0226184D01*
X0319438Y0226184D01*
X0319131Y0225878D01*
X0319131Y0225571D01*
X0318703Y0225143D02*
X0319010Y0224836D01*
X0319010Y0224529D01*
X0318550Y0224069D01*
X0318856Y0223763D02*
X0317936Y0224683D01*
X0318396Y0225143D01*
X0318703Y0225143D01*
X0318856Y0224376D02*
X0319470Y0224376D01*
X0320327Y0226459D02*
X0320326Y0227073D01*
X0283323Y0220317D02*
X0282455Y0220317D01*
X0282889Y0220317D02*
X0282889Y0221618D01*
X0282455Y0221184D01*
X0281849Y0220317D02*
X0280982Y0220317D01*
X0280982Y0221618D01*
X0247910Y0219649D02*
X0247910Y0219343D01*
X0247603Y0219036D01*
X0247297Y0219036D01*
X0247297Y0219649D02*
X0247450Y0219803D01*
X0247757Y0219803D01*
X0247910Y0219649D01*
X0247450Y0219803D02*
X0247450Y0220109D01*
X0247297Y0220263D01*
X0246990Y0220263D01*
X0246683Y0219956D01*
X0246683Y0219649D01*
X0245795Y0219068D02*
X0246715Y0218147D01*
X0246408Y0217841D02*
X0247022Y0218454D01*
X0245795Y0218454D02*
X0245795Y0219068D01*
X0245213Y0218179D02*
X0245520Y0217872D01*
X0245520Y0217566D01*
X0245060Y0217106D01*
X0245367Y0217412D02*
X0245980Y0217412D01*
X0245367Y0216799D02*
X0244447Y0217719D01*
X0244907Y0218179D01*
X0245213Y0218179D01*
X0237433Y0220236D02*
X0237433Y0220543D01*
X0237280Y0220696D01*
X0236973Y0220696D01*
X0236513Y0220236D01*
X0236820Y0219930D01*
X0237126Y0219930D01*
X0237433Y0220236D01*
X0236513Y0220236D02*
X0236513Y0220850D01*
X0236666Y0221310D01*
X0235778Y0220115D02*
X0235471Y0220115D01*
X0235011Y0219655D01*
X0235931Y0218735D01*
X0235624Y0219041D02*
X0236084Y0219501D01*
X0236084Y0219808D01*
X0235778Y0220115D01*
X0235931Y0219348D02*
X0236544Y0219348D01*
X0234346Y0228920D02*
X0233426Y0229840D01*
X0233886Y0230300D01*
X0234192Y0230300D01*
X0234499Y0229993D01*
X0234499Y0229687D01*
X0234039Y0229227D01*
X0234346Y0229533D02*
X0234959Y0229533D01*
X0235234Y0230115D02*
X0235541Y0230115D01*
X0235847Y0230422D01*
X0235847Y0230729D01*
X0235541Y0231035D01*
X0235234Y0231035D01*
X0235081Y0230882D01*
X0234927Y0230422D01*
X0234467Y0230882D01*
X0235081Y0231495D01*
X0199854Y0207661D02*
X0199854Y0206793D01*
X0199854Y0207227D02*
X0198553Y0207227D01*
X0198987Y0206793D01*
X0199204Y0206188D02*
X0199637Y0206188D01*
X0199854Y0205971D01*
X0199854Y0205537D01*
X0199637Y0205320D01*
X0199204Y0205320D02*
X0198987Y0205754D01*
X0198987Y0205971D01*
X0199204Y0206188D01*
X0198553Y0206188D02*
X0198553Y0205320D01*
X0199204Y0205320D01*
X0199204Y0204714D02*
X0199420Y0204497D01*
X0199420Y0203847D01*
X0199420Y0204281D02*
X0199854Y0204714D01*
X0199204Y0204714D02*
X0198770Y0204714D01*
X0198553Y0204497D01*
X0198553Y0203847D01*
X0199854Y0203847D01*
X0226853Y0190594D02*
X0226853Y0190160D01*
X0227070Y0189943D01*
X0226853Y0189338D02*
X0226853Y0188470D01*
X0227504Y0188470D01*
X0227287Y0188904D01*
X0227287Y0189121D01*
X0227504Y0189338D01*
X0227937Y0189338D01*
X0228154Y0189121D01*
X0228154Y0188687D01*
X0227937Y0188470D01*
X0228154Y0187864D02*
X0227720Y0187431D01*
X0227720Y0187647D02*
X0227720Y0186997D01*
X0228154Y0186997D02*
X0226853Y0186997D01*
X0226853Y0187647D01*
X0227070Y0187864D01*
X0227504Y0187864D01*
X0227720Y0187647D01*
X0228154Y0189943D02*
X0227287Y0190811D01*
X0227070Y0190811D01*
X0226853Y0190594D01*
X0228154Y0190811D02*
X0228154Y0189943D01*
X0331628Y0189618D02*
X0331628Y0188317D01*
X0332496Y0188317D01*
X0333102Y0188317D02*
X0333969Y0189184D01*
X0333969Y0189401D01*
X0333752Y0189618D01*
X0333319Y0189618D01*
X0333102Y0189401D01*
X0333102Y0188317D02*
X0333969Y0188317D01*
X0338853Y0254770D02*
X0338853Y0255421D01*
X0339070Y0255638D01*
X0339504Y0255638D01*
X0339720Y0255421D01*
X0339720Y0254770D01*
X0339720Y0255204D02*
X0340154Y0255638D01*
X0340154Y0256243D02*
X0340154Y0257111D01*
X0340154Y0256677D02*
X0338853Y0256677D01*
X0339287Y0256243D01*
X0338853Y0254770D02*
X0340154Y0254770D01*
X0347353Y0260597D02*
X0347353Y0261247D01*
X0347570Y0261464D01*
X0348004Y0261464D01*
X0348220Y0261247D01*
X0348220Y0260597D01*
X0348220Y0261031D02*
X0348654Y0261464D01*
X0348654Y0260597D02*
X0347353Y0260597D01*
X0348004Y0262070D02*
X0348004Y0262938D01*
X0348004Y0263543D02*
X0348004Y0264411D01*
X0348654Y0264194D02*
X0347353Y0264194D01*
X0348004Y0263543D01*
X0348654Y0262721D02*
X0347353Y0262721D01*
X0348004Y0262070D01*
X0349853Y0262721D02*
X0350504Y0262070D01*
X0350504Y0262938D01*
X0351154Y0262721D02*
X0349853Y0262721D01*
X0350070Y0263543D02*
X0349853Y0263760D01*
X0349853Y0264194D01*
X0350070Y0264411D01*
X0350287Y0264411D01*
X0351154Y0263543D01*
X0351154Y0264411D01*
X0349254Y0266647D02*
X0347953Y0266647D01*
X0347953Y0267297D01*
X0348170Y0267514D01*
X0348604Y0267514D01*
X0348820Y0267297D01*
X0348820Y0266647D01*
X0348820Y0267081D02*
X0349254Y0267514D01*
X0348604Y0268120D02*
X0348604Y0268988D01*
X0349254Y0268771D02*
X0347953Y0268771D01*
X0348604Y0268120D01*
X0347454Y0267514D02*
X0347020Y0267081D01*
X0347020Y0267297D02*
X0347020Y0266647D01*
X0347454Y0266647D02*
X0346153Y0266647D01*
X0346153Y0267297D01*
X0346370Y0267514D01*
X0346804Y0267514D01*
X0347020Y0267297D01*
X0346804Y0268120D02*
X0346804Y0268988D01*
X0346804Y0269593D02*
X0346587Y0270027D01*
X0346587Y0270244D01*
X0346804Y0270461D01*
X0347237Y0270461D01*
X0347454Y0270244D01*
X0347454Y0269810D01*
X0347237Y0269593D01*
X0346804Y0269593D02*
X0346153Y0269593D01*
X0346153Y0270461D01*
X0346153Y0268771D02*
X0346804Y0268120D01*
X0347454Y0268771D02*
X0346153Y0268771D01*
X0347953Y0269810D02*
X0347953Y0270244D01*
X0348170Y0270461D01*
X0348387Y0270461D01*
X0348604Y0270244D01*
X0348820Y0270461D01*
X0349037Y0270461D01*
X0349254Y0270244D01*
X0349254Y0269810D01*
X0349037Y0269593D01*
X0348604Y0270027D02*
X0348604Y0270244D01*
X0348170Y0269593D02*
X0347953Y0269810D01*
X0350070Y0261464D02*
X0350504Y0261464D01*
X0350720Y0261247D01*
X0350720Y0260597D01*
X0350720Y0261031D02*
X0351154Y0261464D01*
X0351154Y0260597D02*
X0349853Y0260597D01*
X0349853Y0261247D01*
X0350070Y0261464D01*
X0367653Y0267847D02*
X0367653Y0268497D01*
X0367870Y0268714D01*
X0368304Y0268714D01*
X0368520Y0268497D01*
X0368520Y0267847D01*
X0368520Y0268281D02*
X0368954Y0268714D01*
X0368954Y0267847D02*
X0367653Y0267847D01*
X0368304Y0269320D02*
X0368304Y0270188D01*
X0368087Y0270793D02*
X0367653Y0271227D01*
X0368954Y0271227D01*
X0368954Y0270793D02*
X0368954Y0271661D01*
X0370003Y0271444D02*
X0370003Y0271010D01*
X0370220Y0270793D01*
X0370437Y0270793D01*
X0370654Y0271010D01*
X0370654Y0271661D01*
X0371087Y0271661D02*
X0370220Y0271661D01*
X0370003Y0271444D01*
X0371087Y0271661D02*
X0371304Y0271444D01*
X0371304Y0271010D01*
X0371087Y0270793D01*
X0371087Y0270188D02*
X0371304Y0269971D01*
X0371304Y0269537D01*
X0371087Y0269320D01*
X0370654Y0269754D02*
X0370654Y0269971D01*
X0370870Y0270188D01*
X0371087Y0270188D01*
X0370654Y0269971D02*
X0370437Y0270188D01*
X0370220Y0270188D01*
X0370003Y0269971D01*
X0370003Y0269537D01*
X0370220Y0269320D01*
X0370220Y0268714D02*
X0370654Y0268714D01*
X0370870Y0268497D01*
X0370870Y0267847D01*
X0370870Y0268281D02*
X0371304Y0268714D01*
X0371304Y0267847D02*
X0370003Y0267847D01*
X0370003Y0268497D01*
X0370220Y0268714D01*
X0368954Y0269971D02*
X0367653Y0269971D01*
X0368304Y0269320D01*
X0369770Y0263661D02*
X0370637Y0262793D01*
X0370854Y0263010D01*
X0370854Y0263444D01*
X0370637Y0263661D01*
X0369770Y0263661D01*
X0369553Y0263444D01*
X0369553Y0263010D01*
X0369770Y0262793D01*
X0370637Y0262793D01*
X0370204Y0262188D02*
X0370204Y0261320D01*
X0369553Y0261971D01*
X0370854Y0261971D01*
X0371853Y0261971D02*
X0372070Y0262188D01*
X0372287Y0262188D01*
X0372504Y0261971D01*
X0372720Y0262188D01*
X0372937Y0262188D01*
X0373154Y0261971D01*
X0373154Y0261537D01*
X0372937Y0261320D01*
X0372504Y0261754D02*
X0372504Y0261971D01*
X0371853Y0261971D02*
X0371853Y0261537D01*
X0372070Y0261320D01*
X0372070Y0260714D02*
X0372504Y0260714D01*
X0372720Y0260497D01*
X0372720Y0259847D01*
X0372720Y0260281D02*
X0373154Y0260714D01*
X0373154Y0259847D02*
X0371853Y0259847D01*
X0371853Y0260497D01*
X0372070Y0260714D01*
X0370854Y0260714D02*
X0370420Y0260281D01*
X0370420Y0260497D02*
X0370420Y0259847D01*
X0370854Y0259847D02*
X0369553Y0259847D01*
X0369553Y0260497D01*
X0369770Y0260714D01*
X0370204Y0260714D01*
X0370420Y0260497D01*
X0372070Y0262793D02*
X0372287Y0262793D01*
X0372504Y0263010D01*
X0372504Y0263444D01*
X0372720Y0263661D01*
X0372937Y0263661D01*
X0373154Y0263444D01*
X0373154Y0263010D01*
X0372937Y0262793D01*
X0372720Y0262793D01*
X0372504Y0263010D01*
X0372504Y0263444D02*
X0372287Y0263661D01*
X0372070Y0263661D01*
X0371853Y0263444D01*
X0371853Y0263010D01*
X0372070Y0262793D01*
X0325706Y0283191D02*
X0325706Y0284492D01*
X0325055Y0283842D01*
X0325923Y0283842D01*
X0324449Y0283842D02*
X0324449Y0284275D01*
X0324233Y0284492D01*
X0323582Y0284492D01*
X0323582Y0283191D01*
X0323582Y0283625D02*
X0324233Y0283625D01*
X0324449Y0283842D01*
X0324016Y0283625D02*
X0324449Y0283191D01*
X0320855Y0291191D02*
X0320855Y0291408D01*
X0321723Y0292275D01*
X0321723Y0292492D01*
X0320855Y0292492D01*
X0320249Y0292275D02*
X0320249Y0291842D01*
X0320033Y0291625D01*
X0319382Y0291625D01*
X0319816Y0291625D02*
X0320249Y0291191D01*
X0319382Y0291191D02*
X0319382Y0292492D01*
X0320033Y0292492D01*
X0320249Y0292275D01*
X0320249Y0296791D02*
X0319816Y0297225D01*
X0320033Y0297225D02*
X0319382Y0297225D01*
X0319382Y0296791D02*
X0319382Y0298092D01*
X0320033Y0298092D01*
X0320249Y0297875D01*
X0320249Y0297442D01*
X0320033Y0297225D01*
X0320855Y0297225D02*
X0321072Y0297442D01*
X0321506Y0297442D01*
X0321723Y0297225D01*
X0321723Y0297008D01*
X0321506Y0296791D01*
X0321072Y0296791D01*
X0320855Y0297008D01*
X0320855Y0297225D01*
X0321072Y0297442D02*
X0320855Y0297659D01*
X0320855Y0297875D01*
X0321072Y0298092D01*
X0321506Y0298092D01*
X0321723Y0297875D01*
X0321723Y0297659D01*
X0321506Y0297442D01*
X0316737Y0274711D02*
X0316954Y0274494D01*
X0316954Y0274060D01*
X0316737Y0273843D01*
X0316304Y0274277D02*
X0316304Y0274494D01*
X0316520Y0274711D01*
X0316737Y0274711D01*
X0316304Y0274494D02*
X0316087Y0274711D01*
X0315870Y0274711D01*
X0315653Y0274494D01*
X0315653Y0274060D01*
X0315870Y0273843D01*
X0315870Y0273238D02*
X0316304Y0273238D01*
X0316520Y0273021D01*
X0316520Y0272370D01*
X0316520Y0272804D02*
X0316954Y0273238D01*
X0316954Y0272370D02*
X0315653Y0272370D01*
X0315653Y0273021D01*
X0315870Y0273238D01*
X0309853Y0261657D02*
X0309853Y0260790D01*
X0308985Y0261657D01*
X0308769Y0261657D01*
X0308552Y0261441D01*
X0308552Y0261007D01*
X0308769Y0260790D01*
X0308769Y0260184D02*
X0309202Y0260184D01*
X0309419Y0259967D01*
X0309419Y0259317D01*
X0309419Y0259750D02*
X0309853Y0260184D01*
X0309853Y0259317D02*
X0308552Y0259317D01*
X0308552Y0259967D01*
X0308769Y0260184D01*
X0209654Y0308797D02*
X0208353Y0308797D01*
X0208353Y0309447D01*
X0208570Y0309664D01*
X0209004Y0309664D01*
X0209220Y0309447D01*
X0209220Y0308797D01*
X0209220Y0309231D02*
X0209654Y0309664D01*
X0209654Y0310270D02*
X0208787Y0311138D01*
X0208570Y0311138D01*
X0208353Y0310921D01*
X0208353Y0310487D01*
X0208570Y0310270D01*
X0209654Y0310270D02*
X0209654Y0311138D01*
X0209654Y0311743D02*
X0209654Y0312611D01*
X0209654Y0312177D02*
X0208353Y0312177D01*
X0208787Y0311743D01*
X0205304Y0311660D02*
X0205304Y0312094D01*
X0205087Y0312311D01*
X0204220Y0312311D01*
X0204003Y0312094D01*
X0204003Y0311660D01*
X0204220Y0311443D01*
X0204437Y0311443D01*
X0204654Y0311660D01*
X0204654Y0312311D01*
X0205304Y0311660D02*
X0205087Y0311443D01*
X0205304Y0310838D02*
X0205304Y0309970D01*
X0205304Y0310404D02*
X0204003Y0310404D01*
X0204437Y0309970D01*
X0204654Y0309364D02*
X0204870Y0309147D01*
X0204870Y0308497D01*
X0204870Y0308931D02*
X0205304Y0309364D01*
X0204654Y0309364D02*
X0204220Y0309364D01*
X0204003Y0309147D01*
X0204003Y0308497D01*
X0205304Y0308497D01*
X0201204Y0308447D02*
X0199903Y0308447D01*
X0199903Y0309097D01*
X0200120Y0309314D01*
X0200554Y0309314D01*
X0200770Y0309097D01*
X0200770Y0308447D01*
X0200770Y0308881D02*
X0201204Y0309314D01*
X0201204Y0309920D02*
X0201204Y0310788D01*
X0201204Y0310354D02*
X0199903Y0310354D01*
X0200337Y0309920D01*
X0199903Y0311393D02*
X0199903Y0312261D01*
X0200120Y0312261D01*
X0200987Y0311393D01*
X0201204Y0311393D01*
X0197404Y0311410D02*
X0197187Y0311193D01*
X0197404Y0311410D02*
X0197404Y0311844D01*
X0197187Y0312061D01*
X0196754Y0312061D01*
X0196537Y0311844D01*
X0196537Y0311627D01*
X0196754Y0311193D01*
X0196103Y0311193D01*
X0196103Y0312061D01*
X0196103Y0310154D02*
X0197404Y0310154D01*
X0197404Y0309720D02*
X0197404Y0310588D01*
X0196537Y0309720D02*
X0196103Y0310154D01*
X0196320Y0309114D02*
X0196754Y0309114D01*
X0196970Y0308897D01*
X0196970Y0308247D01*
X0196970Y0308681D02*
X0197404Y0309114D01*
X0197404Y0308247D02*
X0196103Y0308247D01*
X0196103Y0308897D01*
X0196320Y0309114D01*
X0191504Y0325397D02*
X0190203Y0325397D01*
X0190203Y0326047D01*
X0190420Y0326264D01*
X0190854Y0326264D01*
X0191070Y0326047D01*
X0191070Y0325397D01*
X0191070Y0325831D02*
X0191504Y0326264D01*
X0191504Y0326870D02*
X0191504Y0327738D01*
X0191504Y0327304D02*
X0190203Y0327304D01*
X0190637Y0326870D01*
X0189704Y0326870D02*
X0189704Y0327738D01*
X0189704Y0327304D02*
X0188403Y0327304D01*
X0188837Y0326870D01*
X0189054Y0326264D02*
X0189270Y0326047D01*
X0189270Y0325397D01*
X0189270Y0325831D02*
X0189704Y0326264D01*
X0189054Y0326264D02*
X0188620Y0326264D01*
X0188403Y0326047D01*
X0188403Y0325397D01*
X0189704Y0325397D01*
X0189487Y0328343D02*
X0189704Y0328560D01*
X0189704Y0328994D01*
X0189487Y0329211D01*
X0189270Y0329211D01*
X0189054Y0328994D01*
X0189054Y0328343D01*
X0189487Y0328343D01*
X0189054Y0328343D02*
X0188620Y0328777D01*
X0188403Y0329211D01*
X0190203Y0328994D02*
X0190854Y0328343D01*
X0190854Y0329211D01*
X0191504Y0328994D02*
X0190203Y0328994D01*
X0210053Y0328744D02*
X0210270Y0328961D01*
X0210487Y0328961D01*
X0210704Y0328744D01*
X0210704Y0328310D01*
X0210487Y0328093D01*
X0210270Y0328093D01*
X0210053Y0328310D01*
X0210053Y0328744D01*
X0210704Y0328744D02*
X0210920Y0328961D01*
X0211137Y0328961D01*
X0211354Y0328744D01*
X0211354Y0328310D01*
X0211137Y0328093D01*
X0210920Y0328093D01*
X0210704Y0328310D01*
X0211354Y0327488D02*
X0211354Y0326620D01*
X0211354Y0327054D02*
X0210053Y0327054D01*
X0210487Y0326620D01*
X0210704Y0326014D02*
X0210920Y0325797D01*
X0210920Y0325147D01*
X0210920Y0325581D02*
X0211354Y0326014D01*
X0210704Y0326014D02*
X0210270Y0326014D01*
X0210053Y0325797D01*
X0210053Y0325147D01*
X0211354Y0325147D01*
X0212303Y0325097D02*
X0212303Y0325747D01*
X0212520Y0325964D01*
X0212954Y0325964D01*
X0213170Y0325747D01*
X0213170Y0325097D01*
X0213170Y0325531D02*
X0213604Y0325964D01*
X0213604Y0326570D02*
X0212737Y0327438D01*
X0212520Y0327438D01*
X0212303Y0327221D01*
X0212303Y0326787D01*
X0212520Y0326570D01*
X0213604Y0326570D02*
X0213604Y0327438D01*
X0213387Y0328043D02*
X0212520Y0328911D01*
X0213387Y0328911D01*
X0213604Y0328694D01*
X0213604Y0328260D01*
X0213387Y0328043D01*
X0212520Y0328043D01*
X0212303Y0328260D01*
X0212303Y0328694D01*
X0212520Y0328911D01*
X0212303Y0325097D02*
X0213604Y0325097D01*
X0225203Y0340247D02*
X0225203Y0340897D01*
X0225420Y0341114D01*
X0225854Y0341114D01*
X0226070Y0340897D01*
X0226070Y0340247D01*
X0226070Y0340681D02*
X0226504Y0341114D01*
X0226504Y0341720D02*
X0225637Y0342588D01*
X0225420Y0342588D01*
X0225203Y0342371D01*
X0225203Y0341937D01*
X0225420Y0341720D01*
X0226504Y0341720D02*
X0226504Y0342588D01*
X0226504Y0343193D02*
X0225637Y0344061D01*
X0225420Y0344061D01*
X0225203Y0343844D01*
X0225203Y0343410D01*
X0225420Y0343193D01*
X0226504Y0343193D02*
X0226504Y0344061D01*
X0226453Y0345017D02*
X0225152Y0345017D01*
X0225152Y0345667D01*
X0225369Y0345884D01*
X0225802Y0345884D01*
X0226019Y0345667D01*
X0226019Y0345017D01*
X0226019Y0345450D02*
X0226453Y0345884D01*
X0226453Y0346490D02*
X0225585Y0347357D01*
X0225369Y0347357D01*
X0225152Y0347141D01*
X0225152Y0346707D01*
X0225369Y0346490D01*
X0226453Y0346490D02*
X0226453Y0347357D01*
X0226236Y0347963D02*
X0226453Y0348180D01*
X0226453Y0348614D01*
X0226236Y0348831D01*
X0226019Y0348831D01*
X0225802Y0348614D01*
X0225802Y0348397D01*
X0225802Y0348614D02*
X0225585Y0348831D01*
X0225369Y0348831D01*
X0225152Y0348614D01*
X0225152Y0348180D01*
X0225369Y0347963D01*
X0229303Y0348797D02*
X0229303Y0349447D01*
X0229520Y0349664D01*
X0229954Y0349664D01*
X0230170Y0349447D01*
X0230170Y0348797D01*
X0230170Y0349231D02*
X0230604Y0349664D01*
X0230604Y0350270D02*
X0229737Y0351138D01*
X0229520Y0351138D01*
X0229303Y0350921D01*
X0229303Y0350487D01*
X0229520Y0350270D01*
X0230604Y0350270D02*
X0230604Y0351138D01*
X0230387Y0351743D02*
X0230604Y0351960D01*
X0230604Y0352394D01*
X0230387Y0352611D01*
X0229954Y0352611D01*
X0229737Y0352394D01*
X0229737Y0352177D01*
X0229954Y0351743D01*
X0229303Y0351743D01*
X0229303Y0352611D01*
X0226503Y0353317D02*
X0225202Y0353317D01*
X0225202Y0353967D01*
X0225419Y0354184D01*
X0225852Y0354184D01*
X0226069Y0353967D01*
X0226069Y0353317D01*
X0226069Y0353750D02*
X0226503Y0354184D01*
X0226503Y0354790D02*
X0225635Y0355657D01*
X0225419Y0355657D01*
X0225202Y0355441D01*
X0225202Y0355007D01*
X0225419Y0354790D01*
X0226503Y0354790D02*
X0226503Y0355657D01*
X0226503Y0356263D02*
X0226286Y0356263D01*
X0225419Y0357131D01*
X0225202Y0357131D01*
X0225202Y0356263D01*
X0222276Y0361792D02*
X0222492Y0362009D01*
X0222492Y0362877D01*
X0222276Y0363093D01*
X0221842Y0363093D01*
X0221625Y0362877D01*
X0221625Y0362660D01*
X0221842Y0362443D01*
X0222492Y0362443D01*
X0222276Y0361792D02*
X0221842Y0361792D01*
X0221625Y0362009D01*
X0221019Y0361792D02*
X0220152Y0361792D01*
X0221019Y0362660D01*
X0221019Y0362877D01*
X0220802Y0363093D01*
X0220369Y0363093D01*
X0220152Y0362877D01*
X0219546Y0362877D02*
X0219546Y0362443D01*
X0219329Y0362226D01*
X0218678Y0362226D01*
X0218678Y0361792D02*
X0218678Y0363093D01*
X0219329Y0363093D01*
X0219546Y0362877D01*
X0219112Y0362226D02*
X0219546Y0361792D01*
X0207992Y0357827D02*
X0207992Y0357610D01*
X0207776Y0357393D01*
X0207342Y0357393D01*
X0207125Y0357610D01*
X0207125Y0357827D01*
X0207342Y0358043D01*
X0207776Y0358043D01*
X0207992Y0357827D01*
X0207776Y0357393D02*
X0207992Y0357176D01*
X0207992Y0356959D01*
X0207776Y0356742D01*
X0207342Y0356742D01*
X0207125Y0356959D01*
X0207125Y0357176D01*
X0207342Y0357393D01*
X0206519Y0357610D02*
X0206519Y0357827D01*
X0206302Y0358043D01*
X0205869Y0358043D01*
X0205652Y0357827D01*
X0205046Y0357827D02*
X0205046Y0357393D01*
X0204829Y0357176D01*
X0204178Y0357176D01*
X0204178Y0356742D02*
X0204178Y0358043D01*
X0204829Y0358043D01*
X0205046Y0357827D01*
X0204612Y0357176D02*
X0205046Y0356742D01*
X0205652Y0356742D02*
X0206519Y0357610D01*
X0206519Y0356742D02*
X0205652Y0356742D01*
X0205719Y0353893D02*
X0205502Y0353677D01*
X0205719Y0353893D02*
X0206152Y0353893D01*
X0206369Y0353677D01*
X0206369Y0353460D01*
X0205502Y0352592D01*
X0206369Y0352592D01*
X0206975Y0352809D02*
X0207192Y0352592D01*
X0207626Y0352592D01*
X0207842Y0352809D01*
X0207842Y0353026D01*
X0207626Y0353243D01*
X0206975Y0353243D01*
X0206975Y0352809D01*
X0206975Y0353243D02*
X0207409Y0353677D01*
X0207842Y0353893D01*
X0204896Y0353677D02*
X0204896Y0353243D01*
X0204679Y0353026D01*
X0204028Y0353026D01*
X0204028Y0352592D02*
X0204028Y0353893D01*
X0204679Y0353893D01*
X0204896Y0353677D01*
X0204462Y0353026D02*
X0204896Y0352592D01*
X0210628Y0346443D02*
X0211279Y0346443D01*
X0211496Y0346227D01*
X0211496Y0345793D01*
X0211279Y0345576D01*
X0210628Y0345576D01*
X0210628Y0345142D02*
X0210628Y0346443D01*
X0211062Y0345576D02*
X0211496Y0345142D01*
X0212102Y0345142D02*
X0212969Y0346010D01*
X0212969Y0346227D01*
X0212752Y0346443D01*
X0212319Y0346443D01*
X0212102Y0346227D01*
X0212102Y0345142D02*
X0212969Y0345142D01*
X0213575Y0345793D02*
X0214442Y0345793D01*
X0214226Y0346443D02*
X0213575Y0345793D01*
X0214226Y0346443D02*
X0214226Y0345142D01*
X0225203Y0340247D02*
X0226504Y0340247D01*
X0229303Y0348797D02*
X0230604Y0348797D01*
X0290828Y0329843D02*
X0290828Y0328542D01*
X0290828Y0328976D02*
X0291479Y0328976D01*
X0291696Y0329193D01*
X0291696Y0329627D01*
X0291479Y0329843D01*
X0290828Y0329843D01*
X0291262Y0328976D02*
X0291696Y0328542D01*
X0292302Y0329193D02*
X0293169Y0329193D01*
X0293775Y0329410D02*
X0293992Y0329193D01*
X0294642Y0329193D01*
X0294642Y0329627D02*
X0294426Y0329843D01*
X0293992Y0329843D01*
X0293775Y0329627D01*
X0293775Y0329410D01*
X0293775Y0328759D02*
X0293992Y0328542D01*
X0294426Y0328542D01*
X0294642Y0328759D01*
X0294642Y0329627D01*
X0292952Y0329843D02*
X0292302Y0329193D01*
X0292952Y0328542D02*
X0292952Y0329843D01*
X0307852Y0342667D02*
X0307852Y0343317D01*
X0308069Y0343534D01*
X0308502Y0343534D01*
X0308719Y0343317D01*
X0308719Y0342667D01*
X0308719Y0343100D02*
X0309153Y0343534D01*
X0308936Y0344140D02*
X0309153Y0344357D01*
X0309153Y0344791D01*
X0308936Y0345007D01*
X0308502Y0345007D01*
X0308285Y0344791D01*
X0308285Y0344574D01*
X0308502Y0344140D01*
X0307852Y0344140D01*
X0307852Y0345007D01*
X0308069Y0345613D02*
X0307852Y0345830D01*
X0307852Y0346264D01*
X0308069Y0346481D01*
X0308936Y0345613D01*
X0309153Y0345830D01*
X0309153Y0346264D01*
X0308936Y0346481D01*
X0308069Y0346481D01*
X0308069Y0345613D02*
X0308936Y0345613D01*
X0309153Y0342667D02*
X0307852Y0342667D01*
X0322853Y0342221D02*
X0323504Y0341570D01*
X0323504Y0342438D01*
X0323720Y0343043D02*
X0323504Y0343260D01*
X0323504Y0343694D01*
X0323720Y0343911D01*
X0323937Y0343911D01*
X0324154Y0343694D01*
X0324154Y0343260D01*
X0323937Y0343043D01*
X0323720Y0343043D01*
X0323504Y0343260D02*
X0323287Y0343043D01*
X0323070Y0343043D01*
X0322853Y0343260D01*
X0322853Y0343694D01*
X0323070Y0343911D01*
X0323287Y0343911D01*
X0323504Y0343694D01*
X0324154Y0342221D02*
X0322853Y0342221D01*
X0323070Y0340964D02*
X0323504Y0340964D01*
X0323720Y0340747D01*
X0323720Y0340097D01*
X0323720Y0340531D02*
X0324154Y0340964D01*
X0324154Y0340097D02*
X0322853Y0340097D01*
X0322853Y0340747D01*
X0323070Y0340964D01*
X0349247Y0345457D02*
X0349707Y0345917D01*
X0350013Y0345917D01*
X0350320Y0345611D01*
X0350320Y0345304D01*
X0349860Y0344844D01*
X0350167Y0345151D02*
X0350780Y0345151D01*
X0350167Y0344537D02*
X0349247Y0345457D01*
X0350748Y0346039D02*
X0351362Y0346652D01*
X0351790Y0347081D02*
X0352250Y0347541D01*
X0352557Y0347541D01*
X0352710Y0347387D01*
X0352710Y0347081D01*
X0352403Y0346774D01*
X0352097Y0346774D01*
X0351790Y0347081D01*
X0351790Y0347694D01*
X0351943Y0348154D01*
X0350748Y0346959D02*
X0350748Y0346039D01*
X0351668Y0346039D02*
X0350748Y0346959D01*
X0358997Y0343707D02*
X0359457Y0344167D01*
X0359763Y0344167D01*
X0360070Y0343861D01*
X0360070Y0343554D01*
X0359610Y0343094D01*
X0359917Y0343401D02*
X0360530Y0343401D01*
X0359917Y0342787D02*
X0358997Y0343707D01*
X0360498Y0344289D02*
X0361112Y0344902D01*
X0361418Y0344289D02*
X0360498Y0345209D01*
X0360498Y0344289D01*
X0361847Y0345024D02*
X0362000Y0344871D01*
X0361847Y0345024D02*
X0361847Y0346251D01*
X0361693Y0346404D01*
X0361080Y0345791D01*
D19*
X0263978Y0337551D02*
X0263978Y0328883D01*
X0257279Y0328883D01*
X0257279Y0337551D01*
X0263978Y0337551D01*
X0253978Y0337551D02*
X0253978Y0328883D01*
X0247279Y0328883D01*
X0247279Y0337551D01*
X0253978Y0337551D01*
X0243978Y0337551D02*
X0243978Y0328883D01*
X0237279Y0328883D01*
X0237279Y0337551D01*
X0243978Y0337551D01*
X0219462Y0287516D02*
X0210795Y0287516D01*
X0210795Y0280817D01*
X0219462Y0280817D01*
X0219462Y0287516D01*
X0219462Y0277516D02*
X0210795Y0277516D01*
X0210795Y0270817D01*
X0219462Y0270817D01*
X0219462Y0277516D01*
X0219462Y0267516D02*
X0210795Y0267516D01*
X0210795Y0260817D01*
X0219462Y0260817D01*
X0219462Y0267516D01*
X0244729Y0210351D02*
X0251428Y0210351D01*
X0251428Y0201683D01*
X0244729Y0201683D01*
X0244729Y0210351D01*
X0254729Y0210351D02*
X0261428Y0210351D01*
X0261428Y0201683D01*
X0254729Y0201683D01*
X0254729Y0210351D01*
X0264729Y0210351D02*
X0271428Y0210351D01*
X0271428Y0201683D01*
X0264729Y0201683D01*
X0264729Y0210351D01*
X0336045Y0215867D02*
X0336045Y0222566D01*
X0344712Y0222566D01*
X0344712Y0215867D01*
X0336045Y0215867D01*
X0336045Y0225867D02*
X0336045Y0232566D01*
X0344712Y0232566D01*
X0344712Y0225867D01*
X0336045Y0225867D01*
X0336045Y0235867D02*
X0336045Y0242566D01*
X0344712Y0242566D01*
X0344712Y0235867D01*
X0336045Y0235867D01*
D20*
X0349204Y0276893D02*
X0350779Y0276893D01*
X0349204Y0278467D01*
X0349204Y0292641D01*
X0364952Y0292641D01*
X0364952Y0276893D01*
X0350779Y0276893D01*
X0349204Y0276893D02*
X0349204Y0278467D01*
X0207452Y0332593D02*
X0193279Y0332593D01*
X0191704Y0334167D01*
X0191704Y0348341D01*
X0207452Y0348341D01*
X0207452Y0332593D01*
X0193279Y0332593D02*
X0191704Y0332593D01*
X0191704Y0334167D01*
D21*
X0232692Y0312860D03*
M02*
