G75*
%MOIN*%
%OFA0B0*%
%FSLAX25Y25*%
%IPPOS*%
%LPD*%
%AMOC8*
5,1,8,0,0,1.08239X$1,22.5*
%
%ADD10C,0.03000*%
%ADD11C,0.03962*%
%ADD12C,0.05600*%
%ADD13C,0.06800*%
%ADD14C,0.02800*%
%ADD15C,0.01600*%
D10*
X0214678Y0118502D02*
X0217514Y0115667D01*
X0223186Y0115667D01*
X0226021Y0118502D01*
X0226021Y0121338D01*
X0223186Y0124174D01*
X0220350Y0124174D01*
X0223186Y0124174D02*
X0226021Y0127010D01*
X0226021Y0129845D01*
X0223186Y0132681D01*
X0217514Y0132681D01*
X0214678Y0129845D01*
X0233094Y0118502D02*
X0235930Y0118502D01*
X0235930Y0115667D01*
X0233094Y0115667D01*
X0233094Y0118502D01*
X0242302Y0118502D02*
X0245138Y0115667D01*
X0250809Y0115667D01*
X0253645Y0118502D01*
X0253645Y0121338D01*
X0250809Y0124174D01*
X0247974Y0124174D01*
X0250809Y0124174D02*
X0253645Y0127010D01*
X0253645Y0129845D01*
X0250809Y0132681D01*
X0245138Y0132681D01*
X0242302Y0129845D01*
X0260718Y0127010D02*
X0266389Y0115667D01*
X0272061Y0127010D01*
D11*
X0322528Y0258067D03*
X0322528Y0263067D03*
X0322528Y0268067D03*
X0322528Y0273067D03*
X0322528Y0278067D03*
X0327528Y0278067D03*
X0327528Y0273067D03*
X0327528Y0268067D03*
X0327528Y0263067D03*
X0327528Y0258067D03*
D12*
X0343378Y0199717D03*
X0353378Y0199717D03*
D13*
X0351028Y0219317D03*
X0361128Y0219217D03*
X0371128Y0219217D03*
X0371128Y0229217D03*
X0361128Y0229217D03*
X0351128Y0229217D03*
X0351128Y0239217D03*
X0361128Y0239217D03*
X0371128Y0239217D03*
X0268078Y0195267D03*
X0258078Y0195267D03*
X0248078Y0195267D03*
X0248078Y0185267D03*
X0258078Y0185267D03*
X0268078Y0185267D03*
X0268078Y0175267D03*
X0258078Y0175267D03*
X0248078Y0175267D03*
X0204378Y0264167D03*
X0194378Y0264167D03*
X0184378Y0264167D03*
X0184378Y0274167D03*
X0194378Y0274167D03*
X0204378Y0274167D03*
X0204378Y0284167D03*
X0194378Y0284167D03*
X0184378Y0284167D03*
X0240628Y0343967D03*
X0250628Y0343967D03*
X0250628Y0353217D03*
X0240628Y0353217D03*
X0240628Y0362467D03*
X0250628Y0362467D03*
X0260628Y0362467D03*
X0260628Y0353217D03*
X0260628Y0343967D03*
D14*
X0265378Y0339717D03*
X0272828Y0339067D03*
X0283578Y0338267D03*
X0289978Y0333867D03*
X0293328Y0337917D03*
X0296878Y0335717D03*
X0296878Y0340217D03*
X0296878Y0344217D03*
X0304628Y0341367D03*
X0304128Y0331467D03*
X0308878Y0329967D03*
X0316378Y0330967D03*
X0321578Y0336017D03*
X0327628Y0340467D03*
X0325628Y0345967D03*
X0329378Y0347717D03*
X0328078Y0352367D03*
X0332878Y0351717D03*
X0328378Y0358217D03*
X0323878Y0358217D03*
X0319378Y0358217D03*
X0314878Y0358217D03*
X0310378Y0358217D03*
X0305878Y0358217D03*
X0301378Y0358217D03*
X0296878Y0358217D03*
X0296878Y0353717D03*
X0301378Y0353467D03*
X0297828Y0364067D03*
X0282828Y0364067D03*
X0272828Y0354067D03*
X0282828Y0349067D03*
X0255628Y0339717D03*
X0245628Y0339967D03*
X0236078Y0338917D03*
X0235428Y0334517D03*
X0227528Y0336067D03*
X0228678Y0341267D03*
X0228728Y0345517D03*
X0227328Y0352017D03*
X0227978Y0357367D03*
X0227828Y0364067D03*
X0207828Y0364067D03*
X0197828Y0364067D03*
X0191328Y0361067D03*
X0182828Y0359067D03*
X0186928Y0349667D03*
X0186878Y0345617D03*
X0182028Y0341617D03*
X0181978Y0336817D03*
X0199678Y0340317D03*
X0217578Y0330167D03*
X0222828Y0329067D03*
X0222828Y0324067D03*
X0231078Y0322667D03*
X0228028Y0316817D03*
X0233178Y0316117D03*
X0223928Y0310117D03*
X0217828Y0304067D03*
X0215178Y0299067D03*
X0210228Y0299017D03*
X0204228Y0298917D03*
X0206028Y0305217D03*
X0200378Y0304967D03*
X0187828Y0314067D03*
X0182828Y0319067D03*
X0182828Y0299067D03*
X0187828Y0294067D03*
X0208678Y0288917D03*
X0221828Y0289167D03*
X0227078Y0289117D03*
X0227928Y0280317D03*
X0232778Y0281217D03*
X0242478Y0280667D03*
X0257928Y0277767D03*
X0262128Y0274317D03*
X0258528Y0268917D03*
X0257328Y0263717D03*
X0246228Y0260467D03*
X0243478Y0263567D03*
X0237828Y0254067D03*
X0227828Y0254067D03*
X0217828Y0254067D03*
X0207828Y0254067D03*
X0207828Y0244067D03*
X0197828Y0244067D03*
X0198328Y0236567D03*
X0193328Y0236567D03*
X0189328Y0236567D03*
X0185328Y0236567D03*
X0181328Y0236567D03*
X0181328Y0232067D03*
X0181328Y0227567D03*
X0181328Y0223067D03*
X0181328Y0218567D03*
X0181328Y0214067D03*
X0181328Y0209567D03*
X0181328Y0205067D03*
X0181328Y0200567D03*
X0185328Y0200567D03*
X0185328Y0196067D03*
X0181328Y0196067D03*
X0189328Y0196067D03*
X0193328Y0196067D03*
X0197328Y0196067D03*
X0200978Y0201667D03*
X0190878Y0208667D03*
X0187028Y0216117D03*
X0195678Y0217217D03*
X0203128Y0217317D03*
X0208878Y0222717D03*
X0205628Y0228067D03*
X0199328Y0230817D03*
X0190828Y0223767D03*
X0212378Y0208967D03*
X0223378Y0219467D03*
X0226878Y0222717D03*
X0233878Y0221467D03*
X0233878Y0217467D03*
X0233878Y0213467D03*
X0237878Y0213467D03*
X0240178Y0217117D03*
X0239878Y0209467D03*
X0239878Y0205467D03*
X0239878Y0201217D03*
X0237878Y0197217D03*
X0233878Y0197217D03*
X0233878Y0193217D03*
X0233878Y0189217D03*
X0229878Y0189217D03*
X0229878Y0185217D03*
X0229878Y0181217D03*
X0229878Y0177217D03*
X0229878Y0173217D03*
X0225878Y0173217D03*
X0221878Y0173217D03*
X0217878Y0173217D03*
X0213878Y0173217D03*
X0209878Y0173217D03*
X0205878Y0173217D03*
X0201878Y0173217D03*
X0197878Y0173217D03*
X0197878Y0178217D03*
X0201878Y0178217D03*
X0205878Y0178217D03*
X0209378Y0182217D03*
X0209378Y0186717D03*
X0219628Y0191717D03*
X0224128Y0191717D03*
X0231628Y0202717D03*
X0231628Y0208967D03*
X0253078Y0199517D03*
X0263078Y0199267D03*
X0277828Y0204067D03*
X0284228Y0204717D03*
X0284228Y0200717D03*
X0284228Y0196717D03*
X0277828Y0194067D03*
X0289978Y0204717D03*
X0293978Y0204717D03*
X0297978Y0204717D03*
X0297978Y0208717D03*
X0301928Y0210517D03*
X0305928Y0210517D03*
X0309928Y0210517D03*
X0313928Y0214017D03*
X0317928Y0214017D03*
X0321928Y0214017D03*
X0325928Y0214017D03*
X0329928Y0214017D03*
X0333928Y0214017D03*
X0336678Y0210367D03*
X0340678Y0210367D03*
X0344678Y0210367D03*
X0348678Y0210367D03*
X0352678Y0210367D03*
X0356678Y0210367D03*
X0360678Y0210367D03*
X0364678Y0210367D03*
X0368678Y0210367D03*
X0372678Y0210367D03*
X0346878Y0214467D03*
X0346878Y0224217D03*
X0347128Y0234217D03*
X0325828Y0224717D03*
X0322928Y0229567D03*
X0320778Y0236367D03*
X0316478Y0235567D03*
X0316678Y0241517D03*
X0311978Y0240617D03*
X0307578Y0241217D03*
X0296128Y0240967D03*
X0292128Y0240967D03*
X0301328Y0232667D03*
X0276728Y0228167D03*
X0276728Y0224167D03*
X0271128Y0231867D03*
X0272878Y0236217D03*
X0257628Y0232817D03*
X0255778Y0236517D03*
X0252478Y0238817D03*
X0251478Y0242967D03*
X0255878Y0241967D03*
X0256028Y0256567D03*
X0267828Y0254067D03*
X0277828Y0264067D03*
X0289028Y0265317D03*
X0287778Y0271017D03*
X0291628Y0272317D03*
X0301378Y0269617D03*
X0301828Y0265167D03*
X0306878Y0265017D03*
X0313478Y0264917D03*
X0309678Y0273217D03*
X0309728Y0277817D03*
X0317328Y0277517D03*
X0304878Y0285267D03*
X0301578Y0281567D03*
X0297728Y0286817D03*
X0293428Y0282867D03*
X0291728Y0289717D03*
X0294778Y0292717D03*
X0288628Y0297117D03*
X0284678Y0295767D03*
X0280728Y0296617D03*
X0281128Y0292467D03*
X0278778Y0281667D03*
X0283078Y0280417D03*
X0272828Y0274067D03*
X0291378Y0256717D03*
X0301628Y0256867D03*
X0312178Y0252117D03*
X0318528Y0254117D03*
X0331978Y0256417D03*
X0340128Y0263217D03*
X0335728Y0266367D03*
X0341828Y0277517D03*
X0341628Y0282417D03*
X0339828Y0286067D03*
X0343078Y0289567D03*
X0346478Y0287067D03*
X0357178Y0284617D03*
X0368778Y0285767D03*
X0368778Y0290317D03*
X0365878Y0294867D03*
X0373628Y0300217D03*
X0373628Y0304217D03*
X0373628Y0308217D03*
X0373628Y0312217D03*
X0373628Y0316217D03*
X0373628Y0320217D03*
X0373628Y0324217D03*
X0373628Y0328217D03*
X0373628Y0332217D03*
X0373628Y0336217D03*
X0373628Y0340217D03*
X0373628Y0344217D03*
X0373628Y0348217D03*
X0369628Y0348217D03*
X0365628Y0348217D03*
X0361628Y0348217D03*
X0357628Y0348467D03*
X0354128Y0351217D03*
X0350128Y0349217D03*
X0346378Y0343217D03*
X0343378Y0339467D03*
X0348878Y0338467D03*
X0356378Y0336717D03*
X0363878Y0343717D03*
X0345378Y0357217D03*
X0345378Y0361717D03*
X0340878Y0361717D03*
X0336378Y0361717D03*
X0331878Y0361717D03*
X0327828Y0364067D03*
X0312828Y0364067D03*
X0334878Y0338967D03*
X0332878Y0326717D03*
X0344878Y0328967D03*
X0354828Y0325067D03*
X0358728Y0319017D03*
X0365878Y0316217D03*
X0365928Y0309367D03*
X0367778Y0303867D03*
X0363778Y0303867D03*
X0357628Y0299967D03*
X0353628Y0299967D03*
X0349628Y0299967D03*
X0348878Y0305217D03*
X0341878Y0304217D03*
X0337378Y0304217D03*
X0332878Y0303717D03*
X0328378Y0303717D03*
X0323878Y0303717D03*
X0319378Y0303717D03*
X0314878Y0303717D03*
X0310378Y0303717D03*
X0305878Y0303717D03*
X0301378Y0303717D03*
X0296878Y0303717D03*
X0296878Y0308217D03*
X0296878Y0312717D03*
X0296878Y0317217D03*
X0305128Y0323217D03*
X0311228Y0323617D03*
X0320378Y0318217D03*
X0322378Y0314467D03*
X0324378Y0310967D03*
X0333878Y0311217D03*
X0340378Y0310217D03*
X0339378Y0314967D03*
X0350178Y0318267D03*
X0354728Y0312367D03*
X0366378Y0325217D03*
X0320328Y0294767D03*
X0313078Y0289617D03*
X0309478Y0296667D03*
X0330578Y0286717D03*
X0373178Y0276817D03*
X0373278Y0272517D03*
X0372828Y0259067D03*
X0372828Y0249067D03*
X0349128Y0257917D03*
X0270778Y0304367D03*
X0262828Y0309067D03*
X0255128Y0306517D03*
X0249228Y0309967D03*
X0237528Y0303667D03*
X0231728Y0298717D03*
X0251478Y0293717D03*
X0257528Y0298167D03*
X0262078Y0298067D03*
X0277828Y0314067D03*
X0274228Y0317667D03*
X0282778Y0317667D03*
X0287028Y0309767D03*
X0291028Y0310167D03*
X0262828Y0319067D03*
X0251428Y0325967D03*
X0247178Y0326167D03*
X0243128Y0325567D03*
X0238228Y0326217D03*
X0214528Y0320817D03*
X0222278Y0280967D03*
X0208678Y0279167D03*
X0208428Y0269167D03*
X0187828Y0254067D03*
X0182828Y0249067D03*
X0182828Y0244067D03*
X0217828Y0234067D03*
X0230028Y0235467D03*
X0235178Y0241917D03*
X0256478Y0226617D03*
X0301978Y0206217D03*
X0309978Y0200717D03*
X0321978Y0197217D03*
X0321228Y0206917D03*
X0311728Y0185717D03*
X0307728Y0181717D03*
X0303728Y0177717D03*
X0299728Y0181717D03*
X0295728Y0177717D03*
X0291728Y0181717D03*
X0277828Y0179067D03*
X0291728Y0173717D03*
X0299728Y0173717D03*
X0307728Y0173717D03*
X0311728Y0177717D03*
X0315728Y0181717D03*
X0315728Y0173717D03*
X0323978Y0172717D03*
X0327978Y0172717D03*
X0331978Y0172717D03*
X0336378Y0172717D03*
X0340378Y0172717D03*
X0344378Y0172717D03*
X0348378Y0172717D03*
X0352378Y0172717D03*
X0356378Y0172717D03*
X0360378Y0172717D03*
X0364378Y0172717D03*
X0368378Y0172717D03*
X0372378Y0172717D03*
X0339378Y0181717D03*
X0240828Y0190417D03*
X0237828Y0179067D03*
X0296878Y0331217D03*
X0349878Y0361717D03*
X0353878Y0361717D03*
D15*
X0351878Y0359757D02*
X0352292Y0359343D01*
X0353322Y0358917D01*
X0354435Y0358917D01*
X0355028Y0359162D01*
X0355028Y0353875D01*
X0354685Y0354017D01*
X0353572Y0354017D01*
X0352542Y0353590D01*
X0351755Y0352803D01*
X0351328Y0351774D01*
X0351328Y0351750D01*
X0350685Y0352017D01*
X0349572Y0352017D01*
X0348542Y0351590D01*
X0347755Y0350803D01*
X0347328Y0349774D01*
X0347328Y0348660D01*
X0347755Y0347631D01*
X0348542Y0346843D01*
X0349572Y0346417D01*
X0350685Y0346417D01*
X0351715Y0346843D01*
X0352502Y0347631D01*
X0352928Y0348660D01*
X0352928Y0348683D01*
X0353572Y0348417D01*
X0354685Y0348417D01*
X0354828Y0348476D01*
X0354828Y0347910D01*
X0355255Y0346881D01*
X0356042Y0346093D01*
X0357072Y0345667D01*
X0358185Y0345667D01*
X0359215Y0346093D01*
X0359503Y0346382D01*
X0360042Y0345843D01*
X0361072Y0345417D01*
X0362185Y0345417D01*
X0363215Y0345843D01*
X0363628Y0346257D01*
X0364042Y0345843D01*
X0365072Y0345417D01*
X0366185Y0345417D01*
X0367215Y0345843D01*
X0367628Y0346257D01*
X0368042Y0345843D01*
X0369072Y0345417D01*
X0370185Y0345417D01*
X0371215Y0345843D01*
X0371628Y0346257D01*
X0371669Y0346217D01*
X0371255Y0345803D01*
X0370828Y0344774D01*
X0370828Y0343660D01*
X0371255Y0342631D01*
X0371669Y0342217D01*
X0371255Y0341803D01*
X0370828Y0340774D01*
X0370828Y0339660D01*
X0371255Y0338631D01*
X0371669Y0338217D01*
X0371255Y0337803D01*
X0370828Y0336774D01*
X0370828Y0335660D01*
X0371255Y0334631D01*
X0371669Y0334217D01*
X0371255Y0333803D01*
X0370828Y0332774D01*
X0370828Y0331660D01*
X0371255Y0330631D01*
X0371669Y0330217D01*
X0371255Y0329803D01*
X0370828Y0328774D01*
X0370828Y0327660D01*
X0371255Y0326631D01*
X0371669Y0326217D01*
X0371255Y0325803D01*
X0370828Y0324774D01*
X0370828Y0323660D01*
X0371255Y0322631D01*
X0371669Y0322217D01*
X0371255Y0321803D01*
X0370828Y0320774D01*
X0370828Y0319660D01*
X0371255Y0318631D01*
X0371669Y0318217D01*
X0371255Y0317803D01*
X0370828Y0316774D01*
X0370828Y0315660D01*
X0371255Y0314631D01*
X0371669Y0314217D01*
X0371255Y0313803D01*
X0370828Y0312774D01*
X0370828Y0311660D01*
X0371255Y0310631D01*
X0371669Y0310217D01*
X0371255Y0309803D01*
X0370828Y0308774D01*
X0370828Y0307660D01*
X0371255Y0306631D01*
X0371669Y0306217D01*
X0371255Y0305803D01*
X0370828Y0304774D01*
X0370828Y0303660D01*
X0371255Y0302631D01*
X0371669Y0302217D01*
X0371255Y0301803D01*
X0370828Y0300774D01*
X0370828Y0299660D01*
X0371255Y0298631D01*
X0372042Y0297843D01*
X0373072Y0297417D01*
X0374185Y0297417D01*
X0375078Y0297787D01*
X0375078Y0278876D01*
X0374765Y0279190D01*
X0373735Y0279617D01*
X0372622Y0279617D01*
X0371592Y0279190D01*
X0370805Y0278403D01*
X0370378Y0277374D01*
X0370378Y0276260D01*
X0370805Y0275231D01*
X0371419Y0274617D01*
X0370905Y0274103D01*
X0370478Y0273074D01*
X0370478Y0271960D01*
X0370905Y0270931D01*
X0371692Y0270143D01*
X0372722Y0269717D01*
X0373835Y0269717D01*
X0374865Y0270143D01*
X0375078Y0270357D01*
X0375078Y0260776D01*
X0374415Y0261440D01*
X0373385Y0261867D01*
X0372272Y0261867D01*
X0371242Y0261440D01*
X0370455Y0260653D01*
X0370028Y0259624D01*
X0370028Y0258510D01*
X0370455Y0257481D01*
X0371242Y0256693D01*
X0372272Y0256267D01*
X0373385Y0256267D01*
X0374415Y0256693D01*
X0375078Y0257357D01*
X0375078Y0250776D01*
X0374415Y0251440D01*
X0373385Y0251867D01*
X0372272Y0251867D01*
X0371242Y0251440D01*
X0370455Y0250653D01*
X0370028Y0249624D01*
X0370028Y0248510D01*
X0370455Y0247481D01*
X0371242Y0246693D01*
X0372272Y0246267D01*
X0373385Y0246267D01*
X0374415Y0246693D01*
X0375078Y0247357D01*
X0375078Y0242055D01*
X0373847Y0243286D01*
X0372083Y0244017D01*
X0370174Y0244017D01*
X0368409Y0243286D01*
X0367059Y0241936D01*
X0366328Y0240171D01*
X0366328Y0238262D01*
X0367059Y0236498D01*
X0368409Y0235147D01*
X0370174Y0234417D01*
X0372083Y0234417D01*
X0373847Y0235147D01*
X0375078Y0236378D01*
X0375078Y0232055D01*
X0373847Y0233286D01*
X0372083Y0234017D01*
X0370174Y0234017D01*
X0368409Y0233286D01*
X0367059Y0231936D01*
X0366328Y0230171D01*
X0366328Y0228262D01*
X0367059Y0226498D01*
X0368409Y0225147D01*
X0370174Y0224417D01*
X0372083Y0224417D01*
X0373847Y0225147D01*
X0375078Y0226378D01*
X0375078Y0222055D01*
X0373847Y0223286D01*
X0372083Y0224017D01*
X0370174Y0224017D01*
X0368409Y0223286D01*
X0367059Y0221936D01*
X0366328Y0220171D01*
X0366328Y0218262D01*
X0367059Y0216498D01*
X0368409Y0215147D01*
X0370174Y0214417D01*
X0372083Y0214417D01*
X0373847Y0215147D01*
X0375078Y0216378D01*
X0375078Y0211889D01*
X0375052Y0211953D01*
X0374265Y0212740D01*
X0373235Y0213167D01*
X0372122Y0213167D01*
X0371092Y0212740D01*
X0370678Y0212326D01*
X0370265Y0212740D01*
X0369235Y0213167D01*
X0368122Y0213167D01*
X0367092Y0212740D01*
X0366678Y0212326D01*
X0366265Y0212740D01*
X0365235Y0213167D01*
X0364122Y0213167D01*
X0363092Y0212740D01*
X0362678Y0212326D01*
X0362265Y0212740D01*
X0361235Y0213167D01*
X0360122Y0213167D01*
X0359092Y0212740D01*
X0358678Y0212326D01*
X0358265Y0212740D01*
X0357235Y0213167D01*
X0356122Y0213167D01*
X0355092Y0212740D01*
X0354678Y0212326D01*
X0354265Y0212740D01*
X0353235Y0213167D01*
X0352122Y0213167D01*
X0351092Y0212740D01*
X0350678Y0212326D01*
X0350265Y0212740D01*
X0349235Y0213167D01*
X0348122Y0213167D01*
X0347092Y0212740D01*
X0346678Y0212326D01*
X0346265Y0212740D01*
X0345235Y0213167D01*
X0344122Y0213167D01*
X0343092Y0212740D01*
X0342678Y0212326D01*
X0342265Y0212740D01*
X0341235Y0213167D01*
X0340122Y0213167D01*
X0339092Y0212740D01*
X0338678Y0212326D01*
X0338265Y0212740D01*
X0337235Y0213167D01*
X0336607Y0213167D01*
X0336728Y0213460D01*
X0336728Y0214574D01*
X0336302Y0215603D01*
X0335515Y0216390D01*
X0334485Y0216817D01*
X0333372Y0216817D01*
X0332342Y0216390D01*
X0331928Y0215976D01*
X0331515Y0216390D01*
X0330485Y0216817D01*
X0329372Y0216817D01*
X0328342Y0216390D01*
X0327928Y0215976D01*
X0327515Y0216390D01*
X0326485Y0216817D01*
X0325372Y0216817D01*
X0324342Y0216390D01*
X0323928Y0215976D01*
X0323515Y0216390D01*
X0322485Y0216817D01*
X0321372Y0216817D01*
X0320342Y0216390D01*
X0319928Y0215976D01*
X0319515Y0216390D01*
X0318485Y0216817D01*
X0317372Y0216817D01*
X0316342Y0216390D01*
X0315928Y0215976D01*
X0315515Y0216390D01*
X0314485Y0216817D01*
X0313372Y0216817D01*
X0312342Y0216390D01*
X0311555Y0215603D01*
X0311128Y0214574D01*
X0311128Y0213460D01*
X0311333Y0212966D01*
X0310485Y0213317D01*
X0309372Y0213317D01*
X0308342Y0212890D01*
X0307928Y0212476D01*
X0307515Y0212890D01*
X0306485Y0213317D01*
X0305372Y0213317D01*
X0304342Y0212890D01*
X0303928Y0212476D01*
X0303515Y0212890D01*
X0302485Y0213317D01*
X0301372Y0213317D01*
X0300342Y0212890D01*
X0299555Y0212103D01*
X0299198Y0211242D01*
X0298535Y0211517D01*
X0297422Y0211517D01*
X0296392Y0211090D01*
X0295605Y0210303D01*
X0295178Y0209274D01*
X0295178Y0208160D01*
X0295605Y0207131D01*
X0296019Y0206717D01*
X0295978Y0206676D01*
X0295565Y0207090D01*
X0294535Y0207517D01*
X0293422Y0207517D01*
X0292392Y0207090D01*
X0291978Y0206676D01*
X0291565Y0207090D01*
X0290535Y0207517D01*
X0289422Y0207517D01*
X0288392Y0207090D01*
X0287605Y0206303D01*
X0287178Y0205274D01*
X0287178Y0204160D01*
X0287605Y0203131D01*
X0288392Y0202343D01*
X0289422Y0201917D01*
X0290535Y0201917D01*
X0291565Y0202343D01*
X0291978Y0202757D01*
X0292392Y0202343D01*
X0293422Y0201917D01*
X0294535Y0201917D01*
X0295565Y0202343D01*
X0295978Y0202757D01*
X0296392Y0202343D01*
X0297422Y0201917D01*
X0298535Y0201917D01*
X0299565Y0202343D01*
X0300352Y0203131D01*
X0300778Y0204160D01*
X0300778Y0205274D01*
X0300352Y0206303D01*
X0299938Y0206717D01*
X0300352Y0207131D01*
X0300709Y0207991D01*
X0301372Y0207717D01*
X0302485Y0207717D01*
X0303515Y0208143D01*
X0303928Y0208557D01*
X0304342Y0208143D01*
X0305372Y0207717D01*
X0306485Y0207717D01*
X0307515Y0208143D01*
X0307928Y0208557D01*
X0308342Y0208143D01*
X0309372Y0207717D01*
X0310485Y0207717D01*
X0311515Y0208143D01*
X0312302Y0208931D01*
X0312728Y0209960D01*
X0312728Y0211074D01*
X0312524Y0211568D01*
X0313372Y0211217D01*
X0314485Y0211217D01*
X0315515Y0211643D01*
X0315928Y0212057D01*
X0316342Y0211643D01*
X0317372Y0211217D01*
X0318485Y0211217D01*
X0319515Y0211643D01*
X0319928Y0212057D01*
X0320342Y0211643D01*
X0321372Y0211217D01*
X0322485Y0211217D01*
X0323515Y0211643D01*
X0323928Y0212057D01*
X0324342Y0211643D01*
X0325372Y0211217D01*
X0326485Y0211217D01*
X0327515Y0211643D01*
X0327928Y0212057D01*
X0328342Y0211643D01*
X0329372Y0211217D01*
X0330485Y0211217D01*
X0331515Y0211643D01*
X0331928Y0212057D01*
X0332342Y0211643D01*
X0333372Y0211217D01*
X0334000Y0211217D01*
X0333878Y0210924D01*
X0333878Y0209810D01*
X0334305Y0208781D01*
X0335092Y0207993D01*
X0336122Y0207567D01*
X0337235Y0207567D01*
X0338265Y0207993D01*
X0338678Y0208407D01*
X0339092Y0207993D01*
X0340122Y0207567D01*
X0341235Y0207567D01*
X0342265Y0207993D01*
X0342678Y0208407D01*
X0343092Y0207993D01*
X0344122Y0207567D01*
X0345235Y0207567D01*
X0346265Y0207993D01*
X0346678Y0208407D01*
X0347092Y0207993D01*
X0348122Y0207567D01*
X0349235Y0207567D01*
X0350265Y0207993D01*
X0350678Y0208407D01*
X0351092Y0207993D01*
X0352122Y0207567D01*
X0353235Y0207567D01*
X0354265Y0207993D01*
X0354678Y0208407D01*
X0355092Y0207993D01*
X0356122Y0207567D01*
X0357235Y0207567D01*
X0358265Y0207993D01*
X0358678Y0208407D01*
X0359092Y0207993D01*
X0360122Y0207567D01*
X0361235Y0207567D01*
X0362265Y0207993D01*
X0362678Y0208407D01*
X0363092Y0207993D01*
X0364122Y0207567D01*
X0365235Y0207567D01*
X0366265Y0207993D01*
X0366678Y0208407D01*
X0367092Y0207993D01*
X0368122Y0207567D01*
X0369235Y0207567D01*
X0370265Y0207993D01*
X0370678Y0208407D01*
X0371092Y0207993D01*
X0372122Y0207567D01*
X0373235Y0207567D01*
X0374265Y0207993D01*
X0375052Y0208781D01*
X0375078Y0208844D01*
X0375078Y0173515D01*
X0374752Y0174303D01*
X0373965Y0175090D01*
X0372935Y0175517D01*
X0371822Y0175517D01*
X0370792Y0175090D01*
X0370378Y0174676D01*
X0369965Y0175090D01*
X0368935Y0175517D01*
X0367822Y0175517D01*
X0366792Y0175090D01*
X0366378Y0174676D01*
X0365965Y0175090D01*
X0364935Y0175517D01*
X0363822Y0175517D01*
X0362792Y0175090D01*
X0362378Y0174676D01*
X0361965Y0175090D01*
X0360935Y0175517D01*
X0359822Y0175517D01*
X0358792Y0175090D01*
X0358378Y0174676D01*
X0357965Y0175090D01*
X0356935Y0175517D01*
X0355822Y0175517D01*
X0354792Y0175090D01*
X0354378Y0174676D01*
X0353965Y0175090D01*
X0352935Y0175517D01*
X0351822Y0175517D01*
X0350792Y0175090D01*
X0350378Y0174676D01*
X0349965Y0175090D01*
X0348935Y0175517D01*
X0347822Y0175517D01*
X0346792Y0175090D01*
X0346378Y0174676D01*
X0345965Y0175090D01*
X0344935Y0175517D01*
X0343822Y0175517D01*
X0342792Y0175090D01*
X0342378Y0174676D01*
X0341965Y0175090D01*
X0340935Y0175517D01*
X0339822Y0175517D01*
X0338792Y0175090D01*
X0338378Y0174676D01*
X0337965Y0175090D01*
X0336935Y0175517D01*
X0335822Y0175517D01*
X0334792Y0175090D01*
X0334178Y0174476D01*
X0333565Y0175090D01*
X0332535Y0175517D01*
X0331422Y0175517D01*
X0330392Y0175090D01*
X0329978Y0174676D01*
X0329565Y0175090D01*
X0328535Y0175517D01*
X0327422Y0175517D01*
X0326392Y0175090D01*
X0325978Y0174676D01*
X0325565Y0175090D01*
X0324535Y0175517D01*
X0323422Y0175517D01*
X0322392Y0175090D01*
X0321605Y0174303D01*
X0321178Y0173274D01*
X0321178Y0172160D01*
X0321341Y0171767D01*
X0271367Y0171767D01*
X0271740Y0172140D01*
X0272184Y0172751D01*
X0272527Y0173424D01*
X0272760Y0174143D01*
X0272859Y0174767D01*
X0268579Y0174767D01*
X0268579Y0175767D01*
X0272859Y0175767D01*
X0272760Y0176391D01*
X0272527Y0177109D01*
X0272184Y0177782D01*
X0271740Y0178394D01*
X0271205Y0178928D01*
X0270594Y0179372D01*
X0269921Y0179715D01*
X0269202Y0179948D01*
X0268578Y0180047D01*
X0268578Y0175767D01*
X0267578Y0175767D01*
X0267578Y0174767D01*
X0263298Y0174767D01*
X0263397Y0174143D01*
X0263630Y0173424D01*
X0263973Y0172751D01*
X0264417Y0172140D01*
X0264790Y0171767D01*
X0261367Y0171767D01*
X0261740Y0172140D01*
X0262184Y0172751D01*
X0262527Y0173424D01*
X0262760Y0174143D01*
X0262859Y0174767D01*
X0258579Y0174767D01*
X0258579Y0175767D01*
X0262859Y0175767D01*
X0262760Y0176391D01*
X0262527Y0177109D01*
X0262184Y0177782D01*
X0261740Y0178394D01*
X0261205Y0178928D01*
X0260594Y0179372D01*
X0259921Y0179715D01*
X0259202Y0179948D01*
X0258578Y0180047D01*
X0258578Y0175767D01*
X0257578Y0175767D01*
X0257578Y0174767D01*
X0253298Y0174767D01*
X0253397Y0174143D01*
X0253630Y0173424D01*
X0253973Y0172751D01*
X0254417Y0172140D01*
X0254790Y0171767D01*
X0251367Y0171767D01*
X0251740Y0172140D01*
X0252184Y0172751D01*
X0252527Y0173424D01*
X0252760Y0174143D01*
X0252859Y0174767D01*
X0248579Y0174767D01*
X0248579Y0175767D01*
X0252859Y0175767D01*
X0252760Y0176391D01*
X0252527Y0177109D01*
X0252184Y0177782D01*
X0251740Y0178394D01*
X0251205Y0178928D01*
X0250594Y0179372D01*
X0249921Y0179715D01*
X0249202Y0179948D01*
X0248578Y0180047D01*
X0248578Y0175767D01*
X0247578Y0175767D01*
X0247578Y0174767D01*
X0243298Y0174767D01*
X0243397Y0174143D01*
X0243630Y0173424D01*
X0243973Y0172751D01*
X0244417Y0172140D01*
X0244790Y0171767D01*
X0232309Y0171767D01*
X0232678Y0172660D01*
X0232678Y0173774D01*
X0232252Y0174803D01*
X0231838Y0175217D01*
X0232252Y0175631D01*
X0232678Y0176660D01*
X0232678Y0177774D01*
X0232252Y0178803D01*
X0231838Y0179217D01*
X0232252Y0179631D01*
X0232678Y0180660D01*
X0232678Y0181774D01*
X0232252Y0182803D01*
X0231838Y0183217D01*
X0232252Y0183631D01*
X0232678Y0184660D01*
X0232678Y0185774D01*
X0232252Y0186803D01*
X0231838Y0187217D01*
X0231878Y0187257D01*
X0232292Y0186843D01*
X0233322Y0186417D01*
X0234435Y0186417D01*
X0235465Y0186843D01*
X0236252Y0187631D01*
X0236678Y0188660D01*
X0236678Y0189774D01*
X0236252Y0190803D01*
X0235838Y0191217D01*
X0236252Y0191631D01*
X0236678Y0192660D01*
X0236678Y0193774D01*
X0236252Y0194803D01*
X0235838Y0195217D01*
X0235878Y0195257D01*
X0236292Y0194843D01*
X0237322Y0194417D01*
X0238435Y0194417D01*
X0239465Y0194843D01*
X0240252Y0195631D01*
X0240678Y0196660D01*
X0240678Y0197774D01*
X0240412Y0198417D01*
X0240435Y0198417D01*
X0241465Y0198843D01*
X0242252Y0199631D01*
X0242678Y0200660D01*
X0242678Y0201774D01*
X0242252Y0202803D01*
X0241713Y0203342D01*
X0242252Y0203881D01*
X0242678Y0204910D01*
X0242678Y0206024D01*
X0242252Y0207053D01*
X0241838Y0207467D01*
X0242252Y0207881D01*
X0242678Y0208910D01*
X0242678Y0210024D01*
X0242252Y0211053D01*
X0241465Y0211840D01*
X0240435Y0212267D01*
X0240412Y0212267D01*
X0240678Y0212910D01*
X0240678Y0214024D01*
X0240252Y0215053D01*
X0239465Y0215840D01*
X0238435Y0216267D01*
X0237322Y0216267D01*
X0236292Y0215840D01*
X0235878Y0215426D01*
X0235838Y0215467D01*
X0236252Y0215881D01*
X0236678Y0216910D01*
X0236678Y0218024D01*
X0236252Y0219053D01*
X0235838Y0219467D01*
X0236252Y0219881D01*
X0236678Y0220910D01*
X0236678Y0222024D01*
X0236252Y0223053D01*
X0235465Y0223840D01*
X0234435Y0224267D01*
X0233322Y0224267D01*
X0232292Y0223840D01*
X0231505Y0223053D01*
X0231078Y0222024D01*
X0231078Y0220910D01*
X0231505Y0219881D01*
X0231919Y0219467D01*
X0231505Y0219053D01*
X0231078Y0218024D01*
X0231078Y0216910D01*
X0231505Y0215881D01*
X0231919Y0215467D01*
X0231505Y0215053D01*
X0231078Y0214024D01*
X0231078Y0212910D01*
X0231505Y0211881D01*
X0232292Y0211093D01*
X0233322Y0210667D01*
X0234435Y0210667D01*
X0235465Y0211093D01*
X0235878Y0211507D01*
X0236292Y0211093D01*
X0237322Y0210667D01*
X0237345Y0210667D01*
X0237078Y0210024D01*
X0237078Y0208910D01*
X0237505Y0207881D01*
X0237919Y0207467D01*
X0237505Y0207053D01*
X0237078Y0206024D01*
X0237078Y0204910D01*
X0237505Y0203881D01*
X0238044Y0203342D01*
X0237505Y0202803D01*
X0237078Y0201774D01*
X0237078Y0200660D01*
X0237345Y0200017D01*
X0237322Y0200017D01*
X0236292Y0199590D01*
X0235878Y0199176D01*
X0235465Y0199590D01*
X0234435Y0200017D01*
X0233322Y0200017D01*
X0232292Y0199590D01*
X0231505Y0198803D01*
X0231078Y0197774D01*
X0231078Y0196660D01*
X0231505Y0195631D01*
X0231919Y0195217D01*
X0231505Y0194803D01*
X0231078Y0193774D01*
X0231078Y0192660D01*
X0231505Y0191631D01*
X0231919Y0191217D01*
X0231878Y0191176D01*
X0231465Y0191590D01*
X0230435Y0192017D01*
X0229322Y0192017D01*
X0228292Y0191590D01*
X0227505Y0190803D01*
X0227078Y0189774D01*
X0227078Y0188660D01*
X0227505Y0187631D01*
X0227919Y0187217D01*
X0227505Y0186803D01*
X0227078Y0185774D01*
X0227078Y0184660D01*
X0227505Y0183631D01*
X0227919Y0183217D01*
X0227505Y0182803D01*
X0227078Y0181774D01*
X0227078Y0180660D01*
X0227505Y0179631D01*
X0227919Y0179217D01*
X0227505Y0178803D01*
X0227078Y0177774D01*
X0227078Y0176660D01*
X0227505Y0175631D01*
X0227919Y0175217D01*
X0227878Y0175176D01*
X0227465Y0175590D01*
X0226435Y0176017D01*
X0225322Y0176017D01*
X0224292Y0175590D01*
X0223878Y0175176D01*
X0223465Y0175590D01*
X0222435Y0176017D01*
X0221322Y0176017D01*
X0220292Y0175590D01*
X0219878Y0175176D01*
X0219465Y0175590D01*
X0218435Y0176017D01*
X0217322Y0176017D01*
X0216292Y0175590D01*
X0215878Y0175176D01*
X0215465Y0175590D01*
X0214435Y0176017D01*
X0213322Y0176017D01*
X0212292Y0175590D01*
X0211878Y0175176D01*
X0211465Y0175590D01*
X0210435Y0176017D01*
X0209322Y0176017D01*
X0208292Y0175590D01*
X0207878Y0175176D01*
X0207465Y0175590D01*
X0207160Y0175717D01*
X0207465Y0175843D01*
X0208252Y0176631D01*
X0208678Y0177660D01*
X0208678Y0178774D01*
X0208327Y0179621D01*
X0208822Y0179417D01*
X0209935Y0179417D01*
X0210965Y0179843D01*
X0211752Y0180631D01*
X0212178Y0181660D01*
X0212178Y0182774D01*
X0211752Y0183803D01*
X0211088Y0184467D01*
X0211752Y0185131D01*
X0212178Y0186160D01*
X0212178Y0187274D01*
X0211752Y0188303D01*
X0210965Y0189090D01*
X0209935Y0189517D01*
X0208822Y0189517D01*
X0207792Y0189090D01*
X0207005Y0188303D01*
X0206578Y0187274D01*
X0206578Y0186160D01*
X0207005Y0185131D01*
X0207669Y0184467D01*
X0207005Y0183803D01*
X0206578Y0182774D01*
X0206578Y0181660D01*
X0206930Y0180812D01*
X0206435Y0181017D01*
X0205322Y0181017D01*
X0204292Y0180590D01*
X0203878Y0180176D01*
X0203465Y0180590D01*
X0202435Y0181017D01*
X0201322Y0181017D01*
X0200292Y0180590D01*
X0199878Y0180176D01*
X0199465Y0180590D01*
X0198435Y0181017D01*
X0197322Y0181017D01*
X0196292Y0180590D01*
X0196228Y0180526D01*
X0196228Y0193034D01*
X0195999Y0193587D01*
X0196772Y0193267D01*
X0197885Y0193267D01*
X0198915Y0193693D01*
X0199702Y0194481D01*
X0200128Y0195510D01*
X0200128Y0196624D01*
X0199702Y0197653D01*
X0198915Y0198440D01*
X0197885Y0198867D01*
X0196772Y0198867D01*
X0195742Y0198440D01*
X0195328Y0198026D01*
X0194915Y0198440D01*
X0193885Y0198867D01*
X0192772Y0198867D01*
X0191742Y0198440D01*
X0191328Y0198026D01*
X0190915Y0198440D01*
X0189885Y0198867D01*
X0188772Y0198867D01*
X0187742Y0198440D01*
X0187328Y0198026D01*
X0187038Y0198317D01*
X0187702Y0198981D01*
X0188128Y0200010D01*
X0188128Y0201124D01*
X0187702Y0202153D01*
X0186915Y0202940D01*
X0185885Y0203367D01*
X0184772Y0203367D01*
X0183742Y0202940D01*
X0183328Y0202526D01*
X0183038Y0202817D01*
X0183702Y0203481D01*
X0184128Y0204510D01*
X0184128Y0205624D01*
X0183702Y0206653D01*
X0183038Y0207317D01*
X0183702Y0207981D01*
X0184128Y0209010D01*
X0184128Y0210124D01*
X0183702Y0211153D01*
X0183038Y0211817D01*
X0183702Y0212481D01*
X0184128Y0213510D01*
X0184128Y0214624D01*
X0183702Y0215653D01*
X0183038Y0216317D01*
X0183702Y0216981D01*
X0184128Y0218010D01*
X0184128Y0219124D01*
X0183702Y0220153D01*
X0183038Y0220817D01*
X0183702Y0221481D01*
X0184128Y0222510D01*
X0184128Y0223624D01*
X0183702Y0224653D01*
X0183038Y0225317D01*
X0183702Y0225981D01*
X0184128Y0227010D01*
X0184128Y0228124D01*
X0183702Y0229153D01*
X0183038Y0229817D01*
X0183702Y0230481D01*
X0184128Y0231510D01*
X0184128Y0232624D01*
X0183702Y0233653D01*
X0183038Y0234317D01*
X0183328Y0234607D01*
X0183742Y0234193D01*
X0184772Y0233767D01*
X0185885Y0233767D01*
X0186915Y0234193D01*
X0187328Y0234607D01*
X0187742Y0234193D01*
X0188772Y0233767D01*
X0189885Y0233767D01*
X0190915Y0234193D01*
X0191328Y0234607D01*
X0191742Y0234193D01*
X0192772Y0233767D01*
X0193885Y0233767D01*
X0194915Y0234193D01*
X0195702Y0234981D01*
X0195828Y0235285D01*
X0195955Y0234981D01*
X0196742Y0234193D01*
X0197772Y0233767D01*
X0198885Y0233767D01*
X0199915Y0234193D01*
X0200702Y0234981D01*
X0201128Y0236010D01*
X0201128Y0237124D01*
X0200702Y0238153D01*
X0199915Y0238940D01*
X0198885Y0239367D01*
X0197772Y0239367D01*
X0196742Y0238940D01*
X0195955Y0238153D01*
X0195828Y0237848D01*
X0195702Y0238153D01*
X0194915Y0238940D01*
X0193885Y0239367D01*
X0192772Y0239367D01*
X0191742Y0238940D01*
X0191328Y0238526D01*
X0190915Y0238940D01*
X0189885Y0239367D01*
X0188772Y0239367D01*
X0187742Y0238940D01*
X0187328Y0238526D01*
X0186915Y0238940D01*
X0185885Y0239367D01*
X0184772Y0239367D01*
X0183742Y0238940D01*
X0183328Y0238526D01*
X0182915Y0238940D01*
X0181885Y0239367D01*
X0180772Y0239367D01*
X0180678Y0239328D01*
X0180678Y0242257D01*
X0181242Y0241693D01*
X0182272Y0241267D01*
X0183385Y0241267D01*
X0184415Y0241693D01*
X0185202Y0242481D01*
X0185628Y0243510D01*
X0185628Y0244624D01*
X0185202Y0245653D01*
X0184415Y0246440D01*
X0184110Y0246567D01*
X0184415Y0246693D01*
X0185202Y0247481D01*
X0185628Y0248510D01*
X0185628Y0249624D01*
X0185202Y0250653D01*
X0184415Y0251440D01*
X0183385Y0251867D01*
X0182272Y0251867D01*
X0181242Y0251440D01*
X0180678Y0250876D01*
X0180678Y0261078D01*
X0181659Y0260097D01*
X0183424Y0259367D01*
X0185333Y0259367D01*
X0187097Y0260097D01*
X0188448Y0261448D01*
X0189178Y0263212D01*
X0189178Y0265121D01*
X0188448Y0266886D01*
X0187097Y0268236D01*
X0185333Y0268967D01*
X0183424Y0268967D01*
X0181659Y0268236D01*
X0180678Y0267255D01*
X0180678Y0271078D01*
X0181659Y0270097D01*
X0183424Y0269367D01*
X0185333Y0269367D01*
X0187097Y0270097D01*
X0188448Y0271448D01*
X0189178Y0273212D01*
X0189178Y0275121D01*
X0188448Y0276886D01*
X0187097Y0278236D01*
X0185333Y0278967D01*
X0183424Y0278967D01*
X0181659Y0278236D01*
X0180678Y0277255D01*
X0180678Y0281078D01*
X0181659Y0280097D01*
X0183424Y0279367D01*
X0185333Y0279367D01*
X0187097Y0280097D01*
X0188448Y0281448D01*
X0189178Y0283212D01*
X0189178Y0285121D01*
X0188448Y0286886D01*
X0187097Y0288236D01*
X0185333Y0288967D01*
X0183424Y0288967D01*
X0181659Y0288236D01*
X0180678Y0287255D01*
X0180678Y0297257D01*
X0181242Y0296693D01*
X0182272Y0296267D01*
X0183385Y0296267D01*
X0184415Y0296693D01*
X0185202Y0297481D01*
X0185628Y0298510D01*
X0185628Y0299624D01*
X0185202Y0300653D01*
X0184415Y0301440D01*
X0183385Y0301867D01*
X0182272Y0301867D01*
X0181242Y0301440D01*
X0180678Y0300876D01*
X0180678Y0317257D01*
X0181242Y0316693D01*
X0182272Y0316267D01*
X0183385Y0316267D01*
X0184415Y0316693D01*
X0185202Y0317481D01*
X0185628Y0318510D01*
X0185628Y0319624D01*
X0185202Y0320653D01*
X0184415Y0321440D01*
X0183385Y0321867D01*
X0182272Y0321867D01*
X0181242Y0321440D01*
X0180678Y0320876D01*
X0180678Y0334324D01*
X0181422Y0334017D01*
X0182535Y0334017D01*
X0183565Y0334443D01*
X0184352Y0335231D01*
X0184778Y0336260D01*
X0184778Y0337374D01*
X0184352Y0338403D01*
X0183565Y0339190D01*
X0182535Y0339617D01*
X0181422Y0339617D01*
X0180678Y0339309D01*
X0180678Y0357257D01*
X0181242Y0356693D01*
X0182272Y0356267D01*
X0183385Y0356267D01*
X0184415Y0356693D01*
X0185202Y0357481D01*
X0185628Y0358510D01*
X0185628Y0359624D01*
X0185202Y0360653D01*
X0184415Y0361440D01*
X0183385Y0361867D01*
X0182272Y0361867D01*
X0181242Y0361440D01*
X0180678Y0360876D01*
X0180678Y0366167D01*
X0195969Y0366167D01*
X0195455Y0365653D01*
X0195028Y0364624D01*
X0195028Y0363510D01*
X0195455Y0362481D01*
X0196242Y0361693D01*
X0197272Y0361267D01*
X0198385Y0361267D01*
X0199415Y0361693D01*
X0200202Y0362481D01*
X0200628Y0363510D01*
X0200628Y0364624D01*
X0200202Y0365653D01*
X0199688Y0366167D01*
X0205969Y0366167D01*
X0205455Y0365653D01*
X0205028Y0364624D01*
X0205028Y0363510D01*
X0205455Y0362481D01*
X0206242Y0361693D01*
X0207272Y0361267D01*
X0208385Y0361267D01*
X0209415Y0361693D01*
X0210202Y0362481D01*
X0210628Y0363510D01*
X0210628Y0364624D01*
X0210202Y0365653D01*
X0209688Y0366167D01*
X0225969Y0366167D01*
X0225455Y0365653D01*
X0225028Y0364624D01*
X0225028Y0363510D01*
X0225455Y0362481D01*
X0226242Y0361693D01*
X0227272Y0361267D01*
X0228385Y0361267D01*
X0229415Y0361693D01*
X0230202Y0362481D01*
X0230628Y0363510D01*
X0230628Y0364624D01*
X0230202Y0365653D01*
X0229688Y0366167D01*
X0237540Y0366167D01*
X0236559Y0365186D01*
X0235828Y0363421D01*
X0235828Y0361512D01*
X0236559Y0359748D01*
X0237909Y0358397D01*
X0239286Y0357827D01*
X0238786Y0357665D01*
X0238113Y0357322D01*
X0237501Y0356878D01*
X0236967Y0356344D01*
X0236523Y0355732D01*
X0236180Y0355059D01*
X0235947Y0354341D01*
X0235848Y0353717D01*
X0240128Y0353717D01*
X0240128Y0352717D01*
X0235848Y0352717D01*
X0235947Y0352093D01*
X0236180Y0351374D01*
X0236523Y0350701D01*
X0236967Y0350090D01*
X0237501Y0349555D01*
X0238113Y0349111D01*
X0238786Y0348768D01*
X0239286Y0348606D01*
X0237909Y0348036D01*
X0236559Y0346686D01*
X0235828Y0344921D01*
X0235828Y0343012D01*
X0236365Y0341717D01*
X0235522Y0341717D01*
X0234492Y0341290D01*
X0233705Y0340503D01*
X0233278Y0339474D01*
X0233278Y0338360D01*
X0233705Y0337331D01*
X0234056Y0336979D01*
X0233842Y0336890D01*
X0233055Y0336103D01*
X0232628Y0335074D01*
X0232628Y0333960D01*
X0233055Y0332931D01*
X0233842Y0332143D01*
X0234872Y0331717D01*
X0235985Y0331717D01*
X0237015Y0332143D01*
X0237802Y0332931D01*
X0238228Y0333960D01*
X0238228Y0335074D01*
X0237802Y0336103D01*
X0237451Y0336454D01*
X0237665Y0336543D01*
X0238452Y0337331D01*
X0238878Y0338360D01*
X0238878Y0339474D01*
X0238867Y0339501D01*
X0239674Y0339167D01*
X0241583Y0339167D01*
X0243347Y0339897D01*
X0244698Y0341248D01*
X0245428Y0343012D01*
X0245428Y0344921D01*
X0244698Y0346686D01*
X0243347Y0348036D01*
X0241971Y0348606D01*
X0242471Y0348768D01*
X0243144Y0349111D01*
X0243755Y0349555D01*
X0244290Y0350090D01*
X0244734Y0350701D01*
X0245077Y0351374D01*
X0245310Y0352093D01*
X0245409Y0352717D01*
X0241129Y0352717D01*
X0241129Y0353717D01*
X0245409Y0353717D01*
X0245310Y0354341D01*
X0245077Y0355059D01*
X0244734Y0355732D01*
X0244290Y0356344D01*
X0243755Y0356878D01*
X0243144Y0357322D01*
X0242471Y0357665D01*
X0241971Y0357827D01*
X0243347Y0358397D01*
X0244698Y0359748D01*
X0245428Y0361512D01*
X0245428Y0363421D01*
X0244698Y0365186D01*
X0243717Y0366167D01*
X0247540Y0366167D01*
X0246559Y0365186D01*
X0245828Y0363421D01*
X0245828Y0361512D01*
X0246559Y0359748D01*
X0247909Y0358397D01*
X0249286Y0357827D01*
X0248786Y0357665D01*
X0248113Y0357322D01*
X0247501Y0356878D01*
X0246967Y0356344D01*
X0246523Y0355732D01*
X0246180Y0355059D01*
X0245947Y0354341D01*
X0245848Y0353717D01*
X0250128Y0353717D01*
X0250128Y0352717D01*
X0245848Y0352717D01*
X0245947Y0352093D01*
X0246180Y0351374D01*
X0246523Y0350701D01*
X0246967Y0350090D01*
X0247501Y0349555D01*
X0248113Y0349111D01*
X0248786Y0348768D01*
X0249286Y0348606D01*
X0247909Y0348036D01*
X0246559Y0346686D01*
X0245828Y0344921D01*
X0245828Y0343012D01*
X0246559Y0341248D01*
X0247909Y0339897D01*
X0249674Y0339167D01*
X0251583Y0339167D01*
X0253347Y0339897D01*
X0254698Y0341248D01*
X0255428Y0343012D01*
X0255428Y0344921D01*
X0254698Y0346686D01*
X0253347Y0348036D01*
X0251971Y0348606D01*
X0252471Y0348768D01*
X0253144Y0349111D01*
X0253755Y0349555D01*
X0254290Y0350090D01*
X0254734Y0350701D01*
X0255077Y0351374D01*
X0255310Y0352093D01*
X0255409Y0352717D01*
X0251129Y0352717D01*
X0251129Y0353717D01*
X0255409Y0353717D01*
X0255310Y0354341D01*
X0255077Y0355059D01*
X0254734Y0355732D01*
X0254290Y0356344D01*
X0253755Y0356878D01*
X0253144Y0357322D01*
X0252471Y0357665D01*
X0251971Y0357827D01*
X0253347Y0358397D01*
X0254698Y0359748D01*
X0255428Y0361512D01*
X0255428Y0363421D01*
X0254698Y0365186D01*
X0253717Y0366167D01*
X0257540Y0366167D01*
X0256559Y0365186D01*
X0255828Y0363421D01*
X0255828Y0361512D01*
X0256559Y0359748D01*
X0257909Y0358397D01*
X0259286Y0357827D01*
X0258786Y0357665D01*
X0258113Y0357322D01*
X0257501Y0356878D01*
X0256967Y0356344D01*
X0256523Y0355732D01*
X0256180Y0355059D01*
X0255947Y0354341D01*
X0255848Y0353717D01*
X0260128Y0353717D01*
X0260128Y0352717D01*
X0255848Y0352717D01*
X0255947Y0352093D01*
X0256180Y0351374D01*
X0256523Y0350701D01*
X0256967Y0350090D01*
X0257501Y0349555D01*
X0258113Y0349111D01*
X0258786Y0348768D01*
X0259286Y0348606D01*
X0257909Y0348036D01*
X0256559Y0346686D01*
X0255828Y0344921D01*
X0255828Y0343012D01*
X0256559Y0341248D01*
X0257909Y0339897D01*
X0259674Y0339167D01*
X0261583Y0339167D01*
X0263347Y0339897D01*
X0264698Y0341248D01*
X0265428Y0343012D01*
X0265428Y0344921D01*
X0264698Y0346686D01*
X0263347Y0348036D01*
X0261971Y0348606D01*
X0262471Y0348768D01*
X0263144Y0349111D01*
X0263755Y0349555D01*
X0264290Y0350090D01*
X0264734Y0350701D01*
X0265077Y0351374D01*
X0265310Y0352093D01*
X0265409Y0352717D01*
X0261129Y0352717D01*
X0261129Y0353717D01*
X0265409Y0353717D01*
X0265310Y0354341D01*
X0265077Y0355059D01*
X0264734Y0355732D01*
X0264290Y0356344D01*
X0263755Y0356878D01*
X0263144Y0357322D01*
X0262471Y0357665D01*
X0261971Y0357827D01*
X0263347Y0358397D01*
X0264698Y0359748D01*
X0265428Y0361512D01*
X0265428Y0363421D01*
X0264698Y0365186D01*
X0263717Y0366167D01*
X0280969Y0366167D01*
X0280455Y0365653D01*
X0280028Y0364624D01*
X0280028Y0363510D01*
X0280455Y0362481D01*
X0281242Y0361693D01*
X0282272Y0361267D01*
X0283385Y0361267D01*
X0284415Y0361693D01*
X0285202Y0362481D01*
X0285628Y0363510D01*
X0285628Y0364624D01*
X0285202Y0365653D01*
X0284688Y0366167D01*
X0295969Y0366167D01*
X0295455Y0365653D01*
X0295028Y0364624D01*
X0295028Y0363510D01*
X0295455Y0362481D01*
X0296242Y0361693D01*
X0297272Y0361267D01*
X0298385Y0361267D01*
X0299415Y0361693D01*
X0300202Y0362481D01*
X0300628Y0363510D01*
X0300628Y0364624D01*
X0300202Y0365653D01*
X0299688Y0366167D01*
X0310969Y0366167D01*
X0310455Y0365653D01*
X0310028Y0364624D01*
X0310028Y0363510D01*
X0310455Y0362481D01*
X0311242Y0361693D01*
X0312272Y0361267D01*
X0313385Y0361267D01*
X0314415Y0361693D01*
X0315202Y0362481D01*
X0315628Y0363510D01*
X0315628Y0364624D01*
X0315202Y0365653D01*
X0314688Y0366167D01*
X0325969Y0366167D01*
X0325455Y0365653D01*
X0325028Y0364624D01*
X0325028Y0363510D01*
X0325455Y0362481D01*
X0326242Y0361693D01*
X0327272Y0361267D01*
X0328385Y0361267D01*
X0329078Y0361554D01*
X0329078Y0361160D01*
X0329180Y0360916D01*
X0328935Y0361017D01*
X0327822Y0361017D01*
X0326792Y0360590D01*
X0326128Y0359926D01*
X0325465Y0360590D01*
X0324435Y0361017D01*
X0323322Y0361017D01*
X0322292Y0360590D01*
X0321628Y0359926D01*
X0320965Y0360590D01*
X0319935Y0361017D01*
X0318822Y0361017D01*
X0317792Y0360590D01*
X0317128Y0359926D01*
X0316465Y0360590D01*
X0315435Y0361017D01*
X0314322Y0361017D01*
X0313292Y0360590D01*
X0312628Y0359926D01*
X0311965Y0360590D01*
X0310935Y0361017D01*
X0309822Y0361017D01*
X0308792Y0360590D01*
X0308128Y0359926D01*
X0307465Y0360590D01*
X0306435Y0361017D01*
X0305322Y0361017D01*
X0304292Y0360590D01*
X0303628Y0359926D01*
X0302965Y0360590D01*
X0301935Y0361017D01*
X0300822Y0361017D01*
X0299792Y0360590D01*
X0299128Y0359926D01*
X0298465Y0360590D01*
X0297435Y0361017D01*
X0296322Y0361017D01*
X0295292Y0360590D01*
X0294505Y0359803D01*
X0294078Y0358774D01*
X0294078Y0357660D01*
X0294505Y0356631D01*
X0295169Y0355967D01*
X0294505Y0355303D01*
X0294078Y0354274D01*
X0294078Y0353160D01*
X0294505Y0352131D01*
X0295292Y0351343D01*
X0296322Y0350917D01*
X0297435Y0350917D01*
X0298465Y0351343D01*
X0299252Y0352131D01*
X0299678Y0353160D01*
X0299678Y0354274D01*
X0299252Y0355303D01*
X0298588Y0355967D01*
X0299128Y0356507D01*
X0299792Y0355843D01*
X0300822Y0355417D01*
X0301935Y0355417D01*
X0302965Y0355843D01*
X0303628Y0356507D01*
X0304292Y0355843D01*
X0305322Y0355417D01*
X0306435Y0355417D01*
X0307465Y0355843D01*
X0308128Y0356507D01*
X0308792Y0355843D01*
X0309822Y0355417D01*
X0310935Y0355417D01*
X0311965Y0355843D01*
X0312628Y0356507D01*
X0313292Y0355843D01*
X0314322Y0355417D01*
X0315435Y0355417D01*
X0316465Y0355843D01*
X0317128Y0356507D01*
X0317792Y0355843D01*
X0318822Y0355417D01*
X0319935Y0355417D01*
X0320965Y0355843D01*
X0321628Y0356507D01*
X0322292Y0355843D01*
X0323322Y0355417D01*
X0324435Y0355417D01*
X0325465Y0355843D01*
X0326128Y0356507D01*
X0326792Y0355843D01*
X0327822Y0355417D01*
X0328935Y0355417D01*
X0329965Y0355843D01*
X0330752Y0356631D01*
X0331178Y0357660D01*
X0331178Y0358774D01*
X0331077Y0359018D01*
X0331322Y0358917D01*
X0332435Y0358917D01*
X0333465Y0359343D01*
X0334128Y0360007D01*
X0334792Y0359343D01*
X0335822Y0358917D01*
X0336935Y0358917D01*
X0337965Y0359343D01*
X0338628Y0360007D01*
X0339292Y0359343D01*
X0340322Y0358917D01*
X0341435Y0358917D01*
X0342465Y0359343D01*
X0343128Y0360007D01*
X0343669Y0359467D01*
X0343005Y0358803D01*
X0342578Y0357774D01*
X0342578Y0356660D01*
X0343005Y0355631D01*
X0343792Y0354843D01*
X0344822Y0354417D01*
X0345935Y0354417D01*
X0346965Y0354843D01*
X0347752Y0355631D01*
X0348178Y0356660D01*
X0348178Y0357774D01*
X0347752Y0358803D01*
X0347088Y0359467D01*
X0347628Y0360007D01*
X0348292Y0359343D01*
X0349322Y0358917D01*
X0350435Y0358917D01*
X0351465Y0359343D01*
X0351878Y0359757D01*
X0351094Y0359190D02*
X0352663Y0359190D01*
X0355028Y0357591D02*
X0348178Y0357591D01*
X0347902Y0355993D02*
X0355028Y0355993D01*
X0355028Y0354394D02*
X0333732Y0354394D01*
X0333435Y0354517D02*
X0332322Y0354517D01*
X0331292Y0354090D01*
X0330505Y0353303D01*
X0330078Y0352274D01*
X0330078Y0351160D01*
X0330430Y0350312D01*
X0329935Y0350517D01*
X0328822Y0350517D01*
X0327792Y0350090D01*
X0327005Y0349303D01*
X0326695Y0348556D01*
X0326185Y0348767D01*
X0325072Y0348767D01*
X0324042Y0348340D01*
X0323255Y0347553D01*
X0322828Y0346524D01*
X0322828Y0345410D01*
X0323255Y0344381D01*
X0324042Y0343593D01*
X0325072Y0343167D01*
X0326185Y0343167D01*
X0327215Y0343593D01*
X0328002Y0344381D01*
X0328312Y0345128D01*
X0328822Y0344917D01*
X0329935Y0344917D01*
X0330965Y0345343D01*
X0331752Y0346131D01*
X0332178Y0347160D01*
X0332178Y0348274D01*
X0331827Y0349121D01*
X0332322Y0348917D01*
X0333435Y0348917D01*
X0334465Y0349343D01*
X0335252Y0350131D01*
X0335678Y0351160D01*
X0335678Y0352274D01*
X0335252Y0353303D01*
X0334465Y0354090D01*
X0333435Y0354517D01*
X0332025Y0354394D02*
X0299629Y0354394D01*
X0299643Y0355993D02*
X0298614Y0355993D01*
X0299528Y0352795D02*
X0330295Y0352795D01*
X0330078Y0351197D02*
X0298112Y0351197D01*
X0295645Y0351197D02*
X0284658Y0351197D01*
X0284415Y0351440D02*
X0285202Y0350653D01*
X0285628Y0349624D01*
X0285628Y0348510D01*
X0285202Y0347481D01*
X0284415Y0346693D01*
X0283385Y0346267D01*
X0282272Y0346267D01*
X0281242Y0346693D01*
X0280455Y0347481D01*
X0280028Y0348510D01*
X0280028Y0349624D01*
X0280455Y0350653D01*
X0281242Y0351440D01*
X0282272Y0351867D01*
X0283385Y0351867D01*
X0284415Y0351440D01*
X0285628Y0349598D02*
X0327300Y0349598D01*
X0323702Y0348000D02*
X0285417Y0348000D01*
X0283711Y0346401D02*
X0295103Y0346401D01*
X0295292Y0346590D02*
X0294505Y0345803D01*
X0294078Y0344774D01*
X0294078Y0343660D01*
X0294505Y0342631D01*
X0294919Y0342217D01*
X0294505Y0341803D01*
X0294078Y0340774D01*
X0294078Y0340637D01*
X0293885Y0340717D01*
X0292772Y0340717D01*
X0291742Y0340290D01*
X0290955Y0339503D01*
X0290528Y0338474D01*
X0290528Y0337360D01*
X0290874Y0336527D01*
X0290535Y0336667D01*
X0289422Y0336667D01*
X0288392Y0336240D01*
X0287605Y0335453D01*
X0287178Y0334424D01*
X0287178Y0333310D01*
X0287605Y0332281D01*
X0288392Y0331493D01*
X0289422Y0331067D01*
X0290535Y0331067D01*
X0291565Y0331493D01*
X0292352Y0332281D01*
X0292778Y0333310D01*
X0292778Y0334424D01*
X0292433Y0335257D01*
X0292772Y0335117D01*
X0293885Y0335117D01*
X0294078Y0335197D01*
X0294078Y0335160D01*
X0294505Y0334131D01*
X0295169Y0333467D01*
X0294505Y0332803D01*
X0294078Y0331774D01*
X0294078Y0330660D01*
X0294505Y0329631D01*
X0295292Y0328843D01*
X0296322Y0328417D01*
X0297435Y0328417D01*
X0298465Y0328843D01*
X0299252Y0329631D01*
X0299678Y0330660D01*
X0299678Y0331774D01*
X0299252Y0332803D01*
X0298588Y0333467D01*
X0299252Y0334131D01*
X0299678Y0335160D01*
X0299678Y0336274D01*
X0299252Y0337303D01*
X0298588Y0337967D01*
X0299252Y0338631D01*
X0299678Y0339660D01*
X0299678Y0340774D01*
X0299252Y0341803D01*
X0298838Y0342217D01*
X0299252Y0342631D01*
X0299678Y0343660D01*
X0299678Y0344774D01*
X0299252Y0345803D01*
X0298465Y0346590D01*
X0297435Y0347017D01*
X0296322Y0347017D01*
X0295292Y0346590D01*
X0294091Y0344803D02*
X0265428Y0344803D01*
X0265428Y0343204D02*
X0294267Y0343204D01*
X0294423Y0341606D02*
X0274015Y0341606D01*
X0274415Y0341440D02*
X0273385Y0341867D01*
X0272272Y0341867D01*
X0271242Y0341440D01*
X0270455Y0340653D01*
X0270028Y0339624D01*
X0270028Y0338510D01*
X0270455Y0337481D01*
X0271242Y0336693D01*
X0272272Y0336267D01*
X0273385Y0336267D01*
X0274415Y0336693D01*
X0275202Y0337481D01*
X0275628Y0338510D01*
X0275628Y0339624D01*
X0275202Y0340653D01*
X0274415Y0341440D01*
X0275470Y0340007D02*
X0281359Y0340007D01*
X0281205Y0339853D02*
X0280778Y0338824D01*
X0280778Y0337710D01*
X0281205Y0336681D01*
X0281992Y0335893D01*
X0283022Y0335467D01*
X0284135Y0335467D01*
X0285165Y0335893D01*
X0285952Y0336681D01*
X0286378Y0337710D01*
X0286378Y0338824D01*
X0285952Y0339853D01*
X0285165Y0340640D01*
X0284135Y0341067D01*
X0283022Y0341067D01*
X0281992Y0340640D01*
X0281205Y0339853D01*
X0280778Y0338409D02*
X0275587Y0338409D01*
X0274532Y0336810D02*
X0281151Y0336810D01*
X0286006Y0336810D02*
X0290756Y0336810D01*
X0290528Y0338409D02*
X0286378Y0338409D01*
X0285798Y0340007D02*
X0291459Y0340007D01*
X0292452Y0335212D02*
X0292542Y0335212D01*
X0292778Y0333613D02*
X0295022Y0333613D01*
X0294178Y0332015D02*
X0292086Y0332015D01*
X0294179Y0330416D02*
X0225300Y0330416D01*
X0225202Y0330653D02*
X0224415Y0331440D01*
X0223385Y0331867D01*
X0222272Y0331867D01*
X0221242Y0331440D01*
X0220455Y0330653D01*
X0220378Y0330469D01*
X0220378Y0330724D01*
X0219952Y0331753D01*
X0219165Y0332540D01*
X0218135Y0332967D01*
X0217022Y0332967D01*
X0215992Y0332540D01*
X0215205Y0331753D01*
X0214778Y0330724D01*
X0214778Y0329610D01*
X0215205Y0328581D01*
X0215992Y0327793D01*
X0217022Y0327367D01*
X0218135Y0327367D01*
X0219165Y0327793D01*
X0219952Y0328581D01*
X0220028Y0328765D01*
X0220028Y0328510D01*
X0220455Y0327481D01*
X0221242Y0326693D01*
X0221547Y0326567D01*
X0221242Y0326440D01*
X0220455Y0325653D01*
X0220028Y0324624D01*
X0220028Y0323510D01*
X0220455Y0322481D01*
X0221242Y0321693D01*
X0222272Y0321267D01*
X0223385Y0321267D01*
X0224415Y0321693D01*
X0225202Y0322481D01*
X0225628Y0323510D01*
X0225628Y0324624D01*
X0225202Y0325653D01*
X0224415Y0326440D01*
X0224110Y0326567D01*
X0224415Y0326693D01*
X0225202Y0327481D01*
X0225628Y0328510D01*
X0225628Y0329624D01*
X0225202Y0330653D01*
X0225628Y0328818D02*
X0237191Y0328818D01*
X0237672Y0329017D02*
X0236642Y0328590D01*
X0235855Y0327803D01*
X0235428Y0326774D01*
X0235428Y0325660D01*
X0235855Y0324631D01*
X0236642Y0323843D01*
X0237672Y0323417D01*
X0238785Y0323417D01*
X0239815Y0323843D01*
X0240520Y0324548D01*
X0240755Y0323981D01*
X0241542Y0323193D01*
X0242572Y0322767D01*
X0243685Y0322767D01*
X0244715Y0323193D01*
X0245453Y0323932D01*
X0245592Y0323793D01*
X0246622Y0323367D01*
X0247735Y0323367D01*
X0248765Y0323793D01*
X0249203Y0324232D01*
X0249842Y0323593D01*
X0250872Y0323167D01*
X0251985Y0323167D01*
X0253015Y0323593D01*
X0253802Y0324381D01*
X0254228Y0325410D01*
X0254228Y0326524D01*
X0253802Y0327553D01*
X0253015Y0328340D01*
X0251985Y0328767D01*
X0250872Y0328767D01*
X0249842Y0328340D01*
X0249403Y0327901D01*
X0248765Y0328540D01*
X0247735Y0328967D01*
X0246622Y0328967D01*
X0245592Y0328540D01*
X0244853Y0327801D01*
X0244715Y0327940D01*
X0243685Y0328367D01*
X0242572Y0328367D01*
X0241542Y0327940D01*
X0240837Y0327235D01*
X0240602Y0327803D01*
X0239815Y0328590D01*
X0238785Y0329017D01*
X0237672Y0329017D01*
X0239266Y0328818D02*
X0246262Y0328818D01*
X0248095Y0328818D02*
X0295353Y0328818D01*
X0298404Y0328818D02*
X0303207Y0328818D01*
X0303572Y0328667D02*
X0304685Y0328667D01*
X0305715Y0329093D01*
X0306078Y0329457D01*
X0306078Y0329410D01*
X0306505Y0328381D01*
X0307292Y0327593D01*
X0308322Y0327167D01*
X0309435Y0327167D01*
X0310465Y0327593D01*
X0311252Y0328381D01*
X0311678Y0329410D01*
X0311678Y0330524D01*
X0311252Y0331553D01*
X0310465Y0332340D01*
X0309435Y0332767D01*
X0308322Y0332767D01*
X0307292Y0332340D01*
X0306928Y0331976D01*
X0306928Y0332024D01*
X0306502Y0333053D01*
X0305715Y0333840D01*
X0304685Y0334267D01*
X0303572Y0334267D01*
X0302542Y0333840D01*
X0301755Y0333053D01*
X0301328Y0332024D01*
X0301328Y0330910D01*
X0301755Y0329881D01*
X0302542Y0329093D01*
X0303572Y0328667D01*
X0305050Y0328818D02*
X0306324Y0328818D01*
X0308194Y0327219D02*
X0253940Y0327219D01*
X0254228Y0325621D02*
X0303616Y0325621D01*
X0303542Y0325590D02*
X0302755Y0324803D01*
X0302328Y0323774D01*
X0302328Y0322660D01*
X0302755Y0321631D01*
X0303542Y0320843D01*
X0304572Y0320417D01*
X0305685Y0320417D01*
X0306715Y0320843D01*
X0307502Y0321631D01*
X0307928Y0322660D01*
X0307928Y0323774D01*
X0307502Y0324803D01*
X0306715Y0325590D01*
X0305685Y0326017D01*
X0304572Y0326017D01*
X0303542Y0325590D01*
X0302431Y0324022D02*
X0253444Y0324022D01*
X0249413Y0324022D02*
X0248994Y0324022D01*
X0240737Y0324022D02*
X0239994Y0324022D01*
X0236463Y0324022D02*
X0233548Y0324022D01*
X0233452Y0324253D02*
X0232665Y0325040D01*
X0231635Y0325467D01*
X0230522Y0325467D01*
X0229492Y0325040D01*
X0228705Y0324253D01*
X0228278Y0323224D01*
X0228278Y0322110D01*
X0228705Y0321081D01*
X0229492Y0320293D01*
X0230522Y0319867D01*
X0231635Y0319867D01*
X0232665Y0320293D01*
X0233452Y0321081D01*
X0233878Y0322110D01*
X0233878Y0323224D01*
X0233452Y0324253D01*
X0233878Y0322424D02*
X0302426Y0322424D01*
X0303585Y0320825D02*
X0265030Y0320825D01*
X0265202Y0320653D02*
X0264415Y0321440D01*
X0263385Y0321867D01*
X0262272Y0321867D01*
X0261242Y0321440D01*
X0260455Y0320653D01*
X0260028Y0319624D01*
X0260028Y0318510D01*
X0260455Y0317481D01*
X0261242Y0316693D01*
X0262272Y0316267D01*
X0263385Y0316267D01*
X0264415Y0316693D01*
X0265202Y0317481D01*
X0265628Y0318510D01*
X0265628Y0319624D01*
X0265202Y0320653D01*
X0265628Y0319227D02*
X0271844Y0319227D01*
X0271855Y0319253D02*
X0271428Y0318224D01*
X0271428Y0317110D01*
X0271855Y0316081D01*
X0272642Y0315293D01*
X0273672Y0314867D01*
X0274785Y0314867D01*
X0275200Y0315039D01*
X0275028Y0314624D01*
X0275028Y0313510D01*
X0275455Y0312481D01*
X0276242Y0311693D01*
X0277272Y0311267D01*
X0278385Y0311267D01*
X0279415Y0311693D01*
X0280202Y0312481D01*
X0280628Y0313510D01*
X0280628Y0314624D01*
X0280202Y0315653D01*
X0279415Y0316440D01*
X0278385Y0316867D01*
X0277272Y0316867D01*
X0276857Y0316695D01*
X0277028Y0317110D01*
X0277028Y0318224D01*
X0276602Y0319253D01*
X0275815Y0320040D01*
X0274785Y0320467D01*
X0273672Y0320467D01*
X0272642Y0320040D01*
X0271855Y0319253D01*
X0271428Y0317628D02*
X0265263Y0317628D01*
X0260394Y0317628D02*
X0235583Y0317628D01*
X0235552Y0317703D02*
X0234765Y0318490D01*
X0233735Y0318917D01*
X0232622Y0318917D01*
X0231592Y0318490D01*
X0230805Y0317703D01*
X0230748Y0317567D01*
X0230402Y0318403D01*
X0229615Y0319190D01*
X0228585Y0319617D01*
X0227472Y0319617D01*
X0226442Y0319190D01*
X0225655Y0318403D01*
X0225228Y0317374D01*
X0225228Y0316260D01*
X0225655Y0315231D01*
X0226442Y0314443D01*
X0227472Y0314017D01*
X0228585Y0314017D01*
X0229615Y0314443D01*
X0230402Y0315231D01*
X0230458Y0315367D01*
X0230805Y0314531D01*
X0231592Y0313743D01*
X0232622Y0313317D01*
X0233735Y0313317D01*
X0234765Y0313743D01*
X0235552Y0314531D01*
X0235978Y0315560D01*
X0235978Y0316674D01*
X0235552Y0317703D01*
X0235978Y0316030D02*
X0271906Y0316030D01*
X0275028Y0314431D02*
X0235453Y0314431D01*
X0230904Y0314431D02*
X0229586Y0314431D01*
X0226471Y0314431D02*
X0190628Y0314431D01*
X0190628Y0314624D02*
X0190202Y0315653D01*
X0189415Y0316440D01*
X0188385Y0316867D01*
X0187272Y0316867D01*
X0186242Y0316440D01*
X0185455Y0315653D01*
X0185028Y0314624D01*
X0185028Y0313510D01*
X0185455Y0312481D01*
X0186242Y0311693D01*
X0187272Y0311267D01*
X0188385Y0311267D01*
X0189415Y0311693D01*
X0190202Y0312481D01*
X0190628Y0313510D01*
X0190628Y0314624D01*
X0189825Y0316030D02*
X0225324Y0316030D01*
X0225334Y0317628D02*
X0185263Y0317628D01*
X0185628Y0319227D02*
X0212159Y0319227D01*
X0212155Y0319231D02*
X0212942Y0318443D01*
X0213972Y0318017D01*
X0215085Y0318017D01*
X0216115Y0318443D01*
X0216902Y0319231D01*
X0217328Y0320260D01*
X0217328Y0321374D01*
X0216902Y0322403D01*
X0216115Y0323190D01*
X0215085Y0323617D01*
X0213972Y0323617D01*
X0212942Y0323190D01*
X0212155Y0322403D01*
X0211728Y0321374D01*
X0211728Y0320260D01*
X0212155Y0319231D01*
X0211728Y0320825D02*
X0185030Y0320825D01*
X0180678Y0322424D02*
X0212176Y0322424D01*
X0216881Y0322424D02*
X0220512Y0322424D01*
X0220028Y0324022D02*
X0180678Y0324022D01*
X0180678Y0325621D02*
X0220442Y0325621D01*
X0220716Y0327219D02*
X0180678Y0327219D01*
X0180678Y0328818D02*
X0215106Y0328818D01*
X0214778Y0330416D02*
X0180678Y0330416D01*
X0180678Y0332015D02*
X0215467Y0332015D01*
X0219690Y0332015D02*
X0234152Y0332015D01*
X0232772Y0333613D02*
X0228922Y0333613D01*
X0229115Y0333693D02*
X0228085Y0333267D01*
X0226972Y0333267D01*
X0225942Y0333693D01*
X0225155Y0334481D01*
X0224728Y0335510D01*
X0224728Y0336624D01*
X0225155Y0337653D01*
X0225942Y0338440D01*
X0226972Y0338867D01*
X0227156Y0338867D01*
X0227092Y0338893D01*
X0226305Y0339681D01*
X0225878Y0340710D01*
X0225878Y0341824D01*
X0226305Y0342853D01*
X0226869Y0343417D01*
X0226355Y0343931D01*
X0225928Y0344960D01*
X0225928Y0346074D01*
X0226355Y0347103D01*
X0227142Y0347890D01*
X0228172Y0348317D01*
X0229285Y0348317D01*
X0230315Y0347890D01*
X0231102Y0347103D01*
X0231528Y0346074D01*
X0231528Y0344960D01*
X0231102Y0343931D01*
X0230538Y0343367D01*
X0231052Y0342853D01*
X0231478Y0341824D01*
X0231478Y0340710D01*
X0231052Y0339681D01*
X0230265Y0338893D01*
X0229235Y0338467D01*
X0229051Y0338467D01*
X0229115Y0338440D01*
X0229902Y0337653D01*
X0230328Y0336624D01*
X0230328Y0335510D01*
X0229902Y0334481D01*
X0229115Y0333693D01*
X0230205Y0335212D02*
X0232686Y0335212D01*
X0233762Y0336810D02*
X0230251Y0336810D01*
X0229146Y0338409D02*
X0233278Y0338409D01*
X0233500Y0340007D02*
X0231188Y0340007D01*
X0231478Y0341606D02*
X0235254Y0341606D01*
X0235828Y0343204D02*
X0230701Y0343204D01*
X0231464Y0344803D02*
X0235828Y0344803D01*
X0236442Y0346401D02*
X0231393Y0346401D01*
X0230050Y0348000D02*
X0237874Y0348000D01*
X0237458Y0349598D02*
X0228807Y0349598D01*
X0228915Y0349643D02*
X0229702Y0350431D01*
X0230128Y0351460D01*
X0230128Y0352574D01*
X0229702Y0353603D01*
X0228915Y0354390D01*
X0228489Y0354567D01*
X0228535Y0354567D01*
X0229565Y0354993D01*
X0230352Y0355781D01*
X0230778Y0356810D01*
X0230778Y0357924D01*
X0230352Y0358953D01*
X0229565Y0359740D01*
X0228535Y0360167D01*
X0227422Y0360167D01*
X0226392Y0359740D01*
X0225605Y0358953D01*
X0225178Y0357924D01*
X0225178Y0356810D01*
X0225605Y0355781D01*
X0226392Y0354993D01*
X0226818Y0354817D01*
X0226772Y0354817D01*
X0225742Y0354390D01*
X0224955Y0353603D01*
X0224528Y0352574D01*
X0224528Y0351460D01*
X0224955Y0350431D01*
X0225742Y0349643D01*
X0226772Y0349217D01*
X0227885Y0349217D01*
X0228915Y0349643D01*
X0230020Y0351197D02*
X0236270Y0351197D01*
X0235964Y0354394D02*
X0228906Y0354394D01*
X0230037Y0352795D02*
X0240128Y0352795D01*
X0241129Y0352795D02*
X0250128Y0352795D01*
X0251129Y0352795D02*
X0260128Y0352795D01*
X0261129Y0352795D02*
X0270324Y0352795D01*
X0270455Y0352481D02*
X0271242Y0351693D01*
X0272272Y0351267D01*
X0273385Y0351267D01*
X0274415Y0351693D01*
X0275202Y0352481D01*
X0275628Y0353510D01*
X0275628Y0354624D01*
X0275202Y0355653D01*
X0274415Y0356440D01*
X0273385Y0356867D01*
X0272272Y0356867D01*
X0271242Y0356440D01*
X0270455Y0355653D01*
X0270028Y0354624D01*
X0270028Y0353510D01*
X0270455Y0352481D01*
X0270028Y0354394D02*
X0265293Y0354394D01*
X0264545Y0355993D02*
X0270795Y0355993D01*
X0274862Y0355993D02*
X0295143Y0355993D01*
X0294128Y0354394D02*
X0275628Y0354394D01*
X0275333Y0352795D02*
X0294229Y0352795D01*
X0294107Y0357591D02*
X0262616Y0357591D01*
X0264140Y0359190D02*
X0294251Y0359190D01*
X0295770Y0360788D02*
X0265129Y0360788D01*
X0265428Y0362387D02*
X0280549Y0362387D01*
X0280028Y0363985D02*
X0265195Y0363985D01*
X0264300Y0365584D02*
X0280426Y0365584D01*
X0285231Y0365584D02*
X0295426Y0365584D01*
X0295028Y0363985D02*
X0285628Y0363985D01*
X0285108Y0362387D02*
X0295549Y0362387D01*
X0297987Y0360788D02*
X0300270Y0360788D01*
X0300108Y0362387D02*
X0310549Y0362387D01*
X0310028Y0363985D02*
X0300628Y0363985D01*
X0300231Y0365584D02*
X0310426Y0365584D01*
X0315231Y0365584D02*
X0325426Y0365584D01*
X0325028Y0363985D02*
X0315628Y0363985D01*
X0315108Y0362387D02*
X0325549Y0362387D01*
X0324987Y0360788D02*
X0327270Y0360788D01*
X0322770Y0360788D02*
X0320487Y0360788D01*
X0318270Y0360788D02*
X0315987Y0360788D01*
X0313770Y0360788D02*
X0311487Y0360788D01*
X0309270Y0360788D02*
X0306987Y0360788D01*
X0304770Y0360788D02*
X0302487Y0360788D01*
X0303114Y0355993D02*
X0304143Y0355993D01*
X0307614Y0355993D02*
X0308643Y0355993D01*
X0312114Y0355993D02*
X0313143Y0355993D01*
X0316614Y0355993D02*
X0317643Y0355993D01*
X0321114Y0355993D02*
X0322143Y0355993D01*
X0325614Y0355993D02*
X0326643Y0355993D01*
X0330114Y0355993D02*
X0342855Y0355993D01*
X0342578Y0357591D02*
X0331150Y0357591D01*
X0333094Y0359190D02*
X0335163Y0359190D01*
X0337594Y0359190D02*
X0339663Y0359190D01*
X0342094Y0359190D02*
X0343392Y0359190D01*
X0347365Y0359190D02*
X0348663Y0359190D01*
X0351752Y0352795D02*
X0335462Y0352795D01*
X0335678Y0351197D02*
X0348149Y0351197D01*
X0347328Y0349598D02*
X0334720Y0349598D01*
X0332178Y0348000D02*
X0347602Y0348000D01*
X0346935Y0346017D02*
X0345822Y0346017D01*
X0344792Y0345590D01*
X0344005Y0344803D01*
X0328177Y0344803D01*
X0328185Y0343267D02*
X0327072Y0343267D01*
X0326042Y0342840D01*
X0325255Y0342053D01*
X0324828Y0341024D01*
X0324828Y0339910D01*
X0325255Y0338881D01*
X0326042Y0338093D01*
X0327072Y0337667D01*
X0328185Y0337667D01*
X0329215Y0338093D01*
X0330002Y0338881D01*
X0330428Y0339910D01*
X0330428Y0341024D01*
X0330002Y0342053D01*
X0329215Y0342840D01*
X0328185Y0343267D01*
X0328336Y0343204D02*
X0343578Y0343204D01*
X0343578Y0342660D02*
X0344005Y0341631D01*
X0344792Y0340843D01*
X0345822Y0340417D01*
X0346869Y0340417D01*
X0346505Y0340053D01*
X0346078Y0339024D01*
X0346078Y0337910D01*
X0346505Y0336881D01*
X0347292Y0336093D01*
X0348322Y0335667D01*
X0349435Y0335667D01*
X0350465Y0336093D01*
X0351252Y0336881D01*
X0351678Y0337910D01*
X0351678Y0339024D01*
X0351252Y0340053D01*
X0350465Y0340840D01*
X0349435Y0341267D01*
X0348388Y0341267D01*
X0348752Y0341631D01*
X0349178Y0342660D01*
X0349178Y0343774D01*
X0348752Y0344803D01*
X0370841Y0344803D01*
X0371017Y0343204D02*
X0349178Y0343204D01*
X0348752Y0344803D02*
X0347965Y0345590D01*
X0346935Y0346017D01*
X0344005Y0344803D02*
X0343578Y0343774D01*
X0343578Y0342660D01*
X0344029Y0341606D02*
X0330187Y0341606D01*
X0330428Y0340007D02*
X0346486Y0340007D01*
X0346078Y0338409D02*
X0329530Y0338409D01*
X0325726Y0338409D02*
X0299030Y0338409D01*
X0299456Y0336810D02*
X0346575Y0336810D01*
X0351182Y0336810D02*
X0353578Y0336810D01*
X0353578Y0337274D02*
X0353578Y0336160D01*
X0354005Y0335131D01*
X0354792Y0334343D01*
X0355822Y0333917D01*
X0356935Y0333917D01*
X0357965Y0334343D01*
X0358752Y0335131D01*
X0359178Y0336160D01*
X0359178Y0337274D01*
X0358752Y0338303D01*
X0357965Y0339090D01*
X0356935Y0339517D01*
X0355822Y0339517D01*
X0354792Y0339090D01*
X0354005Y0338303D01*
X0353578Y0337274D01*
X0354111Y0338409D02*
X0351678Y0338409D01*
X0351271Y0340007D02*
X0370828Y0340007D01*
X0371173Y0341606D02*
X0348727Y0341606D01*
X0353971Y0335212D02*
X0299678Y0335212D01*
X0298735Y0333613D02*
X0302315Y0333613D01*
X0301328Y0332015D02*
X0299579Y0332015D01*
X0299578Y0330416D02*
X0301533Y0330416D01*
X0305942Y0333613D02*
X0315451Y0333613D01*
X0315822Y0333767D02*
X0314792Y0333340D01*
X0314005Y0332553D01*
X0313578Y0331524D01*
X0313578Y0330410D01*
X0314005Y0329381D01*
X0314792Y0328593D01*
X0315822Y0328167D01*
X0316935Y0328167D01*
X0317965Y0328593D01*
X0318752Y0329381D01*
X0319178Y0330410D01*
X0319178Y0331524D01*
X0318752Y0332553D01*
X0317965Y0333340D01*
X0316935Y0333767D01*
X0315822Y0333767D01*
X0317306Y0333613D02*
X0371176Y0333613D01*
X0371014Y0335212D02*
X0358786Y0335212D01*
X0359178Y0336810D02*
X0370844Y0336810D01*
X0371476Y0338409D02*
X0358646Y0338409D01*
X0355734Y0346401D02*
X0331864Y0346401D01*
X0326921Y0343204D02*
X0326277Y0343204D01*
X0324980Y0343204D02*
X0299490Y0343204D01*
X0299334Y0341606D02*
X0325070Y0341606D01*
X0324828Y0340007D02*
X0299678Y0340007D01*
X0299666Y0344803D02*
X0323080Y0344803D01*
X0322828Y0346401D02*
X0298653Y0346401D01*
X0287505Y0335212D02*
X0238171Y0335212D01*
X0238085Y0333613D02*
X0287178Y0333613D01*
X0287871Y0332015D02*
X0236705Y0332015D01*
X0235613Y0327219D02*
X0224941Y0327219D01*
X0225215Y0325621D02*
X0235445Y0325621D01*
X0233197Y0320825D02*
X0260627Y0320825D01*
X0260028Y0319227D02*
X0229527Y0319227D01*
X0228960Y0320825D02*
X0217328Y0320825D01*
X0216898Y0319227D02*
X0226530Y0319227D01*
X0225145Y0322424D02*
X0228278Y0322424D01*
X0228609Y0324022D02*
X0225628Y0324022D01*
X0230723Y0317628D02*
X0230774Y0317628D01*
X0219415Y0306440D02*
X0218385Y0306867D01*
X0217272Y0306867D01*
X0216242Y0306440D01*
X0215455Y0305653D01*
X0215028Y0304624D01*
X0215028Y0303510D01*
X0215455Y0302481D01*
X0216242Y0301693D01*
X0217272Y0301267D01*
X0218385Y0301267D01*
X0219415Y0301693D01*
X0220202Y0302481D01*
X0220628Y0303510D01*
X0220628Y0304624D01*
X0220202Y0305653D01*
X0219415Y0306440D01*
X0219416Y0306439D02*
X0261856Y0306439D01*
X0262272Y0306267D02*
X0263385Y0306267D01*
X0264415Y0306693D01*
X0265202Y0307481D01*
X0265628Y0308510D01*
X0265628Y0309624D01*
X0265202Y0310653D01*
X0264415Y0311440D01*
X0263385Y0311867D01*
X0262272Y0311867D01*
X0261242Y0311440D01*
X0260455Y0310653D01*
X0260028Y0309624D01*
X0260028Y0308510D01*
X0260455Y0307481D01*
X0261242Y0306693D01*
X0262272Y0306267D01*
X0263801Y0306439D02*
X0268891Y0306439D01*
X0269192Y0306740D02*
X0268405Y0305953D01*
X0267978Y0304924D01*
X0267978Y0303810D01*
X0268405Y0302781D01*
X0269192Y0301993D01*
X0270222Y0301567D01*
X0271335Y0301567D01*
X0272365Y0301993D01*
X0273152Y0302781D01*
X0273578Y0303810D01*
X0273578Y0304924D01*
X0273152Y0305953D01*
X0272365Y0306740D01*
X0271335Y0307167D01*
X0270222Y0307167D01*
X0269192Y0306740D01*
X0267978Y0304840D02*
X0220539Y0304840D01*
X0220517Y0303242D02*
X0268214Y0303242D01*
X0270037Y0301643D02*
X0219294Y0301643D01*
X0217552Y0300653D02*
X0216765Y0301440D01*
X0215735Y0301867D01*
X0214622Y0301867D01*
X0213592Y0301440D01*
X0212805Y0300653D01*
X0212693Y0300383D01*
X0212602Y0300603D01*
X0211815Y0301390D01*
X0210785Y0301817D01*
X0209672Y0301817D01*
X0208642Y0301390D01*
X0207855Y0300603D01*
X0207428Y0299574D01*
X0207428Y0298460D01*
X0207855Y0297431D01*
X0208642Y0296643D01*
X0209672Y0296217D01*
X0210785Y0296217D01*
X0211815Y0296643D01*
X0212602Y0297431D01*
X0212714Y0297700D01*
X0212805Y0297481D01*
X0213592Y0296693D01*
X0214622Y0296267D01*
X0215735Y0296267D01*
X0216765Y0296693D01*
X0217552Y0297481D01*
X0217978Y0298510D01*
X0217978Y0299624D01*
X0217552Y0300653D01*
X0217804Y0300045D02*
X0229248Y0300045D01*
X0229355Y0300303D02*
X0228928Y0299274D01*
X0228928Y0298160D01*
X0229355Y0297131D01*
X0230142Y0296343D01*
X0231172Y0295917D01*
X0232285Y0295917D01*
X0233315Y0296343D01*
X0234102Y0297131D01*
X0234528Y0298160D01*
X0234528Y0299274D01*
X0234102Y0300303D01*
X0233315Y0301090D01*
X0232285Y0301517D01*
X0231172Y0301517D01*
X0230142Y0301090D01*
X0229355Y0300303D01*
X0228928Y0298446D02*
X0217952Y0298446D01*
X0216919Y0296848D02*
X0229638Y0296848D01*
X0233819Y0296848D02*
X0259553Y0296848D01*
X0259705Y0296481D02*
X0260492Y0295693D01*
X0261522Y0295267D01*
X0262635Y0295267D01*
X0263665Y0295693D01*
X0264452Y0296481D01*
X0264878Y0297510D01*
X0264878Y0298624D01*
X0264452Y0299653D01*
X0263665Y0300440D01*
X0262635Y0300867D01*
X0261522Y0300867D01*
X0260492Y0300440D01*
X0259705Y0299653D01*
X0259278Y0298624D01*
X0259278Y0297510D01*
X0259705Y0296481D01*
X0259278Y0298446D02*
X0234528Y0298446D01*
X0234209Y0300045D02*
X0260097Y0300045D01*
X0264060Y0300045D02*
X0346828Y0300045D01*
X0346828Y0300524D02*
X0346828Y0299410D01*
X0347255Y0298381D01*
X0348042Y0297593D01*
X0349072Y0297167D01*
X0350185Y0297167D01*
X0351215Y0297593D01*
X0351628Y0298007D01*
X0352042Y0297593D01*
X0353072Y0297167D01*
X0354185Y0297167D01*
X0355215Y0297593D01*
X0355628Y0298007D01*
X0356042Y0297593D01*
X0357072Y0297167D01*
X0358185Y0297167D01*
X0359215Y0297593D01*
X0360002Y0298381D01*
X0360428Y0299410D01*
X0360428Y0300524D01*
X0360002Y0301553D01*
X0359215Y0302340D01*
X0358185Y0302767D01*
X0357072Y0302767D01*
X0356042Y0302340D01*
X0355628Y0301926D01*
X0355215Y0302340D01*
X0354185Y0302767D01*
X0353072Y0302767D01*
X0352042Y0302340D01*
X0351628Y0301926D01*
X0351215Y0302340D01*
X0350233Y0302747D01*
X0350465Y0302843D01*
X0351252Y0303631D01*
X0351678Y0304660D01*
X0351678Y0305774D01*
X0351252Y0306803D01*
X0350465Y0307590D01*
X0349435Y0308017D01*
X0348322Y0308017D01*
X0347292Y0307590D01*
X0346505Y0306803D01*
X0346078Y0305774D01*
X0346078Y0304660D01*
X0346505Y0303631D01*
X0347292Y0302843D01*
X0348274Y0302436D01*
X0348042Y0302340D01*
X0347255Y0301553D01*
X0346828Y0300524D01*
X0347345Y0301643D02*
X0342982Y0301643D01*
X0343465Y0301843D02*
X0344252Y0302631D01*
X0344678Y0303660D01*
X0344678Y0304774D01*
X0344252Y0305803D01*
X0343465Y0306590D01*
X0342435Y0307017D01*
X0341322Y0307017D01*
X0340292Y0306590D01*
X0339628Y0305926D01*
X0338965Y0306590D01*
X0337935Y0307017D01*
X0336822Y0307017D01*
X0335792Y0306590D01*
X0335005Y0305803D01*
X0334931Y0305624D01*
X0334465Y0306090D01*
X0333435Y0306517D01*
X0332322Y0306517D01*
X0331292Y0306090D01*
X0330628Y0305426D01*
X0329965Y0306090D01*
X0328935Y0306517D01*
X0327822Y0306517D01*
X0326792Y0306090D01*
X0326128Y0305426D01*
X0325465Y0306090D01*
X0324435Y0306517D01*
X0323322Y0306517D01*
X0322292Y0306090D01*
X0321628Y0305426D01*
X0320965Y0306090D01*
X0319935Y0306517D01*
X0318822Y0306517D01*
X0317792Y0306090D01*
X0317128Y0305426D01*
X0316465Y0306090D01*
X0315435Y0306517D01*
X0314322Y0306517D01*
X0313292Y0306090D01*
X0312628Y0305426D01*
X0311965Y0306090D01*
X0310935Y0306517D01*
X0309822Y0306517D01*
X0308792Y0306090D01*
X0308128Y0305426D01*
X0307465Y0306090D01*
X0306435Y0306517D01*
X0305322Y0306517D01*
X0304292Y0306090D01*
X0303628Y0305426D01*
X0302965Y0306090D01*
X0301935Y0306517D01*
X0300822Y0306517D01*
X0299792Y0306090D01*
X0299128Y0305426D01*
X0298588Y0305967D01*
X0299252Y0306631D01*
X0299678Y0307660D01*
X0299678Y0308774D01*
X0299252Y0309803D01*
X0298588Y0310467D01*
X0299252Y0311131D01*
X0299678Y0312160D01*
X0299678Y0313274D01*
X0299252Y0314303D01*
X0298588Y0314967D01*
X0299252Y0315631D01*
X0299678Y0316660D01*
X0299678Y0317774D01*
X0299252Y0318803D01*
X0298465Y0319590D01*
X0297435Y0320017D01*
X0296322Y0320017D01*
X0295292Y0319590D01*
X0294505Y0318803D01*
X0294078Y0317774D01*
X0294078Y0316660D01*
X0294505Y0315631D01*
X0295169Y0314967D01*
X0294505Y0314303D01*
X0294078Y0313274D01*
X0294078Y0312160D01*
X0294505Y0311131D01*
X0295169Y0310467D01*
X0294505Y0309803D01*
X0294078Y0308774D01*
X0294078Y0307660D01*
X0294505Y0306631D01*
X0295169Y0305967D01*
X0294505Y0305303D01*
X0294078Y0304274D01*
X0294078Y0303160D01*
X0294505Y0302131D01*
X0295292Y0301343D01*
X0296322Y0300917D01*
X0297435Y0300917D01*
X0298465Y0301343D01*
X0299128Y0302007D01*
X0299792Y0301343D01*
X0300822Y0300917D01*
X0301935Y0300917D01*
X0302965Y0301343D01*
X0303628Y0302007D01*
X0304292Y0301343D01*
X0305322Y0300917D01*
X0306435Y0300917D01*
X0307465Y0301343D01*
X0308128Y0302007D01*
X0308792Y0301343D01*
X0309822Y0300917D01*
X0310935Y0300917D01*
X0311965Y0301343D01*
X0312628Y0302007D01*
X0313292Y0301343D01*
X0314322Y0300917D01*
X0315435Y0300917D01*
X0316465Y0301343D01*
X0317128Y0302007D01*
X0317792Y0301343D01*
X0318822Y0300917D01*
X0319935Y0300917D01*
X0320965Y0301343D01*
X0321628Y0302007D01*
X0322292Y0301343D01*
X0323322Y0300917D01*
X0324435Y0300917D01*
X0325465Y0301343D01*
X0326128Y0302007D01*
X0326792Y0301343D01*
X0327822Y0300917D01*
X0328935Y0300917D01*
X0329965Y0301343D01*
X0330628Y0302007D01*
X0331292Y0301343D01*
X0332322Y0300917D01*
X0333435Y0300917D01*
X0334465Y0301343D01*
X0335252Y0302131D01*
X0335326Y0302309D01*
X0335792Y0301843D01*
X0336822Y0301417D01*
X0337935Y0301417D01*
X0338965Y0301843D01*
X0339628Y0302507D01*
X0340292Y0301843D01*
X0341322Y0301417D01*
X0342435Y0301417D01*
X0343465Y0301843D01*
X0344505Y0303242D02*
X0346894Y0303242D01*
X0346078Y0304840D02*
X0344651Y0304840D01*
X0343616Y0306439D02*
X0346354Y0306439D01*
X0342752Y0308631D02*
X0343178Y0309660D01*
X0343178Y0310774D01*
X0342752Y0311803D01*
X0341965Y0312590D01*
X0341256Y0312884D01*
X0341752Y0313381D01*
X0342178Y0314410D01*
X0342178Y0315524D01*
X0341752Y0316553D01*
X0340965Y0317340D01*
X0339935Y0317767D01*
X0338822Y0317767D01*
X0337792Y0317340D01*
X0337005Y0316553D01*
X0336578Y0315524D01*
X0336578Y0314410D01*
X0337005Y0313381D01*
X0337792Y0312593D01*
X0338501Y0312299D01*
X0338005Y0311803D01*
X0337578Y0310774D01*
X0337578Y0309660D01*
X0338005Y0308631D01*
X0338792Y0307843D01*
X0339822Y0307417D01*
X0340935Y0307417D01*
X0341965Y0307843D01*
X0342752Y0308631D01*
X0342159Y0308037D02*
X0363448Y0308037D01*
X0363555Y0307781D02*
X0364342Y0306993D01*
X0365372Y0306567D01*
X0366485Y0306567D01*
X0367515Y0306993D01*
X0368302Y0307781D01*
X0368728Y0308810D01*
X0368728Y0309924D01*
X0368302Y0310953D01*
X0367515Y0311740D01*
X0366485Y0312167D01*
X0365372Y0312167D01*
X0364342Y0311740D01*
X0363555Y0310953D01*
X0363128Y0309924D01*
X0363128Y0308810D01*
X0363555Y0307781D01*
X0363222Y0306667D02*
X0362192Y0306240D01*
X0361405Y0305453D01*
X0360978Y0304424D01*
X0360978Y0303310D01*
X0361405Y0302281D01*
X0362192Y0301493D01*
X0363222Y0301067D01*
X0364335Y0301067D01*
X0365365Y0301493D01*
X0365778Y0301907D01*
X0366192Y0301493D01*
X0367222Y0301067D01*
X0368335Y0301067D01*
X0369365Y0301493D01*
X0370152Y0302281D01*
X0370578Y0303310D01*
X0370578Y0304424D01*
X0370152Y0305453D01*
X0369365Y0306240D01*
X0368335Y0306667D01*
X0367222Y0306667D01*
X0366192Y0306240D01*
X0365778Y0305826D01*
X0365365Y0306240D01*
X0364335Y0306667D01*
X0363222Y0306667D01*
X0362671Y0306439D02*
X0351403Y0306439D01*
X0351678Y0304840D02*
X0361151Y0304840D01*
X0361007Y0303242D02*
X0350863Y0303242D01*
X0347228Y0298446D02*
X0311659Y0298446D01*
X0311852Y0298253D02*
X0311065Y0299040D01*
X0310035Y0299467D01*
X0308922Y0299467D01*
X0307892Y0299040D01*
X0307105Y0298253D01*
X0306678Y0297224D01*
X0306678Y0296110D01*
X0307105Y0295081D01*
X0307892Y0294293D01*
X0308922Y0293867D01*
X0310035Y0293867D01*
X0311065Y0294293D01*
X0311852Y0295081D01*
X0312278Y0296110D01*
X0312278Y0297224D01*
X0311852Y0298253D01*
X0312278Y0296848D02*
X0363900Y0296848D01*
X0364292Y0297240D02*
X0363505Y0296453D01*
X0363078Y0295424D01*
X0363078Y0294310D01*
X0363505Y0293281D01*
X0364292Y0292493D01*
X0365322Y0292067D01*
X0366435Y0292067D01*
X0366663Y0292161D01*
X0366405Y0291903D01*
X0365978Y0290874D01*
X0365978Y0289760D01*
X0366405Y0288731D01*
X0367094Y0288042D01*
X0366405Y0287353D01*
X0365978Y0286324D01*
X0365978Y0285210D01*
X0366405Y0284181D01*
X0367192Y0283393D01*
X0368222Y0282967D01*
X0369335Y0282967D01*
X0370365Y0283393D01*
X0371152Y0284181D01*
X0371578Y0285210D01*
X0371578Y0286324D01*
X0371152Y0287353D01*
X0370463Y0288042D01*
X0371152Y0288731D01*
X0371578Y0289760D01*
X0371578Y0290874D01*
X0371152Y0291903D01*
X0370365Y0292690D01*
X0369335Y0293117D01*
X0368222Y0293117D01*
X0367994Y0293022D01*
X0368252Y0293281D01*
X0368678Y0294310D01*
X0368678Y0295424D01*
X0368252Y0296453D01*
X0367465Y0297240D01*
X0366435Y0297667D01*
X0365322Y0297667D01*
X0364292Y0297240D01*
X0363078Y0295249D02*
X0311922Y0295249D01*
X0312522Y0292417D02*
X0311492Y0291990D01*
X0310705Y0291203D01*
X0310278Y0290174D01*
X0310278Y0289060D01*
X0310705Y0288031D01*
X0311492Y0287243D01*
X0312522Y0286817D01*
X0313635Y0286817D01*
X0314665Y0287243D01*
X0315452Y0288031D01*
X0315878Y0289060D01*
X0315878Y0290174D01*
X0315452Y0291203D01*
X0314665Y0291990D01*
X0313635Y0292417D01*
X0312522Y0292417D01*
X0311641Y0292052D02*
X0297534Y0292052D01*
X0297578Y0292160D02*
X0297578Y0293274D01*
X0297152Y0294303D01*
X0296365Y0295090D01*
X0295335Y0295517D01*
X0294222Y0295517D01*
X0293192Y0295090D01*
X0292405Y0294303D01*
X0291978Y0293274D01*
X0291978Y0292517D01*
X0291172Y0292517D01*
X0290142Y0292090D01*
X0289355Y0291303D01*
X0288928Y0290274D01*
X0288928Y0289160D01*
X0289355Y0288131D01*
X0290142Y0287343D01*
X0291172Y0286917D01*
X0292285Y0286917D01*
X0293315Y0287343D01*
X0294102Y0288131D01*
X0294528Y0289160D01*
X0294528Y0289917D01*
X0295335Y0289917D01*
X0296365Y0290343D01*
X0297152Y0291131D01*
X0297578Y0292160D01*
X0297422Y0293651D02*
X0363351Y0293651D01*
X0366554Y0292052D02*
X0344395Y0292052D01*
X0344665Y0291940D02*
X0343635Y0292367D01*
X0342522Y0292367D01*
X0341492Y0291940D01*
X0340705Y0291153D01*
X0340278Y0290124D01*
X0340278Y0289010D01*
X0340338Y0288867D01*
X0339272Y0288867D01*
X0338242Y0288440D01*
X0337455Y0287653D01*
X0337028Y0286624D01*
X0337028Y0285510D01*
X0337455Y0284481D01*
X0338242Y0283693D01*
X0339272Y0283267D01*
X0340385Y0283267D01*
X0341415Y0283693D01*
X0342202Y0284481D01*
X0342628Y0285510D01*
X0342628Y0286624D01*
X0342569Y0286767D01*
X0343635Y0286767D01*
X0343678Y0286785D01*
X0343678Y0286510D01*
X0344105Y0285481D01*
X0344892Y0284693D01*
X0345922Y0284267D01*
X0347035Y0284267D01*
X0348065Y0284693D01*
X0348852Y0285481D01*
X0349278Y0286510D01*
X0349278Y0287624D01*
X0348852Y0288653D01*
X0348065Y0289440D01*
X0347035Y0289867D01*
X0345922Y0289867D01*
X0345878Y0289849D01*
X0345878Y0290124D01*
X0345452Y0291153D01*
X0344665Y0291940D01*
X0345742Y0290454D02*
X0365978Y0290454D01*
X0366353Y0288855D02*
X0348650Y0288855D01*
X0349278Y0287257D02*
X0356235Y0287257D01*
X0356622Y0287417D02*
X0355592Y0286990D01*
X0354805Y0286203D01*
X0354378Y0285174D01*
X0354378Y0284060D01*
X0354805Y0283031D01*
X0355592Y0282243D01*
X0356622Y0281817D01*
X0357735Y0281817D01*
X0358765Y0282243D01*
X0359552Y0283031D01*
X0359978Y0284060D01*
X0359978Y0285174D01*
X0359552Y0286203D01*
X0358765Y0286990D01*
X0357735Y0287417D01*
X0356622Y0287417D01*
X0358122Y0287257D02*
X0366365Y0287257D01*
X0365978Y0285658D02*
X0359778Y0285658D01*
X0359978Y0284060D02*
X0366526Y0284060D01*
X0371031Y0284060D02*
X0375078Y0284060D01*
X0375078Y0285658D02*
X0371578Y0285658D01*
X0371192Y0287257D02*
X0375078Y0287257D01*
X0375078Y0288855D02*
X0371204Y0288855D01*
X0371578Y0290454D02*
X0375078Y0290454D01*
X0375078Y0292052D02*
X0371003Y0292052D01*
X0368405Y0293651D02*
X0375078Y0293651D01*
X0375078Y0295249D02*
X0368678Y0295249D01*
X0367857Y0296848D02*
X0375078Y0296848D01*
X0371439Y0298446D02*
X0360029Y0298446D01*
X0360428Y0300045D02*
X0370828Y0300045D01*
X0371189Y0301643D02*
X0369515Y0301643D01*
X0370550Y0303242D02*
X0371002Y0303242D01*
X0370856Y0304840D02*
X0370406Y0304840D01*
X0371447Y0306439D02*
X0368886Y0306439D01*
X0368408Y0308037D02*
X0370828Y0308037D01*
X0371186Y0309636D02*
X0368728Y0309636D01*
X0368021Y0311234D02*
X0371005Y0311234D01*
X0370853Y0312833D02*
X0357528Y0312833D01*
X0357528Y0312924D02*
X0357102Y0313953D01*
X0356315Y0314740D01*
X0355285Y0315167D01*
X0354172Y0315167D01*
X0353142Y0314740D01*
X0352355Y0313953D01*
X0351928Y0312924D01*
X0351928Y0311810D01*
X0352355Y0310781D01*
X0353142Y0309993D01*
X0354172Y0309567D01*
X0355285Y0309567D01*
X0356315Y0309993D01*
X0357102Y0310781D01*
X0357528Y0311810D01*
X0357528Y0312924D01*
X0357290Y0311234D02*
X0363836Y0311234D01*
X0363128Y0309636D02*
X0355452Y0309636D01*
X0354005Y0309636D02*
X0343168Y0309636D01*
X0342988Y0311234D02*
X0352167Y0311234D01*
X0351928Y0312833D02*
X0341380Y0312833D01*
X0342178Y0314431D02*
X0352833Y0314431D01*
X0351765Y0315893D02*
X0350735Y0315467D01*
X0349622Y0315467D01*
X0348592Y0315893D01*
X0347805Y0316681D01*
X0347378Y0317710D01*
X0347378Y0318824D01*
X0347805Y0319853D01*
X0348592Y0320640D01*
X0349622Y0321067D01*
X0350735Y0321067D01*
X0351765Y0320640D01*
X0352552Y0319853D01*
X0352978Y0318824D01*
X0352978Y0317710D01*
X0352552Y0316681D01*
X0351765Y0315893D01*
X0351901Y0316030D02*
X0363078Y0316030D01*
X0363078Y0315660D02*
X0363505Y0314631D01*
X0364292Y0313843D01*
X0365322Y0313417D01*
X0366435Y0313417D01*
X0367465Y0313843D01*
X0368252Y0314631D01*
X0368678Y0315660D01*
X0368678Y0316774D01*
X0368252Y0317803D01*
X0367465Y0318590D01*
X0366435Y0319017D01*
X0365322Y0319017D01*
X0364292Y0318590D01*
X0363505Y0317803D01*
X0363078Y0316774D01*
X0363078Y0315660D01*
X0363704Y0314431D02*
X0356624Y0314431D01*
X0357142Y0316643D02*
X0358172Y0316217D01*
X0359285Y0316217D01*
X0360315Y0316643D01*
X0361102Y0317431D01*
X0361528Y0318460D01*
X0361528Y0319574D01*
X0361102Y0320603D01*
X0360315Y0321390D01*
X0359285Y0321817D01*
X0358172Y0321817D01*
X0357142Y0321390D01*
X0356355Y0320603D01*
X0355928Y0319574D01*
X0355928Y0318460D01*
X0356355Y0317431D01*
X0357142Y0316643D01*
X0356273Y0317628D02*
X0352945Y0317628D01*
X0352811Y0319227D02*
X0355928Y0319227D01*
X0356577Y0320825D02*
X0351318Y0320825D01*
X0349039Y0320825D02*
X0321398Y0320825D01*
X0320935Y0321017D02*
X0319822Y0321017D01*
X0318792Y0320590D01*
X0318005Y0319803D01*
X0317578Y0318774D01*
X0317578Y0317660D01*
X0318005Y0316631D01*
X0318792Y0315843D01*
X0319822Y0315417D01*
X0320935Y0315417D01*
X0321965Y0315843D01*
X0322752Y0316631D01*
X0323178Y0317660D01*
X0323178Y0318774D01*
X0322752Y0319803D01*
X0321965Y0320590D01*
X0320935Y0321017D01*
X0319359Y0320825D02*
X0311806Y0320825D01*
X0311785Y0320817D02*
X0312815Y0321243D01*
X0313602Y0322031D01*
X0314028Y0323060D01*
X0314028Y0324174D01*
X0313602Y0325203D01*
X0312815Y0325990D01*
X0311785Y0326417D01*
X0310672Y0326417D01*
X0309642Y0325990D01*
X0308855Y0325203D01*
X0308428Y0324174D01*
X0308428Y0323060D01*
X0308855Y0322031D01*
X0309642Y0321243D01*
X0310672Y0320817D01*
X0311785Y0320817D01*
X0310651Y0320825D02*
X0306672Y0320825D01*
X0307831Y0322424D02*
X0308692Y0322424D01*
X0308428Y0324022D02*
X0307825Y0324022D01*
X0306641Y0325621D02*
X0309273Y0325621D01*
X0309562Y0327219D02*
X0330078Y0327219D01*
X0330078Y0327274D02*
X0330078Y0326160D01*
X0330505Y0325131D01*
X0331292Y0324343D01*
X0332322Y0323917D01*
X0333435Y0323917D01*
X0334465Y0324343D01*
X0335252Y0325131D01*
X0335678Y0326160D01*
X0335678Y0327274D01*
X0335252Y0328303D01*
X0334465Y0329090D01*
X0333435Y0329517D01*
X0332322Y0329517D01*
X0331292Y0329090D01*
X0330505Y0328303D01*
X0330078Y0327274D01*
X0330302Y0325621D02*
X0313184Y0325621D01*
X0314028Y0324022D02*
X0332067Y0324022D01*
X0333690Y0324022D02*
X0352230Y0324022D01*
X0352028Y0324510D02*
X0352455Y0323481D01*
X0353242Y0322693D01*
X0354272Y0322267D01*
X0355385Y0322267D01*
X0356415Y0322693D01*
X0357202Y0323481D01*
X0357628Y0324510D01*
X0357628Y0325624D01*
X0357202Y0326653D01*
X0356415Y0327440D01*
X0355385Y0327867D01*
X0354272Y0327867D01*
X0353242Y0327440D01*
X0352455Y0326653D01*
X0352028Y0325624D01*
X0352028Y0324510D01*
X0352028Y0325621D02*
X0335455Y0325621D01*
X0335678Y0327219D02*
X0353021Y0327219D01*
X0356636Y0327219D02*
X0364421Y0327219D01*
X0364792Y0327590D02*
X0364005Y0326803D01*
X0363578Y0325774D01*
X0363578Y0324660D01*
X0364005Y0323631D01*
X0364792Y0322843D01*
X0365822Y0322417D01*
X0366935Y0322417D01*
X0367965Y0322843D01*
X0368752Y0323631D01*
X0369178Y0324660D01*
X0369178Y0325774D01*
X0368752Y0326803D01*
X0367965Y0327590D01*
X0366935Y0328017D01*
X0365822Y0328017D01*
X0364792Y0327590D01*
X0363578Y0325621D02*
X0357628Y0325621D01*
X0357427Y0324022D02*
X0363842Y0324022D01*
X0365804Y0322424D02*
X0355765Y0322424D01*
X0353892Y0322424D02*
X0313765Y0322424D01*
X0317766Y0319227D02*
X0298828Y0319227D01*
X0299678Y0317628D02*
X0317591Y0317628D01*
X0318606Y0316030D02*
X0299417Y0316030D01*
X0299124Y0314431D02*
X0336578Y0314431D01*
X0335465Y0313590D02*
X0334435Y0314017D01*
X0333322Y0314017D01*
X0332292Y0313590D01*
X0331505Y0312803D01*
X0331078Y0311774D01*
X0331078Y0310660D01*
X0331505Y0309631D01*
X0332292Y0308843D01*
X0333322Y0308417D01*
X0334435Y0308417D01*
X0335465Y0308843D01*
X0336252Y0309631D01*
X0336678Y0310660D01*
X0336678Y0311774D01*
X0336252Y0312803D01*
X0335465Y0313590D01*
X0336222Y0312833D02*
X0337553Y0312833D01*
X0337769Y0311234D02*
X0336678Y0311234D01*
X0336254Y0309636D02*
X0337588Y0309636D01*
X0338598Y0308037D02*
X0299678Y0308037D01*
X0299321Y0309636D02*
X0321899Y0309636D01*
X0322005Y0309381D02*
X0322792Y0308593D01*
X0323822Y0308167D01*
X0324935Y0308167D01*
X0325965Y0308593D01*
X0326752Y0309381D01*
X0327178Y0310410D01*
X0327178Y0311524D01*
X0326752Y0312553D01*
X0325965Y0313340D01*
X0324935Y0313767D01*
X0323822Y0313767D01*
X0322792Y0313340D01*
X0322005Y0312553D01*
X0321578Y0311524D01*
X0321578Y0310410D01*
X0322005Y0309381D01*
X0321578Y0311234D02*
X0299295Y0311234D01*
X0299678Y0312833D02*
X0322285Y0312833D01*
X0322151Y0316030D02*
X0336788Y0316030D01*
X0338487Y0317628D02*
X0323165Y0317628D01*
X0322991Y0319227D02*
X0347545Y0319227D01*
X0347412Y0317628D02*
X0340270Y0317628D01*
X0341969Y0316030D02*
X0348456Y0316030D01*
X0361184Y0317628D02*
X0363432Y0317628D01*
X0361528Y0319227D02*
X0371008Y0319227D01*
X0370850Y0320825D02*
X0360880Y0320825D01*
X0366953Y0322424D02*
X0371462Y0322424D01*
X0370828Y0324022D02*
X0368914Y0324022D01*
X0369178Y0325621D02*
X0371179Y0325621D01*
X0371011Y0327219D02*
X0368336Y0327219D01*
X0370847Y0328818D02*
X0334737Y0328818D01*
X0331020Y0328818D02*
X0318189Y0328818D01*
X0319178Y0330416D02*
X0371469Y0330416D01*
X0370828Y0332015D02*
X0318975Y0332015D01*
X0313782Y0332015D02*
X0310790Y0332015D01*
X0311678Y0330416D02*
X0313578Y0330416D01*
X0314568Y0328818D02*
X0311433Y0328818D01*
X0306967Y0332015D02*
X0306928Y0332015D01*
X0294929Y0319227D02*
X0285163Y0319227D01*
X0285152Y0319253D02*
X0284365Y0320040D01*
X0283335Y0320467D01*
X0282222Y0320467D01*
X0281192Y0320040D01*
X0280405Y0319253D01*
X0279978Y0318224D01*
X0279978Y0317110D01*
X0280405Y0316081D01*
X0281192Y0315293D01*
X0282222Y0314867D01*
X0283335Y0314867D01*
X0284365Y0315293D01*
X0285152Y0316081D01*
X0285578Y0317110D01*
X0285578Y0318224D01*
X0285152Y0319253D01*
X0285578Y0317628D02*
X0294078Y0317628D01*
X0294339Y0316030D02*
X0285101Y0316030D01*
X0286472Y0312567D02*
X0285442Y0312140D01*
X0284655Y0311353D01*
X0284228Y0310324D01*
X0284228Y0309210D01*
X0284655Y0308181D01*
X0285442Y0307393D01*
X0286472Y0306967D01*
X0287585Y0306967D01*
X0288615Y0307393D01*
X0289228Y0308007D01*
X0289442Y0307793D01*
X0290472Y0307367D01*
X0291585Y0307367D01*
X0292615Y0307793D01*
X0293402Y0308581D01*
X0293828Y0309610D01*
X0293828Y0310724D01*
X0293402Y0311753D01*
X0292615Y0312540D01*
X0291585Y0312967D01*
X0290472Y0312967D01*
X0289442Y0312540D01*
X0288828Y0311926D01*
X0288615Y0312140D01*
X0287585Y0312567D01*
X0286472Y0312567D01*
X0284606Y0311234D02*
X0264621Y0311234D01*
X0265623Y0309636D02*
X0284228Y0309636D01*
X0284798Y0308037D02*
X0265433Y0308037D01*
X0260224Y0308037D02*
X0251259Y0308037D01*
X0251602Y0308381D02*
X0252028Y0309410D01*
X0252028Y0310524D01*
X0251602Y0311553D01*
X0250815Y0312340D01*
X0249785Y0312767D01*
X0248672Y0312767D01*
X0247642Y0312340D01*
X0246855Y0311553D01*
X0246428Y0310524D01*
X0246428Y0309410D01*
X0246855Y0308381D01*
X0247642Y0307593D01*
X0248672Y0307167D01*
X0249785Y0307167D01*
X0250815Y0307593D01*
X0251602Y0308381D01*
X0252028Y0309636D02*
X0260033Y0309636D01*
X0261036Y0311234D02*
X0251734Y0311234D01*
X0246723Y0311234D02*
X0180678Y0311234D01*
X0180678Y0309636D02*
X0246428Y0309636D01*
X0247198Y0308037D02*
X0180678Y0308037D01*
X0180678Y0306439D02*
X0197957Y0306439D01*
X0198005Y0306553D02*
X0197578Y0305524D01*
X0197578Y0304410D01*
X0198005Y0303381D01*
X0198792Y0302593D01*
X0199822Y0302167D01*
X0200935Y0302167D01*
X0201965Y0302593D01*
X0202752Y0303381D01*
X0203178Y0304410D01*
X0203178Y0305524D01*
X0202752Y0306553D01*
X0201965Y0307340D01*
X0200935Y0307767D01*
X0199822Y0307767D01*
X0198792Y0307340D01*
X0198005Y0306553D01*
X0197578Y0304840D02*
X0180678Y0304840D01*
X0180678Y0303242D02*
X0198144Y0303242D01*
X0202613Y0303242D02*
X0204044Y0303242D01*
X0203655Y0303631D02*
X0204442Y0302843D01*
X0205472Y0302417D01*
X0206585Y0302417D01*
X0207615Y0302843D01*
X0208402Y0303631D01*
X0208828Y0304660D01*
X0208828Y0305774D01*
X0208402Y0306803D01*
X0207615Y0307590D01*
X0206585Y0308017D01*
X0205472Y0308017D01*
X0204442Y0307590D01*
X0203655Y0306803D01*
X0203228Y0305774D01*
X0203228Y0304660D01*
X0203655Y0303631D01*
X0203228Y0304840D02*
X0203178Y0304840D01*
X0203504Y0306439D02*
X0202799Y0306439D01*
X0203672Y0301717D02*
X0202642Y0301290D01*
X0201855Y0300503D01*
X0201428Y0299474D01*
X0201428Y0298360D01*
X0201855Y0297331D01*
X0202642Y0296543D01*
X0203672Y0296117D01*
X0204785Y0296117D01*
X0205815Y0296543D01*
X0206602Y0297331D01*
X0207028Y0298360D01*
X0207028Y0299474D01*
X0206602Y0300503D01*
X0205815Y0301290D01*
X0204785Y0301717D01*
X0203672Y0301717D01*
X0203494Y0301643D02*
X0183925Y0301643D01*
X0181732Y0301643D02*
X0180678Y0301643D01*
X0180678Y0296848D02*
X0181088Y0296848D01*
X0180678Y0295249D02*
X0185288Y0295249D01*
X0185455Y0295653D02*
X0185028Y0294624D01*
X0185028Y0293510D01*
X0185455Y0292481D01*
X0186242Y0291693D01*
X0187272Y0291267D01*
X0188385Y0291267D01*
X0189415Y0291693D01*
X0190202Y0292481D01*
X0190628Y0293510D01*
X0190628Y0294624D01*
X0190202Y0295653D01*
X0189415Y0296440D01*
X0188385Y0296867D01*
X0187272Y0296867D01*
X0186242Y0296440D01*
X0185455Y0295653D01*
X0184569Y0296848D02*
X0187225Y0296848D01*
X0188431Y0296848D02*
X0202338Y0296848D01*
X0201428Y0298446D02*
X0185602Y0298446D01*
X0185454Y0300045D02*
X0201665Y0300045D01*
X0204963Y0301643D02*
X0209253Y0301643D01*
X0211204Y0301643D02*
X0214082Y0301643D01*
X0215140Y0303242D02*
X0208013Y0303242D01*
X0208828Y0304840D02*
X0215118Y0304840D01*
X0216241Y0306439D02*
X0208553Y0306439D01*
X0207624Y0300045D02*
X0206792Y0300045D01*
X0207028Y0298446D02*
X0207434Y0298446D01*
X0208438Y0296848D02*
X0206119Y0296848D01*
X0212019Y0296848D02*
X0213438Y0296848D01*
X0216275Y0301643D02*
X0216363Y0301643D01*
X0220242Y0291540D02*
X0219455Y0290753D01*
X0219028Y0289724D01*
X0219028Y0288610D01*
X0219455Y0287581D01*
X0220242Y0286793D01*
X0221272Y0286367D01*
X0222385Y0286367D01*
X0223415Y0286793D01*
X0224202Y0287581D01*
X0224443Y0288162D01*
X0224705Y0287531D01*
X0225492Y0286743D01*
X0226522Y0286317D01*
X0227635Y0286317D01*
X0228665Y0286743D01*
X0229452Y0287531D01*
X0229878Y0288560D01*
X0229878Y0289674D01*
X0229452Y0290703D01*
X0228665Y0291490D01*
X0227635Y0291917D01*
X0226522Y0291917D01*
X0225492Y0291490D01*
X0224705Y0290703D01*
X0224464Y0290121D01*
X0224202Y0290753D01*
X0223415Y0291540D01*
X0222385Y0291967D01*
X0221272Y0291967D01*
X0220242Y0291540D01*
X0219331Y0290454D02*
X0180678Y0290454D01*
X0180678Y0292052D02*
X0185883Y0292052D01*
X0185028Y0293651D02*
X0180678Y0293651D01*
X0180678Y0288855D02*
X0183154Y0288855D01*
X0185603Y0288855D02*
X0193296Y0288855D01*
X0193254Y0288848D02*
X0192536Y0288615D01*
X0191863Y0288272D01*
X0191251Y0287828D01*
X0190717Y0287294D01*
X0190273Y0286682D01*
X0189930Y0286009D01*
X0189697Y0285291D01*
X0189598Y0284667D01*
X0193878Y0284667D01*
X0193878Y0283667D01*
X0189598Y0283667D01*
X0189697Y0283043D01*
X0189930Y0282324D01*
X0190273Y0281651D01*
X0190717Y0281040D01*
X0191251Y0280505D01*
X0191863Y0280061D01*
X0192536Y0279718D01*
X0193254Y0279485D01*
X0193878Y0279386D01*
X0193878Y0283667D01*
X0194878Y0283667D01*
X0194878Y0279386D01*
X0195502Y0279485D01*
X0196221Y0279718D01*
X0196894Y0280061D01*
X0197505Y0280505D01*
X0198040Y0281040D01*
X0198484Y0281651D01*
X0198827Y0282324D01*
X0199060Y0283043D01*
X0199159Y0283667D01*
X0194879Y0283667D01*
X0194879Y0284667D01*
X0199159Y0284667D01*
X0199060Y0285291D01*
X0198827Y0286009D01*
X0198484Y0286682D01*
X0198040Y0287294D01*
X0197505Y0287828D01*
X0196894Y0288272D01*
X0196221Y0288615D01*
X0195502Y0288848D01*
X0194878Y0288947D01*
X0194878Y0284667D01*
X0193878Y0284667D01*
X0193878Y0288947D01*
X0193254Y0288848D01*
X0193878Y0288855D02*
X0194878Y0288855D01*
X0195461Y0288855D02*
X0203154Y0288855D01*
X0203424Y0288967D02*
X0201659Y0288236D01*
X0200309Y0286886D01*
X0199578Y0285121D01*
X0199578Y0283212D01*
X0200309Y0281448D01*
X0201659Y0280097D01*
X0203424Y0279367D01*
X0205333Y0279367D01*
X0207097Y0280097D01*
X0208448Y0281448D01*
X0209178Y0283212D01*
X0209178Y0285121D01*
X0208448Y0286886D01*
X0207097Y0288236D01*
X0205333Y0288967D01*
X0203424Y0288967D01*
X0205603Y0288855D02*
X0219028Y0288855D01*
X0219779Y0287257D02*
X0208077Y0287257D01*
X0208956Y0285658D02*
X0292851Y0285658D01*
X0292872Y0285667D02*
X0291842Y0285240D01*
X0291055Y0284453D01*
X0290628Y0283424D01*
X0290628Y0282310D01*
X0291055Y0281281D01*
X0291842Y0280493D01*
X0292872Y0280067D01*
X0293985Y0280067D01*
X0295015Y0280493D01*
X0295802Y0281281D01*
X0296228Y0282310D01*
X0296228Y0283424D01*
X0295802Y0284453D01*
X0295015Y0285240D01*
X0293985Y0285667D01*
X0292872Y0285667D01*
X0294006Y0285658D02*
X0302078Y0285658D01*
X0302078Y0285824D02*
X0302078Y0284710D01*
X0302238Y0284324D01*
X0302135Y0284367D01*
X0301022Y0284367D01*
X0299992Y0283940D01*
X0299205Y0283153D01*
X0298778Y0282124D01*
X0298778Y0281010D01*
X0299205Y0279981D01*
X0299992Y0279193D01*
X0301022Y0278767D01*
X0302135Y0278767D01*
X0303165Y0279193D01*
X0303952Y0279981D01*
X0304378Y0281010D01*
X0304378Y0282124D01*
X0304219Y0282509D01*
X0304322Y0282467D01*
X0305435Y0282467D01*
X0306465Y0282893D01*
X0307252Y0283681D01*
X0307678Y0284710D01*
X0307678Y0285824D01*
X0307252Y0286853D01*
X0306465Y0287640D01*
X0305435Y0288067D01*
X0304322Y0288067D01*
X0303292Y0287640D01*
X0302505Y0286853D01*
X0302078Y0285824D01*
X0302909Y0287257D02*
X0293106Y0287257D01*
X0294402Y0288855D02*
X0310363Y0288855D01*
X0310394Y0290454D02*
X0296475Y0290454D01*
X0295981Y0295249D02*
X0307035Y0295249D01*
X0306678Y0296848D02*
X0291428Y0296848D01*
X0291428Y0296560D02*
X0291428Y0297674D01*
X0291002Y0298703D01*
X0290215Y0299490D01*
X0289185Y0299917D01*
X0288072Y0299917D01*
X0287042Y0299490D01*
X0286255Y0298703D01*
X0286057Y0298226D01*
X0285235Y0298567D01*
X0284122Y0298567D01*
X0283123Y0298153D01*
X0283102Y0298203D01*
X0282315Y0298990D01*
X0281285Y0299417D01*
X0280172Y0299417D01*
X0279142Y0298990D01*
X0278355Y0298203D01*
X0277928Y0297174D01*
X0277928Y0296060D01*
X0278355Y0295031D01*
X0279044Y0294342D01*
X0278755Y0294053D01*
X0278328Y0293024D01*
X0278328Y0291910D01*
X0278755Y0290881D01*
X0279542Y0290093D01*
X0280572Y0289667D01*
X0281685Y0289667D01*
X0282715Y0290093D01*
X0283502Y0290881D01*
X0283928Y0291910D01*
X0283928Y0293024D01*
X0283917Y0293051D01*
X0284122Y0292967D01*
X0285235Y0292967D01*
X0286265Y0293393D01*
X0287052Y0294181D01*
X0287250Y0294657D01*
X0288072Y0294317D01*
X0289185Y0294317D01*
X0290215Y0294743D01*
X0291002Y0295531D01*
X0291428Y0296560D01*
X0290721Y0295249D02*
X0293575Y0295249D01*
X0292135Y0293651D02*
X0286522Y0293651D01*
X0283928Y0292052D02*
X0290104Y0292052D01*
X0289003Y0290454D02*
X0283075Y0290454D01*
X0279182Y0290454D02*
X0229555Y0290454D01*
X0229878Y0288855D02*
X0289055Y0288855D01*
X0290351Y0287257D02*
X0229178Y0287257D01*
X0231192Y0283590D02*
X0230405Y0282803D01*
X0230111Y0282094D01*
X0229515Y0282690D01*
X0228485Y0283117D01*
X0227372Y0283117D01*
X0226342Y0282690D01*
X0225555Y0281903D01*
X0225128Y0280874D01*
X0225128Y0279760D01*
X0225555Y0278731D01*
X0226342Y0277943D01*
X0227372Y0277517D01*
X0228485Y0277517D01*
X0229515Y0277943D01*
X0230302Y0278731D01*
X0230596Y0279440D01*
X0231192Y0278843D01*
X0232222Y0278417D01*
X0233335Y0278417D01*
X0234365Y0278843D01*
X0235152Y0279631D01*
X0235578Y0280660D01*
X0235578Y0281774D01*
X0235152Y0282803D01*
X0234365Y0283590D01*
X0233335Y0284017D01*
X0232222Y0284017D01*
X0231192Y0283590D01*
X0230263Y0282461D02*
X0229744Y0282461D01*
X0230523Y0279264D02*
X0230771Y0279264D01*
X0228845Y0277665D02*
X0255128Y0277665D01*
X0255128Y0277210D02*
X0255555Y0276181D01*
X0256342Y0275393D01*
X0257372Y0274967D01*
X0258485Y0274967D01*
X0259515Y0275393D01*
X0259564Y0275443D01*
X0259328Y0274874D01*
X0259328Y0273760D01*
X0259755Y0272731D01*
X0260542Y0271943D01*
X0261572Y0271517D01*
X0262685Y0271517D01*
X0263715Y0271943D01*
X0264502Y0272731D01*
X0264928Y0273760D01*
X0264928Y0274874D01*
X0264502Y0275903D01*
X0263715Y0276690D01*
X0262685Y0277117D01*
X0261572Y0277117D01*
X0260542Y0276690D01*
X0260493Y0276641D01*
X0260728Y0277210D01*
X0260728Y0278324D01*
X0260302Y0279353D01*
X0259515Y0280140D01*
X0258485Y0280567D01*
X0257372Y0280567D01*
X0256342Y0280140D01*
X0255555Y0279353D01*
X0255128Y0278324D01*
X0255128Y0277210D01*
X0255668Y0276067D02*
X0208787Y0276067D01*
X0208448Y0276886D02*
X0207097Y0278236D01*
X0205333Y0278967D01*
X0203424Y0278967D01*
X0201659Y0278236D01*
X0200309Y0276886D01*
X0199578Y0275121D01*
X0199578Y0273212D01*
X0200309Y0271448D01*
X0201659Y0270097D01*
X0203424Y0269367D01*
X0205333Y0269367D01*
X0207097Y0270097D01*
X0208448Y0271448D01*
X0209178Y0273212D01*
X0209178Y0275121D01*
X0208448Y0276886D01*
X0207668Y0277665D02*
X0227012Y0277665D01*
X0225334Y0279264D02*
X0224536Y0279264D01*
X0224652Y0279381D02*
X0225078Y0280410D01*
X0225078Y0281524D01*
X0224652Y0282553D01*
X0223865Y0283340D01*
X0222835Y0283767D01*
X0221722Y0283767D01*
X0220692Y0283340D01*
X0219905Y0282553D01*
X0219478Y0281524D01*
X0219478Y0280410D01*
X0219905Y0279381D01*
X0220692Y0278593D01*
X0221722Y0278167D01*
X0222835Y0278167D01*
X0223865Y0278593D01*
X0224652Y0279381D01*
X0225078Y0280862D02*
X0225128Y0280862D01*
X0224690Y0282461D02*
X0226113Y0282461D01*
X0224979Y0287257D02*
X0223878Y0287257D01*
X0224326Y0290454D02*
X0224602Y0290454D01*
X0219867Y0282461D02*
X0208867Y0282461D01*
X0209178Y0284060D02*
X0277238Y0284060D01*
X0277192Y0284040D02*
X0278222Y0284467D01*
X0279335Y0284467D01*
X0280365Y0284040D01*
X0281152Y0283253D01*
X0281387Y0282685D01*
X0281492Y0282790D01*
X0282522Y0283217D01*
X0283635Y0283217D01*
X0284665Y0282790D01*
X0285452Y0282003D01*
X0285878Y0280974D01*
X0285878Y0279860D01*
X0285452Y0278831D01*
X0284665Y0278043D01*
X0283635Y0277617D01*
X0282522Y0277617D01*
X0281492Y0278043D01*
X0280705Y0278831D01*
X0280470Y0279398D01*
X0280365Y0279293D01*
X0279335Y0278867D01*
X0278222Y0278867D01*
X0277192Y0279293D01*
X0276405Y0280081D01*
X0275978Y0281110D01*
X0275978Y0282224D01*
X0276405Y0283253D01*
X0277192Y0284040D01*
X0276077Y0282461D02*
X0244644Y0282461D01*
X0244852Y0282253D02*
X0244065Y0283040D01*
X0243035Y0283467D01*
X0241922Y0283467D01*
X0240892Y0283040D01*
X0240105Y0282253D01*
X0239678Y0281224D01*
X0239678Y0280110D01*
X0240105Y0279081D01*
X0240892Y0278293D01*
X0241922Y0277867D01*
X0243035Y0277867D01*
X0244065Y0278293D01*
X0244852Y0279081D01*
X0245278Y0280110D01*
X0245278Y0281224D01*
X0244852Y0282253D01*
X0245278Y0280862D02*
X0276081Y0280862D01*
X0277262Y0279264D02*
X0260339Y0279264D01*
X0260728Y0277665D02*
X0282404Y0277665D01*
X0283753Y0277665D02*
X0306928Y0277665D01*
X0306928Y0277260D02*
X0307355Y0276231D01*
X0308142Y0275443D01*
X0309172Y0275017D01*
X0310285Y0275017D01*
X0311315Y0275443D01*
X0312102Y0276231D01*
X0312528Y0277260D01*
X0312528Y0278374D01*
X0312102Y0279403D01*
X0311315Y0280190D01*
X0310285Y0280617D01*
X0309172Y0280617D01*
X0308142Y0280190D01*
X0307355Y0279403D01*
X0306928Y0278374D01*
X0306928Y0277260D01*
X0307518Y0276067D02*
X0274788Y0276067D01*
X0274415Y0276440D02*
X0273385Y0276867D01*
X0272272Y0276867D01*
X0271242Y0276440D01*
X0270455Y0275653D01*
X0270028Y0274624D01*
X0270028Y0273510D01*
X0270455Y0272481D01*
X0271242Y0271693D01*
X0272272Y0271267D01*
X0273385Y0271267D01*
X0274415Y0271693D01*
X0275202Y0272481D01*
X0275628Y0273510D01*
X0275628Y0274624D01*
X0275202Y0275653D01*
X0274415Y0276440D01*
X0275628Y0274468D02*
X0289820Y0274468D01*
X0290042Y0274690D02*
X0289255Y0273903D01*
X0289090Y0273504D01*
X0288335Y0273817D01*
X0287222Y0273817D01*
X0286192Y0273390D01*
X0285405Y0272603D01*
X0284978Y0271574D01*
X0284978Y0270460D01*
X0285405Y0269431D01*
X0286192Y0268643D01*
X0287222Y0268217D01*
X0288335Y0268217D01*
X0289365Y0268643D01*
X0290152Y0269431D01*
X0290317Y0269829D01*
X0291072Y0269517D01*
X0292185Y0269517D01*
X0293215Y0269943D01*
X0294002Y0270731D01*
X0294428Y0271760D01*
X0294428Y0272874D01*
X0294002Y0273903D01*
X0293215Y0274690D01*
X0292185Y0275117D01*
X0291072Y0275117D01*
X0290042Y0274690D01*
X0293437Y0274468D02*
X0319449Y0274468D01*
X0319662Y0274982D02*
X0319147Y0273739D01*
X0319147Y0272394D01*
X0319662Y0271151D01*
X0320247Y0270567D01*
X0319662Y0269982D01*
X0319147Y0268739D01*
X0319147Y0267394D01*
X0319662Y0266151D01*
X0320247Y0265567D01*
X0319662Y0264982D01*
X0319147Y0263739D01*
X0319147Y0262394D01*
X0319662Y0261151D01*
X0320247Y0260567D01*
X0319662Y0259982D01*
X0319147Y0258739D01*
X0319147Y0257394D01*
X0319662Y0256151D01*
X0320613Y0255200D01*
X0321856Y0254686D01*
X0323201Y0254686D01*
X0324444Y0255200D01*
X0325028Y0255785D01*
X0325373Y0255440D01*
X0325927Y0255070D01*
X0326542Y0254816D01*
X0327195Y0254686D01*
X0327528Y0254686D01*
X0327528Y0258067D01*
X0327529Y0258067D01*
X0327529Y0254686D01*
X0327861Y0254686D01*
X0328515Y0254816D01*
X0329130Y0255070D01*
X0329424Y0255267D01*
X0329605Y0254831D01*
X0330392Y0254043D01*
X0331422Y0253617D01*
X0332535Y0253617D01*
X0333565Y0254043D01*
X0334352Y0254831D01*
X0334778Y0255860D01*
X0334778Y0256974D01*
X0334352Y0258003D01*
X0333565Y0258790D01*
X0332535Y0259217D01*
X0331422Y0259217D01*
X0330798Y0258959D01*
X0330780Y0259053D01*
X0330525Y0259668D01*
X0330155Y0260222D01*
X0329810Y0260567D01*
X0330395Y0261151D01*
X0330910Y0262394D01*
X0330910Y0263739D01*
X0330395Y0264982D01*
X0329810Y0265567D01*
X0330395Y0266151D01*
X0330910Y0267394D01*
X0330910Y0268739D01*
X0330395Y0269982D01*
X0329810Y0270567D01*
X0330395Y0271151D01*
X0330910Y0272394D01*
X0330910Y0273739D01*
X0330395Y0274982D01*
X0329810Y0275567D01*
X0330395Y0276151D01*
X0330910Y0277394D01*
X0330910Y0278739D01*
X0330395Y0279982D01*
X0329444Y0280933D01*
X0328201Y0281448D01*
X0326856Y0281448D01*
X0325613Y0280933D01*
X0325028Y0280348D01*
X0324444Y0280933D01*
X0323201Y0281448D01*
X0321856Y0281448D01*
X0320613Y0280933D01*
X0319662Y0279982D01*
X0319147Y0278739D01*
X0319147Y0277394D01*
X0319662Y0276151D01*
X0320247Y0275567D01*
X0319662Y0274982D01*
X0319747Y0276067D02*
X0311939Y0276067D01*
X0312528Y0277665D02*
X0319147Y0277665D01*
X0319365Y0279264D02*
X0312160Y0279264D01*
X0307297Y0279264D02*
X0303236Y0279264D01*
X0304317Y0280862D02*
X0320543Y0280862D01*
X0324514Y0280862D02*
X0325543Y0280862D01*
X0329514Y0280862D02*
X0375078Y0280862D01*
X0375078Y0279264D02*
X0374587Y0279264D01*
X0371770Y0279264D02*
X0344041Y0279264D01*
X0344202Y0279103D02*
X0343415Y0279890D01*
X0342385Y0280317D01*
X0341272Y0280317D01*
X0340242Y0279890D01*
X0339455Y0279103D01*
X0339028Y0278074D01*
X0339028Y0276960D01*
X0339455Y0275931D01*
X0340242Y0275143D01*
X0341272Y0274717D01*
X0342385Y0274717D01*
X0343415Y0275143D01*
X0344202Y0275931D01*
X0344628Y0276960D01*
X0344628Y0278074D01*
X0344202Y0279103D01*
X0344628Y0277665D02*
X0370499Y0277665D01*
X0370458Y0276067D02*
X0344259Y0276067D01*
X0339398Y0276067D02*
X0330310Y0276067D01*
X0330608Y0274468D02*
X0371270Y0274468D01*
X0370478Y0272870D02*
X0330910Y0272870D01*
X0330445Y0271271D02*
X0370764Y0271271D01*
X0375078Y0269673D02*
X0330523Y0269673D01*
X0330910Y0268074D02*
X0333476Y0268074D01*
X0333355Y0267953D02*
X0332928Y0266924D01*
X0332928Y0265810D01*
X0333355Y0264781D01*
X0334142Y0263993D01*
X0335172Y0263567D01*
X0336285Y0263567D01*
X0337315Y0263993D01*
X0338102Y0264781D01*
X0338528Y0265810D01*
X0338528Y0266924D01*
X0338102Y0267953D01*
X0337315Y0268740D01*
X0336285Y0269167D01*
X0335172Y0269167D01*
X0334142Y0268740D01*
X0333355Y0267953D01*
X0332928Y0266476D02*
X0330529Y0266476D01*
X0330438Y0264877D02*
X0333315Y0264877D01*
X0330910Y0263279D02*
X0375078Y0263279D01*
X0375078Y0264877D02*
X0338142Y0264877D01*
X0338528Y0266476D02*
X0375078Y0266476D01*
X0375078Y0268074D02*
X0337981Y0268074D01*
X0330614Y0261680D02*
X0371822Y0261680D01*
X0373835Y0261680D02*
X0375078Y0261680D01*
X0370218Y0260082D02*
X0350923Y0260082D01*
X0350715Y0260290D02*
X0349685Y0260717D01*
X0348572Y0260717D01*
X0347542Y0260290D01*
X0346755Y0259503D01*
X0346328Y0258474D01*
X0346328Y0257360D01*
X0346755Y0256331D01*
X0347542Y0255543D01*
X0348572Y0255117D01*
X0349685Y0255117D01*
X0350715Y0255543D01*
X0351502Y0256331D01*
X0351928Y0257360D01*
X0351928Y0258474D01*
X0351502Y0259503D01*
X0350715Y0260290D01*
X0351924Y0258483D02*
X0370039Y0258483D01*
X0371051Y0256885D02*
X0351732Y0256885D01*
X0350095Y0255286D02*
X0375078Y0255286D01*
X0375078Y0253688D02*
X0332707Y0253688D01*
X0331250Y0253688D02*
X0314558Y0253688D01*
X0314552Y0253703D02*
X0313765Y0254490D01*
X0312735Y0254917D01*
X0311622Y0254917D01*
X0310592Y0254490D01*
X0309805Y0253703D01*
X0309378Y0252674D01*
X0309378Y0251560D01*
X0309805Y0250531D01*
X0310592Y0249743D01*
X0311622Y0249317D01*
X0312735Y0249317D01*
X0313765Y0249743D01*
X0314552Y0250531D01*
X0314978Y0251560D01*
X0314978Y0252674D01*
X0314552Y0253703D01*
X0314978Y0252089D02*
X0375078Y0252089D01*
X0375015Y0247294D02*
X0375078Y0247294D01*
X0375078Y0245695D02*
X0252208Y0245695D01*
X0252035Y0245767D02*
X0250922Y0245767D01*
X0249892Y0245340D01*
X0249105Y0244553D01*
X0248678Y0243524D01*
X0248678Y0242410D01*
X0249105Y0241381D01*
X0249892Y0240593D01*
X0250177Y0240475D01*
X0250105Y0240403D01*
X0249678Y0239374D01*
X0249678Y0238260D01*
X0250105Y0237231D01*
X0250892Y0236443D01*
X0251922Y0236017D01*
X0252978Y0236017D01*
X0252978Y0235960D01*
X0253405Y0234931D01*
X0254192Y0234143D01*
X0255222Y0233717D01*
X0256335Y0233717D01*
X0257365Y0234143D01*
X0258152Y0234931D01*
X0258578Y0235960D01*
X0258578Y0237074D01*
X0258152Y0238103D01*
X0257365Y0238890D01*
X0256566Y0239221D01*
X0257465Y0239593D01*
X0258252Y0240381D01*
X0258678Y0241410D01*
X0258678Y0242524D01*
X0258252Y0243553D01*
X0257465Y0244340D01*
X0256435Y0244767D01*
X0255322Y0244767D01*
X0254292Y0244340D01*
X0254043Y0244091D01*
X0253852Y0244553D01*
X0253065Y0245340D01*
X0252035Y0245767D01*
X0250749Y0245695D02*
X0210160Y0245695D01*
X0210202Y0245653D02*
X0209415Y0246440D01*
X0208385Y0246867D01*
X0207272Y0246867D01*
X0206242Y0246440D01*
X0205455Y0245653D01*
X0205028Y0244624D01*
X0205028Y0243510D01*
X0205455Y0242481D01*
X0206242Y0241693D01*
X0207272Y0241267D01*
X0208385Y0241267D01*
X0209415Y0241693D01*
X0210202Y0242481D01*
X0210628Y0243510D01*
X0210628Y0244624D01*
X0210202Y0245653D01*
X0210628Y0244097D02*
X0233399Y0244097D01*
X0233592Y0244290D02*
X0232805Y0243503D01*
X0232378Y0242474D01*
X0232378Y0241360D01*
X0232805Y0240331D01*
X0233592Y0239543D01*
X0234622Y0239117D01*
X0235735Y0239117D01*
X0236765Y0239543D01*
X0237552Y0240331D01*
X0237978Y0241360D01*
X0237978Y0242474D01*
X0237552Y0243503D01*
X0236765Y0244290D01*
X0235735Y0244717D01*
X0234622Y0244717D01*
X0233592Y0244290D01*
X0232389Y0242498D02*
X0210209Y0242498D01*
X0205447Y0242498D02*
X0200209Y0242498D01*
X0200202Y0242481D02*
X0200628Y0243510D01*
X0200628Y0244624D01*
X0200202Y0245653D01*
X0199415Y0246440D01*
X0198385Y0246867D01*
X0197272Y0246867D01*
X0196242Y0246440D01*
X0195455Y0245653D01*
X0195028Y0244624D01*
X0195028Y0243510D01*
X0195455Y0242481D01*
X0196242Y0241693D01*
X0197272Y0241267D01*
X0198385Y0241267D01*
X0199415Y0241693D01*
X0200202Y0242481D01*
X0200628Y0244097D02*
X0205028Y0244097D01*
X0205497Y0245695D02*
X0200160Y0245695D01*
X0195497Y0245695D02*
X0185160Y0245695D01*
X0185015Y0247294D02*
X0370642Y0247294D01*
X0370028Y0248892D02*
X0185628Y0248892D01*
X0185269Y0250491D02*
X0309845Y0250491D01*
X0309378Y0252089D02*
X0269811Y0252089D01*
X0270202Y0252481D02*
X0270628Y0253510D01*
X0270628Y0254624D01*
X0270202Y0255653D01*
X0269415Y0256440D01*
X0268385Y0256867D01*
X0267272Y0256867D01*
X0266242Y0256440D01*
X0265455Y0255653D01*
X0265028Y0254624D01*
X0265028Y0253510D01*
X0265455Y0252481D01*
X0266242Y0251693D01*
X0267272Y0251267D01*
X0268385Y0251267D01*
X0269415Y0251693D01*
X0270202Y0252481D01*
X0270628Y0253688D02*
X0309799Y0253688D01*
X0314512Y0250491D02*
X0370388Y0250491D01*
X0374606Y0256885D02*
X0375078Y0256885D01*
X0375078Y0244097D02*
X0317766Y0244097D01*
X0318265Y0243890D02*
X0317235Y0244317D01*
X0316122Y0244317D01*
X0315092Y0243890D01*
X0314305Y0243103D01*
X0314055Y0242500D01*
X0313565Y0242990D01*
X0312535Y0243417D01*
X0311422Y0243417D01*
X0310392Y0242990D01*
X0310026Y0242624D01*
X0309952Y0242803D01*
X0309165Y0243590D01*
X0308135Y0244017D01*
X0307022Y0244017D01*
X0305992Y0243590D01*
X0305205Y0242803D01*
X0304778Y0241774D01*
X0304778Y0240660D01*
X0305205Y0239631D01*
X0305992Y0238843D01*
X0307022Y0238417D01*
X0308135Y0238417D01*
X0309165Y0238843D01*
X0309531Y0239209D01*
X0309605Y0239031D01*
X0310392Y0238243D01*
X0311422Y0237817D01*
X0312535Y0237817D01*
X0313565Y0238243D01*
X0314352Y0239031D01*
X0314602Y0239633D01*
X0315092Y0239143D01*
X0316122Y0238717D01*
X0317235Y0238717D01*
X0318265Y0239143D01*
X0319052Y0239931D01*
X0319478Y0240960D01*
X0319478Y0242074D01*
X0319052Y0243103D01*
X0318265Y0243890D01*
X0319303Y0242498D02*
X0347622Y0242498D01*
X0347059Y0241936D02*
X0346328Y0240171D01*
X0346328Y0238262D01*
X0347059Y0236498D01*
X0348409Y0235147D01*
X0350174Y0234417D01*
X0352083Y0234417D01*
X0353847Y0235147D01*
X0355198Y0236498D01*
X0355928Y0238262D01*
X0355928Y0240171D01*
X0355198Y0241936D01*
X0353847Y0243286D01*
X0352083Y0244017D01*
X0350174Y0244017D01*
X0348409Y0243286D01*
X0347059Y0241936D01*
X0346630Y0240900D02*
X0319454Y0240900D01*
X0320222Y0239167D02*
X0319192Y0238740D01*
X0318405Y0237953D01*
X0318301Y0237703D01*
X0318065Y0237940D01*
X0317035Y0238367D01*
X0315922Y0238367D01*
X0314892Y0237940D01*
X0314105Y0237153D01*
X0313678Y0236124D01*
X0313678Y0235010D01*
X0314105Y0233981D01*
X0314892Y0233193D01*
X0315922Y0232767D01*
X0317035Y0232767D01*
X0318065Y0233193D01*
X0318852Y0233981D01*
X0318955Y0234230D01*
X0319192Y0233993D01*
X0320222Y0233567D01*
X0321335Y0233567D01*
X0322365Y0233993D01*
X0323152Y0234781D01*
X0323578Y0235810D01*
X0323578Y0236924D01*
X0323152Y0237953D01*
X0322365Y0238740D01*
X0321335Y0239167D01*
X0320222Y0239167D01*
X0318423Y0239301D02*
X0346328Y0239301D01*
X0346560Y0237703D02*
X0323256Y0237703D01*
X0323578Y0236104D02*
X0347453Y0236104D01*
X0349959Y0234506D02*
X0322877Y0234506D01*
X0322372Y0232367D02*
X0321342Y0231940D01*
X0320555Y0231153D01*
X0320128Y0230124D01*
X0320128Y0229010D01*
X0320555Y0227981D01*
X0321342Y0227193D01*
X0322372Y0226767D01*
X0323485Y0226767D01*
X0324225Y0227073D01*
X0323455Y0226303D01*
X0323028Y0225274D01*
X0323028Y0224160D01*
X0323455Y0223131D01*
X0324242Y0222343D01*
X0325272Y0221917D01*
X0326385Y0221917D01*
X0327415Y0222343D01*
X0328202Y0223131D01*
X0328628Y0224160D01*
X0328628Y0225274D01*
X0328202Y0226303D01*
X0327415Y0227090D01*
X0326385Y0227517D01*
X0325272Y0227517D01*
X0324532Y0227210D01*
X0325302Y0227981D01*
X0325728Y0229010D01*
X0325728Y0230124D01*
X0325302Y0231153D01*
X0324515Y0231940D01*
X0323485Y0232367D01*
X0322372Y0232367D01*
X0320711Y0231309D02*
X0303797Y0231309D01*
X0303702Y0231081D02*
X0304128Y0232110D01*
X0304128Y0233224D01*
X0303702Y0234253D01*
X0302915Y0235040D01*
X0301885Y0235467D01*
X0300772Y0235467D01*
X0299742Y0235040D01*
X0298955Y0234253D01*
X0298528Y0233224D01*
X0298528Y0232110D01*
X0298955Y0231081D01*
X0299742Y0230293D01*
X0300772Y0229867D01*
X0301885Y0229867D01*
X0302915Y0230293D01*
X0303702Y0231081D01*
X0304128Y0232907D02*
X0315582Y0232907D01*
X0317374Y0232907D02*
X0348031Y0232907D01*
X0348409Y0233286D02*
X0347059Y0231936D01*
X0346328Y0230171D01*
X0346328Y0228262D01*
X0347059Y0226498D01*
X0348409Y0225147D01*
X0350174Y0224417D01*
X0352083Y0224417D01*
X0353847Y0225147D01*
X0355198Y0226498D01*
X0355928Y0228262D01*
X0355928Y0230171D01*
X0355198Y0231936D01*
X0353847Y0233286D01*
X0352083Y0234017D01*
X0350174Y0234017D01*
X0348409Y0233286D01*
X0346800Y0231309D02*
X0325146Y0231309D01*
X0325728Y0229710D02*
X0346328Y0229710D01*
X0346391Y0228112D02*
X0325356Y0228112D01*
X0323665Y0226513D02*
X0259278Y0226513D01*
X0259278Y0226060D02*
X0258852Y0225031D01*
X0258065Y0224243D01*
X0257035Y0223817D01*
X0255922Y0223817D01*
X0254892Y0224243D01*
X0254105Y0225031D01*
X0253678Y0226060D01*
X0253678Y0227174D01*
X0254105Y0228203D01*
X0254892Y0228990D01*
X0255922Y0229417D01*
X0257035Y0229417D01*
X0258065Y0228990D01*
X0258852Y0228203D01*
X0259278Y0227174D01*
X0259278Y0226060D01*
X0258736Y0224915D02*
X0323028Y0224915D01*
X0323378Y0223316D02*
X0235989Y0223316D01*
X0236678Y0221718D02*
X0346827Y0221718D01*
X0346959Y0222036D02*
X0346228Y0220271D01*
X0346228Y0218362D01*
X0346959Y0216598D01*
X0348309Y0215247D01*
X0350074Y0214517D01*
X0351983Y0214517D01*
X0353747Y0215247D01*
X0355098Y0216598D01*
X0355828Y0218362D01*
X0355828Y0220271D01*
X0355098Y0222036D01*
X0353747Y0223386D01*
X0351983Y0224117D01*
X0350074Y0224117D01*
X0348309Y0223386D01*
X0346959Y0222036D01*
X0348240Y0223316D02*
X0328279Y0223316D01*
X0328628Y0224915D02*
X0348972Y0224915D01*
X0347053Y0226513D02*
X0327992Y0226513D01*
X0320500Y0228112D02*
X0258890Y0228112D01*
X0254067Y0228112D02*
X0208428Y0228112D01*
X0208428Y0228624D02*
X0208002Y0229653D01*
X0207215Y0230440D01*
X0206185Y0230867D01*
X0205072Y0230867D01*
X0204042Y0230440D01*
X0203255Y0229653D01*
X0202828Y0228624D01*
X0202828Y0227510D01*
X0203255Y0226481D01*
X0204042Y0225693D01*
X0205072Y0225267D01*
X0206185Y0225267D01*
X0207215Y0225693D01*
X0208002Y0226481D01*
X0208428Y0227510D01*
X0208428Y0228624D01*
X0207945Y0229710D02*
X0269325Y0229710D01*
X0269542Y0229493D02*
X0270572Y0229067D01*
X0271685Y0229067D01*
X0272715Y0229493D01*
X0273502Y0230281D01*
X0273928Y0231310D01*
X0273928Y0232424D01*
X0273502Y0233453D01*
X0272715Y0234240D01*
X0271685Y0234667D01*
X0270572Y0234667D01*
X0269542Y0234240D01*
X0268755Y0233453D01*
X0268328Y0232424D01*
X0268328Y0231310D01*
X0268755Y0230281D01*
X0269542Y0229493D01*
X0268329Y0231309D02*
X0218487Y0231309D01*
X0218385Y0231267D02*
X0219415Y0231693D01*
X0220202Y0232481D01*
X0220628Y0233510D01*
X0220628Y0234624D01*
X0220202Y0235653D01*
X0219415Y0236440D01*
X0218385Y0236867D01*
X0217272Y0236867D01*
X0216242Y0236440D01*
X0215455Y0235653D01*
X0215028Y0234624D01*
X0215028Y0233510D01*
X0215455Y0232481D01*
X0216242Y0231693D01*
X0217272Y0231267D01*
X0218385Y0231267D01*
X0217170Y0231309D02*
X0202128Y0231309D01*
X0202128Y0231374D02*
X0201702Y0232403D01*
X0200915Y0233190D01*
X0199885Y0233617D01*
X0198772Y0233617D01*
X0197742Y0233190D01*
X0196955Y0232403D01*
X0196528Y0231374D01*
X0196528Y0230260D01*
X0196955Y0229231D01*
X0197742Y0228443D01*
X0198772Y0228017D01*
X0199885Y0228017D01*
X0200915Y0228443D01*
X0201702Y0229231D01*
X0202128Y0230260D01*
X0202128Y0231374D01*
X0201901Y0229710D02*
X0203312Y0229710D01*
X0202828Y0228112D02*
X0200115Y0228112D01*
X0198542Y0228112D02*
X0184128Y0228112D01*
X0183923Y0226513D02*
X0190142Y0226513D01*
X0190272Y0226567D02*
X0189242Y0226140D01*
X0188455Y0225353D01*
X0188028Y0224324D01*
X0188028Y0223210D01*
X0188455Y0222181D01*
X0189242Y0221393D01*
X0190272Y0220967D01*
X0191385Y0220967D01*
X0192415Y0221393D01*
X0193202Y0222181D01*
X0193628Y0223210D01*
X0193628Y0224324D01*
X0193202Y0225353D01*
X0192415Y0226140D01*
X0191385Y0226567D01*
X0190272Y0226567D01*
X0191515Y0226513D02*
X0203241Y0226513D01*
X0206505Y0224303D02*
X0206078Y0223274D01*
X0206078Y0222160D01*
X0206505Y0221131D01*
X0207292Y0220343D01*
X0208322Y0219917D01*
X0209435Y0219917D01*
X0210465Y0220343D01*
X0211252Y0221131D01*
X0211678Y0222160D01*
X0211678Y0223274D01*
X0211252Y0224303D01*
X0210465Y0225090D01*
X0209435Y0225517D01*
X0208322Y0225517D01*
X0207292Y0225090D01*
X0206505Y0224303D01*
X0207117Y0224915D02*
X0193384Y0224915D01*
X0193628Y0223316D02*
X0206096Y0223316D01*
X0206262Y0221718D02*
X0192739Y0221718D01*
X0194092Y0219590D02*
X0193305Y0218803D01*
X0192878Y0217774D01*
X0192878Y0216660D01*
X0193305Y0215631D01*
X0194092Y0214843D01*
X0195122Y0214417D01*
X0196235Y0214417D01*
X0197265Y0214843D01*
X0198052Y0215631D01*
X0198478Y0216660D01*
X0198478Y0217774D01*
X0198052Y0218803D01*
X0197265Y0219590D01*
X0196235Y0220017D01*
X0195122Y0220017D01*
X0194092Y0219590D01*
X0193188Y0218521D02*
X0188542Y0218521D01*
X0188615Y0218490D02*
X0187585Y0218917D01*
X0186472Y0218917D01*
X0185442Y0218490D01*
X0184655Y0217703D01*
X0184228Y0216674D01*
X0184228Y0215560D01*
X0184655Y0214531D01*
X0185442Y0213743D01*
X0186472Y0213317D01*
X0187585Y0213317D01*
X0188615Y0213743D01*
X0189402Y0214531D01*
X0189828Y0215560D01*
X0189828Y0216674D01*
X0189402Y0217703D01*
X0188615Y0218490D01*
X0189726Y0216922D02*
X0192878Y0216922D01*
X0193612Y0215324D02*
X0189731Y0215324D01*
X0188571Y0213725D02*
X0231078Y0213725D01*
X0231403Y0212127D02*
X0183348Y0212127D01*
X0183961Y0210528D02*
X0188780Y0210528D01*
X0188505Y0210253D02*
X0188078Y0209224D01*
X0188078Y0208110D01*
X0188505Y0207081D01*
X0189292Y0206293D01*
X0190322Y0205867D01*
X0191435Y0205867D01*
X0192465Y0206293D01*
X0193252Y0207081D01*
X0193678Y0208110D01*
X0193678Y0209224D01*
X0193252Y0210253D01*
X0192465Y0211040D01*
X0191435Y0211467D01*
X0190322Y0211467D01*
X0189292Y0211040D01*
X0188505Y0210253D01*
X0188078Y0208929D02*
X0184095Y0208929D01*
X0183053Y0207331D02*
X0188401Y0207331D01*
X0184083Y0205732D02*
X0237078Y0205732D01*
X0237400Y0204134D02*
X0234072Y0204134D01*
X0234002Y0204303D02*
X0233215Y0205090D01*
X0232185Y0205517D01*
X0231072Y0205517D01*
X0230042Y0205090D01*
X0229255Y0204303D01*
X0228828Y0203274D01*
X0228828Y0202160D01*
X0229255Y0201131D01*
X0230042Y0200343D01*
X0231072Y0199917D01*
X0232185Y0199917D01*
X0233215Y0200343D01*
X0234002Y0201131D01*
X0234428Y0202160D01*
X0234428Y0203274D01*
X0234002Y0204303D01*
X0234428Y0202535D02*
X0237394Y0202535D01*
X0237078Y0200937D02*
X0233808Y0200937D01*
X0232040Y0199338D02*
X0202610Y0199338D01*
X0202565Y0199293D02*
X0203352Y0200081D01*
X0203778Y0201110D01*
X0203778Y0202224D01*
X0203352Y0203253D01*
X0202565Y0204040D01*
X0201535Y0204467D01*
X0200422Y0204467D01*
X0199392Y0204040D01*
X0198605Y0203253D01*
X0198178Y0202224D01*
X0198178Y0201110D01*
X0198605Y0200081D01*
X0199392Y0199293D01*
X0200422Y0198867D01*
X0201535Y0198867D01*
X0202565Y0199293D01*
X0203707Y0200937D02*
X0229448Y0200937D01*
X0228828Y0202535D02*
X0203649Y0202535D01*
X0202339Y0204134D02*
X0229185Y0204134D01*
X0235717Y0199338D02*
X0236040Y0199338D01*
X0236360Y0194543D02*
X0237017Y0194543D01*
X0236678Y0192944D02*
X0243845Y0192944D01*
X0244009Y0192548D02*
X0243278Y0194312D01*
X0243278Y0196221D01*
X0244009Y0197986D01*
X0245359Y0199336D01*
X0247124Y0200067D01*
X0249033Y0200067D01*
X0250797Y0199336D01*
X0252148Y0197986D01*
X0252878Y0196221D01*
X0252878Y0194312D01*
X0252148Y0192548D01*
X0250797Y0191197D01*
X0249033Y0190467D01*
X0247124Y0190467D01*
X0245359Y0191197D01*
X0244009Y0192548D01*
X0245211Y0191346D02*
X0235967Y0191346D01*
X0236678Y0189747D02*
X0246353Y0189747D01*
X0247124Y0190067D02*
X0245359Y0189336D01*
X0244009Y0187986D01*
X0243278Y0186221D01*
X0243278Y0184312D01*
X0244009Y0182548D01*
X0245359Y0181197D01*
X0247124Y0180467D01*
X0249033Y0180467D01*
X0250797Y0181197D01*
X0252148Y0182548D01*
X0252878Y0184312D01*
X0252878Y0186221D01*
X0252148Y0187986D01*
X0250797Y0189336D01*
X0249033Y0190067D01*
X0247124Y0190067D01*
X0249804Y0189747D02*
X0256353Y0189747D01*
X0257124Y0190067D02*
X0255359Y0189336D01*
X0254009Y0187986D01*
X0253278Y0186221D01*
X0253278Y0184312D01*
X0254009Y0182548D01*
X0255359Y0181197D01*
X0257124Y0180467D01*
X0259033Y0180467D01*
X0260797Y0181197D01*
X0262148Y0182548D01*
X0262878Y0184312D01*
X0262878Y0186221D01*
X0262148Y0187986D01*
X0260797Y0189336D01*
X0259033Y0190067D01*
X0257124Y0190067D01*
X0257124Y0190467D02*
X0259033Y0190467D01*
X0260797Y0191197D01*
X0262148Y0192548D01*
X0262878Y0194312D01*
X0262878Y0196221D01*
X0262148Y0197986D01*
X0260797Y0199336D01*
X0259033Y0200067D01*
X0257124Y0200067D01*
X0255359Y0199336D01*
X0254009Y0197986D01*
X0253278Y0196221D01*
X0253278Y0194312D01*
X0254009Y0192548D01*
X0255359Y0191197D01*
X0257124Y0190467D01*
X0255211Y0191346D02*
X0250946Y0191346D01*
X0252312Y0192944D02*
X0253845Y0192944D01*
X0253278Y0194543D02*
X0252878Y0194543D01*
X0252878Y0196141D02*
X0253278Y0196141D01*
X0253907Y0197740D02*
X0252250Y0197740D01*
X0250791Y0199338D02*
X0255365Y0199338D01*
X0260791Y0199338D02*
X0265365Y0199338D01*
X0265359Y0199336D02*
X0264009Y0197986D01*
X0263278Y0196221D01*
X0263278Y0194312D01*
X0264009Y0192548D01*
X0265359Y0191197D01*
X0267124Y0190467D01*
X0269033Y0190467D01*
X0270797Y0191197D01*
X0272148Y0192548D01*
X0272878Y0194312D01*
X0272878Y0196221D01*
X0272148Y0197986D01*
X0270797Y0199336D01*
X0269033Y0200067D01*
X0267124Y0200067D01*
X0265359Y0199336D01*
X0263907Y0197740D02*
X0262250Y0197740D01*
X0262878Y0196141D02*
X0263278Y0196141D01*
X0263278Y0194543D02*
X0262878Y0194543D01*
X0262312Y0192944D02*
X0263845Y0192944D01*
X0265211Y0191346D02*
X0260946Y0191346D01*
X0259804Y0189747D02*
X0266353Y0189747D01*
X0267124Y0190067D02*
X0265359Y0189336D01*
X0264009Y0187986D01*
X0263278Y0186221D01*
X0263278Y0184312D01*
X0264009Y0182548D01*
X0265359Y0181197D01*
X0267124Y0180467D01*
X0269033Y0180467D01*
X0270797Y0181197D01*
X0272148Y0182548D01*
X0272878Y0184312D01*
X0272878Y0186221D01*
X0272148Y0187986D01*
X0270797Y0189336D01*
X0269033Y0190067D01*
X0267124Y0190067D01*
X0269804Y0189747D02*
X0367249Y0189747D01*
X0367389Y0189887D02*
X0366103Y0188601D01*
X0365407Y0186921D01*
X0365407Y0185102D01*
X0366103Y0183422D01*
X0367389Y0182136D01*
X0369069Y0181440D01*
X0370888Y0181440D01*
X0372568Y0182136D01*
X0373854Y0183422D01*
X0374550Y0185102D01*
X0374550Y0186921D01*
X0373854Y0188601D01*
X0372568Y0189887D01*
X0370888Y0190583D01*
X0369069Y0190583D01*
X0367389Y0189887D01*
X0365916Y0188149D02*
X0271985Y0188149D01*
X0272742Y0186550D02*
X0365407Y0186550D01*
X0365469Y0184952D02*
X0272878Y0184952D01*
X0272481Y0183353D02*
X0337055Y0183353D01*
X0337005Y0183303D02*
X0336578Y0182274D01*
X0336578Y0181160D01*
X0337005Y0180131D01*
X0337792Y0179343D01*
X0338822Y0178917D01*
X0339935Y0178917D01*
X0340965Y0179343D01*
X0341752Y0180131D01*
X0342178Y0181160D01*
X0342178Y0182274D01*
X0341752Y0183303D01*
X0340965Y0184090D01*
X0339935Y0184517D01*
X0338822Y0184517D01*
X0337792Y0184090D01*
X0337005Y0183303D01*
X0336578Y0181755D02*
X0278656Y0181755D01*
X0278385Y0181867D02*
X0277272Y0181867D01*
X0276242Y0181440D01*
X0275455Y0180653D01*
X0275028Y0179624D01*
X0275028Y0178510D01*
X0275455Y0177481D01*
X0276242Y0176693D01*
X0277272Y0176267D01*
X0278385Y0176267D01*
X0279415Y0176693D01*
X0280202Y0177481D01*
X0280628Y0178510D01*
X0280628Y0179624D01*
X0280202Y0180653D01*
X0279415Y0181440D01*
X0278385Y0181867D01*
X0277001Y0181755D02*
X0271355Y0181755D01*
X0271576Y0178558D02*
X0275028Y0178558D01*
X0275249Y0180156D02*
X0240408Y0180156D01*
X0240202Y0180653D02*
X0240628Y0179624D01*
X0240628Y0178510D01*
X0240202Y0177481D01*
X0239415Y0176693D01*
X0238385Y0176267D01*
X0237272Y0176267D01*
X0236242Y0176693D01*
X0235455Y0177481D01*
X0235028Y0178510D01*
X0235028Y0179624D01*
X0235455Y0180653D01*
X0236242Y0181440D01*
X0237272Y0181867D01*
X0238385Y0181867D01*
X0239415Y0181440D01*
X0240202Y0180653D01*
X0238656Y0181755D02*
X0244802Y0181755D01*
X0243676Y0183353D02*
X0231975Y0183353D01*
X0232678Y0181755D02*
X0237001Y0181755D01*
X0235249Y0180156D02*
X0232470Y0180156D01*
X0232354Y0178558D02*
X0235028Y0178558D01*
X0235976Y0176959D02*
X0232678Y0176959D01*
X0231982Y0175361D02*
X0247578Y0175361D01*
X0247578Y0175767D02*
X0243298Y0175767D01*
X0243397Y0176391D01*
X0243630Y0177109D01*
X0243973Y0177782D01*
X0244417Y0178394D01*
X0244951Y0178928D01*
X0245563Y0179372D01*
X0246236Y0179715D01*
X0246954Y0179948D01*
X0247578Y0180047D01*
X0247578Y0175767D01*
X0248579Y0175361D02*
X0257578Y0175361D01*
X0257578Y0175767D02*
X0253298Y0175767D01*
X0253397Y0176391D01*
X0253630Y0177109D01*
X0253973Y0177782D01*
X0254417Y0178394D01*
X0254951Y0178928D01*
X0255563Y0179372D01*
X0256236Y0179715D01*
X0256954Y0179948D01*
X0257578Y0180047D01*
X0257578Y0175767D01*
X0258579Y0175361D02*
X0267578Y0175361D01*
X0267578Y0175767D02*
X0263298Y0175767D01*
X0263397Y0176391D01*
X0263630Y0177109D01*
X0263973Y0177782D01*
X0264417Y0178394D01*
X0264951Y0178928D01*
X0265563Y0179372D01*
X0266236Y0179715D01*
X0266954Y0179948D01*
X0267578Y0180047D01*
X0267578Y0175767D01*
X0268579Y0175361D02*
X0323045Y0175361D01*
X0324912Y0175361D02*
X0327045Y0175361D01*
X0328912Y0175361D02*
X0331045Y0175361D01*
X0332912Y0175361D02*
X0335445Y0175361D01*
X0337312Y0175361D02*
X0339445Y0175361D01*
X0341312Y0175361D02*
X0343445Y0175361D01*
X0345312Y0175361D02*
X0347445Y0175361D01*
X0349312Y0175361D02*
X0351445Y0175361D01*
X0353312Y0175361D02*
X0355445Y0175361D01*
X0357312Y0175361D02*
X0359445Y0175361D01*
X0361312Y0175361D02*
X0363445Y0175361D01*
X0365312Y0175361D02*
X0367445Y0175361D01*
X0369312Y0175361D02*
X0371445Y0175361D01*
X0373312Y0175361D02*
X0375078Y0175361D01*
X0375078Y0176959D02*
X0279681Y0176959D01*
X0280628Y0178558D02*
X0375078Y0178558D01*
X0375078Y0180156D02*
X0341763Y0180156D01*
X0342178Y0181755D02*
X0368308Y0181755D01*
X0366171Y0183353D02*
X0341702Y0183353D01*
X0336994Y0180156D02*
X0280408Y0180156D01*
X0275976Y0176959D02*
X0272576Y0176959D01*
X0272637Y0173762D02*
X0321381Y0173762D01*
X0321178Y0172164D02*
X0271757Y0172164D01*
X0268578Y0176959D02*
X0267578Y0176959D01*
X0267578Y0178558D02*
X0268578Y0178558D01*
X0264581Y0178558D02*
X0261576Y0178558D01*
X0262576Y0176959D02*
X0263581Y0176959D01*
X0263520Y0173762D02*
X0262637Y0173762D01*
X0261757Y0172164D02*
X0264400Y0172164D01*
X0258578Y0176959D02*
X0257578Y0176959D01*
X0257578Y0178558D02*
X0258578Y0178558D01*
X0254581Y0178558D02*
X0251576Y0178558D01*
X0252576Y0176959D02*
X0253581Y0176959D01*
X0253520Y0173762D02*
X0252637Y0173762D01*
X0251757Y0172164D02*
X0254400Y0172164D01*
X0248578Y0176959D02*
X0247578Y0176959D01*
X0247578Y0178558D02*
X0248578Y0178558D01*
X0244581Y0178558D02*
X0240628Y0178558D01*
X0239681Y0176959D02*
X0243581Y0176959D01*
X0243520Y0173762D02*
X0232678Y0173762D01*
X0232473Y0172164D02*
X0244400Y0172164D01*
X0251355Y0181755D02*
X0254802Y0181755D01*
X0253676Y0183353D02*
X0252481Y0183353D01*
X0252878Y0184952D02*
X0253278Y0184952D01*
X0253415Y0186550D02*
X0252742Y0186550D01*
X0251985Y0188149D02*
X0254172Y0188149D01*
X0261985Y0188149D02*
X0264172Y0188149D01*
X0263415Y0186550D02*
X0262742Y0186550D01*
X0262878Y0184952D02*
X0263278Y0184952D01*
X0263676Y0183353D02*
X0262481Y0183353D01*
X0261355Y0181755D02*
X0264802Y0181755D01*
X0270946Y0191346D02*
X0277080Y0191346D01*
X0277272Y0191267D02*
X0278385Y0191267D01*
X0279415Y0191693D01*
X0280202Y0192481D01*
X0280628Y0193510D01*
X0280628Y0194624D01*
X0280202Y0195653D01*
X0279415Y0196440D01*
X0278385Y0196867D01*
X0277272Y0196867D01*
X0276242Y0196440D01*
X0275455Y0195653D01*
X0275028Y0194624D01*
X0275028Y0193510D01*
X0275455Y0192481D01*
X0276242Y0191693D01*
X0277272Y0191267D01*
X0278577Y0191346D02*
X0375078Y0191346D01*
X0375078Y0192944D02*
X0280394Y0192944D01*
X0280628Y0194543D02*
X0282442Y0194543D01*
X0282642Y0194343D02*
X0283672Y0193917D01*
X0284785Y0193917D01*
X0285815Y0194343D01*
X0286602Y0195131D01*
X0287028Y0196160D01*
X0287028Y0197274D01*
X0286602Y0198303D01*
X0286188Y0198717D01*
X0286602Y0199131D01*
X0287028Y0200160D01*
X0287028Y0201274D01*
X0286602Y0202303D01*
X0286188Y0202717D01*
X0286602Y0203131D01*
X0287028Y0204160D01*
X0287028Y0205274D01*
X0286602Y0206303D01*
X0285815Y0207090D01*
X0284785Y0207517D01*
X0283672Y0207517D01*
X0282642Y0207090D01*
X0281855Y0206303D01*
X0281428Y0205274D01*
X0281428Y0204160D01*
X0281855Y0203131D01*
X0282269Y0202717D01*
X0281855Y0202303D01*
X0281428Y0201274D01*
X0281428Y0200160D01*
X0281855Y0199131D01*
X0282269Y0198717D01*
X0281855Y0198303D01*
X0281428Y0197274D01*
X0281428Y0196160D01*
X0281855Y0195131D01*
X0282642Y0194343D01*
X0281436Y0196141D02*
X0279714Y0196141D01*
X0281622Y0197740D02*
X0272250Y0197740D01*
X0272878Y0196141D02*
X0275943Y0196141D01*
X0275028Y0194543D02*
X0272878Y0194543D01*
X0272312Y0192944D02*
X0275263Y0192944D01*
X0270791Y0199338D02*
X0281769Y0199338D01*
X0281428Y0200937D02*
X0242678Y0200937D01*
X0242363Y0202535D02*
X0275432Y0202535D01*
X0275455Y0202481D02*
X0276242Y0201693D01*
X0277272Y0201267D01*
X0278385Y0201267D01*
X0279415Y0201693D01*
X0280202Y0202481D01*
X0280628Y0203510D01*
X0280628Y0204624D01*
X0280202Y0205653D01*
X0279415Y0206440D01*
X0278385Y0206867D01*
X0277272Y0206867D01*
X0276242Y0206440D01*
X0275455Y0205653D01*
X0275028Y0204624D01*
X0275028Y0203510D01*
X0275455Y0202481D01*
X0275028Y0204134D02*
X0242357Y0204134D01*
X0242678Y0205732D02*
X0275534Y0205732D01*
X0280122Y0205732D02*
X0281619Y0205732D01*
X0281439Y0204134D02*
X0280628Y0204134D01*
X0280225Y0202535D02*
X0282087Y0202535D01*
X0286370Y0202535D02*
X0288200Y0202535D01*
X0287189Y0204134D02*
X0287018Y0204134D01*
X0286838Y0205732D02*
X0287369Y0205732D01*
X0288973Y0207331D02*
X0285234Y0207331D01*
X0283223Y0207331D02*
X0241974Y0207331D01*
X0242678Y0208929D02*
X0295178Y0208929D01*
X0294984Y0207331D02*
X0295522Y0207331D01*
X0292973Y0207331D02*
X0290984Y0207331D01*
X0291757Y0202535D02*
X0292200Y0202535D01*
X0295757Y0202535D02*
X0296200Y0202535D01*
X0299757Y0202535D02*
X0307837Y0202535D01*
X0307605Y0202303D02*
X0307178Y0201274D01*
X0307178Y0200160D01*
X0307605Y0199131D01*
X0308392Y0198343D01*
X0309422Y0197917D01*
X0310535Y0197917D01*
X0311565Y0198343D01*
X0312352Y0199131D01*
X0312778Y0200160D01*
X0312778Y0201274D01*
X0312352Y0202303D01*
X0311565Y0203090D01*
X0310535Y0203517D01*
X0309422Y0203517D01*
X0308392Y0203090D01*
X0307605Y0202303D01*
X0307178Y0200937D02*
X0287028Y0200937D01*
X0286688Y0199338D02*
X0307519Y0199338D01*
X0312438Y0199338D02*
X0320140Y0199338D01*
X0320392Y0199590D02*
X0319605Y0198803D01*
X0319178Y0197774D01*
X0319178Y0196660D01*
X0319605Y0195631D01*
X0320392Y0194843D01*
X0321422Y0194417D01*
X0322535Y0194417D01*
X0323565Y0194843D01*
X0324352Y0195631D01*
X0324778Y0196660D01*
X0324778Y0197774D01*
X0324352Y0198803D01*
X0323565Y0199590D01*
X0322535Y0200017D01*
X0321422Y0200017D01*
X0320392Y0199590D01*
X0319178Y0197740D02*
X0286835Y0197740D01*
X0287021Y0196141D02*
X0319393Y0196141D01*
X0321117Y0194543D02*
X0286014Y0194543D01*
X0300768Y0204134D02*
X0320630Y0204134D01*
X0320672Y0204117D02*
X0321785Y0204117D01*
X0322815Y0204543D01*
X0323602Y0205331D01*
X0324028Y0206360D01*
X0324028Y0207474D01*
X0323602Y0208503D01*
X0322815Y0209290D01*
X0321785Y0209717D01*
X0320672Y0209717D01*
X0319642Y0209290D01*
X0318855Y0208503D01*
X0318428Y0207474D01*
X0318428Y0206360D01*
X0318855Y0205331D01*
X0319642Y0204543D01*
X0320672Y0204117D01*
X0321827Y0204134D02*
X0375078Y0204134D01*
X0375078Y0205732D02*
X0323769Y0205732D01*
X0324028Y0207331D02*
X0375078Y0207331D01*
X0375078Y0202535D02*
X0356499Y0202535D01*
X0356939Y0202096D02*
X0355758Y0203277D01*
X0354214Y0203917D01*
X0352543Y0203917D01*
X0350999Y0203277D01*
X0349818Y0202096D01*
X0349178Y0200552D01*
X0349178Y0198881D01*
X0349818Y0197338D01*
X0350999Y0196156D01*
X0352543Y0195517D01*
X0354214Y0195517D01*
X0355758Y0196156D01*
X0356939Y0197338D01*
X0357578Y0198881D01*
X0357578Y0200552D01*
X0356939Y0202096D01*
X0357419Y0200937D02*
X0366628Y0200937D01*
X0366103Y0200412D02*
X0365407Y0198732D01*
X0365407Y0196913D01*
X0366103Y0195233D01*
X0367389Y0193947D01*
X0369069Y0193251D01*
X0370888Y0193251D01*
X0372568Y0193947D01*
X0373854Y0195233D01*
X0374550Y0196913D01*
X0374550Y0198732D01*
X0373854Y0200412D01*
X0372568Y0201698D01*
X0370888Y0202394D01*
X0369069Y0202394D01*
X0367389Y0201698D01*
X0366103Y0200412D01*
X0365658Y0199338D02*
X0357578Y0199338D01*
X0357106Y0197740D02*
X0365407Y0197740D01*
X0365726Y0196141D02*
X0355722Y0196141D01*
X0351035Y0196141D02*
X0345722Y0196141D01*
X0345758Y0196156D02*
X0346939Y0197338D01*
X0347578Y0198881D01*
X0347578Y0200552D01*
X0346939Y0202096D01*
X0345758Y0203277D01*
X0344214Y0203917D01*
X0342543Y0203917D01*
X0340999Y0203277D01*
X0339818Y0202096D01*
X0339178Y0200552D01*
X0339178Y0198881D01*
X0339818Y0197338D01*
X0340999Y0196156D01*
X0342543Y0195517D01*
X0344214Y0195517D01*
X0345758Y0196156D01*
X0347106Y0197740D02*
X0349651Y0197740D01*
X0349178Y0199338D02*
X0347578Y0199338D01*
X0347419Y0200937D02*
X0349338Y0200937D01*
X0350258Y0202535D02*
X0346499Y0202535D01*
X0340258Y0202535D02*
X0312120Y0202535D01*
X0312778Y0200937D02*
X0339338Y0200937D01*
X0339178Y0199338D02*
X0323817Y0199338D01*
X0324778Y0197740D02*
X0339651Y0197740D01*
X0341035Y0196141D02*
X0324564Y0196141D01*
X0322840Y0194543D02*
X0366792Y0194543D01*
X0373164Y0194543D02*
X0375078Y0194543D01*
X0375078Y0196141D02*
X0374231Y0196141D01*
X0374550Y0197740D02*
X0375078Y0197740D01*
X0375078Y0199338D02*
X0374299Y0199338D01*
X0375078Y0200937D02*
X0373329Y0200937D01*
X0372708Y0189747D02*
X0375078Y0189747D01*
X0375078Y0188149D02*
X0374041Y0188149D01*
X0374550Y0186550D02*
X0375078Y0186550D01*
X0375078Y0184952D02*
X0374488Y0184952D01*
X0375078Y0183353D02*
X0373786Y0183353D01*
X0375078Y0181755D02*
X0371649Y0181755D01*
X0374976Y0173762D02*
X0375078Y0173762D01*
X0318688Y0205732D02*
X0300588Y0205732D01*
X0300435Y0207331D02*
X0318428Y0207331D01*
X0319281Y0208929D02*
X0312301Y0208929D01*
X0312728Y0210528D02*
X0333878Y0210528D01*
X0334243Y0208929D02*
X0323175Y0208929D01*
X0311128Y0213725D02*
X0240678Y0213725D01*
X0240774Y0212127D02*
X0299578Y0212127D01*
X0295830Y0210528D02*
X0242470Y0210528D01*
X0237287Y0210528D02*
X0214762Y0210528D01*
X0214752Y0210553D02*
X0213965Y0211340D01*
X0212935Y0211767D01*
X0211822Y0211767D01*
X0210792Y0211340D01*
X0210005Y0210553D01*
X0209578Y0209524D01*
X0209578Y0208410D01*
X0210005Y0207381D01*
X0210792Y0206593D01*
X0211822Y0206167D01*
X0212935Y0206167D01*
X0213965Y0206593D01*
X0214752Y0207381D01*
X0215178Y0208410D01*
X0215178Y0209524D01*
X0214752Y0210553D01*
X0215178Y0208929D02*
X0237078Y0208929D01*
X0237783Y0207331D02*
X0214703Y0207331D01*
X0210054Y0207331D02*
X0193356Y0207331D01*
X0193678Y0208929D02*
X0209578Y0208929D01*
X0209994Y0210528D02*
X0192977Y0210528D01*
X0197745Y0215324D02*
X0231776Y0215324D01*
X0231078Y0216922D02*
X0224552Y0216922D01*
X0224965Y0217093D02*
X0225752Y0217881D01*
X0226178Y0218910D01*
X0226178Y0219976D01*
X0226322Y0219917D01*
X0227435Y0219917D01*
X0228465Y0220343D01*
X0229252Y0221131D01*
X0229678Y0222160D01*
X0229678Y0223274D01*
X0229252Y0224303D01*
X0228465Y0225090D01*
X0227435Y0225517D01*
X0226322Y0225517D01*
X0225292Y0225090D01*
X0224505Y0224303D01*
X0224078Y0223274D01*
X0224078Y0222207D01*
X0223935Y0222267D01*
X0222822Y0222267D01*
X0221792Y0221840D01*
X0221005Y0221053D01*
X0220578Y0220024D01*
X0220578Y0218910D01*
X0221005Y0217881D01*
X0221792Y0217093D01*
X0222822Y0216667D01*
X0223935Y0216667D01*
X0224965Y0217093D01*
X0226017Y0218521D02*
X0231284Y0218521D01*
X0231406Y0220119D02*
X0227924Y0220119D01*
X0229495Y0221718D02*
X0231078Y0221718D01*
X0231768Y0223316D02*
X0229661Y0223316D01*
X0228640Y0224915D02*
X0254221Y0224915D01*
X0253678Y0226513D02*
X0208016Y0226513D01*
X0210640Y0224915D02*
X0225117Y0224915D01*
X0224096Y0223316D02*
X0211661Y0223316D01*
X0211495Y0221718D02*
X0221670Y0221718D01*
X0220618Y0220119D02*
X0209924Y0220119D01*
X0207833Y0220119D02*
X0183716Y0220119D01*
X0183800Y0221718D02*
X0188918Y0221718D01*
X0188028Y0223316D02*
X0184128Y0223316D01*
X0183440Y0224915D02*
X0188273Y0224915D01*
X0185515Y0218521D02*
X0184128Y0218521D01*
X0184331Y0216922D02*
X0183644Y0216922D01*
X0183839Y0215324D02*
X0184326Y0215324D01*
X0184128Y0213725D02*
X0185486Y0213725D01*
X0183973Y0204134D02*
X0199618Y0204134D01*
X0198308Y0202535D02*
X0187320Y0202535D01*
X0188128Y0200937D02*
X0198250Y0200937D01*
X0199347Y0199338D02*
X0187850Y0199338D01*
X0183337Y0202535D02*
X0183320Y0202535D01*
X0196228Y0192944D02*
X0221606Y0192944D01*
X0221755Y0193303D02*
X0221328Y0192274D01*
X0221328Y0191160D01*
X0221755Y0190131D01*
X0222542Y0189343D01*
X0223572Y0188917D01*
X0224685Y0188917D01*
X0225715Y0189343D01*
X0226502Y0190131D01*
X0226928Y0191160D01*
X0226928Y0192274D01*
X0226502Y0193303D01*
X0225715Y0194090D01*
X0224685Y0194517D01*
X0223572Y0194517D01*
X0222542Y0194090D01*
X0221755Y0193303D01*
X0221328Y0191346D02*
X0196228Y0191346D01*
X0196228Y0189747D02*
X0222138Y0189747D01*
X0226119Y0189747D02*
X0227078Y0189747D01*
X0226928Y0191346D02*
X0228048Y0191346D01*
X0226651Y0192944D02*
X0231078Y0192944D01*
X0231397Y0194543D02*
X0199728Y0194543D01*
X0200128Y0196141D02*
X0231293Y0196141D01*
X0231078Y0197740D02*
X0199615Y0197740D01*
X0196228Y0188149D02*
X0206941Y0188149D01*
X0206578Y0186550D02*
X0196228Y0186550D01*
X0196228Y0184952D02*
X0207184Y0184952D01*
X0206819Y0183353D02*
X0196228Y0183353D01*
X0196228Y0181755D02*
X0206578Y0181755D01*
X0208678Y0178558D02*
X0227403Y0178558D01*
X0227287Y0180156D02*
X0211278Y0180156D01*
X0212178Y0181755D02*
X0227078Y0181755D01*
X0227782Y0183353D02*
X0211938Y0183353D01*
X0211573Y0184952D02*
X0227078Y0184952D01*
X0227400Y0186550D02*
X0212178Y0186550D01*
X0211816Y0188149D02*
X0227290Y0188149D01*
X0232357Y0186550D02*
X0232999Y0186550D01*
X0232678Y0184952D02*
X0243278Y0184952D01*
X0243415Y0186550D02*
X0234758Y0186550D01*
X0236467Y0188149D02*
X0244172Y0188149D01*
X0243278Y0194543D02*
X0238740Y0194543D01*
X0240464Y0196141D02*
X0243278Y0196141D01*
X0243907Y0197740D02*
X0240678Y0197740D01*
X0241960Y0199338D02*
X0245365Y0199338D01*
X0231790Y0191346D02*
X0231709Y0191346D01*
X0227078Y0176959D02*
X0208388Y0176959D01*
X0208063Y0175361D02*
X0207694Y0175361D01*
X0211694Y0175361D02*
X0212063Y0175361D01*
X0215694Y0175361D02*
X0216063Y0175361D01*
X0219694Y0175361D02*
X0220063Y0175361D01*
X0223694Y0175361D02*
X0224063Y0175361D01*
X0227694Y0175361D02*
X0227775Y0175361D01*
X0239981Y0215324D02*
X0311439Y0215324D01*
X0320128Y0229710D02*
X0272932Y0229710D01*
X0273928Y0231309D02*
X0298860Y0231309D01*
X0298528Y0232907D02*
X0273728Y0232907D01*
X0272074Y0234506D02*
X0299208Y0234506D01*
X0303449Y0234506D02*
X0313887Y0234506D01*
X0313678Y0236104D02*
X0258578Y0236104D01*
X0258318Y0237703D02*
X0314655Y0237703D01*
X0314464Y0239301D02*
X0314934Y0239301D01*
X0315590Y0244097D02*
X0257708Y0244097D01*
X0258678Y0242498D02*
X0289732Y0242498D01*
X0289755Y0242553D02*
X0289328Y0241524D01*
X0289328Y0240410D01*
X0289755Y0239381D01*
X0290542Y0238593D01*
X0291572Y0238167D01*
X0292685Y0238167D01*
X0293715Y0238593D01*
X0294128Y0239007D01*
X0294542Y0238593D01*
X0295572Y0238167D01*
X0296685Y0238167D01*
X0297715Y0238593D01*
X0298502Y0239381D01*
X0298928Y0240410D01*
X0298928Y0241524D01*
X0298502Y0242553D01*
X0297715Y0243340D01*
X0296685Y0243767D01*
X0295572Y0243767D01*
X0294542Y0243340D01*
X0294128Y0242926D01*
X0293715Y0243340D01*
X0292685Y0243767D01*
X0291572Y0243767D01*
X0290542Y0243340D01*
X0289755Y0242553D01*
X0289328Y0240900D02*
X0258467Y0240900D01*
X0256760Y0239301D02*
X0289834Y0239301D01*
X0298423Y0239301D02*
X0305534Y0239301D01*
X0304778Y0240900D02*
X0298928Y0240900D01*
X0298525Y0242498D02*
X0305079Y0242498D01*
X0302185Y0254067D02*
X0303215Y0254493D01*
X0304002Y0255281D01*
X0304428Y0256310D01*
X0304428Y0257424D01*
X0304002Y0258453D01*
X0303215Y0259240D01*
X0302185Y0259667D01*
X0301072Y0259667D01*
X0300042Y0259240D01*
X0299255Y0258453D01*
X0298828Y0257424D01*
X0298828Y0256310D01*
X0299255Y0255281D01*
X0300042Y0254493D01*
X0301072Y0254067D01*
X0302185Y0254067D01*
X0304005Y0255286D02*
X0320527Y0255286D01*
X0319358Y0256885D02*
X0304428Y0256885D01*
X0303972Y0258483D02*
X0319147Y0258483D01*
X0319762Y0260082D02*
X0249028Y0260082D01*
X0249028Y0259910D02*
X0249028Y0261024D01*
X0248602Y0262053D01*
X0247815Y0262840D01*
X0246785Y0263267D01*
X0246278Y0263267D01*
X0246278Y0264124D01*
X0245852Y0265153D01*
X0245065Y0265940D01*
X0244035Y0266367D01*
X0242922Y0266367D01*
X0241892Y0265940D01*
X0241105Y0265153D01*
X0240678Y0264124D01*
X0240678Y0263010D01*
X0241105Y0261981D01*
X0241892Y0261193D01*
X0242922Y0260767D01*
X0243428Y0260767D01*
X0243428Y0259910D01*
X0243855Y0258881D01*
X0244642Y0258093D01*
X0245672Y0257667D01*
X0246785Y0257667D01*
X0247815Y0258093D01*
X0248602Y0258881D01*
X0249028Y0259910D01*
X0248205Y0258483D02*
X0253985Y0258483D01*
X0253655Y0258153D02*
X0253228Y0257124D01*
X0253228Y0256010D01*
X0253655Y0254981D01*
X0254442Y0254193D01*
X0255472Y0253767D01*
X0256585Y0253767D01*
X0257615Y0254193D01*
X0258402Y0254981D01*
X0258828Y0256010D01*
X0258828Y0257124D01*
X0258402Y0258153D01*
X0257615Y0258940D01*
X0256585Y0259367D01*
X0255472Y0259367D01*
X0254442Y0258940D01*
X0253655Y0258153D01*
X0253228Y0256885D02*
X0180678Y0256885D01*
X0180678Y0258483D02*
X0244252Y0258483D01*
X0243428Y0260082D02*
X0207060Y0260082D01*
X0207097Y0260097D02*
X0208448Y0261448D01*
X0209178Y0263212D01*
X0209178Y0265121D01*
X0208448Y0266886D01*
X0207097Y0268236D01*
X0205333Y0268967D01*
X0203424Y0268967D01*
X0201659Y0268236D01*
X0200309Y0266886D01*
X0199578Y0265121D01*
X0199578Y0263212D01*
X0200309Y0261448D01*
X0201659Y0260097D01*
X0203424Y0259367D01*
X0205333Y0259367D01*
X0207097Y0260097D01*
X0208544Y0261680D02*
X0241405Y0261680D01*
X0240678Y0263279D02*
X0209178Y0263279D01*
X0209178Y0264877D02*
X0240991Y0264877D01*
X0245966Y0264877D02*
X0254779Y0264877D01*
X0254955Y0265303D02*
X0254528Y0264274D01*
X0254528Y0263160D01*
X0254955Y0262131D01*
X0255742Y0261343D01*
X0256772Y0260917D01*
X0257885Y0260917D01*
X0258915Y0261343D01*
X0259702Y0262131D01*
X0260128Y0263160D01*
X0260128Y0264274D01*
X0259702Y0265303D01*
X0258915Y0266090D01*
X0258851Y0266117D01*
X0259085Y0266117D01*
X0260115Y0266543D01*
X0260902Y0267331D01*
X0261328Y0268360D01*
X0261328Y0269474D01*
X0260902Y0270503D01*
X0260115Y0271290D01*
X0259085Y0271717D01*
X0257972Y0271717D01*
X0256942Y0271290D01*
X0256155Y0270503D01*
X0255728Y0269474D01*
X0255728Y0268360D01*
X0256155Y0267331D01*
X0256942Y0266543D01*
X0257006Y0266517D01*
X0256772Y0266517D01*
X0255742Y0266090D01*
X0254955Y0265303D01*
X0254528Y0263279D02*
X0246278Y0263279D01*
X0248756Y0261680D02*
X0255405Y0261680D01*
X0259252Y0261680D02*
X0276273Y0261680D01*
X0276242Y0261693D02*
X0277272Y0261267D01*
X0278385Y0261267D01*
X0279415Y0261693D01*
X0280202Y0262481D01*
X0280628Y0263510D01*
X0280628Y0264624D01*
X0280202Y0265653D01*
X0279415Y0266440D01*
X0278385Y0266867D01*
X0277272Y0266867D01*
X0276242Y0266440D01*
X0275455Y0265653D01*
X0275028Y0264624D01*
X0275028Y0263510D01*
X0275455Y0262481D01*
X0276242Y0261693D01*
X0275124Y0263279D02*
X0260128Y0263279D01*
X0259878Y0264877D02*
X0275134Y0264877D01*
X0276328Y0266476D02*
X0259953Y0266476D01*
X0261210Y0268074D02*
X0288369Y0268074D01*
X0288472Y0268117D02*
X0287442Y0267690D01*
X0286655Y0266903D01*
X0286228Y0265874D01*
X0286228Y0264760D01*
X0286655Y0263731D01*
X0287442Y0262943D01*
X0288472Y0262517D01*
X0289585Y0262517D01*
X0290615Y0262943D01*
X0291402Y0263731D01*
X0291828Y0264760D01*
X0291828Y0265874D01*
X0291402Y0266903D01*
X0290615Y0267690D01*
X0289585Y0268117D01*
X0288472Y0268117D01*
X0289688Y0268074D02*
X0298987Y0268074D01*
X0299005Y0268031D02*
X0299792Y0267243D01*
X0299900Y0267198D01*
X0299455Y0266753D01*
X0299028Y0265724D01*
X0299028Y0264610D01*
X0299455Y0263581D01*
X0300242Y0262793D01*
X0301272Y0262367D01*
X0302385Y0262367D01*
X0303415Y0262793D01*
X0304202Y0263581D01*
X0304322Y0263871D01*
X0304505Y0263431D01*
X0305292Y0262643D01*
X0306322Y0262217D01*
X0307435Y0262217D01*
X0308465Y0262643D01*
X0309252Y0263431D01*
X0309678Y0264460D01*
X0309678Y0265574D01*
X0309252Y0266603D01*
X0308465Y0267390D01*
X0307435Y0267817D01*
X0306322Y0267817D01*
X0305292Y0267390D01*
X0304505Y0266603D01*
X0304385Y0266313D01*
X0304202Y0266753D01*
X0303415Y0267540D01*
X0303307Y0267585D01*
X0303752Y0268031D01*
X0304178Y0269060D01*
X0304178Y0270174D01*
X0303752Y0271203D01*
X0302965Y0271990D01*
X0301935Y0272417D01*
X0300822Y0272417D01*
X0299792Y0271990D01*
X0299005Y0271203D01*
X0298578Y0270174D01*
X0298578Y0269060D01*
X0299005Y0268031D01*
X0299340Y0266476D02*
X0291579Y0266476D01*
X0291828Y0264877D02*
X0299028Y0264877D01*
X0299756Y0263279D02*
X0290950Y0263279D01*
X0287106Y0263279D02*
X0280533Y0263279D01*
X0280523Y0264877D02*
X0286228Y0264877D01*
X0286478Y0266476D02*
X0279329Y0266476D01*
X0279384Y0261680D02*
X0319443Y0261680D01*
X0319147Y0263279D02*
X0315800Y0263279D01*
X0315852Y0263331D02*
X0316278Y0264360D01*
X0316278Y0265474D01*
X0315852Y0266503D01*
X0315065Y0267290D01*
X0314035Y0267717D01*
X0312922Y0267717D01*
X0311892Y0267290D01*
X0311105Y0266503D01*
X0310678Y0265474D01*
X0310678Y0264360D01*
X0311105Y0263331D01*
X0311892Y0262543D01*
X0312922Y0262117D01*
X0314035Y0262117D01*
X0315065Y0262543D01*
X0315852Y0263331D01*
X0316278Y0264877D02*
X0319619Y0264877D01*
X0319528Y0266476D02*
X0315863Y0266476D01*
X0319147Y0268074D02*
X0303770Y0268074D01*
X0304178Y0269673D02*
X0319534Y0269673D01*
X0319612Y0271271D02*
X0303684Y0271271D01*
X0299073Y0271271D02*
X0294226Y0271271D01*
X0294428Y0272870D02*
X0319147Y0272870D01*
X0311094Y0266476D02*
X0309305Y0266476D01*
X0309678Y0264877D02*
X0310678Y0264877D01*
X0311156Y0263279D02*
X0309100Y0263279D01*
X0304656Y0263279D02*
X0303900Y0263279D01*
X0304317Y0266476D02*
X0304452Y0266476D01*
X0298578Y0269673D02*
X0292563Y0269673D01*
X0290694Y0269673D02*
X0290253Y0269673D01*
X0285304Y0269673D02*
X0261246Y0269673D01*
X0260134Y0271271D02*
X0272260Y0271271D01*
X0273397Y0271271D02*
X0284978Y0271271D01*
X0285672Y0272870D02*
X0275363Y0272870D01*
X0270293Y0272870D02*
X0264560Y0272870D01*
X0264928Y0274468D02*
X0270028Y0274468D01*
X0270869Y0276067D02*
X0264338Y0276067D01*
X0259328Y0274468D02*
X0209178Y0274468D01*
X0209037Y0272870D02*
X0259697Y0272870D01*
X0256923Y0271271D02*
X0208271Y0271271D01*
X0206073Y0269673D02*
X0255811Y0269673D01*
X0255847Y0268074D02*
X0207259Y0268074D01*
X0208617Y0266476D02*
X0256673Y0266476D01*
X0258072Y0258483D02*
X0299285Y0258483D01*
X0298828Y0256885D02*
X0258828Y0256885D01*
X0258529Y0255286D02*
X0265303Y0255286D01*
X0265028Y0253688D02*
X0240628Y0253688D01*
X0240628Y0253510D02*
X0240202Y0252481D01*
X0239415Y0251693D01*
X0238385Y0251267D01*
X0237272Y0251267D01*
X0236242Y0251693D01*
X0235455Y0252481D01*
X0235028Y0253510D01*
X0235028Y0254624D01*
X0235455Y0255653D01*
X0236242Y0256440D01*
X0237272Y0256867D01*
X0238385Y0256867D01*
X0239415Y0256440D01*
X0240202Y0255653D01*
X0240628Y0254624D01*
X0240628Y0253510D01*
X0239811Y0252089D02*
X0265846Y0252089D01*
X0270354Y0255286D02*
X0299252Y0255286D01*
X0324530Y0255286D02*
X0325604Y0255286D01*
X0327528Y0255286D02*
X0327529Y0255286D01*
X0327528Y0256885D02*
X0327529Y0256885D01*
X0330248Y0260082D02*
X0347334Y0260082D01*
X0346332Y0258483D02*
X0333872Y0258483D01*
X0334778Y0256885D02*
X0346525Y0256885D01*
X0348162Y0255286D02*
X0334541Y0255286D01*
X0354635Y0242498D02*
X0357622Y0242498D01*
X0357467Y0242344D02*
X0357023Y0241732D01*
X0356680Y0241059D01*
X0356447Y0240341D01*
X0356348Y0239717D01*
X0360628Y0239717D01*
X0360628Y0238717D01*
X0356348Y0238717D01*
X0356447Y0238093D01*
X0356680Y0237374D01*
X0357023Y0236701D01*
X0357467Y0236090D01*
X0358001Y0235555D01*
X0358613Y0235111D01*
X0359286Y0234768D01*
X0360004Y0234535D01*
X0360628Y0234436D01*
X0360628Y0238717D01*
X0361628Y0238717D01*
X0361628Y0234436D01*
X0362252Y0234535D01*
X0362971Y0234768D01*
X0363644Y0235111D01*
X0364255Y0235555D01*
X0364790Y0236090D01*
X0365234Y0236701D01*
X0365577Y0237374D01*
X0365810Y0238093D01*
X0365909Y0238717D01*
X0361629Y0238717D01*
X0361629Y0239717D01*
X0365909Y0239717D01*
X0365810Y0240341D01*
X0365577Y0241059D01*
X0365234Y0241732D01*
X0364790Y0242344D01*
X0364255Y0242878D01*
X0363644Y0243322D01*
X0362971Y0243665D01*
X0362252Y0243898D01*
X0361628Y0243997D01*
X0361628Y0239717D01*
X0360628Y0239717D01*
X0360628Y0243997D01*
X0360004Y0243898D01*
X0359286Y0243665D01*
X0358613Y0243322D01*
X0358001Y0242878D01*
X0357467Y0242344D01*
X0356628Y0240900D02*
X0355627Y0240900D01*
X0355928Y0239301D02*
X0360628Y0239301D01*
X0361629Y0239301D02*
X0366328Y0239301D01*
X0366560Y0237703D02*
X0365684Y0237703D01*
X0364800Y0236104D02*
X0367453Y0236104D01*
X0369959Y0234506D02*
X0362068Y0234506D01*
X0361628Y0234506D02*
X0360628Y0234506D01*
X0360189Y0234506D02*
X0352298Y0234506D01*
X0354226Y0232907D02*
X0358042Y0232907D01*
X0358001Y0232878D02*
X0357467Y0232344D01*
X0357023Y0231732D01*
X0356680Y0231059D01*
X0356447Y0230341D01*
X0356348Y0229717D01*
X0360628Y0229717D01*
X0360628Y0228717D01*
X0356348Y0228717D01*
X0356447Y0228093D01*
X0356680Y0227374D01*
X0357023Y0226701D01*
X0357467Y0226090D01*
X0358001Y0225555D01*
X0358613Y0225111D01*
X0359286Y0224768D01*
X0360004Y0224535D01*
X0360628Y0224436D01*
X0360628Y0228717D01*
X0361628Y0228717D01*
X0361628Y0224436D01*
X0362252Y0224535D01*
X0362971Y0224768D01*
X0363644Y0225111D01*
X0364255Y0225555D01*
X0364790Y0226090D01*
X0365234Y0226701D01*
X0365577Y0227374D01*
X0365810Y0228093D01*
X0365909Y0228717D01*
X0361629Y0228717D01*
X0361629Y0229717D01*
X0365909Y0229717D01*
X0365810Y0230341D01*
X0365577Y0231059D01*
X0365234Y0231732D01*
X0364790Y0232344D01*
X0364255Y0232878D01*
X0363644Y0233322D01*
X0362971Y0233665D01*
X0362252Y0233898D01*
X0361628Y0233997D01*
X0361628Y0229717D01*
X0360628Y0229717D01*
X0360628Y0233997D01*
X0360004Y0233898D01*
X0359286Y0233665D01*
X0358613Y0233322D01*
X0358001Y0232878D01*
X0356807Y0231309D02*
X0355457Y0231309D01*
X0355928Y0229710D02*
X0360628Y0229710D01*
X0361629Y0229710D02*
X0366328Y0229710D01*
X0366391Y0228112D02*
X0365813Y0228112D01*
X0365097Y0226513D02*
X0367053Y0226513D01*
X0368972Y0224915D02*
X0363258Y0224915D01*
X0362971Y0223665D02*
X0362252Y0223898D01*
X0361628Y0223997D01*
X0361628Y0219717D01*
X0360628Y0219717D01*
X0360628Y0218717D01*
X0356348Y0218717D01*
X0356447Y0218093D01*
X0356680Y0217374D01*
X0357023Y0216701D01*
X0357467Y0216090D01*
X0358001Y0215555D01*
X0358613Y0215111D01*
X0359286Y0214768D01*
X0360004Y0214535D01*
X0360628Y0214436D01*
X0360628Y0218717D01*
X0361628Y0218717D01*
X0361628Y0214436D01*
X0362252Y0214535D01*
X0362971Y0214768D01*
X0363644Y0215111D01*
X0364255Y0215555D01*
X0364790Y0216090D01*
X0365234Y0216701D01*
X0365577Y0217374D01*
X0365810Y0218093D01*
X0365909Y0218717D01*
X0361629Y0218717D01*
X0361629Y0219717D01*
X0365909Y0219717D01*
X0365810Y0220341D01*
X0365577Y0221059D01*
X0365234Y0221732D01*
X0364790Y0222344D01*
X0364255Y0222878D01*
X0363644Y0223322D01*
X0362971Y0223665D01*
X0363652Y0223316D02*
X0368482Y0223316D01*
X0366969Y0221718D02*
X0365241Y0221718D01*
X0365845Y0220119D02*
X0366328Y0220119D01*
X0366328Y0218521D02*
X0365878Y0218521D01*
X0365346Y0216922D02*
X0366883Y0216922D01*
X0368233Y0215324D02*
X0363936Y0215324D01*
X0361628Y0215324D02*
X0360628Y0215324D01*
X0360628Y0216922D02*
X0361628Y0216922D01*
X0361628Y0218521D02*
X0360628Y0218521D01*
X0360628Y0219717D02*
X0356348Y0219717D01*
X0356447Y0220341D01*
X0356680Y0221059D01*
X0357023Y0221732D01*
X0357467Y0222344D01*
X0358001Y0222878D01*
X0358613Y0223322D01*
X0359286Y0223665D01*
X0360004Y0223898D01*
X0360628Y0223997D01*
X0360628Y0219717D01*
X0360628Y0220119D02*
X0361628Y0220119D01*
X0361628Y0221718D02*
X0360628Y0221718D01*
X0360628Y0223316D02*
X0361628Y0223316D01*
X0361628Y0224915D02*
X0360628Y0224915D01*
X0360628Y0226513D02*
X0361628Y0226513D01*
X0361628Y0228112D02*
X0360628Y0228112D01*
X0360628Y0231309D02*
X0361628Y0231309D01*
X0361628Y0232907D02*
X0360628Y0232907D01*
X0360628Y0236104D02*
X0361628Y0236104D01*
X0361628Y0237703D02*
X0360628Y0237703D01*
X0360628Y0240900D02*
X0361628Y0240900D01*
X0361628Y0242498D02*
X0360628Y0242498D01*
X0364635Y0242498D02*
X0367622Y0242498D01*
X0366630Y0240900D02*
X0365629Y0240900D01*
X0372298Y0234506D02*
X0375078Y0234506D01*
X0375078Y0236104D02*
X0374804Y0236104D01*
X0375078Y0232907D02*
X0374226Y0232907D01*
X0368031Y0232907D02*
X0364215Y0232907D01*
X0365450Y0231309D02*
X0366800Y0231309D01*
X0373285Y0224915D02*
X0375078Y0224915D01*
X0375078Y0223316D02*
X0373775Y0223316D01*
X0358999Y0224915D02*
X0353285Y0224915D01*
X0353817Y0223316D02*
X0358605Y0223316D01*
X0357016Y0221718D02*
X0355229Y0221718D01*
X0355828Y0220119D02*
X0356412Y0220119D01*
X0356379Y0218521D02*
X0355828Y0218521D01*
X0355232Y0216922D02*
X0356910Y0216922D01*
X0358321Y0215324D02*
X0353824Y0215324D01*
X0348233Y0215324D02*
X0336418Y0215324D01*
X0336728Y0213725D02*
X0375078Y0213725D01*
X0375078Y0212127D02*
X0374878Y0212127D01*
X0375078Y0215324D02*
X0374023Y0215324D01*
X0357160Y0226513D02*
X0355204Y0226513D01*
X0355866Y0228112D02*
X0356444Y0228112D01*
X0357457Y0236104D02*
X0354804Y0236104D01*
X0355697Y0237703D02*
X0356573Y0237703D01*
X0374635Y0242498D02*
X0375078Y0242498D01*
X0346228Y0220119D02*
X0236351Y0220119D01*
X0236473Y0218521D02*
X0346228Y0218521D01*
X0346825Y0216922D02*
X0236678Y0216922D01*
X0222205Y0216922D02*
X0198478Y0216922D01*
X0198169Y0218521D02*
X0220740Y0218521D01*
X0220379Y0232907D02*
X0228891Y0232907D01*
X0228442Y0233093D02*
X0229472Y0232667D01*
X0230585Y0232667D01*
X0231615Y0233093D01*
X0232402Y0233881D01*
X0232828Y0234910D01*
X0232828Y0236024D01*
X0232402Y0237053D01*
X0231615Y0237840D01*
X0230585Y0238267D01*
X0229472Y0238267D01*
X0228442Y0237840D01*
X0227655Y0237053D01*
X0227228Y0236024D01*
X0227228Y0234910D01*
X0227655Y0233881D01*
X0228442Y0233093D01*
X0227396Y0234506D02*
X0220628Y0234506D01*
X0219751Y0236104D02*
X0227262Y0236104D01*
X0228305Y0237703D02*
X0200889Y0237703D01*
X0201128Y0236104D02*
X0215906Y0236104D01*
X0215028Y0234506D02*
X0200227Y0234506D01*
X0201198Y0232907D02*
X0215278Y0232907D01*
X0231166Y0232907D02*
X0268529Y0232907D01*
X0270183Y0234506D02*
X0257727Y0234506D01*
X0253830Y0234506D02*
X0232661Y0234506D01*
X0232795Y0236104D02*
X0251710Y0236104D01*
X0249909Y0237703D02*
X0231752Y0237703D01*
X0234176Y0239301D02*
X0199044Y0239301D01*
X0197613Y0239301D02*
X0194044Y0239301D01*
X0192613Y0239301D02*
X0190044Y0239301D01*
X0188613Y0239301D02*
X0186044Y0239301D01*
X0184613Y0239301D02*
X0182044Y0239301D01*
X0180678Y0240900D02*
X0232569Y0240900D01*
X0236181Y0239301D02*
X0249678Y0239301D01*
X0249586Y0240900D02*
X0237788Y0240900D01*
X0237968Y0242498D02*
X0248678Y0242498D01*
X0248916Y0244097D02*
X0236958Y0244097D01*
X0235846Y0252089D02*
X0229811Y0252089D01*
X0230202Y0252481D02*
X0230628Y0253510D01*
X0230628Y0254624D01*
X0230202Y0255653D01*
X0229415Y0256440D01*
X0228385Y0256867D01*
X0227272Y0256867D01*
X0226242Y0256440D01*
X0225455Y0255653D01*
X0225028Y0254624D01*
X0225028Y0253510D01*
X0225455Y0252481D01*
X0226242Y0251693D01*
X0227272Y0251267D01*
X0228385Y0251267D01*
X0229415Y0251693D01*
X0230202Y0252481D01*
X0230628Y0253688D02*
X0235028Y0253688D01*
X0235303Y0255286D02*
X0230354Y0255286D01*
X0225303Y0255286D02*
X0220354Y0255286D01*
X0220202Y0255653D02*
X0219415Y0256440D01*
X0218385Y0256867D01*
X0217272Y0256867D01*
X0216242Y0256440D01*
X0215455Y0255653D01*
X0215028Y0254624D01*
X0215028Y0253510D01*
X0215455Y0252481D01*
X0216242Y0251693D01*
X0217272Y0251267D01*
X0218385Y0251267D01*
X0219415Y0251693D01*
X0220202Y0252481D01*
X0220628Y0253510D01*
X0220628Y0254624D01*
X0220202Y0255653D01*
X0220628Y0253688D02*
X0225028Y0253688D01*
X0225846Y0252089D02*
X0219811Y0252089D01*
X0215846Y0252089D02*
X0209811Y0252089D01*
X0210202Y0252481D02*
X0210628Y0253510D01*
X0210628Y0254624D01*
X0210202Y0255653D01*
X0209415Y0256440D01*
X0208385Y0256867D01*
X0207272Y0256867D01*
X0206242Y0256440D01*
X0205455Y0255653D01*
X0205028Y0254624D01*
X0205028Y0253510D01*
X0205455Y0252481D01*
X0206242Y0251693D01*
X0207272Y0251267D01*
X0208385Y0251267D01*
X0209415Y0251693D01*
X0210202Y0252481D01*
X0210628Y0253688D02*
X0215028Y0253688D01*
X0215303Y0255286D02*
X0210354Y0255286D01*
X0205303Y0255286D02*
X0190354Y0255286D01*
X0190202Y0255653D02*
X0189415Y0256440D01*
X0188385Y0256867D01*
X0187272Y0256867D01*
X0186242Y0256440D01*
X0185455Y0255653D01*
X0185028Y0254624D01*
X0185028Y0253510D01*
X0185455Y0252481D01*
X0186242Y0251693D01*
X0187272Y0251267D01*
X0188385Y0251267D01*
X0189415Y0251693D01*
X0190202Y0252481D01*
X0190628Y0253510D01*
X0190628Y0254624D01*
X0190202Y0255653D01*
X0190628Y0253688D02*
X0205028Y0253688D01*
X0205846Y0252089D02*
X0189811Y0252089D01*
X0185846Y0252089D02*
X0180678Y0252089D01*
X0180678Y0253688D02*
X0185028Y0253688D01*
X0185303Y0255286D02*
X0180678Y0255286D01*
X0180678Y0260082D02*
X0181697Y0260082D01*
X0187060Y0260082D02*
X0191835Y0260082D01*
X0191863Y0260061D02*
X0192536Y0259718D01*
X0193254Y0259485D01*
X0193878Y0259386D01*
X0193878Y0263667D01*
X0189598Y0263667D01*
X0189697Y0263043D01*
X0189930Y0262324D01*
X0190273Y0261651D01*
X0190717Y0261040D01*
X0191251Y0260505D01*
X0191863Y0260061D01*
X0193878Y0260082D02*
X0194878Y0260082D01*
X0194878Y0259386D02*
X0195502Y0259485D01*
X0196221Y0259718D01*
X0196894Y0260061D01*
X0197505Y0260505D01*
X0198040Y0261040D01*
X0198484Y0261651D01*
X0198827Y0262324D01*
X0199060Y0263043D01*
X0199159Y0263667D01*
X0194879Y0263667D01*
X0194879Y0264667D01*
X0199159Y0264667D01*
X0199060Y0265291D01*
X0198827Y0266009D01*
X0198484Y0266682D01*
X0198040Y0267294D01*
X0197505Y0267828D01*
X0196894Y0268272D01*
X0196221Y0268615D01*
X0195502Y0268848D01*
X0194878Y0268947D01*
X0194878Y0264667D01*
X0193878Y0264667D01*
X0193878Y0263667D01*
X0194878Y0263667D01*
X0194878Y0259386D01*
X0196922Y0260082D02*
X0201697Y0260082D01*
X0200213Y0261680D02*
X0198499Y0261680D01*
X0199098Y0263279D02*
X0199578Y0263279D01*
X0199578Y0264877D02*
X0199126Y0264877D01*
X0198589Y0266476D02*
X0200139Y0266476D01*
X0201498Y0268074D02*
X0197166Y0268074D01*
X0196221Y0269718D02*
X0196894Y0270061D01*
X0197505Y0270505D01*
X0198040Y0271040D01*
X0198484Y0271651D01*
X0198827Y0272324D01*
X0199060Y0273043D01*
X0199159Y0273667D01*
X0194879Y0273667D01*
X0194879Y0274667D01*
X0199159Y0274667D01*
X0199060Y0275291D01*
X0198827Y0276009D01*
X0198484Y0276682D01*
X0198040Y0277294D01*
X0197505Y0277828D01*
X0196894Y0278272D01*
X0196221Y0278615D01*
X0195502Y0278848D01*
X0194878Y0278947D01*
X0194878Y0274667D01*
X0193878Y0274667D01*
X0193878Y0273667D01*
X0189598Y0273667D01*
X0189697Y0273043D01*
X0189930Y0272324D01*
X0190273Y0271651D01*
X0190717Y0271040D01*
X0191251Y0270505D01*
X0191863Y0270061D01*
X0192536Y0269718D01*
X0193254Y0269485D01*
X0193878Y0269386D01*
X0193878Y0273667D01*
X0194878Y0273667D01*
X0194878Y0269386D01*
X0195502Y0269485D01*
X0196221Y0269718D01*
X0196081Y0269673D02*
X0202684Y0269673D01*
X0200486Y0271271D02*
X0198208Y0271271D01*
X0199004Y0272870D02*
X0199720Y0272870D01*
X0199578Y0274468D02*
X0194879Y0274468D01*
X0193878Y0274468D02*
X0189178Y0274468D01*
X0189598Y0274667D02*
X0193878Y0274667D01*
X0193878Y0278947D01*
X0193254Y0278848D01*
X0192536Y0278615D01*
X0191863Y0278272D01*
X0191251Y0277828D01*
X0190717Y0277294D01*
X0190273Y0276682D01*
X0189930Y0276009D01*
X0189697Y0275291D01*
X0189598Y0274667D01*
X0189960Y0276067D02*
X0188787Y0276067D01*
X0187668Y0277665D02*
X0191089Y0277665D01*
X0193878Y0277665D02*
X0194878Y0277665D01*
X0194878Y0276067D02*
X0193878Y0276067D01*
X0193878Y0272870D02*
X0194878Y0272870D01*
X0194878Y0271271D02*
X0193878Y0271271D01*
X0193878Y0269673D02*
X0194878Y0269673D01*
X0193878Y0268947D02*
X0193254Y0268848D01*
X0192536Y0268615D01*
X0191863Y0268272D01*
X0191251Y0267828D01*
X0190717Y0267294D01*
X0190273Y0266682D01*
X0189930Y0266009D01*
X0189697Y0265291D01*
X0189598Y0264667D01*
X0193878Y0264667D01*
X0193878Y0268947D01*
X0193878Y0268074D02*
X0194878Y0268074D01*
X0194878Y0266476D02*
X0193878Y0266476D01*
X0193878Y0264877D02*
X0194878Y0264877D01*
X0194878Y0263279D02*
X0193878Y0263279D01*
X0193878Y0261680D02*
X0194878Y0261680D01*
X0190258Y0261680D02*
X0188544Y0261680D01*
X0189178Y0263279D02*
X0189659Y0263279D01*
X0189631Y0264877D02*
X0189178Y0264877D01*
X0188617Y0266476D02*
X0190168Y0266476D01*
X0191591Y0268074D02*
X0187259Y0268074D01*
X0186073Y0269673D02*
X0192676Y0269673D01*
X0190549Y0271271D02*
X0188271Y0271271D01*
X0189037Y0272870D02*
X0189753Y0272870D01*
X0182684Y0269673D02*
X0180678Y0269673D01*
X0180678Y0268074D02*
X0181498Y0268074D01*
X0181089Y0277665D02*
X0180678Y0277665D01*
X0180678Y0279264D02*
X0220021Y0279264D01*
X0219478Y0280862D02*
X0207862Y0280862D01*
X0200894Y0280862D02*
X0197862Y0280862D01*
X0198871Y0282461D02*
X0199890Y0282461D01*
X0199578Y0284060D02*
X0194879Y0284060D01*
X0193878Y0284060D02*
X0189178Y0284060D01*
X0188956Y0285658D02*
X0189816Y0285658D01*
X0190690Y0287257D02*
X0188077Y0287257D01*
X0188867Y0282461D02*
X0189886Y0282461D01*
X0190894Y0280862D02*
X0187862Y0280862D01*
X0193878Y0280862D02*
X0194878Y0280862D01*
X0194878Y0282461D02*
X0193878Y0282461D01*
X0193878Y0285658D02*
X0194878Y0285658D01*
X0194878Y0287257D02*
X0193878Y0287257D01*
X0198067Y0287257D02*
X0200680Y0287257D01*
X0199801Y0285658D02*
X0198941Y0285658D01*
X0189774Y0292052D02*
X0249183Y0292052D01*
X0249105Y0292131D02*
X0249892Y0291343D01*
X0250922Y0290917D01*
X0252035Y0290917D01*
X0253065Y0291343D01*
X0253852Y0292131D01*
X0254278Y0293160D01*
X0254278Y0294274D01*
X0253852Y0295303D01*
X0253065Y0296090D01*
X0252035Y0296517D01*
X0250922Y0296517D01*
X0249892Y0296090D01*
X0249105Y0295303D01*
X0248678Y0294274D01*
X0248678Y0293160D01*
X0249105Y0292131D01*
X0248678Y0293651D02*
X0190628Y0293651D01*
X0190369Y0295249D02*
X0249083Y0295249D01*
X0253874Y0295249D02*
X0278264Y0295249D01*
X0278588Y0293651D02*
X0254278Y0293651D01*
X0253774Y0292052D02*
X0278328Y0292052D01*
X0277928Y0296848D02*
X0264604Y0296848D01*
X0264878Y0298446D02*
X0278598Y0298446D01*
X0282859Y0298446D02*
X0283830Y0298446D01*
X0285527Y0298446D02*
X0286148Y0298446D01*
X0291109Y0298446D02*
X0307298Y0298446D01*
X0307765Y0301643D02*
X0308492Y0301643D01*
X0312265Y0301643D02*
X0312992Y0301643D01*
X0316765Y0301643D02*
X0317492Y0301643D01*
X0321265Y0301643D02*
X0321992Y0301643D01*
X0325765Y0301643D02*
X0326492Y0301643D01*
X0330265Y0301643D02*
X0330992Y0301643D01*
X0334765Y0301643D02*
X0336275Y0301643D01*
X0338482Y0301643D02*
X0340775Y0301643D01*
X0340141Y0306439D02*
X0339116Y0306439D01*
X0335641Y0306439D02*
X0333624Y0306439D01*
X0332133Y0306439D02*
X0329124Y0306439D01*
X0327633Y0306439D02*
X0324624Y0306439D01*
X0323133Y0306439D02*
X0320124Y0306439D01*
X0318633Y0306439D02*
X0315624Y0306439D01*
X0314133Y0306439D02*
X0311124Y0306439D01*
X0309633Y0306439D02*
X0306624Y0306439D01*
X0305133Y0306439D02*
X0302124Y0306439D01*
X0300633Y0306439D02*
X0299060Y0306439D01*
X0294697Y0306439D02*
X0272666Y0306439D01*
X0273578Y0304840D02*
X0294313Y0304840D01*
X0294078Y0303242D02*
X0273343Y0303242D01*
X0271520Y0301643D02*
X0294992Y0301643D01*
X0298765Y0301643D02*
X0299492Y0301643D01*
X0303265Y0301643D02*
X0303992Y0301643D01*
X0294078Y0308037D02*
X0292859Y0308037D01*
X0293828Y0309636D02*
X0294436Y0309636D01*
X0294462Y0311234D02*
X0293617Y0311234D01*
X0294078Y0312833D02*
X0291909Y0312833D01*
X0290148Y0312833D02*
X0280348Y0312833D01*
X0280628Y0314431D02*
X0294633Y0314431D01*
X0280456Y0316030D02*
X0279825Y0316030D01*
X0279978Y0317628D02*
X0277028Y0317628D01*
X0276613Y0319227D02*
X0280394Y0319227D01*
X0275309Y0312833D02*
X0190348Y0312833D01*
X0185309Y0312833D02*
X0180678Y0312833D01*
X0180678Y0314431D02*
X0185028Y0314431D01*
X0185832Y0316030D02*
X0180678Y0316030D01*
X0180678Y0333613D02*
X0226135Y0333613D01*
X0224852Y0335212D02*
X0184333Y0335212D01*
X0184778Y0336810D02*
X0224806Y0336810D01*
X0225911Y0338409D02*
X0201730Y0338409D01*
X0202052Y0338731D02*
X0202478Y0339760D01*
X0202478Y0340874D01*
X0202052Y0341903D01*
X0201265Y0342690D01*
X0200235Y0343117D01*
X0199122Y0343117D01*
X0198092Y0342690D01*
X0197305Y0341903D01*
X0196878Y0340874D01*
X0196878Y0339760D01*
X0197305Y0338731D01*
X0198092Y0337943D01*
X0199122Y0337517D01*
X0200235Y0337517D01*
X0201265Y0337943D01*
X0202052Y0338731D01*
X0202478Y0340007D02*
X0226169Y0340007D01*
X0225878Y0341606D02*
X0202175Y0341606D01*
X0197182Y0341606D02*
X0180678Y0341606D01*
X0180678Y0343204D02*
X0185385Y0343204D01*
X0185292Y0343243D02*
X0186322Y0342817D01*
X0187435Y0342817D01*
X0188465Y0343243D01*
X0189252Y0344031D01*
X0189678Y0345060D01*
X0189678Y0346174D01*
X0189252Y0347203D01*
X0188838Y0347617D01*
X0189302Y0348081D01*
X0189728Y0349110D01*
X0189728Y0350224D01*
X0189302Y0351253D01*
X0188515Y0352040D01*
X0187485Y0352467D01*
X0186372Y0352467D01*
X0185342Y0352040D01*
X0184555Y0351253D01*
X0184128Y0350224D01*
X0184128Y0349110D01*
X0184555Y0348081D01*
X0184969Y0347667D01*
X0184505Y0347203D01*
X0184078Y0346174D01*
X0184078Y0345060D01*
X0184505Y0344031D01*
X0185292Y0343243D01*
X0184185Y0344803D02*
X0180678Y0344803D01*
X0180678Y0346401D02*
X0184173Y0346401D01*
X0184635Y0348000D02*
X0180678Y0348000D01*
X0180678Y0349598D02*
X0184128Y0349598D01*
X0184532Y0351197D02*
X0180678Y0351197D01*
X0180678Y0352795D02*
X0224620Y0352795D01*
X0224637Y0351197D02*
X0189325Y0351197D01*
X0189728Y0349598D02*
X0225850Y0349598D01*
X0227407Y0348000D02*
X0189222Y0348000D01*
X0189584Y0346401D02*
X0226064Y0346401D01*
X0225993Y0344803D02*
X0189572Y0344803D01*
X0188371Y0343204D02*
X0226656Y0343204D01*
X0225751Y0354394D02*
X0180678Y0354394D01*
X0180678Y0355993D02*
X0225517Y0355993D01*
X0225178Y0357591D02*
X0185248Y0357591D01*
X0185628Y0359190D02*
X0189246Y0359190D01*
X0188955Y0359481D02*
X0189742Y0358693D01*
X0190772Y0358267D01*
X0191885Y0358267D01*
X0192915Y0358693D01*
X0193702Y0359481D01*
X0194128Y0360510D01*
X0194128Y0361624D01*
X0193702Y0362653D01*
X0192915Y0363440D01*
X0191885Y0363867D01*
X0190772Y0363867D01*
X0189742Y0363440D01*
X0188955Y0362653D01*
X0188528Y0361624D01*
X0188528Y0360510D01*
X0188955Y0359481D01*
X0188528Y0360788D02*
X0185067Y0360788D01*
X0188844Y0362387D02*
X0180678Y0362387D01*
X0180678Y0363985D02*
X0195028Y0363985D01*
X0195426Y0365584D02*
X0180678Y0365584D01*
X0193812Y0362387D02*
X0195549Y0362387D01*
X0194128Y0360788D02*
X0236128Y0360788D01*
X0235828Y0362387D02*
X0230108Y0362387D01*
X0230628Y0363985D02*
X0236062Y0363985D01*
X0236957Y0365584D02*
X0230231Y0365584D01*
X0225426Y0365584D02*
X0210231Y0365584D01*
X0210628Y0363985D02*
X0225028Y0363985D01*
X0225549Y0362387D02*
X0210108Y0362387D01*
X0205549Y0362387D02*
X0200108Y0362387D01*
X0200628Y0363985D02*
X0205028Y0363985D01*
X0205426Y0365584D02*
X0200231Y0365584D01*
X0193411Y0359190D02*
X0225842Y0359190D01*
X0230115Y0359190D02*
X0237117Y0359190D01*
X0238641Y0357591D02*
X0230778Y0357591D01*
X0230440Y0355993D02*
X0236712Y0355993D01*
X0242616Y0357591D02*
X0248641Y0357591D01*
X0247117Y0359190D02*
X0244140Y0359190D01*
X0245129Y0360788D02*
X0246128Y0360788D01*
X0245828Y0362387D02*
X0245428Y0362387D01*
X0245195Y0363985D02*
X0246062Y0363985D01*
X0246957Y0365584D02*
X0244300Y0365584D01*
X0254300Y0365584D02*
X0256957Y0365584D01*
X0256062Y0363985D02*
X0255195Y0363985D01*
X0255428Y0362387D02*
X0255828Y0362387D01*
X0256128Y0360788D02*
X0255129Y0360788D01*
X0254140Y0359190D02*
X0257117Y0359190D01*
X0258641Y0357591D02*
X0252616Y0357591D01*
X0254545Y0355993D02*
X0256712Y0355993D01*
X0255964Y0354394D02*
X0255293Y0354394D01*
X0254987Y0351197D02*
X0256270Y0351197D01*
X0257458Y0349598D02*
X0253798Y0349598D01*
X0253383Y0348000D02*
X0257874Y0348000D01*
X0256442Y0346401D02*
X0254815Y0346401D01*
X0255428Y0344803D02*
X0255828Y0344803D01*
X0255828Y0343204D02*
X0255428Y0343204D01*
X0254846Y0341606D02*
X0256411Y0341606D01*
X0257800Y0340007D02*
X0253457Y0340007D01*
X0247800Y0340007D02*
X0243457Y0340007D01*
X0244846Y0341606D02*
X0246411Y0341606D01*
X0245828Y0343204D02*
X0245428Y0343204D01*
X0245428Y0344803D02*
X0245828Y0344803D01*
X0246442Y0346401D02*
X0244815Y0346401D01*
X0243383Y0348000D02*
X0247874Y0348000D01*
X0247458Y0349598D02*
X0243798Y0349598D01*
X0244987Y0351197D02*
X0246270Y0351197D01*
X0245964Y0354394D02*
X0245293Y0354394D01*
X0244545Y0355993D02*
X0246712Y0355993D01*
X0263798Y0349598D02*
X0280028Y0349598D01*
X0280240Y0348000D02*
X0263383Y0348000D01*
X0264815Y0346401D02*
X0281946Y0346401D01*
X0280999Y0351197D02*
X0264987Y0351197D01*
X0264846Y0341606D02*
X0271642Y0341606D01*
X0270187Y0340007D02*
X0263457Y0340007D01*
X0270070Y0338409D02*
X0238878Y0338409D01*
X0237932Y0336810D02*
X0271125Y0336810D01*
X0326472Y0312833D02*
X0331535Y0312833D01*
X0331078Y0311234D02*
X0327178Y0311234D01*
X0326858Y0309636D02*
X0331503Y0309636D01*
X0341762Y0292052D02*
X0314516Y0292052D01*
X0315763Y0290454D02*
X0340415Y0290454D01*
X0339243Y0288855D02*
X0315794Y0288855D01*
X0314678Y0287257D02*
X0337291Y0287257D01*
X0337028Y0285658D02*
X0307678Y0285658D01*
X0307409Y0284060D02*
X0337876Y0284060D01*
X0341781Y0284060D02*
X0354379Y0284060D01*
X0354579Y0285658D02*
X0348926Y0285658D01*
X0344031Y0285658D02*
X0342628Y0285658D01*
X0355374Y0282461D02*
X0304239Y0282461D01*
X0300280Y0284060D02*
X0295965Y0284060D01*
X0296228Y0282461D02*
X0298918Y0282461D01*
X0298839Y0280862D02*
X0295384Y0280862D01*
X0291473Y0280862D02*
X0285878Y0280862D01*
X0285632Y0279264D02*
X0299921Y0279264D01*
X0290628Y0282461D02*
X0284994Y0282461D01*
X0280318Y0284060D02*
X0290892Y0284060D01*
X0280525Y0279264D02*
X0280295Y0279264D01*
X0255518Y0279264D02*
X0244928Y0279264D01*
X0240029Y0279264D02*
X0234786Y0279264D01*
X0235578Y0280862D02*
X0239678Y0280862D01*
X0240313Y0282461D02*
X0235294Y0282461D01*
X0201089Y0277665D02*
X0197668Y0277665D01*
X0198797Y0276067D02*
X0199970Y0276067D01*
X0180894Y0280862D02*
X0180678Y0280862D01*
X0180678Y0287257D02*
X0180680Y0287257D01*
X0240354Y0255286D02*
X0253528Y0255286D01*
X0254041Y0244097D02*
X0254049Y0244097D01*
X0197459Y0232907D02*
X0184011Y0232907D01*
X0184045Y0231309D02*
X0196528Y0231309D01*
X0196756Y0229710D02*
X0183145Y0229710D01*
X0183227Y0234506D02*
X0183430Y0234506D01*
X0187227Y0234506D02*
X0187430Y0234506D01*
X0191227Y0234506D02*
X0191430Y0234506D01*
X0195227Y0234506D02*
X0196430Y0234506D01*
X0195447Y0242498D02*
X0185209Y0242498D01*
X0185628Y0244097D02*
X0195028Y0244097D01*
X0306848Y0287257D02*
X0311479Y0287257D01*
X0330692Y0279264D02*
X0339616Y0279264D01*
X0339028Y0277665D02*
X0330910Y0277665D01*
X0358983Y0282461D02*
X0375078Y0282461D01*
X0366042Y0301643D02*
X0365515Y0301643D01*
X0362042Y0301643D02*
X0359912Y0301643D01*
X0364886Y0306439D02*
X0366671Y0306439D01*
X0368053Y0314431D02*
X0371454Y0314431D01*
X0370828Y0316030D02*
X0368678Y0316030D01*
X0368324Y0317628D02*
X0371182Y0317628D01*
X0354828Y0348000D02*
X0352655Y0348000D01*
X0197626Y0338409D02*
X0184346Y0338409D01*
X0180678Y0340007D02*
X0196878Y0340007D01*
M02*
