G75*
%MOIN*%
%OFA0B0*%
%FSLAX24Y24*%
%IPPOS*%
%LPD*%
%AMOC8*
5,1,8,0,0,1.08239X$1,22.5*
%
%ADD10R,0.0453X0.0414*%
%ADD11R,0.0355X0.0374*%
%ADD12R,0.0374X0.0355*%
%ADD13C,0.0416*%
%ADD14C,0.0760*%
%ADD15R,0.0611X0.0532*%
%ADD16C,0.0124*%
%ADD17R,0.0256X0.0256*%
%ADD18R,0.0256X0.0256*%
%ADD19R,0.0611X0.0296*%
%ADD20R,0.0256X0.0414*%
%ADD21R,0.0335X0.0414*%
%ADD22C,0.0374*%
%ADD23R,0.0132X0.0453*%
%ADD24R,0.0453X0.0132*%
%ADD25OC8,0.0870*%
%ADD26R,0.0807X0.0492*%
%ADD27R,0.0945X0.0650*%
%ADD28R,0.0137X0.0355*%
%ADD29R,0.0296X0.0130*%
%ADD30R,0.0414X0.0453*%
%ADD31R,0.0295X0.0669*%
%ADD32R,0.0531X0.0354*%
%ADD33R,0.0315X0.0197*%
%ADD34R,0.0197X0.0315*%
%ADD35R,0.0118X0.0177*%
%ADD36R,0.0177X0.0118*%
%ADD37R,0.0807X0.0807*%
%ADD38C,0.0111*%
%ADD39R,0.0414X0.0689*%
%ADD40R,0.0453X0.0768*%
%ADD41R,0.0300X0.0580*%
%ADD42R,0.1020X0.1020*%
%ADD43R,0.0689X0.0414*%
%ADD44R,0.0296X0.0374*%
%ADD45R,0.0374X0.0296*%
%ADD46C,0.0335*%
%ADD47R,0.0570X0.0320*%
%ADD48R,0.0260X0.0140*%
%ADD49C,0.0300*%
D10*
X026070Y022682D03*
X026739Y022682D03*
X028930Y022867D03*
X029599Y022867D03*
X031625Y024922D03*
X032294Y024922D03*
X036070Y033847D03*
X036739Y033847D03*
G36*
X034074Y035487D02*
X034393Y035168D01*
X034100Y034875D01*
X033781Y035194D01*
X034074Y035487D01*
G37*
G36*
X033601Y035961D02*
X033920Y035642D01*
X033627Y035349D01*
X033308Y035668D01*
X033601Y035961D01*
G37*
G36*
X033431Y034808D02*
X033750Y035127D01*
X034043Y034834D01*
X033724Y034515D01*
X033431Y034808D01*
G37*
G36*
X032957Y034335D02*
X033276Y034654D01*
X033569Y034361D01*
X033250Y034042D01*
X032957Y034335D01*
G37*
X031399Y035247D03*
X030730Y035247D03*
D11*
X031916Y035237D03*
X032373Y035237D03*
G36*
X033862Y034497D02*
X034112Y034747D01*
X034376Y034483D01*
X034126Y034233D01*
X033862Y034497D01*
G37*
G36*
X034185Y034820D02*
X034435Y035070D01*
X034699Y034806D01*
X034449Y034556D01*
X034185Y034820D01*
G37*
X035046Y033277D03*
X035503Y033277D03*
X036266Y033262D03*
X036723Y033262D03*
X035703Y030497D03*
X035246Y030497D03*
X026178Y029387D03*
X025721Y029387D03*
X028941Y023447D03*
X029398Y023447D03*
X026633Y023282D03*
X026176Y023282D03*
X022383Y019572D03*
X021926Y019572D03*
X019478Y020182D03*
X019021Y020182D03*
X021876Y017797D03*
X022333Y017797D03*
X019478Y023082D03*
X019021Y023082D03*
D12*
X022730Y021800D03*
X022730Y021343D03*
X022730Y020775D03*
X022730Y020318D03*
X020405Y018675D03*
X020405Y018218D03*
X019855Y018218D03*
X019855Y018675D03*
X021355Y018225D03*
X021355Y017768D03*
X031190Y019143D03*
X031190Y019600D03*
X030130Y023918D03*
X030130Y024375D03*
X030555Y027318D03*
X030555Y027775D03*
X034585Y027748D03*
X034585Y028205D03*
X025050Y029763D03*
X025050Y030220D03*
X024025Y029380D03*
X024025Y028923D03*
X022795Y030488D03*
X022795Y030945D03*
X018670Y033708D03*
X018670Y034165D03*
D13*
X032220Y027807D03*
X032720Y027807D03*
X032720Y027307D03*
X032720Y026807D03*
X032720Y026307D03*
X032720Y025807D03*
X032220Y025807D03*
X032220Y026307D03*
X032220Y026807D03*
X032220Y027307D03*
D14*
X034305Y019972D03*
X035305Y019972D03*
D15*
X028210Y022603D03*
X028210Y023351D03*
D16*
X025311Y022829D02*
X025106Y023034D01*
X025311Y023239D01*
X025516Y023034D01*
X025311Y022829D01*
X025434Y022952D02*
X025188Y022952D01*
X025147Y023075D02*
X025475Y023075D01*
X025352Y023198D02*
X025270Y023198D01*
X024957Y023183D02*
X024752Y023388D01*
X024957Y023593D01*
X025162Y023388D01*
X024957Y023183D01*
X025080Y023306D02*
X024834Y023306D01*
X024793Y023429D02*
X025121Y023429D01*
X024998Y023552D02*
X024916Y023552D01*
X024604Y023536D02*
X024399Y023741D01*
X024604Y023946D01*
X024809Y023741D01*
X024604Y023536D01*
X024727Y023659D02*
X024481Y023659D01*
X024440Y023782D02*
X024768Y023782D01*
X024645Y023905D02*
X024563Y023905D01*
X023910Y023253D02*
X024115Y023048D01*
X023910Y023253D02*
X024115Y023458D01*
X024320Y023253D01*
X024115Y023048D01*
X024238Y023171D02*
X023992Y023171D01*
X023951Y023294D02*
X024279Y023294D01*
X024156Y023417D02*
X024074Y023417D01*
X024264Y022899D02*
X024469Y022694D01*
X024264Y022899D02*
X024469Y023104D01*
X024674Y022899D01*
X024469Y022694D01*
X024592Y022817D02*
X024346Y022817D01*
X024305Y022940D02*
X024633Y022940D01*
X024510Y023063D02*
X024428Y023063D01*
X024617Y022546D02*
X024822Y022341D01*
X024617Y022546D02*
X024822Y022751D01*
X025027Y022546D01*
X024822Y022341D01*
X024945Y022464D02*
X024699Y022464D01*
X024658Y022587D02*
X024986Y022587D01*
X024863Y022710D02*
X024781Y022710D01*
D17*
X019965Y021342D03*
X019965Y020942D03*
X022930Y019822D03*
X022930Y019422D03*
X030515Y020622D03*
X030915Y020622D03*
X031415Y020622D03*
X031415Y021022D03*
X031965Y021022D03*
X032365Y021022D03*
X032865Y021022D03*
X033265Y021022D03*
X033595Y025567D03*
X033595Y025967D03*
X035350Y026037D03*
X035350Y026437D03*
X035770Y026437D03*
X035770Y026037D03*
X036190Y026037D03*
X036190Y026437D03*
X036610Y026437D03*
X036610Y026037D03*
X036400Y026857D03*
X036400Y027257D03*
X035980Y027257D03*
X035980Y026857D03*
X035560Y026857D03*
X035560Y027257D03*
X035140Y027257D03*
X035140Y026857D03*
X032635Y028697D03*
X032235Y028697D03*
X031675Y029292D03*
X031675Y029667D03*
X031275Y029667D03*
X031275Y029292D03*
X031260Y027752D03*
X031260Y027352D03*
X031210Y026082D03*
X031210Y025682D03*
X020845Y031552D03*
X020845Y031952D03*
X020425Y031952D03*
X020425Y031552D03*
X020005Y031552D03*
X020005Y031952D03*
X019585Y031952D03*
X019585Y031552D03*
X019795Y032372D03*
X019795Y032772D03*
X020215Y032772D03*
X020215Y032372D03*
X020635Y032372D03*
X020635Y032772D03*
X019375Y032772D03*
X019375Y032372D03*
X021840Y034307D03*
X021840Y034682D03*
X022240Y034682D03*
X022240Y034307D03*
X022240Y035102D03*
X021840Y035102D03*
X021840Y035522D03*
X022240Y035522D03*
X022240Y035942D03*
X021840Y035942D03*
X021420Y035732D03*
X021020Y035732D03*
X021020Y035312D03*
X021420Y035312D03*
X021420Y034892D03*
X021020Y034892D03*
X029195Y032587D03*
X029595Y032587D03*
X031145Y034212D03*
X031145Y034612D03*
X032005Y034407D03*
X032005Y034007D03*
D18*
G36*
X035264Y034215D02*
X035083Y034034D01*
X034902Y034215D01*
X035083Y034396D01*
X035264Y034215D01*
G37*
G36*
X035547Y034498D02*
X035366Y034317D01*
X035185Y034498D01*
X035366Y034679D01*
X035547Y034498D01*
G37*
G36*
X035842Y034193D02*
X035661Y034012D01*
X035480Y034193D01*
X035661Y034374D01*
X035842Y034193D01*
G37*
G36*
X035559Y033910D02*
X035378Y033729D01*
X035197Y033910D01*
X035378Y034091D01*
X035559Y033910D01*
G37*
G36*
X030770Y023784D02*
X030951Y023965D01*
X031132Y023784D01*
X030951Y023603D01*
X030770Y023784D01*
G37*
G36*
X030487Y023501D02*
X030668Y023682D01*
X030849Y023501D01*
X030668Y023320D01*
X030487Y023501D01*
G37*
G36*
X030339Y023056D02*
X030520Y023237D01*
X030701Y023056D01*
X030520Y022875D01*
X030339Y023056D01*
G37*
G36*
X030056Y022773D02*
X030237Y022954D01*
X030418Y022773D01*
X030237Y022592D01*
X030056Y022773D01*
G37*
G36*
X030353Y022476D02*
X030534Y022657D01*
X030715Y022476D01*
X030534Y022295D01*
X030353Y022476D01*
G37*
G36*
X030636Y022759D02*
X030817Y022940D01*
X030998Y022759D01*
X030817Y022578D01*
X030636Y022759D01*
G37*
G36*
X030784Y023204D02*
X030965Y023385D01*
X031146Y023204D01*
X030965Y023023D01*
X030784Y023204D01*
G37*
G36*
X031067Y023487D02*
X031248Y023668D01*
X031429Y023487D01*
X031248Y023306D01*
X031067Y023487D01*
G37*
G36*
X031364Y023190D02*
X031545Y023371D01*
X031726Y023190D01*
X031545Y023009D01*
X031364Y023190D01*
G37*
G36*
X031081Y022907D02*
X031262Y023088D01*
X031443Y022907D01*
X031262Y022726D01*
X031081Y022907D01*
G37*
G36*
X030933Y022462D02*
X031114Y022643D01*
X031295Y022462D01*
X031114Y022281D01*
X030933Y022462D01*
G37*
G36*
X030650Y022179D02*
X030831Y022360D01*
X031012Y022179D01*
X030831Y021998D01*
X030650Y022179D01*
G37*
G36*
X030947Y021882D02*
X031128Y022063D01*
X031309Y021882D01*
X031128Y021701D01*
X030947Y021882D01*
G37*
G36*
X031230Y022165D02*
X031411Y022346D01*
X031592Y022165D01*
X031411Y021984D01*
X031230Y022165D01*
G37*
G36*
X031378Y022610D02*
X031559Y022791D01*
X031740Y022610D01*
X031559Y022429D01*
X031378Y022610D01*
G37*
G36*
X031661Y022893D02*
X031842Y023074D01*
X032023Y022893D01*
X031842Y022712D01*
X031661Y022893D01*
G37*
G36*
X024682Y022224D02*
X024501Y022043D01*
X024320Y022224D01*
X024501Y022405D01*
X024682Y022224D01*
G37*
G36*
X024399Y021941D02*
X024218Y021760D01*
X024037Y021941D01*
X024218Y022122D01*
X024399Y021941D01*
G37*
G36*
X024046Y022295D02*
X023865Y022114D01*
X023684Y022295D01*
X023865Y022476D01*
X024046Y022295D01*
G37*
G36*
X024328Y022578D02*
X024147Y022397D01*
X023966Y022578D01*
X024147Y022759D01*
X024328Y022578D01*
G37*
G36*
X023975Y022931D02*
X023794Y022750D01*
X023613Y022931D01*
X023794Y023112D01*
X023975Y022931D01*
G37*
G36*
X023692Y022649D02*
X023511Y022468D01*
X023330Y022649D01*
X023511Y022830D01*
X023692Y022649D01*
G37*
D19*
X036276Y020077D03*
X036276Y019487D03*
X036276Y018306D03*
D20*
X037358Y017755D03*
X037358Y020629D03*
D21*
X036531Y020629D03*
X036531Y017755D03*
D22*
X036965Y018601D03*
X036965Y019782D03*
D23*
X028831Y024103D03*
X028634Y024103D03*
X028437Y024103D03*
X028240Y024103D03*
X028043Y024103D03*
X027847Y024103D03*
X027650Y024103D03*
X027453Y024103D03*
X027256Y024103D03*
X027059Y024103D03*
X026862Y024103D03*
X026666Y024103D03*
X026469Y024103D03*
X026272Y024103D03*
X026075Y024103D03*
X025878Y024103D03*
X025878Y028591D03*
X026075Y028591D03*
X026272Y028591D03*
X026469Y028591D03*
X026666Y028591D03*
X026862Y028591D03*
X027059Y028591D03*
X027256Y028591D03*
X027453Y028591D03*
X027650Y028591D03*
X027847Y028591D03*
X028043Y028591D03*
X028240Y028591D03*
X028437Y028591D03*
X028634Y028591D03*
X028831Y028591D03*
D24*
X029599Y027823D03*
X029599Y027626D03*
X029599Y027429D03*
X029599Y027232D03*
X029599Y027036D03*
X029599Y026839D03*
X029599Y026642D03*
X029599Y026445D03*
X029599Y026248D03*
X029599Y026051D03*
X029599Y025855D03*
X029599Y025658D03*
X029599Y025461D03*
X029599Y025264D03*
X029599Y025067D03*
X029599Y024870D03*
X025110Y024870D03*
X025110Y025067D03*
X025110Y025264D03*
X025110Y025461D03*
X025110Y025658D03*
X025110Y025855D03*
X025110Y026051D03*
X025110Y026248D03*
X025110Y026445D03*
X025110Y026642D03*
X025110Y026839D03*
X025110Y027036D03*
X025110Y027232D03*
X025110Y027429D03*
X025110Y027626D03*
X025110Y027823D03*
D25*
X020405Y027417D03*
X020405Y026417D03*
X019405Y026417D03*
X018405Y026417D03*
X018405Y027417D03*
X019405Y027417D03*
X019405Y028417D03*
X018405Y028417D03*
X020405Y028417D03*
X024030Y034397D03*
X025030Y034397D03*
X025030Y035322D03*
X024030Y035322D03*
X024030Y036247D03*
X025030Y036247D03*
X026030Y036247D03*
X026030Y035322D03*
X026030Y034397D03*
X035080Y023922D03*
X036080Y023922D03*
X037080Y023922D03*
X037080Y022922D03*
X036080Y022922D03*
X035080Y022922D03*
X035070Y021932D03*
X036080Y021922D03*
X037080Y021922D03*
X026775Y019527D03*
X025775Y019527D03*
X024775Y019527D03*
X024775Y018527D03*
X025775Y018527D03*
X026775Y018527D03*
X026775Y017527D03*
X025775Y017527D03*
X024775Y017527D03*
D26*
X029115Y018742D03*
X030215Y018742D03*
X030215Y020002D03*
X029115Y020002D03*
D27*
X032165Y019722D03*
D28*
X032165Y019141D03*
X032361Y019141D03*
X032558Y019141D03*
X031968Y019141D03*
X031771Y019141D03*
X031771Y020302D03*
X031968Y020302D03*
X032165Y020302D03*
X032361Y020302D03*
X032558Y020302D03*
D29*
X032755Y019820D03*
X032755Y019623D03*
X031574Y019623D03*
X031574Y019820D03*
D30*
X033315Y020056D03*
X033315Y019387D03*
X023530Y020187D03*
X023530Y020856D03*
D31*
X032194Y018172D03*
X033435Y018172D03*
D32*
X033316Y018683D03*
X032313Y018683D03*
X032313Y017660D03*
X033316Y017660D03*
D33*
X033737Y021693D03*
X033737Y022150D03*
X034272Y022150D03*
X034272Y021697D03*
X034272Y022697D03*
X034272Y023150D03*
X033737Y023150D03*
X033737Y022693D03*
X033737Y023693D03*
X033737Y024150D03*
X034272Y024150D03*
X034272Y023697D03*
X021747Y026188D03*
X021747Y026645D03*
X021212Y026641D03*
X021212Y026188D03*
X021212Y027188D03*
X021212Y027641D03*
X021747Y027645D03*
X021747Y027188D03*
X021747Y028188D03*
X021747Y028645D03*
X021212Y028641D03*
X021212Y028188D03*
D34*
X023801Y033054D03*
X024258Y033054D03*
X024254Y033589D03*
X023801Y033589D03*
X024801Y033589D03*
X025254Y033589D03*
X025258Y033054D03*
X024801Y033054D03*
X025801Y033054D03*
X026258Y033054D03*
X026254Y033589D03*
X025801Y033589D03*
X026003Y020869D03*
X025546Y020869D03*
X025550Y020334D03*
X026003Y020334D03*
X026550Y020334D03*
X027003Y020334D03*
X027003Y020869D03*
X026546Y020869D03*
X025003Y020869D03*
X024546Y020869D03*
X024550Y020334D03*
X025003Y020334D03*
D35*
X021598Y020188D03*
X021401Y020188D03*
X021205Y020188D03*
X021008Y020188D03*
X020811Y020188D03*
X020811Y021605D03*
X021008Y021605D03*
X021205Y021605D03*
X021401Y021605D03*
X021598Y021605D03*
X035182Y027768D03*
X035379Y027768D03*
X035576Y027768D03*
X035773Y027768D03*
X035970Y027768D03*
X036167Y027768D03*
X036167Y029185D03*
X035970Y029185D03*
X035773Y029185D03*
X035576Y029185D03*
X035379Y029185D03*
X035182Y029185D03*
X033943Y031791D03*
X033747Y031791D03*
X033550Y031791D03*
X033353Y031791D03*
X033156Y031791D03*
X032959Y031791D03*
X032762Y031791D03*
X032566Y031791D03*
X032566Y033602D03*
X032762Y033602D03*
X032959Y033602D03*
X033156Y033602D03*
X033353Y033602D03*
X033550Y033602D03*
X033747Y033602D03*
X033943Y033602D03*
X020417Y033338D03*
X020220Y033338D03*
X020023Y033338D03*
X019826Y033338D03*
X019629Y033338D03*
X019432Y033338D03*
X019432Y034755D03*
X019629Y034755D03*
X019826Y034755D03*
X020023Y034755D03*
X020220Y034755D03*
X020417Y034755D03*
D36*
X020633Y034539D03*
X020633Y034342D03*
X020633Y034145D03*
X020633Y033948D03*
X020633Y033751D03*
X020633Y033555D03*
X019216Y033555D03*
X019216Y033751D03*
X019216Y033948D03*
X019216Y034145D03*
X019216Y034342D03*
X019216Y034539D03*
X032349Y033386D03*
X032349Y033189D03*
X032349Y032992D03*
X032349Y032795D03*
X032349Y032598D03*
X032349Y032401D03*
X032349Y032205D03*
X032349Y032008D03*
X034160Y032008D03*
X034160Y032205D03*
X034160Y032401D03*
X034160Y032598D03*
X034160Y032795D03*
X034160Y032992D03*
X034160Y033189D03*
X034160Y033386D03*
X034966Y028969D03*
X034966Y028772D03*
X034966Y028575D03*
X034966Y028378D03*
X034966Y028181D03*
X034966Y027985D03*
X036383Y027985D03*
X036383Y028181D03*
X036383Y028378D03*
X036383Y028575D03*
X036383Y028772D03*
X036383Y028969D03*
X021913Y021290D03*
X021913Y021094D03*
X021913Y020897D03*
X021913Y020700D03*
X021913Y020503D03*
X020496Y020503D03*
X020496Y020700D03*
X020496Y020897D03*
X020496Y021094D03*
X020496Y021290D03*
D37*
X035675Y028477D03*
X019925Y034047D03*
D38*
X023551Y031280D02*
X023551Y031134D01*
X023551Y031280D02*
X023551Y031280D01*
X023551Y031134D01*
X023551Y031134D01*
X023551Y031244D02*
X023551Y031244D01*
X023708Y031280D02*
X023708Y031134D01*
X023708Y031280D02*
X023708Y031280D01*
X023708Y031134D01*
X023708Y031134D01*
X023708Y031244D02*
X023708Y031244D01*
X023866Y031280D02*
X023866Y031134D01*
X023866Y031280D02*
X023866Y031280D01*
X023866Y031134D01*
X023866Y031134D01*
X023866Y031244D02*
X023866Y031244D01*
X024023Y031280D02*
X024023Y031134D01*
X024023Y031280D02*
X024023Y031280D01*
X024023Y031134D01*
X024023Y031134D01*
X024023Y031244D02*
X024023Y031244D01*
X024181Y031280D02*
X024181Y031134D01*
X024181Y031280D02*
X024181Y031280D01*
X024181Y031134D01*
X024181Y031134D01*
X024181Y031244D02*
X024181Y031244D01*
X024338Y031280D02*
X024338Y031134D01*
X024338Y031280D02*
X024338Y031280D01*
X024338Y031134D01*
X024338Y031134D01*
X024338Y031244D02*
X024338Y031244D01*
X024462Y031010D02*
X024608Y031010D01*
X024608Y031010D01*
X024462Y031010D01*
X024462Y031010D01*
X024462Y030853D02*
X024608Y030853D01*
X024608Y030853D01*
X024462Y030853D01*
X024462Y030853D01*
X024462Y030695D02*
X024608Y030695D01*
X024608Y030695D01*
X024462Y030695D01*
X024462Y030695D01*
X024462Y030538D02*
X024608Y030538D01*
X024608Y030538D01*
X024462Y030538D01*
X024462Y030538D01*
X024462Y030380D02*
X024608Y030380D01*
X024608Y030380D01*
X024462Y030380D01*
X024462Y030380D01*
X024462Y030223D02*
X024608Y030223D01*
X024608Y030223D01*
X024462Y030223D01*
X024462Y030223D01*
X024338Y030099D02*
X024338Y029953D01*
X024338Y029953D01*
X024338Y030099D01*
X024338Y030099D01*
X024338Y030063D02*
X024338Y030063D01*
X024181Y030099D02*
X024181Y029953D01*
X024181Y029953D01*
X024181Y030099D01*
X024181Y030099D01*
X024181Y030063D02*
X024181Y030063D01*
X024023Y030099D02*
X024023Y029953D01*
X024023Y029953D01*
X024023Y030099D01*
X024023Y030099D01*
X024023Y030063D02*
X024023Y030063D01*
X023866Y030099D02*
X023866Y029953D01*
X023866Y029953D01*
X023866Y030099D01*
X023866Y030099D01*
X023866Y030063D02*
X023866Y030063D01*
X023708Y030099D02*
X023708Y029953D01*
X023708Y029953D01*
X023708Y030099D01*
X023708Y030099D01*
X023708Y030063D02*
X023708Y030063D01*
X023551Y030099D02*
X023551Y029953D01*
X023551Y029953D01*
X023551Y030099D01*
X023551Y030099D01*
X023551Y030063D02*
X023551Y030063D01*
X023427Y030223D02*
X023281Y030223D01*
X023281Y030223D01*
X023427Y030223D01*
X023427Y030223D01*
X023427Y030380D02*
X023281Y030380D01*
X023281Y030380D01*
X023427Y030380D01*
X023427Y030380D01*
X023427Y030538D02*
X023281Y030538D01*
X023281Y030538D01*
X023427Y030538D01*
X023427Y030538D01*
X023427Y030695D02*
X023281Y030695D01*
X023281Y030695D01*
X023427Y030695D01*
X023427Y030695D01*
X023427Y030853D02*
X023281Y030853D01*
X023281Y030853D01*
X023427Y030853D01*
X023427Y030853D01*
X023427Y031010D02*
X023281Y031010D01*
X023281Y031010D01*
X023427Y031010D01*
X023427Y031010D01*
D39*
X036152Y036187D03*
X037137Y036187D03*
D40*
X035907Y032620D03*
X035002Y032620D03*
X035002Y031163D03*
X035907Y031163D03*
X019502Y022360D03*
X018597Y022360D03*
X018597Y020903D03*
X019502Y020903D03*
D41*
X030196Y031731D03*
X030668Y031731D03*
X031141Y031731D03*
X031613Y031731D03*
X031613Y033663D03*
X031141Y033663D03*
X030668Y033663D03*
X030196Y033663D03*
D42*
X033255Y032697D03*
D43*
X018355Y017555D03*
X018355Y018539D03*
D44*
X020349Y019197D03*
X020860Y019197D03*
X020849Y019697D03*
X021360Y019697D03*
D45*
X021355Y019203D03*
X021355Y018691D03*
D46*
X021645Y022347D03*
X022645Y022967D03*
X021995Y023032D03*
X023740Y023502D03*
X024225Y024247D03*
X023745Y024487D03*
X030630Y026867D03*
X030510Y029887D03*
X029530Y030032D03*
X029145Y030492D03*
X028680Y030617D03*
X028305Y030617D03*
X028055Y031077D03*
X028850Y031527D03*
X024605Y031672D03*
X024715Y029002D03*
X024985Y028622D03*
X018215Y034592D03*
X018215Y034982D03*
X019100Y035392D03*
D47*
X030655Y025452D03*
X030655Y024882D03*
D48*
X030451Y028929D03*
X030451Y029165D03*
X030018Y029165D03*
X030018Y028929D03*
D49*
X029740Y028682D03*
X029310Y028287D03*
X030125Y028157D03*
X030455Y028527D03*
X031275Y028962D03*
X030915Y029667D03*
X032000Y029477D03*
X031905Y030372D03*
X032355Y030372D03*
X032805Y030372D03*
X033255Y030372D03*
X033705Y030422D03*
X034155Y030422D03*
X034005Y031022D03*
X033905Y031497D03*
X033355Y031122D03*
X032405Y031097D03*
X032205Y031447D03*
X032005Y031822D03*
X031090Y032362D03*
X030480Y032322D03*
X029655Y031722D03*
X029655Y031272D03*
X029655Y030822D03*
X029655Y030372D03*
X030105Y030372D03*
X030555Y030372D03*
X031005Y030372D03*
X031455Y030372D03*
X029445Y029272D03*
X029140Y028972D03*
X028830Y029712D03*
X028435Y029577D03*
X028040Y029662D03*
X028080Y029247D03*
X027845Y028167D03*
X028275Y028042D03*
X028745Y027102D03*
X029130Y027232D03*
X028870Y026532D03*
X027750Y026407D03*
X027250Y027407D03*
X026180Y027432D03*
X025760Y027777D03*
X025820Y026892D03*
X025700Y026372D03*
X024590Y026047D03*
X024315Y026357D03*
X023750Y025407D03*
X022750Y025407D03*
X021750Y025407D03*
X020750Y025407D03*
X020750Y024407D03*
X019750Y024407D03*
X019800Y023657D03*
X019300Y023657D03*
X018900Y023657D03*
X018500Y023657D03*
X018100Y023657D03*
X018100Y023207D03*
X018100Y022757D03*
X018100Y022307D03*
X018100Y021857D03*
X018100Y021407D03*
X018100Y020957D03*
X018100Y020507D03*
X018100Y020057D03*
X018500Y020057D03*
X018500Y019607D03*
X018900Y019607D03*
X019300Y019607D03*
X019700Y019607D03*
X020065Y020167D03*
X019055Y020867D03*
X018670Y021612D03*
X019050Y022377D03*
X019535Y021722D03*
X020280Y021732D03*
X020855Y022272D03*
X020530Y022807D03*
X019900Y023082D03*
X021750Y023407D03*
X022970Y023547D03*
X023485Y024192D03*
X025115Y024297D03*
X025215Y023882D03*
X025545Y023652D03*
X025730Y023282D03*
X025615Y022662D03*
X027080Y023187D03*
X027255Y023622D03*
X027640Y022817D03*
X027640Y022417D03*
X030100Y023267D03*
X031615Y023557D03*
X032045Y023637D03*
X031635Y024152D03*
X031165Y024062D03*
X030725Y024122D03*
X029580Y024097D03*
X029180Y024097D03*
X029105Y025672D03*
X030130Y025687D03*
X031185Y025212D03*
X031820Y025412D03*
X033165Y025642D03*
X033980Y026322D03*
X033540Y026637D03*
X034150Y027752D03*
X034130Y028242D03*
X033950Y028607D03*
X034275Y028957D03*
X034615Y028707D03*
X035685Y028462D03*
X036845Y028577D03*
X036845Y029032D03*
X036555Y029487D03*
X037330Y030022D03*
X037330Y030422D03*
X037330Y030822D03*
X037330Y031222D03*
X037330Y031622D03*
X037330Y032022D03*
X037330Y032422D03*
X037330Y032822D03*
X037330Y033222D03*
X037330Y033622D03*
X037330Y034022D03*
X037330Y034422D03*
X037330Y034822D03*
X036930Y034822D03*
X036530Y034822D03*
X036130Y034822D03*
X035730Y034847D03*
X035380Y035122D03*
X034980Y034922D03*
X034605Y034322D03*
X034305Y033947D03*
X034855Y033847D03*
X035605Y033672D03*
X036355Y034372D03*
X034505Y035722D03*
X034505Y036172D03*
X034955Y036172D03*
X035355Y036172D03*
X034055Y036172D03*
X033605Y036172D03*
X033155Y036172D03*
X032750Y036407D03*
X032805Y035822D03*
X032355Y035822D03*
X031905Y035822D03*
X031455Y035822D03*
X031005Y035822D03*
X030555Y035822D03*
X030105Y035822D03*
X029655Y035822D03*
X029655Y035372D03*
X030105Y035347D03*
X029655Y034422D03*
X029655Y034022D03*
X029300Y033792D03*
X029655Y033572D03*
X029655Y033122D03*
X030380Y033147D03*
X030855Y032997D03*
X031605Y033097D03*
X032125Y033602D03*
X032730Y034047D03*
X032530Y034597D03*
X032905Y034772D03*
X032775Y035237D03*
X033255Y035172D03*
X031250Y036407D03*
X029750Y036407D03*
X028250Y036407D03*
X027250Y035407D03*
X028250Y034907D03*
X028325Y033827D03*
X028965Y033387D03*
X030430Y034137D03*
X033255Y032672D03*
X034455Y032897D03*
X035450Y032507D03*
X035840Y031902D03*
X036555Y031622D03*
X035440Y031237D03*
X034985Y031827D03*
X036605Y032522D03*
X036560Y030937D03*
X036745Y030387D03*
X036345Y030387D03*
X035730Y029997D03*
X035330Y029997D03*
X034930Y029997D03*
X034855Y030522D03*
X033025Y028672D03*
X031700Y027752D03*
X030940Y027782D03*
X030935Y027322D03*
X030105Y026962D03*
X030150Y026517D03*
X030655Y026502D03*
X031315Y026492D03*
X034880Y025792D03*
X037250Y025907D03*
X037250Y024907D03*
X034680Y023422D03*
X034655Y022422D03*
X034655Y021447D03*
X034835Y021037D03*
X035235Y021037D03*
X035635Y021037D03*
X036035Y021037D03*
X036435Y021037D03*
X036835Y021037D03*
X037235Y021037D03*
X034435Y021037D03*
X034035Y021037D03*
X033635Y021037D03*
X033360Y021402D03*
X032960Y021402D03*
X032560Y021402D03*
X032160Y021402D03*
X031760Y021402D03*
X031360Y021402D03*
X030960Y021052D03*
X030560Y021052D03*
X030160Y021052D03*
X030165Y020622D03*
X029765Y020472D03*
X029765Y020872D03*
X029365Y020472D03*
X028965Y020472D03*
X028390Y020472D03*
X028390Y020072D03*
X028390Y019672D03*
X026275Y019927D03*
X025275Y019952D03*
X023955Y020122D03*
X023955Y020547D03*
X023955Y020947D03*
X023755Y021347D03*
X023355Y021347D03*
X023355Y021747D03*
X023355Y022147D03*
X022655Y022272D03*
X022305Y021947D03*
X023130Y020897D03*
X023130Y020272D03*
X023355Y019722D03*
X023755Y019722D03*
X023355Y019322D03*
X023355Y018922D03*
X022955Y018922D03*
X022955Y018522D03*
X022955Y018122D03*
X022955Y017722D03*
X022955Y017322D03*
X022555Y017322D03*
X022155Y017322D03*
X021755Y017322D03*
X021355Y017322D03*
X020955Y017322D03*
X020555Y017322D03*
X020155Y017322D03*
X019755Y017322D03*
X019755Y017822D03*
X020155Y017822D03*
X020555Y017822D03*
X020905Y018222D03*
X020905Y018672D03*
X021930Y019172D03*
X022380Y019172D03*
X024050Y019042D03*
X023750Y017907D03*
X027750Y017907D03*
X029140Y018172D03*
X029540Y017772D03*
X029940Y018172D03*
X030340Y017772D03*
X030740Y018172D03*
X031140Y018572D03*
X031540Y018172D03*
X031140Y017772D03*
X031540Y017372D03*
X030740Y017372D03*
X029940Y017372D03*
X029140Y017372D03*
X032365Y017272D03*
X032765Y017272D03*
X033165Y017272D03*
X033605Y017272D03*
X034005Y017272D03*
X034405Y017272D03*
X034805Y017272D03*
X035205Y017272D03*
X035605Y017272D03*
X036005Y017272D03*
X036405Y017272D03*
X036805Y017272D03*
X037205Y017272D03*
X033905Y018172D03*
X032165Y019722D03*
X030965Y020072D03*
X032090Y020692D03*
X032550Y022472D03*
X032260Y022957D03*
X026750Y025407D03*
X025570Y025657D03*
X025555Y024197D03*
X023985Y021712D03*
X018100Y019607D03*
X018250Y024407D03*
X018250Y024907D03*
X018750Y025407D03*
X020810Y026917D03*
X020835Y027917D03*
X022115Y027997D03*
X022760Y028032D03*
X023245Y028122D03*
X022925Y028662D03*
X022310Y029127D03*
X023385Y029672D03*
X023510Y029252D03*
X022920Y029787D03*
X021750Y030407D03*
X021485Y029907D03*
X020990Y029902D03*
X020390Y029892D03*
X020570Y030522D03*
X020005Y030497D03*
X018750Y031407D03*
X018250Y031907D03*
X018165Y033682D03*
X018170Y034162D03*
X018655Y034562D03*
X018660Y034967D03*
X018250Y035907D03*
X019100Y036107D03*
X019750Y036407D03*
X020750Y036407D03*
X022750Y036407D03*
X022765Y035737D03*
X022700Y035202D03*
X022840Y034552D03*
X022835Y034127D03*
X022720Y033607D03*
X023510Y033452D03*
X023575Y033892D03*
X024530Y033997D03*
X025530Y033972D03*
X026505Y033972D03*
X027250Y033907D03*
X025110Y032597D03*
X024685Y032617D03*
X024280Y032557D03*
X023790Y032622D03*
X023075Y032267D03*
X022770Y031682D03*
X023285Y031612D03*
X022250Y032407D03*
X022250Y032907D03*
X021725Y033017D03*
X021420Y032082D03*
X022360Y031012D03*
X024890Y030997D03*
X025480Y030652D03*
X026250Y030907D03*
X027045Y030437D03*
X026175Y029807D03*
X025720Y029817D03*
X025115Y029372D03*
X024215Y028067D03*
X020835Y028892D03*
X018750Y029407D03*
X018250Y029907D03*
X019935Y034032D03*
X026250Y031657D03*
X027390Y031767D03*
X027750Y031407D03*
X028245Y031767D03*
X028670Y030977D03*
X029070Y031017D03*
X033455Y033897D03*
X037285Y027682D03*
X037295Y027252D03*
M02*
