G75*
%MOIN*%
%OFA0B0*%
%FSLAX25Y25*%
%IPPOS*%
%LPD*%
%AMOC8*
5,1,8,0,0,1.08239X$1,22.5*
%
%ADD10C,0.03000*%
%ADD11C,0.03962*%
%ADD12C,0.05600*%
%ADD13C,0.06800*%
%ADD14C,0.01600*%
%ADD15C,0.02800*%
D10*
X0158178Y0084902D02*
X0161014Y0082067D01*
X0166686Y0082067D01*
X0169521Y0084902D01*
X0169521Y0090574D01*
X0163850Y0090574D01*
X0169521Y0096245D02*
X0166686Y0099081D01*
X0161014Y0099081D01*
X0158178Y0096245D01*
X0158178Y0084902D01*
X0176594Y0082067D02*
X0176594Y0099081D01*
X0187937Y0082067D01*
X0187937Y0099081D01*
X0195010Y0099081D02*
X0203517Y0099081D01*
X0206353Y0096245D01*
X0206353Y0084902D01*
X0203517Y0082067D01*
X0195010Y0082067D01*
X0195010Y0099081D01*
D11*
X0322528Y0258067D03*
X0322528Y0263067D03*
X0322528Y0268067D03*
X0322528Y0273067D03*
X0322528Y0278067D03*
X0327528Y0278067D03*
X0327528Y0273067D03*
X0327528Y0268067D03*
X0327528Y0263067D03*
X0327528Y0258067D03*
D12*
X0343378Y0199717D03*
X0353378Y0199717D03*
D13*
X0351028Y0219317D03*
X0361128Y0219217D03*
X0371128Y0219217D03*
X0371128Y0229217D03*
X0361128Y0229217D03*
X0351128Y0229217D03*
X0351128Y0239217D03*
X0361128Y0239217D03*
X0371128Y0239217D03*
X0268078Y0195267D03*
X0258078Y0195267D03*
X0248078Y0195267D03*
X0248078Y0185267D03*
X0258078Y0185267D03*
X0268078Y0185267D03*
X0268078Y0175267D03*
X0258078Y0175267D03*
X0248078Y0175267D03*
X0204378Y0264167D03*
X0194378Y0264167D03*
X0184378Y0264167D03*
X0184378Y0274167D03*
X0194378Y0274167D03*
X0204378Y0274167D03*
X0204378Y0284167D03*
X0194378Y0284167D03*
X0184378Y0284167D03*
X0240628Y0343967D03*
X0250628Y0343967D03*
X0250628Y0353217D03*
X0240628Y0353217D03*
X0240628Y0362467D03*
X0250628Y0362467D03*
X0260628Y0362467D03*
X0260628Y0353217D03*
X0260628Y0343967D03*
D14*
X0262578Y0339579D02*
X0262578Y0339160D01*
X0263005Y0338131D01*
X0263792Y0337343D01*
X0264822Y0336917D01*
X0265935Y0336917D01*
X0266965Y0337343D01*
X0267752Y0338131D01*
X0268178Y0339160D01*
X0268178Y0340274D01*
X0267752Y0341303D01*
X0266965Y0342090D01*
X0265935Y0342517D01*
X0265223Y0342517D01*
X0265428Y0343012D01*
X0265428Y0344921D01*
X0264698Y0346686D01*
X0263347Y0348036D01*
X0262006Y0348592D01*
X0263347Y0349147D01*
X0264698Y0350498D01*
X0265428Y0352262D01*
X0265428Y0354171D01*
X0264698Y0355936D01*
X0263347Y0357286D01*
X0261971Y0357856D01*
X0262471Y0358018D01*
X0263144Y0358361D01*
X0263755Y0358805D01*
X0264290Y0359340D01*
X0264734Y0359951D01*
X0265077Y0360624D01*
X0265310Y0361343D01*
X0265409Y0361967D01*
X0261129Y0361967D01*
X0261129Y0362967D01*
X0265409Y0362967D01*
X0265310Y0363591D01*
X0265077Y0364309D01*
X0264734Y0364982D01*
X0264290Y0365594D01*
X0263755Y0366128D01*
X0263702Y0366167D01*
X0355028Y0366167D01*
X0355028Y0351900D01*
X0355462Y0350852D01*
X0356264Y0350051D01*
X0357312Y0349617D01*
X0375078Y0349617D01*
X0375078Y0278876D01*
X0374765Y0279190D01*
X0373735Y0279617D01*
X0372622Y0279617D01*
X0371592Y0279190D01*
X0370805Y0278403D01*
X0370378Y0277374D01*
X0370378Y0276260D01*
X0370805Y0275231D01*
X0371419Y0274617D01*
X0370905Y0274103D01*
X0370478Y0273074D01*
X0370478Y0271960D01*
X0370905Y0270931D01*
X0371692Y0270143D01*
X0372722Y0269717D01*
X0373835Y0269717D01*
X0374865Y0270143D01*
X0375078Y0270357D01*
X0375078Y0241946D01*
X0374790Y0242344D01*
X0374255Y0242878D01*
X0373644Y0243322D01*
X0372971Y0243665D01*
X0372252Y0243898D01*
X0371628Y0243997D01*
X0371628Y0239717D01*
X0370628Y0239717D01*
X0370628Y0238717D01*
X0366348Y0238717D01*
X0366447Y0238093D01*
X0366680Y0237374D01*
X0367023Y0236701D01*
X0367467Y0236090D01*
X0368001Y0235555D01*
X0368613Y0235111D01*
X0369286Y0234768D01*
X0370004Y0234535D01*
X0370628Y0234436D01*
X0370628Y0238717D01*
X0371628Y0238717D01*
X0371628Y0234436D01*
X0372252Y0234535D01*
X0372971Y0234768D01*
X0373644Y0235111D01*
X0374255Y0235555D01*
X0374790Y0236090D01*
X0375078Y0236487D01*
X0375078Y0231946D01*
X0374790Y0232344D01*
X0374255Y0232878D01*
X0373644Y0233322D01*
X0372971Y0233665D01*
X0372252Y0233898D01*
X0371628Y0233997D01*
X0371628Y0229717D01*
X0370628Y0229717D01*
X0370628Y0228717D01*
X0366348Y0228717D01*
X0366447Y0228093D01*
X0366680Y0227374D01*
X0367023Y0226701D01*
X0367467Y0226090D01*
X0368001Y0225555D01*
X0368613Y0225111D01*
X0369286Y0224768D01*
X0370004Y0224535D01*
X0370628Y0224436D01*
X0370628Y0228717D01*
X0371628Y0228717D01*
X0371628Y0224436D01*
X0372252Y0224535D01*
X0372971Y0224768D01*
X0373644Y0225111D01*
X0374255Y0225555D01*
X0374790Y0226090D01*
X0375078Y0226487D01*
X0375078Y0221946D01*
X0374790Y0222344D01*
X0374255Y0222878D01*
X0373644Y0223322D01*
X0372971Y0223665D01*
X0372252Y0223898D01*
X0371628Y0223997D01*
X0371628Y0219717D01*
X0370628Y0219717D01*
X0370628Y0218717D01*
X0366348Y0218717D01*
X0366447Y0218093D01*
X0366680Y0217374D01*
X0367023Y0216701D01*
X0367467Y0216090D01*
X0368001Y0215555D01*
X0368613Y0215111D01*
X0369286Y0214768D01*
X0370004Y0214535D01*
X0370628Y0214436D01*
X0370628Y0218717D01*
X0371628Y0218717D01*
X0371628Y0214436D01*
X0372252Y0214535D01*
X0372971Y0214768D01*
X0373644Y0215111D01*
X0374255Y0215555D01*
X0374790Y0216090D01*
X0375078Y0216487D01*
X0375078Y0171767D01*
X0317738Y0171767D01*
X0318102Y0172131D01*
X0318528Y0173160D01*
X0318528Y0174274D01*
X0318102Y0175303D01*
X0317315Y0176090D01*
X0316285Y0176517D01*
X0315172Y0176517D01*
X0314142Y0176090D01*
X0313355Y0175303D01*
X0312928Y0174274D01*
X0312928Y0173160D01*
X0313355Y0172131D01*
X0313719Y0171767D01*
X0309738Y0171767D01*
X0310102Y0172131D01*
X0310528Y0173160D01*
X0310528Y0174274D01*
X0310102Y0175303D01*
X0309315Y0176090D01*
X0308285Y0176517D01*
X0307172Y0176517D01*
X0306142Y0176090D01*
X0305355Y0175303D01*
X0304928Y0174274D01*
X0304928Y0173160D01*
X0305355Y0172131D01*
X0305719Y0171767D01*
X0301738Y0171767D01*
X0302102Y0172131D01*
X0302528Y0173160D01*
X0302528Y0174274D01*
X0302102Y0175303D01*
X0301315Y0176090D01*
X0300285Y0176517D01*
X0299172Y0176517D01*
X0298142Y0176090D01*
X0297355Y0175303D01*
X0296928Y0174274D01*
X0296928Y0173160D01*
X0297355Y0172131D01*
X0297719Y0171767D01*
X0293738Y0171767D01*
X0294102Y0172131D01*
X0294528Y0173160D01*
X0294528Y0174274D01*
X0294102Y0175303D01*
X0293315Y0176090D01*
X0292285Y0176517D01*
X0291172Y0176517D01*
X0290142Y0176090D01*
X0289355Y0175303D01*
X0288928Y0174274D01*
X0288928Y0173160D01*
X0289355Y0172131D01*
X0289719Y0171767D01*
X0271367Y0171767D01*
X0272148Y0172548D01*
X0272878Y0174312D01*
X0272878Y0176221D01*
X0272148Y0177986D01*
X0270797Y0179336D01*
X0269033Y0180067D01*
X0267124Y0180067D01*
X0265359Y0179336D01*
X0264009Y0177986D01*
X0263278Y0176221D01*
X0263278Y0174312D01*
X0264009Y0172548D01*
X0264790Y0171767D01*
X0261367Y0171767D01*
X0262148Y0172548D01*
X0262878Y0174312D01*
X0262878Y0176221D01*
X0262148Y0177986D01*
X0260797Y0179336D01*
X0259033Y0180067D01*
X0257124Y0180067D01*
X0255359Y0179336D01*
X0254009Y0177986D01*
X0253278Y0176221D01*
X0253278Y0174312D01*
X0254009Y0172548D01*
X0254790Y0171767D01*
X0251367Y0171767D01*
X0252148Y0172548D01*
X0252878Y0174312D01*
X0252878Y0176221D01*
X0252148Y0177986D01*
X0250797Y0179336D01*
X0249033Y0180067D01*
X0247124Y0180067D01*
X0245359Y0179336D01*
X0244009Y0177986D01*
X0243278Y0176221D01*
X0243278Y0174312D01*
X0244009Y0172548D01*
X0244790Y0171767D01*
X0196228Y0171767D01*
X0196228Y0193034D01*
X0195795Y0194081D01*
X0194993Y0194883D01*
X0193945Y0195317D01*
X0180678Y0195317D01*
X0180678Y0261093D01*
X0180717Y0261040D01*
X0181251Y0260505D01*
X0181863Y0260061D01*
X0182536Y0259718D01*
X0183254Y0259485D01*
X0183878Y0259386D01*
X0183878Y0263667D01*
X0184878Y0263667D01*
X0184878Y0259386D01*
X0185502Y0259485D01*
X0186221Y0259718D01*
X0186894Y0260061D01*
X0187505Y0260505D01*
X0188040Y0261040D01*
X0188484Y0261651D01*
X0188827Y0262324D01*
X0189060Y0263043D01*
X0189159Y0263667D01*
X0184879Y0263667D01*
X0184879Y0264667D01*
X0189159Y0264667D01*
X0189060Y0265291D01*
X0188827Y0266009D01*
X0188484Y0266682D01*
X0188040Y0267294D01*
X0187505Y0267828D01*
X0186894Y0268272D01*
X0186221Y0268615D01*
X0185502Y0268848D01*
X0184878Y0268947D01*
X0184878Y0264667D01*
X0183878Y0264667D01*
X0183878Y0268947D01*
X0183254Y0268848D01*
X0182536Y0268615D01*
X0181863Y0268272D01*
X0181251Y0267828D01*
X0180717Y0267294D01*
X0180678Y0267240D01*
X0180678Y0271093D01*
X0180717Y0271040D01*
X0181251Y0270505D01*
X0181863Y0270061D01*
X0182536Y0269718D01*
X0183254Y0269485D01*
X0183878Y0269386D01*
X0183878Y0273667D01*
X0184878Y0273667D01*
X0184878Y0269386D01*
X0185502Y0269485D01*
X0186221Y0269718D01*
X0186894Y0270061D01*
X0187505Y0270505D01*
X0188040Y0271040D01*
X0188484Y0271651D01*
X0188827Y0272324D01*
X0189060Y0273043D01*
X0189159Y0273667D01*
X0184879Y0273667D01*
X0184879Y0274667D01*
X0189159Y0274667D01*
X0189060Y0275291D01*
X0188827Y0276009D01*
X0188484Y0276682D01*
X0188040Y0277294D01*
X0187505Y0277828D01*
X0186894Y0278272D01*
X0186221Y0278615D01*
X0185502Y0278848D01*
X0184878Y0278947D01*
X0184878Y0274667D01*
X0183878Y0274667D01*
X0183878Y0278947D01*
X0183254Y0278848D01*
X0182536Y0278615D01*
X0181863Y0278272D01*
X0181251Y0277828D01*
X0180717Y0277294D01*
X0180678Y0277240D01*
X0180678Y0281093D01*
X0180717Y0281040D01*
X0181251Y0280505D01*
X0181863Y0280061D01*
X0182536Y0279718D01*
X0183254Y0279485D01*
X0183878Y0279386D01*
X0183878Y0283667D01*
X0184878Y0283667D01*
X0184878Y0279386D01*
X0185502Y0279485D01*
X0186221Y0279718D01*
X0186894Y0280061D01*
X0187505Y0280505D01*
X0188040Y0281040D01*
X0188484Y0281651D01*
X0188827Y0282324D01*
X0189060Y0283043D01*
X0189159Y0283667D01*
X0184879Y0283667D01*
X0184879Y0284667D01*
X0189159Y0284667D01*
X0189060Y0285291D01*
X0188827Y0286009D01*
X0188484Y0286682D01*
X0188040Y0287294D01*
X0187505Y0287828D01*
X0186894Y0288272D01*
X0186221Y0288615D01*
X0185502Y0288848D01*
X0184878Y0288947D01*
X0184878Y0284667D01*
X0183878Y0284667D01*
X0183878Y0288947D01*
X0183254Y0288848D01*
X0182536Y0288615D01*
X0181863Y0288272D01*
X0181251Y0287828D01*
X0180717Y0287294D01*
X0180678Y0287240D01*
X0180678Y0339145D01*
X0181472Y0338817D01*
X0182585Y0338817D01*
X0183615Y0339243D01*
X0184402Y0340031D01*
X0184828Y0341060D01*
X0184828Y0342174D01*
X0184402Y0343203D01*
X0183615Y0343990D01*
X0182585Y0344417D01*
X0181472Y0344417D01*
X0180678Y0344088D01*
X0180678Y0366167D01*
X0237555Y0366167D01*
X0237501Y0366128D01*
X0236967Y0365594D01*
X0236523Y0364982D01*
X0236180Y0364309D01*
X0235947Y0363591D01*
X0235848Y0362967D01*
X0240128Y0362967D01*
X0240128Y0361967D01*
X0235848Y0361967D01*
X0235947Y0361343D01*
X0236180Y0360624D01*
X0236523Y0359951D01*
X0236967Y0359340D01*
X0237501Y0358805D01*
X0238113Y0358361D01*
X0238786Y0358018D01*
X0239286Y0357856D01*
X0237909Y0357286D01*
X0236559Y0355936D01*
X0235828Y0354171D01*
X0235828Y0352262D01*
X0236559Y0350498D01*
X0237909Y0349147D01*
X0239251Y0348592D01*
X0237909Y0348036D01*
X0236559Y0346686D01*
X0235828Y0344921D01*
X0235828Y0343012D01*
X0236365Y0341717D01*
X0235522Y0341717D01*
X0234492Y0341290D01*
X0233705Y0340503D01*
X0233278Y0339474D01*
X0233278Y0338360D01*
X0233705Y0337331D01*
X0234056Y0336979D01*
X0233842Y0336890D01*
X0233055Y0336103D01*
X0232628Y0335074D01*
X0232628Y0333960D01*
X0233055Y0332931D01*
X0233842Y0332143D01*
X0234872Y0331717D01*
X0235985Y0331717D01*
X0237015Y0332143D01*
X0237802Y0332931D01*
X0238228Y0333960D01*
X0238228Y0335074D01*
X0237802Y0336103D01*
X0237451Y0336454D01*
X0237665Y0336543D01*
X0238452Y0337331D01*
X0238878Y0338360D01*
X0238878Y0339474D01*
X0238867Y0339501D01*
X0239674Y0339167D01*
X0241583Y0339167D01*
X0242828Y0339682D01*
X0242828Y0339410D01*
X0243255Y0338381D01*
X0244042Y0337593D01*
X0245072Y0337167D01*
X0246185Y0337167D01*
X0247215Y0337593D01*
X0248002Y0338381D01*
X0248428Y0339410D01*
X0248428Y0339682D01*
X0249674Y0339167D01*
X0251583Y0339167D01*
X0252828Y0339682D01*
X0252828Y0339160D01*
X0253255Y0338131D01*
X0254042Y0337343D01*
X0255072Y0336917D01*
X0256185Y0336917D01*
X0257215Y0337343D01*
X0258002Y0338131D01*
X0258428Y0339160D01*
X0258428Y0339682D01*
X0259674Y0339167D01*
X0261583Y0339167D01*
X0262578Y0339579D01*
X0262889Y0338409D02*
X0258117Y0338409D01*
X0256034Y0342517D02*
X0255223Y0342517D01*
X0255428Y0343012D01*
X0255428Y0344921D01*
X0254698Y0346686D01*
X0253347Y0348036D01*
X0252006Y0348592D01*
X0253347Y0349147D01*
X0254698Y0350498D01*
X0255428Y0352262D01*
X0255428Y0354171D01*
X0254698Y0355936D01*
X0253347Y0357286D01*
X0251971Y0357856D01*
X0252471Y0358018D01*
X0253144Y0358361D01*
X0253755Y0358805D01*
X0254290Y0359340D01*
X0254734Y0359951D01*
X0255077Y0360624D01*
X0255310Y0361343D01*
X0255409Y0361967D01*
X0251129Y0361967D01*
X0251129Y0362967D01*
X0255409Y0362967D01*
X0255310Y0363591D01*
X0255077Y0364309D01*
X0254734Y0364982D01*
X0254290Y0365594D01*
X0253755Y0366128D01*
X0253702Y0366167D01*
X0257555Y0366167D01*
X0257501Y0366128D01*
X0256967Y0365594D01*
X0256523Y0364982D01*
X0256180Y0364309D01*
X0255947Y0363591D01*
X0255848Y0362967D01*
X0260128Y0362967D01*
X0260128Y0361967D01*
X0255848Y0361967D01*
X0255947Y0361343D01*
X0256180Y0360624D01*
X0256523Y0359951D01*
X0256967Y0359340D01*
X0257501Y0358805D01*
X0258113Y0358361D01*
X0258786Y0358018D01*
X0259286Y0357856D01*
X0257909Y0357286D01*
X0256559Y0355936D01*
X0255828Y0354171D01*
X0255828Y0352262D01*
X0256559Y0350498D01*
X0257909Y0349147D01*
X0259251Y0348592D01*
X0257909Y0348036D01*
X0256559Y0346686D01*
X0255828Y0344921D01*
X0255828Y0343012D01*
X0256034Y0342517D01*
X0255828Y0343204D02*
X0255428Y0343204D01*
X0255428Y0344803D02*
X0255828Y0344803D01*
X0256442Y0346401D02*
X0254815Y0346401D01*
X0253383Y0348000D02*
X0257874Y0348000D01*
X0257458Y0349598D02*
X0253798Y0349598D01*
X0254987Y0351197D02*
X0256270Y0351197D01*
X0255828Y0352795D02*
X0255428Y0352795D01*
X0255336Y0354394D02*
X0255921Y0354394D01*
X0256616Y0355993D02*
X0254641Y0355993D01*
X0252611Y0357591D02*
X0258646Y0357591D01*
X0257117Y0359190D02*
X0254140Y0359190D01*
X0255130Y0360788D02*
X0256127Y0360788D01*
X0256075Y0363985D02*
X0255182Y0363985D01*
X0254297Y0365584D02*
X0256960Y0365584D01*
X0260128Y0362387D02*
X0251129Y0362387D01*
X0250128Y0362387D02*
X0241129Y0362387D01*
X0241129Y0361967D02*
X0241129Y0362967D01*
X0245409Y0362967D01*
X0245310Y0363591D01*
X0245077Y0364309D01*
X0244734Y0364982D01*
X0244290Y0365594D01*
X0243755Y0366128D01*
X0243702Y0366167D01*
X0247555Y0366167D01*
X0247501Y0366128D01*
X0246967Y0365594D01*
X0246523Y0364982D01*
X0246180Y0364309D01*
X0245947Y0363591D01*
X0245848Y0362967D01*
X0250128Y0362967D01*
X0250128Y0361967D01*
X0245848Y0361967D01*
X0245947Y0361343D01*
X0246180Y0360624D01*
X0246523Y0359951D01*
X0246967Y0359340D01*
X0247501Y0358805D01*
X0248113Y0358361D01*
X0248786Y0358018D01*
X0249286Y0357856D01*
X0247909Y0357286D01*
X0246559Y0355936D01*
X0245828Y0354171D01*
X0245828Y0352262D01*
X0246559Y0350498D01*
X0247909Y0349147D01*
X0249251Y0348592D01*
X0247909Y0348036D01*
X0246559Y0346686D01*
X0245828Y0344921D01*
X0245828Y0343012D01*
X0245930Y0342767D01*
X0245327Y0342767D01*
X0245428Y0343012D01*
X0245428Y0344921D01*
X0244698Y0346686D01*
X0243347Y0348036D01*
X0242006Y0348592D01*
X0243347Y0349147D01*
X0244698Y0350498D01*
X0245428Y0352262D01*
X0245428Y0354171D01*
X0244698Y0355936D01*
X0243347Y0357286D01*
X0241971Y0357856D01*
X0242471Y0358018D01*
X0243144Y0358361D01*
X0243755Y0358805D01*
X0244290Y0359340D01*
X0244734Y0359951D01*
X0245077Y0360624D01*
X0245310Y0361343D01*
X0245409Y0361967D01*
X0241129Y0361967D01*
X0240128Y0362387D02*
X0193812Y0362387D01*
X0193702Y0362653D02*
X0192915Y0363440D01*
X0191885Y0363867D01*
X0190772Y0363867D01*
X0189742Y0363440D01*
X0188955Y0362653D01*
X0188528Y0361624D01*
X0188528Y0360510D01*
X0188955Y0359481D01*
X0189742Y0358693D01*
X0190772Y0358267D01*
X0191885Y0358267D01*
X0192915Y0358693D01*
X0193702Y0359481D01*
X0194128Y0360510D01*
X0194128Y0361624D01*
X0193702Y0362653D01*
X0194128Y0360788D02*
X0236127Y0360788D01*
X0237117Y0359190D02*
X0230115Y0359190D01*
X0230352Y0358953D02*
X0229565Y0359740D01*
X0228535Y0360167D01*
X0227422Y0360167D01*
X0226392Y0359740D01*
X0225605Y0358953D01*
X0225178Y0357924D01*
X0225178Y0356810D01*
X0225605Y0355781D01*
X0226392Y0354993D01*
X0226818Y0354817D01*
X0226772Y0354817D01*
X0225742Y0354390D01*
X0224955Y0353603D01*
X0224528Y0352574D01*
X0224528Y0351460D01*
X0224955Y0350431D01*
X0225742Y0349643D01*
X0226772Y0349217D01*
X0227885Y0349217D01*
X0228915Y0349643D01*
X0229702Y0350431D01*
X0230128Y0351460D01*
X0230128Y0352574D01*
X0229702Y0353603D01*
X0228915Y0354390D01*
X0228489Y0354567D01*
X0228535Y0354567D01*
X0229565Y0354993D01*
X0230352Y0355781D01*
X0230778Y0356810D01*
X0230778Y0357924D01*
X0230352Y0358953D01*
X0230778Y0357591D02*
X0238646Y0357591D01*
X0236616Y0355993D02*
X0230440Y0355993D01*
X0228906Y0354394D02*
X0235921Y0354394D01*
X0235828Y0352795D02*
X0230037Y0352795D01*
X0230020Y0351197D02*
X0236270Y0351197D01*
X0237458Y0349598D02*
X0228807Y0349598D01*
X0229285Y0348317D02*
X0228172Y0348317D01*
X0227142Y0347890D01*
X0226355Y0347103D01*
X0225928Y0346074D01*
X0225928Y0344960D01*
X0226355Y0343931D01*
X0226869Y0343417D01*
X0226305Y0342853D01*
X0225878Y0341824D01*
X0225878Y0340710D01*
X0226305Y0339681D01*
X0227092Y0338893D01*
X0227156Y0338867D01*
X0226972Y0338867D01*
X0225942Y0338440D01*
X0225155Y0337653D01*
X0224728Y0336624D01*
X0224728Y0335510D01*
X0225155Y0334481D01*
X0225942Y0333693D01*
X0226972Y0333267D01*
X0228085Y0333267D01*
X0229115Y0333693D01*
X0229902Y0334481D01*
X0230328Y0335510D01*
X0230328Y0336624D01*
X0229902Y0337653D01*
X0229115Y0338440D01*
X0229051Y0338467D01*
X0229235Y0338467D01*
X0230265Y0338893D01*
X0231052Y0339681D01*
X0231478Y0340710D01*
X0231478Y0341824D01*
X0231052Y0342853D01*
X0230538Y0343367D01*
X0231102Y0343931D01*
X0231528Y0344960D01*
X0231528Y0346074D01*
X0231102Y0347103D01*
X0230315Y0347890D01*
X0229285Y0348317D01*
X0230050Y0348000D02*
X0237874Y0348000D01*
X0236442Y0346401D02*
X0231393Y0346401D01*
X0231464Y0344803D02*
X0235828Y0344803D01*
X0235828Y0343204D02*
X0230701Y0343204D01*
X0231478Y0341606D02*
X0235254Y0341606D01*
X0233500Y0340007D02*
X0231188Y0340007D01*
X0229146Y0338409D02*
X0233278Y0338409D01*
X0233762Y0336810D02*
X0230251Y0336810D01*
X0230205Y0335212D02*
X0232686Y0335212D01*
X0232772Y0333613D02*
X0228922Y0333613D01*
X0226135Y0333613D02*
X0180678Y0333613D01*
X0180678Y0332015D02*
X0215467Y0332015D01*
X0215205Y0331753D02*
X0214778Y0330724D01*
X0214778Y0329610D01*
X0215205Y0328581D01*
X0215992Y0327793D01*
X0217022Y0327367D01*
X0218135Y0327367D01*
X0219165Y0327793D01*
X0219952Y0328581D01*
X0220378Y0329610D01*
X0220378Y0330724D01*
X0219952Y0331753D01*
X0219165Y0332540D01*
X0218135Y0332967D01*
X0217022Y0332967D01*
X0215992Y0332540D01*
X0215205Y0331753D01*
X0214778Y0330416D02*
X0180678Y0330416D01*
X0180678Y0328818D02*
X0215106Y0328818D01*
X0220050Y0328818D02*
X0237191Y0328818D01*
X0237672Y0329017D02*
X0236642Y0328590D01*
X0235855Y0327803D01*
X0235428Y0326774D01*
X0235428Y0325660D01*
X0235855Y0324631D01*
X0236642Y0323843D01*
X0237672Y0323417D01*
X0238785Y0323417D01*
X0239815Y0323843D01*
X0240520Y0324548D01*
X0240755Y0323981D01*
X0241542Y0323193D01*
X0242572Y0322767D01*
X0243685Y0322767D01*
X0244715Y0323193D01*
X0245453Y0323932D01*
X0245592Y0323793D01*
X0246622Y0323367D01*
X0247735Y0323367D01*
X0248765Y0323793D01*
X0249203Y0324232D01*
X0249842Y0323593D01*
X0250872Y0323167D01*
X0251985Y0323167D01*
X0253015Y0323593D01*
X0253802Y0324381D01*
X0254228Y0325410D01*
X0254228Y0326524D01*
X0253802Y0327553D01*
X0253015Y0328340D01*
X0251985Y0328767D01*
X0250872Y0328767D01*
X0249842Y0328340D01*
X0249403Y0327901D01*
X0248765Y0328540D01*
X0247735Y0328967D01*
X0246622Y0328967D01*
X0245592Y0328540D01*
X0244853Y0327801D01*
X0244715Y0327940D01*
X0243685Y0328367D01*
X0242572Y0328367D01*
X0241542Y0327940D01*
X0240837Y0327235D01*
X0240602Y0327803D01*
X0239815Y0328590D01*
X0238785Y0329017D01*
X0237672Y0329017D01*
X0239266Y0328818D02*
X0246262Y0328818D01*
X0248095Y0328818D02*
X0303207Y0328818D01*
X0303572Y0328667D02*
X0304685Y0328667D01*
X0305715Y0329093D01*
X0306078Y0329457D01*
X0306078Y0329410D01*
X0306505Y0328381D01*
X0307292Y0327593D01*
X0308322Y0327167D01*
X0309435Y0327167D01*
X0310465Y0327593D01*
X0311252Y0328381D01*
X0311678Y0329410D01*
X0311678Y0330524D01*
X0311252Y0331553D01*
X0310465Y0332340D01*
X0309435Y0332767D01*
X0308322Y0332767D01*
X0307292Y0332340D01*
X0306928Y0331976D01*
X0306928Y0332024D01*
X0306502Y0333053D01*
X0305715Y0333840D01*
X0304685Y0334267D01*
X0303572Y0334267D01*
X0302542Y0333840D01*
X0301755Y0333053D01*
X0301328Y0332024D01*
X0301328Y0330910D01*
X0301755Y0329881D01*
X0302542Y0329093D01*
X0303572Y0328667D01*
X0305050Y0328818D02*
X0306324Y0328818D01*
X0308194Y0327219D02*
X0253940Y0327219D01*
X0254228Y0325621D02*
X0303616Y0325621D01*
X0303542Y0325590D02*
X0302755Y0324803D01*
X0302328Y0323774D01*
X0302328Y0322660D01*
X0302755Y0321631D01*
X0303542Y0320843D01*
X0304572Y0320417D01*
X0305685Y0320417D01*
X0306715Y0320843D01*
X0307502Y0321631D01*
X0307928Y0322660D01*
X0307928Y0323774D01*
X0307502Y0324803D01*
X0306715Y0325590D01*
X0305685Y0326017D01*
X0304572Y0326017D01*
X0303542Y0325590D01*
X0302431Y0324022D02*
X0253444Y0324022D01*
X0249413Y0324022D02*
X0248994Y0324022D01*
X0240737Y0324022D02*
X0239994Y0324022D01*
X0236463Y0324022D02*
X0233548Y0324022D01*
X0233452Y0324253D02*
X0232665Y0325040D01*
X0231635Y0325467D01*
X0230522Y0325467D01*
X0229492Y0325040D01*
X0228705Y0324253D01*
X0228278Y0323224D01*
X0228278Y0322110D01*
X0228705Y0321081D01*
X0229492Y0320293D01*
X0230522Y0319867D01*
X0231635Y0319867D01*
X0232665Y0320293D01*
X0233452Y0321081D01*
X0233878Y0322110D01*
X0233878Y0323224D01*
X0233452Y0324253D01*
X0233878Y0322424D02*
X0302426Y0322424D01*
X0303585Y0320825D02*
X0233197Y0320825D01*
X0233735Y0318917D02*
X0232622Y0318917D01*
X0231592Y0318490D01*
X0230805Y0317703D01*
X0230748Y0317567D01*
X0230402Y0318403D01*
X0229615Y0319190D01*
X0228585Y0319617D01*
X0227472Y0319617D01*
X0226442Y0319190D01*
X0225655Y0318403D01*
X0225228Y0317374D01*
X0225228Y0316260D01*
X0225655Y0315231D01*
X0226442Y0314443D01*
X0227472Y0314017D01*
X0228585Y0314017D01*
X0229615Y0314443D01*
X0230402Y0315231D01*
X0230458Y0315367D01*
X0230805Y0314531D01*
X0231592Y0313743D01*
X0232622Y0313317D01*
X0233735Y0313317D01*
X0234765Y0313743D01*
X0235552Y0314531D01*
X0235978Y0315560D01*
X0235978Y0316674D01*
X0235552Y0317703D01*
X0234765Y0318490D01*
X0233735Y0318917D01*
X0235583Y0317628D02*
X0338487Y0317628D01*
X0338822Y0317767D02*
X0337792Y0317340D01*
X0337005Y0316553D01*
X0336578Y0315524D01*
X0336578Y0314410D01*
X0337005Y0313381D01*
X0337792Y0312593D01*
X0338501Y0312299D01*
X0338005Y0311803D01*
X0337578Y0310774D01*
X0337578Y0309660D01*
X0338005Y0308631D01*
X0338792Y0307843D01*
X0339822Y0307417D01*
X0340935Y0307417D01*
X0341965Y0307843D01*
X0342752Y0308631D01*
X0343178Y0309660D01*
X0343178Y0310774D01*
X0342752Y0311803D01*
X0341965Y0312590D01*
X0341256Y0312884D01*
X0341752Y0313381D01*
X0342178Y0314410D01*
X0342178Y0315524D01*
X0341752Y0316553D01*
X0340965Y0317340D01*
X0339935Y0317767D01*
X0338822Y0317767D01*
X0340270Y0317628D02*
X0375078Y0317628D01*
X0375078Y0316030D02*
X0341969Y0316030D01*
X0342178Y0314431D02*
X0375078Y0314431D01*
X0375078Y0312833D02*
X0341380Y0312833D01*
X0342988Y0311234D02*
X0375078Y0311234D01*
X0375078Y0309636D02*
X0343168Y0309636D01*
X0342159Y0308037D02*
X0375078Y0308037D01*
X0375078Y0306439D02*
X0272666Y0306439D01*
X0272365Y0306740D02*
X0273152Y0305953D01*
X0273578Y0304924D01*
X0273578Y0303810D01*
X0273152Y0302781D01*
X0272365Y0301993D01*
X0271335Y0301567D01*
X0270222Y0301567D01*
X0269192Y0301993D01*
X0268405Y0302781D01*
X0267978Y0303810D01*
X0267978Y0304924D01*
X0268405Y0305953D01*
X0269192Y0306740D01*
X0270222Y0307167D01*
X0271335Y0307167D01*
X0272365Y0306740D01*
X0273578Y0304840D02*
X0375078Y0304840D01*
X0375078Y0303242D02*
X0273343Y0303242D01*
X0271520Y0301643D02*
X0375078Y0301643D01*
X0375078Y0300045D02*
X0259610Y0300045D01*
X0259902Y0299753D02*
X0259115Y0300540D01*
X0258085Y0300967D01*
X0256972Y0300967D01*
X0255942Y0300540D01*
X0255155Y0299753D01*
X0254728Y0298724D01*
X0254728Y0297610D01*
X0255155Y0296581D01*
X0255942Y0295793D01*
X0256972Y0295367D01*
X0258085Y0295367D01*
X0259115Y0295793D01*
X0259902Y0296581D01*
X0260328Y0297610D01*
X0260328Y0298724D01*
X0259902Y0299753D01*
X0260328Y0298446D02*
X0278598Y0298446D01*
X0278355Y0298203D02*
X0277928Y0297174D01*
X0277928Y0296060D01*
X0278355Y0295031D01*
X0279044Y0294342D01*
X0278755Y0294053D01*
X0278328Y0293024D01*
X0278328Y0291910D01*
X0278755Y0290881D01*
X0279542Y0290093D01*
X0280572Y0289667D01*
X0281685Y0289667D01*
X0282715Y0290093D01*
X0283502Y0290881D01*
X0283928Y0291910D01*
X0283928Y0293024D01*
X0283917Y0293051D01*
X0284122Y0292967D01*
X0285235Y0292967D01*
X0286265Y0293393D01*
X0287052Y0294181D01*
X0287250Y0294657D01*
X0288072Y0294317D01*
X0289185Y0294317D01*
X0290215Y0294743D01*
X0291002Y0295531D01*
X0291428Y0296560D01*
X0291428Y0297674D01*
X0291002Y0298703D01*
X0290215Y0299490D01*
X0289185Y0299917D01*
X0288072Y0299917D01*
X0287042Y0299490D01*
X0286255Y0298703D01*
X0286057Y0298226D01*
X0285235Y0298567D01*
X0284122Y0298567D01*
X0283123Y0298153D01*
X0283102Y0298203D01*
X0282315Y0298990D01*
X0281285Y0299417D01*
X0280172Y0299417D01*
X0279142Y0298990D01*
X0278355Y0298203D01*
X0277928Y0296848D02*
X0260013Y0296848D01*
X0255044Y0296848D02*
X0216919Y0296848D01*
X0216765Y0296693D02*
X0217552Y0297481D01*
X0217978Y0298510D01*
X0217978Y0299624D01*
X0217552Y0300653D01*
X0216765Y0301440D01*
X0215735Y0301867D01*
X0214622Y0301867D01*
X0213592Y0301440D01*
X0212805Y0300653D01*
X0212693Y0300383D01*
X0212602Y0300603D01*
X0211815Y0301390D01*
X0210785Y0301817D01*
X0209672Y0301817D01*
X0208642Y0301390D01*
X0207855Y0300603D01*
X0207428Y0299574D01*
X0207428Y0298460D01*
X0207855Y0297431D01*
X0208642Y0296643D01*
X0209672Y0296217D01*
X0210785Y0296217D01*
X0211815Y0296643D01*
X0212602Y0297431D01*
X0212714Y0297700D01*
X0212805Y0297481D01*
X0213592Y0296693D01*
X0214622Y0296267D01*
X0215735Y0296267D01*
X0216765Y0296693D01*
X0217952Y0298446D02*
X0254728Y0298446D01*
X0255447Y0300045D02*
X0217804Y0300045D01*
X0216275Y0301643D02*
X0235592Y0301643D01*
X0235942Y0301293D02*
X0235155Y0302081D01*
X0234728Y0303110D01*
X0234728Y0304224D01*
X0235155Y0305253D01*
X0235942Y0306040D01*
X0236972Y0306467D01*
X0238085Y0306467D01*
X0239115Y0306040D01*
X0239902Y0305253D01*
X0240328Y0304224D01*
X0240328Y0303110D01*
X0239902Y0302081D01*
X0239115Y0301293D01*
X0238085Y0300867D01*
X0236972Y0300867D01*
X0235942Y0301293D01*
X0234728Y0303242D02*
X0208013Y0303242D01*
X0208402Y0303631D02*
X0208828Y0304660D01*
X0208828Y0305774D01*
X0208402Y0306803D01*
X0207615Y0307590D01*
X0206585Y0308017D01*
X0205472Y0308017D01*
X0204442Y0307590D01*
X0203655Y0306803D01*
X0203228Y0305774D01*
X0203228Y0304660D01*
X0203655Y0303631D01*
X0204442Y0302843D01*
X0205472Y0302417D01*
X0206585Y0302417D01*
X0207615Y0302843D01*
X0208402Y0303631D01*
X0208828Y0304840D02*
X0234984Y0304840D01*
X0236904Y0306439D02*
X0208553Y0306439D01*
X0209253Y0301643D02*
X0204963Y0301643D01*
X0204785Y0301717D02*
X0203672Y0301717D01*
X0202642Y0301290D01*
X0201855Y0300503D01*
X0201428Y0299474D01*
X0201428Y0298360D01*
X0201855Y0297331D01*
X0202642Y0296543D01*
X0203672Y0296117D01*
X0204785Y0296117D01*
X0205815Y0296543D01*
X0206602Y0297331D01*
X0207028Y0298360D01*
X0207028Y0299474D01*
X0206602Y0300503D01*
X0205815Y0301290D01*
X0204785Y0301717D01*
X0203494Y0301643D02*
X0180678Y0301643D01*
X0180678Y0300045D02*
X0201665Y0300045D01*
X0201428Y0298446D02*
X0180678Y0298446D01*
X0180678Y0296848D02*
X0202338Y0296848D01*
X0206119Y0296848D02*
X0208438Y0296848D01*
X0207434Y0298446D02*
X0207028Y0298446D01*
X0206792Y0300045D02*
X0207624Y0300045D01*
X0211204Y0301643D02*
X0214082Y0301643D01*
X0213438Y0296848D02*
X0212019Y0296848D01*
X0210265Y0291290D02*
X0209235Y0291717D01*
X0208122Y0291717D01*
X0207092Y0291290D01*
X0206305Y0290503D01*
X0205878Y0289474D01*
X0205878Y0288741D01*
X0205333Y0288967D01*
X0203424Y0288967D01*
X0201659Y0288236D01*
X0200309Y0286886D01*
X0199578Y0285121D01*
X0199578Y0283212D01*
X0200309Y0281448D01*
X0201659Y0280097D01*
X0203424Y0279367D01*
X0205333Y0279367D01*
X0205878Y0279593D01*
X0205878Y0278741D01*
X0205333Y0278967D01*
X0203424Y0278967D01*
X0201659Y0278236D01*
X0200309Y0276886D01*
X0199578Y0275121D01*
X0199578Y0273212D01*
X0200309Y0271448D01*
X0201659Y0270097D01*
X0203424Y0269367D01*
X0205333Y0269367D01*
X0205628Y0269489D01*
X0205628Y0268844D01*
X0205333Y0268967D01*
X0203424Y0268967D01*
X0201659Y0268236D01*
X0200309Y0266886D01*
X0199578Y0265121D01*
X0199578Y0263212D01*
X0200309Y0261448D01*
X0201659Y0260097D01*
X0203424Y0259367D01*
X0205333Y0259367D01*
X0207097Y0260097D01*
X0208448Y0261448D01*
X0209178Y0263212D01*
X0209178Y0265121D01*
X0208663Y0266367D01*
X0208985Y0266367D01*
X0210015Y0266793D01*
X0210802Y0267581D01*
X0211228Y0268610D01*
X0211228Y0269724D01*
X0210802Y0270753D01*
X0210015Y0271540D01*
X0208985Y0271967D01*
X0208663Y0271967D01*
X0209178Y0273212D01*
X0209178Y0275121D01*
X0208663Y0276367D01*
X0209235Y0276367D01*
X0210265Y0276793D01*
X0211052Y0277581D01*
X0211478Y0278610D01*
X0211478Y0279724D01*
X0211052Y0280753D01*
X0210265Y0281540D01*
X0209235Y0281967D01*
X0208663Y0281967D01*
X0209178Y0283212D01*
X0209178Y0285121D01*
X0208766Y0286117D01*
X0209235Y0286117D01*
X0210265Y0286543D01*
X0211052Y0287331D01*
X0211478Y0288360D01*
X0211478Y0289474D01*
X0211052Y0290503D01*
X0210265Y0291290D01*
X0211073Y0290454D02*
X0219331Y0290454D01*
X0219455Y0290753D02*
X0219028Y0289724D01*
X0219028Y0288610D01*
X0219455Y0287581D01*
X0220242Y0286793D01*
X0221272Y0286367D01*
X0222385Y0286367D01*
X0223415Y0286793D01*
X0224202Y0287581D01*
X0224443Y0288162D01*
X0224705Y0287531D01*
X0225492Y0286743D01*
X0226522Y0286317D01*
X0227635Y0286317D01*
X0228665Y0286743D01*
X0229452Y0287531D01*
X0229878Y0288560D01*
X0229878Y0289674D01*
X0229452Y0290703D01*
X0228665Y0291490D01*
X0227635Y0291917D01*
X0226522Y0291917D01*
X0225492Y0291490D01*
X0224705Y0290703D01*
X0224464Y0290121D01*
X0224202Y0290753D01*
X0223415Y0291540D01*
X0222385Y0291967D01*
X0221272Y0291967D01*
X0220242Y0291540D01*
X0219455Y0290753D01*
X0219028Y0288855D02*
X0211478Y0288855D01*
X0210978Y0287257D02*
X0219779Y0287257D01*
X0221722Y0283767D02*
X0220692Y0283340D01*
X0219905Y0282553D01*
X0219478Y0281524D01*
X0219478Y0280410D01*
X0219905Y0279381D01*
X0220692Y0278593D01*
X0221722Y0278167D01*
X0222835Y0278167D01*
X0223865Y0278593D01*
X0224652Y0279381D01*
X0225078Y0280410D01*
X0225078Y0281524D01*
X0224652Y0282553D01*
X0223865Y0283340D01*
X0222835Y0283767D01*
X0221722Y0283767D01*
X0219867Y0282461D02*
X0208867Y0282461D01*
X0209178Y0284060D02*
X0277238Y0284060D01*
X0277192Y0284040D02*
X0278222Y0284467D01*
X0279335Y0284467D01*
X0280365Y0284040D01*
X0281152Y0283253D01*
X0281387Y0282685D01*
X0281492Y0282790D01*
X0282522Y0283217D01*
X0283635Y0283217D01*
X0284665Y0282790D01*
X0285452Y0282003D01*
X0285878Y0280974D01*
X0285878Y0279860D01*
X0285452Y0278831D01*
X0284665Y0278043D01*
X0283635Y0277617D01*
X0282522Y0277617D01*
X0281492Y0278043D01*
X0280705Y0278831D01*
X0280470Y0279398D01*
X0280365Y0279293D01*
X0279335Y0278867D01*
X0278222Y0278867D01*
X0277192Y0279293D01*
X0276405Y0280081D01*
X0275978Y0281110D01*
X0275978Y0282224D01*
X0276405Y0283253D01*
X0277192Y0284040D01*
X0276077Y0282461D02*
X0244644Y0282461D01*
X0244852Y0282253D02*
X0244065Y0283040D01*
X0243035Y0283467D01*
X0241922Y0283467D01*
X0240892Y0283040D01*
X0240105Y0282253D01*
X0239678Y0281224D01*
X0239678Y0280110D01*
X0240105Y0279081D01*
X0240892Y0278293D01*
X0241922Y0277867D01*
X0243035Y0277867D01*
X0244065Y0278293D01*
X0244852Y0279081D01*
X0245278Y0280110D01*
X0245278Y0281224D01*
X0244852Y0282253D01*
X0245278Y0280862D02*
X0276081Y0280862D01*
X0277262Y0279264D02*
X0260339Y0279264D01*
X0260302Y0279353D02*
X0259515Y0280140D01*
X0258485Y0280567D01*
X0257372Y0280567D01*
X0256342Y0280140D01*
X0255555Y0279353D01*
X0255128Y0278324D01*
X0255128Y0277210D01*
X0255555Y0276181D01*
X0256342Y0275393D01*
X0257372Y0274967D01*
X0258485Y0274967D01*
X0259515Y0275393D01*
X0259564Y0275443D01*
X0259328Y0274874D01*
X0259328Y0273760D01*
X0259755Y0272731D01*
X0260542Y0271943D01*
X0261572Y0271517D01*
X0262685Y0271517D01*
X0263715Y0271943D01*
X0264502Y0272731D01*
X0264928Y0273760D01*
X0264928Y0274874D01*
X0264502Y0275903D01*
X0263715Y0276690D01*
X0262685Y0277117D01*
X0261572Y0277117D01*
X0260542Y0276690D01*
X0260493Y0276641D01*
X0260728Y0277210D01*
X0260728Y0278324D01*
X0260302Y0279353D01*
X0260728Y0277665D02*
X0282404Y0277665D01*
X0283753Y0277665D02*
X0314528Y0277665D01*
X0314528Y0278074D02*
X0314528Y0276960D01*
X0314955Y0275931D01*
X0315742Y0275143D01*
X0316772Y0274717D01*
X0317885Y0274717D01*
X0318915Y0275143D01*
X0319702Y0275931D01*
X0319755Y0276058D01*
X0320247Y0275567D01*
X0319662Y0274982D01*
X0319147Y0273739D01*
X0319147Y0272394D01*
X0319662Y0271151D01*
X0320247Y0270567D01*
X0319662Y0269982D01*
X0319147Y0268739D01*
X0319147Y0267394D01*
X0319662Y0266151D01*
X0320247Y0265567D01*
X0319662Y0264982D01*
X0319147Y0263739D01*
X0319147Y0262394D01*
X0319662Y0261151D01*
X0320247Y0260567D01*
X0319662Y0259982D01*
X0319147Y0258739D01*
X0319147Y0257394D01*
X0319399Y0256787D01*
X0319085Y0256917D01*
X0317972Y0256917D01*
X0316942Y0256490D01*
X0316155Y0255703D01*
X0315728Y0254674D01*
X0315728Y0253560D01*
X0316155Y0252531D01*
X0316942Y0251743D01*
X0317972Y0251317D01*
X0319085Y0251317D01*
X0320115Y0251743D01*
X0320902Y0252531D01*
X0321328Y0253560D01*
X0321328Y0254674D01*
X0321213Y0254952D01*
X0321856Y0254686D01*
X0323201Y0254686D01*
X0324444Y0255200D01*
X0325028Y0255785D01*
X0325613Y0255200D01*
X0326856Y0254686D01*
X0328201Y0254686D01*
X0329444Y0255200D01*
X0330395Y0256151D01*
X0330910Y0257394D01*
X0330910Y0258739D01*
X0330395Y0259982D01*
X0329810Y0260567D01*
X0330155Y0260911D01*
X0330525Y0261465D01*
X0330780Y0262080D01*
X0330910Y0262734D01*
X0330910Y0263067D01*
X0330910Y0263400D01*
X0330780Y0264053D01*
X0330525Y0264668D01*
X0330155Y0265222D01*
X0329810Y0265567D01*
X0330155Y0265911D01*
X0330525Y0266465D01*
X0330780Y0267080D01*
X0330910Y0267734D01*
X0330910Y0268067D01*
X0330910Y0268400D01*
X0330780Y0269053D01*
X0330525Y0269668D01*
X0330155Y0270222D01*
X0329810Y0270567D01*
X0330395Y0271151D01*
X0330910Y0272394D01*
X0330910Y0273739D01*
X0330395Y0274982D01*
X0329810Y0275567D01*
X0330155Y0275911D01*
X0330525Y0276465D01*
X0330780Y0277080D01*
X0330910Y0277734D01*
X0330910Y0278067D01*
X0330910Y0278400D01*
X0330780Y0279053D01*
X0330525Y0279668D01*
X0330155Y0280222D01*
X0329684Y0280693D01*
X0329130Y0281063D01*
X0328515Y0281318D01*
X0327861Y0281448D01*
X0327529Y0281448D01*
X0327529Y0278067D01*
X0330910Y0278067D01*
X0327529Y0278067D01*
X0327529Y0278067D01*
X0327528Y0278067D01*
X0327528Y0281448D01*
X0327195Y0281448D01*
X0326542Y0281318D01*
X0325927Y0281063D01*
X0325373Y0280693D01*
X0325028Y0280348D01*
X0324444Y0280933D01*
X0323201Y0281448D01*
X0321856Y0281448D01*
X0320613Y0280933D01*
X0319662Y0279982D01*
X0319416Y0279389D01*
X0318915Y0279890D01*
X0317885Y0280317D01*
X0316772Y0280317D01*
X0315742Y0279890D01*
X0314955Y0279103D01*
X0314528Y0278074D01*
X0315116Y0279264D02*
X0285632Y0279264D01*
X0285878Y0280862D02*
X0320543Y0280862D01*
X0324514Y0280862D02*
X0325627Y0280862D01*
X0327528Y0280862D02*
X0327529Y0280862D01*
X0327528Y0279264D02*
X0327529Y0279264D01*
X0329430Y0280862D02*
X0339242Y0280862D01*
X0339255Y0280831D02*
X0340042Y0280043D01*
X0341072Y0279617D01*
X0342185Y0279617D01*
X0343215Y0280043D01*
X0344002Y0280831D01*
X0344428Y0281860D01*
X0344428Y0282974D01*
X0344002Y0284003D01*
X0343215Y0284790D01*
X0342460Y0285103D01*
X0342628Y0285510D01*
X0342628Y0286624D01*
X0342569Y0286767D01*
X0343635Y0286767D01*
X0343678Y0286785D01*
X0343678Y0286510D01*
X0344105Y0285481D01*
X0344892Y0284693D01*
X0345922Y0284267D01*
X0347035Y0284267D01*
X0348065Y0284693D01*
X0348852Y0285481D01*
X0349278Y0286510D01*
X0349278Y0287624D01*
X0348852Y0288653D01*
X0348065Y0289440D01*
X0347035Y0289867D01*
X0345922Y0289867D01*
X0345878Y0289849D01*
X0345878Y0290124D01*
X0345452Y0291153D01*
X0344665Y0291940D01*
X0343635Y0292367D01*
X0342522Y0292367D01*
X0341492Y0291940D01*
X0340705Y0291153D01*
X0340278Y0290124D01*
X0340278Y0289010D01*
X0340338Y0288867D01*
X0339272Y0288867D01*
X0338242Y0288440D01*
X0337455Y0287653D01*
X0337028Y0286624D01*
X0337028Y0285510D01*
X0337455Y0284481D01*
X0338242Y0283693D01*
X0338997Y0283380D01*
X0338828Y0282974D01*
X0338828Y0281860D01*
X0339255Y0280831D01*
X0338828Y0282461D02*
X0284994Y0282461D01*
X0280318Y0284060D02*
X0297068Y0284060D01*
X0297172Y0284017D02*
X0296142Y0284443D01*
X0295355Y0285231D01*
X0294928Y0286260D01*
X0294928Y0287374D01*
X0295355Y0288403D01*
X0296142Y0289190D01*
X0297172Y0289617D01*
X0298285Y0289617D01*
X0299315Y0289190D01*
X0300102Y0288403D01*
X0300528Y0287374D01*
X0300528Y0286260D01*
X0300102Y0285231D01*
X0299315Y0284443D01*
X0298285Y0284017D01*
X0297172Y0284017D01*
X0298389Y0284060D02*
X0329677Y0284060D01*
X0330022Y0283917D02*
X0328992Y0284343D01*
X0328205Y0285131D01*
X0327778Y0286160D01*
X0327778Y0287274D01*
X0328205Y0288303D01*
X0328992Y0289090D01*
X0330022Y0289517D01*
X0331135Y0289517D01*
X0332165Y0289090D01*
X0332952Y0288303D01*
X0333378Y0287274D01*
X0333378Y0286160D01*
X0332952Y0285131D01*
X0332165Y0284343D01*
X0331135Y0283917D01*
X0330022Y0283917D01*
X0331480Y0284060D02*
X0337876Y0284060D01*
X0337028Y0285658D02*
X0333171Y0285658D01*
X0333378Y0287257D02*
X0337291Y0287257D01*
X0339243Y0288855D02*
X0332400Y0288855D01*
X0328757Y0288855D02*
X0315794Y0288855D01*
X0315878Y0289060D02*
X0315452Y0288031D01*
X0314665Y0287243D01*
X0313635Y0286817D01*
X0312522Y0286817D01*
X0311492Y0287243D01*
X0310705Y0288031D01*
X0310278Y0289060D01*
X0310278Y0290174D01*
X0310705Y0291203D01*
X0311492Y0291990D01*
X0312522Y0292417D01*
X0313635Y0292417D01*
X0314665Y0291990D01*
X0315452Y0291203D01*
X0315878Y0290174D01*
X0315878Y0289060D01*
X0315763Y0290454D02*
X0340415Y0290454D01*
X0341762Y0292052D02*
X0321092Y0292052D01*
X0320885Y0291967D02*
X0321915Y0292393D01*
X0322702Y0293181D01*
X0323128Y0294210D01*
X0323128Y0295324D01*
X0322702Y0296353D01*
X0321915Y0297140D01*
X0320885Y0297567D01*
X0319772Y0297567D01*
X0318742Y0297140D01*
X0317955Y0296353D01*
X0317528Y0295324D01*
X0317528Y0294210D01*
X0317955Y0293181D01*
X0318742Y0292393D01*
X0319772Y0291967D01*
X0320885Y0291967D01*
X0319565Y0292052D02*
X0314516Y0292052D01*
X0311641Y0292052D02*
X0283928Y0292052D01*
X0283075Y0290454D02*
X0310394Y0290454D01*
X0310363Y0288855D02*
X0299650Y0288855D01*
X0300528Y0287257D02*
X0311479Y0287257D01*
X0314678Y0287257D02*
X0327778Y0287257D01*
X0327986Y0285658D02*
X0300279Y0285658D01*
X0295178Y0285658D02*
X0208956Y0285658D01*
X0205878Y0288855D02*
X0205603Y0288855D01*
X0206284Y0290454D02*
X0180678Y0290454D01*
X0180678Y0292052D02*
X0278328Y0292052D01*
X0278588Y0293651D02*
X0180678Y0293651D01*
X0180678Y0295249D02*
X0278264Y0295249D01*
X0279182Y0290454D02*
X0229555Y0290454D01*
X0229878Y0288855D02*
X0295807Y0288855D01*
X0294928Y0287257D02*
X0229178Y0287257D01*
X0231192Y0283590D02*
X0230405Y0282803D01*
X0230111Y0282094D01*
X0229515Y0282690D01*
X0228485Y0283117D01*
X0227372Y0283117D01*
X0226342Y0282690D01*
X0225555Y0281903D01*
X0225128Y0280874D01*
X0225128Y0279760D01*
X0225555Y0278731D01*
X0226342Y0277943D01*
X0227372Y0277517D01*
X0228485Y0277517D01*
X0229515Y0277943D01*
X0230302Y0278731D01*
X0230596Y0279440D01*
X0231192Y0278843D01*
X0232222Y0278417D01*
X0233335Y0278417D01*
X0234365Y0278843D01*
X0235152Y0279631D01*
X0235578Y0280660D01*
X0235578Y0281774D01*
X0235152Y0282803D01*
X0234365Y0283590D01*
X0233335Y0284017D01*
X0232222Y0284017D01*
X0231192Y0283590D01*
X0230263Y0282461D02*
X0229744Y0282461D01*
X0230523Y0279264D02*
X0230771Y0279264D01*
X0228845Y0277665D02*
X0255128Y0277665D01*
X0255518Y0279264D02*
X0244928Y0279264D01*
X0240029Y0279264D02*
X0234786Y0279264D01*
X0235578Y0280862D02*
X0239678Y0280862D01*
X0240313Y0282461D02*
X0235294Y0282461D01*
X0226113Y0282461D02*
X0224690Y0282461D01*
X0225078Y0280862D02*
X0225128Y0280862D01*
X0225334Y0279264D02*
X0224536Y0279264D01*
X0227012Y0277665D02*
X0211087Y0277665D01*
X0211478Y0279264D02*
X0220021Y0279264D01*
X0219478Y0280862D02*
X0210942Y0280862D01*
X0208787Y0276067D02*
X0255668Y0276067D01*
X0259328Y0274468D02*
X0209178Y0274468D01*
X0209037Y0272870D02*
X0259697Y0272870D01*
X0259085Y0271717D02*
X0257972Y0271717D01*
X0256942Y0271290D01*
X0256155Y0270503D01*
X0255728Y0269474D01*
X0255728Y0268360D01*
X0256155Y0267331D01*
X0256942Y0266543D01*
X0257006Y0266517D01*
X0256772Y0266517D01*
X0255742Y0266090D01*
X0254955Y0265303D01*
X0254528Y0264274D01*
X0254528Y0263160D01*
X0254955Y0262131D01*
X0255742Y0261343D01*
X0256772Y0260917D01*
X0257885Y0260917D01*
X0258915Y0261343D01*
X0259702Y0262131D01*
X0260128Y0263160D01*
X0260128Y0264274D01*
X0259702Y0265303D01*
X0258915Y0266090D01*
X0258851Y0266117D01*
X0259085Y0266117D01*
X0260115Y0266543D01*
X0260902Y0267331D01*
X0261328Y0268360D01*
X0261328Y0269474D01*
X0260902Y0270503D01*
X0260115Y0271290D01*
X0259085Y0271717D01*
X0260134Y0271271D02*
X0284978Y0271271D01*
X0284978Y0271574D02*
X0284978Y0270460D01*
X0285405Y0269431D01*
X0286192Y0268643D01*
X0287222Y0268217D01*
X0288335Y0268217D01*
X0289365Y0268643D01*
X0290152Y0269431D01*
X0290317Y0269829D01*
X0291072Y0269517D01*
X0292185Y0269517D01*
X0293215Y0269943D01*
X0294002Y0270731D01*
X0294428Y0271760D01*
X0294428Y0272874D01*
X0294002Y0273903D01*
X0293215Y0274690D01*
X0292185Y0275117D01*
X0291072Y0275117D01*
X0290042Y0274690D01*
X0289255Y0273903D01*
X0289090Y0273504D01*
X0288335Y0273817D01*
X0287222Y0273817D01*
X0286192Y0273390D01*
X0285405Y0272603D01*
X0284978Y0271574D01*
X0285672Y0272870D02*
X0264560Y0272870D01*
X0264928Y0274468D02*
X0289820Y0274468D01*
X0293437Y0274468D02*
X0307166Y0274468D01*
X0307305Y0274803D02*
X0306878Y0273774D01*
X0306878Y0272660D01*
X0307305Y0271631D01*
X0308092Y0270843D01*
X0309122Y0270417D01*
X0310235Y0270417D01*
X0311265Y0270843D01*
X0312052Y0271631D01*
X0312478Y0272660D01*
X0312478Y0273774D01*
X0312052Y0274803D01*
X0311265Y0275590D01*
X0310235Y0276017D01*
X0309122Y0276017D01*
X0308092Y0275590D01*
X0307305Y0274803D01*
X0306878Y0272870D02*
X0294428Y0272870D01*
X0294226Y0271271D02*
X0299073Y0271271D01*
X0299005Y0271203D02*
X0298578Y0270174D01*
X0298578Y0269060D01*
X0299005Y0268031D01*
X0299792Y0267243D01*
X0299900Y0267198D01*
X0299455Y0266753D01*
X0299028Y0265724D01*
X0299028Y0264610D01*
X0299455Y0263581D01*
X0300242Y0262793D01*
X0301272Y0262367D01*
X0302385Y0262367D01*
X0303415Y0262793D01*
X0304202Y0263581D01*
X0304322Y0263871D01*
X0304505Y0263431D01*
X0305292Y0262643D01*
X0306322Y0262217D01*
X0307435Y0262217D01*
X0308465Y0262643D01*
X0309252Y0263431D01*
X0309678Y0264460D01*
X0309678Y0265574D01*
X0309252Y0266603D01*
X0308465Y0267390D01*
X0307435Y0267817D01*
X0306322Y0267817D01*
X0305292Y0267390D01*
X0304505Y0266603D01*
X0304385Y0266313D01*
X0304202Y0266753D01*
X0303415Y0267540D01*
X0303307Y0267585D01*
X0303752Y0268031D01*
X0304178Y0269060D01*
X0304178Y0270174D01*
X0303752Y0271203D01*
X0302965Y0271990D01*
X0301935Y0272417D01*
X0300822Y0272417D01*
X0299792Y0271990D01*
X0299005Y0271203D01*
X0298578Y0269673D02*
X0292563Y0269673D01*
X0290694Y0269673D02*
X0290253Y0269673D01*
X0289585Y0268117D02*
X0288472Y0268117D01*
X0287442Y0267690D01*
X0286655Y0266903D01*
X0286228Y0265874D01*
X0286228Y0264760D01*
X0286655Y0263731D01*
X0287442Y0262943D01*
X0288472Y0262517D01*
X0289585Y0262517D01*
X0290615Y0262943D01*
X0291402Y0263731D01*
X0291828Y0264760D01*
X0291828Y0265874D01*
X0291402Y0266903D01*
X0290615Y0267690D01*
X0289585Y0268117D01*
X0289688Y0268074D02*
X0298987Y0268074D01*
X0299340Y0266476D02*
X0291579Y0266476D01*
X0291828Y0264877D02*
X0299028Y0264877D01*
X0299756Y0263279D02*
X0290950Y0263279D01*
X0290822Y0259517D02*
X0289792Y0259090D01*
X0289005Y0258303D01*
X0288578Y0257274D01*
X0288578Y0256160D01*
X0289005Y0255131D01*
X0289792Y0254343D01*
X0290822Y0253917D01*
X0291935Y0253917D01*
X0292965Y0254343D01*
X0293752Y0255131D01*
X0294178Y0256160D01*
X0294178Y0257274D01*
X0293752Y0258303D01*
X0292965Y0259090D01*
X0291935Y0259517D01*
X0290822Y0259517D01*
X0289185Y0258483D02*
X0258072Y0258483D01*
X0258402Y0258153D02*
X0257615Y0258940D01*
X0256585Y0259367D01*
X0255472Y0259367D01*
X0254442Y0258940D01*
X0253655Y0258153D01*
X0253228Y0257124D01*
X0253228Y0256010D01*
X0253655Y0254981D01*
X0254442Y0254193D01*
X0255472Y0253767D01*
X0256585Y0253767D01*
X0257615Y0254193D01*
X0258402Y0254981D01*
X0258828Y0256010D01*
X0258828Y0257124D01*
X0258402Y0258153D01*
X0258828Y0256885D02*
X0288578Y0256885D01*
X0288940Y0255286D02*
X0258529Y0255286D01*
X0253528Y0255286D02*
X0180678Y0255286D01*
X0180678Y0253688D02*
X0315728Y0253688D01*
X0315982Y0255286D02*
X0293817Y0255286D01*
X0294178Y0256885D02*
X0317895Y0256885D01*
X0319162Y0256885D02*
X0319358Y0256885D01*
X0319147Y0258483D02*
X0293572Y0258483D01*
X0287106Y0263279D02*
X0260128Y0263279D01*
X0259878Y0264877D02*
X0286228Y0264877D01*
X0286478Y0266476D02*
X0259953Y0266476D01*
X0261210Y0268074D02*
X0288369Y0268074D01*
X0285304Y0269673D02*
X0261246Y0269673D01*
X0256923Y0271271D02*
X0210284Y0271271D01*
X0211228Y0269673D02*
X0255811Y0269673D01*
X0255847Y0268074D02*
X0211007Y0268074D01*
X0209249Y0266476D02*
X0256673Y0266476D01*
X0254779Y0264877D02*
X0245966Y0264877D01*
X0245852Y0265153D02*
X0245065Y0265940D01*
X0244035Y0266367D01*
X0242922Y0266367D01*
X0241892Y0265940D01*
X0241105Y0265153D01*
X0240678Y0264124D01*
X0240678Y0263010D01*
X0241105Y0261981D01*
X0241892Y0261193D01*
X0242922Y0260767D01*
X0243428Y0260767D01*
X0243428Y0259910D01*
X0243855Y0258881D01*
X0244642Y0258093D01*
X0245672Y0257667D01*
X0246785Y0257667D01*
X0247815Y0258093D01*
X0248602Y0258881D01*
X0249028Y0259910D01*
X0249028Y0261024D01*
X0248602Y0262053D01*
X0247815Y0262840D01*
X0246785Y0263267D01*
X0246278Y0263267D01*
X0246278Y0264124D01*
X0245852Y0265153D01*
X0246278Y0263279D02*
X0254528Y0263279D01*
X0255405Y0261680D02*
X0248756Y0261680D01*
X0249028Y0260082D02*
X0319762Y0260082D01*
X0319443Y0261680D02*
X0259252Y0261680D01*
X0253985Y0258483D02*
X0248205Y0258483D01*
X0244252Y0258483D02*
X0180678Y0258483D01*
X0180678Y0256885D02*
X0253228Y0256885D01*
X0243428Y0260082D02*
X0207060Y0260082D01*
X0208544Y0261680D02*
X0241405Y0261680D01*
X0240678Y0263279D02*
X0209178Y0263279D01*
X0209178Y0264877D02*
X0240991Y0264877D01*
X0264338Y0276067D02*
X0314898Y0276067D01*
X0312191Y0274468D02*
X0319449Y0274468D01*
X0319147Y0272870D02*
X0312478Y0272870D01*
X0311693Y0271271D02*
X0319612Y0271271D01*
X0319534Y0269673D02*
X0304178Y0269673D01*
X0303770Y0268074D02*
X0319147Y0268074D01*
X0319528Y0266476D02*
X0309305Y0266476D01*
X0309678Y0264877D02*
X0319619Y0264877D01*
X0319147Y0263279D02*
X0309100Y0263279D01*
X0304656Y0263279D02*
X0303900Y0263279D01*
X0304317Y0266476D02*
X0304452Y0266476D01*
X0303684Y0271271D02*
X0307664Y0271271D01*
X0327528Y0268067D02*
X0327528Y0263067D01*
X0327529Y0263067D01*
X0330910Y0263067D01*
X0327529Y0263067D01*
X0327529Y0263067D01*
X0327529Y0266448D01*
X0327529Y0268067D01*
X0330910Y0268067D01*
X0327529Y0268067D01*
X0327529Y0268067D01*
X0327528Y0268067D01*
X0327528Y0266476D02*
X0327529Y0266476D01*
X0327528Y0264877D02*
X0327529Y0264877D01*
X0327528Y0263279D02*
X0327529Y0263279D01*
X0330385Y0264877D02*
X0337829Y0264877D01*
X0337755Y0264803D02*
X0337328Y0263774D01*
X0337328Y0262660D01*
X0337755Y0261631D01*
X0338542Y0260843D01*
X0339572Y0260417D01*
X0340685Y0260417D01*
X0341715Y0260843D01*
X0342502Y0261631D01*
X0342928Y0262660D01*
X0342928Y0263774D01*
X0342502Y0264803D01*
X0341715Y0265590D01*
X0340685Y0266017D01*
X0339572Y0266017D01*
X0338542Y0265590D01*
X0337755Y0264803D01*
X0337328Y0263279D02*
X0330910Y0263279D01*
X0330614Y0261680D02*
X0337734Y0261680D01*
X0342523Y0261680D02*
X0375078Y0261680D01*
X0375078Y0260082D02*
X0350923Y0260082D01*
X0350715Y0260290D02*
X0349685Y0260717D01*
X0348572Y0260717D01*
X0347542Y0260290D01*
X0346755Y0259503D01*
X0346328Y0258474D01*
X0346328Y0257360D01*
X0346755Y0256331D01*
X0347542Y0255543D01*
X0348572Y0255117D01*
X0349685Y0255117D01*
X0350715Y0255543D01*
X0351502Y0256331D01*
X0351928Y0257360D01*
X0351928Y0258474D01*
X0351502Y0259503D01*
X0350715Y0260290D01*
X0351924Y0258483D02*
X0375078Y0258483D01*
X0375078Y0256885D02*
X0351732Y0256885D01*
X0350095Y0255286D02*
X0375078Y0255286D01*
X0375078Y0253688D02*
X0321328Y0253688D01*
X0320461Y0252089D02*
X0375078Y0252089D01*
X0375078Y0250491D02*
X0180678Y0250491D01*
X0180678Y0252089D02*
X0316596Y0252089D01*
X0316122Y0244317D02*
X0315092Y0243890D01*
X0314305Y0243103D01*
X0314055Y0242500D01*
X0313565Y0242990D01*
X0312535Y0243417D01*
X0311422Y0243417D01*
X0310392Y0242990D01*
X0310026Y0242624D01*
X0309952Y0242803D01*
X0309165Y0243590D01*
X0308135Y0244017D01*
X0307022Y0244017D01*
X0305992Y0243590D01*
X0305205Y0242803D01*
X0304778Y0241774D01*
X0304778Y0240660D01*
X0305205Y0239631D01*
X0305992Y0238843D01*
X0307022Y0238417D01*
X0308135Y0238417D01*
X0309165Y0238843D01*
X0309531Y0239209D01*
X0309605Y0239031D01*
X0310392Y0238243D01*
X0311422Y0237817D01*
X0312535Y0237817D01*
X0313565Y0238243D01*
X0314352Y0239031D01*
X0314602Y0239633D01*
X0315092Y0239143D01*
X0316122Y0238717D01*
X0317235Y0238717D01*
X0318265Y0239143D01*
X0319052Y0239931D01*
X0319478Y0240960D01*
X0319478Y0242074D01*
X0319052Y0243103D01*
X0318265Y0243890D01*
X0317235Y0244317D01*
X0316122Y0244317D01*
X0315590Y0244097D02*
X0254041Y0244097D01*
X0253852Y0244553D02*
X0253065Y0245340D01*
X0252035Y0245767D01*
X0250922Y0245767D01*
X0249892Y0245340D01*
X0249105Y0244553D01*
X0248678Y0243524D01*
X0248678Y0242410D01*
X0249105Y0241381D01*
X0249892Y0240593D01*
X0250177Y0240475D01*
X0250105Y0240403D01*
X0249678Y0239374D01*
X0249678Y0238260D01*
X0250105Y0237231D01*
X0250892Y0236443D01*
X0251922Y0236017D01*
X0252978Y0236017D01*
X0252978Y0235960D01*
X0253405Y0234931D01*
X0254192Y0234143D01*
X0255007Y0233805D01*
X0254828Y0233374D01*
X0254828Y0232260D01*
X0255255Y0231231D01*
X0256042Y0230443D01*
X0257072Y0230017D01*
X0258185Y0230017D01*
X0259215Y0230443D01*
X0260002Y0231231D01*
X0260428Y0232260D01*
X0260428Y0233374D01*
X0260002Y0234403D01*
X0259215Y0235190D01*
X0258400Y0235528D01*
X0258578Y0235960D01*
X0258578Y0237074D01*
X0258152Y0238103D01*
X0257365Y0238890D01*
X0256335Y0239317D01*
X0255278Y0239317D01*
X0255278Y0239374D01*
X0254852Y0240403D01*
X0254065Y0241190D01*
X0253780Y0241308D01*
X0253852Y0241381D01*
X0254278Y0242410D01*
X0254278Y0243524D01*
X0253852Y0244553D01*
X0252208Y0245695D02*
X0375078Y0245695D01*
X0375078Y0244097D02*
X0317766Y0244097D01*
X0319303Y0242498D02*
X0347622Y0242498D01*
X0347059Y0241936D02*
X0346328Y0240171D01*
X0346328Y0238262D01*
X0346844Y0237017D01*
X0346572Y0237017D01*
X0345542Y0236590D01*
X0344755Y0235803D01*
X0344328Y0234774D01*
X0344328Y0233660D01*
X0344755Y0232631D01*
X0345542Y0231843D01*
X0346572Y0231417D01*
X0346844Y0231417D01*
X0346328Y0230171D01*
X0346328Y0228262D01*
X0346844Y0227017D01*
X0346322Y0227017D01*
X0345292Y0226590D01*
X0344505Y0225803D01*
X0344078Y0224774D01*
X0344078Y0223660D01*
X0344505Y0222631D01*
X0345292Y0221843D01*
X0346322Y0221417D01*
X0346703Y0221417D01*
X0346228Y0220271D01*
X0346228Y0218362D01*
X0346682Y0217267D01*
X0346322Y0217267D01*
X0345292Y0216840D01*
X0344505Y0216053D01*
X0344078Y0215024D01*
X0344078Y0213910D01*
X0344505Y0212881D01*
X0345292Y0212093D01*
X0346322Y0211667D01*
X0347435Y0211667D01*
X0348465Y0212093D01*
X0349252Y0212881D01*
X0349678Y0213910D01*
X0349678Y0214680D01*
X0350074Y0214517D01*
X0351983Y0214517D01*
X0353747Y0215247D01*
X0355098Y0216598D01*
X0355828Y0218362D01*
X0355828Y0220271D01*
X0355098Y0222036D01*
X0353747Y0223386D01*
X0351983Y0224117D01*
X0350074Y0224117D01*
X0349678Y0223953D01*
X0349678Y0224622D01*
X0350174Y0224417D01*
X0352083Y0224417D01*
X0353847Y0225147D01*
X0355198Y0226498D01*
X0355928Y0228262D01*
X0355928Y0230171D01*
X0355198Y0231936D01*
X0353847Y0233286D01*
X0352083Y0234017D01*
X0350174Y0234017D01*
X0349928Y0233915D01*
X0349928Y0234518D01*
X0350174Y0234417D01*
X0352083Y0234417D01*
X0353847Y0235147D01*
X0355198Y0236498D01*
X0355928Y0238262D01*
X0355928Y0240171D01*
X0355198Y0241936D01*
X0353847Y0243286D01*
X0352083Y0244017D01*
X0350174Y0244017D01*
X0348409Y0243286D01*
X0347059Y0241936D01*
X0346630Y0240900D02*
X0319454Y0240900D01*
X0320222Y0239167D02*
X0319192Y0238740D01*
X0318405Y0237953D01*
X0318301Y0237703D01*
X0318065Y0237940D01*
X0317035Y0238367D01*
X0315922Y0238367D01*
X0314892Y0237940D01*
X0314105Y0237153D01*
X0313678Y0236124D01*
X0313678Y0235010D01*
X0314105Y0233981D01*
X0314892Y0233193D01*
X0315922Y0232767D01*
X0317035Y0232767D01*
X0318065Y0233193D01*
X0318852Y0233981D01*
X0318955Y0234230D01*
X0319192Y0233993D01*
X0320222Y0233567D01*
X0321335Y0233567D01*
X0322365Y0233993D01*
X0323152Y0234781D01*
X0323578Y0235810D01*
X0323578Y0236924D01*
X0323152Y0237953D01*
X0322365Y0238740D01*
X0321335Y0239167D01*
X0320222Y0239167D01*
X0318423Y0239301D02*
X0346328Y0239301D01*
X0346560Y0237703D02*
X0323256Y0237703D01*
X0323578Y0236104D02*
X0345056Y0236104D01*
X0344328Y0234506D02*
X0322877Y0234506D01*
X0317374Y0232907D02*
X0344640Y0232907D01*
X0346800Y0231309D02*
X0260034Y0231309D01*
X0260428Y0232907D02*
X0315582Y0232907D01*
X0313887Y0234506D02*
X0275127Y0234506D01*
X0275252Y0234631D02*
X0275678Y0235660D01*
X0275678Y0236774D01*
X0275252Y0237803D01*
X0274465Y0238590D01*
X0273435Y0239017D01*
X0272322Y0239017D01*
X0271292Y0238590D01*
X0270505Y0237803D01*
X0270078Y0236774D01*
X0270078Y0235660D01*
X0270505Y0234631D01*
X0271292Y0233843D01*
X0272322Y0233417D01*
X0273435Y0233417D01*
X0274465Y0233843D01*
X0275252Y0234631D01*
X0275678Y0236104D02*
X0313678Y0236104D01*
X0314655Y0237703D02*
X0275294Y0237703D01*
X0270463Y0237703D02*
X0258318Y0237703D01*
X0258578Y0236104D02*
X0270078Y0236104D01*
X0270630Y0234506D02*
X0259899Y0234506D01*
X0254828Y0232907D02*
X0231166Y0232907D01*
X0231615Y0233093D02*
X0232402Y0233881D01*
X0232828Y0234910D01*
X0232828Y0236024D01*
X0232402Y0237053D01*
X0231615Y0237840D01*
X0230585Y0238267D01*
X0229472Y0238267D01*
X0228442Y0237840D01*
X0227655Y0237053D01*
X0227228Y0236024D01*
X0227228Y0234910D01*
X0227655Y0233881D01*
X0228442Y0233093D01*
X0229472Y0232667D01*
X0230585Y0232667D01*
X0231615Y0233093D01*
X0232661Y0234506D02*
X0253830Y0234506D01*
X0251710Y0236104D02*
X0232795Y0236104D01*
X0231752Y0237703D02*
X0249909Y0237703D01*
X0249678Y0239301D02*
X0236181Y0239301D01*
X0235735Y0239117D02*
X0236765Y0239543D01*
X0237552Y0240331D01*
X0237978Y0241360D01*
X0237978Y0242474D01*
X0237552Y0243503D01*
X0236765Y0244290D01*
X0235735Y0244717D01*
X0234622Y0244717D01*
X0233592Y0244290D01*
X0232805Y0243503D01*
X0232378Y0242474D01*
X0232378Y0241360D01*
X0232805Y0240331D01*
X0233592Y0239543D01*
X0234622Y0239117D01*
X0235735Y0239117D01*
X0234176Y0239301D02*
X0180678Y0239301D01*
X0180678Y0237703D02*
X0228305Y0237703D01*
X0227262Y0236104D02*
X0180678Y0236104D01*
X0180678Y0234506D02*
X0227396Y0234506D01*
X0228891Y0232907D02*
X0180678Y0232907D01*
X0180678Y0231309D02*
X0255222Y0231309D01*
X0256373Y0239301D02*
X0305534Y0239301D01*
X0304778Y0240900D02*
X0254355Y0240900D01*
X0254278Y0242498D02*
X0305079Y0242498D01*
X0314464Y0239301D02*
X0314934Y0239301D01*
X0324242Y0227090D02*
X0323455Y0226303D01*
X0323028Y0225274D01*
X0323028Y0224160D01*
X0323455Y0223131D01*
X0324242Y0222343D01*
X0325272Y0221917D01*
X0326385Y0221917D01*
X0327415Y0222343D01*
X0328202Y0223131D01*
X0328628Y0224160D01*
X0328628Y0225274D01*
X0328202Y0226303D01*
X0327415Y0227090D01*
X0326385Y0227517D01*
X0325272Y0227517D01*
X0324242Y0227090D01*
X0323665Y0226513D02*
X0279035Y0226513D01*
X0279102Y0226581D02*
X0279528Y0227610D01*
X0279528Y0228724D01*
X0279102Y0229753D01*
X0278315Y0230540D01*
X0277285Y0230967D01*
X0276172Y0230967D01*
X0275142Y0230540D01*
X0274355Y0229753D01*
X0273928Y0228724D01*
X0273928Y0227610D01*
X0274355Y0226581D01*
X0274769Y0226167D01*
X0274355Y0225753D01*
X0273928Y0224724D01*
X0273928Y0223610D01*
X0274355Y0222581D01*
X0275142Y0221793D01*
X0276172Y0221367D01*
X0277285Y0221367D01*
X0278315Y0221793D01*
X0279102Y0222581D01*
X0279528Y0223610D01*
X0279528Y0224724D01*
X0279102Y0225753D01*
X0278688Y0226167D01*
X0279102Y0226581D01*
X0279528Y0228112D02*
X0346391Y0228112D01*
X0346328Y0229710D02*
X0279120Y0229710D01*
X0274337Y0229710D02*
X0180678Y0229710D01*
X0180678Y0228112D02*
X0273928Y0228112D01*
X0274422Y0226513D02*
X0180678Y0226513D01*
X0180678Y0224915D02*
X0274008Y0224915D01*
X0274050Y0223316D02*
X0180678Y0223316D01*
X0180678Y0221718D02*
X0275324Y0221718D01*
X0278133Y0221718D02*
X0345595Y0221718D01*
X0346228Y0220119D02*
X0180678Y0220119D01*
X0180678Y0218521D02*
X0200596Y0218521D01*
X0200755Y0218903D02*
X0200328Y0217874D01*
X0200328Y0216760D01*
X0200755Y0215731D01*
X0201542Y0214943D01*
X0202572Y0214517D01*
X0203685Y0214517D01*
X0204715Y0214943D01*
X0205502Y0215731D01*
X0205928Y0216760D01*
X0205928Y0217874D01*
X0205502Y0218903D01*
X0204715Y0219690D01*
X0203685Y0220117D01*
X0202572Y0220117D01*
X0201542Y0219690D01*
X0200755Y0218903D01*
X0200328Y0216922D02*
X0180678Y0216922D01*
X0180678Y0215324D02*
X0201162Y0215324D01*
X0205095Y0215324D02*
X0238012Y0215324D01*
X0237805Y0215531D02*
X0238592Y0214743D01*
X0239622Y0214317D01*
X0240735Y0214317D01*
X0241765Y0214743D01*
X0242552Y0215531D01*
X0242978Y0216560D01*
X0242978Y0217674D01*
X0242552Y0218703D01*
X0241765Y0219490D01*
X0240735Y0219917D01*
X0239622Y0219917D01*
X0238592Y0219490D01*
X0237805Y0218703D01*
X0237378Y0217674D01*
X0237378Y0216560D01*
X0237805Y0215531D01*
X0237378Y0216922D02*
X0205928Y0216922D01*
X0205661Y0218521D02*
X0237729Y0218521D01*
X0242628Y0218521D02*
X0346228Y0218521D01*
X0345489Y0216922D02*
X0242978Y0216922D01*
X0242345Y0215324D02*
X0344203Y0215324D01*
X0344155Y0213725D02*
X0180678Y0213725D01*
X0180678Y0212127D02*
X0345259Y0212127D01*
X0348498Y0212127D02*
X0375078Y0212127D01*
X0375078Y0213725D02*
X0349602Y0213725D01*
X0353824Y0215324D02*
X0358233Y0215324D01*
X0358409Y0215147D02*
X0360174Y0214417D01*
X0362083Y0214417D01*
X0363847Y0215147D01*
X0365198Y0216498D01*
X0365928Y0218262D01*
X0365928Y0220171D01*
X0365198Y0221936D01*
X0363847Y0223286D01*
X0362083Y0224017D01*
X0360174Y0224017D01*
X0358409Y0223286D01*
X0357059Y0221936D01*
X0356328Y0220171D01*
X0356328Y0218262D01*
X0357059Y0216498D01*
X0358409Y0215147D01*
X0356883Y0216922D02*
X0355232Y0216922D01*
X0355828Y0218521D02*
X0356328Y0218521D01*
X0356328Y0220119D02*
X0355828Y0220119D01*
X0355229Y0221718D02*
X0356969Y0221718D01*
X0358482Y0223316D02*
X0353817Y0223316D01*
X0353285Y0224915D02*
X0358972Y0224915D01*
X0358409Y0225147D02*
X0360174Y0224417D01*
X0362083Y0224417D01*
X0363847Y0225147D01*
X0365198Y0226498D01*
X0365928Y0228262D01*
X0365928Y0230171D01*
X0365198Y0231936D01*
X0363847Y0233286D01*
X0362083Y0234017D01*
X0360174Y0234017D01*
X0358409Y0233286D01*
X0357059Y0231936D01*
X0356328Y0230171D01*
X0356328Y0228262D01*
X0357059Y0226498D01*
X0358409Y0225147D01*
X0357053Y0226513D02*
X0355204Y0226513D01*
X0355866Y0228112D02*
X0356391Y0228112D01*
X0356328Y0229710D02*
X0355928Y0229710D01*
X0355457Y0231309D02*
X0356800Y0231309D01*
X0358031Y0232907D02*
X0354226Y0232907D01*
X0352298Y0234506D02*
X0359959Y0234506D01*
X0360174Y0234417D02*
X0358409Y0235147D01*
X0357059Y0236498D01*
X0356328Y0238262D01*
X0356328Y0240171D01*
X0357059Y0241936D01*
X0358409Y0243286D01*
X0360174Y0244017D01*
X0362083Y0244017D01*
X0363847Y0243286D01*
X0365198Y0241936D01*
X0365928Y0240171D01*
X0365928Y0238262D01*
X0365198Y0236498D01*
X0363847Y0235147D01*
X0362083Y0234417D01*
X0360174Y0234417D01*
X0362298Y0234506D02*
X0370189Y0234506D01*
X0370628Y0234506D02*
X0371628Y0234506D01*
X0372068Y0234506D02*
X0375078Y0234506D01*
X0375078Y0236104D02*
X0374800Y0236104D01*
X0371628Y0236104D02*
X0370628Y0236104D01*
X0370628Y0237703D02*
X0371628Y0237703D01*
X0370628Y0239301D02*
X0365928Y0239301D01*
X0366348Y0239717D02*
X0370628Y0239717D01*
X0370628Y0243997D01*
X0370004Y0243898D01*
X0369286Y0243665D01*
X0368613Y0243322D01*
X0368001Y0242878D01*
X0367467Y0242344D01*
X0367023Y0241732D01*
X0366680Y0241059D01*
X0366447Y0240341D01*
X0366348Y0239717D01*
X0366628Y0240900D02*
X0365627Y0240900D01*
X0364635Y0242498D02*
X0367622Y0242498D01*
X0370628Y0242498D02*
X0371628Y0242498D01*
X0371628Y0240900D02*
X0370628Y0240900D01*
X0374635Y0242498D02*
X0375078Y0242498D01*
X0375078Y0247294D02*
X0180678Y0247294D01*
X0180678Y0248892D02*
X0375078Y0248892D01*
X0366573Y0237703D02*
X0365697Y0237703D01*
X0364804Y0236104D02*
X0367457Y0236104D01*
X0368613Y0233322D02*
X0368001Y0232878D01*
X0367467Y0232344D01*
X0367023Y0231732D01*
X0366680Y0231059D01*
X0366447Y0230341D01*
X0366348Y0229717D01*
X0370628Y0229717D01*
X0370628Y0233997D01*
X0370004Y0233898D01*
X0369286Y0233665D01*
X0368613Y0233322D01*
X0368042Y0232907D02*
X0364226Y0232907D01*
X0365457Y0231309D02*
X0366807Y0231309D01*
X0365928Y0229710D02*
X0370628Y0229710D01*
X0370628Y0228112D02*
X0371628Y0228112D01*
X0371628Y0226513D02*
X0370628Y0226513D01*
X0370628Y0224915D02*
X0371628Y0224915D01*
X0370628Y0223997D02*
X0370004Y0223898D01*
X0369286Y0223665D01*
X0368613Y0223322D01*
X0368001Y0222878D01*
X0367467Y0222344D01*
X0367023Y0221732D01*
X0366680Y0221059D01*
X0366447Y0220341D01*
X0366348Y0219717D01*
X0370628Y0219717D01*
X0370628Y0223997D01*
X0370628Y0223316D02*
X0371628Y0223316D01*
X0371628Y0221718D02*
X0370628Y0221718D01*
X0370628Y0220119D02*
X0371628Y0220119D01*
X0371628Y0218521D02*
X0370628Y0218521D01*
X0370628Y0216922D02*
X0371628Y0216922D01*
X0371628Y0215324D02*
X0370628Y0215324D01*
X0368321Y0215324D02*
X0364024Y0215324D01*
X0365373Y0216922D02*
X0366910Y0216922D01*
X0366379Y0218521D02*
X0365928Y0218521D01*
X0365928Y0220119D02*
X0366412Y0220119D01*
X0367016Y0221718D02*
X0365288Y0221718D01*
X0363775Y0223316D02*
X0368605Y0223316D01*
X0368999Y0224915D02*
X0363285Y0224915D01*
X0365204Y0226513D02*
X0367160Y0226513D01*
X0366444Y0228112D02*
X0365866Y0228112D01*
X0370628Y0231309D02*
X0371628Y0231309D01*
X0371628Y0232907D02*
X0370628Y0232907D01*
X0374215Y0232907D02*
X0375078Y0232907D01*
X0375078Y0224915D02*
X0373258Y0224915D01*
X0373652Y0223316D02*
X0375078Y0223316D01*
X0375078Y0215324D02*
X0373936Y0215324D01*
X0375078Y0210528D02*
X0234012Y0210528D01*
X0234002Y0210553D02*
X0233215Y0211340D01*
X0232185Y0211767D01*
X0231072Y0211767D01*
X0230042Y0211340D01*
X0229255Y0210553D01*
X0228828Y0209524D01*
X0228828Y0208410D01*
X0229255Y0207381D01*
X0230042Y0206593D01*
X0231072Y0206167D01*
X0232185Y0206167D01*
X0233215Y0206593D01*
X0234002Y0207381D01*
X0234428Y0208410D01*
X0234428Y0209524D01*
X0234002Y0210553D01*
X0234428Y0208929D02*
X0301211Y0208929D01*
X0301422Y0209017D02*
X0300392Y0208590D01*
X0299605Y0207803D01*
X0299178Y0206774D01*
X0299178Y0205660D01*
X0299605Y0204631D01*
X0300392Y0203843D01*
X0301422Y0203417D01*
X0302535Y0203417D01*
X0303565Y0203843D01*
X0304352Y0204631D01*
X0304778Y0205660D01*
X0304778Y0206774D01*
X0304352Y0207803D01*
X0303565Y0208590D01*
X0302535Y0209017D01*
X0301422Y0209017D01*
X0302746Y0208929D02*
X0319281Y0208929D01*
X0319642Y0209290D02*
X0318855Y0208503D01*
X0318428Y0207474D01*
X0318428Y0206360D01*
X0318855Y0205331D01*
X0319642Y0204543D01*
X0320672Y0204117D01*
X0321785Y0204117D01*
X0322815Y0204543D01*
X0323602Y0205331D01*
X0324028Y0206360D01*
X0324028Y0207474D01*
X0323602Y0208503D01*
X0322815Y0209290D01*
X0321785Y0209717D01*
X0320672Y0209717D01*
X0319642Y0209290D01*
X0318428Y0207331D02*
X0304548Y0207331D01*
X0304778Y0205732D02*
X0318688Y0205732D01*
X0320630Y0204134D02*
X0303856Y0204134D01*
X0300101Y0204134D02*
X0180678Y0204134D01*
X0180678Y0205732D02*
X0299178Y0205732D01*
X0299409Y0207331D02*
X0233953Y0207331D01*
X0229304Y0207331D02*
X0180678Y0207331D01*
X0180678Y0208929D02*
X0228828Y0208929D01*
X0229244Y0210528D02*
X0180678Y0210528D01*
X0180678Y0202535D02*
X0340258Y0202535D01*
X0340175Y0202453D02*
X0339786Y0201918D01*
X0339486Y0201329D01*
X0339282Y0200700D01*
X0339178Y0200047D01*
X0339178Y0199917D01*
X0343178Y0199917D01*
X0343178Y0199517D01*
X0339178Y0199517D01*
X0339178Y0199386D01*
X0339282Y0198733D01*
X0339486Y0198104D01*
X0339786Y0197515D01*
X0340175Y0196981D01*
X0340642Y0196513D01*
X0341177Y0196125D01*
X0341766Y0195824D01*
X0342395Y0195620D01*
X0343048Y0195517D01*
X0343178Y0195517D01*
X0343178Y0199517D01*
X0343578Y0199517D01*
X0343578Y0195517D01*
X0343709Y0195517D01*
X0344362Y0195620D01*
X0344991Y0195824D01*
X0345580Y0196125D01*
X0346115Y0196513D01*
X0346582Y0196981D01*
X0346971Y0197515D01*
X0347271Y0198104D01*
X0347475Y0198733D01*
X0347578Y0199386D01*
X0347578Y0199517D01*
X0343579Y0199517D01*
X0343579Y0199917D01*
X0347578Y0199917D01*
X0347578Y0200047D01*
X0347475Y0200700D01*
X0347271Y0201329D01*
X0346971Y0201918D01*
X0346582Y0202453D01*
X0346115Y0202920D01*
X0345580Y0203309D01*
X0344991Y0203609D01*
X0344362Y0203813D01*
X0343709Y0203917D01*
X0343578Y0203917D01*
X0343578Y0199917D01*
X0343178Y0199917D01*
X0343178Y0203917D01*
X0343048Y0203917D01*
X0342395Y0203813D01*
X0341766Y0203609D01*
X0341177Y0203309D01*
X0340642Y0202920D01*
X0340175Y0202453D01*
X0339359Y0200937D02*
X0265368Y0200937D01*
X0265452Y0200853D02*
X0264665Y0201640D01*
X0263635Y0202067D01*
X0262522Y0202067D01*
X0261492Y0201640D01*
X0260705Y0200853D01*
X0260278Y0199824D01*
X0260278Y0199551D01*
X0259033Y0200067D01*
X0257124Y0200067D01*
X0255878Y0199551D01*
X0255878Y0200074D01*
X0255452Y0201103D01*
X0254665Y0201890D01*
X0253635Y0202317D01*
X0252522Y0202317D01*
X0251492Y0201890D01*
X0250705Y0201103D01*
X0250278Y0200074D01*
X0250278Y0199551D01*
X0249033Y0200067D01*
X0247124Y0200067D01*
X0245359Y0199336D01*
X0244009Y0197986D01*
X0243278Y0196221D01*
X0243278Y0194312D01*
X0244009Y0192548D01*
X0245359Y0191197D01*
X0247124Y0190467D01*
X0249033Y0190467D01*
X0250797Y0191197D01*
X0252148Y0192548D01*
X0252878Y0194312D01*
X0252878Y0196221D01*
X0252673Y0196717D01*
X0253484Y0196717D01*
X0253278Y0196221D01*
X0253278Y0194312D01*
X0254009Y0192548D01*
X0255359Y0191197D01*
X0257124Y0190467D01*
X0259033Y0190467D01*
X0260797Y0191197D01*
X0262148Y0192548D01*
X0262878Y0194312D01*
X0262878Y0196221D01*
X0262777Y0196467D01*
X0263380Y0196467D01*
X0263278Y0196221D01*
X0263278Y0194312D01*
X0264009Y0192548D01*
X0265359Y0191197D01*
X0267124Y0190467D01*
X0269033Y0190467D01*
X0270797Y0191197D01*
X0272148Y0192548D01*
X0272878Y0194312D01*
X0272878Y0196221D01*
X0272148Y0197986D01*
X0270797Y0199336D01*
X0269033Y0200067D01*
X0267124Y0200067D01*
X0265878Y0199551D01*
X0265878Y0199824D01*
X0265452Y0200853D01*
X0260789Y0200937D02*
X0255521Y0200937D01*
X0250636Y0200937D02*
X0180678Y0200937D01*
X0180678Y0199338D02*
X0245365Y0199338D01*
X0243907Y0197740D02*
X0180678Y0197740D01*
X0180678Y0196141D02*
X0243278Y0196141D01*
X0243278Y0194543D02*
X0195333Y0194543D01*
X0196228Y0192944D02*
X0217106Y0192944D01*
X0217255Y0193303D02*
X0216828Y0192274D01*
X0216828Y0191160D01*
X0217255Y0190131D01*
X0218042Y0189343D01*
X0219072Y0188917D01*
X0220185Y0188917D01*
X0221215Y0189343D01*
X0222002Y0190131D01*
X0222428Y0191160D01*
X0222428Y0192274D01*
X0222002Y0193303D01*
X0221215Y0194090D01*
X0220185Y0194517D01*
X0219072Y0194517D01*
X0218042Y0194090D01*
X0217255Y0193303D01*
X0216828Y0191346D02*
X0196228Y0191346D01*
X0196228Y0189747D02*
X0217638Y0189747D01*
X0221619Y0189747D02*
X0238075Y0189747D01*
X0238028Y0189860D02*
X0238455Y0188831D01*
X0239242Y0188043D01*
X0240272Y0187617D01*
X0241385Y0187617D01*
X0242415Y0188043D01*
X0243202Y0188831D01*
X0243628Y0189860D01*
X0243628Y0190974D01*
X0243202Y0192003D01*
X0242415Y0192790D01*
X0241385Y0193217D01*
X0240272Y0193217D01*
X0239242Y0192790D01*
X0238455Y0192003D01*
X0238028Y0190974D01*
X0238028Y0189860D01*
X0238183Y0191346D02*
X0222428Y0191346D01*
X0222151Y0192944D02*
X0239614Y0192944D01*
X0242043Y0192944D02*
X0243845Y0192944D01*
X0243474Y0191346D02*
X0245211Y0191346D01*
X0246236Y0189715D02*
X0245563Y0189372D01*
X0244951Y0188928D01*
X0244417Y0188394D01*
X0243973Y0187782D01*
X0243630Y0187109D01*
X0243397Y0186391D01*
X0243298Y0185767D01*
X0247578Y0185767D01*
X0247578Y0184767D01*
X0243298Y0184767D01*
X0243397Y0184143D01*
X0243630Y0183424D01*
X0243973Y0182751D01*
X0244417Y0182140D01*
X0244951Y0181605D01*
X0245563Y0181161D01*
X0246236Y0180818D01*
X0246954Y0180585D01*
X0247578Y0180486D01*
X0247578Y0184767D01*
X0248578Y0184767D01*
X0248578Y0180486D01*
X0249202Y0180585D01*
X0249921Y0180818D01*
X0250594Y0181161D01*
X0251205Y0181605D01*
X0251740Y0182140D01*
X0252184Y0182751D01*
X0252527Y0183424D01*
X0252760Y0184143D01*
X0252859Y0184767D01*
X0248579Y0184767D01*
X0248579Y0185767D01*
X0252859Y0185767D01*
X0252760Y0186391D01*
X0252527Y0187109D01*
X0252184Y0187782D01*
X0251740Y0188394D01*
X0251205Y0188928D01*
X0250594Y0189372D01*
X0249921Y0189715D01*
X0249202Y0189948D01*
X0248578Y0190047D01*
X0248578Y0185767D01*
X0247578Y0185767D01*
X0247578Y0190047D01*
X0246954Y0189948D01*
X0246236Y0189715D01*
X0246335Y0189747D02*
X0243582Y0189747D01*
X0244239Y0188149D02*
X0242520Y0188149D01*
X0243449Y0186550D02*
X0196228Y0186550D01*
X0196228Y0184952D02*
X0247578Y0184952D01*
X0248579Y0184952D02*
X0257578Y0184952D01*
X0257578Y0184767D02*
X0257578Y0185767D01*
X0253298Y0185767D01*
X0253397Y0186391D01*
X0253630Y0187109D01*
X0253973Y0187782D01*
X0254417Y0188394D01*
X0254951Y0188928D01*
X0255563Y0189372D01*
X0256236Y0189715D01*
X0256954Y0189948D01*
X0257578Y0190047D01*
X0257578Y0185767D01*
X0258578Y0185767D01*
X0258578Y0190047D01*
X0259202Y0189948D01*
X0259921Y0189715D01*
X0260594Y0189372D01*
X0261205Y0188928D01*
X0261740Y0188394D01*
X0262184Y0187782D01*
X0262527Y0187109D01*
X0262760Y0186391D01*
X0262859Y0185767D01*
X0258579Y0185767D01*
X0258579Y0184767D01*
X0262859Y0184767D01*
X0262760Y0184143D01*
X0262527Y0183424D01*
X0262184Y0182751D01*
X0261740Y0182140D01*
X0261205Y0181605D01*
X0260594Y0181161D01*
X0259921Y0180818D01*
X0259202Y0180585D01*
X0258578Y0180486D01*
X0258578Y0184767D01*
X0257578Y0184767D01*
X0253298Y0184767D01*
X0253397Y0184143D01*
X0253630Y0183424D01*
X0253973Y0182751D01*
X0254417Y0182140D01*
X0254951Y0181605D01*
X0255563Y0181161D01*
X0256236Y0180818D01*
X0256954Y0180585D01*
X0257578Y0180486D01*
X0257578Y0184767D01*
X0258579Y0184952D02*
X0267578Y0184952D01*
X0267578Y0184767D02*
X0267578Y0185767D01*
X0263298Y0185767D01*
X0263397Y0186391D01*
X0263630Y0187109D01*
X0263973Y0187782D01*
X0264417Y0188394D01*
X0264951Y0188928D01*
X0265563Y0189372D01*
X0266236Y0189715D01*
X0266954Y0189948D01*
X0267578Y0190047D01*
X0267578Y0185767D01*
X0268578Y0185767D01*
X0268578Y0190047D01*
X0269202Y0189948D01*
X0269921Y0189715D01*
X0270594Y0189372D01*
X0271205Y0188928D01*
X0271740Y0188394D01*
X0272184Y0187782D01*
X0272527Y0187109D01*
X0272760Y0186391D01*
X0272859Y0185767D01*
X0268579Y0185767D01*
X0268579Y0184767D01*
X0272859Y0184767D01*
X0272760Y0184143D01*
X0272527Y0183424D01*
X0272184Y0182751D01*
X0271740Y0182140D01*
X0271205Y0181605D01*
X0270594Y0181161D01*
X0269921Y0180818D01*
X0269202Y0180585D01*
X0268578Y0180486D01*
X0268578Y0184767D01*
X0267578Y0184767D01*
X0263298Y0184767D01*
X0263397Y0184143D01*
X0263630Y0183424D01*
X0263973Y0182751D01*
X0264417Y0182140D01*
X0264951Y0181605D01*
X0265563Y0181161D01*
X0266236Y0180818D01*
X0266954Y0180585D01*
X0267578Y0180486D01*
X0267578Y0184767D01*
X0268579Y0184952D02*
X0309015Y0184952D01*
X0308928Y0185160D02*
X0309355Y0184131D01*
X0310142Y0183343D01*
X0311172Y0182917D01*
X0312285Y0182917D01*
X0313315Y0183343D01*
X0314102Y0184131D01*
X0314528Y0185160D01*
X0314528Y0186274D01*
X0314102Y0187303D01*
X0313315Y0188090D01*
X0312285Y0188517D01*
X0311172Y0188517D01*
X0310142Y0188090D01*
X0309355Y0187303D01*
X0308928Y0186274D01*
X0308928Y0185160D01*
X0308285Y0184517D02*
X0307172Y0184517D01*
X0306142Y0184090D01*
X0305355Y0183303D01*
X0304928Y0182274D01*
X0304928Y0181160D01*
X0305355Y0180131D01*
X0306142Y0179343D01*
X0307172Y0178917D01*
X0308285Y0178917D01*
X0309315Y0179343D01*
X0310102Y0180131D01*
X0310528Y0181160D01*
X0310528Y0182274D01*
X0310102Y0183303D01*
X0309315Y0184090D01*
X0308285Y0184517D01*
X0310052Y0183353D02*
X0310132Y0183353D01*
X0310528Y0181755D02*
X0312928Y0181755D01*
X0312928Y0182274D02*
X0312928Y0181160D01*
X0313355Y0180131D01*
X0314142Y0179343D01*
X0315172Y0178917D01*
X0316285Y0178917D01*
X0317315Y0179343D01*
X0318102Y0180131D01*
X0318528Y0181160D01*
X0318528Y0182274D01*
X0318102Y0183303D01*
X0317315Y0184090D01*
X0316285Y0184517D01*
X0315172Y0184517D01*
X0314142Y0184090D01*
X0313355Y0183303D01*
X0312928Y0182274D01*
X0313325Y0183353D02*
X0313405Y0183353D01*
X0314442Y0184952D02*
X0365469Y0184952D01*
X0365407Y0185102D02*
X0366103Y0183422D01*
X0367389Y0182136D01*
X0369069Y0181440D01*
X0370888Y0181440D01*
X0372568Y0182136D01*
X0373854Y0183422D01*
X0374550Y0185102D01*
X0374550Y0186921D01*
X0373854Y0188601D01*
X0372568Y0189887D01*
X0370888Y0190583D01*
X0369069Y0190583D01*
X0367389Y0189887D01*
X0366103Y0188601D01*
X0365407Y0186921D01*
X0365407Y0185102D01*
X0365407Y0186550D02*
X0314414Y0186550D01*
X0313174Y0188149D02*
X0365916Y0188149D01*
X0367249Y0189747D02*
X0269822Y0189747D01*
X0268578Y0189747D02*
X0267578Y0189747D01*
X0266335Y0189747D02*
X0259822Y0189747D01*
X0258578Y0189747D02*
X0257578Y0189747D01*
X0256335Y0189747D02*
X0249822Y0189747D01*
X0248578Y0189747D02*
X0247578Y0189747D01*
X0247578Y0188149D02*
X0248578Y0188149D01*
X0248578Y0186550D02*
X0247578Y0186550D01*
X0247578Y0183353D02*
X0248578Y0183353D01*
X0248578Y0181755D02*
X0247578Y0181755D01*
X0244802Y0181755D02*
X0196228Y0181755D01*
X0196228Y0183353D02*
X0243666Y0183353D01*
X0244581Y0178558D02*
X0196228Y0178558D01*
X0196228Y0180156D02*
X0289344Y0180156D01*
X0289355Y0180131D02*
X0290142Y0179343D01*
X0291172Y0178917D01*
X0292285Y0178917D01*
X0293315Y0179343D01*
X0294102Y0180131D01*
X0294528Y0181160D01*
X0294528Y0182274D01*
X0294102Y0183303D01*
X0293315Y0184090D01*
X0292285Y0184517D01*
X0291172Y0184517D01*
X0290142Y0184090D01*
X0289355Y0183303D01*
X0288928Y0182274D01*
X0288928Y0181160D01*
X0289355Y0180131D01*
X0288928Y0181755D02*
X0271355Y0181755D01*
X0272491Y0183353D02*
X0289405Y0183353D01*
X0294052Y0183353D02*
X0297405Y0183353D01*
X0297355Y0183303D02*
X0296928Y0182274D01*
X0296928Y0181160D01*
X0297355Y0180131D01*
X0298142Y0179343D01*
X0299172Y0178917D01*
X0300285Y0178917D01*
X0301315Y0179343D01*
X0302102Y0180131D01*
X0302528Y0181160D01*
X0302528Y0182274D01*
X0302102Y0183303D01*
X0301315Y0184090D01*
X0300285Y0184517D01*
X0299172Y0184517D01*
X0298142Y0184090D01*
X0297355Y0183303D01*
X0296928Y0181755D02*
X0294528Y0181755D01*
X0295172Y0180517D02*
X0294142Y0180090D01*
X0293355Y0179303D01*
X0292928Y0178274D01*
X0292928Y0177160D01*
X0293355Y0176131D01*
X0294142Y0175343D01*
X0295172Y0174917D01*
X0296285Y0174917D01*
X0297315Y0175343D01*
X0298102Y0176131D01*
X0298528Y0177160D01*
X0298528Y0178274D01*
X0298102Y0179303D01*
X0297315Y0180090D01*
X0296285Y0180517D01*
X0295172Y0180517D01*
X0294301Y0180156D02*
X0294113Y0180156D01*
X0293046Y0178558D02*
X0271576Y0178558D01*
X0272573Y0176959D02*
X0293012Y0176959D01*
X0294044Y0175361D02*
X0294125Y0175361D01*
X0294528Y0173762D02*
X0296928Y0173762D01*
X0297332Y0175361D02*
X0297413Y0175361D01*
X0298445Y0176959D02*
X0301012Y0176959D01*
X0300928Y0177160D02*
X0301355Y0176131D01*
X0302142Y0175343D01*
X0303172Y0174917D01*
X0304285Y0174917D01*
X0305315Y0175343D01*
X0306102Y0176131D01*
X0306528Y0177160D01*
X0306528Y0178274D01*
X0306102Y0179303D01*
X0305315Y0180090D01*
X0304285Y0180517D01*
X0303172Y0180517D01*
X0302142Y0180090D01*
X0301355Y0179303D01*
X0300928Y0178274D01*
X0300928Y0177160D01*
X0301046Y0178558D02*
X0298411Y0178558D01*
X0297344Y0180156D02*
X0297156Y0180156D01*
X0302113Y0180156D02*
X0302301Y0180156D01*
X0302528Y0181755D02*
X0304928Y0181755D01*
X0305156Y0180156D02*
X0305344Y0180156D01*
X0306411Y0178558D02*
X0309046Y0178558D01*
X0308928Y0178274D02*
X0308928Y0177160D01*
X0309355Y0176131D01*
X0310142Y0175343D01*
X0311172Y0174917D01*
X0312285Y0174917D01*
X0313315Y0175343D01*
X0314102Y0176131D01*
X0314528Y0177160D01*
X0314528Y0178274D01*
X0314102Y0179303D01*
X0313315Y0180090D01*
X0312285Y0180517D01*
X0311172Y0180517D01*
X0310142Y0180090D01*
X0309355Y0179303D01*
X0308928Y0178274D01*
X0309012Y0176959D02*
X0306445Y0176959D01*
X0305413Y0175361D02*
X0305332Y0175361D01*
X0304928Y0173762D02*
X0302528Y0173762D01*
X0302125Y0175361D02*
X0302044Y0175361D01*
X0302116Y0172164D02*
X0305341Y0172164D01*
X0310116Y0172164D02*
X0313341Y0172164D01*
X0312928Y0173762D02*
X0310528Y0173762D01*
X0310125Y0175361D02*
X0310044Y0175361D01*
X0313332Y0175361D02*
X0313413Y0175361D01*
X0314445Y0176959D02*
X0375078Y0176959D01*
X0375078Y0175361D02*
X0318044Y0175361D01*
X0318528Y0173762D02*
X0375078Y0173762D01*
X0375078Y0172164D02*
X0318116Y0172164D01*
X0314411Y0178558D02*
X0375078Y0178558D01*
X0375078Y0180156D02*
X0341763Y0180156D01*
X0341752Y0180131D02*
X0342178Y0181160D01*
X0342178Y0182274D01*
X0341752Y0183303D01*
X0340965Y0184090D01*
X0339935Y0184517D01*
X0338822Y0184517D01*
X0337792Y0184090D01*
X0337005Y0183303D01*
X0336578Y0182274D01*
X0336578Y0181160D01*
X0337005Y0180131D01*
X0337792Y0179343D01*
X0338822Y0178917D01*
X0339935Y0178917D01*
X0340965Y0179343D01*
X0341752Y0180131D01*
X0342178Y0181755D02*
X0368308Y0181755D01*
X0366171Y0183353D02*
X0341702Y0183353D01*
X0337055Y0183353D02*
X0318052Y0183353D01*
X0318528Y0181755D02*
X0336578Y0181755D01*
X0336994Y0180156D02*
X0318113Y0180156D01*
X0313344Y0180156D02*
X0313156Y0180156D01*
X0310301Y0180156D02*
X0310113Y0180156D01*
X0305405Y0183353D02*
X0302052Y0183353D01*
X0309043Y0186550D02*
X0272708Y0186550D01*
X0271918Y0188149D02*
X0310283Y0188149D01*
X0297341Y0172164D02*
X0294116Y0172164D01*
X0289341Y0172164D02*
X0271764Y0172164D01*
X0272651Y0173762D02*
X0288928Y0173762D01*
X0289413Y0175361D02*
X0272878Y0175361D01*
X0264581Y0178558D02*
X0261576Y0178558D01*
X0262573Y0176959D02*
X0263584Y0176959D01*
X0263278Y0175361D02*
X0262878Y0175361D01*
X0262651Y0173762D02*
X0263506Y0173762D01*
X0264393Y0172164D02*
X0261764Y0172164D01*
X0254393Y0172164D02*
X0251764Y0172164D01*
X0252651Y0173762D02*
X0253506Y0173762D01*
X0253278Y0175361D02*
X0252878Y0175361D01*
X0252573Y0176959D02*
X0253584Y0176959D01*
X0254581Y0178558D02*
X0251576Y0178558D01*
X0251355Y0181755D02*
X0254802Y0181755D01*
X0253666Y0183353D02*
X0252491Y0183353D01*
X0252708Y0186550D02*
X0253449Y0186550D01*
X0254239Y0188149D02*
X0251918Y0188149D01*
X0250946Y0191346D02*
X0255211Y0191346D01*
X0253845Y0192944D02*
X0252312Y0192944D01*
X0252878Y0194543D02*
X0253278Y0194543D01*
X0253278Y0196141D02*
X0252878Y0196141D01*
X0260946Y0191346D02*
X0265211Y0191346D01*
X0263845Y0192944D02*
X0262312Y0192944D01*
X0262878Y0194543D02*
X0263278Y0194543D01*
X0263278Y0196141D02*
X0262878Y0196141D01*
X0270791Y0199338D02*
X0339186Y0199338D01*
X0339672Y0197740D02*
X0272250Y0197740D01*
X0272878Y0196141D02*
X0341154Y0196141D01*
X0343178Y0196141D02*
X0343578Y0196141D01*
X0343578Y0197740D02*
X0343178Y0197740D01*
X0343178Y0199338D02*
X0343578Y0199338D01*
X0343578Y0200937D02*
X0343178Y0200937D01*
X0343178Y0202535D02*
X0343578Y0202535D01*
X0346499Y0202535D02*
X0350258Y0202535D01*
X0349818Y0202096D02*
X0349178Y0200552D01*
X0349178Y0198881D01*
X0349818Y0197338D01*
X0350999Y0196156D01*
X0352543Y0195517D01*
X0354214Y0195517D01*
X0355758Y0196156D01*
X0356939Y0197338D01*
X0357578Y0198881D01*
X0357578Y0200552D01*
X0356939Y0202096D01*
X0355758Y0203277D01*
X0354214Y0203917D01*
X0352543Y0203917D01*
X0350999Y0203277D01*
X0349818Y0202096D01*
X0349338Y0200937D02*
X0347398Y0200937D01*
X0347571Y0199338D02*
X0349178Y0199338D01*
X0349651Y0197740D02*
X0347085Y0197740D01*
X0345603Y0196141D02*
X0351035Y0196141D01*
X0355722Y0196141D02*
X0365726Y0196141D01*
X0365407Y0196913D02*
X0366103Y0195233D01*
X0367389Y0193947D01*
X0369069Y0193251D01*
X0370888Y0193251D01*
X0372568Y0193947D01*
X0373854Y0195233D01*
X0374550Y0196913D01*
X0374550Y0198732D01*
X0373854Y0200412D01*
X0372568Y0201698D01*
X0370888Y0202394D01*
X0369069Y0202394D01*
X0367389Y0201698D01*
X0366103Y0200412D01*
X0365407Y0198732D01*
X0365407Y0196913D01*
X0365407Y0197740D02*
X0357106Y0197740D01*
X0357578Y0199338D02*
X0365658Y0199338D01*
X0366628Y0200937D02*
X0357419Y0200937D01*
X0356499Y0202535D02*
X0375078Y0202535D01*
X0375078Y0200937D02*
X0373329Y0200937D01*
X0374299Y0199338D02*
X0375078Y0199338D01*
X0375078Y0197740D02*
X0374550Y0197740D01*
X0374231Y0196141D02*
X0375078Y0196141D01*
X0375078Y0194543D02*
X0373164Y0194543D01*
X0375078Y0192944D02*
X0272312Y0192944D01*
X0272878Y0194543D02*
X0366792Y0194543D01*
X0372708Y0189747D02*
X0375078Y0189747D01*
X0375078Y0188149D02*
X0374041Y0188149D01*
X0374550Y0186550D02*
X0375078Y0186550D01*
X0375078Y0184952D02*
X0374488Y0184952D01*
X0375078Y0183353D02*
X0373786Y0183353D01*
X0375078Y0181755D02*
X0371649Y0181755D01*
X0375078Y0191346D02*
X0270946Y0191346D01*
X0268578Y0188149D02*
X0267578Y0188149D01*
X0267578Y0186550D02*
X0268578Y0186550D01*
X0268578Y0183353D02*
X0267578Y0183353D01*
X0267578Y0181755D02*
X0268578Y0181755D01*
X0264802Y0181755D02*
X0261355Y0181755D01*
X0262491Y0183353D02*
X0263666Y0183353D01*
X0263449Y0186550D02*
X0262708Y0186550D01*
X0261918Y0188149D02*
X0264239Y0188149D01*
X0258578Y0188149D02*
X0257578Y0188149D01*
X0257578Y0186550D02*
X0258578Y0186550D01*
X0258578Y0183353D02*
X0257578Y0183353D01*
X0257578Y0181755D02*
X0258578Y0181755D01*
X0243584Y0176959D02*
X0196228Y0176959D01*
X0196228Y0175361D02*
X0243278Y0175361D01*
X0243506Y0173762D02*
X0196228Y0173762D01*
X0196228Y0172164D02*
X0244393Y0172164D01*
X0239137Y0188149D02*
X0196228Y0188149D01*
X0279407Y0223316D02*
X0323378Y0223316D01*
X0323028Y0224915D02*
X0279449Y0224915D01*
X0249586Y0240900D02*
X0237788Y0240900D01*
X0237968Y0242498D02*
X0248678Y0242498D01*
X0248916Y0244097D02*
X0236958Y0244097D01*
X0233399Y0244097D02*
X0180678Y0244097D01*
X0180678Y0245695D02*
X0250749Y0245695D01*
X0232389Y0242498D02*
X0180678Y0242498D01*
X0180678Y0240900D02*
X0232569Y0240900D01*
X0201697Y0260082D02*
X0197060Y0260082D01*
X0197097Y0260097D02*
X0198448Y0261448D01*
X0199178Y0263212D01*
X0199178Y0265121D01*
X0198448Y0266886D01*
X0197097Y0268236D01*
X0195333Y0268967D01*
X0193424Y0268967D01*
X0191659Y0268236D01*
X0190309Y0266886D01*
X0189578Y0265121D01*
X0189578Y0263212D01*
X0190309Y0261448D01*
X0191659Y0260097D01*
X0193424Y0259367D01*
X0195333Y0259367D01*
X0197097Y0260097D01*
X0198544Y0261680D02*
X0200213Y0261680D01*
X0199578Y0263279D02*
X0199178Y0263279D01*
X0199178Y0264877D02*
X0199578Y0264877D01*
X0200139Y0266476D02*
X0198617Y0266476D01*
X0197259Y0268074D02*
X0201498Y0268074D01*
X0202684Y0269673D02*
X0196073Y0269673D01*
X0195333Y0269367D02*
X0197097Y0270097D01*
X0198448Y0271448D01*
X0199178Y0273212D01*
X0199178Y0275121D01*
X0198448Y0276886D01*
X0197097Y0278236D01*
X0195333Y0278967D01*
X0193424Y0278967D01*
X0191659Y0278236D01*
X0190309Y0276886D01*
X0189578Y0275121D01*
X0189578Y0273212D01*
X0190309Y0271448D01*
X0191659Y0270097D01*
X0193424Y0269367D01*
X0195333Y0269367D01*
X0192684Y0269673D02*
X0186081Y0269673D01*
X0184878Y0269673D02*
X0183878Y0269673D01*
X0182676Y0269673D02*
X0180678Y0269673D01*
X0180678Y0268074D02*
X0181591Y0268074D01*
X0183878Y0268074D02*
X0184878Y0268074D01*
X0184878Y0266476D02*
X0183878Y0266476D01*
X0183878Y0264877D02*
X0184878Y0264877D01*
X0184878Y0263279D02*
X0183878Y0263279D01*
X0183878Y0261680D02*
X0184878Y0261680D01*
X0184878Y0260082D02*
X0183878Y0260082D01*
X0181835Y0260082D02*
X0180678Y0260082D01*
X0186922Y0260082D02*
X0191697Y0260082D01*
X0190213Y0261680D02*
X0188499Y0261680D01*
X0189098Y0263279D02*
X0189578Y0263279D01*
X0189578Y0264877D02*
X0189126Y0264877D01*
X0188589Y0266476D02*
X0190139Y0266476D01*
X0191498Y0268074D02*
X0187166Y0268074D01*
X0188208Y0271271D02*
X0190486Y0271271D01*
X0189720Y0272870D02*
X0189004Y0272870D01*
X0189578Y0274468D02*
X0184879Y0274468D01*
X0184878Y0272870D02*
X0183878Y0272870D01*
X0183878Y0271271D02*
X0184878Y0271271D01*
X0184878Y0276067D02*
X0183878Y0276067D01*
X0183878Y0277665D02*
X0184878Y0277665D01*
X0187668Y0277665D02*
X0191089Y0277665D01*
X0189970Y0276067D02*
X0188797Y0276067D01*
X0187862Y0280862D02*
X0190894Y0280862D01*
X0190309Y0281448D02*
X0191659Y0280097D01*
X0193424Y0279367D01*
X0195333Y0279367D01*
X0197097Y0280097D01*
X0198448Y0281448D01*
X0199178Y0283212D01*
X0199178Y0285121D01*
X0198448Y0286886D01*
X0197097Y0288236D01*
X0195333Y0288967D01*
X0193424Y0288967D01*
X0191659Y0288236D01*
X0190309Y0286886D01*
X0189578Y0285121D01*
X0189578Y0283212D01*
X0190309Y0281448D01*
X0189890Y0282461D02*
X0188871Y0282461D01*
X0189578Y0284060D02*
X0184879Y0284060D01*
X0184878Y0285658D02*
X0183878Y0285658D01*
X0183878Y0287257D02*
X0184878Y0287257D01*
X0184878Y0288855D02*
X0183878Y0288855D01*
X0183296Y0288855D02*
X0180678Y0288855D01*
X0180678Y0287257D02*
X0180690Y0287257D01*
X0185461Y0288855D02*
X0193154Y0288855D01*
X0195603Y0288855D02*
X0203154Y0288855D01*
X0200680Y0287257D02*
X0198077Y0287257D01*
X0198956Y0285658D02*
X0199801Y0285658D01*
X0199578Y0284060D02*
X0199178Y0284060D01*
X0198867Y0282461D02*
X0199890Y0282461D01*
X0200894Y0280862D02*
X0197862Y0280862D01*
X0197668Y0277665D02*
X0201089Y0277665D01*
X0199970Y0276067D02*
X0198787Y0276067D01*
X0199178Y0274468D02*
X0199578Y0274468D01*
X0199720Y0272870D02*
X0199037Y0272870D01*
X0198271Y0271271D02*
X0200486Y0271271D01*
X0205878Y0279264D02*
X0180678Y0279264D01*
X0180678Y0280862D02*
X0180894Y0280862D01*
X0183878Y0280862D02*
X0184878Y0280862D01*
X0184878Y0282461D02*
X0183878Y0282461D01*
X0181089Y0277665D02*
X0180678Y0277665D01*
X0188941Y0285658D02*
X0189801Y0285658D01*
X0190680Y0287257D02*
X0188067Y0287257D01*
X0180678Y0303242D02*
X0198144Y0303242D01*
X0198005Y0303381D02*
X0198792Y0302593D01*
X0199822Y0302167D01*
X0200935Y0302167D01*
X0201965Y0302593D01*
X0202752Y0303381D01*
X0203178Y0304410D01*
X0203178Y0305524D01*
X0202752Y0306553D01*
X0201965Y0307340D01*
X0200935Y0307767D01*
X0199822Y0307767D01*
X0198792Y0307340D01*
X0198005Y0306553D01*
X0197578Y0305524D01*
X0197578Y0304410D01*
X0198005Y0303381D01*
X0197578Y0304840D02*
X0180678Y0304840D01*
X0180678Y0306439D02*
X0197957Y0306439D01*
X0202799Y0306439D02*
X0203504Y0306439D01*
X0203228Y0304840D02*
X0203178Y0304840D01*
X0202613Y0303242D02*
X0204044Y0303242D01*
X0221128Y0309560D02*
X0221555Y0308531D01*
X0222342Y0307743D01*
X0223372Y0307317D01*
X0224485Y0307317D01*
X0225515Y0307743D01*
X0226302Y0308531D01*
X0226728Y0309560D01*
X0226728Y0310674D01*
X0226302Y0311703D01*
X0225515Y0312490D01*
X0224485Y0312917D01*
X0223372Y0312917D01*
X0222342Y0312490D01*
X0221555Y0311703D01*
X0221128Y0310674D01*
X0221128Y0309560D01*
X0221128Y0309636D02*
X0180678Y0309636D01*
X0180678Y0311234D02*
X0221361Y0311234D01*
X0223169Y0312833D02*
X0180678Y0312833D01*
X0180678Y0314431D02*
X0226471Y0314431D01*
X0225324Y0316030D02*
X0180678Y0316030D01*
X0180678Y0317628D02*
X0225334Y0317628D01*
X0226530Y0319227D02*
X0216898Y0319227D01*
X0216902Y0319231D02*
X0217328Y0320260D01*
X0217328Y0321374D01*
X0216902Y0322403D01*
X0216115Y0323190D01*
X0215085Y0323617D01*
X0213972Y0323617D01*
X0212942Y0323190D01*
X0212155Y0322403D01*
X0211728Y0321374D01*
X0211728Y0320260D01*
X0212155Y0319231D01*
X0212942Y0318443D01*
X0213972Y0318017D01*
X0215085Y0318017D01*
X0216115Y0318443D01*
X0216902Y0319231D01*
X0217328Y0320825D02*
X0228960Y0320825D01*
X0229527Y0319227D02*
X0375078Y0319227D01*
X0375078Y0320825D02*
X0311806Y0320825D01*
X0311785Y0320817D02*
X0312815Y0321243D01*
X0313602Y0322031D01*
X0314028Y0323060D01*
X0314028Y0324174D01*
X0313602Y0325203D01*
X0312815Y0325990D01*
X0311785Y0326417D01*
X0310672Y0326417D01*
X0309642Y0325990D01*
X0308855Y0325203D01*
X0308428Y0324174D01*
X0308428Y0323060D01*
X0308855Y0322031D01*
X0309642Y0321243D01*
X0310672Y0320817D01*
X0311785Y0320817D01*
X0310651Y0320825D02*
X0306672Y0320825D01*
X0307831Y0322424D02*
X0308692Y0322424D01*
X0308428Y0324022D02*
X0307825Y0324022D01*
X0306641Y0325621D02*
X0309273Y0325621D01*
X0309562Y0327219D02*
X0342666Y0327219D01*
X0342505Y0327381D02*
X0343292Y0326593D01*
X0344322Y0326167D01*
X0345435Y0326167D01*
X0346465Y0326593D01*
X0347252Y0327381D01*
X0347678Y0328410D01*
X0347678Y0329524D01*
X0347252Y0330553D01*
X0346465Y0331340D01*
X0345435Y0331767D01*
X0344322Y0331767D01*
X0343292Y0331340D01*
X0342505Y0330553D01*
X0342078Y0329524D01*
X0342078Y0328410D01*
X0342505Y0327381D01*
X0342078Y0328818D02*
X0318189Y0328818D01*
X0317965Y0328593D02*
X0318752Y0329381D01*
X0319178Y0330410D01*
X0319178Y0331524D01*
X0318752Y0332553D01*
X0317965Y0333340D01*
X0316935Y0333767D01*
X0315822Y0333767D01*
X0314792Y0333340D01*
X0314005Y0332553D01*
X0313578Y0331524D01*
X0313578Y0330410D01*
X0314005Y0329381D01*
X0314792Y0328593D01*
X0315822Y0328167D01*
X0316935Y0328167D01*
X0317965Y0328593D01*
X0319178Y0330416D02*
X0342448Y0330416D01*
X0347309Y0330416D02*
X0375078Y0330416D01*
X0375078Y0328818D02*
X0347678Y0328818D01*
X0347091Y0327219D02*
X0375078Y0327219D01*
X0375078Y0325621D02*
X0313184Y0325621D01*
X0314028Y0324022D02*
X0375078Y0324022D01*
X0375078Y0322424D02*
X0313765Y0322424D01*
X0314568Y0328818D02*
X0311433Y0328818D01*
X0311678Y0330416D02*
X0313578Y0330416D01*
X0313782Y0332015D02*
X0310790Y0332015D01*
X0306967Y0332015D02*
X0306928Y0332015D01*
X0305942Y0333613D02*
X0315451Y0333613D01*
X0317306Y0333613D02*
X0320064Y0333613D01*
X0319992Y0333643D02*
X0321022Y0333217D01*
X0322135Y0333217D01*
X0323165Y0333643D01*
X0323952Y0334431D01*
X0324378Y0335460D01*
X0324378Y0336574D01*
X0323952Y0337603D01*
X0323165Y0338390D01*
X0322135Y0338817D01*
X0321022Y0338817D01*
X0319992Y0338390D01*
X0319205Y0337603D01*
X0318778Y0336574D01*
X0318778Y0335460D01*
X0319205Y0334431D01*
X0319992Y0333643D01*
X0318975Y0332015D02*
X0375078Y0332015D01*
X0375078Y0333613D02*
X0323093Y0333613D01*
X0324276Y0335212D02*
X0375078Y0335212D01*
X0375078Y0336810D02*
X0351182Y0336810D01*
X0351252Y0336881D02*
X0351678Y0337910D01*
X0351678Y0339024D01*
X0351252Y0340053D01*
X0350465Y0340840D01*
X0349435Y0341267D01*
X0348322Y0341267D01*
X0347292Y0340840D01*
X0346505Y0340053D01*
X0346178Y0339265D01*
X0346178Y0340024D01*
X0345752Y0341053D01*
X0344965Y0341840D01*
X0343935Y0342267D01*
X0342822Y0342267D01*
X0341792Y0341840D01*
X0341005Y0341053D01*
X0340578Y0340024D01*
X0340578Y0338910D01*
X0341005Y0337881D01*
X0341792Y0337093D01*
X0342822Y0336667D01*
X0343935Y0336667D01*
X0344965Y0337093D01*
X0345752Y0337881D01*
X0346078Y0338668D01*
X0346078Y0337910D01*
X0346505Y0336881D01*
X0347292Y0336093D01*
X0348322Y0335667D01*
X0349435Y0335667D01*
X0350465Y0336093D01*
X0351252Y0336881D01*
X0351678Y0338409D02*
X0375078Y0338409D01*
X0375078Y0340007D02*
X0351271Y0340007D01*
X0346486Y0340007D02*
X0346178Y0340007D01*
X0346078Y0338409D02*
X0345971Y0338409D01*
X0346575Y0336810D02*
X0344282Y0336810D01*
X0342475Y0336810D02*
X0336682Y0336810D01*
X0336465Y0336593D02*
X0337252Y0337381D01*
X0337678Y0338410D01*
X0337678Y0339524D01*
X0337252Y0340553D01*
X0336465Y0341340D01*
X0335435Y0341767D01*
X0334322Y0341767D01*
X0333292Y0341340D01*
X0332505Y0340553D01*
X0332078Y0339524D01*
X0332078Y0338410D01*
X0332505Y0337381D01*
X0333292Y0336593D01*
X0334322Y0336167D01*
X0335435Y0336167D01*
X0336465Y0336593D01*
X0337678Y0338409D02*
X0340786Y0338409D01*
X0340578Y0340007D02*
X0337478Y0340007D01*
X0335824Y0341606D02*
X0341558Y0341606D01*
X0345199Y0341606D02*
X0362029Y0341606D01*
X0362292Y0341343D02*
X0363322Y0340917D01*
X0364435Y0340917D01*
X0365465Y0341343D01*
X0366252Y0342131D01*
X0366678Y0343160D01*
X0366678Y0344274D01*
X0366252Y0345303D01*
X0365465Y0346090D01*
X0364435Y0346517D01*
X0363322Y0346517D01*
X0362292Y0346090D01*
X0361505Y0345303D01*
X0361078Y0344274D01*
X0361078Y0343160D01*
X0361505Y0342131D01*
X0362292Y0341343D01*
X0361078Y0343204D02*
X0328336Y0343204D01*
X0328185Y0343267D02*
X0327072Y0343267D01*
X0326042Y0342840D01*
X0325255Y0342053D01*
X0324828Y0341024D01*
X0324828Y0339910D01*
X0325255Y0338881D01*
X0326042Y0338093D01*
X0327072Y0337667D01*
X0328185Y0337667D01*
X0329215Y0338093D01*
X0330002Y0338881D01*
X0330428Y0339910D01*
X0330428Y0341024D01*
X0330002Y0342053D01*
X0329215Y0342840D01*
X0328185Y0343267D01*
X0327215Y0343593D02*
X0328002Y0344381D01*
X0328428Y0345410D01*
X0328428Y0346524D01*
X0328002Y0347553D01*
X0327215Y0348340D01*
X0326185Y0348767D01*
X0325072Y0348767D01*
X0324042Y0348340D01*
X0323255Y0347553D01*
X0322828Y0346524D01*
X0322828Y0345410D01*
X0323255Y0344381D01*
X0324042Y0343593D01*
X0325072Y0343167D01*
X0326185Y0343167D01*
X0327215Y0343593D01*
X0326921Y0343204D02*
X0326277Y0343204D01*
X0324980Y0343204D02*
X0306751Y0343204D01*
X0307002Y0342953D02*
X0306215Y0343740D01*
X0305185Y0344167D01*
X0304072Y0344167D01*
X0303042Y0343740D01*
X0302255Y0342953D01*
X0301828Y0341924D01*
X0301828Y0340810D01*
X0302255Y0339781D01*
X0303042Y0338993D01*
X0304072Y0338567D01*
X0305185Y0338567D01*
X0306215Y0338993D01*
X0307002Y0339781D01*
X0307428Y0340810D01*
X0307428Y0341924D01*
X0307002Y0342953D01*
X0307428Y0341606D02*
X0325070Y0341606D01*
X0324828Y0340007D02*
X0307096Y0340007D01*
X0302161Y0340007D02*
X0295198Y0340007D01*
X0294915Y0340290D02*
X0293885Y0340717D01*
X0292772Y0340717D01*
X0291742Y0340290D01*
X0290955Y0339503D01*
X0290528Y0338474D01*
X0290528Y0337360D01*
X0290874Y0336527D01*
X0290535Y0336667D01*
X0289422Y0336667D01*
X0288392Y0336240D01*
X0287605Y0335453D01*
X0287178Y0334424D01*
X0287178Y0333310D01*
X0287605Y0332281D01*
X0288392Y0331493D01*
X0289422Y0331067D01*
X0290535Y0331067D01*
X0291565Y0331493D01*
X0292352Y0332281D01*
X0292778Y0333310D01*
X0292778Y0334424D01*
X0292433Y0335257D01*
X0292772Y0335117D01*
X0293885Y0335117D01*
X0294915Y0335543D01*
X0295702Y0336331D01*
X0296128Y0337360D01*
X0296128Y0338474D01*
X0295702Y0339503D01*
X0294915Y0340290D01*
X0296128Y0338409D02*
X0320037Y0338409D01*
X0318877Y0336810D02*
X0295901Y0336810D01*
X0294115Y0335212D02*
X0318881Y0335212D01*
X0323120Y0338409D02*
X0325726Y0338409D01*
X0324280Y0336810D02*
X0333075Y0336810D01*
X0332079Y0338409D02*
X0329530Y0338409D01*
X0330428Y0340007D02*
X0332279Y0340007D01*
X0333933Y0341606D02*
X0330187Y0341606D01*
X0328177Y0344803D02*
X0361298Y0344803D01*
X0363043Y0346401D02*
X0328428Y0346401D01*
X0327555Y0348000D02*
X0375078Y0348000D01*
X0375078Y0349598D02*
X0328712Y0349598D01*
X0328635Y0349567D02*
X0329665Y0349993D01*
X0330452Y0350781D01*
X0330878Y0351810D01*
X0330878Y0352924D01*
X0330452Y0353953D01*
X0329665Y0354740D01*
X0328635Y0355167D01*
X0327522Y0355167D01*
X0326492Y0354740D01*
X0325705Y0353953D01*
X0325278Y0352924D01*
X0325278Y0351810D01*
X0325705Y0350781D01*
X0326492Y0349993D01*
X0327522Y0349567D01*
X0328635Y0349567D01*
X0327445Y0349598D02*
X0263798Y0349598D01*
X0263383Y0348000D02*
X0323702Y0348000D01*
X0322828Y0346401D02*
X0264815Y0346401D01*
X0265428Y0344803D02*
X0323080Y0344803D01*
X0325532Y0351197D02*
X0303069Y0351197D01*
X0302965Y0351093D02*
X0303752Y0351881D01*
X0304178Y0352910D01*
X0304178Y0354024D01*
X0303752Y0355053D01*
X0302965Y0355840D01*
X0301935Y0356267D01*
X0300822Y0356267D01*
X0299792Y0355840D01*
X0299005Y0355053D01*
X0298578Y0354024D01*
X0298578Y0352910D01*
X0299005Y0351881D01*
X0299792Y0351093D01*
X0300822Y0350667D01*
X0301935Y0350667D01*
X0302965Y0351093D01*
X0304131Y0352795D02*
X0325278Y0352795D01*
X0326146Y0354394D02*
X0304025Y0354394D01*
X0302597Y0355993D02*
X0355028Y0355993D01*
X0355028Y0357591D02*
X0262611Y0357591D01*
X0264140Y0359190D02*
X0355028Y0359190D01*
X0355028Y0360788D02*
X0265130Y0360788D01*
X0265182Y0363985D02*
X0355028Y0363985D01*
X0355028Y0362387D02*
X0261129Y0362387D01*
X0264297Y0365584D02*
X0355028Y0365584D01*
X0355028Y0354394D02*
X0330011Y0354394D01*
X0330878Y0352795D02*
X0355028Y0352795D01*
X0355320Y0351197D02*
X0330625Y0351197D01*
X0302506Y0343204D02*
X0265428Y0343204D01*
X0267449Y0341606D02*
X0301828Y0341606D01*
X0302315Y0333613D02*
X0292778Y0333613D01*
X0292542Y0335212D02*
X0292452Y0335212D01*
X0290756Y0336810D02*
X0237932Y0336810D01*
X0238171Y0335212D02*
X0287505Y0335212D01*
X0287178Y0333613D02*
X0238085Y0333613D01*
X0236705Y0332015D02*
X0287871Y0332015D01*
X0292086Y0332015D02*
X0301328Y0332015D01*
X0301533Y0330416D02*
X0220378Y0330416D01*
X0219690Y0332015D02*
X0234152Y0332015D01*
X0235613Y0327219D02*
X0180678Y0327219D01*
X0180678Y0325621D02*
X0235445Y0325621D01*
X0228609Y0324022D02*
X0180678Y0324022D01*
X0180678Y0322424D02*
X0212176Y0322424D01*
X0211728Y0320825D02*
X0180678Y0320825D01*
X0180678Y0319227D02*
X0212159Y0319227D01*
X0216881Y0322424D02*
X0228278Y0322424D01*
X0230723Y0317628D02*
X0230774Y0317628D01*
X0230904Y0314431D02*
X0229586Y0314431D01*
X0226496Y0311234D02*
X0284606Y0311234D01*
X0284655Y0311353D02*
X0284228Y0310324D01*
X0284228Y0309210D01*
X0284655Y0308181D01*
X0285442Y0307393D01*
X0286472Y0306967D01*
X0287585Y0306967D01*
X0288615Y0307393D01*
X0289228Y0308007D01*
X0289442Y0307793D01*
X0290472Y0307367D01*
X0291585Y0307367D01*
X0292615Y0307793D01*
X0293402Y0308581D01*
X0293828Y0309610D01*
X0293828Y0310724D01*
X0293402Y0311753D01*
X0292615Y0312540D01*
X0291585Y0312967D01*
X0290472Y0312967D01*
X0289442Y0312540D01*
X0288828Y0311926D01*
X0288615Y0312140D01*
X0287585Y0312567D01*
X0286472Y0312567D01*
X0285442Y0312140D01*
X0284655Y0311353D01*
X0284228Y0309636D02*
X0226728Y0309636D01*
X0225809Y0308037D02*
X0252728Y0308037D01*
X0252755Y0308103D02*
X0252328Y0307074D01*
X0252328Y0305960D01*
X0252755Y0304931D01*
X0253542Y0304143D01*
X0254572Y0303717D01*
X0255685Y0303717D01*
X0256715Y0304143D01*
X0257502Y0304931D01*
X0257928Y0305960D01*
X0257928Y0307074D01*
X0257502Y0308103D01*
X0256715Y0308890D01*
X0255685Y0309317D01*
X0254572Y0309317D01*
X0253542Y0308890D01*
X0252755Y0308103D01*
X0252328Y0306439D02*
X0238153Y0306439D01*
X0240073Y0304840D02*
X0252845Y0304840D01*
X0257412Y0304840D02*
X0267978Y0304840D01*
X0268214Y0303242D02*
X0240328Y0303242D01*
X0239465Y0301643D02*
X0270037Y0301643D01*
X0268891Y0306439D02*
X0257928Y0306439D01*
X0257529Y0308037D02*
X0284798Y0308037D01*
X0290148Y0312833D02*
X0224688Y0312833D01*
X0222048Y0308037D02*
X0180678Y0308037D01*
X0224326Y0290454D02*
X0224602Y0290454D01*
X0224979Y0287257D02*
X0223878Y0287257D01*
X0235453Y0314431D02*
X0319578Y0314431D01*
X0319578Y0313910D02*
X0320005Y0312881D01*
X0320792Y0312093D01*
X0321665Y0311732D01*
X0321578Y0311524D01*
X0321578Y0310410D01*
X0322005Y0309381D01*
X0322792Y0308593D01*
X0323822Y0308167D01*
X0324935Y0308167D01*
X0325965Y0308593D01*
X0326752Y0309381D01*
X0327178Y0310410D01*
X0327178Y0311524D01*
X0326752Y0312553D01*
X0325965Y0313340D01*
X0325092Y0313702D01*
X0325178Y0313910D01*
X0325178Y0315024D01*
X0324752Y0316053D01*
X0323965Y0316840D01*
X0322935Y0317267D01*
X0321822Y0317267D01*
X0320792Y0316840D01*
X0320005Y0316053D01*
X0319578Y0315024D01*
X0319578Y0313910D01*
X0320053Y0312833D02*
X0291909Y0312833D01*
X0293617Y0311234D02*
X0321578Y0311234D01*
X0321899Y0309636D02*
X0293828Y0309636D01*
X0292859Y0308037D02*
X0338598Y0308037D01*
X0337588Y0309636D02*
X0336254Y0309636D01*
X0336252Y0309631D02*
X0336678Y0310660D01*
X0336678Y0311774D01*
X0336252Y0312803D01*
X0335465Y0313590D01*
X0334435Y0314017D01*
X0333322Y0314017D01*
X0332292Y0313590D01*
X0331505Y0312803D01*
X0331078Y0311774D01*
X0331078Y0310660D01*
X0331505Y0309631D01*
X0332292Y0308843D01*
X0333322Y0308417D01*
X0334435Y0308417D01*
X0335465Y0308843D01*
X0336252Y0309631D01*
X0336678Y0311234D02*
X0337769Y0311234D01*
X0337553Y0312833D02*
X0336222Y0312833D01*
X0336578Y0314431D02*
X0325178Y0314431D01*
X0324762Y0316030D02*
X0336788Y0316030D01*
X0331535Y0312833D02*
X0326472Y0312833D01*
X0327178Y0311234D02*
X0331078Y0311234D01*
X0331503Y0309636D02*
X0326858Y0309636D01*
X0319995Y0316030D02*
X0235978Y0316030D01*
X0224852Y0335212D02*
X0180678Y0335212D01*
X0180678Y0336810D02*
X0224806Y0336810D01*
X0225911Y0338409D02*
X0180678Y0338409D01*
X0184379Y0340007D02*
X0226169Y0340007D01*
X0225878Y0341606D02*
X0184828Y0341606D01*
X0184401Y0343204D02*
X0185385Y0343204D01*
X0185292Y0343243D02*
X0186322Y0342817D01*
X0187435Y0342817D01*
X0188465Y0343243D01*
X0189252Y0344031D01*
X0189678Y0345060D01*
X0189678Y0346174D01*
X0189252Y0347203D01*
X0188838Y0347617D01*
X0189302Y0348081D01*
X0189728Y0349110D01*
X0189728Y0350224D01*
X0189302Y0351253D01*
X0188515Y0352040D01*
X0187485Y0352467D01*
X0186372Y0352467D01*
X0185342Y0352040D01*
X0184555Y0351253D01*
X0184128Y0350224D01*
X0184128Y0349110D01*
X0184555Y0348081D01*
X0184969Y0347667D01*
X0184505Y0347203D01*
X0184078Y0346174D01*
X0184078Y0345060D01*
X0184505Y0344031D01*
X0185292Y0343243D01*
X0184185Y0344803D02*
X0180678Y0344803D01*
X0180678Y0346401D02*
X0184173Y0346401D01*
X0184635Y0348000D02*
X0180678Y0348000D01*
X0180678Y0349598D02*
X0184128Y0349598D01*
X0184532Y0351197D02*
X0180678Y0351197D01*
X0180678Y0352795D02*
X0224620Y0352795D01*
X0224637Y0351197D02*
X0189325Y0351197D01*
X0189728Y0349598D02*
X0225850Y0349598D01*
X0227407Y0348000D02*
X0189222Y0348000D01*
X0189584Y0346401D02*
X0226064Y0346401D01*
X0225993Y0344803D02*
X0189572Y0344803D01*
X0188371Y0343204D02*
X0226656Y0343204D01*
X0225751Y0354394D02*
X0180678Y0354394D01*
X0180678Y0355993D02*
X0225517Y0355993D01*
X0225178Y0357591D02*
X0180678Y0357591D01*
X0180678Y0359190D02*
X0189246Y0359190D01*
X0188528Y0360788D02*
X0180678Y0360788D01*
X0180678Y0362387D02*
X0188844Y0362387D01*
X0193411Y0359190D02*
X0225842Y0359190D01*
X0236075Y0363985D02*
X0180678Y0363985D01*
X0180678Y0365584D02*
X0236960Y0365584D01*
X0244297Y0365584D02*
X0246960Y0365584D01*
X0246075Y0363985D02*
X0245182Y0363985D01*
X0245130Y0360788D02*
X0246127Y0360788D01*
X0247117Y0359190D02*
X0244140Y0359190D01*
X0242611Y0357591D02*
X0248646Y0357591D01*
X0246616Y0355993D02*
X0244641Y0355993D01*
X0245336Y0354394D02*
X0245921Y0354394D01*
X0245828Y0352795D02*
X0245428Y0352795D01*
X0244987Y0351197D02*
X0246270Y0351197D01*
X0247458Y0349598D02*
X0243798Y0349598D01*
X0243383Y0348000D02*
X0247874Y0348000D01*
X0246442Y0346401D02*
X0244815Y0346401D01*
X0245428Y0344803D02*
X0245828Y0344803D01*
X0245828Y0343204D02*
X0245428Y0343204D01*
X0243243Y0338409D02*
X0238878Y0338409D01*
X0248014Y0338409D02*
X0253139Y0338409D01*
X0267867Y0338409D02*
X0290528Y0338409D01*
X0291459Y0340007D02*
X0268178Y0340007D01*
X0264987Y0351197D02*
X0299688Y0351197D01*
X0298626Y0352795D02*
X0265428Y0352795D01*
X0265336Y0354394D02*
X0298732Y0354394D01*
X0300160Y0355993D02*
X0264641Y0355993D01*
X0282859Y0298446D02*
X0283830Y0298446D01*
X0285527Y0298446D02*
X0286148Y0298446D01*
X0286522Y0293651D02*
X0317760Y0293651D01*
X0317528Y0295249D02*
X0311922Y0295249D01*
X0311852Y0295081D02*
X0312278Y0296110D01*
X0312278Y0297224D01*
X0311852Y0298253D01*
X0311065Y0299040D01*
X0310035Y0299467D01*
X0308922Y0299467D01*
X0307892Y0299040D01*
X0307105Y0298253D01*
X0306678Y0297224D01*
X0306678Y0296110D01*
X0307105Y0295081D01*
X0307892Y0294293D01*
X0308922Y0293867D01*
X0310035Y0293867D01*
X0311065Y0294293D01*
X0311852Y0295081D01*
X0312278Y0296848D02*
X0318450Y0296848D01*
X0322207Y0296848D02*
X0363900Y0296848D01*
X0364292Y0297240D02*
X0363505Y0296453D01*
X0363078Y0295424D01*
X0363078Y0294310D01*
X0363505Y0293281D01*
X0364292Y0292493D01*
X0365322Y0292067D01*
X0366435Y0292067D01*
X0366663Y0292161D01*
X0366405Y0291903D01*
X0365978Y0290874D01*
X0365978Y0289760D01*
X0366405Y0288731D01*
X0367094Y0288042D01*
X0366405Y0287353D01*
X0365978Y0286324D01*
X0365978Y0285210D01*
X0366405Y0284181D01*
X0367192Y0283393D01*
X0368222Y0282967D01*
X0369335Y0282967D01*
X0370365Y0283393D01*
X0371152Y0284181D01*
X0371578Y0285210D01*
X0371578Y0286324D01*
X0371152Y0287353D01*
X0370463Y0288042D01*
X0371152Y0288731D01*
X0371578Y0289760D01*
X0371578Y0290874D01*
X0371152Y0291903D01*
X0370365Y0292690D01*
X0369335Y0293117D01*
X0368222Y0293117D01*
X0367994Y0293022D01*
X0368252Y0293281D01*
X0368678Y0294310D01*
X0368678Y0295424D01*
X0368252Y0296453D01*
X0367465Y0297240D01*
X0366435Y0297667D01*
X0365322Y0297667D01*
X0364292Y0297240D01*
X0363078Y0295249D02*
X0323128Y0295249D01*
X0322897Y0293651D02*
X0363351Y0293651D01*
X0366554Y0292052D02*
X0344395Y0292052D01*
X0345742Y0290454D02*
X0365978Y0290454D01*
X0366353Y0288855D02*
X0348650Y0288855D01*
X0349278Y0287257D02*
X0366365Y0287257D01*
X0365978Y0285658D02*
X0348926Y0285658D01*
X0344031Y0285658D02*
X0342628Y0285658D01*
X0343945Y0284060D02*
X0366526Y0284060D01*
X0371031Y0284060D02*
X0375078Y0284060D01*
X0375078Y0285658D02*
X0371578Y0285658D01*
X0371192Y0287257D02*
X0375078Y0287257D01*
X0375078Y0288855D02*
X0371204Y0288855D01*
X0371578Y0290454D02*
X0375078Y0290454D01*
X0375078Y0292052D02*
X0371003Y0292052D01*
X0368405Y0293651D02*
X0375078Y0293651D01*
X0375078Y0295249D02*
X0368678Y0295249D01*
X0367857Y0296848D02*
X0375078Y0296848D01*
X0375078Y0298446D02*
X0311659Y0298446D01*
X0307298Y0298446D02*
X0291109Y0298446D01*
X0291428Y0296848D02*
X0306678Y0296848D01*
X0307035Y0295249D02*
X0290721Y0295249D01*
X0280525Y0279264D02*
X0280295Y0279264D01*
X0324530Y0255286D02*
X0325527Y0255286D01*
X0329530Y0255286D02*
X0348162Y0255286D01*
X0346525Y0256885D02*
X0330699Y0256885D01*
X0330910Y0258483D02*
X0346332Y0258483D01*
X0347334Y0260082D02*
X0330295Y0260082D01*
X0330529Y0266476D02*
X0375078Y0266476D01*
X0375078Y0268074D02*
X0330910Y0268074D01*
X0330522Y0269673D02*
X0375078Y0269673D01*
X0370764Y0271271D02*
X0330445Y0271271D01*
X0330910Y0272870D02*
X0370478Y0272870D01*
X0371270Y0274468D02*
X0330608Y0274468D01*
X0330259Y0276067D02*
X0370458Y0276067D01*
X0370499Y0277665D02*
X0330896Y0277665D01*
X0330692Y0279264D02*
X0371770Y0279264D01*
X0374587Y0279264D02*
X0375078Y0279264D01*
X0375078Y0280862D02*
X0344015Y0280862D01*
X0344428Y0282461D02*
X0375078Y0282461D01*
X0375078Y0264877D02*
X0342428Y0264877D01*
X0342928Y0263279D02*
X0375078Y0263279D01*
X0357622Y0242498D02*
X0354635Y0242498D01*
X0355627Y0240900D02*
X0356630Y0240900D01*
X0356328Y0239301D02*
X0355928Y0239301D01*
X0355697Y0237703D02*
X0356560Y0237703D01*
X0357453Y0236104D02*
X0354804Y0236104D01*
X0349959Y0234506D02*
X0349928Y0234506D01*
X0345215Y0226513D02*
X0327992Y0226513D01*
X0328628Y0224915D02*
X0344137Y0224915D01*
X0344221Y0223316D02*
X0328279Y0223316D01*
X0323175Y0208929D02*
X0375078Y0208929D01*
X0375078Y0207331D02*
X0324028Y0207331D01*
X0323769Y0205732D02*
X0375078Y0205732D01*
X0375078Y0204134D02*
X0321827Y0204134D01*
X0365727Y0341606D02*
X0375078Y0341606D01*
X0375078Y0343204D02*
X0366678Y0343204D01*
X0366459Y0344803D02*
X0375078Y0344803D01*
X0375078Y0346401D02*
X0364714Y0346401D01*
D15*
X0365628Y0348217D03*
X0361628Y0348217D03*
X0357628Y0348467D03*
X0354128Y0351217D03*
X0350128Y0349217D03*
X0346378Y0343217D03*
X0343378Y0339467D03*
X0348878Y0338467D03*
X0356378Y0336717D03*
X0363878Y0343717D03*
X0369628Y0348217D03*
X0373628Y0348217D03*
X0373628Y0344217D03*
X0373628Y0340217D03*
X0373628Y0336217D03*
X0373628Y0332217D03*
X0373628Y0328217D03*
X0373628Y0324217D03*
X0373628Y0320217D03*
X0373628Y0316217D03*
X0373628Y0312217D03*
X0373628Y0308217D03*
X0373628Y0304217D03*
X0373628Y0300217D03*
X0367778Y0303867D03*
X0363778Y0303867D03*
X0365928Y0309367D03*
X0365878Y0316217D03*
X0358728Y0319017D03*
X0354728Y0312367D03*
X0350178Y0318267D03*
X0354828Y0325067D03*
X0344878Y0328967D03*
X0332878Y0326717D03*
X0321578Y0336017D03*
X0316378Y0330967D03*
X0308878Y0329967D03*
X0304128Y0331467D03*
X0296878Y0331217D03*
X0296878Y0335717D03*
X0293328Y0337917D03*
X0296878Y0340217D03*
X0296878Y0344217D03*
X0304628Y0341367D03*
X0289978Y0333867D03*
X0283578Y0338267D03*
X0272828Y0339067D03*
X0265378Y0339717D03*
X0255628Y0339717D03*
X0245628Y0339967D03*
X0236078Y0338917D03*
X0235428Y0334517D03*
X0227528Y0336067D03*
X0228678Y0341267D03*
X0228728Y0345517D03*
X0227328Y0352017D03*
X0227978Y0357367D03*
X0227828Y0364067D03*
X0207828Y0364067D03*
X0197828Y0364067D03*
X0191328Y0361067D03*
X0182828Y0359067D03*
X0186928Y0349667D03*
X0186878Y0345617D03*
X0182028Y0341617D03*
X0181978Y0336817D03*
X0199678Y0340317D03*
X0217578Y0330167D03*
X0222828Y0329067D03*
X0222828Y0324067D03*
X0231078Y0322667D03*
X0228028Y0316817D03*
X0233178Y0316117D03*
X0223928Y0310117D03*
X0217828Y0304067D03*
X0215178Y0299067D03*
X0210228Y0299017D03*
X0204228Y0298917D03*
X0206028Y0305217D03*
X0200378Y0304967D03*
X0187828Y0314067D03*
X0182828Y0319067D03*
X0182828Y0299067D03*
X0187828Y0294067D03*
X0208678Y0288917D03*
X0221828Y0289167D03*
X0227078Y0289117D03*
X0227928Y0280317D03*
X0232778Y0281217D03*
X0242478Y0280667D03*
X0257928Y0277767D03*
X0262128Y0274317D03*
X0258528Y0268917D03*
X0257328Y0263717D03*
X0246228Y0260467D03*
X0243478Y0263567D03*
X0237828Y0254067D03*
X0227828Y0254067D03*
X0217828Y0254067D03*
X0207828Y0254067D03*
X0207828Y0244067D03*
X0197828Y0244067D03*
X0198328Y0236567D03*
X0193328Y0236567D03*
X0189328Y0236567D03*
X0185328Y0236567D03*
X0181328Y0236567D03*
X0181328Y0232067D03*
X0181328Y0227567D03*
X0181328Y0223067D03*
X0181328Y0218567D03*
X0181328Y0214067D03*
X0181328Y0209567D03*
X0181328Y0205067D03*
X0181328Y0200567D03*
X0185328Y0200567D03*
X0185328Y0196067D03*
X0181328Y0196067D03*
X0189328Y0196067D03*
X0193328Y0196067D03*
X0197328Y0196067D03*
X0200978Y0201667D03*
X0190878Y0208667D03*
X0187028Y0216117D03*
X0195678Y0217217D03*
X0203128Y0217317D03*
X0208878Y0222717D03*
X0205628Y0228067D03*
X0199328Y0230817D03*
X0190828Y0223767D03*
X0212378Y0208967D03*
X0223378Y0219467D03*
X0226878Y0222717D03*
X0233878Y0221467D03*
X0233878Y0217467D03*
X0233878Y0213467D03*
X0237878Y0213467D03*
X0240178Y0217117D03*
X0239878Y0209467D03*
X0239878Y0205467D03*
X0239878Y0201217D03*
X0237878Y0197217D03*
X0233878Y0197217D03*
X0233878Y0193217D03*
X0233878Y0189217D03*
X0229878Y0189217D03*
X0229878Y0185217D03*
X0229878Y0181217D03*
X0229878Y0177217D03*
X0229878Y0173217D03*
X0225878Y0173217D03*
X0221878Y0173217D03*
X0217878Y0173217D03*
X0213878Y0173217D03*
X0209878Y0173217D03*
X0205878Y0173217D03*
X0201878Y0173217D03*
X0197878Y0173217D03*
X0197878Y0178217D03*
X0201878Y0178217D03*
X0205878Y0178217D03*
X0209378Y0182217D03*
X0209378Y0186717D03*
X0219628Y0191717D03*
X0224128Y0191717D03*
X0231628Y0202717D03*
X0231628Y0208967D03*
X0253078Y0199517D03*
X0263078Y0199267D03*
X0277828Y0204067D03*
X0284228Y0204717D03*
X0284228Y0200717D03*
X0284228Y0196717D03*
X0277828Y0194067D03*
X0289978Y0204717D03*
X0293978Y0204717D03*
X0297978Y0204717D03*
X0297978Y0208717D03*
X0301928Y0210517D03*
X0305928Y0210517D03*
X0309928Y0210517D03*
X0313928Y0214017D03*
X0317928Y0214017D03*
X0321928Y0214017D03*
X0325928Y0214017D03*
X0329928Y0214017D03*
X0333928Y0214017D03*
X0336678Y0210367D03*
X0340678Y0210367D03*
X0344678Y0210367D03*
X0348678Y0210367D03*
X0352678Y0210367D03*
X0356678Y0210367D03*
X0360678Y0210367D03*
X0364678Y0210367D03*
X0368678Y0210367D03*
X0372678Y0210367D03*
X0346878Y0214467D03*
X0346878Y0224217D03*
X0347128Y0234217D03*
X0325828Y0224717D03*
X0322928Y0229567D03*
X0320778Y0236367D03*
X0316478Y0235567D03*
X0316678Y0241517D03*
X0311978Y0240617D03*
X0307578Y0241217D03*
X0296128Y0240967D03*
X0292128Y0240967D03*
X0301328Y0232667D03*
X0276728Y0228167D03*
X0276728Y0224167D03*
X0271128Y0231867D03*
X0272878Y0236217D03*
X0257628Y0232817D03*
X0255778Y0236517D03*
X0252478Y0238817D03*
X0251478Y0242967D03*
X0255878Y0241967D03*
X0256028Y0256567D03*
X0267828Y0254067D03*
X0277828Y0264067D03*
X0289028Y0265317D03*
X0287778Y0271017D03*
X0291628Y0272317D03*
X0301378Y0269617D03*
X0301828Y0265167D03*
X0306878Y0265017D03*
X0313478Y0264917D03*
X0309678Y0273217D03*
X0309728Y0277817D03*
X0317328Y0277517D03*
X0304878Y0285267D03*
X0301578Y0281567D03*
X0297728Y0286817D03*
X0293428Y0282867D03*
X0291728Y0289717D03*
X0294778Y0292717D03*
X0288628Y0297117D03*
X0284678Y0295767D03*
X0280728Y0296617D03*
X0281128Y0292467D03*
X0278778Y0281667D03*
X0283078Y0280417D03*
X0272828Y0274067D03*
X0291378Y0256717D03*
X0301628Y0256867D03*
X0312178Y0252117D03*
X0318528Y0254117D03*
X0331978Y0256417D03*
X0340128Y0263217D03*
X0335728Y0266367D03*
X0341828Y0277517D03*
X0341628Y0282417D03*
X0339828Y0286067D03*
X0343078Y0289567D03*
X0346478Y0287067D03*
X0357178Y0284617D03*
X0368778Y0285767D03*
X0368778Y0290317D03*
X0365878Y0294867D03*
X0357628Y0299967D03*
X0353628Y0299967D03*
X0349628Y0299967D03*
X0348878Y0305217D03*
X0341878Y0304217D03*
X0337378Y0304217D03*
X0332878Y0303717D03*
X0328378Y0303717D03*
X0323878Y0303717D03*
X0319378Y0303717D03*
X0314878Y0303717D03*
X0310378Y0303717D03*
X0305878Y0303717D03*
X0301378Y0303717D03*
X0296878Y0303717D03*
X0296878Y0308217D03*
X0296878Y0312717D03*
X0296878Y0317217D03*
X0305128Y0323217D03*
X0311228Y0323617D03*
X0320378Y0318217D03*
X0322378Y0314467D03*
X0324378Y0310967D03*
X0333878Y0311217D03*
X0340378Y0310217D03*
X0339378Y0314967D03*
X0320328Y0294767D03*
X0313078Y0289617D03*
X0309478Y0296667D03*
X0330578Y0286717D03*
X0373178Y0276817D03*
X0373278Y0272517D03*
X0372828Y0259067D03*
X0372828Y0249067D03*
X0349128Y0257917D03*
X0270778Y0304367D03*
X0262828Y0309067D03*
X0255128Y0306517D03*
X0249228Y0309967D03*
X0237528Y0303667D03*
X0231728Y0298717D03*
X0251478Y0293717D03*
X0257528Y0298167D03*
X0262078Y0298067D03*
X0277828Y0314067D03*
X0274228Y0317667D03*
X0282778Y0317667D03*
X0287028Y0309767D03*
X0291028Y0310167D03*
X0262828Y0319067D03*
X0251428Y0325967D03*
X0247178Y0326167D03*
X0243128Y0325567D03*
X0238228Y0326217D03*
X0214528Y0320817D03*
X0272828Y0354067D03*
X0282828Y0349067D03*
X0296878Y0353717D03*
X0296878Y0358217D03*
X0301378Y0358217D03*
X0305878Y0358217D03*
X0310378Y0358217D03*
X0314878Y0358217D03*
X0319378Y0358217D03*
X0323878Y0358217D03*
X0328378Y0358217D03*
X0331878Y0361717D03*
X0336378Y0361717D03*
X0340878Y0361717D03*
X0345378Y0361717D03*
X0345378Y0357217D03*
X0349878Y0361717D03*
X0353878Y0361717D03*
X0332878Y0351717D03*
X0328078Y0352367D03*
X0329378Y0347717D03*
X0325628Y0345967D03*
X0327628Y0340467D03*
X0334878Y0338967D03*
X0366378Y0325217D03*
X0327828Y0364067D03*
X0312828Y0364067D03*
X0297828Y0364067D03*
X0301378Y0353467D03*
X0282828Y0364067D03*
X0222278Y0280967D03*
X0208678Y0279167D03*
X0208428Y0269167D03*
X0187828Y0254067D03*
X0182828Y0249067D03*
X0182828Y0244067D03*
X0217828Y0234067D03*
X0230028Y0235467D03*
X0235178Y0241917D03*
X0256478Y0226617D03*
X0301978Y0206217D03*
X0309978Y0200717D03*
X0321978Y0197217D03*
X0321228Y0206917D03*
X0311728Y0185717D03*
X0307728Y0181717D03*
X0303728Y0177717D03*
X0299728Y0181717D03*
X0295728Y0177717D03*
X0291728Y0181717D03*
X0277828Y0179067D03*
X0291728Y0173717D03*
X0299728Y0173717D03*
X0307728Y0173717D03*
X0311728Y0177717D03*
X0315728Y0181717D03*
X0315728Y0173717D03*
X0323978Y0172717D03*
X0327978Y0172717D03*
X0331978Y0172717D03*
X0336378Y0172717D03*
X0340378Y0172717D03*
X0344378Y0172717D03*
X0348378Y0172717D03*
X0352378Y0172717D03*
X0356378Y0172717D03*
X0360378Y0172717D03*
X0364378Y0172717D03*
X0368378Y0172717D03*
X0372378Y0172717D03*
X0339378Y0181717D03*
X0240828Y0190417D03*
X0237828Y0179067D03*
M02*
