G75*
%MOIN*%
%OFA0B0*%
%FSLAX24Y24*%
%IPPOS*%
%LPD*%
%AMOC8*
5,1,8,0,0,1.08239X$1,22.5*
%
%ADD10C,0.0300*%
%ADD11R,0.0433X0.0394*%
%ADD12R,0.0335X0.0354*%
%ADD13R,0.0354X0.0335*%
%ADD14C,0.0396*%
%ADD15C,0.0740*%
%ADD16R,0.0591X0.0512*%
%ADD17C,0.0118*%
%ADD18R,0.0236X0.0236*%
%ADD19R,0.0236X0.0236*%
%ADD20R,0.0591X0.0276*%
%ADD21R,0.0236X0.0394*%
%ADD22R,0.0315X0.0394*%
%ADD23R,0.0112X0.0433*%
%ADD24R,0.0433X0.0112*%
%ADD25OC8,0.0850*%
%ADD26R,0.0787X0.0472*%
%ADD27R,0.0117X0.0335*%
%ADD28R,0.0276X0.0110*%
%ADD29R,0.0945X0.0650*%
%ADD30R,0.0394X0.0433*%
%ADD31R,0.0449X0.1299*%
%ADD32R,0.0295X0.0177*%
%ADD33R,0.0177X0.0295*%
%ADD34R,0.0098X0.0157*%
%ADD35R,0.0157X0.0098*%
%ADD36R,0.0787X0.0787*%
%ADD37C,0.0091*%
%ADD38R,0.0394X0.0669*%
%ADD39R,0.0433X0.0748*%
%ADD40R,0.0280X0.0560*%
%ADD41R,0.1000X0.1000*%
%ADD42R,0.0669X0.0394*%
%ADD43R,0.0276X0.0354*%
%ADD44R,0.0354X0.0276*%
%ADD45C,0.0315*%
%ADD46R,0.0550X0.0300*%
%ADD47R,0.0240X0.0120*%
%ADD48C,0.0160*%
%ADD49C,0.0280*%
%ADD50C,0.0080*%
%ADD51C,0.0060*%
%ADD52C,0.0120*%
D10*
X019643Y011175D02*
X019643Y012876D01*
X020493Y012876D01*
X020777Y012592D01*
X020777Y012025D01*
X020493Y011742D01*
X019643Y011742D01*
X018935Y012025D02*
X018935Y012592D01*
X018652Y012876D01*
X018085Y012876D01*
X017801Y012592D01*
X017801Y012025D01*
X018085Y011742D01*
X018652Y011742D01*
X018935Y012025D01*
X017094Y013443D02*
X015960Y013443D01*
X016527Y013443D02*
X016527Y011742D01*
D11*
X026070Y022682D03*
X026739Y022682D03*
X028930Y022867D03*
X029599Y022867D03*
X031625Y024922D03*
X032294Y024922D03*
X036070Y033847D03*
X036739Y033847D03*
G36*
X034074Y035473D02*
X034379Y035168D01*
X034100Y034889D01*
X033795Y035194D01*
X034074Y035473D01*
G37*
G36*
X033601Y035947D02*
X033906Y035642D01*
X033627Y035363D01*
X033322Y035668D01*
X033601Y035947D01*
G37*
G36*
X033445Y034808D02*
X033750Y035113D01*
X034029Y034834D01*
X033724Y034529D01*
X033445Y034808D01*
G37*
G36*
X032971Y034335D02*
X033276Y034640D01*
X033555Y034361D01*
X033250Y034056D01*
X032971Y034335D01*
G37*
X031399Y035247D03*
X030730Y035247D03*
D12*
X031916Y035237D03*
X032373Y035237D03*
G36*
X033876Y034497D02*
X034112Y034733D01*
X034362Y034483D01*
X034126Y034247D01*
X033876Y034497D01*
G37*
G36*
X034199Y034820D02*
X034435Y035056D01*
X034685Y034806D01*
X034449Y034570D01*
X034199Y034820D01*
G37*
X035046Y033277D03*
X035503Y033277D03*
X036266Y033262D03*
X036723Y033262D03*
X035703Y030497D03*
X035246Y030497D03*
X026178Y029387D03*
X025721Y029387D03*
X028941Y023447D03*
X029398Y023447D03*
X026633Y023282D03*
X026176Y023282D03*
X022383Y019572D03*
X021926Y019572D03*
X019478Y020182D03*
X019021Y020182D03*
X021876Y017797D03*
X022333Y017797D03*
X019478Y023082D03*
X019021Y023082D03*
D13*
X022730Y021800D03*
X022730Y021343D03*
X022730Y020775D03*
X022730Y020318D03*
X020405Y018675D03*
X020405Y018218D03*
X019855Y018218D03*
X019855Y018675D03*
X021355Y018225D03*
X021355Y017768D03*
X031190Y019143D03*
X031190Y019600D03*
X030130Y023918D03*
X030130Y024375D03*
X030555Y027318D03*
X030555Y027775D03*
X034585Y027748D03*
X034585Y028205D03*
X025050Y029763D03*
X025050Y030220D03*
X024025Y029380D03*
X024025Y028923D03*
X022795Y030488D03*
X022795Y030945D03*
X018670Y033708D03*
X018670Y034165D03*
D14*
X032220Y027807D03*
X032720Y027807D03*
X032720Y027307D03*
X032720Y026807D03*
X032720Y026307D03*
X032720Y025807D03*
X032220Y025807D03*
X032220Y026307D03*
X032220Y026807D03*
X032220Y027307D03*
D15*
X034305Y019972D03*
X035305Y019972D03*
D16*
X028210Y022603D03*
X028210Y023351D03*
D17*
X025311Y022839D02*
X025116Y023034D01*
X025311Y023229D01*
X025506Y023034D01*
X025311Y022839D01*
X025428Y022956D02*
X025194Y022956D01*
X025155Y023073D02*
X025467Y023073D01*
X025350Y023190D02*
X025272Y023190D01*
X024957Y023193D02*
X024762Y023388D01*
X024957Y023583D01*
X025152Y023388D01*
X024957Y023193D01*
X025074Y023310D02*
X024840Y023310D01*
X024801Y023427D02*
X025113Y023427D01*
X024996Y023544D02*
X024918Y023544D01*
X024604Y023546D02*
X024409Y023741D01*
X024604Y023936D01*
X024799Y023741D01*
X024604Y023546D01*
X024721Y023663D02*
X024487Y023663D01*
X024448Y023780D02*
X024760Y023780D01*
X024643Y023897D02*
X024565Y023897D01*
X023920Y023253D02*
X024115Y023058D01*
X023920Y023253D02*
X024115Y023448D01*
X024310Y023253D01*
X024115Y023058D01*
X024232Y023175D02*
X023998Y023175D01*
X023959Y023292D02*
X024271Y023292D01*
X024154Y023409D02*
X024076Y023409D01*
X024274Y022899D02*
X024469Y022704D01*
X024274Y022899D02*
X024469Y023094D01*
X024664Y022899D01*
X024469Y022704D01*
X024586Y022821D02*
X024352Y022821D01*
X024313Y022938D02*
X024625Y022938D01*
X024508Y023055D02*
X024430Y023055D01*
X024627Y022546D02*
X024822Y022351D01*
X024627Y022546D02*
X024822Y022741D01*
X025017Y022546D01*
X024822Y022351D01*
X024939Y022468D02*
X024705Y022468D01*
X024666Y022585D02*
X024978Y022585D01*
X024861Y022702D02*
X024783Y022702D01*
D18*
X019965Y021342D03*
X019965Y020942D03*
X022930Y019822D03*
X022930Y019422D03*
X030515Y020622D03*
X030915Y020622D03*
X031415Y020622D03*
X031415Y021022D03*
X031965Y021022D03*
X032365Y021022D03*
X032865Y021022D03*
X033265Y021022D03*
X033595Y025567D03*
X033595Y025967D03*
X035350Y026037D03*
X035350Y026437D03*
X035770Y026437D03*
X035770Y026037D03*
X036190Y026037D03*
X036190Y026437D03*
X036610Y026437D03*
X036610Y026037D03*
X036400Y026857D03*
X036400Y027257D03*
X035980Y027257D03*
X035980Y026857D03*
X035560Y026857D03*
X035560Y027257D03*
X035140Y027257D03*
X035140Y026857D03*
X032635Y028697D03*
X032235Y028697D03*
X031675Y029292D03*
X031675Y029667D03*
X031275Y029667D03*
X031275Y029292D03*
X031260Y027752D03*
X031260Y027352D03*
X031210Y026082D03*
X031210Y025682D03*
X020845Y031552D03*
X020845Y031952D03*
X020425Y031952D03*
X020425Y031552D03*
X020005Y031552D03*
X020005Y031952D03*
X019585Y031952D03*
X019585Y031552D03*
X019795Y032372D03*
X019795Y032772D03*
X020215Y032772D03*
X020215Y032372D03*
X020635Y032372D03*
X020635Y032772D03*
X019375Y032772D03*
X019375Y032372D03*
X021840Y034307D03*
X021840Y034682D03*
X022240Y034682D03*
X022240Y034307D03*
X022240Y035102D03*
X021840Y035102D03*
X021840Y035522D03*
X022240Y035522D03*
X022240Y035942D03*
X021840Y035942D03*
X021420Y035732D03*
X021020Y035732D03*
X021020Y035312D03*
X021420Y035312D03*
X021420Y034892D03*
X021020Y034892D03*
X029195Y032587D03*
X029595Y032587D03*
X031145Y034212D03*
X031145Y034612D03*
X032005Y034407D03*
X032005Y034007D03*
D19*
G36*
X035249Y034215D02*
X035083Y034049D01*
X034917Y034215D01*
X035083Y034381D01*
X035249Y034215D01*
G37*
G36*
X035532Y034498D02*
X035366Y034332D01*
X035200Y034498D01*
X035366Y034664D01*
X035532Y034498D01*
G37*
G36*
X035827Y034193D02*
X035661Y034027D01*
X035495Y034193D01*
X035661Y034359D01*
X035827Y034193D01*
G37*
G36*
X035544Y033910D02*
X035378Y033744D01*
X035212Y033910D01*
X035378Y034076D01*
X035544Y033910D01*
G37*
G36*
X030785Y023784D02*
X030951Y023950D01*
X031117Y023784D01*
X030951Y023618D01*
X030785Y023784D01*
G37*
G36*
X030502Y023501D02*
X030668Y023667D01*
X030834Y023501D01*
X030668Y023335D01*
X030502Y023501D01*
G37*
G36*
X030354Y023056D02*
X030520Y023222D01*
X030686Y023056D01*
X030520Y022890D01*
X030354Y023056D01*
G37*
G36*
X030071Y022773D02*
X030237Y022939D01*
X030403Y022773D01*
X030237Y022607D01*
X030071Y022773D01*
G37*
G36*
X030368Y022476D02*
X030534Y022642D01*
X030700Y022476D01*
X030534Y022310D01*
X030368Y022476D01*
G37*
G36*
X030651Y022759D02*
X030817Y022925D01*
X030983Y022759D01*
X030817Y022593D01*
X030651Y022759D01*
G37*
G36*
X030799Y023204D02*
X030965Y023370D01*
X031131Y023204D01*
X030965Y023038D01*
X030799Y023204D01*
G37*
G36*
X031082Y023487D02*
X031248Y023653D01*
X031414Y023487D01*
X031248Y023321D01*
X031082Y023487D01*
G37*
G36*
X031379Y023190D02*
X031545Y023356D01*
X031711Y023190D01*
X031545Y023024D01*
X031379Y023190D01*
G37*
G36*
X031096Y022907D02*
X031262Y023073D01*
X031428Y022907D01*
X031262Y022741D01*
X031096Y022907D01*
G37*
G36*
X030948Y022462D02*
X031114Y022628D01*
X031280Y022462D01*
X031114Y022296D01*
X030948Y022462D01*
G37*
G36*
X030665Y022179D02*
X030831Y022345D01*
X030997Y022179D01*
X030831Y022013D01*
X030665Y022179D01*
G37*
G36*
X030962Y021882D02*
X031128Y022048D01*
X031294Y021882D01*
X031128Y021716D01*
X030962Y021882D01*
G37*
G36*
X031245Y022165D02*
X031411Y022331D01*
X031577Y022165D01*
X031411Y021999D01*
X031245Y022165D01*
G37*
G36*
X031393Y022610D02*
X031559Y022776D01*
X031725Y022610D01*
X031559Y022444D01*
X031393Y022610D01*
G37*
G36*
X031676Y022893D02*
X031842Y023059D01*
X032008Y022893D01*
X031842Y022727D01*
X031676Y022893D01*
G37*
G36*
X024667Y022224D02*
X024501Y022058D01*
X024335Y022224D01*
X024501Y022390D01*
X024667Y022224D01*
G37*
G36*
X024384Y021941D02*
X024218Y021775D01*
X024052Y021941D01*
X024218Y022107D01*
X024384Y021941D01*
G37*
G36*
X024031Y022295D02*
X023865Y022129D01*
X023699Y022295D01*
X023865Y022461D01*
X024031Y022295D01*
G37*
G36*
X024313Y022578D02*
X024147Y022412D01*
X023981Y022578D01*
X024147Y022744D01*
X024313Y022578D01*
G37*
G36*
X023960Y022931D02*
X023794Y022765D01*
X023628Y022931D01*
X023794Y023097D01*
X023960Y022931D01*
G37*
G36*
X023677Y022649D02*
X023511Y022483D01*
X023345Y022649D01*
X023511Y022815D01*
X023677Y022649D01*
G37*
D20*
X036276Y020077D03*
X036276Y019487D03*
X036276Y018306D03*
D21*
X037358Y017755D03*
X037358Y020629D03*
D22*
X036531Y020629D03*
X036531Y017755D03*
D23*
X028831Y024103D03*
X028634Y024103D03*
X028437Y024103D03*
X028240Y024103D03*
X028043Y024103D03*
X027847Y024103D03*
X027650Y024103D03*
X027453Y024103D03*
X027256Y024103D03*
X027059Y024103D03*
X026862Y024103D03*
X026666Y024103D03*
X026469Y024103D03*
X026272Y024103D03*
X026075Y024103D03*
X025878Y024103D03*
X025878Y028591D03*
X026075Y028591D03*
X026272Y028591D03*
X026469Y028591D03*
X026666Y028591D03*
X026862Y028591D03*
X027059Y028591D03*
X027256Y028591D03*
X027453Y028591D03*
X027650Y028591D03*
X027847Y028591D03*
X028043Y028591D03*
X028240Y028591D03*
X028437Y028591D03*
X028634Y028591D03*
X028831Y028591D03*
D24*
X029599Y027823D03*
X029599Y027626D03*
X029599Y027429D03*
X029599Y027232D03*
X029599Y027036D03*
X029599Y026839D03*
X029599Y026642D03*
X029599Y026445D03*
X029599Y026248D03*
X029599Y026051D03*
X029599Y025855D03*
X029599Y025658D03*
X029599Y025461D03*
X029599Y025264D03*
X029599Y025067D03*
X029599Y024870D03*
X025110Y024870D03*
X025110Y025067D03*
X025110Y025264D03*
X025110Y025461D03*
X025110Y025658D03*
X025110Y025855D03*
X025110Y026051D03*
X025110Y026248D03*
X025110Y026445D03*
X025110Y026642D03*
X025110Y026839D03*
X025110Y027036D03*
X025110Y027232D03*
X025110Y027429D03*
X025110Y027626D03*
X025110Y027823D03*
D25*
X020405Y027417D03*
X020405Y026417D03*
X019405Y026417D03*
X018405Y026417D03*
X018405Y027417D03*
X019405Y027417D03*
X019405Y028417D03*
X018405Y028417D03*
X020405Y028417D03*
X024030Y034397D03*
X025030Y034397D03*
X025030Y035322D03*
X024030Y035322D03*
X024030Y036247D03*
X025030Y036247D03*
X026030Y036247D03*
X026030Y035322D03*
X026030Y034397D03*
X035080Y023922D03*
X036080Y023922D03*
X037080Y023922D03*
X037080Y022922D03*
X036080Y022922D03*
X035080Y022922D03*
X035070Y021932D03*
X036080Y021922D03*
X037080Y021922D03*
X026775Y019527D03*
X025775Y019527D03*
X024775Y019527D03*
X024775Y018527D03*
X025775Y018527D03*
X026775Y018527D03*
X026775Y017527D03*
X025775Y017527D03*
X024775Y017527D03*
D26*
X029115Y018742D03*
X030215Y018742D03*
X030215Y020002D03*
X029115Y020002D03*
D27*
X031771Y020302D03*
X031968Y020302D03*
X032165Y020302D03*
X032361Y020302D03*
X032558Y020302D03*
X032558Y019141D03*
X032361Y019141D03*
X032165Y019141D03*
X031968Y019141D03*
X031771Y019141D03*
D28*
X031574Y019623D03*
X031574Y019820D03*
X032755Y019820D03*
X032755Y019623D03*
D29*
X032165Y019722D03*
D30*
X033315Y020056D03*
X033315Y019387D03*
X023530Y020187D03*
X023530Y020856D03*
D31*
X032315Y018172D03*
X033315Y018172D03*
D32*
X033737Y021693D03*
X033737Y022150D03*
X034272Y022150D03*
X034272Y021697D03*
X034272Y022697D03*
X034272Y023150D03*
X033737Y023150D03*
X033737Y022693D03*
X033737Y023693D03*
X033737Y024150D03*
X034272Y024150D03*
X034272Y023697D03*
X021747Y026188D03*
X021747Y026645D03*
X021212Y026641D03*
X021212Y026188D03*
X021212Y027188D03*
X021212Y027641D03*
X021747Y027645D03*
X021747Y027188D03*
X021747Y028188D03*
X021747Y028645D03*
X021212Y028641D03*
X021212Y028188D03*
D33*
X023801Y033054D03*
X024258Y033054D03*
X024254Y033589D03*
X023801Y033589D03*
X024801Y033589D03*
X025254Y033589D03*
X025258Y033054D03*
X024801Y033054D03*
X025801Y033054D03*
X026258Y033054D03*
X026254Y033589D03*
X025801Y033589D03*
X026003Y020869D03*
X025546Y020869D03*
X025550Y020334D03*
X026003Y020334D03*
X026550Y020334D03*
X027003Y020334D03*
X027003Y020869D03*
X026546Y020869D03*
X025003Y020869D03*
X024546Y020869D03*
X024550Y020334D03*
X025003Y020334D03*
D34*
X021598Y020188D03*
X021401Y020188D03*
X021205Y020188D03*
X021008Y020188D03*
X020811Y020188D03*
X020811Y021605D03*
X021008Y021605D03*
X021205Y021605D03*
X021401Y021605D03*
X021598Y021605D03*
X035182Y027768D03*
X035379Y027768D03*
X035576Y027768D03*
X035773Y027768D03*
X035970Y027768D03*
X036167Y027768D03*
X036167Y029185D03*
X035970Y029185D03*
X035773Y029185D03*
X035576Y029185D03*
X035379Y029185D03*
X035182Y029185D03*
X033943Y031791D03*
X033747Y031791D03*
X033550Y031791D03*
X033353Y031791D03*
X033156Y031791D03*
X032959Y031791D03*
X032762Y031791D03*
X032566Y031791D03*
X032566Y033602D03*
X032762Y033602D03*
X032959Y033602D03*
X033156Y033602D03*
X033353Y033602D03*
X033550Y033602D03*
X033747Y033602D03*
X033943Y033602D03*
X020417Y033338D03*
X020220Y033338D03*
X020023Y033338D03*
X019826Y033338D03*
X019629Y033338D03*
X019432Y033338D03*
X019432Y034755D03*
X019629Y034755D03*
X019826Y034755D03*
X020023Y034755D03*
X020220Y034755D03*
X020417Y034755D03*
D35*
X020633Y034539D03*
X020633Y034342D03*
X020633Y034145D03*
X020633Y033948D03*
X020633Y033751D03*
X020633Y033555D03*
X019216Y033555D03*
X019216Y033751D03*
X019216Y033948D03*
X019216Y034145D03*
X019216Y034342D03*
X019216Y034539D03*
X032349Y033386D03*
X032349Y033189D03*
X032349Y032992D03*
X032349Y032795D03*
X032349Y032598D03*
X032349Y032401D03*
X032349Y032205D03*
X032349Y032008D03*
X034160Y032008D03*
X034160Y032205D03*
X034160Y032401D03*
X034160Y032598D03*
X034160Y032795D03*
X034160Y032992D03*
X034160Y033189D03*
X034160Y033386D03*
X034966Y028969D03*
X034966Y028772D03*
X034966Y028575D03*
X034966Y028378D03*
X034966Y028181D03*
X034966Y027985D03*
X036383Y027985D03*
X036383Y028181D03*
X036383Y028378D03*
X036383Y028575D03*
X036383Y028772D03*
X036383Y028969D03*
X021913Y021290D03*
X021913Y021094D03*
X021913Y020897D03*
X021913Y020700D03*
X021913Y020503D03*
X020496Y020503D03*
X020496Y020700D03*
X020496Y020897D03*
X020496Y021094D03*
X020496Y021290D03*
D36*
X035675Y028477D03*
X019925Y034047D03*
D37*
X023551Y031280D02*
X023551Y031134D01*
X023551Y031280D02*
X023551Y031280D01*
X023551Y031134D01*
X023551Y031134D01*
X023551Y031224D02*
X023551Y031224D01*
X023708Y031280D02*
X023708Y031134D01*
X023708Y031280D02*
X023708Y031280D01*
X023708Y031134D01*
X023708Y031134D01*
X023708Y031224D02*
X023708Y031224D01*
X023866Y031280D02*
X023866Y031134D01*
X023866Y031280D02*
X023866Y031280D01*
X023866Y031134D01*
X023866Y031134D01*
X023866Y031224D02*
X023866Y031224D01*
X024023Y031280D02*
X024023Y031134D01*
X024023Y031280D02*
X024023Y031280D01*
X024023Y031134D01*
X024023Y031134D01*
X024023Y031224D02*
X024023Y031224D01*
X024181Y031280D02*
X024181Y031134D01*
X024181Y031280D02*
X024181Y031280D01*
X024181Y031134D01*
X024181Y031134D01*
X024181Y031224D02*
X024181Y031224D01*
X024338Y031280D02*
X024338Y031134D01*
X024338Y031280D02*
X024338Y031280D01*
X024338Y031134D01*
X024338Y031134D01*
X024338Y031224D02*
X024338Y031224D01*
X024462Y031010D02*
X024608Y031010D01*
X024608Y031010D01*
X024462Y031010D01*
X024462Y031010D01*
X024462Y030853D02*
X024608Y030853D01*
X024608Y030853D01*
X024462Y030853D01*
X024462Y030853D01*
X024462Y030695D02*
X024608Y030695D01*
X024608Y030695D01*
X024462Y030695D01*
X024462Y030695D01*
X024462Y030538D02*
X024608Y030538D01*
X024608Y030538D01*
X024462Y030538D01*
X024462Y030538D01*
X024462Y030380D02*
X024608Y030380D01*
X024608Y030380D01*
X024462Y030380D01*
X024462Y030380D01*
X024462Y030223D02*
X024608Y030223D01*
X024608Y030223D01*
X024462Y030223D01*
X024462Y030223D01*
X024338Y030099D02*
X024338Y029953D01*
X024338Y029953D01*
X024338Y030099D01*
X024338Y030099D01*
X024338Y030043D02*
X024338Y030043D01*
X024181Y030099D02*
X024181Y029953D01*
X024181Y029953D01*
X024181Y030099D01*
X024181Y030099D01*
X024181Y030043D02*
X024181Y030043D01*
X024023Y030099D02*
X024023Y029953D01*
X024023Y029953D01*
X024023Y030099D01*
X024023Y030099D01*
X024023Y030043D02*
X024023Y030043D01*
X023866Y030099D02*
X023866Y029953D01*
X023866Y029953D01*
X023866Y030099D01*
X023866Y030099D01*
X023866Y030043D02*
X023866Y030043D01*
X023708Y030099D02*
X023708Y029953D01*
X023708Y029953D01*
X023708Y030099D01*
X023708Y030099D01*
X023708Y030043D02*
X023708Y030043D01*
X023551Y030099D02*
X023551Y029953D01*
X023551Y029953D01*
X023551Y030099D01*
X023551Y030099D01*
X023551Y030043D02*
X023551Y030043D01*
X023427Y030223D02*
X023281Y030223D01*
X023281Y030223D01*
X023427Y030223D01*
X023427Y030223D01*
X023427Y030380D02*
X023281Y030380D01*
X023281Y030380D01*
X023427Y030380D01*
X023427Y030380D01*
X023427Y030538D02*
X023281Y030538D01*
X023281Y030538D01*
X023427Y030538D01*
X023427Y030538D01*
X023427Y030695D02*
X023281Y030695D01*
X023281Y030695D01*
X023427Y030695D01*
X023427Y030695D01*
X023427Y030853D02*
X023281Y030853D01*
X023281Y030853D01*
X023427Y030853D01*
X023427Y030853D01*
X023427Y031010D02*
X023281Y031010D01*
X023281Y031010D01*
X023427Y031010D01*
X023427Y031010D01*
D38*
X036152Y036187D03*
X037137Y036187D03*
D39*
X035907Y032620D03*
X035002Y032620D03*
X035002Y031163D03*
X035907Y031163D03*
X019502Y022360D03*
X018597Y022360D03*
X018597Y020903D03*
X019502Y020903D03*
D40*
X030196Y031731D03*
X030668Y031731D03*
X031141Y031731D03*
X031613Y031731D03*
X031613Y033663D03*
X031141Y033663D03*
X030668Y033663D03*
X030196Y033663D03*
D41*
X033255Y032697D03*
D42*
X018355Y018539D03*
X018355Y017555D03*
D43*
X020349Y019197D03*
X020860Y019197D03*
X020849Y019697D03*
X021360Y019697D03*
D44*
X021355Y019203D03*
X021355Y018691D03*
D45*
X021645Y022347D03*
X022645Y022967D03*
X021995Y023032D03*
X023740Y023502D03*
X024225Y024247D03*
X023745Y024487D03*
X030630Y026867D03*
X030510Y029887D03*
X029530Y030032D03*
X029145Y030492D03*
X028680Y030617D03*
X028305Y030617D03*
X028055Y031077D03*
X028850Y031527D03*
X024605Y031672D03*
X024715Y029002D03*
X024985Y028622D03*
X018215Y034592D03*
X018215Y034982D03*
X019100Y035392D03*
D46*
X030655Y025452D03*
X030655Y024882D03*
D47*
X030451Y028929D03*
X030451Y029165D03*
X030018Y029165D03*
X030018Y028929D03*
D48*
X030264Y028626D02*
X030890Y028626D01*
X030845Y028671D02*
X030944Y028572D01*
X030989Y028527D01*
X031976Y028527D01*
X031976Y028521D01*
X032058Y028439D01*
X032065Y028439D01*
X032065Y028108D01*
X032028Y028093D01*
X031933Y027998D01*
X031908Y027939D01*
X031858Y027989D01*
X031755Y028032D01*
X031644Y028032D01*
X031541Y027989D01*
X031499Y027947D01*
X031436Y028010D01*
X031083Y028010D01*
X031001Y027928D01*
X031001Y027597D01*
X030990Y027602D01*
X030879Y027602D01*
X030872Y027599D01*
X030872Y027771D01*
X030558Y027771D01*
X030558Y027779D01*
X030551Y027779D01*
X030551Y028082D01*
X030359Y028082D01*
X030323Y028073D01*
X030291Y028054D01*
X030265Y028028D01*
X030247Y027996D01*
X030237Y027961D01*
X030237Y027779D01*
X030551Y027779D01*
X030551Y027771D01*
X030237Y027771D01*
X030237Y027599D01*
X029955Y027599D01*
X029955Y027626D01*
X029599Y027626D01*
X029599Y027626D01*
X029955Y027626D01*
X029955Y027701D01*
X029953Y027707D01*
X029955Y027709D01*
X029955Y027937D01*
X029873Y028019D01*
X029769Y028019D01*
X029769Y028130D01*
X030350Y028712D01*
X030365Y028727D01*
X030480Y028727D01*
X030482Y028729D01*
X030629Y028729D01*
X030711Y028811D01*
X030711Y029047D01*
X030703Y029055D01*
X030711Y029086D01*
X030711Y029165D01*
X030711Y029243D01*
X030702Y029279D01*
X030683Y029311D01*
X030657Y029337D01*
X030625Y029355D01*
X030590Y029365D01*
X030451Y029365D01*
X030313Y029365D01*
X030277Y029355D01*
X030245Y029337D01*
X030235Y029326D01*
X030196Y029365D01*
X029840Y029365D01*
X029810Y029335D01*
X029802Y029335D01*
X029703Y029235D01*
X029228Y028761D01*
X029027Y028761D01*
X029027Y028865D01*
X028945Y028947D01*
X028804Y028947D01*
X028804Y029031D01*
X029240Y029467D01*
X030534Y029467D01*
X030845Y029156D01*
X030845Y028671D01*
X030845Y028784D02*
X030685Y028784D01*
X030711Y028943D02*
X030845Y028943D01*
X030845Y029101D02*
X030711Y029101D01*
X030711Y029165D02*
X030451Y029165D01*
X030451Y029365D01*
X030451Y029165D01*
X030451Y029165D01*
X030711Y029165D01*
X030707Y029260D02*
X030741Y029260D01*
X030583Y029418D02*
X029191Y029418D01*
X029033Y029260D02*
X029727Y029260D01*
X029569Y029101D02*
X028874Y029101D01*
X028950Y028943D02*
X029410Y028943D01*
X029252Y028784D02*
X029027Y028784D01*
X029027Y028421D02*
X029369Y028421D01*
X029469Y028520D01*
X029493Y028545D01*
X029502Y028523D01*
X029581Y028444D01*
X029596Y028438D01*
X029429Y028271D01*
X029429Y028019D01*
X029324Y028019D01*
X029242Y027937D01*
X029242Y027709D01*
X029244Y027707D01*
X029242Y027701D01*
X029242Y027626D01*
X029242Y027552D01*
X029244Y027545D01*
X029242Y027543D01*
X029242Y027488D01*
X029185Y027512D01*
X029074Y027512D01*
X028971Y027469D01*
X028892Y027390D01*
X028876Y027350D01*
X028800Y027382D01*
X028689Y027382D01*
X028586Y027339D01*
X028507Y027260D01*
X028465Y027157D01*
X028465Y027046D01*
X028507Y026943D01*
X028586Y026864D01*
X028689Y026822D01*
X028784Y026822D01*
X028800Y026806D01*
X028711Y026769D01*
X028632Y026690D01*
X028590Y026587D01*
X028590Y026476D01*
X028632Y026373D01*
X028711Y026294D01*
X028814Y026252D01*
X028925Y026252D01*
X029028Y026294D01*
X029107Y026373D01*
X029148Y026472D01*
X029242Y026472D01*
X029242Y025918D01*
X029160Y025952D01*
X029049Y025952D01*
X028946Y025909D01*
X028867Y025830D01*
X028825Y025727D01*
X028825Y025616D01*
X028867Y025513D01*
X028946Y025434D01*
X029049Y025392D01*
X029160Y025392D01*
X029242Y025426D01*
X029242Y025117D01*
X028709Y025117D01*
X028558Y024966D01*
X028556Y024966D01*
X028508Y024916D01*
X028460Y024867D01*
X028460Y024866D01*
X028458Y024864D01*
X028460Y024795D01*
X028460Y024726D01*
X028461Y024725D01*
X028465Y024482D01*
X028397Y024483D01*
X028396Y024482D01*
X028134Y024482D01*
X028112Y024459D01*
X026551Y024459D01*
X026550Y024457D01*
X026543Y024459D01*
X026469Y024459D01*
X026469Y024103D01*
X026469Y024103D01*
X026469Y024459D01*
X026394Y024459D01*
X026388Y024457D01*
X026386Y024459D01*
X025764Y024459D01*
X025682Y024377D01*
X025682Y024052D01*
X025440Y024052D01*
X025373Y024119D01*
X025355Y024127D01*
X025455Y024226D01*
X025970Y024741D01*
X025970Y025837D01*
X025870Y025937D01*
X025870Y025937D01*
X025715Y026092D01*
X025755Y026092D01*
X025858Y026134D01*
X025937Y026213D01*
X025980Y026316D01*
X025980Y026427D01*
X025937Y026530D01*
X025875Y026593D01*
X025875Y026612D01*
X025978Y026654D01*
X026057Y026733D01*
X026100Y026836D01*
X026100Y026947D01*
X026057Y027050D01*
X025978Y027129D01*
X025875Y027172D01*
X025764Y027172D01*
X025704Y027147D01*
X025592Y027259D01*
X025868Y027259D01*
X025870Y027262D01*
X025954Y027262D01*
X026021Y027194D01*
X026124Y027152D01*
X026235Y027152D01*
X026338Y027194D01*
X026417Y027273D01*
X026460Y027376D01*
X026460Y027487D01*
X026417Y027590D01*
X026338Y027669D01*
X026235Y027712D01*
X026124Y027712D01*
X026021Y027669D01*
X026016Y027664D01*
X026040Y027721D01*
X026040Y027832D01*
X025997Y027935D01*
X025918Y028014D01*
X025815Y028057D01*
X025704Y028057D01*
X025601Y028014D01*
X025522Y027935D01*
X025480Y027832D01*
X025480Y027796D01*
X025467Y027796D01*
X025467Y027937D01*
X025385Y028019D01*
X025280Y028019D01*
X025280Y028191D01*
X025580Y028492D01*
X025680Y028591D01*
X025680Y029070D01*
X025708Y029070D01*
X025708Y028891D01*
X025682Y028865D01*
X025682Y028316D01*
X025764Y028234D01*
X025992Y028234D01*
X025994Y028236D01*
X026000Y028234D01*
X026075Y028234D01*
X026150Y028234D01*
X026156Y028236D01*
X026158Y028234D01*
X027569Y028234D01*
X027565Y028222D01*
X027565Y028111D01*
X027607Y028008D01*
X027686Y027929D01*
X027789Y027887D01*
X027900Y027887D01*
X028003Y027929D01*
X028014Y027940D01*
X028037Y027883D01*
X028116Y027804D01*
X028219Y027762D01*
X028330Y027762D01*
X028433Y027804D01*
X028512Y027883D01*
X028555Y027986D01*
X028555Y028097D01*
X028512Y028200D01*
X028478Y028234D01*
X028945Y028234D01*
X029027Y028316D01*
X029027Y028421D01*
X029019Y028309D02*
X029466Y028309D01*
X029429Y028150D02*
X028533Y028150D01*
X028555Y027992D02*
X029297Y027992D01*
X029242Y027833D02*
X028462Y027833D01*
X028087Y027833D02*
X026039Y027833D01*
X026035Y027675D02*
X026020Y027675D01*
X026324Y027675D02*
X029242Y027675D01*
X029242Y027626D02*
X029599Y027626D01*
X029242Y027626D01*
X029242Y027516D02*
X026448Y027516D01*
X026452Y027358D02*
X028631Y027358D01*
X028482Y027199D02*
X026343Y027199D01*
X026061Y027041D02*
X028467Y027041D01*
X028568Y026882D02*
X026100Y026882D01*
X026048Y026724D02*
X028666Y026724D01*
X028590Y026565D02*
X025902Y026565D01*
X025875Y026612D02*
X025875Y026612D01*
X025980Y026407D02*
X028618Y026407D01*
X029121Y026407D02*
X029242Y026407D01*
X029242Y026248D02*
X025951Y026248D01*
X025717Y026090D02*
X029242Y026090D01*
X029242Y025931D02*
X029210Y025931D01*
X028999Y025931D02*
X025875Y025931D01*
X025970Y025773D02*
X028843Y025773D01*
X028825Y025614D02*
X025970Y025614D01*
X025970Y025456D02*
X028925Y025456D01*
X029242Y025297D02*
X025970Y025297D01*
X025970Y025139D02*
X029242Y025139D01*
X028573Y024980D02*
X025970Y024980D01*
X025970Y024822D02*
X028459Y024822D01*
X028462Y024663D02*
X025891Y024663D01*
X025733Y024505D02*
X028464Y024505D01*
X027848Y023746D02*
X027506Y023746D01*
X027535Y023677D01*
X027535Y023566D01*
X027492Y023463D01*
X027413Y023384D01*
X027310Y023342D01*
X027199Y023342D01*
X027096Y023384D01*
X027017Y023463D01*
X026975Y023566D01*
X026975Y023661D01*
X026890Y023746D01*
X026551Y023746D01*
X026550Y023748D01*
X026543Y023746D01*
X026469Y023746D01*
X026469Y024103D01*
X026469Y024103D01*
X026469Y023746D01*
X026442Y023746D01*
X026442Y023597D01*
X026447Y023599D01*
X026629Y023599D01*
X026629Y023285D01*
X026637Y023285D01*
X026940Y023285D01*
X026940Y023477D01*
X026931Y023513D01*
X026912Y023545D01*
X026886Y023571D01*
X026854Y023589D01*
X026819Y023599D01*
X026637Y023599D01*
X026637Y023285D01*
X026637Y023278D01*
X026940Y023278D01*
X026940Y023086D01*
X026931Y023050D01*
X026912Y023019D01*
X026912Y023019D01*
X026974Y023019D01*
X027010Y023009D01*
X027042Y022991D01*
X027068Y022964D01*
X027086Y022933D01*
X027096Y022897D01*
X027096Y022700D01*
X026758Y022700D01*
X026758Y022663D01*
X027096Y022663D01*
X027096Y022466D01*
X027086Y022431D01*
X027068Y022399D01*
X027042Y022373D01*
X027010Y022354D01*
X026974Y022345D01*
X026758Y022345D01*
X026758Y022663D01*
X026721Y022663D01*
X026721Y022345D01*
X026504Y022345D01*
X026469Y022354D01*
X026437Y022373D01*
X026411Y022399D01*
X026406Y022407D01*
X026344Y022345D01*
X025795Y022345D01*
X025713Y022427D01*
X025713Y022937D01*
X025778Y023002D01*
X025703Y023002D01*
X025691Y022957D01*
X025665Y022912D01*
X025562Y022809D01*
X025337Y023034D01*
X025311Y023008D01*
X025536Y022783D01*
X025433Y022680D01*
X025388Y022654D01*
X025337Y022640D01*
X025285Y022640D01*
X025234Y022654D01*
X025189Y022680D01*
X025086Y022783D01*
X025311Y023008D01*
X025285Y023034D01*
X025060Y022809D01*
X024957Y022912D01*
X024930Y022957D01*
X024921Y022994D01*
X024875Y022994D01*
X024563Y023305D01*
X024563Y023347D01*
X024521Y023347D01*
X024210Y023659D01*
X024210Y023824D01*
X024213Y023827D01*
X024030Y023827D01*
X023933Y023729D01*
X023992Y023670D01*
X024011Y023625D01*
X024033Y023647D01*
X024198Y023647D01*
X024509Y023335D01*
X024509Y023293D01*
X024551Y023293D01*
X024863Y022982D01*
X024863Y022940D01*
X024905Y022940D01*
X025216Y022628D01*
X025216Y022463D01*
X024905Y022152D01*
X024794Y022152D01*
X024559Y021917D01*
X024525Y021917D01*
X024525Y021883D01*
X024276Y021634D01*
X024256Y021634D01*
X024222Y021553D01*
X024143Y021474D01*
X024040Y021432D01*
X023929Y021432D01*
X023826Y021474D01*
X023747Y021553D01*
X023705Y021656D01*
X023705Y021767D01*
X023747Y021870D01*
X023826Y021949D01*
X023878Y021971D01*
X023860Y021988D01*
X023807Y021988D01*
X023558Y022237D01*
X023558Y022291D01*
X023507Y022341D01*
X023453Y022341D01*
X023204Y022591D01*
X023204Y022707D01*
X023453Y022956D01*
X023487Y022956D01*
X023487Y022989D01*
X023702Y023204D01*
X023680Y023204D01*
X023571Y023249D01*
X023527Y023294D01*
X023185Y022951D01*
X023185Y022746D01*
X023085Y022647D01*
X022865Y022427D01*
X022670Y022427D01*
X021930Y021687D01*
X021787Y021687D01*
X021787Y021472D01*
X021816Y021480D01*
X021913Y021480D01*
X021913Y021290D01*
X021694Y021290D01*
X021694Y021223D01*
X021699Y021205D01*
X021694Y021201D01*
X021694Y020789D01*
X021699Y020785D01*
X021694Y020767D01*
X021694Y020700D01*
X021913Y020700D01*
X021913Y020700D01*
X021694Y020700D01*
X021694Y020632D01*
X021699Y020615D01*
X021694Y020610D01*
X021694Y020407D01*
X021491Y020407D01*
X021486Y020402D01*
X021469Y020407D01*
X021401Y020407D01*
X021334Y020407D01*
X021316Y020402D01*
X021312Y020407D01*
X020715Y020407D01*
X020715Y020807D01*
X020710Y020812D01*
X020715Y020829D01*
X020715Y020897D01*
X020715Y020964D01*
X020710Y020982D01*
X020715Y020986D01*
X020715Y021387D01*
X021702Y021387D01*
X021694Y021358D01*
X021694Y021290D01*
X021913Y021290D01*
X021913Y021290D01*
X021913Y021290D01*
X022132Y021290D01*
X022132Y021274D01*
X022405Y021274D01*
X022412Y021281D01*
X022412Y021569D01*
X022422Y021578D01*
X022422Y021579D01*
X022412Y021614D01*
X022412Y021796D01*
X022726Y021796D01*
X022726Y021804D01*
X022726Y022107D01*
X022534Y022107D01*
X022498Y022098D01*
X022466Y022079D01*
X022440Y022053D01*
X022422Y022021D01*
X022412Y021986D01*
X022412Y021804D01*
X022726Y021804D01*
X022733Y021804D01*
X022733Y022107D01*
X022925Y022107D01*
X022961Y022098D01*
X022993Y022079D01*
X023019Y022053D01*
X023037Y022021D01*
X023047Y021986D01*
X023047Y021804D01*
X022733Y021804D01*
X022733Y021796D01*
X023047Y021796D01*
X023047Y021614D01*
X023037Y021579D01*
X023037Y021578D01*
X023047Y021569D01*
X023047Y021165D01*
X023074Y021177D01*
X023185Y021177D01*
X023223Y021161D01*
X023275Y021213D01*
X023784Y021213D01*
X023866Y021131D01*
X023866Y020582D01*
X023805Y020520D01*
X023812Y020516D01*
X023838Y020490D01*
X023857Y020458D01*
X023866Y020422D01*
X023866Y020205D01*
X023548Y020205D01*
X023548Y020169D01*
X023866Y020169D01*
X023866Y019952D01*
X023857Y019916D01*
X023838Y019885D01*
X023812Y019858D01*
X023780Y019840D01*
X023745Y019830D01*
X023548Y019830D01*
X023548Y020169D01*
X023511Y020169D01*
X023193Y020169D01*
X023193Y019952D01*
X023202Y019916D01*
X023221Y019885D01*
X023247Y019858D01*
X023279Y019840D01*
X023314Y019830D01*
X023511Y019830D01*
X023511Y020169D01*
X023511Y020205D01*
X023193Y020205D01*
X023193Y020422D01*
X023202Y020458D01*
X023221Y020490D01*
X023247Y020516D01*
X023254Y020520D01*
X023193Y020582D01*
X023193Y020620D01*
X023185Y020617D01*
X023074Y020617D01*
X023047Y020628D01*
X023047Y020550D01*
X023037Y020540D01*
X023037Y020540D01*
X023047Y020504D01*
X023047Y020322D01*
X022733Y020322D01*
X022733Y020315D01*
X023047Y020315D01*
X023047Y020133D01*
X023037Y020097D01*
X023027Y020080D01*
X023106Y020080D01*
X023188Y019998D01*
X023188Y019646D01*
X023163Y019621D01*
X023178Y019594D01*
X023188Y019558D01*
X023188Y019422D01*
X022930Y019422D01*
X022930Y019422D01*
X023188Y019422D01*
X023188Y019285D01*
X023178Y019250D01*
X023160Y019218D01*
X023134Y019192D01*
X023102Y019173D01*
X023066Y019164D01*
X022930Y019164D01*
X022930Y019422D01*
X022930Y019422D01*
X022930Y019164D01*
X022793Y019164D01*
X022757Y019173D01*
X022725Y019192D01*
X022699Y019218D01*
X022681Y019250D01*
X022671Y019285D01*
X022671Y019324D01*
X022662Y019309D01*
X022636Y019282D01*
X022604Y019264D01*
X022569Y019255D01*
X022387Y019255D01*
X022387Y019568D01*
X022379Y019568D01*
X022379Y019255D01*
X022198Y019255D01*
X022210Y019227D01*
X022210Y019116D01*
X022167Y019013D01*
X022088Y018934D01*
X021985Y018892D01*
X021874Y018892D01*
X021771Y018934D01*
X021692Y019013D01*
X021672Y019062D01*
X021672Y019007D01*
X021612Y018947D01*
X021672Y018887D01*
X021672Y018495D01*
X021649Y018473D01*
X021672Y018450D01*
X021672Y018114D01*
X022101Y018114D01*
X022111Y018104D01*
X022111Y018104D01*
X022147Y018114D01*
X022329Y018114D01*
X022329Y017800D01*
X022337Y017800D01*
X022640Y017800D01*
X022640Y017992D01*
X022631Y018028D01*
X022612Y018060D01*
X022586Y018086D01*
X022554Y018104D01*
X022519Y018114D01*
X022337Y018114D01*
X022337Y017800D01*
X022337Y017793D01*
X022640Y017793D01*
X022640Y017601D01*
X022631Y017565D01*
X022612Y017534D01*
X022586Y017507D01*
X022554Y017489D01*
X022519Y017480D01*
X022337Y017480D01*
X022337Y017793D01*
X022329Y017793D01*
X022329Y017480D01*
X022147Y017480D01*
X022111Y017489D01*
X022111Y017489D01*
X022101Y017480D01*
X021651Y017480D01*
X021630Y017501D01*
X021590Y017461D01*
X021288Y017461D01*
X021228Y017402D01*
X019590Y017402D01*
X019590Y017177D01*
X024325Y017177D01*
X024210Y017293D01*
X024210Y017477D01*
X024725Y017477D01*
X024725Y017577D01*
X024210Y017577D01*
X024210Y017761D01*
X024475Y018027D01*
X024210Y018293D01*
X024210Y018761D01*
X024475Y019027D01*
X024220Y019283D01*
X024220Y019268D01*
X024287Y019200D01*
X024330Y019097D01*
X024330Y018986D01*
X024287Y018883D01*
X024208Y018804D01*
X024105Y018762D01*
X023994Y018762D01*
X023891Y018804D01*
X023812Y018883D01*
X023770Y018986D01*
X023770Y019097D01*
X023812Y019200D01*
X023880Y019268D01*
X023880Y019692D01*
X023979Y019792D01*
X024130Y019942D01*
X024130Y020122D01*
X024229Y020222D01*
X024322Y020314D01*
X024322Y020540D01*
X024382Y020600D01*
X024318Y020664D01*
X024318Y021075D01*
X024400Y021157D01*
X024529Y021157D01*
X024550Y021177D01*
X024649Y021277D01*
X024969Y021277D01*
X025230Y021537D01*
X025329Y021637D01*
X025814Y021637D01*
X025955Y021777D01*
X026054Y021877D01*
X028994Y021877D01*
X029245Y022127D01*
X029245Y022192D01*
X029461Y022408D01*
X028726Y022425D01*
X028720Y022421D01*
X028697Y022426D01*
X028685Y022426D01*
X028685Y022246D01*
X028585Y022147D01*
X027910Y022147D01*
X027785Y022022D01*
X027469Y022022D01*
X027370Y022121D01*
X027245Y022246D01*
X027245Y022962D01*
X027344Y023062D01*
X027469Y023187D01*
X027765Y023187D01*
X027765Y023662D01*
X027848Y023746D01*
X027815Y023712D02*
X027520Y023712D01*
X027529Y023554D02*
X027765Y023554D01*
X027765Y023395D02*
X027424Y023395D01*
X027361Y023078D02*
X026938Y023078D01*
X026940Y023237D02*
X027765Y023237D01*
X027245Y022920D02*
X027090Y022920D01*
X027096Y022761D02*
X027245Y022761D01*
X027245Y022603D02*
X027096Y022603D01*
X027090Y022444D02*
X027245Y022444D01*
X027245Y022286D02*
X025039Y022286D01*
X025197Y022444D02*
X025713Y022444D01*
X025713Y022603D02*
X025216Y022603D01*
X025107Y022761D02*
X025083Y022761D01*
X025170Y022920D02*
X025222Y022920D01*
X025399Y022920D02*
X025451Y022920D01*
X025514Y022761D02*
X025713Y022761D01*
X025713Y022920D02*
X025669Y022920D01*
X024952Y022920D02*
X024925Y022920D01*
X024790Y023078D02*
X024766Y023078D01*
X024632Y023237D02*
X024608Y023237D01*
X024473Y023395D02*
X024449Y023395D01*
X024315Y023554D02*
X024291Y023554D01*
X024210Y023712D02*
X023950Y023712D01*
X024115Y023253D02*
X023794Y022931D01*
X023576Y023078D02*
X023311Y023078D01*
X023417Y022920D02*
X023185Y022920D01*
X023185Y022761D02*
X023259Y022761D01*
X023204Y022603D02*
X023041Y022603D01*
X022882Y022444D02*
X023350Y022444D01*
X023511Y022649D02*
X023865Y022295D01*
X024218Y021941D01*
X023988Y021712D01*
X023985Y021712D01*
X023873Y021969D02*
X023047Y021969D01*
X023047Y021810D02*
X023722Y021810D01*
X023706Y021652D02*
X023047Y021652D01*
X023047Y021493D02*
X023807Y021493D01*
X023821Y021176D02*
X024549Y021176D01*
X024318Y021018D02*
X023866Y021018D01*
X023866Y020859D02*
X024318Y020859D01*
X024318Y020701D02*
X023866Y020701D01*
X023827Y020542D02*
X024324Y020542D01*
X024322Y020384D02*
X023866Y020384D01*
X023866Y020225D02*
X024233Y020225D01*
X024130Y020067D02*
X023866Y020067D01*
X023852Y019908D02*
X024096Y019908D01*
X023937Y019750D02*
X023188Y019750D01*
X023188Y019908D02*
X023207Y019908D01*
X023193Y020067D02*
X023119Y020067D01*
X023047Y020225D02*
X023193Y020225D01*
X023193Y020384D02*
X023047Y020384D01*
X023039Y020542D02*
X023232Y020542D01*
X023511Y020067D02*
X023548Y020067D01*
X023548Y019908D02*
X023511Y019908D01*
X023179Y019591D02*
X023880Y019591D01*
X023880Y019433D02*
X023188Y019433D01*
X023185Y019274D02*
X023880Y019274D01*
X023777Y019116D02*
X022209Y019116D01*
X022111Y018957D02*
X023781Y018957D01*
X023904Y018799D02*
X021672Y018799D01*
X021672Y018640D02*
X024210Y018640D01*
X024210Y018482D02*
X021658Y018482D01*
X021672Y018323D02*
X024210Y018323D01*
X024337Y018165D02*
X021672Y018165D01*
X021037Y018165D02*
X020722Y018165D01*
X020722Y018215D02*
X020408Y018215D01*
X020408Y018222D01*
X020722Y018222D01*
X020722Y018404D01*
X020712Y018440D01*
X020722Y018450D01*
X020722Y018880D01*
X021037Y018880D01*
X021037Y018495D01*
X021060Y018473D01*
X021037Y018450D01*
X021037Y018000D01*
X021040Y017997D01*
X021037Y017994D01*
X021037Y017742D01*
X019590Y017742D01*
X019590Y017941D01*
X019591Y017939D01*
X019623Y017921D01*
X019659Y017911D01*
X019851Y017911D01*
X019851Y018215D01*
X019858Y018215D01*
X019858Y018222D01*
X020172Y018222D01*
X020401Y018222D01*
X020401Y018215D01*
X019858Y018215D01*
X019858Y017911D01*
X020050Y017911D01*
X020086Y017921D01*
X020118Y017939D01*
X020130Y017951D01*
X020141Y017939D01*
X020173Y017921D01*
X020209Y017911D01*
X020401Y017911D01*
X020401Y018215D01*
X020408Y018215D01*
X020408Y017911D01*
X020600Y017911D01*
X020636Y017921D01*
X020668Y017939D01*
X020694Y017965D01*
X020712Y017997D01*
X020722Y018033D01*
X020722Y018215D01*
X020722Y018323D02*
X021037Y018323D01*
X021051Y018482D02*
X020722Y018482D01*
X020712Y018440D02*
X020712Y018440D01*
X020722Y018640D02*
X021037Y018640D01*
X021037Y018799D02*
X020722Y018799D01*
X020071Y018982D02*
X019619Y018982D01*
X019590Y018952D01*
X019590Y019303D01*
X019546Y019408D01*
X019466Y019488D01*
X019361Y019532D01*
X018035Y019532D01*
X018035Y025988D01*
X018170Y025852D01*
X018355Y025852D01*
X018355Y026367D01*
X018455Y026367D01*
X018455Y025852D01*
X018639Y025852D01*
X018905Y026118D01*
X019170Y025852D01*
X019639Y025852D01*
X019905Y026118D01*
X020170Y025852D01*
X020639Y025852D01*
X020924Y026137D01*
X020924Y026042D01*
X021006Y025960D01*
X021296Y025960D01*
X021360Y025896D01*
X021459Y025797D01*
X023540Y025797D01*
X023640Y025896D01*
X024000Y026256D01*
X024000Y027886D01*
X024056Y027829D01*
X024159Y027787D01*
X024254Y027787D01*
X024390Y027651D01*
X024390Y026629D01*
X024370Y026637D01*
X024259Y026637D01*
X024156Y026594D01*
X024077Y026515D01*
X024035Y026412D01*
X024035Y026301D01*
X024077Y026198D01*
X024145Y026131D01*
X024145Y025831D01*
X024220Y025756D01*
X024220Y025007D01*
X024119Y024907D01*
X023529Y024907D01*
X023430Y024807D01*
X023134Y024512D01*
X023035Y024412D01*
X023035Y024187D01*
X022699Y024187D01*
X022600Y024087D01*
X022295Y023782D01*
X022295Y023557D01*
X022063Y023325D01*
X022054Y023329D01*
X021935Y023329D01*
X021826Y023284D01*
X021742Y023200D01*
X021697Y023091D01*
X021697Y022972D01*
X021726Y022902D01*
X021359Y022902D01*
X021260Y022802D01*
X021085Y022627D01*
X021085Y022367D01*
X020769Y022052D01*
X020729Y022052D01*
X020630Y021952D01*
X020532Y021854D01*
X020517Y021890D01*
X020438Y021969D01*
X020335Y022012D01*
X020224Y022012D01*
X020121Y021969D01*
X020042Y021890D01*
X020000Y021787D01*
X020000Y021676D01*
X020031Y021600D01*
X019788Y021600D01*
X019755Y021567D01*
X019494Y021567D01*
X018953Y022107D01*
X018953Y022759D01*
X018959Y022765D01*
X019146Y022765D01*
X019146Y021928D01*
X019228Y021846D01*
X019777Y021846D01*
X019859Y021928D01*
X019859Y022792D01*
X019781Y022870D01*
X019785Y022886D01*
X019785Y023078D01*
X019482Y023078D01*
X019482Y023085D01*
X019785Y023085D01*
X019785Y023277D01*
X019776Y023313D01*
X019757Y023345D01*
X019731Y023371D01*
X019699Y023389D01*
X019664Y023399D01*
X019482Y023399D01*
X019482Y023085D01*
X019474Y023085D01*
X019474Y023399D01*
X019292Y023399D01*
X019256Y023389D01*
X019246Y023399D01*
X018796Y023399D01*
X018714Y023317D01*
X018714Y023029D01*
X018559Y022874D01*
X018322Y022874D01*
X018240Y022792D01*
X018240Y021928D01*
X018322Y021846D01*
X018706Y021846D01*
X019181Y021371D01*
X019146Y021335D01*
X018953Y021335D01*
X018871Y021417D01*
X018322Y021417D01*
X018240Y021335D01*
X018035Y021335D01*
X018035Y021493D02*
X019058Y021493D01*
X019146Y021335D02*
X019146Y020499D01*
X019025Y020499D01*
X019025Y020185D01*
X019018Y020185D01*
X019018Y020499D01*
X018953Y020499D01*
X018953Y021335D01*
X018953Y021176D02*
X019146Y021176D01*
X019146Y021018D02*
X018953Y021018D01*
X018953Y020859D02*
X019146Y020859D01*
X019146Y020701D02*
X018953Y020701D01*
X018953Y020542D02*
X019146Y020542D01*
X019025Y020384D02*
X019018Y020384D01*
X019018Y020225D02*
X019025Y020225D01*
X019017Y020185D02*
X019017Y020178D01*
X018714Y020178D01*
X018714Y019986D01*
X018723Y019950D01*
X018742Y019919D01*
X018768Y019892D01*
X018800Y019874D01*
X018835Y019865D01*
X019018Y019865D01*
X019018Y020178D01*
X019025Y020178D01*
X019025Y019865D01*
X019207Y019865D01*
X019243Y019874D01*
X019253Y019865D01*
X019703Y019865D01*
X019785Y019947D01*
X019785Y020398D01*
X019859Y020471D01*
X019859Y020684D01*
X019982Y020684D01*
X020050Y020616D01*
X020050Y020496D01*
X020113Y020433D01*
X020213Y020333D01*
X020340Y020333D01*
X020359Y020314D01*
X020622Y020314D01*
X020622Y020177D01*
X020530Y020177D01*
X020274Y019921D01*
X020169Y019815D01*
X020169Y019514D01*
X020153Y019514D01*
X020071Y019432D01*
X020071Y018982D01*
X020071Y019116D02*
X019590Y019116D01*
X019590Y019274D02*
X020071Y019274D01*
X020072Y019433D02*
X019522Y019433D01*
X019590Y018957D02*
X019594Y018957D01*
X020169Y019591D02*
X018035Y019591D01*
X018035Y019750D02*
X020169Y019750D01*
X020261Y019908D02*
X019747Y019908D01*
X019785Y020067D02*
X020420Y020067D01*
X020622Y020225D02*
X019785Y020225D01*
X019785Y020384D02*
X020162Y020384D01*
X020050Y020542D02*
X019859Y020542D01*
X020496Y020897D02*
X021205Y020897D01*
X021401Y020700D02*
X021913Y020700D01*
X022132Y020700D01*
X022132Y020717D01*
X022412Y020717D01*
X022412Y020550D01*
X022422Y020540D01*
X022422Y020540D01*
X022412Y020504D01*
X022412Y020322D01*
X022726Y020322D01*
X022726Y020315D01*
X022412Y020315D01*
X022412Y020152D01*
X022354Y020152D01*
X022310Y020196D01*
X022310Y020496D01*
X022204Y020602D01*
X022132Y020674D01*
X022132Y020700D01*
X021913Y020700D01*
X021913Y020700D01*
X021694Y020701D02*
X020715Y020701D01*
X020715Y020859D02*
X021694Y020859D01*
X021694Y021018D02*
X020715Y021018D01*
X020715Y020897D02*
X020496Y020897D01*
X020496Y020897D01*
X020715Y020897D01*
X020715Y021176D02*
X021694Y021176D01*
X021694Y021335D02*
X020715Y021335D01*
X020646Y021969D02*
X020438Y021969D01*
X020121Y021969D02*
X019859Y021969D01*
X019859Y022127D02*
X020845Y022127D01*
X021003Y022286D02*
X019859Y022286D01*
X019859Y022444D02*
X021085Y022444D01*
X021085Y022603D02*
X019859Y022603D01*
X019859Y022761D02*
X021219Y022761D01*
X021719Y022920D02*
X019785Y022920D01*
X019785Y023237D02*
X021779Y023237D01*
X021697Y023078D02*
X019482Y023078D01*
X019474Y023237D02*
X019482Y023237D01*
X019474Y023395D02*
X019482Y023395D01*
X019677Y023395D02*
X022133Y023395D01*
X022291Y023554D02*
X018035Y023554D01*
X018035Y023712D02*
X022295Y023712D01*
X022383Y023871D02*
X018035Y023871D01*
X018035Y024029D02*
X022542Y024029D01*
X023035Y024188D02*
X018035Y024188D01*
X018035Y024346D02*
X023035Y024346D01*
X023127Y024505D02*
X018035Y024505D01*
X018035Y024663D02*
X023286Y024663D01*
X023444Y024822D02*
X018035Y024822D01*
X018035Y024980D02*
X024193Y024980D01*
X024220Y025139D02*
X018035Y025139D01*
X018035Y025297D02*
X024220Y025297D01*
X024220Y025456D02*
X018035Y025456D01*
X018035Y025614D02*
X024220Y025614D01*
X024203Y025773D02*
X018035Y025773D01*
X018035Y025931D02*
X018091Y025931D01*
X018355Y025931D02*
X018455Y025931D01*
X018455Y026090D02*
X018355Y026090D01*
X018355Y026248D02*
X018455Y026248D01*
X018455Y026467D02*
X018355Y026467D01*
X018355Y026852D01*
X018355Y027367D01*
X018455Y027367D01*
X018455Y026467D01*
X018455Y026565D02*
X018355Y026565D01*
X018355Y026724D02*
X018455Y026724D01*
X018455Y026882D02*
X018355Y026882D01*
X018355Y027041D02*
X018455Y027041D01*
X018455Y027199D02*
X018355Y027199D01*
X018355Y027358D02*
X018455Y027358D01*
X018455Y027467D02*
X018355Y027467D01*
X018355Y027852D01*
X018355Y028367D01*
X018455Y028367D01*
X018455Y027467D01*
X018455Y027516D02*
X018355Y027516D01*
X018355Y027675D02*
X018455Y027675D01*
X018455Y027833D02*
X018355Y027833D01*
X018355Y027992D02*
X018455Y027992D01*
X018455Y028150D02*
X018355Y028150D01*
X018355Y028309D02*
X018455Y028309D01*
X018455Y028467D02*
X018355Y028467D01*
X018455Y028467D01*
X018455Y028982D01*
X018639Y028982D01*
X018905Y028716D01*
X019170Y028982D01*
X019639Y028982D01*
X019905Y028716D01*
X020170Y028982D01*
X020569Y028982D01*
X020597Y029050D01*
X020676Y029129D01*
X020779Y029172D01*
X020890Y029172D01*
X020993Y029129D01*
X021072Y029050D01*
X021115Y028947D01*
X021115Y028870D01*
X021417Y028870D01*
X021478Y028810D01*
X021542Y028874D01*
X021821Y028874D01*
X021949Y029002D01*
X021994Y029002D01*
X022039Y029047D01*
X022030Y029071D01*
X022030Y029182D01*
X022033Y029192D01*
X019534Y029192D01*
X019205Y029521D01*
X019205Y032114D01*
X019198Y032114D01*
X019116Y032196D01*
X019116Y032548D01*
X019140Y032572D01*
X019116Y032596D01*
X019116Y032948D01*
X019198Y033030D01*
X019205Y033030D01*
X019205Y033177D01*
X019243Y033216D01*
X019243Y033365D01*
X019216Y033365D01*
X019216Y033555D01*
X019216Y033555D01*
X019216Y033751D01*
X019216Y033751D01*
X019216Y033744D01*
X019216Y033555D01*
X019216Y033555D01*
X018997Y033555D01*
X018997Y033622D01*
X019005Y033653D01*
X018997Y033684D01*
X018997Y033751D01*
X019216Y033751D01*
X019216Y033751D01*
X018997Y033751D01*
X018997Y033819D01*
X019005Y033850D01*
X018997Y033881D01*
X018997Y033948D01*
X019216Y033948D01*
X019216Y033751D01*
X019216Y033751D01*
X019216Y033941D01*
X019216Y033948D01*
X019216Y033948D01*
X019216Y033948D01*
X018997Y033948D01*
X018997Y033995D01*
X018987Y033995D01*
X018987Y033940D01*
X018977Y033930D01*
X018977Y033930D01*
X018987Y033894D01*
X018987Y033712D01*
X018673Y033712D01*
X018673Y033705D01*
X018987Y033705D01*
X018987Y033523D01*
X018977Y033487D01*
X018959Y033455D01*
X018933Y033429D01*
X018901Y033411D01*
X018865Y033401D01*
X018673Y033401D01*
X018673Y033705D01*
X018666Y033705D01*
X018352Y033705D01*
X018352Y033523D01*
X018362Y033487D01*
X018380Y033455D01*
X018406Y033429D01*
X018438Y033411D01*
X018474Y033401D01*
X018666Y033401D01*
X018666Y033705D01*
X018666Y033712D01*
X018352Y033712D01*
X018352Y033894D01*
X018362Y033930D01*
X018362Y033930D01*
X018352Y033940D01*
X018352Y033949D01*
X018328Y033924D01*
X018225Y033882D01*
X018114Y033882D01*
X018035Y033915D01*
X018035Y028846D01*
X018170Y028982D01*
X018355Y028982D01*
X018355Y028467D01*
X018355Y028626D02*
X018455Y028626D01*
X018455Y028784D02*
X018355Y028784D01*
X018355Y028943D02*
X018455Y028943D01*
X018678Y028943D02*
X019132Y028943D01*
X018973Y028784D02*
X018836Y028784D01*
X018132Y028943D02*
X018035Y028943D01*
X018035Y029101D02*
X020648Y029101D01*
X021021Y029101D02*
X022030Y029101D01*
X021890Y028943D02*
X021115Y028943D01*
X020132Y028943D02*
X019678Y028943D01*
X019836Y028784D02*
X019973Y028784D01*
X019466Y029260D02*
X018035Y029260D01*
X018035Y029418D02*
X019308Y029418D01*
X019205Y029577D02*
X018035Y029577D01*
X018035Y029735D02*
X019205Y029735D01*
X019205Y029894D02*
X018035Y029894D01*
X018035Y030052D02*
X019205Y030052D01*
X019205Y030211D02*
X018035Y030211D01*
X018035Y030369D02*
X019205Y030369D01*
X019205Y030528D02*
X018035Y030528D01*
X018035Y030686D02*
X019205Y030686D01*
X019205Y030845D02*
X018035Y030845D01*
X018035Y031003D02*
X019205Y031003D01*
X019205Y031162D02*
X018035Y031162D01*
X018035Y031320D02*
X019205Y031320D01*
X019205Y031479D02*
X018035Y031479D01*
X018035Y031637D02*
X019205Y031637D01*
X019205Y031796D02*
X018035Y031796D01*
X018035Y031954D02*
X019205Y031954D01*
X019205Y032113D02*
X018035Y032113D01*
X018035Y032271D02*
X019116Y032271D01*
X019116Y032430D02*
X018035Y032430D01*
X018035Y032588D02*
X019124Y032588D01*
X019116Y032747D02*
X018035Y032747D01*
X018035Y032905D02*
X019116Y032905D01*
X019205Y033064D02*
X018035Y033064D01*
X018035Y033222D02*
X019243Y033222D01*
X019216Y033365D02*
X019216Y033555D01*
X019216Y033555D01*
X018997Y033555D01*
X018997Y033487D01*
X019007Y033451D01*
X019025Y033419D01*
X019051Y033393D01*
X019083Y033375D01*
X019119Y033365D01*
X019216Y033365D01*
X019216Y033381D02*
X019216Y033381D01*
X019073Y033381D02*
X018035Y033381D01*
X018035Y033539D02*
X018352Y033539D01*
X018352Y033698D02*
X018035Y033698D01*
X018035Y033856D02*
X018352Y033856D01*
X018666Y033698D02*
X018673Y033698D01*
X018666Y033539D02*
X018673Y033539D01*
X018987Y033539D02*
X018997Y033539D01*
X018987Y033698D02*
X018997Y033698D01*
X018987Y033856D02*
X019004Y033856D01*
X019216Y033856D02*
X019216Y033856D01*
X019216Y033698D02*
X019216Y033698D01*
X019216Y033539D02*
X019216Y033539D01*
X020633Y033948D02*
X020633Y033948D01*
X020852Y033948D01*
X020852Y033881D01*
X020847Y033863D01*
X020852Y033859D01*
X020852Y033840D01*
X020870Y033822D01*
X020915Y033777D01*
X021015Y033677D01*
X021015Y032210D01*
X021021Y032210D01*
X021103Y032128D01*
X021103Y031776D01*
X021079Y031752D01*
X021103Y031728D01*
X021103Y031376D01*
X021021Y031294D01*
X021015Y031294D01*
X021015Y030827D01*
X021100Y030742D01*
X021100Y030532D01*
X021445Y030187D01*
X021540Y030187D01*
X021643Y030144D01*
X021722Y030065D01*
X021765Y029962D01*
X021765Y029851D01*
X021732Y029772D01*
X022755Y029772D01*
X023707Y028819D01*
X023707Y028920D01*
X024021Y028920D01*
X024021Y028927D01*
X023707Y028927D01*
X023707Y029109D01*
X023717Y029145D01*
X023717Y029145D01*
X023707Y029155D01*
X023707Y029605D01*
X023789Y029687D01*
X023855Y029687D01*
X023855Y029768D01*
X023851Y029768D01*
X023775Y029691D01*
X023675Y029592D01*
X023654Y029592D01*
X023622Y029513D01*
X023543Y029434D01*
X023440Y029392D01*
X023329Y029392D01*
X023226Y029434D01*
X023147Y029513D01*
X023105Y029616D01*
X023105Y029727D01*
X023147Y029830D01*
X023226Y029909D01*
X023329Y029952D01*
X023366Y029952D01*
X023366Y030038D01*
X023354Y030038D01*
X023354Y030223D01*
X023354Y030223D01*
X023354Y030380D01*
X023354Y030380D01*
X023354Y030223D01*
X023354Y030223D01*
X023354Y030038D01*
X023257Y030038D01*
X023210Y030050D01*
X023167Y030075D01*
X023133Y030109D01*
X023108Y030151D01*
X023096Y030199D01*
X023096Y030223D01*
X023183Y030223D01*
X023183Y030223D01*
X023096Y030223D01*
X023096Y030247D01*
X023100Y030264D01*
X023084Y030235D01*
X023058Y030209D01*
X023026Y030191D01*
X022990Y030181D01*
X022798Y030181D01*
X022798Y030485D01*
X022791Y030485D01*
X022477Y030485D01*
X022477Y030303D01*
X022487Y030267D01*
X022505Y030235D01*
X022531Y030209D01*
X022563Y030191D01*
X022599Y030181D01*
X022791Y030181D01*
X022791Y030485D01*
X022791Y030492D01*
X022477Y030492D01*
X022477Y030674D01*
X022487Y030710D01*
X022487Y030710D01*
X022477Y030720D01*
X022477Y030757D01*
X022415Y030732D01*
X022304Y030732D01*
X022201Y030774D01*
X022122Y030853D01*
X022080Y030956D01*
X022080Y031067D01*
X022122Y031170D01*
X022201Y031249D01*
X022304Y031292D01*
X022415Y031292D01*
X022518Y031249D01*
X022537Y031230D01*
X022559Y031252D01*
X022943Y031252D01*
X022794Y031402D01*
X022714Y031402D01*
X022611Y031444D01*
X022532Y031523D01*
X022490Y031626D01*
X022490Y031737D01*
X022532Y031840D01*
X022611Y031919D01*
X022714Y031962D01*
X022825Y031962D01*
X022928Y031919D01*
X023007Y031840D01*
X023042Y031757D01*
X023047Y031770D01*
X023126Y031849D01*
X023229Y031892D01*
X023340Y031892D01*
X023443Y031849D01*
X023510Y031782D01*
X023570Y031782D01*
X023670Y031682D01*
X023725Y031627D01*
X023794Y031697D01*
X023939Y031842D01*
X024354Y031842D01*
X024436Y031924D01*
X024545Y031969D01*
X024664Y031969D01*
X024773Y031924D01*
X024855Y031842D01*
X025180Y031842D01*
X025925Y031097D01*
X025925Y030246D01*
X025825Y030147D01*
X025775Y030097D01*
X025775Y030097D01*
X025878Y030054D01*
X025957Y029975D01*
X026000Y029872D01*
X026000Y029761D01*
X025974Y029699D01*
X025992Y029704D01*
X026174Y029704D01*
X026174Y029390D01*
X026182Y029390D01*
X026182Y029704D01*
X026355Y029704D01*
X026355Y030442D01*
X026885Y030972D01*
X026984Y031072D01*
X027757Y031072D01*
X027757Y031136D01*
X027802Y031245D01*
X027886Y031329D01*
X027995Y031374D01*
X028107Y031374D01*
X028560Y031827D01*
X028560Y033222D01*
X026486Y033222D01*
X026486Y033260D02*
X026422Y033324D01*
X026483Y033384D01*
X026483Y033609D01*
X026568Y033695D01*
X026663Y033734D01*
X026742Y033813D01*
X026785Y033916D01*
X026785Y034027D01*
X026742Y034130D01*
X026663Y034209D01*
X026595Y034237D01*
X026595Y034631D01*
X026366Y034859D01*
X026595Y035088D01*
X026595Y035556D01*
X026366Y035784D01*
X026595Y036013D01*
X026595Y036197D01*
X026080Y036197D01*
X026080Y036297D01*
X026595Y036297D01*
X026595Y036481D01*
X026459Y036617D01*
X035470Y036617D01*
X035470Y036123D01*
X034520Y035173D01*
X034520Y035225D01*
X034131Y035614D01*
X034044Y035614D01*
X034046Y035622D01*
X034046Y035659D01*
X034037Y035695D01*
X034018Y035727D01*
X033865Y035880D01*
X033640Y035655D01*
X033614Y035681D01*
X033588Y035655D01*
X033349Y035894D01*
X033210Y035754D01*
X033191Y035723D01*
X033182Y035687D01*
X033182Y035650D01*
X033191Y035614D01*
X033210Y035583D01*
X033363Y035429D01*
X033588Y035655D01*
X033614Y035628D01*
X033389Y035403D01*
X033542Y035250D01*
X033574Y035232D01*
X033610Y035222D01*
X033646Y035222D01*
X033655Y035225D01*
X033655Y035216D01*
X033304Y034865D01*
X033304Y034778D01*
X033296Y034780D01*
X033259Y034780D01*
X033223Y034770D01*
X033191Y034752D01*
X033038Y034599D01*
X033263Y034374D01*
X033237Y034348D01*
X033012Y034573D01*
X032859Y034420D01*
X032841Y034388D01*
X032831Y034352D01*
X032831Y034315D01*
X032833Y034307D01*
X032785Y034327D01*
X032674Y034327D01*
X032571Y034284D01*
X032535Y034248D01*
X032535Y034317D01*
X032585Y034317D01*
X032688Y034359D01*
X032767Y034438D01*
X032810Y034541D01*
X032810Y034652D01*
X032767Y034755D01*
X032688Y034834D01*
X032585Y034877D01*
X032474Y034877D01*
X032371Y034834D01*
X032292Y034755D01*
X032250Y034652D01*
X032250Y034585D01*
X032235Y034611D01*
X032209Y034637D01*
X032177Y034655D01*
X032141Y034665D01*
X032005Y034665D01*
X032005Y034407D01*
X032005Y034407D01*
X032005Y034665D01*
X031868Y034665D01*
X031832Y034655D01*
X031800Y034637D01*
X031774Y034611D01*
X031756Y034579D01*
X031746Y034543D01*
X031746Y034407D01*
X032005Y034407D01*
X032005Y034407D01*
X031746Y034407D01*
X031746Y034270D01*
X031756Y034235D01*
X031771Y034208D01*
X031746Y034183D01*
X031746Y034083D01*
X031415Y034083D01*
X031403Y034070D01*
X031403Y034388D01*
X031379Y034412D01*
X031403Y034436D01*
X031403Y034788D01*
X031321Y034870D01*
X030968Y034870D01*
X030890Y034792D01*
X030420Y034792D01*
X029755Y034126D01*
X029755Y033212D01*
X029860Y033107D01*
X030000Y032967D01*
X030164Y032967D01*
X030204Y032927D01*
X030080Y032927D01*
X029920Y032767D01*
X029849Y032767D01*
X029771Y032845D01*
X029418Y032845D01*
X029393Y032820D01*
X029367Y032835D01*
X029331Y032845D01*
X029195Y032845D01*
X029195Y032587D01*
X029195Y032587D01*
X029195Y032845D01*
X029113Y032845D01*
X029470Y033201D01*
X029470Y033566D01*
X029537Y033633D01*
X029580Y033736D01*
X029580Y033847D01*
X029537Y033950D01*
X029458Y034029D01*
X029355Y034072D01*
X029244Y034072D01*
X029141Y034029D01*
X029062Y033950D01*
X029020Y033847D01*
X029020Y033736D01*
X029054Y033653D01*
X029020Y033667D01*
X028909Y033667D01*
X028806Y033624D01*
X028727Y033545D01*
X028685Y033442D01*
X028685Y033347D01*
X028659Y033322D01*
X028560Y033222D01*
X028560Y033064D02*
X026486Y033064D01*
X026486Y032905D02*
X028560Y032905D01*
X028560Y032747D02*
X026250Y032747D01*
X026270Y032766D02*
X026404Y032766D01*
X026486Y032848D01*
X026486Y033260D01*
X026479Y033381D02*
X028685Y033381D01*
X028725Y033539D02*
X026483Y033539D01*
X026575Y033698D02*
X029035Y033698D01*
X029023Y033856D02*
X026760Y033856D01*
X026785Y034015D02*
X029127Y034015D01*
X029472Y034015D02*
X029755Y034015D01*
X029755Y033856D02*
X029576Y033856D01*
X029564Y033698D02*
X029755Y033698D01*
X029755Y033539D02*
X029470Y033539D01*
X029470Y033381D02*
X029755Y033381D01*
X029755Y033222D02*
X029470Y033222D01*
X029332Y033064D02*
X029903Y033064D01*
X030058Y032905D02*
X029173Y032905D01*
X029195Y032747D02*
X029195Y032747D01*
X029195Y032588D02*
X029195Y032588D01*
X029195Y032587D02*
X029195Y032329D01*
X029276Y032329D01*
X029185Y032237D01*
X029185Y031272D01*
X029125Y031297D01*
X029040Y031297D01*
X029102Y031358D01*
X029147Y031467D01*
X029147Y031586D01*
X029102Y031695D01*
X029020Y031777D01*
X029020Y032340D01*
X029022Y032338D01*
X029058Y032329D01*
X029195Y032329D01*
X029195Y032587D01*
X029195Y032587D01*
X029195Y032430D02*
X029195Y032430D01*
X029219Y032271D02*
X029020Y032271D01*
X029020Y032113D02*
X029185Y032113D01*
X029185Y031954D02*
X029020Y031954D01*
X029020Y031796D02*
X029185Y031796D01*
X029185Y031637D02*
X029126Y031637D01*
X029147Y031479D02*
X029185Y031479D01*
X029185Y031320D02*
X029064Y031320D01*
X029525Y031320D02*
X029988Y031320D01*
X029998Y031311D02*
X030016Y031311D01*
X030016Y030831D01*
X030275Y030572D01*
X030380Y030467D01*
X032779Y030467D01*
X033179Y030867D01*
X033196Y030884D01*
X033299Y030842D01*
X033410Y030842D01*
X033513Y030884D01*
X033592Y030963D01*
X033604Y030993D01*
X033650Y030947D01*
X033755Y030842D01*
X033789Y030842D01*
X033846Y030784D01*
X033949Y030742D01*
X034060Y030742D01*
X034163Y030784D01*
X034242Y030863D01*
X034275Y030942D01*
X034275Y030307D01*
X034274Y030307D01*
X029643Y030307D01*
X029589Y030329D01*
X029470Y030329D01*
X029361Y030284D01*
X029322Y030245D01*
X029320Y030247D01*
X029397Y030323D01*
X029442Y030432D01*
X029442Y030551D01*
X029441Y030553D01*
X029525Y030636D01*
X029525Y032077D01*
X029770Y032077D01*
X029780Y032067D01*
X029916Y032067D01*
X029916Y031393D01*
X029998Y031311D01*
X030016Y031162D02*
X029525Y031162D01*
X029525Y031003D02*
X030016Y031003D01*
X030016Y030845D02*
X029525Y030845D01*
X029525Y030686D02*
X030160Y030686D01*
X030319Y030528D02*
X029442Y030528D01*
X029416Y030369D02*
X034275Y030369D01*
X034275Y030528D02*
X032840Y030528D01*
X032999Y030686D02*
X034275Y030686D01*
X034275Y030845D02*
X034224Y030845D01*
X033752Y030845D02*
X033418Y030845D01*
X033292Y030845D02*
X033157Y030845D01*
X032151Y030977D02*
X031379Y030977D01*
X031335Y031021D01*
X031335Y031311D01*
X031339Y031311D01*
X031377Y031349D01*
X031387Y031339D01*
X031419Y031320D01*
X031455Y031311D01*
X031613Y031311D01*
X031613Y031731D01*
X031893Y031731D01*
X031893Y032017D01*
X032130Y032017D01*
X032130Y031900D01*
X032212Y031818D01*
X032376Y031818D01*
X032376Y031671D01*
X032363Y031684D01*
X032260Y031727D01*
X032149Y031727D01*
X032046Y031684D01*
X031967Y031605D01*
X031925Y031502D01*
X031925Y031391D01*
X031967Y031288D01*
X032046Y031209D01*
X032133Y031173D01*
X032125Y031152D01*
X032125Y031041D01*
X032151Y030977D01*
X032140Y031003D02*
X031353Y031003D01*
X031335Y031162D02*
X032128Y031162D01*
X031954Y031320D02*
X031807Y031320D01*
X031839Y031339D01*
X031865Y031365D01*
X031884Y031396D01*
X031893Y031432D01*
X031893Y031731D01*
X031613Y031731D01*
X031613Y031731D01*
X031613Y031731D01*
X031613Y031311D01*
X031772Y031311D01*
X031807Y031320D01*
X031893Y031479D02*
X031925Y031479D01*
X031893Y031637D02*
X031999Y031637D01*
X031893Y031796D02*
X032376Y031796D01*
X032568Y032010D02*
X032568Y033383D01*
X033941Y033383D01*
X033941Y032294D01*
X033941Y032115D01*
X033941Y032010D01*
X032568Y032010D01*
X032568Y032113D02*
X032641Y032113D01*
X032642Y032111D02*
X032669Y032085D01*
X032700Y032066D01*
X032736Y032057D01*
X033175Y032057D01*
X033175Y032617D01*
X033335Y032617D01*
X033335Y032777D01*
X033895Y032777D01*
X033895Y033215D01*
X033885Y033251D01*
X033867Y033283D01*
X033840Y033309D01*
X033809Y033327D01*
X033773Y033337D01*
X033335Y033337D01*
X033335Y032777D01*
X033175Y032777D01*
X033175Y033337D01*
X032736Y033337D01*
X032700Y033327D01*
X032669Y033309D01*
X032642Y033283D01*
X032624Y033251D01*
X032615Y033215D01*
X032615Y032777D01*
X033175Y032777D01*
X033175Y032617D01*
X032615Y032617D01*
X032615Y032178D01*
X032624Y032143D01*
X032642Y032111D01*
X032615Y032271D02*
X032568Y032271D01*
X032568Y032430D02*
X032615Y032430D01*
X032615Y032588D02*
X032568Y032588D01*
X032568Y032747D02*
X033175Y032747D01*
X033175Y032905D02*
X033335Y032905D01*
X033335Y032747D02*
X033941Y032747D01*
X033895Y032617D02*
X033895Y032178D01*
X033885Y032143D01*
X033867Y032111D01*
X033840Y032085D01*
X033809Y032066D01*
X033773Y032057D01*
X033335Y032057D01*
X033335Y032617D01*
X033895Y032617D01*
X033895Y032588D02*
X033941Y032588D01*
X033941Y032430D02*
X033895Y032430D01*
X033895Y032271D02*
X033941Y032271D01*
X033941Y032113D02*
X033868Y032113D01*
X033335Y032113D02*
X033175Y032113D01*
X033175Y032271D02*
X033335Y032271D01*
X033335Y032430D02*
X033175Y032430D01*
X033175Y032588D02*
X033335Y032588D01*
X033335Y033064D02*
X033175Y033064D01*
X033175Y033222D02*
X033335Y033222D01*
X033893Y033222D02*
X033941Y033222D01*
X033941Y033064D02*
X033895Y033064D01*
X033895Y032905D02*
X033941Y032905D01*
X032615Y032905D02*
X032568Y032905D01*
X032568Y033064D02*
X032615Y033064D01*
X032616Y033222D02*
X032568Y033222D01*
X032568Y033381D02*
X033941Y033381D01*
X033175Y033821D02*
X032942Y033821D01*
X032942Y033864D01*
X032967Y033888D01*
X033010Y033991D01*
X033010Y034102D01*
X033004Y034115D01*
X033237Y034348D01*
X033263Y034322D01*
X033024Y034082D01*
X033164Y033943D01*
X033175Y033937D01*
X033175Y033821D01*
X033175Y033856D02*
X032942Y033856D01*
X033010Y034015D02*
X033092Y034015D01*
X033115Y034173D02*
X033063Y034173D01*
X033222Y034332D02*
X033253Y034332D01*
X033147Y034490D02*
X033095Y034490D01*
X033088Y034649D02*
X032810Y034649D01*
X032788Y034490D02*
X032930Y034490D01*
X032831Y034332D02*
X032621Y034332D01*
X032715Y034807D02*
X033304Y034807D01*
X033405Y034966D02*
X032852Y034966D01*
X032830Y034957D02*
X032933Y034999D01*
X033012Y035078D01*
X033055Y035181D01*
X033055Y035292D01*
X033012Y035395D01*
X032933Y035474D01*
X032830Y035517D01*
X032719Y035517D01*
X032660Y035492D01*
X032598Y035554D01*
X032148Y035554D01*
X032138Y035544D01*
X032138Y035544D01*
X032102Y035554D01*
X031920Y035554D01*
X031920Y035240D01*
X031913Y035240D01*
X031913Y035554D01*
X031730Y035554D01*
X031709Y035548D01*
X031702Y035556D01*
X031670Y035574D01*
X031634Y035584D01*
X031418Y035584D01*
X031418Y035265D01*
X031609Y035265D01*
X031609Y035240D01*
X031912Y035240D01*
X031912Y035233D01*
X031609Y035233D01*
X031609Y035228D01*
X031418Y035228D01*
X031418Y035265D01*
X031381Y035265D01*
X031381Y035584D01*
X031164Y035584D01*
X031129Y035574D01*
X031097Y035556D01*
X031071Y035529D01*
X031066Y035522D01*
X031004Y035584D01*
X030455Y035584D01*
X030398Y035527D01*
X030320Y035527D01*
X030263Y035584D01*
X030160Y035627D01*
X030049Y035627D01*
X029946Y035584D01*
X029867Y035505D01*
X029825Y035402D01*
X029825Y035291D01*
X029867Y035188D01*
X029946Y035109D01*
X030049Y035067D01*
X030160Y035067D01*
X030263Y035109D01*
X030300Y035146D01*
X030373Y035073D01*
X030373Y034992D01*
X030455Y034910D01*
X031004Y034910D01*
X031066Y034972D01*
X031071Y034964D01*
X031097Y034938D01*
X031129Y034919D01*
X031164Y034910D01*
X031381Y034910D01*
X031381Y035228D01*
X031418Y035228D01*
X031418Y034910D01*
X031634Y034910D01*
X031670Y034919D01*
X031691Y034931D01*
X031695Y034929D01*
X031730Y034920D01*
X031913Y034920D01*
X031913Y035233D01*
X031920Y035233D01*
X031920Y034920D01*
X032102Y034920D01*
X032138Y034929D01*
X032148Y034920D01*
X032598Y034920D01*
X032660Y034981D01*
X032719Y034957D01*
X032830Y034957D01*
X032697Y034966D02*
X032644Y034966D01*
X032344Y034807D02*
X031383Y034807D01*
X031381Y034966D02*
X031418Y034966D01*
X031418Y035124D02*
X031381Y035124D01*
X031381Y035283D02*
X031418Y035283D01*
X031418Y035441D02*
X031381Y035441D01*
X031913Y035441D02*
X031920Y035441D01*
X031913Y035283D02*
X031920Y035283D01*
X031913Y035124D02*
X031920Y035124D01*
X031913Y034966D02*
X031920Y034966D01*
X032138Y034929D02*
X032138Y034929D01*
X032188Y034649D02*
X032250Y034649D01*
X032005Y034649D02*
X032005Y034649D01*
X032005Y034490D02*
X032005Y034490D01*
X031821Y034649D02*
X031403Y034649D01*
X031403Y034490D02*
X031746Y034490D01*
X031746Y034332D02*
X031403Y034332D01*
X031403Y034173D02*
X031746Y034173D01*
X031070Y034966D02*
X031060Y034966D01*
X030906Y034807D02*
X026418Y034807D01*
X026473Y034966D02*
X030399Y034966D01*
X030322Y035124D02*
X030278Y035124D01*
X029931Y035124D02*
X026595Y035124D01*
X026595Y035283D02*
X029828Y035283D01*
X029841Y035441D02*
X026595Y035441D01*
X026551Y035600D02*
X029984Y035600D01*
X030225Y035600D02*
X033200Y035600D01*
X033214Y035758D02*
X026392Y035758D01*
X026499Y035917D02*
X033378Y035917D01*
X033375Y035920D02*
X033614Y035681D01*
X033839Y035906D01*
X033686Y036059D01*
X033654Y036077D01*
X033619Y036087D01*
X033582Y036087D01*
X033546Y036077D01*
X033514Y036059D01*
X033375Y035920D01*
X033484Y035758D02*
X033537Y035758D01*
X033692Y035758D02*
X033744Y035758D01*
X033828Y035917D02*
X035263Y035917D01*
X035105Y035758D02*
X033987Y035758D01*
X034145Y035600D02*
X034946Y035600D01*
X034788Y035441D02*
X034304Y035441D01*
X034462Y035283D02*
X034629Y035283D01*
X034878Y034966D02*
X035688Y034966D01*
X035698Y034962D02*
X037475Y034962D01*
X037475Y029607D01*
X037080Y030002D01*
X036980Y030102D01*
X036194Y030102D01*
X035899Y029807D01*
X035800Y029707D01*
X035800Y029507D01*
X035640Y029667D01*
X035540Y029767D01*
X033969Y029767D01*
X033404Y029202D01*
X033305Y029102D01*
X033305Y028331D01*
X033480Y028156D01*
X033480Y027491D01*
X033865Y027106D01*
X033964Y027007D01*
X034470Y027007D01*
X034470Y026132D01*
X034449Y026112D01*
X034350Y026012D01*
X034350Y025892D01*
X034339Y025882D01*
X034294Y025882D01*
X034195Y025782D01*
X033874Y025462D01*
X033853Y025462D01*
X033853Y025743D01*
X033829Y025767D01*
X033853Y025791D01*
X033853Y025984D01*
X033914Y026046D01*
X033924Y026042D01*
X034035Y026042D01*
X034138Y026084D01*
X034217Y026163D01*
X034260Y026266D01*
X034260Y026377D01*
X034217Y026480D01*
X034138Y026559D01*
X034035Y026602D01*
X033924Y026602D01*
X033821Y026559D01*
X033742Y026480D01*
X033700Y026377D01*
X033700Y026312D01*
X033612Y026225D01*
X033418Y026225D01*
X033336Y026143D01*
X033336Y025791D01*
X033360Y025767D01*
X033336Y025743D01*
X033336Y025582D01*
X032973Y025582D01*
X033006Y025615D01*
X033058Y025739D01*
X033058Y025874D01*
X033006Y025998D01*
X032948Y026057D01*
X032982Y026091D01*
X033019Y026147D01*
X033045Y026208D01*
X033058Y026273D01*
X033058Y026307D01*
X033058Y026340D01*
X033045Y026405D01*
X033019Y026467D01*
X032982Y026522D01*
X032948Y026557D01*
X032982Y026591D01*
X033019Y026647D01*
X033045Y026708D01*
X033058Y026773D01*
X033058Y026807D01*
X033058Y026840D01*
X033045Y026905D01*
X033019Y026967D01*
X032982Y027022D01*
X032948Y027057D01*
X033006Y027115D01*
X033058Y027239D01*
X033058Y027374D01*
X033006Y027498D01*
X032948Y027557D01*
X032982Y027591D01*
X033019Y027647D01*
X033045Y027708D01*
X033058Y027773D01*
X033058Y027807D01*
X033058Y027840D01*
X033045Y027905D01*
X033019Y027967D01*
X032982Y028022D01*
X032935Y028069D01*
X032880Y028106D01*
X032818Y028132D01*
X032753Y028145D01*
X032720Y028145D01*
X032720Y027807D01*
X033058Y027807D01*
X032720Y027807D01*
X032720Y027807D01*
X032720Y027807D01*
X032720Y028145D01*
X032686Y028145D01*
X032621Y028132D01*
X032559Y028106D01*
X032504Y028069D01*
X032470Y028035D01*
X032411Y028093D01*
X032405Y028096D01*
X032405Y028439D01*
X032411Y028439D01*
X032435Y028462D01*
X032458Y028439D01*
X032811Y028439D01*
X032836Y028464D01*
X032866Y028434D01*
X032969Y028392D01*
X033080Y028392D01*
X033183Y028434D01*
X033262Y028513D01*
X033305Y028616D01*
X033305Y028727D01*
X033262Y028830D01*
X033183Y028909D01*
X033080Y028952D01*
X032969Y028952D01*
X032866Y028909D01*
X032861Y028904D01*
X032811Y028955D01*
X032458Y028955D01*
X032435Y028931D01*
X032411Y028955D01*
X032058Y028955D01*
X031976Y028873D01*
X031976Y028867D01*
X031538Y028867D01*
X031555Y028906D01*
X031555Y029017D01*
X031548Y029034D01*
X031851Y029034D01*
X031933Y029116D01*
X031933Y029169D01*
X031960Y029197D01*
X032055Y029197D01*
X032158Y029239D01*
X032237Y029318D01*
X032280Y029421D01*
X032280Y029532D01*
X032237Y029635D01*
X032158Y029714D01*
X032055Y029757D01*
X031960Y029757D01*
X031933Y029784D01*
X031933Y029832D01*
X034465Y029832D01*
X034675Y030042D01*
X034775Y030141D01*
X034775Y030162D01*
X034785Y030172D01*
X034785Y030649D01*
X034939Y030649D01*
X034939Y030500D01*
X035242Y030500D01*
X035242Y030493D01*
X034939Y030493D01*
X034939Y030301D01*
X034948Y030265D01*
X034967Y030234D01*
X034993Y030207D01*
X035025Y030189D01*
X035060Y030180D01*
X035243Y030180D01*
X035243Y030493D01*
X035250Y030493D01*
X035250Y030180D01*
X035432Y030180D01*
X035468Y030189D01*
X035478Y030180D01*
X035928Y030180D01*
X036010Y030262D01*
X036010Y030549D01*
X036087Y030627D01*
X036087Y030649D01*
X036182Y030649D01*
X036264Y030731D01*
X036264Y031595D01*
X036182Y031677D01*
X035803Y031677D01*
X035326Y032155D01*
X035358Y032188D01*
X035358Y032960D01*
X035499Y032960D01*
X035499Y033273D01*
X035507Y033273D01*
X035507Y033280D01*
X035810Y033280D01*
X035810Y033472D01*
X035801Y033508D01*
X035800Y033510D01*
X035978Y033510D01*
X035968Y033493D01*
X035959Y033457D01*
X035959Y033265D01*
X036262Y033265D01*
X036262Y033258D01*
X035959Y033258D01*
X035959Y033134D01*
X035810Y033134D01*
X035810Y033273D01*
X035507Y033273D01*
X035507Y032960D01*
X035551Y032960D01*
X035551Y032188D01*
X035633Y032106D01*
X036182Y032106D01*
X036264Y032188D01*
X036264Y033052D01*
X036263Y033053D01*
X036263Y033258D01*
X036270Y033258D01*
X036270Y032945D01*
X036452Y032945D01*
X036488Y032954D01*
X036498Y032945D01*
X036948Y032945D01*
X037030Y033027D01*
X037030Y033497D01*
X037008Y033519D01*
X037010Y033519D01*
X037042Y033538D01*
X037068Y033564D01*
X037086Y033596D01*
X037096Y033631D01*
X037096Y033828D01*
X036758Y033828D01*
X036758Y033865D01*
X037096Y033865D01*
X037096Y034062D01*
X037086Y034098D01*
X037068Y034129D01*
X037042Y034156D01*
X037010Y034174D01*
X036974Y034184D01*
X036758Y034184D01*
X036758Y033865D01*
X036721Y033865D01*
X036721Y034184D01*
X036562Y034184D01*
X036592Y034213D01*
X036635Y034316D01*
X036635Y034427D01*
X036592Y034530D01*
X036513Y034609D01*
X036410Y034652D01*
X036299Y034652D01*
X036196Y034609D01*
X036146Y034559D01*
X036028Y034678D01*
X035551Y034678D01*
X035424Y034805D01*
X035308Y034805D01*
X035059Y034556D01*
X035059Y034522D01*
X035025Y034522D01*
X034776Y034273D01*
X034776Y034163D01*
X034698Y034085D01*
X034696Y034084D01*
X034639Y034027D01*
X034580Y034027D01*
X034576Y034023D01*
X034542Y034105D01*
X034463Y034184D01*
X034360Y034227D01*
X034305Y034227D01*
X034503Y034425D01*
X034503Y034429D01*
X034507Y034429D01*
X034826Y034748D01*
X034826Y034864D01*
X034801Y034889D01*
X035470Y035557D01*
X035470Y035190D01*
X035513Y035085D01*
X035593Y035005D01*
X035698Y034962D01*
X035497Y035124D02*
X035037Y035124D01*
X035195Y035283D02*
X035470Y035283D01*
X035470Y035441D02*
X035354Y035441D01*
X034826Y034807D02*
X037475Y034807D01*
X037475Y034649D02*
X036417Y034649D01*
X036292Y034649D02*
X036057Y034649D01*
X036608Y034490D02*
X037475Y034490D01*
X037475Y034332D02*
X036635Y034332D01*
X036721Y034173D02*
X036758Y034173D01*
X036758Y034015D02*
X036721Y034015D01*
X036758Y033856D02*
X037475Y033856D01*
X037475Y033698D02*
X037096Y033698D01*
X037043Y033539D02*
X037475Y033539D01*
X037475Y033381D02*
X037030Y033381D01*
X037030Y033222D02*
X037475Y033222D01*
X037475Y033064D02*
X037030Y033064D01*
X037475Y032905D02*
X036264Y032905D01*
X036264Y032747D02*
X037475Y032747D01*
X037475Y032588D02*
X036264Y032588D01*
X036264Y032430D02*
X037475Y032430D01*
X037475Y032271D02*
X036264Y032271D01*
X036188Y032113D02*
X037475Y032113D01*
X037475Y031954D02*
X035527Y031954D01*
X035626Y032113D02*
X035368Y032113D01*
X035358Y032271D02*
X035551Y032271D01*
X035551Y032430D02*
X035358Y032430D01*
X035358Y032588D02*
X035551Y032588D01*
X035551Y032747D02*
X035358Y032747D01*
X035358Y032905D02*
X035551Y032905D01*
X035507Y033064D02*
X035499Y033064D01*
X035499Y033222D02*
X035507Y033222D01*
X035507Y033280D02*
X035499Y033280D01*
X035499Y033594D01*
X035317Y033594D01*
X035302Y033590D01*
X035318Y033605D01*
X035320Y033603D01*
X035436Y033603D01*
X035685Y033852D01*
X035685Y033888D01*
X035713Y033895D01*
X035713Y033592D01*
X035720Y033586D01*
X035689Y033594D01*
X035507Y033594D01*
X035507Y033280D01*
X035499Y033381D02*
X035507Y033381D01*
X035499Y033539D02*
X035507Y033539D01*
X035531Y033698D02*
X035713Y033698D01*
X035713Y033856D02*
X035685Y033856D01*
X035561Y034093D02*
X035661Y034193D01*
X035661Y034193D01*
X035561Y034093D01*
X035561Y034093D01*
X035641Y034173D02*
X035641Y034173D01*
X035152Y034649D02*
X034727Y034649D01*
X034568Y034490D02*
X034993Y034490D01*
X034835Y034332D02*
X034410Y034332D01*
X034474Y034173D02*
X034776Y034173D01*
X035810Y033381D02*
X035959Y033381D01*
X035959Y033222D02*
X035810Y033222D01*
X036263Y033222D02*
X036270Y033222D01*
X036263Y033064D02*
X036270Y033064D01*
X036488Y032954D02*
X036488Y032954D01*
X037096Y034015D02*
X037475Y034015D01*
X037475Y034173D02*
X037011Y034173D01*
X033564Y035124D02*
X033031Y035124D01*
X033055Y035283D02*
X033510Y035283D01*
X033427Y035441D02*
X033375Y035441D01*
X033351Y035441D02*
X032966Y035441D01*
X033533Y035600D02*
X033585Y035600D01*
X033542Y036075D02*
X026595Y036075D01*
X026595Y036392D02*
X035470Y036392D01*
X035470Y036234D02*
X026080Y036234D01*
X025980Y036234D02*
X025080Y036234D01*
X025080Y036197D02*
X025080Y036297D01*
X025595Y036297D01*
X025980Y036297D01*
X025980Y036197D01*
X025080Y036197D01*
X024980Y036197D02*
X024080Y036197D01*
X024080Y036297D01*
X024595Y036297D01*
X024980Y036297D01*
X024980Y036197D01*
X024980Y036234D02*
X024080Y036234D01*
X023980Y036234D02*
X023218Y036234D01*
X023115Y036337D02*
X022394Y036337D01*
X022295Y036237D01*
X022257Y036200D01*
X022063Y036200D01*
X022040Y036176D01*
X022016Y036200D01*
X021663Y036200D01*
X021581Y036118D01*
X021581Y036112D01*
X020364Y036112D01*
X020265Y036012D01*
X019460Y035207D01*
X019460Y034974D01*
X019454Y034974D01*
X019278Y035150D01*
X019352Y035223D01*
X019397Y035332D01*
X019397Y035451D01*
X019352Y035560D01*
X019270Y035642D01*
X019270Y035881D01*
X019337Y035948D01*
X019380Y036051D01*
X019380Y036162D01*
X019337Y036265D01*
X019258Y036344D01*
X019155Y036387D01*
X019044Y036387D01*
X018941Y036344D01*
X018862Y036265D01*
X018820Y036162D01*
X018820Y036051D01*
X018862Y035948D01*
X018930Y035881D01*
X018930Y035642D01*
X018847Y035560D01*
X018802Y035451D01*
X018802Y035332D01*
X018847Y035223D01*
X018930Y035141D01*
X018930Y035047D01*
X018897Y035125D01*
X018818Y035204D01*
X018715Y035247D01*
X018604Y035247D01*
X018501Y035204D01*
X018457Y035160D01*
X018383Y035234D01*
X018274Y035279D01*
X018155Y035279D01*
X018046Y035234D01*
X018035Y035222D01*
X018035Y036617D01*
X023600Y036617D01*
X023465Y036481D01*
X023465Y036297D01*
X023980Y036297D01*
X023980Y036197D01*
X023465Y036197D01*
X023465Y036013D01*
X023693Y035784D01*
X023585Y035676D01*
X023585Y035867D01*
X023485Y035967D01*
X023115Y036337D01*
X023465Y036392D02*
X018035Y036392D01*
X018035Y036234D02*
X018849Y036234D01*
X018820Y036075D02*
X018035Y036075D01*
X018035Y035917D02*
X018894Y035917D01*
X018930Y035758D02*
X018035Y035758D01*
X018035Y035600D02*
X018887Y035600D01*
X018802Y035441D02*
X018035Y035441D01*
X018035Y035283D02*
X018823Y035283D01*
X018897Y035124D02*
X018930Y035124D01*
X019304Y035124D02*
X019460Y035124D01*
X019535Y035283D02*
X019376Y035283D01*
X019397Y035441D02*
X019694Y035441D01*
X019852Y035600D02*
X019312Y035600D01*
X019270Y035758D02*
X020011Y035758D01*
X020169Y035917D02*
X019306Y035917D01*
X019380Y036075D02*
X020328Y036075D01*
X019350Y036234D02*
X022291Y036234D01*
X023376Y036075D02*
X023465Y036075D01*
X023535Y035917D02*
X023560Y035917D01*
X023585Y035758D02*
X023667Y035758D01*
X023535Y036551D02*
X018035Y036551D01*
X020633Y033948D02*
X020852Y033948D01*
X020852Y033975D01*
X021748Y033975D01*
X021822Y034049D01*
X022016Y034049D01*
X022040Y034072D01*
X022063Y034049D01*
X022257Y034049D01*
X022511Y033794D01*
X022482Y033765D01*
X022440Y033662D01*
X022440Y033551D01*
X022482Y033448D01*
X022561Y033369D01*
X022664Y033327D01*
X022775Y033327D01*
X022780Y033328D01*
X022780Y033211D01*
X022905Y033086D01*
X022905Y032493D01*
X022837Y032425D01*
X022795Y032322D01*
X022795Y032211D01*
X022837Y032108D01*
X022916Y032029D01*
X023019Y031987D01*
X023130Y031987D01*
X023233Y032029D01*
X023312Y032108D01*
X023319Y032126D01*
X023409Y032037D01*
X025540Y032037D01*
X026270Y032766D01*
X026091Y032588D02*
X028560Y032588D01*
X028560Y032430D02*
X025933Y032430D01*
X025774Y032271D02*
X028560Y032271D01*
X028560Y032113D02*
X025616Y032113D01*
X025226Y031796D02*
X028528Y031796D01*
X028560Y031954D02*
X024700Y031954D01*
X024509Y031954D02*
X022843Y031954D01*
X022696Y031954D02*
X021670Y031954D01*
X021657Y031923D02*
X021700Y032026D01*
X021700Y032137D01*
X021657Y032240D01*
X021590Y032308D01*
X021590Y032641D01*
X021685Y032737D01*
X021780Y032737D01*
X021883Y032779D01*
X021962Y032858D01*
X022005Y032961D01*
X022005Y033072D01*
X021962Y033175D01*
X021883Y033254D01*
X021780Y033297D01*
X021669Y033297D01*
X021566Y033254D01*
X021487Y033175D01*
X021445Y033072D01*
X021445Y032977D01*
X021250Y032782D01*
X021250Y032308D01*
X021182Y032240D01*
X021140Y032137D01*
X021140Y032026D01*
X021182Y031923D01*
X021261Y031844D01*
X021364Y031802D01*
X021475Y031802D01*
X021578Y031844D01*
X021657Y031923D01*
X021700Y032113D02*
X022835Y032113D01*
X022795Y032271D02*
X021626Y032271D01*
X021590Y032430D02*
X022842Y032430D01*
X022905Y032588D02*
X021590Y032588D01*
X021804Y032747D02*
X022905Y032747D01*
X022905Y032905D02*
X021981Y032905D01*
X022005Y033064D02*
X022905Y033064D01*
X022780Y033222D02*
X021915Y033222D01*
X021534Y033222D02*
X021015Y033222D01*
X021015Y033064D02*
X021445Y033064D01*
X021373Y032905D02*
X021015Y032905D01*
X021015Y032747D02*
X021250Y032747D01*
X021250Y032588D02*
X021015Y032588D01*
X021015Y032430D02*
X021250Y032430D01*
X021213Y032271D02*
X021015Y032271D01*
X021103Y032113D02*
X021140Y032113D01*
X021169Y031954D02*
X021103Y031954D01*
X021103Y031796D02*
X022514Y031796D01*
X022490Y031637D02*
X021103Y031637D01*
X021103Y031479D02*
X022577Y031479D01*
X022876Y031320D02*
X021047Y031320D01*
X021015Y031162D02*
X022119Y031162D01*
X022080Y031003D02*
X021015Y031003D01*
X021015Y030845D02*
X022131Y030845D01*
X022481Y030686D02*
X021100Y030686D01*
X021104Y030528D02*
X022477Y030528D01*
X022477Y030369D02*
X021262Y030369D01*
X021421Y030211D02*
X022530Y030211D01*
X022791Y030211D02*
X022798Y030211D01*
X022791Y030369D02*
X022798Y030369D01*
X023059Y030211D02*
X023096Y030211D01*
X023206Y030052D02*
X021727Y030052D01*
X021765Y029894D02*
X023211Y029894D01*
X023108Y029735D02*
X022791Y029735D01*
X022950Y029577D02*
X023121Y029577D01*
X023108Y029418D02*
X023265Y029418D01*
X023267Y029260D02*
X023707Y029260D01*
X023707Y029418D02*
X023504Y029418D01*
X023648Y029577D02*
X023707Y029577D01*
X023818Y029735D02*
X023855Y029735D01*
X023354Y030052D02*
X023354Y030052D01*
X023354Y030211D02*
X023354Y030211D01*
X023354Y030369D02*
X023354Y030369D01*
X023354Y030380D02*
X023354Y030408D01*
X023354Y030538D01*
X023354Y030538D01*
X023354Y030695D01*
X023354Y030695D01*
X023354Y030566D01*
X023354Y030538D01*
X023354Y030380D01*
X023354Y030380D01*
X023354Y030528D02*
X023354Y030528D01*
X023354Y030538D02*
X023354Y030538D01*
X023354Y030686D02*
X023354Y030686D01*
X023354Y030695D02*
X023354Y030723D01*
X023354Y030825D01*
X023354Y030695D01*
X023354Y030695D01*
X023354Y030825D02*
X023354Y030825D01*
X023714Y031637D02*
X023735Y031637D01*
X023893Y031796D02*
X023496Y031796D01*
X023333Y032113D02*
X023314Y032113D01*
X023073Y031796D02*
X023025Y031796D01*
X024478Y031402D02*
X024545Y031374D01*
X024664Y031374D01*
X024773Y031419D01*
X024855Y031502D01*
X025039Y031502D01*
X025585Y030956D01*
X025585Y030911D01*
X025535Y030932D01*
X025424Y030932D01*
X025321Y030889D01*
X025242Y030810D01*
X025200Y030707D01*
X025200Y030610D01*
X025116Y030527D01*
X024814Y030527D01*
X024790Y030503D01*
X024793Y030514D01*
X024793Y030538D01*
X024793Y030562D01*
X024781Y030609D01*
X024776Y030617D01*
X024781Y030624D01*
X024793Y030671D01*
X024793Y030695D01*
X024706Y030695D01*
X024706Y030695D01*
X024793Y030695D01*
X024793Y030720D01*
X024781Y030767D01*
X024776Y030774D01*
X024781Y030781D01*
X024793Y030828D01*
X024793Y030853D01*
X024793Y030877D01*
X024781Y030924D01*
X024776Y030932D01*
X024781Y030939D01*
X024793Y030986D01*
X024793Y031010D01*
X024706Y031010D01*
X024706Y031010D01*
X024793Y031010D01*
X024793Y031035D01*
X024781Y031082D01*
X024756Y031124D01*
X024722Y031159D01*
X024679Y031183D01*
X024632Y031196D01*
X024535Y031196D01*
X024523Y031196D01*
X024523Y031357D01*
X024478Y031402D01*
X024523Y031320D02*
X025221Y031320D01*
X025379Y031162D02*
X024716Y031162D01*
X024793Y031003D02*
X025538Y031003D01*
X025277Y030845D02*
X024793Y030845D01*
X024793Y030853D02*
X024706Y030853D01*
X024793Y030853D01*
X024706Y030853D02*
X024706Y030853D01*
X024706Y030853D01*
X024706Y030695D02*
X024706Y030695D01*
X024793Y030686D02*
X025200Y030686D01*
X025117Y030528D02*
X024793Y030528D01*
X024793Y030538D02*
X024706Y030538D01*
X024793Y030538D01*
X024706Y030538D02*
X024706Y030538D01*
X024706Y030538D01*
X024535Y030538D02*
X024535Y030510D01*
X024535Y030408D01*
X024535Y030538D01*
X024535Y030695D01*
X024535Y030695D01*
X024535Y030668D01*
X024535Y030538D01*
X024535Y030538D01*
X024535Y030538D01*
X024535Y030528D02*
X024535Y030528D01*
X024535Y030408D02*
X024535Y030408D01*
X024535Y030686D02*
X024535Y030686D01*
X024535Y030695D02*
X024535Y030825D01*
X024535Y030853D01*
X024535Y031010D01*
X024535Y031010D01*
X024535Y030853D01*
X024535Y030853D01*
X024535Y030853D01*
X024535Y030695D01*
X024535Y030695D01*
X024535Y030845D02*
X024535Y030845D01*
X024535Y031003D02*
X024535Y031003D01*
X024535Y031010D02*
X024535Y031196D01*
X024535Y031010D01*
X024535Y031010D01*
X024535Y031162D02*
X024535Y031162D01*
X024832Y031479D02*
X025062Y031479D01*
X025384Y031637D02*
X028370Y031637D01*
X028211Y031479D02*
X025543Y031479D01*
X025701Y031320D02*
X027877Y031320D01*
X027768Y031162D02*
X025860Y031162D01*
X025925Y031003D02*
X026916Y031003D01*
X026757Y030845D02*
X025925Y030845D01*
X025925Y030686D02*
X026599Y030686D01*
X026440Y030528D02*
X025925Y030528D01*
X025925Y030369D02*
X026355Y030369D01*
X026355Y030211D02*
X025889Y030211D01*
X025880Y030052D02*
X026355Y030052D01*
X026355Y029894D02*
X025991Y029894D01*
X025989Y029735D02*
X026355Y029735D01*
X026182Y029577D02*
X026174Y029577D01*
X026174Y029418D02*
X026182Y029418D01*
X026182Y029383D02*
X026182Y029070D01*
X026192Y029070D01*
X026102Y028979D01*
X026102Y028947D01*
X026075Y028947D01*
X026048Y028947D01*
X026048Y029070D01*
X026174Y029070D01*
X026174Y029383D01*
X026182Y029383D01*
X026174Y029260D02*
X026182Y029260D01*
X026174Y029101D02*
X026182Y029101D01*
X026075Y028947D02*
X026075Y028591D01*
X026075Y028947D01*
X026075Y028943D02*
X026075Y028943D01*
X026075Y028784D02*
X026075Y028784D01*
X026075Y028626D02*
X026075Y028626D01*
X026075Y028591D02*
X026075Y028591D01*
X026075Y028234D01*
X026075Y028591D01*
X026075Y028591D01*
X026075Y028467D02*
X026075Y028467D01*
X026075Y028309D02*
X026075Y028309D01*
X025940Y027992D02*
X027624Y027992D01*
X027565Y028150D02*
X025280Y028150D01*
X025397Y028309D02*
X025690Y028309D01*
X025682Y028467D02*
X025555Y028467D01*
X025680Y028626D02*
X025682Y028626D01*
X025680Y028784D02*
X025682Y028784D01*
X025680Y028943D02*
X025708Y028943D01*
X025340Y028931D02*
X025314Y028957D01*
X025215Y029056D01*
X025215Y029456D01*
X025053Y029456D01*
X025053Y029760D01*
X025046Y029760D01*
X024732Y029760D01*
X024732Y029694D01*
X024720Y029707D01*
X024523Y029903D01*
X024523Y030038D01*
X024685Y030038D01*
X024697Y030050D01*
X024732Y030050D01*
X024732Y029995D01*
X024742Y029985D01*
X024742Y029985D01*
X024732Y029949D01*
X024732Y029767D01*
X025046Y029767D01*
X025046Y029760D01*
X025046Y029456D01*
X024881Y029456D01*
X025155Y029182D01*
X025155Y028872D01*
X025237Y028790D01*
X025282Y028681D01*
X025282Y028675D01*
X025340Y028732D01*
X025340Y028931D01*
X025328Y028943D02*
X025155Y028943D01*
X025155Y029101D02*
X025215Y029101D01*
X025215Y029260D02*
X025077Y029260D01*
X025215Y029418D02*
X024918Y029418D01*
X025046Y029577D02*
X025053Y029577D01*
X025046Y029735D02*
X025053Y029735D01*
X024732Y029735D02*
X024691Y029735D01*
X024732Y029894D02*
X024533Y029894D01*
X024334Y029136D02*
X024417Y029054D01*
X024417Y028942D01*
X024462Y028833D01*
X024510Y028786D01*
X024510Y028012D01*
X024495Y028027D01*
X024495Y028122D01*
X024452Y028225D01*
X024373Y028304D01*
X024270Y028347D01*
X024159Y028347D01*
X024056Y028304D01*
X024000Y028248D01*
X024000Y028527D01*
X023911Y028616D01*
X024021Y028616D01*
X024021Y028920D01*
X024028Y028920D01*
X024028Y028927D01*
X024342Y028927D01*
X024342Y029109D01*
X024334Y029136D01*
X024342Y029101D02*
X024370Y029101D01*
X024342Y028943D02*
X024417Y028943D01*
X024342Y028920D02*
X024342Y028738D01*
X024332Y028702D01*
X024314Y028670D01*
X024288Y028644D01*
X024256Y028626D01*
X024510Y028626D01*
X024510Y028784D02*
X024342Y028784D01*
X024342Y028920D02*
X024028Y028920D01*
X024028Y028616D01*
X024220Y028616D01*
X024256Y028626D01*
X024028Y028626D02*
X024021Y028626D01*
X024021Y028784D02*
X024028Y028784D01*
X024000Y028467D02*
X024510Y028467D01*
X024510Y028309D02*
X024362Y028309D01*
X024483Y028150D02*
X024510Y028150D01*
X024067Y028309D02*
X024000Y028309D01*
X024000Y027833D02*
X024052Y027833D01*
X024000Y027675D02*
X024366Y027675D01*
X024390Y027516D02*
X024000Y027516D01*
X024000Y027358D02*
X024390Y027358D01*
X024390Y027199D02*
X024000Y027199D01*
X024000Y027041D02*
X024390Y027041D01*
X024390Y026882D02*
X024000Y026882D01*
X024000Y026724D02*
X024390Y026724D01*
X024127Y026565D02*
X024000Y026565D01*
X024000Y026407D02*
X024035Y026407D01*
X024056Y026248D02*
X023991Y026248D01*
X024145Y026090D02*
X023833Y026090D01*
X023674Y025931D02*
X024145Y025931D01*
X025652Y027199D02*
X026016Y027199D01*
X025480Y027833D02*
X025467Y027833D01*
X025412Y027992D02*
X025579Y027992D01*
X025340Y028784D02*
X025239Y028784D01*
X023707Y028943D02*
X023584Y028943D01*
X023707Y029101D02*
X023425Y029101D01*
X021325Y025931D02*
X020718Y025931D01*
X020877Y026090D02*
X020924Y026090D01*
X021360Y025896D02*
X021360Y025896D01*
X020091Y025931D02*
X019718Y025931D01*
X019877Y026090D02*
X019932Y026090D01*
X019091Y025931D02*
X018718Y025931D01*
X018877Y026090D02*
X018932Y026090D01*
X018792Y023395D02*
X018035Y023395D01*
X018035Y023237D02*
X018714Y023237D01*
X018714Y023078D02*
X018035Y023078D01*
X018035Y022920D02*
X018605Y022920D01*
X018955Y022761D02*
X019146Y022761D01*
X019146Y022603D02*
X018953Y022603D01*
X018953Y022444D02*
X019146Y022444D01*
X019146Y022286D02*
X018953Y022286D01*
X018953Y022127D02*
X019146Y022127D01*
X019146Y021969D02*
X019092Y021969D01*
X019251Y021810D02*
X020009Y021810D01*
X020010Y021652D02*
X019409Y021652D01*
X018900Y021652D02*
X018035Y021652D01*
X018035Y021810D02*
X018741Y021810D01*
X018240Y021969D02*
X018035Y021969D01*
X018035Y022127D02*
X018240Y022127D01*
X018240Y022286D02*
X018035Y022286D01*
X018035Y022444D02*
X018240Y022444D01*
X018240Y022603D02*
X018035Y022603D01*
X018035Y022761D02*
X018240Y022761D01*
X019250Y023395D02*
X019278Y023395D01*
X019256Y023389D02*
X019256Y023389D01*
X021787Y021652D02*
X022412Y021652D01*
X022412Y021810D02*
X022053Y021810D01*
X022212Y021969D02*
X022412Y021969D01*
X022370Y022127D02*
X023667Y022127D01*
X023558Y022286D02*
X022529Y022286D01*
X022726Y021969D02*
X022733Y021969D01*
X022726Y021810D02*
X022733Y021810D01*
X022412Y021493D02*
X021787Y021493D01*
X021913Y021480D02*
X021913Y021290D01*
X021913Y021290D01*
X022132Y021290D01*
X022132Y021358D01*
X022122Y021394D01*
X022104Y021426D01*
X022078Y021452D01*
X022046Y021470D01*
X022010Y021480D01*
X021913Y021480D01*
X021913Y021335D02*
X021913Y021335D01*
X022132Y021335D02*
X022412Y021335D01*
X023047Y021335D02*
X025027Y021335D01*
X025186Y021493D02*
X024162Y021493D01*
X024293Y021652D02*
X025829Y021652D01*
X025988Y021810D02*
X024452Y021810D01*
X024610Y021969D02*
X029086Y021969D01*
X029245Y022127D02*
X027890Y022127D01*
X027364Y022127D02*
X024769Y022127D01*
X024501Y022224D02*
X024822Y022546D01*
X024822Y022546D01*
X024469Y022899D02*
X024469Y022899D01*
X024147Y022578D01*
X023602Y023237D02*
X023470Y023237D01*
X025355Y024127D02*
X025355Y024127D01*
X025416Y024188D02*
X025682Y024188D01*
X025682Y024346D02*
X025574Y024346D01*
X026469Y024346D02*
X026469Y024346D01*
X026469Y024188D02*
X026469Y024188D01*
X026469Y024029D02*
X026469Y024029D01*
X026469Y023871D02*
X026469Y023871D01*
X026442Y023712D02*
X026924Y023712D01*
X026903Y023554D02*
X026980Y023554D01*
X026940Y023395D02*
X027085Y023395D01*
X026637Y023395D02*
X026629Y023395D01*
X026629Y023554D02*
X026637Y023554D01*
X026721Y022603D02*
X026758Y022603D01*
X026758Y022444D02*
X026721Y022444D01*
X028685Y022286D02*
X029338Y022286D01*
X029995Y023069D02*
X029988Y023232D01*
X030297Y023527D01*
X030361Y023527D01*
X030361Y023443D01*
X030365Y023439D01*
X029995Y023069D01*
X029995Y023078D02*
X030005Y023078D01*
X029993Y023237D02*
X030163Y023237D01*
X030159Y023395D02*
X030322Y023395D01*
X030525Y024318D02*
X030525Y024592D01*
X030988Y024592D01*
X031070Y024674D01*
X031070Y025090D01*
X030993Y025167D01*
X031070Y025244D01*
X031070Y025424D01*
X031073Y025424D01*
X031210Y025424D01*
X031346Y025424D01*
X031382Y025433D01*
X031414Y025452D01*
X031440Y025478D01*
X031458Y025510D01*
X031468Y025545D01*
X031468Y025682D01*
X031468Y025818D01*
X031458Y025854D01*
X031443Y025881D01*
X031468Y025906D01*
X031468Y025912D01*
X031897Y025912D01*
X031881Y025874D01*
X031881Y025739D01*
X031907Y025679D01*
X031875Y025692D01*
X031764Y025692D01*
X031661Y025649D01*
X031582Y025570D01*
X031540Y025467D01*
X031540Y025356D01*
X031580Y025259D01*
X031390Y025259D01*
X031354Y025249D01*
X031322Y025231D01*
X031296Y025204D01*
X031278Y025173D01*
X031268Y025137D01*
X031268Y024940D01*
X031606Y024940D01*
X031606Y024903D01*
X031268Y024903D01*
X031268Y024706D01*
X031278Y024671D01*
X031296Y024639D01*
X031322Y024613D01*
X031354Y024594D01*
X031390Y024585D01*
X031606Y024585D01*
X031606Y024903D01*
X031643Y024903D01*
X031643Y024585D01*
X031860Y024585D01*
X031895Y024594D01*
X031927Y024613D01*
X031953Y024639D01*
X031958Y024647D01*
X032020Y024585D01*
X032395Y024585D01*
X032395Y023462D01*
X032329Y023397D01*
X032197Y023397D01*
X032203Y023399D01*
X032282Y023478D01*
X032325Y023581D01*
X032325Y023692D01*
X032282Y023795D01*
X032203Y023874D01*
X032100Y023917D01*
X031989Y023917D01*
X031886Y023874D01*
X031807Y023795D01*
X031797Y023770D01*
X031773Y023794D01*
X031758Y023800D01*
X031805Y023846D01*
X031805Y023926D01*
X031872Y023993D01*
X031915Y024096D01*
X031915Y024207D01*
X031872Y024310D01*
X031793Y024389D01*
X031690Y024432D01*
X031579Y024432D01*
X031476Y024389D01*
X031397Y024310D01*
X031372Y024250D01*
X031323Y024299D01*
X031220Y024342D01*
X031109Y024342D01*
X031006Y024299D01*
X030969Y024262D01*
X030962Y024280D01*
X030883Y024359D01*
X030780Y024402D01*
X030669Y024402D01*
X030566Y024359D01*
X030525Y024318D01*
X030525Y024346D02*
X030553Y024346D01*
X030525Y024505D02*
X032395Y024505D01*
X032395Y024346D02*
X031836Y024346D01*
X031915Y024188D02*
X032395Y024188D01*
X032395Y024029D02*
X031887Y024029D01*
X031883Y023871D02*
X031805Y023871D01*
X032206Y023871D02*
X032395Y023871D01*
X032395Y023712D02*
X032316Y023712D01*
X032313Y023554D02*
X032395Y023554D01*
X032515Y023101D02*
X032470Y023057D01*
X032043Y023057D01*
X032149Y022951D01*
X032149Y022887D01*
X032409Y022887D01*
X032515Y022992D01*
X032515Y023101D01*
X032515Y023078D02*
X032491Y023078D01*
X032442Y022920D02*
X032149Y022920D01*
X032491Y022193D02*
X032494Y022192D01*
X032605Y022192D01*
X032635Y022204D01*
X032635Y022146D01*
X033158Y021623D01*
X033257Y021523D01*
X033473Y021523D01*
X033531Y021465D01*
X033942Y021465D01*
X034006Y021529D01*
X034067Y021469D01*
X034292Y021469D01*
X034378Y021383D01*
X034417Y021288D01*
X034496Y021209D01*
X034599Y021167D01*
X034710Y021167D01*
X034813Y021209D01*
X034892Y021288D01*
X034924Y021367D01*
X035304Y021367D01*
X035570Y021633D01*
X035845Y021357D01*
X036314Y021357D01*
X036580Y021623D01*
X036845Y021357D01*
X037030Y021357D01*
X037030Y021872D01*
X037130Y021872D01*
X037130Y021357D01*
X037314Y021357D01*
X037475Y021518D01*
X037475Y020966D01*
X037182Y020966D01*
X037100Y020884D01*
X037100Y020374D01*
X037182Y020292D01*
X037475Y020292D01*
X037475Y018092D01*
X037182Y018092D01*
X037100Y018010D01*
X037100Y017500D01*
X037182Y017418D01*
X037475Y017418D01*
X037475Y017177D01*
X032185Y017177D01*
X032185Y017352D01*
X032585Y017352D01*
X032685Y017451D01*
X032685Y018777D01*
X032719Y018777D01*
X032795Y018701D01*
X032795Y017501D01*
X032894Y017402D01*
X032944Y017352D01*
X035700Y017352D01*
X035766Y017348D01*
X035770Y017352D01*
X035775Y017352D01*
X035821Y017398D01*
X036234Y017768D01*
X036234Y017500D01*
X036316Y017418D01*
X036747Y017418D01*
X036829Y017500D01*
X036829Y018010D01*
X036747Y018092D01*
X036715Y018092D01*
X036725Y018101D01*
X036725Y018206D01*
X036874Y018144D01*
X037055Y018144D01*
X037223Y018214D01*
X037352Y018342D01*
X037422Y018510D01*
X037422Y018692D01*
X037352Y018860D01*
X037223Y018989D01*
X037055Y019058D01*
X036874Y019058D01*
X036706Y018989D01*
X036577Y018860D01*
X036527Y018740D01*
X036200Y019067D01*
X033606Y019067D01*
X033651Y019112D01*
X033651Y019539D01*
X033682Y019555D01*
X033690Y019581D01*
X033710Y019601D01*
X033710Y019646D01*
X033723Y019689D01*
X033710Y019714D01*
X033710Y019742D01*
X033678Y019774D01*
X033657Y019814D01*
X033650Y019816D01*
X033651Y019821D01*
X033651Y020038D01*
X033333Y020038D01*
X033333Y020075D01*
X033296Y020075D01*
X033296Y020413D01*
X033099Y020413D01*
X033064Y020403D01*
X033047Y020394D01*
X032999Y020442D01*
X033239Y020442D01*
X033314Y020517D01*
X033420Y020622D01*
X033420Y020764D01*
X033441Y020764D01*
X033523Y020846D01*
X033523Y021198D01*
X033441Y021280D01*
X033088Y021280D01*
X033065Y021256D01*
X033041Y021280D01*
X032688Y021280D01*
X032615Y021206D01*
X032541Y021280D01*
X032188Y021280D01*
X032163Y021255D01*
X032137Y021270D01*
X032101Y021280D01*
X031965Y021280D01*
X031965Y021022D01*
X031965Y021022D01*
X031965Y021280D01*
X031828Y021280D01*
X031792Y021270D01*
X031760Y021252D01*
X031734Y021226D01*
X031716Y021194D01*
X031706Y021158D01*
X031706Y021022D01*
X031965Y021022D01*
X031965Y021022D01*
X031706Y021022D01*
X031706Y020885D01*
X031716Y020850D01*
X031734Y020818D01*
X031750Y020802D01*
X031669Y020802D01*
X031648Y020823D01*
X031663Y020850D01*
X031673Y020885D01*
X031673Y021022D01*
X031673Y021158D01*
X031663Y021194D01*
X031645Y021226D01*
X031619Y021252D01*
X031587Y021270D01*
X031551Y021280D01*
X031415Y021280D01*
X031415Y021022D01*
X031673Y021022D01*
X031415Y021022D01*
X031415Y021022D01*
X031415Y021022D01*
X031415Y021280D01*
X031278Y021280D01*
X031242Y021270D01*
X031210Y021252D01*
X031184Y021226D01*
X031166Y021194D01*
X031156Y021158D01*
X031156Y021022D01*
X031415Y021022D01*
X031415Y021022D01*
X031156Y021022D01*
X031156Y020885D01*
X031166Y020850D01*
X031181Y020823D01*
X031165Y020806D01*
X031091Y020880D01*
X030738Y020880D01*
X030715Y020856D01*
X030691Y020880D01*
X030338Y020880D01*
X030319Y020861D01*
X030220Y020902D01*
X030109Y020902D01*
X030006Y020859D01*
X029927Y020780D01*
X029885Y020677D01*
X029885Y020566D01*
X029927Y020463D01*
X030006Y020384D01*
X030022Y020378D01*
X029802Y020378D01*
X029767Y020368D01*
X029735Y020350D01*
X029709Y020324D01*
X029690Y020292D01*
X029681Y020256D01*
X029681Y020040D01*
X030176Y020040D01*
X030176Y019963D01*
X030253Y019963D01*
X030253Y020040D01*
X030748Y020040D01*
X030748Y020256D01*
X030739Y020292D01*
X030720Y020324D01*
X030694Y020350D01*
X030670Y020364D01*
X030691Y020364D01*
X030715Y020387D01*
X030738Y020364D01*
X031091Y020364D01*
X031165Y020437D01*
X031238Y020364D01*
X031572Y020364D01*
X031572Y020077D01*
X031634Y020015D01*
X031574Y020015D01*
X031574Y019820D01*
X031574Y019623D01*
X031574Y019428D01*
X031634Y019428D01*
X031572Y019366D01*
X031572Y019321D01*
X031507Y019321D01*
X031507Y019369D01*
X031497Y019378D01*
X031497Y019379D01*
X031507Y019414D01*
X031507Y019428D01*
X031574Y019428D01*
X031574Y019623D01*
X031574Y019623D01*
X031574Y019623D01*
X031852Y019623D01*
X031852Y019550D01*
X031842Y019514D01*
X031824Y019482D01*
X031798Y019456D01*
X031784Y019448D01*
X031851Y019448D01*
X031869Y019467D01*
X032260Y019467D01*
X032278Y019448D01*
X032281Y019448D01*
X032282Y019448D01*
X032285Y019448D01*
X032361Y019448D01*
X032361Y019409D01*
X032361Y019409D01*
X032361Y019448D01*
X032401Y019448D01*
X032444Y019492D01*
X032500Y019492D01*
X032487Y019514D01*
X032477Y019550D01*
X032477Y019623D01*
X032755Y019623D01*
X032755Y019623D01*
X032477Y019623D01*
X032477Y019697D01*
X032484Y019722D01*
X032477Y019747D01*
X032477Y019820D01*
X032755Y019820D01*
X032755Y019820D01*
X032755Y019818D01*
X032755Y019623D01*
X032755Y019623D01*
X032755Y019820D01*
X032755Y019820D01*
X032477Y019820D01*
X032477Y019894D01*
X032487Y019929D01*
X032505Y019961D01*
X032531Y019987D01*
X032545Y019995D01*
X032048Y019995D01*
X032047Y019996D01*
X032045Y019995D01*
X031968Y019995D01*
X031968Y020075D01*
X031968Y020075D01*
X031968Y020075D01*
X031968Y019995D01*
X031891Y019995D01*
X031888Y019996D01*
X031887Y019995D01*
X031784Y019995D01*
X031798Y019987D01*
X031824Y019961D01*
X031842Y019929D01*
X031852Y019894D01*
X031852Y019820D01*
X031574Y019820D01*
X031574Y019820D01*
X031574Y019820D01*
X031574Y019818D01*
X031574Y019623D01*
X031852Y019623D01*
X031852Y019697D01*
X031845Y019722D01*
X031852Y019747D01*
X031852Y019820D01*
X031574Y019820D01*
X031574Y019820D01*
X031574Y020015D01*
X031418Y020015D01*
X031382Y020006D01*
X031350Y019987D01*
X031324Y019961D01*
X031306Y019929D01*
X031300Y019907D01*
X031193Y019907D01*
X031193Y019604D01*
X031186Y019604D01*
X031186Y019907D01*
X030994Y019907D01*
X030958Y019898D01*
X030926Y019879D01*
X030900Y019853D01*
X030882Y019821D01*
X030872Y019786D01*
X030872Y019604D01*
X031186Y019604D01*
X031186Y019596D01*
X030872Y019596D01*
X030872Y019467D01*
X028394Y019467D01*
X028295Y019367D01*
X028295Y017177D01*
X027224Y017177D01*
X027340Y017293D01*
X027340Y017477D01*
X026825Y017477D01*
X026825Y017577D01*
X027340Y017577D01*
X027340Y017761D01*
X027074Y018027D01*
X027340Y018293D01*
X027340Y018761D01*
X027074Y019027D01*
X027340Y019293D01*
X027340Y019761D01*
X027054Y020046D01*
X027149Y020046D01*
X027231Y020128D01*
X027231Y020208D01*
X027265Y020242D01*
X027365Y020341D01*
X027365Y020456D01*
X027605Y020697D01*
X029500Y020697D01*
X029915Y021112D01*
X030575Y021112D01*
X031054Y021591D01*
X031070Y021575D01*
X031186Y021575D01*
X031435Y021824D01*
X031435Y021858D01*
X031469Y021858D01*
X031608Y021997D01*
X032295Y021997D01*
X032491Y022193D01*
X032425Y022127D02*
X032654Y022127D01*
X032812Y021969D02*
X031580Y021969D01*
X031421Y021810D02*
X032971Y021810D01*
X033129Y021652D02*
X031263Y021652D01*
X030956Y021493D02*
X033503Y021493D01*
X033523Y021176D02*
X034576Y021176D01*
X034733Y021176D02*
X037475Y021176D01*
X037475Y021018D02*
X033523Y021018D01*
X033523Y020859D02*
X036234Y020859D01*
X036234Y020884D02*
X036234Y020374D01*
X036253Y020355D01*
X036050Y020355D01*
X036050Y020592D01*
X035925Y020717D01*
X035825Y020817D01*
X034909Y020817D01*
X034684Y020592D01*
X034585Y020492D01*
X034585Y020399D01*
X034572Y020408D01*
X034500Y020444D01*
X034424Y020469D01*
X034345Y020482D01*
X034325Y020482D01*
X034325Y019992D01*
X034285Y019992D01*
X034285Y020482D01*
X034264Y020482D01*
X034185Y020469D01*
X034109Y020444D01*
X034037Y020408D01*
X033972Y020361D01*
X033916Y020304D01*
X033868Y020239D01*
X033832Y020167D01*
X033807Y020091D01*
X033795Y020012D01*
X033795Y019992D01*
X034285Y019992D01*
X034285Y019952D01*
X034325Y019952D01*
X034325Y019462D01*
X034345Y019462D01*
X034424Y019474D01*
X034500Y019499D01*
X034572Y019535D01*
X034617Y019569D01*
X034935Y019251D01*
X035034Y019152D01*
X036575Y019152D01*
X036725Y019301D01*
X036725Y019387D01*
X036874Y019325D01*
X037055Y019325D01*
X037223Y019395D01*
X037352Y019523D01*
X037422Y019691D01*
X037422Y019873D01*
X037352Y020041D01*
X037223Y020170D01*
X037055Y020239D01*
X036874Y020239D01*
X036711Y020172D01*
X036711Y020273D01*
X036692Y020292D01*
X036747Y020292D01*
X036829Y020374D01*
X036829Y020884D01*
X036747Y020966D01*
X036316Y020966D01*
X036234Y020884D01*
X036234Y020701D02*
X035941Y020701D01*
X036050Y020542D02*
X036234Y020542D01*
X036234Y020384D02*
X036050Y020384D01*
X036711Y020225D02*
X036839Y020225D01*
X036829Y020384D02*
X037100Y020384D01*
X037100Y020542D02*
X036829Y020542D01*
X036829Y020701D02*
X037100Y020701D01*
X037100Y020859D02*
X036829Y020859D01*
X036709Y021493D02*
X036450Y021493D01*
X037030Y021493D02*
X037130Y021493D01*
X037130Y021652D02*
X037030Y021652D01*
X037030Y021810D02*
X037130Y021810D01*
X037130Y021972D02*
X037030Y021972D01*
X037030Y022872D01*
X037130Y022872D01*
X037130Y022357D01*
X037130Y021972D01*
X037130Y022127D02*
X037030Y022127D01*
X037030Y022286D02*
X037130Y022286D01*
X037130Y022444D02*
X037030Y022444D01*
X037030Y022603D02*
X037130Y022603D01*
X037130Y022761D02*
X037030Y022761D01*
X037030Y022972D02*
X037030Y023872D01*
X037130Y023872D01*
X037130Y023357D01*
X037130Y022972D01*
X037030Y022972D01*
X037030Y023078D02*
X037130Y023078D01*
X037130Y023237D02*
X037030Y023237D01*
X037030Y023395D02*
X037130Y023395D01*
X037130Y023554D02*
X037030Y023554D01*
X037030Y023712D02*
X037130Y023712D01*
X037130Y023871D02*
X037030Y023871D01*
X037030Y023972D02*
X037030Y024487D01*
X036845Y024487D01*
X036580Y024221D01*
X036339Y024462D01*
X036510Y024462D01*
X036680Y024632D01*
X036780Y024731D01*
X036780Y025779D01*
X036786Y025779D01*
X036868Y025861D01*
X036868Y026213D01*
X036844Y026237D01*
X036868Y026261D01*
X036868Y026613D01*
X036786Y026695D01*
X036780Y026695D01*
X036780Y028182D01*
X036680Y028282D01*
X036610Y028352D01*
X036602Y028352D01*
X036602Y028378D01*
X036383Y028378D01*
X036383Y028378D01*
X036602Y028378D01*
X036602Y028407D01*
X036619Y028407D01*
X036686Y028339D01*
X036789Y028297D01*
X036900Y028297D01*
X037003Y028339D01*
X037082Y028418D01*
X037115Y028497D01*
X037115Y027908D01*
X037047Y027840D01*
X037005Y027737D01*
X037005Y027626D01*
X037047Y027523D01*
X037109Y027462D01*
X037057Y027410D01*
X037015Y027307D01*
X037015Y027196D01*
X037057Y027093D01*
X037136Y027014D01*
X037239Y026972D01*
X037350Y026972D01*
X037453Y027014D01*
X037475Y027036D01*
X037475Y024326D01*
X037314Y024487D01*
X037130Y024487D01*
X037130Y023972D01*
X037030Y023972D01*
X037030Y024029D02*
X037130Y024029D01*
X037130Y024188D02*
X037030Y024188D01*
X037030Y024346D02*
X037130Y024346D01*
X037454Y024346D02*
X037475Y024346D01*
X037475Y024505D02*
X036553Y024505D01*
X036454Y024346D02*
X036705Y024346D01*
X036711Y024663D02*
X037475Y024663D01*
X037475Y024822D02*
X036780Y024822D01*
X036780Y024980D02*
X037475Y024980D01*
X037475Y025139D02*
X036780Y025139D01*
X036780Y025297D02*
X037475Y025297D01*
X037475Y025456D02*
X036780Y025456D01*
X036780Y025614D02*
X037475Y025614D01*
X037475Y025773D02*
X036780Y025773D01*
X036868Y025931D02*
X037475Y025931D01*
X037475Y026090D02*
X036868Y026090D01*
X036855Y026248D02*
X037475Y026248D01*
X037475Y026407D02*
X036868Y026407D01*
X036868Y026565D02*
X037475Y026565D01*
X037475Y026724D02*
X036780Y026724D01*
X036780Y026882D02*
X037475Y026882D01*
X037110Y027041D02*
X036780Y027041D01*
X036780Y027199D02*
X037015Y027199D01*
X037035Y027358D02*
X036780Y027358D01*
X036780Y027516D02*
X037054Y027516D01*
X037005Y027675D02*
X036780Y027675D01*
X036780Y027833D02*
X037044Y027833D01*
X037115Y027992D02*
X036780Y027992D01*
X036780Y028150D02*
X037115Y028150D01*
X037115Y028309D02*
X036929Y028309D01*
X036760Y028309D02*
X036653Y028309D01*
X037102Y028467D02*
X037115Y028467D01*
X037346Y029735D02*
X037475Y029735D01*
X037475Y029894D02*
X037188Y029894D01*
X037029Y030052D02*
X037475Y030052D01*
X037475Y030211D02*
X035959Y030211D01*
X036010Y030369D02*
X037475Y030369D01*
X037475Y030528D02*
X036010Y030528D01*
X036219Y030686D02*
X037475Y030686D01*
X037475Y030845D02*
X036264Y030845D01*
X036264Y031003D02*
X037475Y031003D01*
X037475Y031162D02*
X036264Y031162D01*
X036264Y031320D02*
X037475Y031320D01*
X037475Y031479D02*
X036264Y031479D01*
X036222Y031637D02*
X037475Y031637D01*
X037475Y031796D02*
X035685Y031796D01*
X035493Y031479D02*
X035358Y031479D01*
X035358Y031595D02*
X035358Y030814D01*
X035432Y030814D01*
X035468Y030804D01*
X035468Y030804D01*
X035478Y030814D01*
X035551Y030814D01*
X035551Y031421D01*
X035055Y031917D01*
X034785Y031917D01*
X034785Y031677D01*
X035276Y031677D01*
X035358Y031595D01*
X035334Y031637D02*
X035316Y031637D01*
X035176Y031796D02*
X034785Y031796D01*
X035358Y031320D02*
X035551Y031320D01*
X035551Y031162D02*
X035358Y031162D01*
X035358Y031003D02*
X035551Y031003D01*
X035551Y030845D02*
X035358Y030845D01*
X035250Y030369D02*
X035243Y030369D01*
X035243Y030211D02*
X035250Y030211D01*
X035468Y030189D02*
X035468Y030189D01*
X035571Y029735D02*
X035828Y029735D01*
X035800Y029577D02*
X035730Y029577D01*
X035640Y029667D02*
X035640Y029667D01*
X035986Y029894D02*
X034527Y029894D01*
X034685Y030052D02*
X036145Y030052D01*
X034990Y030211D02*
X034785Y030211D01*
X034785Y030369D02*
X034939Y030369D01*
X034939Y030528D02*
X034785Y030528D01*
X033938Y029735D02*
X032107Y029735D01*
X032261Y029577D02*
X033779Y029577D01*
X033621Y029418D02*
X032278Y029418D01*
X032179Y029260D02*
X033462Y029260D01*
X033305Y029101D02*
X031918Y029101D01*
X032046Y028943D02*
X031555Y028943D01*
X032030Y028467D02*
X030105Y028467D01*
X029947Y028309D02*
X032065Y028309D01*
X032065Y028150D02*
X029788Y028150D01*
X029901Y027992D02*
X030246Y027992D01*
X030237Y027833D02*
X029955Y027833D01*
X029955Y027675D02*
X030237Y027675D01*
X030558Y027779D02*
X030558Y028082D01*
X030750Y028082D01*
X030786Y028073D01*
X030818Y028054D01*
X030844Y028028D01*
X030862Y027996D01*
X030872Y027961D01*
X030872Y027779D01*
X030558Y027779D01*
X030551Y027833D02*
X030558Y027833D01*
X030551Y027992D02*
X030558Y027992D01*
X030863Y027992D02*
X031065Y027992D01*
X031001Y027833D02*
X030872Y027833D01*
X030872Y027675D02*
X031001Y027675D01*
X031454Y027992D02*
X031547Y027992D01*
X031852Y027992D02*
X031930Y027992D01*
X032405Y028150D02*
X033480Y028150D01*
X033480Y027992D02*
X033003Y027992D01*
X033058Y027833D02*
X033480Y027833D01*
X033480Y027675D02*
X033031Y027675D01*
X032988Y027516D02*
X033480Y027516D01*
X033613Y027358D02*
X033058Y027358D01*
X033041Y027199D02*
X033772Y027199D01*
X033930Y027041D02*
X032964Y027041D01*
X033049Y026882D02*
X034470Y026882D01*
X034470Y026724D02*
X033048Y026724D01*
X033058Y026807D02*
X032720Y026807D01*
X033058Y026807D01*
X032956Y026565D02*
X033836Y026565D01*
X033712Y026407D02*
X033044Y026407D01*
X033058Y026307D02*
X032720Y026307D01*
X032720Y026307D01*
X032720Y026307D01*
X032720Y026469D01*
X032720Y026807D01*
X032720Y026807D01*
X032720Y026807D01*
X032720Y026307D01*
X033058Y026307D01*
X033053Y026248D02*
X033636Y026248D01*
X033336Y026090D02*
X032981Y026090D01*
X033034Y025931D02*
X033336Y025931D01*
X033354Y025773D02*
X033058Y025773D01*
X033005Y025614D02*
X033336Y025614D01*
X033853Y025614D02*
X034027Y025614D01*
X034185Y025773D02*
X033835Y025773D01*
X033853Y025931D02*
X034350Y025931D01*
X034427Y026090D02*
X034144Y026090D01*
X034252Y026248D02*
X034470Y026248D01*
X034470Y026407D02*
X034247Y026407D01*
X034123Y026565D02*
X034470Y026565D01*
X034895Y027446D02*
X034860Y027481D01*
X034874Y027495D01*
X034892Y027527D01*
X034902Y027563D01*
X034902Y027745D01*
X034588Y027745D01*
X034588Y027752D01*
X034902Y027752D01*
X034902Y027795D01*
X034966Y027795D01*
X034970Y027795D01*
X034970Y027515D01*
X034963Y027515D01*
X034895Y027446D01*
X034886Y027516D02*
X034970Y027516D01*
X034970Y027675D02*
X034902Y027675D01*
X034966Y027795D02*
X034966Y027985D01*
X034966Y027985D01*
X034966Y028181D01*
X034966Y028181D01*
X034966Y028174D01*
X034966Y027985D01*
X034966Y027795D01*
X034966Y027833D02*
X034966Y027833D01*
X034966Y027985D02*
X034966Y027985D01*
X034966Y027992D02*
X034966Y027992D01*
X034966Y028150D02*
X034966Y028150D01*
X034581Y027752D02*
X034581Y027745D01*
X034267Y027745D01*
X034267Y027587D01*
X034205Y027587D01*
X034060Y027732D01*
X034060Y027968D01*
X034074Y027962D01*
X034185Y027962D01*
X034267Y027996D01*
X034267Y027980D01*
X034277Y027970D01*
X034277Y027970D01*
X034267Y027934D01*
X034267Y027752D01*
X034581Y027752D01*
X034267Y027675D02*
X034117Y027675D01*
X034060Y027833D02*
X034267Y027833D01*
X034258Y027992D02*
X034267Y027992D01*
X033327Y028309D02*
X032405Y028309D01*
X032720Y027992D02*
X032720Y027992D01*
X032720Y027833D02*
X032720Y027833D01*
X031905Y027182D02*
X031933Y027115D01*
X031991Y027057D01*
X031933Y026998D01*
X031881Y026874D01*
X031881Y026739D01*
X031933Y026615D01*
X031991Y026557D01*
X031933Y026498D01*
X031881Y026374D01*
X031881Y026252D01*
X031468Y026252D01*
X031468Y026258D01*
X031386Y026340D01*
X031055Y026340D01*
X031055Y026892D01*
X031180Y026892D01*
X031330Y027042D01*
X031382Y027094D01*
X031436Y027094D01*
X031518Y027176D01*
X031518Y027182D01*
X031905Y027182D01*
X031975Y027041D02*
X031329Y027041D01*
X031055Y026882D02*
X031885Y026882D01*
X031888Y026724D02*
X031055Y026724D01*
X031055Y026565D02*
X031983Y026565D01*
X031895Y026407D02*
X031055Y026407D01*
X030956Y025837D02*
X030135Y025837D01*
X029975Y025677D01*
X029955Y025677D01*
X029955Y025622D01*
X030240Y025622D01*
X030240Y025660D01*
X030322Y025742D01*
X030951Y025742D01*
X030951Y025818D01*
X030956Y025837D01*
X030951Y025773D02*
X030071Y025773D01*
X031070Y025297D02*
X031564Y025297D01*
X031540Y025456D02*
X031418Y025456D01*
X031468Y025614D02*
X031626Y025614D01*
X031468Y025682D02*
X031210Y025682D01*
X031468Y025682D01*
X031468Y025773D02*
X031881Y025773D01*
X031210Y025682D02*
X031210Y025682D01*
X031210Y025424D01*
X031210Y025682D01*
X031210Y025682D01*
X031210Y025614D02*
X031210Y025614D01*
X031210Y025456D02*
X031210Y025456D01*
X031269Y025139D02*
X031020Y025139D01*
X031070Y024980D02*
X031268Y024980D01*
X031268Y024822D02*
X031070Y024822D01*
X031059Y024663D02*
X031282Y024663D01*
X031606Y024663D02*
X031643Y024663D01*
X031643Y024822D02*
X031606Y024822D01*
X031433Y024346D02*
X030896Y024346D01*
X032720Y026407D02*
X032720Y026407D01*
X032720Y026565D02*
X032720Y026565D01*
X032720Y026724D02*
X032720Y026724D01*
X033216Y028467D02*
X033305Y028467D01*
X033305Y028626D02*
X033305Y028626D01*
X033305Y028784D02*
X033281Y028784D01*
X033305Y028943D02*
X033102Y028943D01*
X032947Y028943D02*
X032823Y028943D01*
X032446Y028943D02*
X032423Y028943D01*
X030944Y028572D02*
X030944Y028572D01*
X030451Y029165D02*
X030451Y029165D01*
X030451Y029260D02*
X030451Y029260D01*
X029558Y028467D02*
X029415Y028467D01*
X029599Y027626D02*
X029599Y027626D01*
X028879Y027358D02*
X028858Y027358D01*
X029525Y031479D02*
X029916Y031479D01*
X029916Y031637D02*
X029525Y031637D01*
X029525Y031796D02*
X029916Y031796D01*
X029916Y031954D02*
X029525Y031954D01*
X031348Y031320D02*
X031419Y031320D01*
X031613Y031320D02*
X031613Y031320D01*
X031613Y031479D02*
X031613Y031479D01*
X031613Y031637D02*
X031613Y031637D01*
X031893Y031954D02*
X032130Y031954D01*
X029801Y034173D02*
X026699Y034173D01*
X026595Y034332D02*
X029960Y034332D01*
X030118Y034490D02*
X026595Y034490D01*
X026577Y034649D02*
X030277Y034649D01*
X033658Y036075D02*
X035422Y036075D01*
X035470Y036551D02*
X026525Y036551D01*
X022450Y033856D02*
X020852Y033856D01*
X020994Y033698D02*
X022454Y033698D01*
X022444Y033539D02*
X021015Y033539D01*
X021015Y033381D02*
X022550Y033381D01*
X022291Y034015D02*
X021788Y034015D01*
X018240Y021335D02*
X018240Y020471D01*
X018322Y020389D01*
X018717Y020389D01*
X018714Y020377D01*
X018714Y020185D01*
X019017Y020185D01*
X019018Y020067D02*
X019025Y020067D01*
X019018Y019908D02*
X019025Y019908D01*
X019243Y019874D02*
X019243Y019874D01*
X018752Y019908D02*
X018035Y019908D01*
X018035Y020067D02*
X018714Y020067D01*
X018714Y020225D02*
X018035Y020225D01*
X018035Y020384D02*
X018716Y020384D01*
X018240Y020542D02*
X018035Y020542D01*
X018035Y020701D02*
X018240Y020701D01*
X018240Y020859D02*
X018035Y020859D01*
X018035Y021018D02*
X018240Y021018D01*
X018240Y021176D02*
X018035Y021176D01*
X020715Y020542D02*
X021694Y020542D01*
X021401Y020407D02*
X021401Y020188D01*
X021401Y020407D01*
X021401Y020384D02*
X021401Y020384D01*
X021401Y020225D02*
X021401Y020225D01*
X021401Y020188D02*
X021401Y020188D01*
X021401Y020700D01*
X022132Y020701D02*
X022412Y020701D01*
X022420Y020542D02*
X022264Y020542D01*
X022310Y020384D02*
X022412Y020384D01*
X022412Y020225D02*
X022310Y020225D01*
X022379Y019433D02*
X022387Y019433D01*
X022379Y019274D02*
X022387Y019274D01*
X022622Y019274D02*
X022674Y019274D01*
X022930Y019274D02*
X022930Y019274D01*
X024220Y019274D02*
X024228Y019274D01*
X024322Y019116D02*
X024386Y019116D01*
X024406Y018957D02*
X024318Y018957D01*
X024247Y018799D02*
X024195Y018799D01*
X024455Y018006D02*
X022636Y018006D01*
X022640Y017848D02*
X024296Y017848D01*
X024210Y017689D02*
X022640Y017689D01*
X022609Y017531D02*
X024725Y017531D01*
X024825Y017531D02*
X025725Y017531D01*
X025725Y017577D02*
X025725Y017477D01*
X025210Y017477D01*
X024825Y017477D01*
X024825Y017577D01*
X025725Y017577D01*
X025825Y017577D02*
X026725Y017577D01*
X026725Y017477D01*
X026210Y017477D01*
X025825Y017477D01*
X025825Y017577D01*
X025825Y017531D02*
X026725Y017531D01*
X026825Y017531D02*
X028295Y017531D01*
X028295Y017689D02*
X027340Y017689D01*
X027253Y017848D02*
X028295Y017848D01*
X028295Y018006D02*
X027094Y018006D01*
X027212Y018165D02*
X028295Y018165D01*
X028295Y018323D02*
X027340Y018323D01*
X027340Y018482D02*
X028295Y018482D01*
X028295Y018640D02*
X027340Y018640D01*
X027302Y018799D02*
X028295Y018799D01*
X028295Y018957D02*
X027143Y018957D01*
X027163Y019116D02*
X028295Y019116D01*
X028295Y019274D02*
X027321Y019274D01*
X027340Y019433D02*
X028360Y019433D01*
X028609Y019679D02*
X028635Y019653D01*
X028667Y019635D01*
X028702Y019625D01*
X029076Y019625D01*
X029076Y019963D01*
X029153Y019963D01*
X029153Y020040D01*
X029648Y020040D01*
X029648Y020256D01*
X029639Y020292D01*
X029620Y020324D01*
X029594Y020350D01*
X029562Y020368D01*
X029527Y020378D01*
X029153Y020378D01*
X029153Y020040D01*
X029076Y020040D01*
X029076Y019963D01*
X028581Y019963D01*
X028581Y019747D01*
X028590Y019711D01*
X028609Y019679D01*
X028581Y019750D02*
X027340Y019750D01*
X027340Y019591D02*
X030872Y019591D01*
X030872Y019750D02*
X030748Y019750D01*
X030748Y019747D02*
X030748Y019963D01*
X030253Y019963D01*
X030253Y019625D01*
X030627Y019625D01*
X030662Y019635D01*
X030694Y019653D01*
X030720Y019679D01*
X030739Y019711D01*
X030748Y019747D01*
X030748Y019908D02*
X031300Y019908D01*
X031193Y019750D02*
X031186Y019750D01*
X031574Y019750D02*
X031574Y019750D01*
X031574Y019623D02*
X031574Y019623D01*
X031574Y019591D02*
X031574Y019591D01*
X031574Y019433D02*
X031574Y019433D01*
X031852Y019591D02*
X032477Y019591D01*
X032477Y019750D02*
X031852Y019750D01*
X031848Y019908D02*
X032481Y019908D01*
X032695Y020015D02*
X032757Y020077D01*
X032757Y020122D01*
X032809Y020122D01*
X032835Y020097D01*
X032835Y020015D01*
X032755Y020015D01*
X032695Y020015D01*
X032755Y020015D02*
X032755Y019820D01*
X032755Y019820D01*
X032755Y020015D01*
X032746Y020067D02*
X032835Y020067D01*
X032755Y019908D02*
X032755Y019908D01*
X032755Y019750D02*
X032755Y019750D01*
X032361Y019433D02*
X032361Y019433D01*
X031968Y020067D02*
X031968Y020067D01*
X031583Y020067D02*
X030748Y020067D01*
X030748Y020225D02*
X031572Y020225D01*
X031574Y019908D02*
X031574Y019908D01*
X031218Y020384D02*
X031111Y020384D01*
X030718Y020384D02*
X030711Y020384D01*
X030711Y020859D02*
X030718Y020859D01*
X030639Y021176D02*
X031161Y021176D01*
X031156Y021018D02*
X029821Y021018D01*
X029662Y020859D02*
X030006Y020859D01*
X029894Y020701D02*
X029504Y020701D01*
X029894Y020542D02*
X027450Y020542D01*
X027365Y020384D02*
X030007Y020384D01*
X029681Y020225D02*
X029648Y020225D01*
X029648Y020067D02*
X029681Y020067D01*
X029681Y019963D02*
X029681Y019747D01*
X029690Y019711D01*
X029709Y019679D01*
X029735Y019653D01*
X029767Y019635D01*
X029802Y019625D01*
X030176Y019625D01*
X030176Y019963D01*
X029681Y019963D01*
X029648Y019963D02*
X029153Y019963D01*
X029153Y019625D01*
X029527Y019625D01*
X029562Y019635D01*
X029594Y019653D01*
X029620Y019679D01*
X029639Y019711D01*
X029648Y019747D01*
X029648Y019963D01*
X029648Y019908D02*
X029681Y019908D01*
X029681Y019750D02*
X029648Y019750D01*
X029153Y019750D02*
X029076Y019750D01*
X029076Y019908D02*
X029153Y019908D01*
X029076Y020040D02*
X028581Y020040D01*
X028581Y020256D01*
X028590Y020292D01*
X028609Y020324D01*
X028635Y020350D01*
X028667Y020368D01*
X028702Y020378D01*
X029076Y020378D01*
X029076Y020040D01*
X029076Y020067D02*
X029153Y020067D01*
X029153Y020225D02*
X029076Y020225D01*
X028581Y020225D02*
X027248Y020225D01*
X027170Y020067D02*
X028581Y020067D01*
X028581Y019908D02*
X027192Y019908D01*
X030176Y019908D02*
X030253Y019908D01*
X030253Y019750D02*
X030176Y019750D01*
X031111Y020859D02*
X031163Y020859D01*
X031415Y021176D02*
X031415Y021176D01*
X031668Y021176D02*
X031711Y021176D01*
X031706Y021018D02*
X031673Y021018D01*
X031666Y020859D02*
X031713Y020859D01*
X031965Y021176D02*
X031965Y021176D01*
X033296Y020384D02*
X033333Y020384D01*
X033333Y020413D02*
X033333Y020075D01*
X033651Y020075D01*
X033651Y020291D01*
X033642Y020327D01*
X033623Y020359D01*
X033597Y020385D01*
X033565Y020403D01*
X033530Y020413D01*
X033333Y020413D01*
X033340Y020542D02*
X034635Y020542D01*
X034793Y020701D02*
X033420Y020701D01*
X033599Y020384D02*
X034004Y020384D01*
X033861Y020225D02*
X033651Y020225D01*
X033803Y020067D02*
X033333Y020067D01*
X033333Y020225D02*
X033296Y020225D01*
X033651Y019908D02*
X033798Y019908D01*
X033795Y019932D02*
X033807Y019852D01*
X033832Y019776D01*
X033868Y019704D01*
X033916Y019639D01*
X033972Y019583D01*
X034037Y019535D01*
X034109Y019499D01*
X034185Y019474D01*
X034264Y019462D01*
X034285Y019462D01*
X034285Y019952D01*
X033795Y019952D01*
X033795Y019932D01*
X033845Y019750D02*
X033702Y019750D01*
X033699Y019591D02*
X033964Y019591D01*
X034285Y019591D02*
X034325Y019591D01*
X034325Y019750D02*
X034285Y019750D01*
X034285Y019908D02*
X034325Y019908D01*
X034325Y020067D02*
X034285Y020067D01*
X034285Y020225D02*
X034325Y020225D01*
X034325Y020384D02*
X034285Y020384D01*
X034398Y021335D02*
X030798Y021335D01*
X033971Y021493D02*
X034042Y021493D01*
X034911Y021335D02*
X037475Y021335D01*
X037475Y021493D02*
X037450Y021493D01*
X037475Y020225D02*
X037090Y020225D01*
X037327Y020067D02*
X037475Y020067D01*
X037475Y019908D02*
X037407Y019908D01*
X037422Y019750D02*
X037475Y019750D01*
X037475Y019591D02*
X037380Y019591D01*
X037475Y019433D02*
X037261Y019433D01*
X037475Y019274D02*
X036697Y019274D01*
X036674Y018957D02*
X036309Y018957D01*
X036468Y018799D02*
X036552Y018799D01*
X036725Y018165D02*
X036824Y018165D01*
X036829Y018006D02*
X037100Y018006D01*
X037100Y017848D02*
X036829Y017848D01*
X036829Y017689D02*
X037100Y017689D01*
X037100Y017531D02*
X036829Y017531D01*
X036234Y017531D02*
X035969Y017531D01*
X035795Y017372D02*
X037475Y017372D01*
X037475Y017214D02*
X032185Y017214D01*
X032605Y017372D02*
X032924Y017372D01*
X032795Y017531D02*
X032685Y017531D01*
X032685Y017689D02*
X032795Y017689D01*
X032795Y017848D02*
X032685Y017848D01*
X032685Y018006D02*
X032795Y018006D01*
X032795Y018165D02*
X032685Y018165D01*
X032685Y018323D02*
X032795Y018323D01*
X032795Y018482D02*
X032685Y018482D01*
X032685Y018640D02*
X032795Y018640D01*
X033651Y019116D02*
X037475Y019116D01*
X037475Y018957D02*
X037255Y018957D01*
X037378Y018799D02*
X037475Y018799D01*
X037475Y018640D02*
X037422Y018640D01*
X037410Y018482D02*
X037475Y018482D01*
X037475Y018323D02*
X037333Y018323D01*
X037475Y018165D02*
X037105Y018165D01*
X036234Y017689D02*
X036146Y017689D01*
X034912Y019274D02*
X033651Y019274D01*
X033651Y019433D02*
X034753Y019433D01*
X035430Y021493D02*
X035709Y021493D01*
X028295Y017372D02*
X027340Y017372D01*
X027261Y017214D02*
X028295Y017214D01*
X024288Y017214D02*
X019590Y017214D01*
X019590Y017372D02*
X024210Y017372D01*
X022337Y017531D02*
X022329Y017531D01*
X022329Y017689D02*
X022337Y017689D01*
X022329Y017848D02*
X022337Y017848D01*
X022329Y018006D02*
X022337Y018006D01*
X021037Y018006D02*
X020715Y018006D01*
X020408Y018006D02*
X020401Y018006D01*
X020401Y018165D02*
X020408Y018165D01*
X019858Y018165D02*
X019851Y018165D01*
X019851Y018006D02*
X019858Y018006D01*
X019590Y017848D02*
X021037Y017848D01*
X021622Y018957D02*
X021748Y018957D01*
X023047Y021176D02*
X023073Y021176D01*
X023186Y021176D02*
X023238Y021176D01*
D49*
X023355Y021347D03*
X023755Y021347D03*
X023985Y021712D03*
X023355Y021747D03*
X023355Y022147D03*
X022655Y022272D03*
X022305Y021947D03*
X023130Y020897D03*
X023955Y020947D03*
X023955Y020547D03*
X023955Y020122D03*
X023755Y019722D03*
X023355Y019722D03*
X023355Y019322D03*
X023355Y018922D03*
X022955Y018922D03*
X022955Y018522D03*
X022955Y018122D03*
X022955Y017722D03*
X022955Y017322D03*
X022555Y017322D03*
X022155Y017322D03*
X021755Y017322D03*
X021355Y017322D03*
X020955Y017322D03*
X020555Y017322D03*
X020155Y017322D03*
X019755Y017322D03*
X019755Y017822D03*
X020155Y017822D03*
X020555Y017822D03*
X020905Y018222D03*
X020905Y018672D03*
X021930Y019172D03*
X022380Y019172D03*
X023130Y020272D03*
X024050Y019042D03*
X025275Y019952D03*
X026275Y019927D03*
X028390Y020072D03*
X028390Y020472D03*
X028965Y020472D03*
X029365Y020472D03*
X029765Y020472D03*
X029765Y020872D03*
X030160Y021052D03*
X030560Y021052D03*
X030960Y021052D03*
X031360Y021402D03*
X031760Y021402D03*
X032160Y021402D03*
X032560Y021402D03*
X032960Y021402D03*
X033360Y021402D03*
X033635Y021037D03*
X034035Y021037D03*
X034435Y021037D03*
X034835Y021037D03*
X035235Y021037D03*
X035635Y021037D03*
X036035Y021037D03*
X036435Y021037D03*
X036835Y021037D03*
X037235Y021037D03*
X034655Y021447D03*
X034655Y022422D03*
X034680Y023422D03*
X032550Y022472D03*
X032260Y022957D03*
X032045Y023637D03*
X031615Y023557D03*
X031635Y024152D03*
X031165Y024062D03*
X030725Y024122D03*
X029580Y024097D03*
X029180Y024097D03*
X030100Y023267D03*
X027640Y022817D03*
X027640Y022417D03*
X027080Y023187D03*
X027255Y023622D03*
X025730Y023282D03*
X025545Y023652D03*
X025215Y023882D03*
X025115Y024297D03*
X025555Y024197D03*
X025570Y025657D03*
X024590Y026047D03*
X024315Y026357D03*
X023750Y025407D03*
X022750Y025407D03*
X021750Y025407D03*
X020750Y025407D03*
X020750Y024407D03*
X019750Y024407D03*
X019800Y023657D03*
X019300Y023657D03*
X018900Y023657D03*
X018500Y023657D03*
X018100Y023657D03*
X018100Y023207D03*
X018100Y022757D03*
X018100Y022307D03*
X018100Y021857D03*
X018100Y021407D03*
X018100Y020957D03*
X018100Y020507D03*
X018100Y020057D03*
X018500Y020057D03*
X018500Y019607D03*
X018900Y019607D03*
X019300Y019607D03*
X019700Y019607D03*
X020065Y020167D03*
X019055Y020867D03*
X018670Y021612D03*
X019050Y022377D03*
X019535Y021722D03*
X020280Y021732D03*
X020855Y022272D03*
X020530Y022807D03*
X019900Y023082D03*
X021750Y023407D03*
X022970Y023547D03*
X023485Y024192D03*
X025615Y022662D03*
X026750Y025407D03*
X027750Y026407D03*
X028870Y026532D03*
X028745Y027102D03*
X029130Y027232D03*
X030105Y026962D03*
X030150Y026517D03*
X030655Y026502D03*
X031315Y026492D03*
X030935Y027322D03*
X030940Y027782D03*
X031700Y027752D03*
X030455Y028527D03*
X030125Y028157D03*
X029740Y028682D03*
X029310Y028287D03*
X029140Y028972D03*
X029445Y029272D03*
X028830Y029712D03*
X028435Y029577D03*
X028040Y029662D03*
X028080Y029247D03*
X027845Y028167D03*
X028275Y028042D03*
X027250Y027407D03*
X026180Y027432D03*
X025760Y027777D03*
X025820Y026892D03*
X025700Y026372D03*
X024215Y028067D03*
X023245Y028122D03*
X022760Y028032D03*
X022115Y027997D03*
X022925Y028662D03*
X022310Y029127D03*
X023385Y029672D03*
X023510Y029252D03*
X022920Y029787D03*
X021750Y030407D03*
X021485Y029907D03*
X020990Y029902D03*
X020390Y029892D03*
X020570Y030522D03*
X020005Y030497D03*
X018750Y031407D03*
X018250Y031907D03*
X018165Y033682D03*
X018170Y034162D03*
X018655Y034562D03*
X018660Y034967D03*
X018250Y035907D03*
X019100Y036107D03*
X019750Y036407D03*
X020750Y036407D03*
X022750Y036407D03*
X022765Y035737D03*
X022700Y035202D03*
X022840Y034552D03*
X022835Y034127D03*
X022720Y033607D03*
X023510Y033452D03*
X023575Y033892D03*
X024530Y033997D03*
X025530Y033972D03*
X026505Y033972D03*
X027250Y033907D03*
X028325Y033827D03*
X028965Y033387D03*
X029300Y033792D03*
X029655Y033572D03*
X029655Y034022D03*
X029655Y034422D03*
X030430Y034137D03*
X030380Y033147D03*
X030855Y032997D03*
X031605Y033097D03*
X032125Y033602D03*
X032730Y034047D03*
X032530Y034597D03*
X032905Y034772D03*
X032775Y035237D03*
X033255Y035172D03*
X032805Y035822D03*
X032355Y035822D03*
X031905Y035822D03*
X031455Y035822D03*
X031005Y035822D03*
X030555Y035822D03*
X030105Y035822D03*
X029655Y035822D03*
X029655Y035372D03*
X030105Y035347D03*
X029750Y036407D03*
X031250Y036407D03*
X032750Y036407D03*
X033155Y036172D03*
X033605Y036172D03*
X034055Y036172D03*
X034505Y036172D03*
X034955Y036172D03*
X035355Y036172D03*
X034505Y035722D03*
X034980Y034922D03*
X035380Y035122D03*
X035730Y034847D03*
X036130Y034822D03*
X036530Y034822D03*
X036930Y034822D03*
X037330Y034822D03*
X037330Y034422D03*
X037330Y034022D03*
X037330Y033622D03*
X037330Y033222D03*
X037330Y032822D03*
X037330Y032422D03*
X037330Y032022D03*
X037330Y031622D03*
X037330Y031222D03*
X037330Y030822D03*
X037330Y030422D03*
X037330Y030022D03*
X036745Y030387D03*
X036345Y030387D03*
X036560Y030937D03*
X035440Y031237D03*
X034985Y031827D03*
X035840Y031902D03*
X036555Y031622D03*
X036605Y032522D03*
X035450Y032507D03*
X034455Y032897D03*
X033255Y032672D03*
X032005Y031822D03*
X032205Y031447D03*
X032405Y031097D03*
X032355Y030372D03*
X032805Y030372D03*
X033255Y030372D03*
X033705Y030422D03*
X034155Y030422D03*
X034005Y031022D03*
X033905Y031497D03*
X033355Y031122D03*
X034855Y030522D03*
X034930Y029997D03*
X035330Y029997D03*
X035730Y029997D03*
X036555Y029487D03*
X036845Y029032D03*
X036845Y028577D03*
X037285Y027682D03*
X037295Y027252D03*
X037250Y025907D03*
X037250Y024907D03*
X034880Y025792D03*
X033980Y026322D03*
X033540Y026637D03*
X034150Y027752D03*
X034130Y028242D03*
X033950Y028607D03*
X034275Y028957D03*
X034615Y028707D03*
X035685Y028462D03*
X033025Y028672D03*
X032000Y029477D03*
X031275Y028962D03*
X030915Y029667D03*
X031005Y030372D03*
X031455Y030372D03*
X031905Y030372D03*
X030555Y030372D03*
X030105Y030372D03*
X029655Y030372D03*
X029655Y030822D03*
X029655Y031272D03*
X029655Y031722D03*
X030480Y032322D03*
X031090Y032362D03*
X029655Y033122D03*
X028245Y031767D03*
X027750Y031407D03*
X027390Y031767D03*
X026250Y031657D03*
X026250Y030907D03*
X025480Y030652D03*
X024890Y030997D03*
X025720Y029817D03*
X026175Y029807D03*
X027045Y030437D03*
X028670Y030977D03*
X029070Y031017D03*
X025110Y032597D03*
X024685Y032617D03*
X024280Y032557D03*
X023790Y032622D03*
X023075Y032267D03*
X022770Y031682D03*
X023285Y031612D03*
X022250Y032407D03*
X022250Y032907D03*
X021725Y033017D03*
X021420Y032082D03*
X022360Y031012D03*
X025115Y029372D03*
X020835Y028892D03*
X018750Y029407D03*
X018250Y029907D03*
X020835Y027917D03*
X020810Y026917D03*
X018750Y025407D03*
X018250Y024907D03*
X018250Y024407D03*
X018100Y019607D03*
X023750Y017907D03*
X027750Y017907D03*
X029140Y018172D03*
X029540Y017772D03*
X029940Y018172D03*
X030340Y017772D03*
X030740Y018172D03*
X031140Y018572D03*
X031540Y018172D03*
X031140Y017772D03*
X031540Y017372D03*
X030740Y017372D03*
X029940Y017372D03*
X029140Y017372D03*
X032365Y017272D03*
X032765Y017272D03*
X033165Y017272D03*
X033605Y017272D03*
X034005Y017272D03*
X034405Y017272D03*
X034805Y017272D03*
X035205Y017272D03*
X035605Y017272D03*
X036005Y017272D03*
X036405Y017272D03*
X036805Y017272D03*
X037205Y017272D03*
X033905Y018172D03*
X032165Y019722D03*
X030965Y020072D03*
X030165Y020622D03*
X032090Y020692D03*
X028390Y019672D03*
X031185Y025212D03*
X031820Y025412D03*
X033165Y025642D03*
X030130Y025687D03*
X029105Y025672D03*
X035605Y033672D03*
X034855Y033847D03*
X034605Y034322D03*
X034305Y033947D03*
X033455Y033897D03*
X036355Y034372D03*
X028250Y034907D03*
X027250Y035407D03*
X028250Y036407D03*
X019935Y034032D03*
D50*
X027055Y028595D02*
X027059Y028591D01*
X030196Y030905D02*
X030455Y030647D01*
X032705Y030647D01*
X033105Y031047D01*
X033105Y031247D01*
X033156Y031298D01*
X033156Y031791D01*
X032959Y031791D02*
X032959Y031151D01*
X032605Y030797D01*
X031305Y030797D01*
X031155Y030947D01*
X031155Y031757D01*
X031141Y031743D01*
X031141Y031731D01*
X031155Y031757D02*
X031155Y031817D01*
X031141Y031831D01*
X030668Y031831D02*
X030668Y031731D01*
X030668Y031831D02*
X030655Y031844D01*
X030196Y031831D02*
X030196Y031731D01*
X030196Y030905D01*
X032205Y031447D02*
X032455Y031447D01*
X032566Y031558D01*
X032566Y031791D01*
X032755Y031783D02*
X032755Y031347D01*
X032505Y031097D01*
X032405Y031097D01*
X032755Y031783D02*
X032762Y031791D01*
X032341Y032197D02*
X032349Y032205D01*
X032341Y032197D02*
X031555Y032197D01*
X031550Y032401D02*
X032349Y032401D01*
X032349Y032598D02*
X032306Y032598D01*
X032305Y032597D01*
X031555Y032597D01*
X031405Y032747D01*
X030155Y032747D01*
X029995Y032587D01*
X029595Y032587D01*
X029855Y032247D02*
X030205Y032597D01*
X030655Y032597D01*
X030755Y032497D01*
X030855Y032997D02*
X030668Y033183D01*
X030668Y033663D01*
X030196Y033663D02*
X030155Y033621D01*
X030155Y033604D01*
X030196Y033563D01*
X030155Y033621D02*
X030155Y033897D01*
X029935Y034052D02*
X030495Y034612D01*
X031145Y034612D01*
X031145Y034212D02*
X031145Y033567D01*
X031141Y033563D01*
X031141Y033663D01*
X031613Y033663D02*
X031613Y033105D01*
X031605Y033097D01*
X032106Y032795D02*
X032349Y032795D01*
X032349Y032992D02*
X032344Y032997D01*
X032566Y033602D02*
X032355Y033813D01*
X032355Y034422D01*
X032530Y034597D01*
X032730Y034047D02*
X032762Y034014D01*
X032762Y033602D01*
X033353Y033602D02*
X033355Y033604D01*
X033355Y033797D01*
X033455Y033897D01*
X033555Y033797D01*
X033555Y033607D01*
X033550Y033602D01*
X033943Y033602D02*
X034288Y033947D01*
X034305Y033947D01*
X034555Y033747D02*
X034655Y033847D01*
X034855Y033847D01*
X034855Y033987D01*
X035083Y034215D01*
X035366Y034498D02*
X035953Y034498D01*
X036080Y034372D01*
X036355Y034372D01*
X036070Y034087D01*
X036070Y033847D01*
X035655Y033722D02*
X035605Y033672D01*
X035655Y033722D02*
X035655Y034187D01*
X035661Y034193D01*
X035378Y033910D02*
X035368Y033910D01*
X035055Y033597D01*
X034780Y033597D01*
X034355Y033172D01*
X034177Y033172D01*
X034160Y033189D01*
X034160Y033386D02*
X034343Y033386D01*
X034555Y033597D01*
X034555Y033747D01*
X035046Y033277D02*
X035002Y033232D01*
X035002Y032620D01*
X034977Y032595D01*
X034357Y032595D01*
X034354Y032598D01*
X034160Y032598D01*
X034160Y032401D02*
X034165Y032397D01*
X034415Y032397D01*
X034715Y032097D01*
X035130Y032097D01*
X035907Y031319D01*
X035907Y031163D01*
X035907Y030701D01*
X035703Y030497D01*
X034605Y030247D02*
X034605Y031947D01*
X034347Y032205D01*
X034160Y032205D01*
X034160Y032008D02*
X034343Y032008D01*
X034455Y031897D01*
X034455Y030247D01*
X034005Y031022D02*
X033830Y031022D01*
X033555Y031297D01*
X033555Y031786D01*
X033550Y031791D01*
X033355Y031791D02*
X033353Y031791D01*
X033355Y031790D01*
X033355Y031122D01*
X033747Y031655D02*
X033905Y031497D01*
X033747Y031655D02*
X033747Y031791D01*
X034160Y032795D02*
X034353Y032795D01*
X034455Y032897D01*
X034359Y032992D01*
X034160Y032992D01*
X034980Y032597D02*
X035002Y032619D01*
X035002Y032620D01*
X030380Y033147D02*
X030075Y033147D01*
X029935Y033287D01*
X029935Y034052D01*
X030455Y035247D02*
X030730Y035247D01*
X030455Y035247D02*
X030355Y035347D01*
X030105Y035347D01*
X019021Y023082D02*
X018597Y022657D01*
X018597Y022360D01*
X018597Y022209D01*
X019375Y021432D01*
X019631Y021032D02*
X019502Y020903D01*
X019502Y020679D01*
X019525Y020657D01*
X019525Y020228D01*
X019478Y020182D01*
X020349Y019741D02*
X020349Y019197D01*
X020405Y019141D01*
X020405Y018675D01*
X019855Y018675D01*
X020860Y019197D02*
X020860Y019685D01*
X020849Y019697D01*
X021008Y019856D01*
X021008Y020188D01*
X021205Y020188D02*
X021205Y019853D01*
X021360Y019697D01*
X021355Y019691D01*
X021355Y019203D01*
X021355Y018691D02*
X021355Y018225D01*
X021930Y019172D02*
X021930Y019568D01*
X021926Y019572D01*
X021598Y019900D01*
X021598Y020188D01*
X021913Y020503D02*
X022048Y020503D01*
X022130Y020422D01*
X022130Y020122D01*
X022280Y019972D01*
X022780Y019972D01*
X022930Y019822D01*
X022730Y020775D02*
X022851Y020897D01*
X023130Y020897D01*
X023489Y020897D01*
X023530Y020856D01*
X022730Y020775D02*
X022608Y020897D01*
X021913Y020897D01*
X021913Y021094D02*
X022480Y021094D01*
X022730Y021343D01*
X020496Y021094D02*
X020493Y021097D01*
X020811Y020188D02*
X020805Y020182D01*
X020805Y020047D01*
X020755Y019997D01*
X020605Y019997D01*
X020349Y019741D01*
X030165Y020622D02*
X030515Y020622D01*
X030915Y020622D02*
X031415Y020622D01*
X031715Y020622D01*
X031771Y020565D01*
X031771Y020302D01*
X031968Y020302D02*
X031968Y019919D01*
X032165Y019722D01*
X032263Y019623D01*
X032755Y019623D01*
X033015Y019687D02*
X033315Y019387D01*
X033015Y019687D02*
X033015Y020172D01*
X032884Y020302D01*
X032558Y020302D01*
X032565Y020309D01*
X032565Y020547D01*
X032640Y020622D01*
X033165Y020622D01*
X033240Y020697D01*
X033240Y020997D01*
X033265Y021022D01*
X032865Y021022D02*
X032365Y021022D01*
X032365Y020306D01*
X032361Y020302D01*
X032165Y019722D02*
X032361Y019525D01*
X032361Y019141D01*
X031771Y019141D02*
X031217Y019141D01*
D51*
X031192Y019141D01*
X031190Y019143D01*
X030865Y019120D02*
X028465Y019120D01*
X028465Y019178D02*
X030865Y019178D01*
X030865Y019237D02*
X028465Y019237D01*
X028465Y019295D02*
X030865Y019295D01*
X030865Y019297D02*
X028465Y019297D01*
X028465Y018322D01*
X030865Y018322D01*
X030865Y019297D01*
X030865Y019061D02*
X030643Y019061D01*
X030659Y019054D02*
X030626Y019068D01*
X030245Y019068D01*
X030245Y018772D01*
X030698Y018772D01*
X030698Y018996D01*
X030685Y019029D01*
X030659Y019054D01*
X030695Y019003D02*
X030865Y019003D01*
X030865Y018944D02*
X030698Y018944D01*
X030698Y018886D02*
X030865Y018886D01*
X030840Y018886D02*
X030901Y018886D01*
X030865Y018827D02*
X030698Y018827D01*
X030698Y018712D02*
X030245Y018712D01*
X030245Y018772D01*
X030185Y018772D01*
X030185Y019068D01*
X029803Y019068D01*
X029770Y019054D01*
X029745Y019029D01*
X029731Y018996D01*
X029731Y018772D01*
X030185Y018772D01*
X030185Y018712D01*
X030245Y018712D01*
X030245Y018416D01*
X030626Y018416D01*
X030659Y018429D01*
X030685Y018455D01*
X030698Y018488D01*
X030698Y018712D01*
X030698Y018710D02*
X030865Y018710D01*
X030840Y018710D02*
X031995Y018710D01*
X031995Y018652D02*
X030840Y018652D01*
X030865Y018652D02*
X030698Y018652D01*
X030698Y018593D02*
X030865Y018593D01*
X030840Y018593D02*
X031995Y018593D01*
X031995Y018535D02*
X030840Y018535D01*
X030865Y018535D02*
X030698Y018535D01*
X030693Y018476D02*
X030865Y018476D01*
X030840Y018476D02*
X031995Y018476D01*
X031995Y018418D02*
X030840Y018418D01*
X030865Y018418D02*
X030631Y018418D01*
X030840Y018359D02*
X031995Y018359D01*
X031995Y018301D02*
X028465Y018301D01*
X028465Y018322D02*
X030840Y018322D01*
X030840Y018947D01*
X030965Y018822D01*
X031815Y018822D01*
X031915Y018922D01*
X031915Y018932D01*
X031919Y018936D01*
X031919Y019276D01*
X031940Y019297D01*
X031990Y019297D01*
X031995Y019292D01*
X031995Y017472D01*
X032015Y017452D01*
X032015Y017127D01*
X028465Y017127D01*
X028465Y018322D01*
X028465Y018359D02*
X030865Y018359D01*
X030865Y018769D02*
X030245Y018769D01*
X030245Y018827D02*
X030185Y018827D01*
X030185Y018769D02*
X029145Y018769D01*
X029145Y018772D02*
X029598Y018772D01*
X029598Y018996D01*
X029585Y019029D01*
X029559Y019054D01*
X029526Y019068D01*
X029145Y019068D01*
X029145Y018772D01*
X029145Y018712D01*
X029598Y018712D01*
X029598Y018488D01*
X029585Y018455D01*
X029559Y018429D01*
X029526Y018416D01*
X029145Y018416D01*
X029145Y018712D01*
X029085Y018712D01*
X029085Y018416D01*
X028703Y018416D01*
X028670Y018429D01*
X028645Y018455D01*
X028631Y018488D01*
X028631Y018712D01*
X029085Y018712D01*
X029085Y018772D01*
X029085Y019068D01*
X028703Y019068D01*
X028670Y019054D01*
X028645Y019029D01*
X028631Y018996D01*
X028631Y018772D01*
X029085Y018772D01*
X029145Y018772D01*
X029145Y018827D02*
X029085Y018827D01*
X029085Y018769D02*
X028465Y018769D01*
X028465Y018827D02*
X028631Y018827D01*
X028631Y018886D02*
X028465Y018886D01*
X028465Y018944D02*
X028631Y018944D01*
X028634Y019003D02*
X028465Y019003D01*
X028465Y019061D02*
X028687Y019061D01*
X028631Y018710D02*
X028465Y018710D01*
X028465Y018652D02*
X028631Y018652D01*
X028631Y018593D02*
X028465Y018593D01*
X028465Y018535D02*
X028631Y018535D01*
X028636Y018476D02*
X028465Y018476D01*
X028465Y018418D02*
X028698Y018418D01*
X028465Y018242D02*
X031995Y018242D01*
X031995Y018184D02*
X028465Y018184D01*
X028465Y018125D02*
X031995Y018125D01*
X031995Y018067D02*
X028465Y018067D01*
X028465Y018008D02*
X031995Y018008D01*
X031995Y017950D02*
X028465Y017950D01*
X028465Y017891D02*
X031995Y017891D01*
X031995Y017833D02*
X028465Y017833D01*
X028465Y017774D02*
X031995Y017774D01*
X031995Y017716D02*
X028465Y017716D01*
X028465Y017657D02*
X031995Y017657D01*
X031995Y017599D02*
X028465Y017599D01*
X028465Y017540D02*
X031995Y017540D01*
X031995Y017482D02*
X028465Y017482D01*
X028465Y017423D02*
X032015Y017423D01*
X032015Y017365D02*
X028465Y017365D01*
X028465Y017306D02*
X032015Y017306D01*
X032015Y017248D02*
X028465Y017248D01*
X028465Y017189D02*
X032015Y017189D01*
X032015Y017131D02*
X028465Y017131D01*
X029085Y018418D02*
X029145Y018418D01*
X029145Y018476D02*
X029085Y018476D01*
X029085Y018535D02*
X029145Y018535D01*
X029145Y018593D02*
X029085Y018593D01*
X029085Y018652D02*
X029145Y018652D01*
X029145Y018710D02*
X029085Y018710D01*
X029085Y018886D02*
X029145Y018886D01*
X029145Y018944D02*
X029085Y018944D01*
X029085Y019003D02*
X029145Y019003D01*
X029145Y019061D02*
X029085Y019061D01*
X029543Y019061D02*
X029787Y019061D01*
X029734Y019003D02*
X029595Y019003D01*
X029598Y018944D02*
X029731Y018944D01*
X029731Y018886D02*
X029598Y018886D01*
X029598Y018827D02*
X029731Y018827D01*
X029731Y018712D02*
X029731Y018488D01*
X029745Y018455D01*
X029770Y018429D01*
X029803Y018416D01*
X030185Y018416D01*
X030185Y018712D01*
X029731Y018712D01*
X029731Y018710D02*
X029598Y018710D01*
X029598Y018652D02*
X029731Y018652D01*
X029731Y018593D02*
X029598Y018593D01*
X029598Y018535D02*
X029731Y018535D01*
X029736Y018476D02*
X029593Y018476D01*
X029531Y018418D02*
X029798Y018418D01*
X030185Y018418D02*
X030245Y018418D01*
X030245Y018476D02*
X030185Y018476D01*
X030185Y018535D02*
X030245Y018535D01*
X030245Y018593D02*
X030185Y018593D01*
X030185Y018652D02*
X030245Y018652D01*
X030245Y018710D02*
X030185Y018710D01*
X030185Y018886D02*
X030245Y018886D01*
X030245Y018944D02*
X030185Y018944D01*
X030185Y019003D02*
X030245Y019003D01*
X030245Y019061D02*
X030185Y019061D01*
X030840Y018944D02*
X030842Y018944D01*
X030840Y018827D02*
X030959Y018827D01*
X030840Y018769D02*
X031995Y018769D01*
X031995Y018827D02*
X031820Y018827D01*
X031879Y018886D02*
X031995Y018886D01*
X031995Y018944D02*
X031919Y018944D01*
X031919Y019003D02*
X031995Y019003D01*
X031995Y019061D02*
X031919Y019061D01*
X031919Y019120D02*
X031995Y019120D01*
X031995Y019178D02*
X031919Y019178D01*
X031919Y019237D02*
X031995Y019237D01*
X031991Y019295D02*
X031938Y019295D01*
X032116Y019295D02*
X032190Y019295D01*
X032190Y019297D02*
X032190Y018872D01*
X032265Y018797D01*
X032515Y018797D01*
X032515Y017522D01*
X032115Y017522D01*
X032115Y018935D01*
X032116Y018936D01*
X032116Y019297D01*
X032190Y019297D01*
X032190Y019237D02*
X032116Y019237D01*
X032116Y019178D02*
X032190Y019178D01*
X032190Y019120D02*
X032116Y019120D01*
X032116Y019061D02*
X032190Y019061D01*
X032190Y019003D02*
X032116Y019003D01*
X032116Y018944D02*
X032190Y018944D01*
X032190Y018886D02*
X032115Y018886D01*
X032115Y018827D02*
X032234Y018827D01*
X032115Y018769D02*
X032515Y018769D01*
X032515Y018710D02*
X032115Y018710D01*
X032115Y018652D02*
X032515Y018652D01*
X032515Y018593D02*
X032115Y018593D01*
X032115Y018535D02*
X032515Y018535D01*
X032515Y018476D02*
X032115Y018476D01*
X032115Y018418D02*
X032515Y018418D01*
X032515Y018359D02*
X032115Y018359D01*
X032115Y018301D02*
X032515Y018301D01*
X032515Y018242D02*
X032115Y018242D01*
X032115Y018184D02*
X032515Y018184D01*
X032515Y018125D02*
X032115Y018125D01*
X032115Y018067D02*
X032515Y018067D01*
X032515Y018008D02*
X032115Y018008D01*
X032115Y017950D02*
X032515Y017950D01*
X032515Y017891D02*
X032115Y017891D01*
X032115Y017833D02*
X032515Y017833D01*
X032515Y017774D02*
X032115Y017774D01*
X032115Y017716D02*
X032515Y017716D01*
X032515Y017657D02*
X032115Y017657D01*
X032115Y017599D02*
X032515Y017599D01*
X032515Y017540D02*
X032115Y017540D01*
X032965Y017572D02*
X032965Y018772D01*
X032790Y018947D01*
X032703Y018947D01*
X032707Y018956D01*
X032707Y019141D01*
X032707Y019322D01*
X032765Y019322D01*
X032921Y019478D01*
X032930Y019478D01*
X032983Y019531D01*
X032983Y019540D01*
X033028Y019585D01*
X033028Y019417D01*
X033285Y019417D01*
X033285Y019357D01*
X033305Y019357D01*
X033305Y019097D01*
X033480Y018897D01*
X036130Y018897D01*
X036493Y018534D01*
X036306Y018534D01*
X036306Y018336D01*
X036246Y018336D01*
X036246Y018534D01*
X035962Y018534D01*
X035929Y018520D01*
X035904Y018495D01*
X035890Y018462D01*
X035890Y018336D01*
X036246Y018336D01*
X036246Y018276D01*
X036306Y018276D01*
X036306Y018078D01*
X036325Y018078D01*
X035705Y017522D01*
X033015Y017522D01*
X032965Y017572D01*
X032965Y017599D02*
X035790Y017599D01*
X035725Y017540D02*
X032996Y017540D01*
X032965Y017657D02*
X035856Y017657D01*
X035921Y017716D02*
X032965Y017716D01*
X032965Y017774D02*
X035986Y017774D01*
X036051Y017833D02*
X032965Y017833D01*
X032965Y017891D02*
X036117Y017891D01*
X036182Y017950D02*
X032965Y017950D01*
X032965Y018008D02*
X036247Y018008D01*
X036246Y018078D02*
X036246Y018276D01*
X035890Y018276D01*
X035890Y018150D01*
X035904Y018117D01*
X035929Y018092D01*
X035962Y018078D01*
X036246Y018078D01*
X036246Y018125D02*
X036306Y018125D01*
X036312Y018067D02*
X032965Y018067D01*
X032965Y018125D02*
X035901Y018125D01*
X035890Y018184D02*
X032965Y018184D01*
X032965Y018242D02*
X035890Y018242D01*
X035890Y018359D02*
X032965Y018359D01*
X032965Y018301D02*
X036246Y018301D01*
X036246Y018359D02*
X036306Y018359D01*
X036306Y018418D02*
X036246Y018418D01*
X036246Y018476D02*
X036306Y018476D01*
X036433Y018593D02*
X032965Y018593D01*
X032965Y018535D02*
X036492Y018535D01*
X036375Y018652D02*
X032965Y018652D01*
X032965Y018710D02*
X036316Y018710D01*
X036258Y018769D02*
X032965Y018769D01*
X032909Y018827D02*
X036199Y018827D01*
X036141Y018886D02*
X032851Y018886D01*
X032792Y018944D02*
X033438Y018944D01*
X033387Y019003D02*
X032707Y019003D01*
X032707Y019061D02*
X033336Y019061D01*
X033285Y019080D02*
X033285Y019357D01*
X033028Y019357D01*
X033028Y019153D01*
X033041Y019120D01*
X032707Y019120D01*
X032707Y019141D02*
X032558Y019141D01*
X032707Y019141D01*
X032707Y019178D02*
X033028Y019178D01*
X033028Y019237D02*
X032707Y019237D01*
X032707Y019295D02*
X033028Y019295D01*
X033028Y019354D02*
X032797Y019354D01*
X032855Y019412D02*
X033285Y019412D01*
X033285Y019354D02*
X033305Y019354D01*
X033305Y019295D02*
X033285Y019295D01*
X033285Y019237D02*
X033305Y019237D01*
X033305Y019178D02*
X033285Y019178D01*
X033285Y019120D02*
X033305Y019120D01*
X033285Y019080D02*
X033100Y019080D01*
X033067Y019094D01*
X033041Y019120D01*
X033028Y019471D02*
X032914Y019471D01*
X032981Y019529D02*
X033028Y019529D01*
X032558Y019141D02*
X032558Y019141D01*
X032965Y018476D02*
X035896Y018476D01*
X035890Y018418D02*
X032965Y018418D01*
X033905Y018172D02*
X033925Y018192D01*
X035073Y019354D02*
X035890Y019354D01*
X035890Y019331D02*
X035894Y019322D01*
X035105Y019322D01*
X034755Y019672D01*
X034755Y019856D01*
X034765Y019880D01*
X034765Y020063D01*
X034755Y020087D01*
X034755Y020422D01*
X034980Y020647D01*
X035755Y020647D01*
X035880Y020522D01*
X035880Y019922D01*
X035890Y019911D01*
X035890Y019902D01*
X035943Y019850D01*
X035951Y019850D01*
X035955Y019847D01*
X036405Y019847D01*
X036536Y019715D01*
X036306Y019715D01*
X036306Y019517D01*
X036246Y019517D01*
X036246Y019715D01*
X035962Y019715D01*
X035929Y019701D01*
X035904Y019676D01*
X035890Y019643D01*
X035890Y019517D01*
X036246Y019517D01*
X036246Y019457D01*
X035890Y019457D01*
X035890Y019331D01*
X035890Y019412D02*
X035014Y019412D01*
X034956Y019471D02*
X036246Y019471D01*
X036246Y019529D02*
X036306Y019529D01*
X036306Y019588D02*
X036246Y019588D01*
X036246Y019646D02*
X036306Y019646D01*
X036306Y019705D02*
X036246Y019705D01*
X036430Y019822D02*
X035739Y019822D01*
X035731Y019795D02*
X035753Y019864D01*
X035765Y019935D01*
X035765Y019942D01*
X035335Y019942D01*
X035335Y020002D01*
X035765Y020002D01*
X035765Y020008D01*
X035753Y020079D01*
X035731Y020148D01*
X035698Y020213D01*
X035655Y020271D01*
X035604Y020323D01*
X035546Y020365D01*
X035481Y020398D01*
X035412Y020420D01*
X035341Y020432D01*
X035335Y020432D01*
X035335Y020002D01*
X035275Y020002D01*
X035275Y020432D01*
X035268Y020432D01*
X035197Y020420D01*
X035128Y020398D01*
X035063Y020365D01*
X035005Y020323D01*
X034954Y020271D01*
X034911Y020213D01*
X034878Y020148D01*
X034856Y020079D01*
X034845Y020008D01*
X034845Y020002D01*
X035275Y020002D01*
X035275Y019942D01*
X035335Y019942D01*
X035335Y019512D01*
X035341Y019512D01*
X035412Y019523D01*
X035481Y019545D01*
X035546Y019578D01*
X035604Y019621D01*
X035655Y019672D01*
X035698Y019731D01*
X035731Y019795D01*
X035715Y019763D02*
X036488Y019763D01*
X035938Y019705D02*
X035679Y019705D01*
X035630Y019646D02*
X035892Y019646D01*
X035890Y019588D02*
X035559Y019588D01*
X035431Y019529D02*
X035890Y019529D01*
X035913Y019880D02*
X035756Y019880D01*
X035765Y019939D02*
X035880Y019939D01*
X035880Y019997D02*
X035335Y019997D01*
X035335Y019939D02*
X035275Y019939D01*
X035275Y019942D02*
X035275Y019512D01*
X035268Y019512D01*
X035197Y019523D01*
X035128Y019545D01*
X035063Y019578D01*
X035005Y019621D01*
X034954Y019672D01*
X034911Y019731D01*
X034878Y019795D01*
X034856Y019864D01*
X034845Y019935D01*
X034845Y019942D01*
X035275Y019942D01*
X035275Y019997D02*
X034765Y019997D01*
X034765Y019939D02*
X034845Y019939D01*
X034853Y019880D02*
X034765Y019880D01*
X034755Y019822D02*
X034870Y019822D01*
X034894Y019763D02*
X034755Y019763D01*
X034755Y019705D02*
X034930Y019705D01*
X034979Y019646D02*
X034780Y019646D01*
X034839Y019588D02*
X035050Y019588D01*
X035178Y019529D02*
X034897Y019529D01*
X035275Y019529D02*
X035335Y019529D01*
X035335Y019588D02*
X035275Y019588D01*
X035275Y019646D02*
X035335Y019646D01*
X035335Y019705D02*
X035275Y019705D01*
X035275Y019763D02*
X035335Y019763D01*
X035335Y019822D02*
X035275Y019822D01*
X035275Y019880D02*
X035335Y019880D01*
X035335Y020056D02*
X035275Y020056D01*
X035275Y020114D02*
X035335Y020114D01*
X035335Y020173D02*
X035275Y020173D01*
X035275Y020231D02*
X035335Y020231D01*
X035335Y020290D02*
X035275Y020290D01*
X035275Y020348D02*
X035335Y020348D01*
X035335Y020407D02*
X035275Y020407D01*
X035155Y020407D02*
X034755Y020407D01*
X034755Y020348D02*
X035040Y020348D01*
X034972Y020290D02*
X034755Y020290D01*
X034755Y020231D02*
X034924Y020231D01*
X034891Y020173D02*
X034755Y020173D01*
X034755Y020114D02*
X034867Y020114D01*
X034852Y020056D02*
X034765Y020056D01*
X034798Y020465D02*
X035880Y020465D01*
X035880Y020407D02*
X035454Y020407D01*
X035569Y020348D02*
X035880Y020348D01*
X035880Y020290D02*
X035637Y020290D01*
X035685Y020231D02*
X035880Y020231D01*
X035880Y020173D02*
X035718Y020173D01*
X035742Y020114D02*
X035880Y020114D01*
X035880Y020056D02*
X035757Y020056D01*
X035877Y020524D02*
X034857Y020524D01*
X034915Y020582D02*
X035819Y020582D01*
X035760Y020641D02*
X034974Y020641D01*
X034655Y021447D02*
X034555Y021447D01*
X034305Y021697D01*
X034273Y021697D01*
X034272Y021697D01*
X034272Y022150D02*
X034201Y022150D01*
X033940Y022412D01*
X033380Y022412D01*
X033045Y022747D01*
X033045Y024367D01*
X033490Y024812D01*
X034145Y024812D01*
X034565Y025232D01*
X035450Y025232D01*
X035560Y025342D01*
X035560Y026857D01*
X035560Y027257D02*
X035560Y027751D01*
X035576Y027768D01*
X035770Y027765D02*
X035770Y026437D01*
X035770Y026037D02*
X035770Y025222D01*
X035660Y025112D01*
X034615Y025112D01*
X034195Y024692D01*
X033540Y024692D01*
X033165Y024317D01*
X033165Y023182D01*
X033653Y022693D01*
X033737Y022693D01*
X033716Y023150D02*
X033737Y023150D01*
X033716Y023150D02*
X033285Y023582D01*
X033285Y024267D01*
X033590Y024572D01*
X034245Y024572D01*
X034665Y024992D01*
X035885Y024992D01*
X035980Y025087D01*
X035980Y026857D01*
X035980Y027257D02*
X035980Y027758D01*
X035970Y027768D01*
X036167Y027768D02*
X036190Y027745D01*
X036190Y026437D01*
X036190Y026037D02*
X036190Y025007D01*
X036055Y024872D01*
X034715Y024872D01*
X034295Y024452D01*
X033640Y024452D01*
X033405Y024217D01*
X033405Y023632D01*
X033650Y023387D01*
X033975Y023387D01*
X034211Y023150D01*
X034272Y023150D01*
X034580Y023422D02*
X034680Y023422D01*
X034580Y023422D02*
X034305Y023697D01*
X034273Y023697D01*
X034272Y023697D01*
X033985Y023877D02*
X033985Y024257D01*
X034060Y024332D01*
X034345Y024332D01*
X034765Y024752D01*
X036310Y024752D01*
X036400Y024842D01*
X036400Y026857D01*
X036400Y027257D02*
X036383Y027273D01*
X036383Y027985D01*
X036383Y028181D02*
X036383Y028182D01*
X036540Y028182D01*
X036610Y028112D01*
X036610Y026437D01*
X036610Y026037D02*
X036610Y024802D01*
X036440Y024632D01*
X034815Y024632D01*
X034725Y024542D01*
X034725Y024382D01*
X034493Y024150D01*
X034272Y024150D01*
X033985Y023877D02*
X033801Y023693D01*
X033737Y023693D01*
X032565Y023392D02*
X032400Y023227D01*
X031879Y023227D01*
X031114Y022462D01*
X030831Y022179D02*
X030174Y021522D01*
X029735Y021522D01*
X029320Y021107D01*
X026420Y021107D01*
X026295Y020982D01*
X026295Y020677D01*
X026003Y020385D01*
X026003Y020334D01*
X026275Y020027D02*
X026550Y020302D01*
X026550Y020333D01*
X026550Y020334D01*
X026725Y020632D02*
X027130Y020632D01*
X027485Y020987D01*
X029370Y020987D01*
X029785Y021402D01*
X030351Y021402D01*
X031559Y022610D01*
X031842Y022893D02*
X031848Y022893D01*
X032025Y022717D01*
X032480Y022717D01*
X032685Y022922D01*
X032685Y024517D01*
X033340Y025172D01*
X033995Y025172D01*
X034415Y025592D01*
X034460Y025592D01*
X034640Y025772D01*
X034640Y025892D01*
X034760Y026012D01*
X034760Y027172D01*
X034635Y027297D01*
X034085Y027297D01*
X033770Y027612D01*
X033770Y028277D01*
X033595Y028452D01*
X033595Y028982D01*
X034090Y029477D01*
X035420Y029477D01*
X035576Y029320D01*
X035576Y029185D01*
X035379Y029185D02*
X035379Y029287D01*
X035310Y029357D01*
X034140Y029357D01*
X033715Y028932D01*
X033715Y028502D01*
X033890Y028327D01*
X033890Y027662D01*
X034135Y027417D01*
X034685Y027417D01*
X034880Y027222D01*
X034880Y025792D01*
X035140Y025542D02*
X035070Y025472D01*
X034465Y025472D01*
X034045Y025052D01*
X033390Y025052D01*
X032805Y024467D01*
X032805Y022217D01*
X033328Y021693D01*
X033737Y021693D01*
X033737Y022150D02*
X033471Y022150D01*
X032925Y022697D01*
X032925Y024417D01*
X033440Y024932D01*
X034095Y024932D01*
X034515Y025352D01*
X035270Y025352D01*
X035340Y025422D01*
X035340Y026027D01*
X035350Y026037D01*
X035350Y026437D02*
X035350Y027738D01*
X035379Y027768D01*
X035182Y027768D02*
X035140Y027725D01*
X035140Y027257D01*
X035140Y026857D02*
X035140Y025542D01*
X034520Y025822D02*
X034410Y025712D01*
X034365Y025712D01*
X033945Y025292D01*
X033290Y025292D01*
X032565Y024567D01*
X032565Y023392D01*
X032045Y023637D02*
X031598Y023190D01*
X031545Y023190D01*
X031615Y023557D02*
X030817Y022759D01*
X030534Y022476D02*
X029820Y021762D01*
X029635Y021762D01*
X029220Y021347D01*
X026275Y021347D01*
X026035Y021107D01*
X025720Y021107D01*
X025546Y020933D01*
X025546Y020869D01*
X025500Y021227D02*
X025985Y021227D01*
X026225Y021467D01*
X029170Y021467D01*
X029585Y021882D01*
X029643Y021882D01*
X030965Y023204D01*
X031248Y023487D02*
X031248Y023530D01*
X031635Y023917D01*
X031635Y024152D01*
X031270Y023957D02*
X031165Y024062D01*
X031270Y023957D02*
X031270Y023807D01*
X031205Y023742D01*
X031205Y023740D01*
X030520Y023056D01*
X030237Y022773D02*
X029535Y022070D01*
X029535Y022002D01*
X029120Y021587D01*
X026175Y021587D01*
X025935Y021347D01*
X025450Y021347D01*
X025003Y020900D01*
X025003Y020869D01*
X025185Y020912D02*
X025500Y021227D01*
X025400Y021467D02*
X025885Y021467D01*
X026125Y021707D01*
X029065Y021707D01*
X029415Y022057D01*
X029415Y022122D01*
X029980Y022687D01*
X029980Y022812D01*
X030668Y023501D01*
X030951Y023784D02*
X030725Y024010D01*
X030725Y024122D01*
X030160Y023888D02*
X030160Y023661D01*
X030192Y023661D01*
X029815Y023302D01*
X029818Y023154D01*
X029629Y023154D01*
X029629Y022897D01*
X029569Y022897D01*
X029569Y023154D01*
X029365Y023154D01*
X029332Y023140D01*
X029330Y023138D01*
X029330Y023180D01*
X029368Y023180D01*
X029368Y023417D01*
X029428Y023417D01*
X029428Y023477D01*
X029368Y023477D01*
X029368Y023714D01*
X029330Y023714D01*
X029330Y023746D01*
X029259Y023817D01*
X028945Y023817D01*
X028963Y023835D01*
X028977Y023868D01*
X028977Y024103D01*
X028977Y024337D01*
X028963Y024370D01*
X028938Y024395D01*
X028905Y024409D01*
X028831Y024409D01*
X028831Y024103D01*
X028831Y024103D01*
X028831Y024409D01*
X028757Y024409D01*
X028732Y024399D01*
X028708Y024409D01*
X028634Y024409D01*
X028630Y024409D01*
X028630Y024797D01*
X028780Y024947D01*
X029292Y024947D01*
X029292Y024777D01*
X029345Y024724D01*
X029852Y024724D01*
X029880Y024752D01*
X029905Y024752D01*
X030010Y024647D01*
X030010Y024632D01*
X029915Y024632D01*
X029862Y024580D01*
X029862Y024170D01*
X029886Y024147D01*
X029876Y024137D01*
X029862Y024104D01*
X029862Y023948D01*
X030100Y023948D01*
X030100Y023888D01*
X030160Y023888D01*
X030160Y023858D02*
X030100Y023858D01*
X030100Y023888D02*
X030100Y023661D01*
X029934Y023661D01*
X029901Y023675D01*
X029876Y023700D01*
X029862Y023733D01*
X029862Y023888D01*
X030100Y023888D01*
X030100Y023917D02*
X028977Y023917D01*
X028977Y023975D02*
X029862Y023975D01*
X029862Y024034D02*
X028977Y024034D01*
X028977Y024092D02*
X029862Y024092D01*
X029882Y024151D02*
X028977Y024151D01*
X028977Y024103D02*
X028831Y024103D01*
X028831Y024103D01*
X028831Y024103D01*
X028634Y024103D01*
X028634Y024409D01*
X028634Y024103D01*
X028634Y024103D01*
X028634Y024103D01*
X028685Y024103D01*
X028831Y024103D01*
X028977Y024103D01*
X028977Y024209D02*
X029862Y024209D01*
X029862Y024268D02*
X028977Y024268D01*
X028977Y024326D02*
X029862Y024326D01*
X029862Y024385D02*
X028949Y024385D01*
X028831Y024385D02*
X028831Y024385D01*
X028831Y024326D02*
X028831Y024326D01*
X028831Y024268D02*
X028831Y024268D01*
X028831Y024209D02*
X028831Y024209D01*
X028831Y024151D02*
X028831Y024151D01*
X028634Y024151D02*
X028634Y024151D01*
X028634Y024209D02*
X028634Y024209D01*
X028634Y024268D02*
X028634Y024268D01*
X028634Y024326D02*
X028634Y024326D01*
X028634Y024385D02*
X028634Y024385D01*
X028630Y024443D02*
X029862Y024443D01*
X029862Y024502D02*
X028630Y024502D01*
X028630Y024560D02*
X029862Y024560D01*
X029901Y024619D02*
X028630Y024619D01*
X028630Y024677D02*
X029979Y024677D01*
X029921Y024736D02*
X029864Y024736D01*
X029955Y024872D02*
X030130Y024697D01*
X030130Y024375D01*
X029955Y024872D02*
X029600Y024872D01*
X029599Y024870D01*
X029333Y024736D02*
X028630Y024736D01*
X028630Y024794D02*
X029292Y024794D01*
X029292Y024853D02*
X028686Y024853D01*
X028744Y024911D02*
X029292Y024911D01*
X029599Y025264D02*
X030137Y025264D01*
X030520Y024882D01*
X030655Y024882D01*
X030655Y025452D02*
X029608Y025452D01*
X029599Y025461D01*
X029599Y025658D02*
X029585Y025672D01*
X029105Y025672D01*
X029599Y025855D02*
X029606Y025847D01*
X029905Y025847D01*
X030065Y026007D01*
X031135Y026007D01*
X031210Y026082D01*
X031995Y026082D01*
X032220Y026307D01*
X032220Y025807D02*
X032615Y025412D01*
X033440Y025412D01*
X033595Y025567D01*
X033595Y025967D02*
X033950Y026322D01*
X033980Y026322D01*
X034520Y025942D02*
X034520Y025822D01*
X034520Y025942D02*
X034640Y026062D01*
X034640Y027122D01*
X034585Y027177D01*
X034035Y027177D01*
X033650Y027562D01*
X033650Y028227D01*
X033475Y028402D01*
X033475Y029032D01*
X034040Y029597D01*
X035470Y029597D01*
X035773Y029293D01*
X035773Y029185D01*
X035970Y029185D02*
X035970Y029186D01*
X035970Y029185D02*
X035970Y029637D01*
X036265Y029932D01*
X036910Y029932D01*
X037525Y029317D01*
X037525Y027482D01*
X037295Y027252D01*
X037285Y027682D02*
X037285Y029387D01*
X036860Y029812D01*
X036315Y029812D01*
X036167Y029664D01*
X036167Y029185D01*
X036383Y028969D02*
X036555Y029140D01*
X036555Y029487D01*
X036845Y029032D02*
X036585Y028772D01*
X036383Y028772D01*
X036385Y028577D02*
X036383Y028575D01*
X036385Y028577D02*
X036845Y028577D01*
X035773Y027768D02*
X035770Y027765D01*
X034966Y028378D02*
X034966Y028575D01*
X034966Y028378D02*
X034758Y028378D01*
X034585Y028205D01*
X034548Y028242D01*
X034130Y028242D01*
X033950Y028607D02*
X034045Y028702D01*
X034045Y029092D01*
X034160Y029207D01*
X035050Y029207D01*
X035071Y029185D01*
X035182Y029185D01*
X034966Y028969D02*
X034903Y029032D01*
X034350Y029032D01*
X034275Y028957D01*
X034615Y028707D02*
X034655Y028707D01*
X034720Y028772D01*
X034966Y028772D01*
X034395Y030002D02*
X034605Y030212D01*
X034605Y030247D01*
X034455Y030247D02*
X034345Y030137D01*
X029705Y030137D01*
X029600Y030032D01*
X029530Y030032D01*
X029495Y029997D01*
X029330Y029997D01*
X029205Y030122D01*
X027880Y030122D01*
X027453Y029695D01*
X027453Y028591D01*
X027650Y028591D02*
X027650Y029722D01*
X027930Y030002D01*
X029155Y030002D01*
X029400Y029757D01*
X029725Y029757D01*
X029855Y029887D01*
X029865Y029887D01*
X029895Y029887D01*
X030510Y029887D01*
X030805Y029887D01*
X030920Y030002D01*
X034395Y030002D01*
X033025Y028672D02*
X032660Y028672D01*
X032635Y028697D01*
X032235Y028697D02*
X032235Y027822D01*
X032220Y027807D01*
X032175Y027352D02*
X031260Y027352D01*
X031260Y027212D01*
X031110Y027062D01*
X030970Y027062D01*
X030885Y026977D01*
X030885Y026187D01*
X030829Y026131D01*
X029964Y026131D01*
X029884Y026051D01*
X029599Y026051D01*
X029600Y026247D02*
X029599Y026248D01*
X029600Y026247D02*
X029640Y026247D01*
X029660Y026267D01*
X030420Y026267D01*
X030655Y026502D01*
X030630Y026867D02*
X030200Y026867D01*
X030105Y026962D01*
X030105Y026902D01*
X030042Y026839D01*
X029599Y026839D01*
X029599Y027036D02*
X029293Y027036D01*
X029227Y026969D01*
X028877Y026969D01*
X028745Y027102D01*
X029130Y027232D02*
X029130Y027232D01*
X029599Y027232D01*
X029599Y027429D02*
X030443Y027429D01*
X030555Y027318D01*
X030931Y027318D01*
X030935Y027322D01*
X031260Y027752D02*
X031700Y027752D01*
X032175Y027352D02*
X032220Y027307D01*
X030630Y026867D02*
X030625Y026872D01*
X030150Y026517D02*
X030108Y026475D01*
X030108Y026445D01*
X029599Y026445D01*
X029599Y026642D02*
X028980Y026642D01*
X028870Y026532D01*
X029599Y027823D02*
X029599Y028201D01*
X030280Y028882D01*
X030295Y028897D01*
X030326Y028929D01*
X030295Y028897D02*
X030410Y028897D01*
X030441Y028929D01*
X030451Y028929D01*
X030018Y028929D02*
X030011Y028922D01*
X029980Y028922D01*
X029740Y028682D01*
X029299Y028591D02*
X028831Y028591D01*
X028634Y028591D02*
X028634Y029101D01*
X029170Y029637D01*
X030605Y029637D01*
X031015Y029227D01*
X031015Y028742D01*
X031060Y028697D01*
X031095Y028697D01*
X032235Y028697D01*
X031815Y029292D02*
X031675Y029292D01*
X031815Y029292D02*
X032000Y029477D01*
X031810Y029667D01*
X031675Y029667D01*
X031275Y029667D02*
X030915Y029667D01*
X031275Y029292D02*
X031275Y028962D01*
X030018Y029149D02*
X030006Y029137D01*
X030018Y029149D02*
X030018Y029165D01*
X029873Y029165D01*
X029299Y028591D01*
X028437Y028591D02*
X028437Y029074D01*
X028830Y029467D01*
X028830Y029712D01*
X028435Y029577D02*
X028435Y029272D01*
X028240Y029077D01*
X028240Y028591D01*
X028043Y028591D02*
X028043Y028518D01*
X028065Y028497D01*
X028065Y028252D01*
X028275Y028042D01*
X027845Y028167D02*
X027845Y028589D01*
X027847Y028591D01*
X027847Y029469D01*
X028040Y029662D01*
X028080Y029247D02*
X028043Y029211D01*
X028043Y028591D01*
X027256Y028591D02*
X027256Y029703D01*
X027800Y030247D01*
X028900Y030247D01*
X029145Y030492D01*
X029145Y030497D01*
X029355Y030707D01*
X029355Y032167D01*
X029435Y032247D01*
X029855Y032247D01*
X030480Y032322D02*
X030655Y032147D01*
X030655Y031844D01*
X030940Y032117D02*
X030755Y032302D01*
X030755Y032497D01*
X031090Y032362D02*
X031510Y032362D01*
X031550Y032401D01*
X031555Y032197D02*
X031475Y032117D01*
X030940Y032117D01*
X031855Y033047D02*
X032106Y032795D01*
X032159Y032992D02*
X032349Y032992D01*
X032159Y032992D02*
X032125Y033027D01*
X032125Y033602D01*
X031990Y033812D02*
X031990Y033992D01*
X032005Y034007D01*
X031990Y033812D02*
X031855Y033677D01*
X031855Y033047D01*
X030430Y034137D02*
X030255Y034137D01*
X030155Y034037D01*
X030155Y033897D01*
X029300Y033792D02*
X029300Y033272D01*
X028850Y032822D01*
X028850Y031527D01*
X028850Y031517D01*
X027940Y030607D01*
X027610Y030607D01*
X026765Y029762D01*
X026765Y029007D01*
X026666Y028908D01*
X026666Y028591D01*
X026857Y028596D02*
X026862Y028591D01*
X026862Y028850D01*
X026885Y028872D01*
X026885Y029702D01*
X027670Y030487D01*
X028180Y030487D01*
X028180Y030492D01*
X028305Y030617D01*
X028180Y030487D02*
X028670Y030977D01*
X028680Y030627D02*
X029070Y031017D01*
X029065Y031017D01*
X028680Y030627D02*
X028680Y030617D01*
X028435Y030372D01*
X028420Y030372D01*
X028420Y030367D01*
X027730Y030367D01*
X027055Y029692D01*
X027055Y028595D01*
X026469Y028591D02*
X026469Y028881D01*
X026645Y029057D01*
X026645Y030037D01*
X027045Y030437D01*
X027055Y030902D02*
X027880Y030902D01*
X028055Y031077D01*
X028055Y031082D01*
X028730Y031757D01*
X028730Y033152D01*
X028965Y033387D01*
X026505Y033872D02*
X026255Y033622D01*
X026255Y033590D01*
X026254Y033589D01*
X026505Y033872D02*
X026505Y033972D01*
X025801Y033589D02*
X025801Y033523D01*
X025570Y033292D01*
X025570Y032477D01*
X025420Y032327D01*
X023545Y032327D01*
X023315Y032557D01*
X023315Y033257D01*
X023190Y033382D01*
X023190Y033732D01*
X023315Y033857D01*
X023315Y034717D01*
X023415Y034817D01*
X023415Y035797D01*
X023045Y036167D01*
X022465Y036167D01*
X022240Y035942D01*
X022405Y035732D02*
X022720Y036047D01*
X022935Y036047D01*
X023295Y035687D01*
X023295Y034872D01*
X023195Y034772D01*
X023195Y033907D01*
X023070Y033782D01*
X023070Y033332D01*
X023195Y033207D01*
X023195Y032492D01*
X023480Y032207D01*
X025470Y032207D01*
X026258Y032995D01*
X026258Y033054D01*
X025258Y033054D02*
X025258Y032745D01*
X025110Y032597D01*
X024801Y032733D02*
X024685Y032617D01*
X024801Y032733D02*
X024801Y033054D01*
X024615Y032917D02*
X024280Y032582D01*
X024280Y032557D01*
X023890Y032622D02*
X024258Y032990D01*
X024258Y033054D01*
X024615Y032917D02*
X024615Y033352D01*
X024796Y033533D01*
X024801Y033533D01*
X024801Y033589D01*
X024530Y033897D02*
X024530Y033997D01*
X024530Y033897D02*
X024255Y033622D01*
X024255Y033590D01*
X024254Y033589D01*
X023801Y033589D02*
X023801Y033665D01*
X023575Y033892D01*
X023510Y033452D02*
X023510Y033342D01*
X023797Y033054D01*
X023801Y033054D01*
X023790Y032622D02*
X023890Y032622D01*
X023075Y032267D02*
X023075Y033157D01*
X022950Y033282D01*
X022950Y033832D01*
X023075Y033957D01*
X023075Y034827D01*
X023175Y034927D01*
X023175Y034987D01*
X023100Y035062D01*
X022890Y035062D01*
X022800Y034972D01*
X022585Y034972D01*
X022540Y035017D01*
X022340Y035017D01*
X022255Y035102D01*
X022240Y035102D01*
X022495Y034892D02*
X022835Y034552D01*
X022840Y034552D01*
X022835Y034227D02*
X022835Y034127D01*
X022835Y034227D02*
X022380Y034682D01*
X022240Y034682D01*
X022495Y034892D02*
X021420Y034892D01*
X021115Y034682D02*
X021840Y034682D01*
X021840Y034307D02*
X021678Y034145D01*
X020633Y034145D01*
X020633Y034342D02*
X020775Y034342D01*
X021115Y034682D01*
X021020Y034892D02*
X020667Y034539D01*
X020633Y034539D01*
X020417Y034755D02*
X020417Y035014D01*
X020505Y035102D01*
X021840Y035102D01*
X021840Y035522D02*
X020360Y035522D01*
X020023Y035185D01*
X020023Y034755D01*
X020220Y034755D02*
X020220Y035212D01*
X020320Y035312D01*
X021020Y035312D01*
X021420Y035312D02*
X022590Y035312D01*
X022700Y035202D01*
X022370Y035522D02*
X022585Y035737D01*
X022765Y035737D01*
X022405Y035732D02*
X021420Y035732D01*
X021020Y035732D02*
X020400Y035732D01*
X019826Y035158D01*
X019826Y034755D01*
X019630Y034756D02*
X019630Y035137D01*
X020435Y035942D01*
X021840Y035942D01*
X022240Y035522D02*
X022370Y035522D01*
X022240Y034307D02*
X022720Y033827D01*
X022720Y033607D01*
X021725Y033017D02*
X021420Y032712D01*
X021420Y032082D01*
X020845Y031952D02*
X020845Y033607D01*
X020700Y033751D01*
X020633Y033751D01*
X020675Y033751D01*
X020633Y033555D02*
X020633Y032773D01*
X020635Y032772D01*
X020635Y032372D02*
X020635Y030792D01*
X020810Y030617D01*
X020810Y030082D01*
X020990Y029902D01*
X021485Y029907D02*
X020930Y030462D01*
X020930Y030672D01*
X020845Y030757D01*
X020845Y031552D01*
X020425Y031552D02*
X020425Y030667D01*
X020570Y030522D01*
X020235Y030662D02*
X020235Y030047D01*
X020390Y029892D01*
X020005Y030497D02*
X020005Y031552D01*
X019795Y031317D02*
X019615Y031137D01*
X019615Y029697D01*
X019710Y029602D01*
X022685Y029602D01*
X023830Y028457D01*
X023830Y026327D01*
X023470Y025967D01*
X021530Y025967D01*
X021308Y026188D01*
X021212Y026188D01*
X021212Y026641D02*
X021085Y026641D01*
X020810Y026917D01*
X021212Y027188D02*
X021262Y027188D01*
X021448Y027002D01*
X022970Y027002D01*
X023245Y027277D01*
X023245Y028122D01*
X023590Y028357D02*
X022585Y029362D01*
X019605Y029362D01*
X019375Y029592D01*
X019375Y032372D01*
X019375Y032772D02*
X019375Y033107D01*
X019432Y033165D01*
X019432Y033338D01*
X019629Y033338D02*
X019629Y033156D01*
X019585Y033112D01*
X019585Y031952D01*
X019585Y031552D02*
X019495Y031462D01*
X019495Y029642D01*
X019655Y029482D01*
X022635Y029482D01*
X023710Y028407D01*
X023710Y026517D01*
X023381Y026188D01*
X021747Y026188D01*
X021747Y026645D02*
X023228Y026645D01*
X023590Y027007D01*
X023590Y028357D01*
X024215Y028067D02*
X024560Y027722D01*
X024560Y026672D01*
X024786Y026445D01*
X025110Y026445D01*
X025110Y026248D02*
X025318Y026248D01*
X025800Y025767D01*
X025800Y024812D01*
X025285Y024297D01*
X025115Y024297D01*
X024910Y024602D02*
X025420Y024602D01*
X025540Y024722D01*
X025540Y025312D01*
X025390Y025461D01*
X025110Y025461D01*
X025110Y025658D02*
X025568Y025658D01*
X025570Y025657D01*
X025387Y025264D02*
X025110Y025264D01*
X025110Y025067D02*
X024860Y025067D01*
X024225Y024432D01*
X024225Y024247D01*
X024040Y024247D01*
X022895Y023102D01*
X022895Y022867D01*
X022745Y022717D01*
X022550Y022717D01*
X021810Y021977D01*
X021635Y021977D01*
X021401Y021744D01*
X021401Y021605D01*
X021205Y021605D02*
X021205Y021717D01*
X021585Y022097D01*
X021760Y022097D01*
X022630Y022967D01*
X022645Y022967D01*
X022645Y023157D01*
X022970Y023482D01*
X022970Y023547D01*
X022870Y023777D02*
X023400Y023777D01*
X024510Y024887D01*
X024510Y025517D01*
X024847Y025855D01*
X025110Y025855D01*
X025110Y026051D02*
X024594Y026051D01*
X024590Y026047D01*
X024390Y025827D02*
X024315Y025902D01*
X024315Y026357D01*
X024680Y026722D02*
X024680Y028967D01*
X024715Y029002D01*
X024715Y028997D01*
X024715Y029002D02*
X024710Y029002D01*
X024370Y029342D01*
X024370Y029617D01*
X024181Y029805D01*
X024181Y030026D01*
X024025Y030024D02*
X024025Y029380D01*
X023870Y029667D02*
X023720Y029667D01*
X023570Y029517D01*
X023570Y029367D01*
X023385Y029672D02*
X023475Y029762D01*
X023605Y029762D01*
X023708Y029865D01*
X023708Y030026D01*
X023866Y030026D02*
X023870Y030022D01*
X023870Y029667D01*
X024025Y030024D02*
X024023Y030026D01*
X024023Y030026D01*
X024338Y030026D02*
X024345Y030020D01*
X024345Y029842D01*
X024650Y029537D01*
X024650Y029447D01*
X024985Y029112D01*
X024985Y028622D01*
X024985Y028612D01*
X024800Y028427D01*
X024800Y026872D01*
X024825Y026847D01*
X025103Y026847D01*
X025110Y026839D01*
X025110Y027036D02*
X025346Y027036D01*
X025705Y026677D01*
X025705Y026377D01*
X025700Y026372D01*
X025720Y026892D02*
X025820Y026892D01*
X025720Y026892D02*
X025379Y027232D01*
X025110Y027232D01*
X025110Y027429D02*
X025797Y027429D01*
X025800Y027432D01*
X026180Y027432D01*
X025760Y027777D02*
X025609Y027626D01*
X025110Y027626D01*
X025110Y027823D02*
X025110Y027824D01*
X025110Y028262D01*
X025510Y028662D01*
X025510Y029002D01*
X025385Y029127D01*
X025385Y029947D01*
X025755Y030317D01*
X025755Y031027D01*
X025110Y031672D01*
X024605Y031672D01*
X024010Y031672D01*
X023865Y031527D01*
X023865Y031208D01*
X023866Y031207D01*
X023870Y031211D01*
X023708Y031207D02*
X023708Y031403D01*
X023500Y031612D01*
X023285Y031612D01*
X023490Y031382D02*
X023055Y031382D01*
X022770Y031667D01*
X022770Y031682D01*
X023490Y031382D02*
X023545Y031327D01*
X023545Y031214D01*
X023551Y031207D01*
X023354Y031010D02*
X022860Y031010D01*
X022795Y030945D01*
X022426Y030945D01*
X022360Y031012D01*
X024181Y031080D02*
X024181Y031207D01*
X024195Y031221D01*
X024181Y031080D02*
X024295Y030967D01*
X024370Y030967D01*
X024420Y031017D01*
X024529Y031017D01*
X024535Y031010D01*
X024541Y031017D01*
X024535Y030223D02*
X024538Y030220D01*
X025050Y030220D01*
X025480Y030650D01*
X025480Y030652D01*
X025720Y029817D02*
X025721Y029815D01*
X025721Y029387D01*
X025878Y029230D01*
X025878Y028591D01*
X026272Y028591D02*
X026272Y028909D01*
X026525Y029162D01*
X026525Y030372D01*
X027055Y030902D01*
X022925Y028662D02*
X022690Y028427D01*
X021520Y028427D01*
X021281Y028188D01*
X021212Y028188D01*
X021212Y028641D02*
X021085Y028641D01*
X020835Y028892D01*
X021212Y028641D02*
X021217Y028641D01*
X021216Y028642D01*
X021747Y028645D02*
X021833Y028645D01*
X022020Y028832D01*
X022065Y028832D01*
X022310Y029077D01*
X022310Y029127D01*
X022115Y027997D02*
X022115Y027837D01*
X021923Y027645D01*
X021747Y027645D01*
X021747Y027188D02*
X021916Y027188D01*
X022760Y028032D01*
X021212Y027641D02*
X021110Y027641D01*
X020835Y027917D01*
X021212Y026641D02*
X021217Y026641D01*
X021216Y026642D01*
X024390Y025827D02*
X024390Y024937D01*
X024190Y024737D01*
X023600Y024737D01*
X023205Y024342D01*
X023205Y024052D01*
X023170Y024017D01*
X022770Y024017D01*
X022465Y023712D01*
X022465Y023487D01*
X022010Y023032D01*
X021995Y023032D01*
X021990Y023032D01*
X021990Y022842D01*
X021880Y022732D01*
X021430Y022732D01*
X021255Y022557D01*
X021255Y022297D01*
X020840Y021882D01*
X020800Y021882D01*
X020496Y021578D01*
X020496Y021290D01*
X020496Y021094D02*
X020398Y021094D01*
X020280Y021212D01*
X020280Y021732D01*
X019965Y021342D02*
X019790Y021342D01*
X019735Y021397D01*
X019410Y021397D01*
X019375Y021432D01*
X019631Y021032D02*
X019875Y021032D01*
X019965Y020942D01*
X020220Y020687D01*
X020220Y020567D01*
X020283Y020503D01*
X020496Y020503D01*
X020496Y020700D02*
X020411Y020700D01*
X020295Y020817D01*
X020295Y021012D01*
X019965Y021342D01*
X020811Y021605D02*
X020811Y021663D01*
X020810Y021664D01*
X020810Y021722D01*
X020840Y021752D01*
X020880Y021752D01*
X021385Y022257D01*
X021385Y022517D01*
X021480Y022612D01*
X021935Y022612D01*
X022265Y022942D01*
X022265Y023117D01*
X022585Y023437D01*
X022585Y023662D01*
X022820Y023897D01*
X023220Y023897D01*
X023485Y024162D01*
X023485Y024192D01*
X023745Y024452D01*
X023745Y024487D01*
X023960Y023997D02*
X024325Y023997D01*
X024475Y024147D01*
X024475Y024507D01*
X024838Y024870D01*
X025110Y024870D01*
X024860Y024722D02*
X024604Y024466D01*
X024604Y023741D01*
X024725Y024027D02*
X024960Y023792D01*
X024960Y023390D01*
X024957Y023388D01*
X025215Y023882D02*
X025825Y023882D01*
X025878Y023935D01*
X025878Y024103D01*
X026075Y024103D02*
X026075Y023827D01*
X025900Y023652D01*
X025545Y023652D01*
X026176Y023282D02*
X026272Y023377D01*
X026272Y024103D01*
X027059Y024103D02*
X027059Y023817D01*
X027255Y023622D01*
X027255Y024101D01*
X027256Y024103D01*
X027935Y023592D02*
X027945Y023602D01*
X028105Y023602D01*
X028145Y023642D01*
X028515Y023642D01*
X028570Y023697D01*
X029176Y023697D01*
X029141Y023661D01*
X029141Y023232D01*
X029193Y023180D01*
X029210Y023180D01*
X029210Y022622D01*
X028685Y022602D01*
X028660Y022607D01*
X028680Y022967D01*
X028535Y023112D01*
X027935Y023112D01*
X028105Y023282D01*
X028105Y023602D01*
X028205Y023702D01*
X028495Y023702D01*
X028495Y023122D01*
X027935Y023122D01*
X027935Y023592D01*
X027935Y023566D02*
X028495Y023566D01*
X028495Y023624D02*
X028127Y023624D01*
X029141Y023624D01*
X029141Y023566D02*
X028105Y023566D01*
X028105Y023507D02*
X029141Y023507D01*
X029141Y023449D02*
X028105Y023449D01*
X028105Y023390D02*
X029141Y023390D01*
X029141Y023332D02*
X028105Y023332D01*
X028096Y023273D02*
X029141Y023273D01*
X029158Y023215D02*
X028038Y023215D01*
X027979Y023156D02*
X029210Y023156D01*
X029210Y023098D02*
X028548Y023098D01*
X028495Y023156D02*
X027935Y023156D01*
X027935Y023215D02*
X028495Y023215D01*
X028495Y023273D02*
X027935Y023273D01*
X027935Y023332D02*
X028495Y023332D01*
X028495Y023390D02*
X027935Y023390D01*
X027935Y023449D02*
X028495Y023449D01*
X028495Y023507D02*
X027935Y023507D01*
X028186Y023683D02*
X028495Y023683D01*
X028455Y023697D02*
X028240Y023697D01*
X028240Y023687D01*
X028205Y023687D01*
X028205Y023796D01*
X028240Y023796D01*
X028240Y024103D01*
X028437Y024103D01*
X028437Y024103D01*
X028291Y024103D01*
X028240Y024103D01*
X028240Y024103D01*
X028240Y024103D01*
X028240Y023796D01*
X028314Y023796D01*
X028339Y023806D01*
X028363Y023796D01*
X028437Y023796D01*
X028437Y024103D01*
X028437Y024103D01*
X028437Y023796D01*
X028456Y023796D01*
X028455Y023697D01*
X028455Y023741D02*
X028205Y023741D01*
X028240Y023800D02*
X028240Y023800D01*
X028240Y023858D02*
X028240Y023858D01*
X028240Y023917D02*
X028240Y023917D01*
X028240Y023975D02*
X028240Y023975D01*
X028240Y024034D02*
X028240Y024034D01*
X028240Y024092D02*
X028240Y024092D01*
X028437Y024092D02*
X028437Y024092D01*
X028437Y024034D02*
X028437Y024034D01*
X028437Y023975D02*
X028437Y023975D01*
X028437Y023917D02*
X028437Y023917D01*
X028437Y023858D02*
X028437Y023858D01*
X028437Y023800D02*
X028437Y023800D01*
X028354Y023800D02*
X028323Y023800D01*
X028556Y023683D02*
X029162Y023683D01*
X029276Y023800D02*
X029862Y023800D01*
X029862Y023858D02*
X028973Y023858D01*
X029330Y023741D02*
X029862Y023741D01*
X029893Y023683D02*
X029634Y023683D01*
X029641Y023675D02*
X029616Y023700D01*
X029583Y023714D01*
X029428Y023714D01*
X029428Y023477D01*
X029655Y023477D01*
X029655Y023642D01*
X029641Y023675D01*
X029655Y023624D02*
X030153Y023624D01*
X030160Y023683D02*
X030100Y023683D01*
X030100Y023741D02*
X030160Y023741D01*
X030160Y023800D02*
X030100Y023800D01*
X030092Y023566D02*
X029655Y023566D01*
X029655Y023507D02*
X030030Y023507D01*
X029969Y023449D02*
X029428Y023449D01*
X029428Y023417D02*
X029655Y023417D01*
X029655Y023252D01*
X029641Y023219D01*
X029616Y023193D01*
X029583Y023180D01*
X029428Y023180D01*
X029428Y023417D01*
X029428Y023390D02*
X029368Y023390D01*
X029368Y023332D02*
X029428Y023332D01*
X029428Y023273D02*
X029368Y023273D01*
X029368Y023215D02*
X029428Y023215D01*
X029330Y023156D02*
X029818Y023156D01*
X029817Y023215D02*
X029638Y023215D01*
X029655Y023273D02*
X029815Y023273D01*
X029846Y023332D02*
X029655Y023332D01*
X029655Y023390D02*
X029908Y023390D01*
X029629Y023098D02*
X029569Y023098D01*
X029569Y023039D02*
X029629Y023039D01*
X029629Y022981D02*
X029569Y022981D01*
X029569Y022922D02*
X029629Y022922D01*
X029629Y022837D02*
X029629Y022580D01*
X029703Y022580D01*
X029696Y022573D01*
X029472Y022580D01*
X029569Y022580D01*
X029569Y022837D01*
X029629Y022837D01*
X029629Y022805D02*
X029569Y022805D01*
X029569Y022747D02*
X029629Y022747D01*
X029629Y022688D02*
X029569Y022688D01*
X029569Y022630D02*
X029629Y022630D01*
X029210Y022630D02*
X028661Y022630D01*
X028664Y022688D02*
X029210Y022688D01*
X029210Y022747D02*
X028667Y022747D01*
X028671Y022805D02*
X029210Y022805D01*
X029210Y022864D02*
X028674Y022864D01*
X028677Y022922D02*
X029210Y022922D01*
X029210Y022981D02*
X028665Y022981D01*
X028607Y023039D02*
X029210Y023039D01*
X029368Y023507D02*
X029428Y023507D01*
X029428Y023566D02*
X029368Y023566D01*
X029368Y023624D02*
X029428Y023624D01*
X029428Y023683D02*
X029368Y023683D01*
X028515Y022892D02*
X027840Y022892D01*
X027715Y023017D01*
X027540Y023017D01*
X027415Y022892D01*
X027415Y022317D01*
X027540Y022192D01*
X027715Y022192D01*
X027840Y022317D01*
X028515Y022317D01*
X028515Y022892D01*
X028515Y022864D02*
X027415Y022864D01*
X027415Y022805D02*
X028515Y022805D01*
X028515Y022747D02*
X027415Y022747D01*
X027415Y022688D02*
X028515Y022688D01*
X028515Y022630D02*
X027415Y022630D01*
X027415Y022571D02*
X028515Y022571D01*
X028515Y022513D02*
X027415Y022513D01*
X027415Y022454D02*
X028515Y022454D01*
X028515Y022396D02*
X027415Y022396D01*
X027415Y022337D02*
X028515Y022337D01*
X027802Y022279D02*
X027452Y022279D01*
X027511Y022220D02*
X027743Y022220D01*
X027809Y022922D02*
X027445Y022922D01*
X027504Y022981D02*
X027750Y022981D01*
X026176Y022788D02*
X026070Y022682D01*
X025400Y021467D02*
X025040Y021107D01*
X024720Y021107D01*
X024546Y020933D01*
X024546Y020869D01*
X024550Y020334D02*
X024550Y020333D01*
X024550Y020302D01*
X024300Y020052D01*
X024300Y019872D01*
X024050Y019622D01*
X024050Y019042D01*
X025275Y019952D02*
X025275Y020027D01*
X025550Y020302D01*
X025550Y020333D01*
X025550Y020334D01*
X025185Y020582D02*
X025185Y020912D01*
X025185Y020582D02*
X025003Y020400D01*
X025003Y020334D01*
X026003Y020869D02*
X026003Y020905D01*
X026325Y021227D01*
X029270Y021227D01*
X029685Y021642D01*
X029997Y021642D01*
X031262Y022907D01*
X031413Y022167D02*
X032225Y022167D01*
X032530Y022472D01*
X032550Y022472D01*
X031413Y022167D02*
X031411Y022165D01*
X031128Y021882D02*
X031105Y021882D01*
X030505Y021282D01*
X029845Y021282D01*
X029430Y020867D01*
X027535Y020867D01*
X027195Y020527D01*
X027195Y020412D01*
X027115Y020332D01*
X027112Y020334D01*
X027003Y020334D01*
X026725Y020632D02*
X026546Y020810D01*
X026546Y020869D01*
X026275Y020027D02*
X026275Y019927D01*
X023015Y022817D02*
X023015Y023022D01*
X023495Y023502D01*
X023740Y023502D01*
X023740Y023777D01*
X023960Y023997D01*
X024725Y024027D02*
X024725Y024417D01*
X024910Y024602D01*
X024860Y024722D02*
X025370Y024722D01*
X025420Y024772D01*
X025420Y025232D01*
X025387Y025264D01*
X025110Y026642D02*
X024759Y026642D01*
X024680Y026722D01*
X022870Y023777D02*
X022705Y023612D01*
X022705Y023387D01*
X022385Y023067D01*
X022385Y022892D01*
X021840Y022347D01*
X021645Y022347D01*
X021008Y021710D01*
X021008Y021605D01*
X021598Y021605D02*
X021598Y021770D01*
X021685Y021857D01*
X021860Y021857D01*
X022600Y022597D01*
X022795Y022597D01*
X023015Y022817D01*
X031615Y023557D02*
X031615Y023557D01*
X032294Y024922D02*
X032294Y024937D01*
X031820Y025412D01*
X035770Y025897D02*
X035770Y026037D01*
X034305Y022697D02*
X034580Y022422D01*
X034655Y022422D01*
X034305Y022697D02*
X034273Y022697D01*
X034272Y022697D01*
X032165Y020617D02*
X032090Y020692D01*
X032165Y020617D02*
X032165Y020302D01*
X036246Y018242D02*
X036306Y018242D01*
X036306Y018184D02*
X036246Y018184D01*
X021876Y017797D02*
X021383Y017797D01*
X021355Y017768D01*
X021158Y017572D01*
X019180Y017572D01*
X018930Y017322D01*
X018730Y017322D01*
X018555Y017497D01*
X018412Y017497D01*
X018355Y017555D01*
X020235Y030662D02*
X020215Y030682D01*
X020215Y032372D01*
X020215Y032772D02*
X020215Y033117D01*
X020220Y033122D01*
X020220Y033338D01*
X020220Y033338D01*
X020415Y033336D02*
X020417Y033338D01*
X020417Y033125D01*
X020425Y033117D01*
X020425Y031952D01*
X020005Y031952D02*
X020005Y033117D01*
X020023Y033135D01*
X020023Y033338D01*
X020005Y033320D01*
X019826Y033338D02*
X019826Y033143D01*
X019795Y033112D01*
X019795Y032772D01*
X019795Y032372D02*
X019795Y031317D01*
X019216Y034145D02*
X019196Y034165D01*
X018670Y034165D01*
X018173Y034165D01*
X018170Y034162D01*
X018245Y034562D02*
X018655Y034562D01*
X018875Y034562D01*
X019095Y034342D01*
X019216Y034342D01*
X019216Y034342D01*
X019216Y034539D02*
X019087Y034539D01*
X018660Y034967D01*
X018230Y034967D01*
X018215Y034982D01*
X018215Y034592D02*
X018245Y034562D01*
X019100Y035088D02*
X019432Y034755D01*
X019629Y034755D02*
X019630Y034756D01*
X019100Y035088D02*
X019100Y035392D01*
X019100Y036107D01*
X025255Y033622D02*
X025530Y033897D01*
X025530Y033972D01*
X025255Y033622D02*
X025255Y033590D01*
X025254Y033589D01*
X036070Y033847D02*
X036370Y033547D01*
X036455Y033547D01*
X036723Y033278D01*
X036723Y033262D01*
D52*
X034442Y034813D02*
X034087Y035168D01*
X034087Y035181D01*
X033788Y034821D02*
X034119Y034490D01*
X033747Y034117D01*
X033747Y033602D01*
X033737Y034821D02*
X033788Y034821D01*
X034442Y034813D02*
X035816Y036187D01*
X036152Y036187D01*
X032775Y035237D02*
X032373Y035237D01*
X026176Y023282D02*
X025730Y023282D01*
X026176Y023282D02*
X026176Y022788D01*
M02*
