G75*
%MOIN*%
%OFA0B0*%
%FSLAX24Y24*%
%IPPOS*%
%LPD*%
%AMOC8*
5,1,8,0,0,1.08239X$1,22.5*
%
%ADD10C,0.0300*%
%ADD11C,0.0396*%
%ADD12C,0.0740*%
%ADD13OC8,0.0850*%
%ADD14C,0.0160*%
%ADD15C,0.0280*%
%ADD16C,0.0060*%
%ADD17C,0.0080*%
D10*
X021245Y008247D02*
X022095Y008247D01*
X022379Y008530D01*
X022379Y008814D01*
X022095Y009097D01*
X021245Y009097D01*
X022095Y009097D02*
X022379Y009381D01*
X022379Y009665D01*
X022095Y009948D01*
X021245Y009948D01*
X021245Y008247D01*
X023086Y008530D02*
X023086Y009097D01*
X023370Y009381D01*
X023937Y009381D01*
X024220Y009097D01*
X024220Y008530D01*
X023937Y008247D01*
X023370Y008247D01*
X023086Y008530D01*
X024928Y009381D02*
X025495Y009381D01*
X025211Y009665D02*
X025211Y008530D01*
X025495Y008247D01*
X026439Y008530D02*
X026723Y008247D01*
X026439Y008530D02*
X026439Y009665D01*
X026155Y009381D02*
X026723Y009381D01*
X027383Y009097D02*
X027383Y008530D01*
X027667Y008247D01*
X028234Y008247D01*
X028517Y008530D01*
X028517Y009097D01*
X028234Y009381D01*
X027667Y009381D01*
X027383Y009097D01*
X029225Y009381D02*
X029225Y008247D01*
X029792Y008247D02*
X029792Y009097D01*
X030075Y009381D01*
X030359Y009097D01*
X030359Y008247D01*
X029792Y009097D02*
X029508Y009381D01*
X029225Y009381D01*
D11*
X032220Y025807D03*
X032720Y025807D03*
X032720Y026307D03*
X032720Y026807D03*
X032720Y027307D03*
X032720Y027807D03*
X032220Y027807D03*
X032220Y027307D03*
X032220Y026807D03*
X032220Y026307D03*
D12*
X034305Y019972D03*
X035305Y019972D03*
D13*
X035070Y021932D03*
X036080Y021922D03*
X037080Y021922D03*
X037080Y022922D03*
X036080Y022922D03*
X035080Y022922D03*
X035080Y023922D03*
X036080Y023922D03*
X037080Y023922D03*
X026775Y019527D03*
X025775Y019527D03*
X024775Y019527D03*
X024775Y018527D03*
X025775Y018527D03*
X026775Y018527D03*
X026775Y017527D03*
X025775Y017527D03*
X024775Y017527D03*
X020405Y026417D03*
X020405Y027417D03*
X019405Y027417D03*
X018405Y027417D03*
X018405Y026417D03*
X019405Y026417D03*
X019405Y028417D03*
X018405Y028417D03*
X020405Y028417D03*
X024030Y034397D03*
X025030Y034397D03*
X025030Y035322D03*
X024030Y035322D03*
X024030Y036247D03*
X025030Y036247D03*
X026030Y036247D03*
X026030Y035322D03*
X026030Y034397D03*
D14*
X026432Y034807D02*
X029175Y034807D01*
X029017Y034649D02*
X026591Y034649D01*
X026605Y034635D02*
X026380Y034859D01*
X026605Y035083D01*
X026605Y035560D01*
X026373Y035791D01*
X026595Y036013D01*
X026595Y036197D01*
X026080Y036197D01*
X026080Y036297D01*
X026595Y036297D01*
X026595Y036481D01*
X026459Y036617D01*
X035470Y036617D01*
X035470Y035190D01*
X035513Y035085D01*
X035593Y035005D01*
X035698Y034962D01*
X037475Y034962D01*
X037475Y027902D01*
X037449Y027928D01*
X037342Y027972D01*
X037264Y027972D01*
X037359Y028067D01*
X037465Y028172D01*
X037465Y029156D01*
X037060Y029561D01*
X036954Y029667D01*
X036785Y029667D01*
X036719Y029733D01*
X036612Y029777D01*
X036497Y029777D01*
X036390Y029733D01*
X036309Y029651D01*
X036265Y029544D01*
X036265Y029429D01*
X036309Y029322D01*
X036390Y029241D01*
X036497Y029197D01*
X036599Y029197D01*
X036599Y029196D01*
X036555Y029089D01*
X036555Y028974D01*
X036599Y028867D01*
X036662Y028804D01*
X036599Y028741D01*
X036555Y028634D01*
X036555Y028519D01*
X036599Y028412D01*
X036680Y028331D01*
X036729Y028311D01*
X036605Y028186D01*
X036605Y027716D01*
X036480Y027591D01*
X036480Y027431D01*
X035785Y026737D01*
X034495Y026737D01*
X034390Y026631D01*
X034231Y026473D01*
X034225Y026486D01*
X034144Y026568D01*
X034037Y026612D01*
X033922Y026612D01*
X033815Y026568D01*
X033734Y026486D01*
X033690Y026379D01*
X033690Y026264D01*
X033734Y026157D01*
X033815Y026076D01*
X033840Y026066D01*
X033840Y024606D01*
X033570Y024337D01*
X032549Y024337D01*
X032289Y024597D01*
X031974Y024597D01*
X031864Y024707D01*
X031055Y024707D01*
X030950Y024601D01*
X030760Y024412D01*
X030667Y024412D01*
X030560Y024368D01*
X030479Y024286D01*
X030451Y024220D01*
X029670Y025001D01*
X029670Y026616D01*
X029310Y026976D01*
X029310Y027002D01*
X029375Y027067D01*
X029420Y027174D01*
X029420Y027289D01*
X029392Y027357D01*
X030379Y027357D01*
X030485Y027462D01*
X030485Y027462D01*
X031225Y028202D01*
X031225Y027521D01*
X031183Y027480D01*
X031180Y027486D01*
X031099Y027568D01*
X030992Y027612D01*
X030877Y027612D01*
X030770Y027568D01*
X030689Y027486D01*
X030645Y027379D01*
X030645Y027264D01*
X030689Y027157D01*
X030770Y027076D01*
X030777Y027073D01*
X030755Y027052D01*
X030381Y027052D01*
X030350Y027126D01*
X030269Y027208D01*
X030162Y027252D01*
X030047Y027252D01*
X029940Y027208D01*
X029859Y027126D01*
X029815Y027019D01*
X029815Y026904D01*
X029859Y026797D01*
X029939Y026717D01*
X029904Y026681D01*
X029860Y026574D01*
X029860Y026459D01*
X029904Y026352D01*
X029985Y026271D01*
X030092Y026227D01*
X030207Y026227D01*
X030252Y026245D01*
X030870Y025627D01*
X031624Y025627D01*
X031574Y025576D01*
X031530Y025469D01*
X031530Y025354D01*
X031574Y025247D01*
X031655Y025166D01*
X031762Y025122D01*
X031877Y025122D01*
X031984Y025166D01*
X032065Y025247D01*
X032110Y025354D01*
X032110Y025469D01*
X032106Y025477D01*
X032150Y025459D01*
X032289Y025459D01*
X032417Y025512D01*
X032470Y025564D01*
X032522Y025512D01*
X032650Y025459D01*
X032789Y025459D01*
X032917Y025512D01*
X033015Y025609D01*
X033068Y025737D01*
X033068Y025876D01*
X033015Y026004D01*
X032955Y026064D01*
X032982Y026091D01*
X033019Y026147D01*
X033045Y026208D01*
X033058Y026273D01*
X033058Y026307D01*
X033058Y026340D01*
X033045Y026405D01*
X033019Y026467D01*
X032982Y026522D01*
X032948Y026557D01*
X032982Y026591D01*
X033019Y026647D01*
X033045Y026708D01*
X033058Y026773D01*
X033058Y026807D01*
X033058Y026840D01*
X033045Y026905D01*
X033019Y026967D01*
X032982Y027022D01*
X032955Y027050D01*
X033015Y027109D01*
X033068Y027237D01*
X033068Y027376D01*
X033015Y027504D01*
X032955Y027564D01*
X032982Y027591D01*
X033019Y027647D01*
X033045Y027708D01*
X033058Y027773D01*
X033058Y027807D01*
X033058Y027840D01*
X033045Y027905D01*
X033019Y027967D01*
X032982Y028022D01*
X032935Y028069D01*
X032880Y028106D01*
X032818Y028132D01*
X032753Y028145D01*
X032720Y028145D01*
X032720Y027807D01*
X033058Y027807D01*
X032720Y027807D01*
X032720Y027807D01*
X032720Y027807D01*
X032720Y028145D01*
X032686Y028145D01*
X032621Y028132D01*
X032559Y028106D01*
X032504Y028069D01*
X032477Y028042D01*
X032417Y028102D01*
X032289Y028155D01*
X032150Y028155D01*
X032022Y028102D01*
X031924Y028004D01*
X031905Y027957D01*
X031864Y027998D01*
X031757Y028042D01*
X031642Y028042D01*
X031585Y028018D01*
X031585Y028652D01*
X031949Y028652D01*
X032524Y029227D01*
X033375Y029227D01*
X033730Y028872D01*
X033730Y028797D01*
X033704Y028771D01*
X033660Y028664D01*
X033660Y028549D01*
X033704Y028442D01*
X033785Y028361D01*
X033853Y028333D01*
X033840Y028299D01*
X033840Y028184D01*
X033884Y028077D01*
X033965Y027996D01*
X034072Y027952D01*
X034187Y027952D01*
X034294Y027996D01*
X034375Y028077D01*
X034420Y028184D01*
X034420Y028299D01*
X034375Y028406D01*
X034294Y028488D01*
X034226Y028516D01*
X034230Y028527D01*
X034384Y028527D01*
X034450Y028461D01*
X034557Y028417D01*
X034672Y028417D01*
X034779Y028461D01*
X034860Y028542D01*
X034905Y028649D01*
X034905Y028764D01*
X034860Y028871D01*
X034779Y028953D01*
X034672Y028997D01*
X034565Y028997D01*
X034565Y029014D01*
X034520Y029121D01*
X034439Y029203D01*
X034332Y029247D01*
X034239Y029247D01*
X033639Y029847D01*
X032244Y029847D01*
X032189Y029902D01*
X031825Y029902D01*
X031770Y029847D01*
X031145Y029847D01*
X031079Y029913D01*
X030972Y029957D01*
X030857Y029957D01*
X030750Y029913D01*
X030669Y029831D01*
X030625Y029724D01*
X030625Y029609D01*
X030669Y029502D01*
X030735Y029437D01*
X030735Y028406D01*
X030165Y027837D01*
X028649Y027837D01*
X028546Y027940D01*
X028565Y027984D01*
X028565Y028099D01*
X028520Y028206D01*
X028439Y028288D01*
X028332Y028332D01*
X028217Y028332D01*
X028110Y028288D01*
X028109Y028286D01*
X028090Y028331D01*
X028009Y028413D01*
X027902Y028457D01*
X027787Y028457D01*
X027680Y028413D01*
X027599Y028331D01*
X027555Y028224D01*
X027555Y028109D01*
X027599Y028002D01*
X027665Y027937D01*
X027665Y027832D01*
X028035Y027462D01*
X028140Y027357D01*
X028602Y027357D01*
X028580Y027348D01*
X028499Y027266D01*
X028455Y027159D01*
X028455Y027044D01*
X028499Y026937D01*
X028580Y026856D01*
X028687Y026812D01*
X028780Y026812D01*
X028782Y026809D01*
X028705Y026778D01*
X028624Y026696D01*
X028580Y026589D01*
X028580Y026474D01*
X028624Y026367D01*
X028690Y026302D01*
X028690Y025107D01*
X031940Y021857D01*
X032045Y021752D01*
X034495Y021752D01*
X034495Y021694D01*
X034490Y021693D01*
X034409Y021611D01*
X034365Y021504D01*
X034365Y021389D01*
X034409Y021282D01*
X034490Y021201D01*
X034597Y021157D01*
X034712Y021157D01*
X034819Y021201D01*
X034900Y021282D01*
X034931Y021357D01*
X035308Y021357D01*
X035570Y021618D01*
X035841Y021347D01*
X036318Y021347D01*
X036587Y021616D01*
X036845Y021357D01*
X037030Y021357D01*
X037030Y021872D01*
X037130Y021872D01*
X037130Y021357D01*
X037314Y021357D01*
X037475Y021518D01*
X037475Y017177D01*
X031755Y017177D01*
X031785Y017207D01*
X031830Y017314D01*
X031830Y017429D01*
X031785Y017536D01*
X031704Y017618D01*
X031597Y017662D01*
X031482Y017662D01*
X031393Y017625D01*
X031430Y017714D01*
X031430Y017829D01*
X031393Y017919D01*
X031482Y017882D01*
X031597Y017882D01*
X031704Y017926D01*
X031785Y018007D01*
X031830Y018114D01*
X031830Y018229D01*
X031785Y018336D01*
X031704Y018418D01*
X031597Y018462D01*
X031482Y018462D01*
X031393Y018425D01*
X031430Y018514D01*
X031430Y018629D01*
X031385Y018736D01*
X031304Y018818D01*
X031197Y018862D01*
X031082Y018862D01*
X030975Y018818D01*
X030894Y018736D01*
X030850Y018629D01*
X030850Y018514D01*
X030887Y018425D01*
X030797Y018462D01*
X030682Y018462D01*
X030575Y018418D01*
X030494Y018336D01*
X030450Y018229D01*
X030450Y018114D01*
X030487Y018025D01*
X030397Y018062D01*
X030282Y018062D01*
X030193Y018025D01*
X030230Y018114D01*
X030230Y018229D01*
X030185Y018336D01*
X030104Y018418D01*
X029997Y018462D01*
X029882Y018462D01*
X029775Y018418D01*
X029694Y018336D01*
X029650Y018229D01*
X029650Y018114D01*
X029687Y018025D01*
X029597Y018062D01*
X029482Y018062D01*
X029393Y018025D01*
X029430Y018114D01*
X029430Y018229D01*
X029385Y018336D01*
X029304Y018418D01*
X029197Y018462D01*
X029082Y018462D01*
X028975Y018418D01*
X028894Y018336D01*
X028850Y018229D01*
X028850Y018114D01*
X028894Y018007D01*
X028975Y017926D01*
X029082Y017882D01*
X029197Y017882D01*
X029287Y017919D01*
X029250Y017829D01*
X029250Y017714D01*
X029287Y017625D01*
X029197Y017662D01*
X029082Y017662D01*
X028975Y017618D01*
X028894Y017536D01*
X028850Y017429D01*
X028850Y017314D01*
X028894Y017207D01*
X028924Y017177D01*
X027224Y017177D01*
X027340Y017293D01*
X027340Y017477D01*
X026825Y017477D01*
X026825Y017577D01*
X027340Y017577D01*
X027340Y017761D01*
X027081Y018020D01*
X027350Y018288D01*
X027350Y018765D01*
X027088Y019027D01*
X027350Y019288D01*
X027350Y019765D01*
X027013Y020102D01*
X026699Y020102D01*
X026520Y020281D01*
X026414Y020387D01*
X025624Y020387D01*
X025215Y020796D01*
X025215Y023067D01*
X025440Y023292D01*
X025440Y023224D01*
X025484Y023117D01*
X025565Y023036D01*
X025672Y022992D01*
X025787Y022992D01*
X025894Y023036D01*
X025975Y023117D01*
X026020Y023224D01*
X026020Y023339D01*
X025975Y023446D01*
X025894Y023528D01*
X025820Y023558D01*
X025835Y023594D01*
X025835Y023709D01*
X025790Y023816D01*
X025709Y023898D01*
X025602Y023942D01*
X025504Y023942D01*
X025460Y024046D01*
X025379Y024128D01*
X025361Y024135D01*
X025405Y024239D01*
X025405Y024354D01*
X025360Y024461D01*
X025279Y024543D01*
X025172Y024587D01*
X025057Y024587D01*
X024950Y024543D01*
X024869Y024461D01*
X024825Y024354D01*
X024825Y024261D01*
X024595Y024031D01*
X024595Y020102D01*
X024536Y020102D01*
X024200Y019765D01*
X024200Y019293D01*
X024107Y019332D01*
X023992Y019332D01*
X023885Y019288D01*
X023804Y019206D01*
X023760Y019099D01*
X023760Y018984D01*
X023804Y018877D01*
X023885Y018796D01*
X023992Y018752D01*
X024107Y018752D01*
X024214Y018796D01*
X024295Y018877D01*
X024340Y018984D01*
X024340Y019099D01*
X024305Y019183D01*
X024461Y019027D01*
X024200Y018765D01*
X024200Y018288D01*
X024468Y018020D01*
X024210Y017761D01*
X024210Y017577D01*
X024725Y017577D01*
X024725Y017477D01*
X024210Y017477D01*
X024210Y017293D01*
X024325Y017177D01*
X019590Y017177D01*
X019590Y019303D01*
X019546Y019408D01*
X019466Y019488D01*
X019361Y019532D01*
X018035Y019532D01*
X018035Y025988D01*
X018170Y025852D01*
X018355Y025852D01*
X018355Y026367D01*
X018455Y026367D01*
X018455Y025852D01*
X018639Y025852D01*
X018897Y026111D01*
X019166Y025842D01*
X019643Y025842D01*
X019905Y026103D01*
X020166Y025842D01*
X020643Y025842D01*
X020980Y026178D01*
X020980Y026237D01*
X024050Y026237D01*
X024069Y026192D01*
X024150Y026111D01*
X024257Y026067D01*
X024300Y026067D01*
X024300Y025989D01*
X024344Y025882D01*
X024370Y025856D01*
X022790Y024276D01*
X022790Y023777D01*
X022724Y023711D01*
X022680Y023604D01*
X022680Y023489D01*
X022724Y023382D01*
X022805Y023301D01*
X022912Y023257D01*
X023027Y023257D01*
X023134Y023301D01*
X023215Y023382D01*
X023260Y023489D01*
X023260Y023604D01*
X023215Y023711D01*
X023150Y023777D01*
X023150Y024127D01*
X023195Y024172D01*
X023195Y024134D01*
X023239Y024027D01*
X023320Y023946D01*
X023427Y023902D01*
X023542Y023902D01*
X023649Y023946D01*
X023730Y024027D01*
X023775Y024134D01*
X023775Y024202D01*
X025049Y025477D01*
X025339Y025477D01*
X025405Y025411D01*
X025512Y025367D01*
X025627Y025367D01*
X025734Y025411D01*
X025815Y025492D01*
X025860Y025599D01*
X025860Y025714D01*
X025815Y025821D01*
X025734Y025903D01*
X025627Y025947D01*
X025512Y025947D01*
X025405Y025903D01*
X025339Y025837D01*
X024900Y025837D01*
X024795Y025731D01*
X023544Y024481D01*
X023542Y024482D01*
X023504Y024482D01*
X024664Y025642D01*
X024770Y025747D01*
X024770Y025817D01*
X024835Y025882D01*
X024875Y025977D01*
X024895Y025957D01*
X025539Y025957D01*
X025645Y026062D01*
X025664Y026082D01*
X025757Y026082D01*
X025864Y026126D01*
X025945Y026207D01*
X025990Y026314D01*
X025990Y026429D01*
X025945Y026536D01*
X025879Y026602D01*
X025984Y026646D01*
X026065Y026727D01*
X026110Y026834D01*
X026110Y026949D01*
X026065Y027056D01*
X025984Y027138D01*
X025877Y027182D01*
X025762Y027182D01*
X025655Y027138D01*
X025574Y027056D01*
X025530Y026949D01*
X025530Y026856D01*
X025450Y026777D01*
X024140Y026777D01*
X024035Y026671D01*
X023960Y026597D01*
X020980Y026597D01*
X020980Y026655D01*
X020967Y026668D01*
X020974Y026671D01*
X021055Y026752D01*
X021100Y026859D01*
X021100Y026974D01*
X021055Y027081D01*
X020974Y027163D01*
X020967Y027166D01*
X020980Y027178D01*
X020980Y027252D01*
X025949Y027252D01*
X026015Y027186D01*
X026122Y027142D01*
X026237Y027142D01*
X026344Y027186D01*
X026425Y027267D01*
X026470Y027374D01*
X026470Y027489D01*
X026425Y027596D01*
X026344Y027678D01*
X026237Y027722D01*
X026122Y027722D01*
X026036Y027686D01*
X026050Y027719D01*
X026050Y027834D01*
X026005Y027941D01*
X025924Y028023D01*
X025817Y028067D01*
X025702Y028067D01*
X025595Y028023D01*
X025514Y027941D01*
X025470Y027834D01*
X025470Y027741D01*
X025460Y027732D01*
X022233Y027732D01*
X022279Y027751D01*
X022360Y027832D01*
X022405Y027939D01*
X022405Y027977D01*
X022425Y027957D01*
X022513Y027868D01*
X022514Y027867D01*
X022595Y027786D01*
X022702Y027742D01*
X022817Y027742D01*
X022924Y027786D01*
X023005Y027867D01*
X023030Y027926D01*
X023080Y027876D01*
X023187Y027832D01*
X023302Y027832D01*
X023409Y027876D01*
X023490Y027957D01*
X023535Y028064D01*
X023535Y028179D01*
X023490Y028286D01*
X023409Y028368D01*
X023302Y028412D01*
X023187Y028412D01*
X023080Y028368D01*
X023059Y028347D01*
X023019Y028387D01*
X023089Y028416D01*
X023170Y028497D01*
X023215Y028604D01*
X023215Y028719D01*
X023170Y028826D01*
X023105Y028892D01*
X023105Y028956D01*
X022590Y029471D01*
X022484Y029577D01*
X021704Y029577D01*
X023110Y029577D01*
X023095Y029614D02*
X023139Y029507D01*
X023220Y029426D01*
X023327Y029382D01*
X023442Y029382D01*
X023549Y029426D01*
X023630Y029507D01*
X023675Y029614D01*
X023675Y029729D01*
X023630Y029836D01*
X023549Y029918D01*
X023442Y029962D01*
X023327Y029962D01*
X023220Y029918D01*
X023139Y029836D01*
X023095Y029729D01*
X023095Y029614D01*
X023097Y029735D02*
X021723Y029735D01*
X021730Y029742D02*
X021775Y029849D01*
X021775Y029964D01*
X021730Y030071D01*
X021649Y030153D01*
X021542Y030197D01*
X021427Y030197D01*
X021320Y030153D01*
X021239Y030071D01*
X021236Y030064D01*
X021235Y030066D01*
X021154Y030148D01*
X021047Y030192D01*
X020932Y030192D01*
X020825Y030148D01*
X020810Y030132D01*
X020810Y030352D01*
X020815Y030357D01*
X020860Y030464D01*
X020860Y030579D01*
X020815Y030686D01*
X023985Y030686D01*
X023827Y030845D02*
X022603Y030845D01*
X022605Y030847D02*
X022650Y030954D01*
X022650Y031067D01*
X023605Y031067D01*
X024750Y029922D01*
X024750Y029701D01*
X024695Y029646D01*
X024695Y028801D01*
X024250Y028357D01*
X024157Y028357D01*
X024050Y028313D01*
X023969Y028231D01*
X023925Y028124D01*
X023925Y028009D01*
X023969Y027902D01*
X024050Y027821D01*
X024157Y027777D01*
X024272Y027777D01*
X024379Y027821D01*
X024460Y027902D01*
X024505Y028009D01*
X024505Y028102D01*
X024949Y028547D01*
X025055Y028652D01*
X025055Y029497D01*
X025110Y029552D01*
X025110Y030071D01*
X025044Y030137D01*
X025210Y030137D01*
X025442Y029905D01*
X025430Y029874D01*
X025430Y029759D01*
X025474Y029652D01*
X025555Y029571D01*
X025662Y029527D01*
X025777Y029527D01*
X025884Y029571D01*
X025965Y029652D01*
X026010Y029759D01*
X026010Y029874D01*
X026002Y029892D01*
X027550Y029892D01*
X027550Y029522D01*
X027790Y029282D01*
X027790Y029189D01*
X027834Y029082D01*
X027915Y029001D01*
X028022Y028957D01*
X028137Y028957D01*
X028244Y029001D01*
X028325Y029082D01*
X028370Y029189D01*
X028370Y029290D01*
X028377Y029287D01*
X028492Y029287D01*
X028599Y029331D01*
X028680Y029412D01*
X028697Y029453D01*
X028772Y029422D01*
X028887Y029422D01*
X028994Y029466D01*
X029075Y029547D01*
X029120Y029654D01*
X029120Y029769D01*
X029075Y029876D01*
X028994Y029958D01*
X028887Y030002D01*
X028772Y030002D01*
X028699Y029972D01*
X027250Y031421D01*
X027250Y033431D01*
X026875Y033806D01*
X026875Y033806D01*
X026786Y033894D01*
X026795Y033914D01*
X026795Y034029D01*
X026750Y034136D01*
X026669Y034218D01*
X026605Y034244D01*
X026605Y034635D01*
X026605Y034490D02*
X028870Y034490D01*
X028870Y034501D02*
X028870Y033661D01*
X028800Y033633D01*
X028719Y033551D01*
X028675Y033444D01*
X028675Y033329D01*
X028719Y033222D01*
X027250Y033222D01*
X027250Y033064D02*
X029678Y033064D01*
X029616Y033002D02*
X029380Y033002D01*
X029140Y032762D01*
X029035Y032656D01*
X029035Y031596D01*
X028705Y031267D01*
X028612Y031267D01*
X028505Y031223D01*
X028424Y031141D01*
X028380Y031034D01*
X028380Y030919D01*
X028424Y030812D01*
X028505Y030731D01*
X028612Y030687D01*
X028727Y030687D01*
X028834Y030731D01*
X028890Y030787D01*
X028905Y030771D01*
X029012Y030727D01*
X029127Y030727D01*
X029234Y030771D01*
X029315Y030852D01*
X029360Y030959D01*
X029360Y031047D01*
X029419Y031107D01*
X029525Y031212D01*
X029525Y032452D01*
X029529Y032457D01*
X030222Y032457D01*
X030190Y032379D01*
X030190Y032264D01*
X030234Y032157D01*
X030315Y032076D01*
X030422Y032032D01*
X030501Y032032D01*
X031865Y030668D01*
X031976Y030557D01*
X033808Y030557D01*
X033983Y030732D01*
X034062Y030732D01*
X034169Y030776D01*
X034250Y030857D01*
X034295Y030964D01*
X034295Y031079D01*
X034250Y031186D01*
X034169Y031268D01*
X034110Y031292D01*
X034150Y031332D01*
X034195Y031439D01*
X034195Y031554D01*
X034150Y031661D01*
X034069Y031743D01*
X033962Y031787D01*
X033847Y031787D01*
X033740Y031743D01*
X033659Y031661D01*
X033628Y031587D01*
X033233Y031587D01*
X031861Y032959D01*
X031895Y033039D01*
X031895Y033154D01*
X031850Y033261D01*
X031769Y033343D01*
X031662Y033387D01*
X031547Y033387D01*
X031440Y033343D01*
X031359Y033261D01*
X031345Y033227D01*
X031345Y033275D01*
X031238Y033382D01*
X031478Y033382D01*
X031763Y033667D01*
X031838Y033667D01*
X031835Y033659D01*
X031835Y033544D01*
X031879Y033437D01*
X031960Y033356D01*
X032067Y033312D01*
X032182Y033312D01*
X032289Y033356D01*
X032370Y033437D01*
X032415Y033544D01*
X032415Y033553D01*
X032561Y033407D01*
X034933Y033407D01*
X035045Y033518D01*
X035045Y033627D01*
X035100Y033682D01*
X035145Y033789D01*
X035145Y033904D01*
X035100Y034011D01*
X035019Y034093D01*
X034912Y034137D01*
X034797Y034137D01*
X034690Y034093D01*
X034609Y034011D01*
X034595Y033977D01*
X034595Y034004D01*
X034550Y034111D01*
X034469Y034193D01*
X034362Y034237D01*
X034247Y034237D01*
X034140Y034193D01*
X034059Y034111D01*
X034015Y034004D01*
X034015Y033889D01*
X034057Y033787D01*
X033723Y033787D01*
X033745Y033839D01*
X033745Y033954D01*
X033700Y034061D01*
X033619Y034143D01*
X033512Y034187D01*
X033397Y034187D01*
X033290Y034143D01*
X033209Y034061D01*
X033165Y033954D01*
X033165Y033839D01*
X033186Y033787D01*
X032860Y033787D01*
X032894Y033801D01*
X032975Y033882D01*
X033020Y033989D01*
X033020Y034104D01*
X032975Y034211D01*
X032894Y034293D01*
X032787Y034337D01*
X032672Y034337D01*
X032565Y034293D01*
X032546Y034274D01*
X032513Y034307D01*
X032587Y034307D01*
X032694Y034351D01*
X032775Y034432D01*
X032820Y034539D01*
X032820Y034654D01*
X032775Y034761D01*
X032694Y034843D01*
X032587Y034887D01*
X032472Y034887D01*
X032462Y034883D01*
X032370Y034975D01*
X032258Y035087D01*
X030235Y035087D01*
X030269Y035101D01*
X030350Y035182D01*
X030395Y035289D01*
X030395Y035404D01*
X030350Y035511D01*
X030269Y035593D01*
X030162Y035637D01*
X030047Y035637D01*
X029940Y035593D01*
X029859Y035511D01*
X029815Y035404D01*
X029815Y035289D01*
X029859Y035182D01*
X029940Y035101D01*
X029974Y035087D01*
X029631Y035087D01*
X029621Y035077D01*
X029445Y035077D01*
X028975Y034607D01*
X028870Y034501D01*
X028870Y034332D02*
X026605Y034332D01*
X026713Y034173D02*
X028870Y034173D01*
X028870Y034015D02*
X026795Y034015D01*
X026825Y033856D02*
X028870Y033856D01*
X028870Y033698D02*
X026983Y033698D01*
X027142Y033539D02*
X028714Y033539D01*
X028675Y033381D02*
X027250Y033381D01*
X027250Y032905D02*
X029283Y032905D01*
X029125Y032747D02*
X027250Y032747D01*
X027250Y032588D02*
X029035Y032588D01*
X029035Y032430D02*
X027250Y032430D01*
X027250Y032271D02*
X029035Y032271D01*
X029035Y032113D02*
X027250Y032113D01*
X027250Y031954D02*
X029035Y031954D01*
X029035Y031796D02*
X027250Y031796D01*
X027250Y031637D02*
X029035Y031637D01*
X028917Y031479D02*
X027250Y031479D01*
X027351Y031320D02*
X028758Y031320D01*
X028444Y031162D02*
X027509Y031162D01*
X027668Y031003D02*
X028380Y031003D01*
X028410Y030845D02*
X027826Y030845D01*
X027985Y030686D02*
X031846Y030686D01*
X031688Y030845D02*
X029308Y030845D01*
X029360Y031003D02*
X031529Y031003D01*
X031371Y031162D02*
X029474Y031162D01*
X029525Y031320D02*
X031212Y031320D01*
X031054Y031479D02*
X029525Y031479D01*
X029525Y031637D02*
X030895Y031637D01*
X030737Y031796D02*
X029525Y031796D01*
X029525Y031954D02*
X030578Y031954D01*
X030278Y032113D02*
X029525Y032113D01*
X029525Y032271D02*
X030190Y032271D01*
X030210Y032430D02*
X029525Y032430D01*
X029616Y033002D02*
X030265Y033650D01*
X030376Y033762D01*
X031321Y033762D01*
X031495Y033935D01*
X031606Y034047D01*
X032236Y034047D01*
X031751Y034532D01*
X029626Y034532D01*
X029616Y034542D01*
X029599Y034542D01*
X029480Y034422D01*
X029480Y034022D01*
X029545Y033956D01*
X029590Y033849D01*
X029590Y033734D01*
X029545Y033627D01*
X029464Y033546D01*
X029357Y033502D01*
X029242Y033502D01*
X029230Y033507D01*
X029230Y033505D01*
X029255Y033444D01*
X029255Y033329D01*
X029210Y033222D01*
X029836Y033222D01*
X029995Y033381D02*
X029255Y033381D01*
X029210Y033222D02*
X029129Y033141D01*
X029022Y033097D01*
X028907Y033097D01*
X028800Y033141D01*
X028719Y033222D01*
X029448Y033539D02*
X030153Y033539D01*
X030312Y033698D02*
X029574Y033698D01*
X029587Y033856D02*
X030349Y033856D01*
X030372Y033847D02*
X030487Y033847D01*
X030594Y033891D01*
X030675Y033972D01*
X030720Y034079D01*
X030720Y034194D01*
X030675Y034301D01*
X030594Y034383D01*
X030487Y034427D01*
X030372Y034427D01*
X030265Y034383D01*
X030184Y034301D01*
X030140Y034194D01*
X030140Y034079D01*
X030184Y033972D01*
X030265Y033891D01*
X030372Y033847D01*
X030510Y033856D02*
X031415Y033856D01*
X031574Y034015D02*
X030693Y034015D01*
X030720Y034173D02*
X032109Y034173D01*
X031951Y034332D02*
X030645Y034332D01*
X030214Y034332D02*
X029480Y034332D01*
X029480Y034173D02*
X030140Y034173D01*
X030166Y034015D02*
X029487Y034015D01*
X029548Y034490D02*
X031792Y034490D01*
X032379Y034966D02*
X032671Y034966D01*
X032717Y034947D02*
X032832Y034947D01*
X032939Y034991D01*
X033020Y035072D01*
X033065Y035179D01*
X033065Y035294D01*
X033020Y035401D01*
X032939Y035483D01*
X032832Y035527D01*
X032717Y035527D01*
X032610Y035483D01*
X032529Y035401D01*
X032485Y035294D01*
X032485Y035179D01*
X032529Y035072D01*
X032610Y034991D01*
X032717Y034947D01*
X032729Y034807D02*
X037475Y034807D01*
X037475Y034649D02*
X036444Y034649D01*
X036412Y034662D02*
X036297Y034662D01*
X036190Y034618D01*
X036109Y034536D01*
X036065Y034429D01*
X036065Y034314D01*
X036109Y034207D01*
X036190Y034126D01*
X036297Y034082D01*
X036412Y034082D01*
X036519Y034126D01*
X036600Y034207D01*
X036645Y034314D01*
X036645Y034429D01*
X036600Y034536D01*
X036519Y034618D01*
X036412Y034662D01*
X036266Y034649D02*
X032820Y034649D01*
X032799Y034490D02*
X036090Y034490D01*
X036065Y034332D02*
X032799Y034332D01*
X032660Y034332D02*
X032648Y034332D01*
X032991Y034173D02*
X033364Y034173D01*
X033545Y034173D02*
X034121Y034173D01*
X034019Y034015D02*
X033720Y034015D01*
X033745Y033856D02*
X034028Y033856D01*
X034488Y034173D02*
X036143Y034173D01*
X036566Y034173D02*
X037475Y034173D01*
X037475Y034015D02*
X035097Y034015D01*
X035145Y033856D02*
X037475Y033856D01*
X037475Y033698D02*
X035107Y033698D01*
X035045Y033539D02*
X037475Y033539D01*
X037475Y033381D02*
X032314Y033381D01*
X032413Y033539D02*
X032428Y033539D01*
X031935Y033381D02*
X031677Y033381D01*
X031532Y033381D02*
X031239Y033381D01*
X031636Y033539D02*
X031836Y033539D01*
X031866Y033222D02*
X037475Y033222D01*
X037475Y033064D02*
X034698Y033064D01*
X034700Y033061D02*
X034619Y033143D01*
X034512Y033187D01*
X034397Y033187D01*
X034290Y033143D01*
X034209Y033061D01*
X034165Y032954D01*
X034165Y032839D01*
X034209Y032732D01*
X034290Y032651D01*
X034397Y032607D01*
X034512Y032607D01*
X034619Y032651D01*
X034700Y032732D01*
X034745Y032839D01*
X034745Y032954D01*
X034700Y033061D01*
X034745Y032905D02*
X037475Y032905D01*
X037475Y032747D02*
X034706Y032747D01*
X034203Y032747D02*
X032073Y032747D01*
X031915Y032905D02*
X034165Y032905D01*
X034211Y033064D02*
X031895Y033064D01*
X032232Y032588D02*
X037475Y032588D01*
X037475Y032430D02*
X032390Y032430D01*
X032549Y032271D02*
X037475Y032271D01*
X037475Y032113D02*
X032707Y032113D01*
X032866Y031954D02*
X037475Y031954D01*
X037475Y031796D02*
X033024Y031796D01*
X033183Y031637D02*
X033649Y031637D01*
X034160Y031637D02*
X037475Y031637D01*
X037475Y031479D02*
X034195Y031479D01*
X034138Y031320D02*
X037475Y031320D01*
X037475Y031162D02*
X034260Y031162D01*
X034295Y031003D02*
X037475Y031003D01*
X037475Y030845D02*
X034238Y030845D01*
X033938Y030686D02*
X037475Y030686D01*
X037475Y030528D02*
X028143Y030528D01*
X028302Y030369D02*
X037475Y030369D01*
X037475Y030211D02*
X028460Y030211D01*
X028619Y030052D02*
X037475Y030052D01*
X037475Y029894D02*
X032197Y029894D01*
X031817Y029894D02*
X031098Y029894D01*
X030731Y029894D02*
X029058Y029894D01*
X029120Y029735D02*
X030629Y029735D01*
X030638Y029577D02*
X029087Y029577D01*
X028683Y029418D02*
X030735Y029418D01*
X030735Y029260D02*
X028370Y029260D01*
X028333Y029101D02*
X030735Y029101D01*
X030735Y028943D02*
X029867Y028943D01*
X029904Y028928D02*
X029797Y028972D01*
X029682Y028972D01*
X029575Y028928D01*
X029494Y028846D01*
X029450Y028739D01*
X029450Y028624D01*
X029494Y028517D01*
X029575Y028436D01*
X029682Y028392D01*
X029797Y028392D01*
X029904Y028436D01*
X029985Y028517D01*
X030030Y028624D01*
X030030Y028739D01*
X029985Y028846D01*
X029904Y028928D01*
X030011Y028784D02*
X030735Y028784D01*
X030735Y028626D02*
X030030Y028626D01*
X029935Y028467D02*
X030735Y028467D01*
X030637Y028309D02*
X028388Y028309D01*
X028543Y028150D02*
X030478Y028150D01*
X030320Y027992D02*
X028565Y027992D01*
X028161Y028309D02*
X028100Y028309D01*
X027589Y028309D02*
X024711Y028309D01*
X024870Y028467D02*
X029544Y028467D01*
X029450Y028626D02*
X025028Y028626D01*
X025055Y028784D02*
X029468Y028784D01*
X029612Y028943D02*
X025055Y028943D01*
X025055Y029101D02*
X027826Y029101D01*
X027790Y029260D02*
X025055Y029260D01*
X025055Y029418D02*
X027653Y029418D01*
X027550Y029577D02*
X025890Y029577D01*
X026000Y029735D02*
X027550Y029735D01*
X026755Y030377D02*
X025664Y030377D01*
X025638Y030403D01*
X025644Y030406D01*
X025725Y030487D01*
X025770Y030594D01*
X025770Y030709D01*
X025725Y030816D01*
X025644Y030898D01*
X025537Y030942D01*
X025422Y030942D01*
X025315Y030898D01*
X025234Y030816D01*
X025190Y030709D01*
X025190Y030622D01*
X024919Y030622D01*
X023674Y031867D01*
X024735Y031867D01*
X024884Y031867D01*
X025179Y032162D01*
X025285Y032267D01*
X025285Y032362D01*
X025355Y032432D01*
X025400Y032539D01*
X025400Y032654D01*
X025355Y032761D01*
X025274Y032843D01*
X025167Y032887D01*
X025052Y032887D01*
X024945Y032843D01*
X024907Y032804D01*
X024849Y032863D01*
X024742Y032907D01*
X024627Y032907D01*
X024520Y032863D01*
X024452Y032794D01*
X024444Y032803D01*
X024337Y032847D01*
X024222Y032847D01*
X024115Y032803D01*
X024054Y032741D01*
X024035Y032786D01*
X023954Y032868D01*
X023847Y032912D01*
X023732Y032912D01*
X023687Y032893D01*
X023396Y033185D01*
X023452Y033162D01*
X023567Y033162D01*
X023674Y033206D01*
X023755Y033287D01*
X023800Y033394D01*
X023800Y033509D01*
X023755Y033616D01*
X023729Y033642D01*
X023739Y033646D01*
X023820Y033727D01*
X023859Y033822D01*
X024020Y033822D01*
X024410Y033432D01*
X025555Y033432D01*
X026630Y032357D01*
X026630Y031177D01*
X026735Y031072D01*
X027080Y030727D01*
X027080Y030727D01*
X026987Y030727D01*
X026880Y030683D01*
X026799Y030601D01*
X026755Y030494D01*
X026755Y030379D01*
X026755Y030377D01*
X026768Y030528D02*
X025742Y030528D01*
X025770Y030686D02*
X026889Y030686D01*
X026962Y030845D02*
X025697Y030845D01*
X025262Y030845D02*
X024696Y030845D01*
X024538Y031003D02*
X026803Y031003D01*
X026645Y031162D02*
X024379Y031162D01*
X024221Y031320D02*
X026630Y031320D01*
X026630Y031479D02*
X024062Y031479D01*
X023904Y031637D02*
X026630Y031637D01*
X026630Y031796D02*
X023745Y031796D01*
X022834Y032097D02*
X022174Y032097D01*
X021424Y032847D01*
X018959Y032847D01*
X018835Y032971D01*
X018835Y034332D01*
X020620Y034332D01*
X020461Y034490D02*
X018939Y034490D01*
X018945Y034504D02*
X018945Y034619D01*
X018900Y034726D01*
X018865Y034762D01*
X018905Y034802D01*
X018950Y034909D01*
X018950Y035024D01*
X018905Y035131D01*
X018824Y035213D01*
X018717Y035257D01*
X018602Y035257D01*
X018495Y035213D01*
X018414Y035131D01*
X018370Y035024D01*
X018370Y034936D01*
X018185Y034751D01*
X018185Y034452D01*
X018112Y034452D01*
X018035Y034420D01*
X018035Y036617D01*
X023600Y036617D01*
X023465Y036481D01*
X023465Y036297D01*
X023980Y036297D01*
X023980Y036197D01*
X023465Y036197D01*
X023465Y036013D01*
X023686Y035791D01*
X023455Y035560D01*
X023455Y035083D01*
X023679Y034859D01*
X023455Y034635D01*
X023455Y034191D01*
X023130Y034516D01*
X023130Y034609D01*
X023085Y034716D01*
X023004Y034798D01*
X022983Y034806D01*
X023185Y035007D01*
X023185Y035496D01*
X023039Y035642D01*
X023055Y035679D01*
X023055Y035794D01*
X023010Y035901D01*
X022929Y035983D01*
X022822Y036027D01*
X022707Y036027D01*
X022600Y035983D01*
X022519Y035901D01*
X022475Y035794D01*
X022475Y035679D01*
X022519Y035572D01*
X022600Y035491D01*
X022620Y035483D01*
X022535Y035448D01*
X022454Y035366D01*
X022410Y035259D01*
X022410Y035144D01*
X022454Y035037D01*
X022487Y035004D01*
X021870Y034386D01*
X021870Y033591D01*
X019390Y036071D01*
X019390Y036164D01*
X019345Y036271D01*
X019264Y036353D01*
X019157Y036397D01*
X019042Y036397D01*
X018935Y036353D01*
X018854Y036271D01*
X018810Y036164D01*
X018810Y036049D01*
X018854Y035942D01*
X018935Y035861D01*
X019042Y035817D01*
X019135Y035817D01*
X021545Y033407D01*
X021545Y033247D01*
X021479Y033181D01*
X021435Y033074D01*
X021435Y032959D01*
X021479Y032852D01*
X021560Y032771D01*
X021667Y032727D01*
X021782Y032727D01*
X021889Y032771D01*
X021970Y032852D01*
X022015Y032959D01*
X022015Y033074D01*
X021970Y033181D01*
X021905Y033247D01*
X021905Y033522D01*
X021975Y033452D01*
X022913Y032514D01*
X022910Y032513D01*
X022829Y032431D01*
X022785Y032324D01*
X022785Y032209D01*
X022829Y032102D01*
X022834Y032097D01*
X022824Y032113D02*
X022158Y032113D01*
X022000Y032271D02*
X022785Y032271D01*
X022828Y032430D02*
X021841Y032430D01*
X021683Y032588D02*
X022838Y032588D01*
X022680Y032747D02*
X021831Y032747D01*
X021618Y032747D02*
X021524Y032747D01*
X021457Y032905D02*
X018901Y032905D01*
X018835Y033064D02*
X021435Y033064D01*
X021520Y033222D02*
X018835Y033222D01*
X018835Y033381D02*
X021545Y033381D01*
X021412Y033539D02*
X018835Y033539D01*
X018835Y033698D02*
X021254Y033698D01*
X021095Y033856D02*
X018835Y033856D01*
X018835Y034015D02*
X020937Y034015D01*
X020778Y034173D02*
X018835Y034173D01*
X018835Y034332D02*
X018900Y034397D01*
X018945Y034504D01*
X018932Y034649D02*
X020303Y034649D01*
X020144Y034807D02*
X018907Y034807D01*
X018950Y034966D02*
X019986Y034966D01*
X019827Y035124D02*
X018908Y035124D01*
X018411Y035124D02*
X018035Y035124D01*
X018035Y034966D02*
X018370Y034966D01*
X018240Y034807D02*
X018035Y034807D01*
X018035Y034649D02*
X018185Y034649D01*
X018185Y034490D02*
X018035Y034490D01*
X018035Y033904D02*
X018112Y033872D01*
X018227Y033872D01*
X018290Y033897D01*
X018290Y032981D01*
X018285Y032976D01*
X018285Y032827D01*
X018390Y032722D01*
X018755Y032357D01*
X021220Y032357D01*
X021230Y032347D01*
X021252Y032324D01*
X021174Y032246D01*
X021130Y032139D01*
X021130Y032024D01*
X021174Y031917D01*
X021255Y031836D01*
X021362Y031792D01*
X021477Y031792D01*
X021564Y031828D01*
X022165Y031227D01*
X022114Y031176D01*
X022070Y031069D01*
X022070Y030954D01*
X022114Y030847D01*
X022195Y030766D01*
X022302Y030722D01*
X022417Y030722D01*
X022524Y030766D01*
X022605Y030847D01*
X022650Y031003D02*
X023668Y031003D01*
X024144Y030528D02*
X020860Y030528D01*
X020820Y030369D02*
X024302Y030369D01*
X024461Y030211D02*
X020810Y030211D01*
X020815Y030686D02*
X020734Y030768D01*
X020627Y030812D01*
X020512Y030812D01*
X020405Y030768D01*
X020324Y030686D01*
X020225Y030686D01*
X020250Y030661D02*
X020169Y030743D01*
X020062Y030787D01*
X019947Y030787D01*
X019840Y030743D01*
X019759Y030661D01*
X019715Y030554D01*
X019715Y030439D01*
X019759Y030332D01*
X019825Y030267D01*
X019825Y029257D01*
X019970Y029112D01*
X020075Y029007D01*
X020568Y029007D01*
X020562Y028992D01*
X020166Y028992D01*
X019905Y028730D01*
X019643Y028992D01*
X019166Y028992D01*
X018897Y028723D01*
X018639Y028982D01*
X018455Y028982D01*
X018455Y028467D01*
X018355Y028467D01*
X018355Y028982D01*
X018170Y028982D01*
X018035Y028846D01*
X018035Y033904D01*
X018035Y033856D02*
X018290Y033856D01*
X018290Y033698D02*
X018035Y033698D01*
X018035Y033539D02*
X018290Y033539D01*
X018290Y033381D02*
X018035Y033381D01*
X018035Y033222D02*
X018290Y033222D01*
X018290Y033064D02*
X018035Y033064D01*
X018035Y032905D02*
X018285Y032905D01*
X018365Y032747D02*
X018035Y032747D01*
X018035Y032588D02*
X018523Y032588D01*
X018682Y032430D02*
X018035Y032430D01*
X018035Y032271D02*
X021199Y032271D01*
X021130Y032113D02*
X018035Y032113D01*
X018035Y031954D02*
X021158Y031954D01*
X021352Y031796D02*
X018035Y031796D01*
X018035Y031637D02*
X021754Y031637D01*
X021596Y031796D02*
X021487Y031796D01*
X021913Y031479D02*
X018035Y031479D01*
X018035Y031320D02*
X022071Y031320D01*
X022108Y031162D02*
X018035Y031162D01*
X018035Y031003D02*
X022070Y031003D01*
X022116Y030845D02*
X018035Y030845D01*
X018035Y030686D02*
X019784Y030686D01*
X019715Y030528D02*
X018035Y030528D01*
X018035Y030369D02*
X019743Y030369D01*
X019825Y030211D02*
X018035Y030211D01*
X018035Y030052D02*
X019825Y030052D01*
X019825Y029894D02*
X018035Y029894D01*
X018035Y029735D02*
X019825Y029735D01*
X019825Y029577D02*
X018035Y029577D01*
X018035Y029418D02*
X019825Y029418D01*
X019825Y029260D02*
X018035Y029260D01*
X018035Y029101D02*
X019980Y029101D01*
X020117Y028943D02*
X019692Y028943D01*
X019850Y028784D02*
X019959Y028784D01*
X019117Y028943D02*
X018678Y028943D01*
X018455Y028943D02*
X018355Y028943D01*
X018355Y028784D02*
X018455Y028784D01*
X018455Y028626D02*
X018355Y028626D01*
X018355Y028467D02*
X018455Y028467D01*
X018455Y028367D02*
X018455Y027467D01*
X018355Y027467D01*
X018355Y027982D01*
X018355Y028367D01*
X018455Y028367D01*
X018455Y028309D02*
X018355Y028309D01*
X018355Y028150D02*
X018455Y028150D01*
X018455Y027992D02*
X018355Y027992D01*
X018355Y027833D02*
X018455Y027833D01*
X018455Y027675D02*
X018355Y027675D01*
X018355Y027516D02*
X018455Y027516D01*
X018455Y027367D02*
X018455Y026467D01*
X018355Y026467D01*
X018355Y026982D01*
X018355Y027367D01*
X018455Y027367D01*
X018455Y027358D02*
X018355Y027358D01*
X018355Y027199D02*
X018455Y027199D01*
X018455Y027041D02*
X018355Y027041D01*
X018355Y026882D02*
X018455Y026882D01*
X018455Y026724D02*
X018355Y026724D01*
X018355Y026565D02*
X018455Y026565D01*
X018455Y026248D02*
X018355Y026248D01*
X018355Y026090D02*
X018455Y026090D01*
X018455Y025931D02*
X018355Y025931D01*
X018091Y025931D02*
X018035Y025931D01*
X018035Y025773D02*
X024286Y025773D01*
X024323Y025931D02*
X020732Y025931D01*
X020891Y026090D02*
X024201Y026090D01*
X024127Y025614D02*
X018035Y025614D01*
X018035Y025456D02*
X023969Y025456D01*
X023810Y025297D02*
X018035Y025297D01*
X018035Y025139D02*
X023652Y025139D01*
X023493Y024980D02*
X018035Y024980D01*
X018035Y024822D02*
X023335Y024822D01*
X023176Y024663D02*
X018035Y024663D01*
X018035Y024505D02*
X023018Y024505D01*
X022859Y024346D02*
X018035Y024346D01*
X018035Y024188D02*
X022790Y024188D01*
X022790Y024029D02*
X018035Y024029D01*
X018035Y023871D02*
X022790Y023871D01*
X022725Y023712D02*
X018035Y023712D01*
X018035Y023554D02*
X022680Y023554D01*
X022718Y023395D02*
X018035Y023395D01*
X018035Y023237D02*
X024595Y023237D01*
X024595Y023395D02*
X023221Y023395D01*
X023260Y023554D02*
X024595Y023554D01*
X024595Y023712D02*
X023214Y023712D01*
X023150Y023871D02*
X024595Y023871D01*
X024595Y024029D02*
X023731Y024029D01*
X023775Y024188D02*
X024751Y024188D01*
X024825Y024346D02*
X023919Y024346D01*
X024077Y024505D02*
X024912Y024505D01*
X025317Y024505D02*
X029292Y024505D01*
X029133Y024663D02*
X024236Y024663D01*
X024394Y024822D02*
X028975Y024822D01*
X028816Y024980D02*
X024553Y024980D01*
X024711Y025139D02*
X028690Y025139D01*
X028690Y025297D02*
X024870Y025297D01*
X025028Y025456D02*
X025360Y025456D01*
X025779Y025456D02*
X028690Y025456D01*
X028690Y025614D02*
X025860Y025614D01*
X025835Y025773D02*
X028690Y025773D01*
X028690Y025931D02*
X025665Y025931D01*
X025474Y025931D02*
X024856Y025931D01*
X024836Y025773D02*
X024770Y025773D01*
X024677Y025614D02*
X024637Y025614D01*
X024519Y025456D02*
X024478Y025456D01*
X024360Y025297D02*
X024320Y025297D01*
X024202Y025139D02*
X024161Y025139D01*
X024043Y024980D02*
X024003Y024980D01*
X023885Y024822D02*
X023844Y024822D01*
X023726Y024663D02*
X023686Y024663D01*
X023568Y024505D02*
X023527Y024505D01*
X023238Y024029D02*
X023150Y024029D01*
X024595Y023078D02*
X018035Y023078D01*
X018035Y022920D02*
X024595Y022920D01*
X024595Y022761D02*
X018035Y022761D01*
X018035Y022603D02*
X024595Y022603D01*
X024595Y022444D02*
X018035Y022444D01*
X018035Y022286D02*
X024595Y022286D01*
X024595Y022127D02*
X018035Y022127D01*
X018035Y021969D02*
X020106Y021969D01*
X020115Y021978D02*
X020034Y021896D01*
X019990Y021789D01*
X019990Y021674D01*
X020034Y021567D01*
X020115Y021486D01*
X020222Y021442D01*
X020337Y021442D01*
X020444Y021486D01*
X020525Y021567D01*
X020570Y021674D01*
X020570Y021789D01*
X020525Y021896D01*
X020444Y021978D01*
X020337Y022022D01*
X020222Y022022D01*
X020115Y021978D01*
X019998Y021810D02*
X018035Y021810D01*
X018035Y021652D02*
X019999Y021652D01*
X020108Y021493D02*
X018035Y021493D01*
X018035Y021335D02*
X024595Y021335D01*
X024595Y021493D02*
X024176Y021493D01*
X024149Y021466D02*
X024230Y021547D01*
X024275Y021654D01*
X024275Y021769D01*
X024230Y021876D01*
X024149Y021958D01*
X024042Y022002D01*
X023927Y022002D01*
X023820Y021958D01*
X023739Y021876D01*
X023695Y021769D01*
X023695Y021654D01*
X023739Y021547D01*
X023820Y021466D01*
X023927Y021422D01*
X024042Y021422D01*
X024149Y021466D01*
X024274Y021652D02*
X024595Y021652D01*
X024595Y021810D02*
X024258Y021810D01*
X024122Y021969D02*
X024595Y021969D01*
X025215Y021969D02*
X031828Y021969D01*
X031669Y022127D02*
X027698Y022127D01*
X027697Y022127D02*
X027804Y022171D01*
X027885Y022252D01*
X027930Y022359D01*
X027930Y022474D01*
X027885Y022581D01*
X027850Y022617D01*
X027885Y022652D01*
X027930Y022759D01*
X027930Y022874D01*
X027885Y022981D01*
X027804Y023063D01*
X027697Y023107D01*
X027582Y023107D01*
X027475Y023063D01*
X027394Y022981D01*
X027350Y022874D01*
X027350Y022759D01*
X027394Y022652D01*
X027429Y022617D01*
X027394Y022581D01*
X027350Y022474D01*
X027350Y022359D01*
X027394Y022252D01*
X027475Y022171D01*
X027582Y022127D01*
X027697Y022127D01*
X027581Y022127D02*
X025215Y022127D01*
X025215Y022286D02*
X027380Y022286D01*
X027350Y022444D02*
X025215Y022444D01*
X025215Y022603D02*
X027415Y022603D01*
X027350Y022761D02*
X025215Y022761D01*
X025215Y022920D02*
X027368Y022920D01*
X027513Y023078D02*
X025936Y023078D01*
X026020Y023237D02*
X030560Y023237D01*
X030401Y023395D02*
X027438Y023395D01*
X027419Y023376D02*
X027500Y023457D01*
X027545Y023564D01*
X027545Y023679D01*
X027500Y023786D01*
X027419Y023868D01*
X027312Y023912D01*
X027197Y023912D01*
X027090Y023868D01*
X027009Y023786D01*
X026965Y023679D01*
X026965Y023564D01*
X027009Y023457D01*
X027090Y023376D01*
X027197Y023332D01*
X027312Y023332D01*
X027419Y023376D01*
X027540Y023554D02*
X030243Y023554D01*
X030084Y023712D02*
X027531Y023712D01*
X027411Y023871D02*
X029926Y023871D01*
X029767Y024029D02*
X025467Y024029D01*
X025383Y024188D02*
X029609Y024188D01*
X029450Y024346D02*
X025405Y024346D01*
X025736Y023871D02*
X027098Y023871D01*
X026978Y023712D02*
X025833Y023712D01*
X025831Y023554D02*
X026969Y023554D01*
X027071Y023395D02*
X025996Y023395D01*
X025523Y023078D02*
X025226Y023078D01*
X025384Y023237D02*
X025440Y023237D01*
X025215Y021810D02*
X031986Y021810D01*
X032261Y022409D02*
X030822Y023848D01*
X030889Y023876D01*
X030916Y023903D01*
X030919Y023897D01*
X031000Y023816D01*
X031107Y023772D01*
X031222Y023772D01*
X031329Y023816D01*
X031410Y023897D01*
X031430Y023946D01*
X031470Y023906D01*
X031577Y023862D01*
X031665Y023862D01*
X031650Y023847D01*
X031557Y023847D01*
X031450Y023803D01*
X031369Y023721D01*
X031325Y023614D01*
X031325Y023499D01*
X031369Y023392D01*
X031450Y023311D01*
X031557Y023267D01*
X031672Y023267D01*
X031779Y023311D01*
X031860Y023392D01*
X031866Y023405D01*
X031880Y023391D01*
X031987Y023347D01*
X032102Y023347D01*
X032209Y023391D01*
X032275Y023457D01*
X033939Y023457D01*
X034130Y023647D01*
X034130Y022861D01*
X033920Y022652D01*
X032780Y022652D01*
X032714Y022718D01*
X032607Y022762D01*
X032492Y022762D01*
X032385Y022718D01*
X032304Y022636D01*
X032260Y022529D01*
X032260Y022414D01*
X032261Y022409D01*
X032260Y022444D02*
X032227Y022444D01*
X032290Y022603D02*
X032068Y022603D01*
X031910Y022761D02*
X032491Y022761D01*
X032608Y022761D02*
X034029Y022761D01*
X034130Y022920D02*
X031751Y022920D01*
X031593Y023078D02*
X034130Y023078D01*
X034130Y023237D02*
X031434Y023237D01*
X031368Y023395D02*
X031276Y023395D01*
X031325Y023554D02*
X031117Y023554D01*
X030959Y023712D02*
X031365Y023712D01*
X031384Y023871D02*
X031555Y023871D01*
X031862Y023395D02*
X031876Y023395D01*
X032213Y023395D02*
X034130Y023395D01*
X034130Y023554D02*
X034036Y023554D01*
X033579Y024346D02*
X032540Y024346D01*
X032381Y024505D02*
X033738Y024505D01*
X033840Y024663D02*
X031908Y024663D01*
X031918Y025139D02*
X033840Y025139D01*
X033840Y025297D02*
X032086Y025297D01*
X032110Y025456D02*
X033840Y025456D01*
X033840Y025614D02*
X033017Y025614D01*
X033068Y025773D02*
X033840Y025773D01*
X033840Y025931D02*
X033045Y025931D01*
X032981Y026090D02*
X033801Y026090D01*
X033696Y026248D02*
X033053Y026248D01*
X033058Y026307D02*
X032720Y026307D01*
X033058Y026307D01*
X033044Y026407D02*
X033701Y026407D01*
X033813Y026565D02*
X032956Y026565D01*
X033048Y026724D02*
X034482Y026724D01*
X034323Y026565D02*
X034146Y026565D01*
X035166Y025857D02*
X036154Y025857D01*
X037259Y026962D01*
X037352Y026962D01*
X037459Y027006D01*
X037475Y027022D01*
X037475Y024326D01*
X037314Y024487D01*
X037130Y024487D01*
X037130Y023972D01*
X037030Y023972D01*
X037030Y024487D01*
X036845Y024487D01*
X036587Y024228D01*
X036318Y024497D01*
X035841Y024497D01*
X035580Y024235D01*
X035318Y024497D01*
X035060Y024497D01*
X035060Y025562D01*
X035125Y025627D01*
X035170Y025734D01*
X035170Y025849D01*
X035166Y025857D01*
X035170Y025773D02*
X037475Y025773D01*
X037475Y025931D02*
X036229Y025931D01*
X036387Y026090D02*
X037475Y026090D01*
X037475Y026248D02*
X036546Y026248D01*
X036704Y026407D02*
X037475Y026407D01*
X037475Y026565D02*
X036863Y026565D01*
X037021Y026724D02*
X037475Y026724D01*
X037475Y026882D02*
X037180Y026882D01*
X036406Y027358D02*
X033068Y027358D01*
X033052Y027199D02*
X036247Y027199D01*
X036089Y027041D02*
X032964Y027041D01*
X033049Y026882D02*
X035930Y026882D01*
X036480Y027516D02*
X033002Y027516D01*
X033031Y027675D02*
X036563Y027675D01*
X036605Y027833D02*
X033058Y027833D01*
X033003Y027992D02*
X033975Y027992D01*
X033854Y028150D02*
X032300Y028150D01*
X032139Y028150D02*
X031585Y028150D01*
X031585Y028309D02*
X033843Y028309D01*
X033693Y028467D02*
X033230Y028467D01*
X033270Y028507D02*
X033315Y028614D01*
X033315Y028729D01*
X033270Y028836D01*
X033189Y028918D01*
X033082Y028962D01*
X032967Y028962D01*
X032860Y028918D01*
X032779Y028836D01*
X032735Y028729D01*
X032735Y028614D01*
X032779Y028507D01*
X032860Y028426D01*
X032967Y028382D01*
X033082Y028382D01*
X033189Y028426D01*
X033270Y028507D01*
X033315Y028626D02*
X033660Y028626D01*
X033717Y028784D02*
X033292Y028784D01*
X033128Y028943D02*
X033659Y028943D01*
X033500Y029101D02*
X032399Y029101D01*
X032240Y028943D02*
X032921Y028943D01*
X032757Y028784D02*
X032082Y028784D01*
X031585Y028626D02*
X032735Y028626D01*
X032819Y028467D02*
X031585Y028467D01*
X031225Y028150D02*
X031173Y028150D01*
X031225Y027992D02*
X031014Y027992D01*
X030856Y027833D02*
X031225Y027833D01*
X031225Y027675D02*
X030697Y027675D01*
X030719Y027516D02*
X030539Y027516D01*
X030645Y027358D02*
X030380Y027358D01*
X030277Y027199D02*
X030671Y027199D01*
X031150Y027516D02*
X031219Y027516D01*
X031870Y027992D02*
X031919Y027992D01*
X032720Y027992D02*
X032720Y027992D01*
X032720Y027833D02*
X032720Y027833D01*
X032720Y026807D02*
X033058Y026807D01*
X032720Y026807D01*
X032720Y026807D01*
X032720Y026469D01*
X032720Y026307D01*
X032720Y026307D01*
X032720Y026307D01*
X032720Y026807D01*
X032720Y026807D01*
X032720Y026724D02*
X032720Y026724D01*
X032720Y026565D02*
X032720Y026565D01*
X032720Y026407D02*
X032720Y026407D01*
X031977Y026557D02*
X031924Y026609D01*
X031871Y026737D01*
X031871Y026876D01*
X031872Y026877D01*
X031489Y026877D01*
X031050Y026437D01*
X030944Y026332D01*
X030895Y026332D01*
X030819Y026256D01*
X030770Y026236D01*
X031019Y025987D01*
X031917Y025987D01*
X031924Y026004D01*
X031977Y026057D01*
X031924Y026109D01*
X031871Y026237D01*
X031871Y026376D01*
X031924Y026504D01*
X031977Y026557D01*
X031969Y026565D02*
X031178Y026565D01*
X031336Y026724D02*
X031877Y026724D01*
X031884Y026407D02*
X031019Y026407D01*
X030800Y026248D02*
X031871Y026248D01*
X031944Y026090D02*
X030916Y026090D01*
X030724Y025773D02*
X029670Y025773D01*
X029670Y025931D02*
X030565Y025931D01*
X030407Y026090D02*
X029670Y026090D01*
X029670Y026248D02*
X030040Y026248D01*
X029881Y026407D02*
X029670Y026407D01*
X029670Y026565D02*
X029860Y026565D01*
X029932Y026724D02*
X029562Y026724D01*
X029404Y026882D02*
X029824Y026882D01*
X029823Y027041D02*
X029349Y027041D01*
X029420Y027199D02*
X029932Y027199D01*
X028651Y026724D02*
X026062Y026724D01*
X026110Y026882D02*
X028554Y026882D01*
X028456Y027041D02*
X026072Y027041D01*
X026002Y027199D02*
X020980Y027199D01*
X021072Y027041D02*
X025567Y027041D01*
X025530Y026882D02*
X021100Y026882D01*
X021027Y026724D02*
X024087Y026724D01*
X024038Y027833D02*
X023306Y027833D01*
X023183Y027833D02*
X022971Y027833D01*
X022548Y027833D02*
X022361Y027833D01*
X023505Y027992D02*
X023932Y027992D01*
X023935Y028150D02*
X023535Y028150D01*
X023468Y028309D02*
X024046Y028309D01*
X024360Y028467D02*
X023140Y028467D01*
X023215Y028626D02*
X024519Y028626D01*
X024677Y028784D02*
X023188Y028784D01*
X023105Y028943D02*
X024695Y028943D01*
X024695Y029101D02*
X022960Y029101D01*
X022801Y029260D02*
X024695Y029260D01*
X024695Y029418D02*
X023530Y029418D01*
X023659Y029577D02*
X024695Y029577D01*
X024750Y029735D02*
X023672Y029735D01*
X023573Y029894D02*
X024750Y029894D01*
X024619Y030052D02*
X021738Y030052D01*
X021775Y029894D02*
X023196Y029894D01*
X023239Y029418D02*
X022643Y029418D01*
X021704Y029577D02*
X021665Y029616D01*
X021665Y029677D01*
X021730Y029742D01*
X020282Y030585D02*
X020250Y030661D01*
X020324Y030686D02*
X020282Y030585D01*
X018132Y028943D02*
X018035Y028943D01*
X018836Y028784D02*
X018959Y028784D01*
X018918Y026090D02*
X018877Y026090D01*
X018718Y025931D02*
X019077Y025931D01*
X019732Y025931D02*
X020077Y025931D01*
X019918Y026090D02*
X019891Y026090D01*
X024391Y027833D02*
X025470Y027833D01*
X025564Y027992D02*
X024497Y027992D01*
X024553Y028150D02*
X027555Y028150D01*
X027609Y027992D02*
X025955Y027992D01*
X026050Y027833D02*
X027665Y027833D01*
X027822Y027675D02*
X026347Y027675D01*
X026458Y027516D02*
X027980Y027516D01*
X028139Y027358D02*
X026463Y027358D01*
X026357Y027199D02*
X028471Y027199D01*
X028580Y026565D02*
X025916Y026565D01*
X025990Y026407D02*
X028607Y026407D01*
X028690Y026248D02*
X025962Y026248D01*
X025777Y026090D02*
X028690Y026090D01*
X029670Y025614D02*
X031612Y025614D01*
X031530Y025456D02*
X029670Y025456D01*
X029670Y025297D02*
X031553Y025297D01*
X031721Y025139D02*
X029670Y025139D01*
X029691Y024980D02*
X033840Y024980D01*
X033840Y024822D02*
X029849Y024822D01*
X030008Y024663D02*
X031011Y024663D01*
X030950Y024601D02*
X030950Y024601D01*
X030853Y024505D02*
X030166Y024505D01*
X030325Y024346D02*
X030539Y024346D01*
X030876Y023871D02*
X030945Y023871D01*
X030718Y023078D02*
X027766Y023078D01*
X027911Y022920D02*
X030877Y022920D01*
X031035Y022761D02*
X027930Y022761D01*
X027864Y022603D02*
X031194Y022603D01*
X031352Y022444D02*
X027930Y022444D01*
X027899Y022286D02*
X031511Y022286D01*
X032032Y020982D02*
X031925Y020938D01*
X031844Y020856D01*
X031800Y020749D01*
X031800Y020634D01*
X031844Y020527D01*
X031925Y020446D01*
X032032Y020402D01*
X032125Y020402D01*
X033725Y018802D01*
X033725Y018402D01*
X033659Y018336D01*
X033615Y018229D01*
X033615Y018114D01*
X033659Y018007D01*
X033740Y017926D01*
X033847Y017882D01*
X033962Y017882D01*
X034069Y017926D01*
X034150Y018007D01*
X034195Y018114D01*
X034195Y018229D01*
X034150Y018336D01*
X034085Y018402D01*
X034085Y018951D01*
X033979Y019057D01*
X032380Y020656D01*
X032380Y020749D01*
X032335Y020856D01*
X032254Y020938D01*
X032147Y020982D01*
X032032Y020982D01*
X031847Y020859D02*
X030337Y020859D01*
X030329Y020868D02*
X030222Y020912D01*
X030107Y020912D01*
X030000Y020868D01*
X029919Y020786D01*
X029875Y020679D01*
X029875Y020564D01*
X029919Y020457D01*
X030000Y020376D01*
X030107Y020332D01*
X030222Y020332D01*
X030329Y020376D01*
X030410Y020457D01*
X030455Y020564D01*
X030455Y020679D01*
X030410Y020786D01*
X030329Y020868D01*
X030446Y020701D02*
X031800Y020701D01*
X031838Y020542D02*
X030445Y020542D01*
X030337Y020384D02*
X032143Y020384D01*
X032301Y020225D02*
X026576Y020225D01*
X026417Y020384D02*
X029992Y020384D01*
X029884Y020542D02*
X025469Y020542D01*
X025310Y020701D02*
X029883Y020701D01*
X029992Y020859D02*
X025215Y020859D01*
X025215Y021018D02*
X037475Y021018D01*
X037475Y021176D02*
X034759Y021176D01*
X034550Y021176D02*
X025215Y021176D01*
X025215Y021335D02*
X034387Y021335D01*
X034365Y021493D02*
X025215Y021493D01*
X025215Y021652D02*
X034449Y021652D01*
X034922Y021335D02*
X037475Y021335D01*
X037475Y021493D02*
X037450Y021493D01*
X037130Y021493D02*
X037030Y021493D01*
X037030Y021652D02*
X037130Y021652D01*
X037130Y021810D02*
X037030Y021810D01*
X037030Y021972D02*
X037030Y022872D01*
X037130Y022872D01*
X037130Y022357D01*
X037130Y021972D01*
X037030Y021972D01*
X037030Y022127D02*
X037130Y022127D01*
X037130Y022286D02*
X037030Y022286D01*
X037030Y022444D02*
X037130Y022444D01*
X037130Y022603D02*
X037030Y022603D01*
X037030Y022761D02*
X037130Y022761D01*
X037130Y022972D02*
X037030Y022972D01*
X037030Y023872D01*
X037130Y023872D01*
X037130Y023357D01*
X037130Y022972D01*
X037130Y023078D02*
X037030Y023078D01*
X037030Y023237D02*
X037130Y023237D01*
X037130Y023395D02*
X037030Y023395D01*
X037030Y023554D02*
X037130Y023554D01*
X037130Y023712D02*
X037030Y023712D01*
X037030Y023871D02*
X037130Y023871D01*
X037130Y024029D02*
X037030Y024029D01*
X037030Y024188D02*
X037130Y024188D01*
X037130Y024346D02*
X037030Y024346D01*
X036705Y024346D02*
X036468Y024346D01*
X035691Y024346D02*
X035468Y024346D01*
X035060Y024505D02*
X037475Y024505D01*
X037475Y024663D02*
X035060Y024663D01*
X035060Y024822D02*
X037475Y024822D01*
X037475Y024980D02*
X035060Y024980D01*
X035060Y025139D02*
X037475Y025139D01*
X037475Y025297D02*
X035060Y025297D01*
X035060Y025456D02*
X037475Y025456D01*
X037475Y025614D02*
X035112Y025614D01*
X037454Y024346D02*
X037475Y024346D01*
X036709Y021493D02*
X036464Y021493D01*
X035695Y021493D02*
X035444Y021493D01*
X035408Y020492D02*
X035201Y020492D01*
X035010Y020413D01*
X034864Y020266D01*
X034797Y020106D01*
X034777Y020167D01*
X034741Y020239D01*
X034694Y020304D01*
X034637Y020361D01*
X034572Y020408D01*
X034500Y020444D01*
X034424Y020469D01*
X034345Y020482D01*
X034325Y020482D01*
X034325Y019992D01*
X034285Y019992D01*
X034285Y020482D01*
X034264Y020482D01*
X034185Y020469D01*
X034109Y020444D01*
X034037Y020408D01*
X033972Y020361D01*
X033916Y020304D01*
X033868Y020239D01*
X033832Y020167D01*
X033807Y020091D01*
X033795Y020012D01*
X033795Y019992D01*
X034285Y019992D01*
X034285Y019952D01*
X034325Y019952D01*
X034325Y019462D01*
X034345Y019462D01*
X034424Y019474D01*
X034500Y019499D01*
X034572Y019535D01*
X034637Y019583D01*
X034694Y019639D01*
X034741Y019704D01*
X034777Y019776D01*
X034797Y019838D01*
X034864Y019677D01*
X035010Y019531D01*
X035201Y019452D01*
X035408Y019452D01*
X035599Y019531D01*
X035745Y019677D01*
X035825Y019868D01*
X035825Y020075D01*
X035745Y020266D01*
X035599Y020413D01*
X035408Y020492D01*
X035628Y020384D02*
X037475Y020384D01*
X037475Y020542D02*
X032494Y020542D01*
X032380Y020701D02*
X037475Y020701D01*
X037475Y020859D02*
X032332Y020859D01*
X032652Y020384D02*
X034004Y020384D01*
X033861Y020225D02*
X032811Y020225D01*
X032969Y020067D02*
X033803Y020067D01*
X033795Y019952D02*
X033795Y019932D01*
X033807Y019852D01*
X033832Y019776D01*
X033868Y019704D01*
X033916Y019639D01*
X033972Y019583D01*
X034037Y019535D01*
X034109Y019499D01*
X034185Y019474D01*
X034264Y019462D01*
X034285Y019462D01*
X034285Y019952D01*
X033795Y019952D01*
X033798Y019908D02*
X033128Y019908D01*
X033286Y019750D02*
X033845Y019750D01*
X033964Y019591D02*
X033445Y019591D01*
X033603Y019433D02*
X036668Y019433D01*
X036706Y019395D02*
X036874Y019325D01*
X037055Y019325D01*
X037223Y019395D01*
X037352Y019523D01*
X037422Y019691D01*
X037422Y019873D01*
X037352Y020041D01*
X037223Y020170D01*
X037055Y020239D01*
X036874Y020239D01*
X036706Y020170D01*
X036577Y020041D01*
X036507Y019873D01*
X036507Y019691D01*
X036577Y019523D01*
X036706Y019395D01*
X036549Y019591D02*
X035659Y019591D01*
X035775Y019750D02*
X036507Y019750D01*
X036522Y019908D02*
X035825Y019908D01*
X035825Y020067D02*
X036602Y020067D01*
X036839Y020225D02*
X035762Y020225D01*
X034981Y020384D02*
X034605Y020384D01*
X034748Y020225D02*
X034847Y020225D01*
X034834Y019750D02*
X034764Y019750D01*
X034645Y019591D02*
X034950Y019591D01*
X034325Y019591D02*
X034285Y019591D01*
X034285Y019750D02*
X034325Y019750D01*
X034325Y019908D02*
X034285Y019908D01*
X034285Y020067D02*
X034325Y020067D01*
X034325Y020225D02*
X034285Y020225D01*
X034285Y020384D02*
X034325Y020384D01*
X033094Y019433D02*
X027350Y019433D01*
X027350Y019591D02*
X032935Y019591D01*
X032777Y019750D02*
X027350Y019750D01*
X027206Y019908D02*
X032618Y019908D01*
X032460Y020067D02*
X027048Y020067D01*
X027335Y019274D02*
X033252Y019274D01*
X033411Y019116D02*
X027177Y019116D01*
X027157Y018957D02*
X033569Y018957D01*
X033725Y018799D02*
X031323Y018799D01*
X031425Y018640D02*
X033725Y018640D01*
X033725Y018482D02*
X031416Y018482D01*
X031791Y018323D02*
X033653Y018323D01*
X033615Y018165D02*
X031830Y018165D01*
X031784Y018006D02*
X033660Y018006D01*
X034149Y018006D02*
X037475Y018006D01*
X037475Y017848D02*
X031422Y017848D01*
X031419Y017689D02*
X037475Y017689D01*
X037475Y017531D02*
X031788Y017531D01*
X031830Y017372D02*
X037475Y017372D01*
X037475Y017214D02*
X031788Y017214D01*
X030863Y018482D02*
X027350Y018482D01*
X027350Y018640D02*
X030854Y018640D01*
X030956Y018799D02*
X027316Y018799D01*
X027350Y018323D02*
X028888Y018323D01*
X028850Y018165D02*
X027226Y018165D01*
X027094Y018006D02*
X028895Y018006D01*
X029257Y017848D02*
X027253Y017848D01*
X027340Y017689D02*
X029260Y017689D01*
X028891Y017531D02*
X026825Y017531D01*
X026725Y017531D02*
X025825Y017531D01*
X025825Y017577D02*
X026725Y017577D01*
X026725Y017477D01*
X026210Y017477D01*
X025825Y017477D01*
X025825Y017577D01*
X025725Y017577D02*
X025725Y017477D01*
X025210Y017477D01*
X024825Y017477D01*
X024825Y017577D01*
X025725Y017577D01*
X025725Y017531D02*
X024825Y017531D01*
X024725Y017531D02*
X019590Y017531D01*
X019590Y017689D02*
X024210Y017689D01*
X024296Y017848D02*
X019590Y017848D01*
X019590Y018006D02*
X024455Y018006D01*
X024323Y018165D02*
X019590Y018165D01*
X019590Y018323D02*
X024200Y018323D01*
X024200Y018482D02*
X019590Y018482D01*
X019590Y018640D02*
X024200Y018640D01*
X024217Y018799D02*
X024233Y018799D01*
X024328Y018957D02*
X024392Y018957D01*
X024372Y019116D02*
X024333Y019116D01*
X024200Y019433D02*
X022057Y019433D01*
X022094Y019418D02*
X021987Y019462D01*
X021872Y019462D01*
X021765Y019418D01*
X021684Y019336D01*
X021640Y019229D01*
X021640Y019114D01*
X021684Y019007D01*
X021765Y018926D01*
X021872Y018882D01*
X021987Y018882D01*
X022094Y018926D01*
X022175Y019007D01*
X022220Y019114D01*
X022220Y019229D01*
X022175Y019336D01*
X022094Y019418D01*
X022201Y019274D02*
X023872Y019274D01*
X023766Y019116D02*
X022220Y019116D01*
X022125Y018957D02*
X023771Y018957D01*
X023882Y018799D02*
X019590Y018799D01*
X019590Y018957D02*
X021734Y018957D01*
X021640Y019116D02*
X019590Y019116D01*
X019590Y019274D02*
X021658Y019274D01*
X021802Y019433D02*
X019522Y019433D01*
X018035Y019591D02*
X024200Y019591D01*
X024200Y019750D02*
X018035Y019750D01*
X018035Y019908D02*
X024343Y019908D01*
X024501Y020067D02*
X018035Y020067D01*
X018035Y020225D02*
X024595Y020225D01*
X024595Y020384D02*
X018035Y020384D01*
X018035Y020542D02*
X024595Y020542D01*
X024595Y020701D02*
X023344Y020701D01*
X023375Y020732D02*
X023420Y020839D01*
X023420Y020954D01*
X023375Y021061D01*
X023294Y021143D01*
X023187Y021187D01*
X023072Y021187D01*
X022965Y021143D01*
X022884Y021061D01*
X022840Y020954D01*
X022840Y020839D01*
X022884Y020732D01*
X022965Y020651D01*
X023072Y020607D01*
X023187Y020607D01*
X023294Y020651D01*
X023375Y020732D01*
X023420Y020859D02*
X024595Y020859D01*
X024595Y021018D02*
X023393Y021018D01*
X023213Y021176D02*
X024595Y021176D01*
X023793Y021493D02*
X020451Y021493D01*
X020560Y021652D02*
X023695Y021652D01*
X023711Y021810D02*
X020561Y021810D01*
X020453Y021969D02*
X023847Y021969D01*
X023046Y021176D02*
X018035Y021176D01*
X018035Y021018D02*
X022866Y021018D01*
X022840Y020859D02*
X018035Y020859D01*
X018035Y020701D02*
X022915Y020701D01*
X024210Y017372D02*
X019590Y017372D01*
X019590Y017214D02*
X024288Y017214D01*
X027261Y017214D02*
X028891Y017214D01*
X028850Y017372D02*
X027340Y017372D01*
X029430Y018165D02*
X029650Y018165D01*
X029688Y018323D02*
X029391Y018323D01*
X030191Y018323D02*
X030488Y018323D01*
X030450Y018165D02*
X030230Y018165D01*
X033762Y019274D02*
X037475Y019274D01*
X037475Y019116D02*
X033920Y019116D01*
X034079Y018957D02*
X036674Y018957D01*
X036706Y018989D02*
X036577Y018860D01*
X036507Y018692D01*
X036507Y018510D01*
X036577Y018342D01*
X036706Y018214D01*
X036874Y018144D01*
X037055Y018144D01*
X037223Y018214D01*
X037352Y018342D01*
X037422Y018510D01*
X037422Y018692D01*
X037352Y018860D01*
X037223Y018989D01*
X037055Y019058D01*
X036874Y019058D01*
X036706Y018989D01*
X036552Y018799D02*
X034085Y018799D01*
X034085Y018640D02*
X036507Y018640D01*
X036519Y018482D02*
X034085Y018482D01*
X034156Y018323D02*
X036596Y018323D01*
X036824Y018165D02*
X034195Y018165D01*
X037105Y018165D02*
X037475Y018165D01*
X037475Y018323D02*
X037333Y018323D01*
X037410Y018482D02*
X037475Y018482D01*
X037475Y018640D02*
X037422Y018640D01*
X037378Y018799D02*
X037475Y018799D01*
X037475Y018957D02*
X037255Y018957D01*
X037261Y019433D02*
X037475Y019433D01*
X037475Y019591D02*
X037380Y019591D01*
X037422Y019750D02*
X037475Y019750D01*
X037475Y019908D02*
X037407Y019908D01*
X037475Y020067D02*
X037327Y020067D01*
X037475Y020225D02*
X037090Y020225D01*
X037284Y027992D02*
X037475Y027992D01*
X037475Y028150D02*
X037443Y028150D01*
X037465Y028309D02*
X037475Y028309D01*
X037465Y028467D02*
X037475Y028467D01*
X037465Y028626D02*
X037475Y028626D01*
X037465Y028784D02*
X037475Y028784D01*
X037465Y028943D02*
X037475Y028943D01*
X037465Y029101D02*
X037475Y029101D01*
X037475Y029260D02*
X037361Y029260D01*
X037475Y029418D02*
X037203Y029418D01*
X037044Y029577D02*
X037475Y029577D01*
X037475Y029735D02*
X036712Y029735D01*
X036397Y029735D02*
X033751Y029735D01*
X033909Y029577D02*
X036278Y029577D01*
X036269Y029418D02*
X034068Y029418D01*
X034226Y029260D02*
X036371Y029260D01*
X036559Y029101D02*
X034529Y029101D01*
X034789Y028943D02*
X036567Y028943D01*
X036642Y028784D02*
X034896Y028784D01*
X034895Y028626D02*
X036555Y028626D01*
X036576Y028467D02*
X034785Y028467D01*
X034444Y028467D02*
X034314Y028467D01*
X034416Y028309D02*
X036727Y028309D01*
X036605Y028150D02*
X034406Y028150D01*
X034284Y027992D02*
X036605Y027992D01*
X031929Y031540D02*
X031645Y031825D01*
X031645Y032338D01*
X032246Y031737D01*
X032147Y031737D01*
X032040Y031693D01*
X031959Y031611D01*
X031929Y031540D01*
X031985Y031637D02*
X031833Y031637D01*
X031674Y031796D02*
X032187Y031796D01*
X032028Y031954D02*
X031645Y031954D01*
X031645Y032113D02*
X031870Y032113D01*
X031711Y032271D02*
X031645Y032271D01*
X032949Y033856D02*
X033165Y033856D01*
X033190Y034015D02*
X033020Y034015D01*
X032878Y034966D02*
X035688Y034966D01*
X035497Y035124D02*
X033042Y035124D01*
X033065Y035283D02*
X035470Y035283D01*
X035470Y035441D02*
X032980Y035441D01*
X032569Y035441D02*
X030379Y035441D01*
X030392Y035283D02*
X032485Y035283D01*
X032507Y035124D02*
X030292Y035124D01*
X029917Y035124D02*
X026605Y035124D01*
X026605Y035283D02*
X029817Y035283D01*
X029830Y035441D02*
X026605Y035441D01*
X026565Y035600D02*
X029958Y035600D01*
X030251Y035600D02*
X035470Y035600D01*
X035470Y035758D02*
X026406Y035758D01*
X026499Y035917D02*
X035470Y035917D01*
X035470Y036075D02*
X026595Y036075D01*
X026595Y036392D02*
X035470Y036392D01*
X035470Y036234D02*
X026080Y036234D01*
X025980Y036234D02*
X025080Y036234D01*
X025080Y036197D02*
X025080Y036297D01*
X025595Y036297D01*
X025980Y036297D01*
X025980Y036197D01*
X025080Y036197D01*
X024980Y036197D02*
X024080Y036197D01*
X024080Y036297D01*
X024595Y036297D01*
X024980Y036297D01*
X024980Y036197D01*
X024980Y036234D02*
X024080Y036234D01*
X023980Y036234D02*
X019361Y036234D01*
X019390Y036075D02*
X023465Y036075D01*
X023560Y035917D02*
X022995Y035917D01*
X023055Y035758D02*
X023653Y035758D01*
X023494Y035600D02*
X023081Y035600D01*
X023185Y035441D02*
X023455Y035441D01*
X023455Y035283D02*
X023185Y035283D01*
X023185Y035124D02*
X023455Y035124D01*
X023572Y034966D02*
X023143Y034966D01*
X022985Y034807D02*
X023627Y034807D01*
X023468Y034649D02*
X023113Y034649D01*
X023156Y034490D02*
X023455Y034490D01*
X023455Y034332D02*
X023314Y034332D01*
X022449Y034966D02*
X020495Y034966D01*
X020337Y035124D02*
X022418Y035124D01*
X022419Y035283D02*
X020178Y035283D01*
X020020Y035441D02*
X022529Y035441D01*
X022507Y035600D02*
X019861Y035600D01*
X019703Y035758D02*
X022475Y035758D01*
X022534Y035917D02*
X019544Y035917D01*
X019352Y035600D02*
X018035Y035600D01*
X018035Y035758D02*
X019193Y035758D01*
X018879Y035917D02*
X018035Y035917D01*
X018035Y036075D02*
X018810Y036075D01*
X018838Y036234D02*
X018035Y036234D01*
X018035Y036392D02*
X019031Y036392D01*
X019168Y036392D02*
X023465Y036392D01*
X023535Y036551D02*
X018035Y036551D01*
X018035Y035441D02*
X019510Y035441D01*
X019669Y035283D02*
X018035Y035283D01*
X020654Y034807D02*
X022290Y034807D01*
X022132Y034649D02*
X020812Y034649D01*
X020971Y034490D02*
X021973Y034490D01*
X021870Y034332D02*
X021129Y034332D01*
X021288Y034173D02*
X021870Y034173D01*
X021870Y034015D02*
X021446Y034015D01*
X021605Y033856D02*
X021870Y033856D01*
X021870Y033698D02*
X021763Y033698D01*
X021905Y033381D02*
X022046Y033381D01*
X021929Y033222D02*
X022204Y033222D01*
X022363Y033064D02*
X022015Y033064D01*
X021992Y032905D02*
X022521Y032905D01*
X023517Y033064D02*
X025923Y033064D01*
X025764Y033222D02*
X023690Y033222D01*
X023794Y033381D02*
X025606Y033381D01*
X026081Y032905D02*
X024746Y032905D01*
X024623Y032905D02*
X023863Y032905D01*
X023716Y032905D02*
X023676Y032905D01*
X024052Y032747D02*
X024059Y032747D01*
X025130Y032113D02*
X026630Y032113D01*
X026630Y032271D02*
X025285Y032271D01*
X025353Y032430D02*
X026557Y032430D01*
X026398Y032588D02*
X025400Y032588D01*
X025361Y032747D02*
X026240Y032747D01*
X026630Y031954D02*
X024972Y031954D01*
X024855Y030686D02*
X025190Y030686D01*
X025110Y030052D02*
X025294Y030052D01*
X025438Y029894D02*
X025110Y029894D01*
X025110Y029735D02*
X025439Y029735D01*
X025549Y029577D02*
X025110Y029577D01*
X024302Y033539D02*
X023787Y033539D01*
X023791Y033698D02*
X024144Y033698D01*
X026487Y034966D02*
X029334Y034966D01*
X026525Y036551D02*
X035470Y036551D01*
X036619Y034490D02*
X037475Y034490D01*
X037475Y034332D02*
X036645Y034332D01*
X034612Y034015D02*
X034590Y034015D01*
D15*
X034305Y033947D03*
X034605Y034322D03*
X034855Y033847D03*
X035605Y033672D03*
X036355Y034372D03*
X036530Y034822D03*
X036930Y034822D03*
X037330Y034822D03*
X037330Y034422D03*
X037330Y034022D03*
X037330Y033622D03*
X037330Y033222D03*
X037330Y032822D03*
X037330Y032422D03*
X037330Y032022D03*
X037330Y031622D03*
X037330Y031222D03*
X037330Y030822D03*
X037330Y030422D03*
X037330Y030022D03*
X036745Y030387D03*
X036345Y030387D03*
X036560Y030937D03*
X035440Y031237D03*
X034985Y031827D03*
X035840Y031902D03*
X036555Y031622D03*
X036605Y032522D03*
X035450Y032507D03*
X034455Y032897D03*
X033255Y032672D03*
X032125Y033602D03*
X031605Y033097D03*
X030855Y032997D03*
X030380Y033147D03*
X029655Y033122D03*
X029655Y033572D03*
X029300Y033792D03*
X029655Y034022D03*
X029655Y034422D03*
X030430Y034137D03*
X028965Y033387D03*
X028325Y033827D03*
X027250Y033907D03*
X026505Y033972D03*
X025530Y033972D03*
X024530Y033997D03*
X023575Y033892D03*
X023510Y033452D03*
X022720Y033607D03*
X022835Y034127D03*
X022840Y034552D03*
X022700Y035202D03*
X022765Y035737D03*
X022750Y036407D03*
X020750Y036407D03*
X019750Y036407D03*
X019100Y036107D03*
X018250Y035907D03*
X018660Y034967D03*
X018655Y034562D03*
X018170Y034162D03*
X018165Y033682D03*
X019935Y034032D03*
X021725Y033017D03*
X022250Y032907D03*
X022250Y032407D03*
X023075Y032267D03*
X022770Y031682D03*
X023285Y031612D03*
X022360Y031012D03*
X021750Y030407D03*
X021485Y029907D03*
X020990Y029902D03*
X020390Y029892D03*
X020570Y030522D03*
X020005Y030497D03*
X018750Y031407D03*
X018250Y031907D03*
X018250Y029907D03*
X018750Y029407D03*
X020835Y028892D03*
X022310Y029127D03*
X022925Y028662D03*
X023245Y028122D03*
X022760Y028032D03*
X022115Y027997D03*
X020835Y027917D03*
X020810Y026917D03*
X020750Y025407D03*
X021750Y025407D03*
X022750Y025407D03*
X023750Y025407D03*
X024590Y026047D03*
X024315Y026357D03*
X025700Y026372D03*
X025820Y026892D03*
X026180Y027432D03*
X025760Y027777D03*
X027250Y027407D03*
X027845Y028167D03*
X028275Y028042D03*
X028745Y027102D03*
X029130Y027232D03*
X028870Y026532D03*
X027750Y026407D03*
X026750Y025407D03*
X025570Y025657D03*
X025115Y024297D03*
X025215Y023882D03*
X025545Y023652D03*
X025730Y023282D03*
X025615Y022662D03*
X027080Y023187D03*
X027255Y023622D03*
X027640Y022817D03*
X027640Y022417D03*
X030100Y023267D03*
X031615Y023557D03*
X032045Y023637D03*
X031635Y024152D03*
X031165Y024062D03*
X030725Y024122D03*
X029580Y024097D03*
X029180Y024097D03*
X029105Y025672D03*
X030130Y025687D03*
X031185Y025212D03*
X031820Y025412D03*
X033165Y025642D03*
X033980Y026322D03*
X033540Y026637D03*
X034150Y027752D03*
X034130Y028242D03*
X033950Y028607D03*
X034275Y028957D03*
X034615Y028707D03*
X035685Y028462D03*
X036845Y028577D03*
X036845Y029032D03*
X036555Y029487D03*
X035730Y029997D03*
X035330Y029997D03*
X034930Y029997D03*
X034855Y030522D03*
X034155Y030422D03*
X033705Y030422D03*
X033255Y030372D03*
X032805Y030372D03*
X032355Y030372D03*
X031905Y030372D03*
X031455Y030372D03*
X031005Y030372D03*
X030555Y030372D03*
X030105Y030372D03*
X029655Y030372D03*
X029655Y030822D03*
X029655Y031272D03*
X029655Y031722D03*
X030480Y032322D03*
X031090Y032362D03*
X032005Y031822D03*
X032205Y031447D03*
X032405Y031097D03*
X033355Y031122D03*
X034005Y031022D03*
X033905Y031497D03*
X032000Y029477D03*
X031275Y028962D03*
X030915Y029667D03*
X030455Y028527D03*
X030125Y028157D03*
X029740Y028682D03*
X029310Y028287D03*
X029140Y028972D03*
X029445Y029272D03*
X028830Y029712D03*
X028435Y029577D03*
X028040Y029662D03*
X028080Y029247D03*
X026175Y029807D03*
X025720Y029817D03*
X025115Y029372D03*
X025480Y030652D03*
X024890Y030997D03*
X026250Y030907D03*
X027045Y030437D03*
X027750Y031407D03*
X027390Y031767D03*
X028245Y031767D03*
X028670Y030977D03*
X029070Y031017D03*
X026250Y031657D03*
X025110Y032597D03*
X024685Y032617D03*
X024280Y032557D03*
X023790Y032622D03*
X021420Y032082D03*
X022920Y029787D03*
X023385Y029672D03*
X023510Y029252D03*
X024215Y028067D03*
X018750Y025407D03*
X018250Y024907D03*
X018250Y024407D03*
X018100Y023657D03*
X018500Y023657D03*
X018900Y023657D03*
X019300Y023657D03*
X019800Y023657D03*
X019900Y023082D03*
X020530Y022807D03*
X020855Y022272D03*
X020280Y021732D03*
X019535Y021722D03*
X019050Y022377D03*
X018100Y022307D03*
X018100Y022757D03*
X018100Y023207D03*
X018100Y021857D03*
X018100Y021407D03*
X018100Y020957D03*
X018100Y020507D03*
X018100Y020057D03*
X018500Y020057D03*
X018500Y019607D03*
X018900Y019607D03*
X019300Y019607D03*
X019700Y019607D03*
X020065Y020167D03*
X019055Y020867D03*
X018670Y021612D03*
X018100Y019607D03*
X020905Y018672D03*
X020905Y018222D03*
X020555Y017822D03*
X020155Y017822D03*
X019755Y017822D03*
X019755Y017322D03*
X020155Y017322D03*
X020555Y017322D03*
X020955Y017322D03*
X021355Y017322D03*
X021755Y017322D03*
X022155Y017322D03*
X022555Y017322D03*
X022955Y017322D03*
X022955Y017722D03*
X022955Y018122D03*
X022955Y018522D03*
X022955Y018922D03*
X023355Y018922D03*
X023355Y019322D03*
X023355Y019722D03*
X023755Y019722D03*
X023955Y020122D03*
X023955Y020547D03*
X023955Y020947D03*
X023755Y021347D03*
X023355Y021347D03*
X023355Y021747D03*
X023355Y022147D03*
X022655Y022272D03*
X022305Y021947D03*
X023130Y020897D03*
X023130Y020272D03*
X022380Y019172D03*
X021930Y019172D03*
X024050Y019042D03*
X025275Y019952D03*
X026275Y019927D03*
X028390Y020072D03*
X028390Y020472D03*
X028965Y020472D03*
X029365Y020472D03*
X029765Y020472D03*
X029765Y020872D03*
X030160Y021052D03*
X030560Y021052D03*
X030960Y021052D03*
X031360Y021402D03*
X031760Y021402D03*
X032160Y021402D03*
X032560Y021402D03*
X032960Y021402D03*
X033360Y021402D03*
X033635Y021037D03*
X034035Y021037D03*
X034435Y021037D03*
X034835Y021037D03*
X035235Y021037D03*
X035635Y021037D03*
X036035Y021037D03*
X036435Y021037D03*
X036835Y021037D03*
X037235Y021037D03*
X034655Y021447D03*
X034655Y022422D03*
X034680Y023422D03*
X032550Y022472D03*
X032260Y022957D03*
X032090Y020692D03*
X030965Y020072D03*
X030165Y020622D03*
X032165Y019722D03*
X031140Y018572D03*
X031540Y018172D03*
X031140Y017772D03*
X031540Y017372D03*
X030740Y017372D03*
X030340Y017772D03*
X030740Y018172D03*
X029940Y018172D03*
X029540Y017772D03*
X029940Y017372D03*
X029140Y017372D03*
X027750Y017907D03*
X029140Y018172D03*
X028390Y019672D03*
X032365Y017272D03*
X032765Y017272D03*
X033165Y017272D03*
X033605Y017272D03*
X034005Y017272D03*
X034405Y017272D03*
X034805Y017272D03*
X035205Y017272D03*
X035605Y017272D03*
X036005Y017272D03*
X036405Y017272D03*
X036805Y017272D03*
X037205Y017272D03*
X033905Y018172D03*
X023750Y017907D03*
X023985Y021712D03*
X021750Y023407D03*
X022970Y023547D03*
X023485Y024192D03*
X025555Y024197D03*
X020750Y024407D03*
X019750Y024407D03*
X030150Y026517D03*
X030105Y026962D03*
X030655Y026502D03*
X031315Y026492D03*
X030935Y027322D03*
X030940Y027782D03*
X031700Y027752D03*
X033025Y028672D03*
X037285Y027682D03*
X037295Y027252D03*
X037250Y025907D03*
X037250Y024907D03*
X034880Y025792D03*
X033455Y033897D03*
X032730Y034047D03*
X032530Y034597D03*
X032905Y034772D03*
X032775Y035237D03*
X033255Y035172D03*
X032805Y035822D03*
X032355Y035822D03*
X031905Y035822D03*
X031455Y035822D03*
X031005Y035822D03*
X030555Y035822D03*
X030105Y035822D03*
X029655Y035822D03*
X029655Y035372D03*
X030105Y035347D03*
X029750Y036407D03*
X031250Y036407D03*
X032750Y036407D03*
X033155Y036172D03*
X033605Y036172D03*
X034055Y036172D03*
X034505Y036172D03*
X034955Y036172D03*
X035355Y036172D03*
X034505Y035722D03*
X034980Y034922D03*
X035380Y035122D03*
X035730Y034847D03*
X036130Y034822D03*
X028250Y034907D03*
X027250Y035407D03*
X028250Y036407D03*
D16*
X029520Y034897D02*
X029050Y034427D01*
X029050Y033472D01*
X028965Y033387D01*
X029300Y033792D02*
X029300Y034497D01*
X029525Y034722D01*
X029705Y034722D01*
X029710Y034897D02*
X029520Y034897D01*
X027070Y033357D02*
X026695Y033732D01*
X026400Y033732D01*
X026030Y034102D01*
X026030Y034397D01*
X025250Y034177D02*
X025030Y034397D01*
X025250Y034177D02*
X025250Y033877D01*
X025385Y033742D01*
X025685Y033742D01*
X026940Y032487D01*
X026940Y031307D01*
X028435Y029812D01*
X028435Y029577D01*
X028705Y029712D02*
X027070Y031347D01*
X027070Y033357D01*
X026810Y032432D02*
X025630Y033612D01*
X024485Y033612D01*
X024030Y034067D01*
X024030Y034397D01*
X023575Y033892D02*
X023500Y033892D01*
X022840Y034552D01*
X022835Y034127D02*
X023510Y033452D01*
X022720Y033607D02*
X023705Y032622D01*
X023790Y032622D01*
X023570Y032297D02*
X024045Y032297D01*
X024280Y032532D01*
X024280Y032557D01*
X024235Y032167D02*
X023515Y032167D01*
X022050Y033632D01*
X022050Y034312D01*
X022700Y034962D01*
X022700Y035202D01*
X023005Y035082D02*
X022180Y034257D01*
X022180Y033687D01*
X023570Y032297D01*
X023295Y032047D02*
X024810Y032047D01*
X025105Y032342D01*
X025105Y032592D01*
X025110Y032597D01*
X024685Y032617D02*
X024235Y032167D01*
X023370Y031917D02*
X022760Y031917D01*
X022770Y031907D01*
X022770Y031682D01*
X022760Y031917D02*
X022100Y031917D01*
X021350Y032667D01*
X018885Y032667D01*
X018655Y032897D01*
X018655Y034562D01*
X018470Y034317D02*
X018365Y034422D01*
X018365Y034677D01*
X018655Y034967D01*
X018660Y034967D01*
X018470Y034317D02*
X018470Y032907D01*
X018465Y032902D01*
X018830Y032537D01*
X021305Y032537D01*
X021305Y032527D01*
X022455Y031377D01*
X023060Y031377D01*
X023285Y031602D01*
X023285Y031612D01*
X023500Y031612D01*
X024795Y030317D01*
X025285Y030317D01*
X025525Y030077D01*
X025575Y030077D01*
X025580Y030072D01*
X027655Y030072D01*
X027730Y029997D01*
X027730Y029597D01*
X028080Y029247D01*
X028040Y029662D02*
X028040Y030037D01*
X027880Y030197D01*
X025590Y030197D01*
X025345Y030442D01*
X024845Y030442D01*
X023370Y031917D01*
X023295Y032047D02*
X023075Y032267D01*
X023680Y031247D02*
X022400Y031247D01*
X021565Y032082D01*
X021420Y032082D01*
X021725Y033017D02*
X021725Y033482D01*
X019100Y036107D01*
X022765Y035737D02*
X022765Y035662D01*
X023005Y035422D01*
X023005Y035082D01*
X026810Y032432D02*
X026810Y031252D01*
X027260Y030802D01*
X027260Y030652D01*
X027045Y030437D01*
X028670Y030977D02*
X029215Y031522D01*
X029215Y032582D01*
X029455Y032822D01*
X029705Y032822D01*
X029465Y032647D02*
X029345Y032527D01*
X029345Y031287D01*
X029075Y031017D01*
X029070Y031017D01*
X028830Y029712D02*
X028705Y029712D01*
X028275Y028042D02*
X028275Y027957D01*
X028575Y027657D01*
X030240Y027657D01*
X030915Y028332D01*
X030915Y029667D01*
X031845Y029667D01*
X031900Y029722D01*
X032115Y029722D01*
X032170Y029667D01*
X033565Y029667D01*
X034275Y028957D01*
X034030Y029012D02*
X033505Y029537D01*
X032395Y029537D01*
X031820Y028962D01*
X031275Y028962D01*
X031275Y028507D01*
X030305Y027537D01*
X028215Y027537D01*
X027845Y027907D01*
X027845Y028167D01*
X028745Y027102D02*
X029360Y026487D01*
X029360Y024877D01*
X032175Y022062D01*
X033955Y022062D01*
X034815Y022922D01*
X035080Y022922D01*
X034440Y022732D02*
X034440Y023532D01*
X034830Y023922D01*
X035080Y023922D01*
X034555Y023832D02*
X034555Y024142D01*
X034880Y024467D01*
X034880Y025792D01*
X034790Y026037D02*
X036080Y026037D01*
X037295Y027252D01*
X037050Y027192D02*
X037050Y027352D01*
X037285Y027587D01*
X037285Y027682D01*
X037045Y027532D02*
X037045Y028007D01*
X037285Y028247D01*
X037285Y029082D01*
X036880Y029487D01*
X036555Y029487D01*
X036845Y029032D02*
X036860Y029032D01*
X037155Y028737D01*
X037155Y028297D01*
X036915Y028057D01*
X036915Y027587D01*
X036790Y027462D01*
X036790Y027302D01*
X035915Y026427D01*
X034625Y026427D01*
X034150Y025952D01*
X034150Y024477D01*
X033700Y024027D01*
X032420Y024027D01*
X032160Y024287D01*
X031845Y024287D01*
X031735Y024397D01*
X031500Y024397D01*
X031165Y024062D01*
X030725Y024122D02*
X031130Y024527D01*
X031790Y024527D01*
X031900Y024417D01*
X032215Y024417D01*
X032475Y024157D01*
X033645Y024157D01*
X034020Y024532D01*
X034020Y026007D01*
X034570Y026557D01*
X035860Y026557D01*
X036660Y027357D01*
X036660Y027517D01*
X036785Y027642D01*
X036785Y028112D01*
X036930Y028257D01*
X036930Y028492D01*
X036845Y028577D01*
X037045Y027532D02*
X036920Y027407D01*
X036920Y027247D01*
X035970Y026297D01*
X034680Y026297D01*
X034280Y025897D01*
X034280Y024422D01*
X033755Y023897D01*
X032365Y023897D01*
X032255Y024007D01*
X031780Y024007D01*
X031635Y024152D01*
X031935Y023877D02*
X031615Y023557D01*
X032045Y023637D02*
X033865Y023637D01*
X034540Y024312D01*
X034540Y025787D01*
X034790Y026037D01*
X034735Y026167D02*
X034410Y025842D01*
X034410Y024367D01*
X033810Y023767D01*
X032310Y023767D01*
X032200Y023877D01*
X031935Y023877D01*
X032550Y022472D02*
X033995Y022472D01*
X034310Y022787D01*
X034310Y023587D01*
X034555Y023832D01*
X034440Y022732D02*
X033900Y022192D01*
X032225Y022192D01*
X029490Y024927D01*
X029490Y026542D01*
X029130Y026902D01*
X029130Y027232D01*
X028870Y026532D02*
X028870Y025182D01*
X032120Y021932D01*
X034585Y021932D01*
X034745Y021932D01*
X035070Y021932D01*
X032090Y020692D02*
X033905Y018877D01*
X033905Y018172D01*
X026775Y019527D02*
X026775Y019772D01*
X026340Y020207D01*
X025550Y020207D01*
X025035Y020722D01*
X025035Y023142D01*
X025545Y023652D01*
X025215Y023882D02*
X024905Y023572D01*
X024905Y020667D01*
X025775Y019797D01*
X025775Y019527D01*
X024775Y019527D02*
X024775Y023957D01*
X025115Y024297D01*
X024975Y025657D02*
X023500Y024182D01*
X023490Y024192D01*
X023485Y024192D01*
X022970Y024202D02*
X024590Y025822D01*
X024590Y026047D01*
X024750Y026357D02*
X024970Y026137D01*
X025465Y026137D01*
X025700Y026372D01*
X025525Y026597D02*
X025820Y026892D01*
X025525Y026597D02*
X024215Y026597D01*
X024035Y026417D01*
X020405Y026417D01*
X020405Y027417D02*
X020420Y027432D01*
X026180Y027432D01*
X025760Y027777D02*
X025535Y027552D01*
X022080Y027552D01*
X021260Y028372D01*
X020450Y028372D01*
X020405Y028417D01*
X020150Y029187D02*
X021105Y029187D01*
X022115Y028177D01*
X022115Y027997D01*
X022130Y028342D02*
X022295Y028342D01*
X022605Y028032D01*
X022760Y028032D01*
X023030Y028122D02*
X023245Y028122D01*
X023030Y028122D02*
X022680Y028472D01*
X022185Y028472D01*
X021210Y029447D01*
X020820Y029447D01*
X020630Y029637D01*
X020630Y030462D01*
X020570Y030522D01*
X020005Y030497D02*
X020005Y029332D01*
X020150Y029187D01*
X020390Y029357D02*
X020430Y029317D01*
X021155Y029317D01*
X022130Y028342D01*
X022925Y028662D02*
X022925Y028882D01*
X022410Y029397D01*
X021630Y029397D01*
X021485Y029542D01*
X021485Y029907D01*
X020990Y029902D02*
X020990Y029852D01*
X021715Y029127D01*
X022310Y029127D01*
X020390Y029357D02*
X020390Y029892D01*
X023680Y031247D02*
X024930Y029997D01*
X024930Y029627D01*
X024875Y029572D01*
X024875Y028727D01*
X024215Y028067D01*
X024315Y026357D02*
X024750Y026357D01*
X024975Y025657D02*
X025570Y025657D01*
X022970Y024202D02*
X022970Y023547D01*
X030150Y026517D02*
X030180Y026487D01*
X030265Y026487D01*
X030945Y025807D01*
X032220Y025807D01*
X032220Y026807D02*
X031970Y027057D01*
X031415Y027057D01*
X030870Y026512D01*
X030665Y026512D01*
X030655Y026502D01*
X030830Y026872D02*
X030195Y026872D01*
X030105Y026962D01*
X030830Y026872D02*
X031405Y027447D01*
X031405Y028752D01*
X031485Y028832D01*
X031875Y028832D01*
X032450Y029407D01*
X033450Y029407D01*
X033910Y028947D01*
X033910Y028647D01*
X033950Y028607D01*
X034195Y028707D02*
X034030Y028872D01*
X034030Y029012D01*
X034195Y028707D02*
X034615Y028707D01*
X037050Y027192D02*
X036025Y026167D01*
X034735Y026167D01*
D17*
X033730Y030747D02*
X032055Y030747D01*
X030480Y032322D01*
X030805Y032647D02*
X029465Y032647D01*
X029705Y032822D02*
X030455Y033572D01*
X031400Y033572D01*
X031685Y033857D01*
X032385Y033857D01*
X032385Y033852D01*
X032640Y033597D01*
X034855Y033597D01*
X034855Y033847D01*
X032730Y034047D02*
X032505Y034047D01*
X031830Y034722D01*
X029705Y034722D01*
X029710Y034897D02*
X032180Y034897D01*
X032505Y034572D01*
X032530Y034597D01*
X031605Y033097D02*
X031605Y032947D01*
X033155Y031397D01*
X033805Y031397D01*
X033905Y031497D01*
X034005Y031022D02*
X033730Y030747D01*
X033355Y031122D02*
X033355Y031197D01*
X033055Y031197D01*
X031155Y033097D01*
X031155Y033197D01*
X031105Y033247D01*
X030655Y033247D01*
X030555Y033147D01*
X030380Y033147D01*
X030855Y032997D02*
X031005Y032997D01*
X031455Y032547D01*
X031455Y031747D01*
X032105Y031097D01*
X032405Y031097D01*
X031090Y032362D02*
X030805Y032647D01*
M02*
