G75*
%MOIN*%
%OFA0B0*%
%FSLAX24Y24*%
%IPPOS*%
%LPD*%
%AMOC8*
5,1,8,0,0,1.08239X$1,22.5*
%
%ADD10R,0.0433X0.0394*%
%ADD11R,0.0335X0.0354*%
%ADD12R,0.0354X0.0335*%
%ADD13R,0.0591X0.0512*%
%ADD14C,0.0118*%
%ADD15R,0.0236X0.0236*%
%ADD16R,0.0236X0.0236*%
%ADD17R,0.0591X0.0276*%
%ADD18R,0.0236X0.0394*%
%ADD19R,0.0315X0.0394*%
%ADD20R,0.0112X0.0433*%
%ADD21R,0.0433X0.0112*%
%ADD22R,0.0787X0.0472*%
%ADD23R,0.0945X0.0650*%
%ADD24R,0.0117X0.0335*%
%ADD25R,0.0276X0.0110*%
%ADD26R,0.0394X0.0433*%
%ADD27R,0.0217X0.0669*%
%ADD28R,0.0394X0.0276*%
%ADD29R,0.0374X0.0276*%
%ADD30R,0.0295X0.0177*%
%ADD31R,0.0177X0.0295*%
%ADD32R,0.0098X0.0157*%
%ADD33R,0.0157X0.0098*%
%ADD34R,0.0787X0.0787*%
%ADD35C,0.0091*%
%ADD36R,0.0394X0.0669*%
%ADD37R,0.0433X0.0748*%
%ADD38R,0.0280X0.0560*%
%ADD39R,0.1000X0.1000*%
%ADD40R,0.0669X0.0394*%
%ADD41R,0.0276X0.0354*%
%ADD42R,0.0354X0.0276*%
%ADD43R,0.0550X0.0300*%
%ADD44R,0.0240X0.0120*%
D10*
X026070Y022682D03*
X026739Y022682D03*
X028930Y022867D03*
X029599Y022867D03*
X031625Y024922D03*
X032294Y024922D03*
X036070Y033847D03*
X036739Y033847D03*
G36*
X034074Y035473D02*
X034379Y035168D01*
X034100Y034889D01*
X033795Y035194D01*
X034074Y035473D01*
G37*
G36*
X033601Y035947D02*
X033906Y035642D01*
X033627Y035363D01*
X033322Y035668D01*
X033601Y035947D01*
G37*
G36*
X033445Y034808D02*
X033750Y035113D01*
X034029Y034834D01*
X033724Y034529D01*
X033445Y034808D01*
G37*
G36*
X032971Y034335D02*
X033276Y034640D01*
X033555Y034361D01*
X033250Y034056D01*
X032971Y034335D01*
G37*
X031399Y035247D03*
X030730Y035247D03*
D11*
X031916Y035237D03*
X032373Y035237D03*
G36*
X033876Y034497D02*
X034112Y034733D01*
X034362Y034483D01*
X034126Y034247D01*
X033876Y034497D01*
G37*
G36*
X034199Y034820D02*
X034435Y035056D01*
X034685Y034806D01*
X034449Y034570D01*
X034199Y034820D01*
G37*
X035046Y033277D03*
X035503Y033277D03*
X036266Y033262D03*
X036723Y033262D03*
X035703Y030497D03*
X035246Y030497D03*
X026178Y029387D03*
X025721Y029387D03*
X028941Y023447D03*
X029398Y023447D03*
X026633Y023282D03*
X026176Y023282D03*
X022383Y019572D03*
X021926Y019572D03*
X019478Y020182D03*
X019021Y020182D03*
X021876Y017797D03*
X022333Y017797D03*
X019478Y023082D03*
X019021Y023082D03*
D12*
X022730Y021800D03*
X022730Y021343D03*
X022730Y020775D03*
X022730Y020318D03*
X020405Y018675D03*
X020405Y018218D03*
X019855Y018218D03*
X019855Y018675D03*
X021355Y018225D03*
X021355Y017768D03*
X031190Y019143D03*
X031190Y019600D03*
X030130Y023918D03*
X030130Y024375D03*
X030555Y027318D03*
X030555Y027775D03*
X034585Y027748D03*
X034585Y028205D03*
X025050Y029763D03*
X025050Y030220D03*
X024025Y029380D03*
X024025Y028923D03*
X022795Y030488D03*
X022795Y030945D03*
X018670Y033708D03*
X018670Y034165D03*
D13*
X028210Y023351D03*
X028210Y022603D03*
D14*
X025311Y022839D02*
X025116Y023034D01*
X025311Y023229D01*
X025506Y023034D01*
X025311Y022839D01*
X025428Y022956D02*
X025194Y022956D01*
X025155Y023073D02*
X025467Y023073D01*
X025350Y023190D02*
X025272Y023190D01*
X024957Y023193D02*
X024762Y023388D01*
X024957Y023583D01*
X025152Y023388D01*
X024957Y023193D01*
X025074Y023310D02*
X024840Y023310D01*
X024801Y023427D02*
X025113Y023427D01*
X024996Y023544D02*
X024918Y023544D01*
X024604Y023546D02*
X024409Y023741D01*
X024604Y023936D01*
X024799Y023741D01*
X024604Y023546D01*
X024721Y023663D02*
X024487Y023663D01*
X024448Y023780D02*
X024760Y023780D01*
X024643Y023897D02*
X024565Y023897D01*
X023920Y023253D02*
X024115Y023058D01*
X023920Y023253D02*
X024115Y023448D01*
X024310Y023253D01*
X024115Y023058D01*
X024232Y023175D02*
X023998Y023175D01*
X023959Y023292D02*
X024271Y023292D01*
X024154Y023409D02*
X024076Y023409D01*
X024274Y022899D02*
X024469Y022704D01*
X024274Y022899D02*
X024469Y023094D01*
X024664Y022899D01*
X024469Y022704D01*
X024586Y022821D02*
X024352Y022821D01*
X024313Y022938D02*
X024625Y022938D01*
X024508Y023055D02*
X024430Y023055D01*
X024627Y022546D02*
X024822Y022351D01*
X024627Y022546D02*
X024822Y022741D01*
X025017Y022546D01*
X024822Y022351D01*
X024939Y022468D02*
X024705Y022468D01*
X024666Y022585D02*
X024978Y022585D01*
X024861Y022702D02*
X024783Y022702D01*
D15*
X019965Y021342D03*
X019965Y020942D03*
X022930Y019822D03*
X022930Y019422D03*
X030515Y020622D03*
X030915Y020622D03*
X031415Y020622D03*
X031415Y021022D03*
X031965Y021022D03*
X032365Y021022D03*
X032865Y021022D03*
X033265Y021022D03*
X033595Y025567D03*
X033595Y025967D03*
X035350Y026037D03*
X035350Y026437D03*
X035770Y026437D03*
X035770Y026037D03*
X036190Y026037D03*
X036190Y026437D03*
X036610Y026437D03*
X036610Y026037D03*
X036400Y026857D03*
X036400Y027257D03*
X035980Y027257D03*
X035980Y026857D03*
X035560Y026857D03*
X035560Y027257D03*
X035140Y027257D03*
X035140Y026857D03*
X032635Y028697D03*
X032235Y028697D03*
X031675Y029292D03*
X031675Y029667D03*
X031275Y029667D03*
X031275Y029292D03*
X031260Y027752D03*
X031260Y027352D03*
X031210Y026082D03*
X031210Y025682D03*
X020845Y031552D03*
X020845Y031952D03*
X020425Y031952D03*
X020425Y031552D03*
X020005Y031552D03*
X020005Y031952D03*
X019585Y031952D03*
X019585Y031552D03*
X019795Y032372D03*
X019795Y032772D03*
X020215Y032772D03*
X020215Y032372D03*
X020635Y032372D03*
X020635Y032772D03*
X019375Y032772D03*
X019375Y032372D03*
X021840Y034307D03*
X021840Y034682D03*
X022240Y034682D03*
X022240Y034307D03*
X022240Y035102D03*
X021840Y035102D03*
X021840Y035522D03*
X022240Y035522D03*
X022240Y035942D03*
X021840Y035942D03*
X021420Y035732D03*
X021020Y035732D03*
X021020Y035312D03*
X021420Y035312D03*
X021420Y034892D03*
X021020Y034892D03*
X029195Y032587D03*
X029595Y032587D03*
X031145Y034212D03*
X031145Y034612D03*
X032005Y034407D03*
X032005Y034007D03*
D16*
G36*
X035249Y034215D02*
X035083Y034049D01*
X034917Y034215D01*
X035083Y034381D01*
X035249Y034215D01*
G37*
G36*
X035532Y034498D02*
X035366Y034332D01*
X035200Y034498D01*
X035366Y034664D01*
X035532Y034498D01*
G37*
G36*
X035827Y034193D02*
X035661Y034027D01*
X035495Y034193D01*
X035661Y034359D01*
X035827Y034193D01*
G37*
G36*
X035544Y033910D02*
X035378Y033744D01*
X035212Y033910D01*
X035378Y034076D01*
X035544Y033910D01*
G37*
G36*
X030785Y023784D02*
X030951Y023950D01*
X031117Y023784D01*
X030951Y023618D01*
X030785Y023784D01*
G37*
G36*
X030502Y023501D02*
X030668Y023667D01*
X030834Y023501D01*
X030668Y023335D01*
X030502Y023501D01*
G37*
G36*
X030354Y023056D02*
X030520Y023222D01*
X030686Y023056D01*
X030520Y022890D01*
X030354Y023056D01*
G37*
G36*
X030071Y022773D02*
X030237Y022939D01*
X030403Y022773D01*
X030237Y022607D01*
X030071Y022773D01*
G37*
G36*
X030368Y022476D02*
X030534Y022642D01*
X030700Y022476D01*
X030534Y022310D01*
X030368Y022476D01*
G37*
G36*
X030651Y022759D02*
X030817Y022925D01*
X030983Y022759D01*
X030817Y022593D01*
X030651Y022759D01*
G37*
G36*
X030799Y023204D02*
X030965Y023370D01*
X031131Y023204D01*
X030965Y023038D01*
X030799Y023204D01*
G37*
G36*
X031082Y023487D02*
X031248Y023653D01*
X031414Y023487D01*
X031248Y023321D01*
X031082Y023487D01*
G37*
G36*
X031379Y023190D02*
X031545Y023356D01*
X031711Y023190D01*
X031545Y023024D01*
X031379Y023190D01*
G37*
G36*
X031096Y022907D02*
X031262Y023073D01*
X031428Y022907D01*
X031262Y022741D01*
X031096Y022907D01*
G37*
G36*
X030948Y022462D02*
X031114Y022628D01*
X031280Y022462D01*
X031114Y022296D01*
X030948Y022462D01*
G37*
G36*
X030665Y022179D02*
X030831Y022345D01*
X030997Y022179D01*
X030831Y022013D01*
X030665Y022179D01*
G37*
G36*
X030962Y021882D02*
X031128Y022048D01*
X031294Y021882D01*
X031128Y021716D01*
X030962Y021882D01*
G37*
G36*
X031245Y022165D02*
X031411Y022331D01*
X031577Y022165D01*
X031411Y021999D01*
X031245Y022165D01*
G37*
G36*
X031393Y022610D02*
X031559Y022776D01*
X031725Y022610D01*
X031559Y022444D01*
X031393Y022610D01*
G37*
G36*
X031676Y022893D02*
X031842Y023059D01*
X032008Y022893D01*
X031842Y022727D01*
X031676Y022893D01*
G37*
G36*
X024667Y022224D02*
X024501Y022058D01*
X024335Y022224D01*
X024501Y022390D01*
X024667Y022224D01*
G37*
G36*
X024384Y021941D02*
X024218Y021775D01*
X024052Y021941D01*
X024218Y022107D01*
X024384Y021941D01*
G37*
G36*
X024031Y022295D02*
X023865Y022129D01*
X023699Y022295D01*
X023865Y022461D01*
X024031Y022295D01*
G37*
G36*
X024313Y022578D02*
X024147Y022412D01*
X023981Y022578D01*
X024147Y022744D01*
X024313Y022578D01*
G37*
G36*
X023960Y022931D02*
X023794Y022765D01*
X023628Y022931D01*
X023794Y023097D01*
X023960Y022931D01*
G37*
G36*
X023677Y022649D02*
X023511Y022483D01*
X023345Y022649D01*
X023511Y022815D01*
X023677Y022649D01*
G37*
D17*
X036276Y020077D03*
X036276Y019487D03*
X036276Y018306D03*
D18*
X037358Y017755D03*
X037358Y020629D03*
D19*
X036531Y020629D03*
X036531Y017755D03*
D20*
X028831Y024103D03*
X028634Y024103D03*
X028437Y024103D03*
X028240Y024103D03*
X028043Y024103D03*
X027847Y024103D03*
X027650Y024103D03*
X027453Y024103D03*
X027256Y024103D03*
X027059Y024103D03*
X026862Y024103D03*
X026666Y024103D03*
X026469Y024103D03*
X026272Y024103D03*
X026075Y024103D03*
X025878Y024103D03*
X025878Y028591D03*
X026075Y028591D03*
X026272Y028591D03*
X026469Y028591D03*
X026666Y028591D03*
X026862Y028591D03*
X027059Y028591D03*
X027256Y028591D03*
X027453Y028591D03*
X027650Y028591D03*
X027847Y028591D03*
X028043Y028591D03*
X028240Y028591D03*
X028437Y028591D03*
X028634Y028591D03*
X028831Y028591D03*
D21*
X029599Y027823D03*
X029599Y027626D03*
X029599Y027429D03*
X029599Y027232D03*
X029599Y027036D03*
X029599Y026839D03*
X029599Y026642D03*
X029599Y026445D03*
X029599Y026248D03*
X029599Y026051D03*
X029599Y025855D03*
X029599Y025658D03*
X029599Y025461D03*
X029599Y025264D03*
X029599Y025067D03*
X029599Y024870D03*
X025110Y024870D03*
X025110Y025067D03*
X025110Y025264D03*
X025110Y025461D03*
X025110Y025658D03*
X025110Y025855D03*
X025110Y026051D03*
X025110Y026248D03*
X025110Y026445D03*
X025110Y026642D03*
X025110Y026839D03*
X025110Y027036D03*
X025110Y027232D03*
X025110Y027429D03*
X025110Y027626D03*
X025110Y027823D03*
D22*
X029115Y020002D03*
X030215Y020002D03*
X030215Y018742D03*
X029115Y018742D03*
D23*
X032165Y019722D03*
D24*
X032165Y019141D03*
X032361Y019141D03*
X032558Y019141D03*
X031968Y019141D03*
X031771Y019141D03*
X031771Y020302D03*
X031968Y020302D03*
X032165Y020302D03*
X032361Y020302D03*
X032558Y020302D03*
D25*
X032755Y019820D03*
X032755Y019623D03*
X031574Y019623D03*
X031574Y019820D03*
D26*
X033315Y020056D03*
X033315Y019387D03*
X023530Y020187D03*
X023530Y020856D03*
D27*
X032234Y018172D03*
X033395Y018172D03*
D28*
X032322Y018644D03*
D29*
X032313Y017699D03*
X033316Y017699D03*
X033316Y018644D03*
D30*
X033737Y021693D03*
X033737Y022150D03*
X034272Y022150D03*
X034272Y021697D03*
X034272Y022697D03*
X034272Y023150D03*
X033737Y023150D03*
X033737Y022693D03*
X033737Y023693D03*
X033737Y024150D03*
X034272Y024150D03*
X034272Y023697D03*
X021747Y026188D03*
X021747Y026645D03*
X021212Y026641D03*
X021212Y026188D03*
X021212Y027188D03*
X021212Y027641D03*
X021747Y027645D03*
X021747Y027188D03*
X021747Y028188D03*
X021747Y028645D03*
X021212Y028641D03*
X021212Y028188D03*
D31*
X023801Y033054D03*
X024258Y033054D03*
X024254Y033589D03*
X023801Y033589D03*
X024801Y033589D03*
X025254Y033589D03*
X025258Y033054D03*
X024801Y033054D03*
X025801Y033054D03*
X026258Y033054D03*
X026254Y033589D03*
X025801Y033589D03*
X026003Y020869D03*
X025546Y020869D03*
X025550Y020334D03*
X026003Y020334D03*
X026550Y020334D03*
X027003Y020334D03*
X027003Y020869D03*
X026546Y020869D03*
X025003Y020869D03*
X024546Y020869D03*
X024550Y020334D03*
X025003Y020334D03*
D32*
X021598Y020188D03*
X021401Y020188D03*
X021205Y020188D03*
X021008Y020188D03*
X020811Y020188D03*
X020811Y021605D03*
X021008Y021605D03*
X021205Y021605D03*
X021401Y021605D03*
X021598Y021605D03*
X035182Y027768D03*
X035379Y027768D03*
X035576Y027768D03*
X035773Y027768D03*
X035970Y027768D03*
X036167Y027768D03*
X036167Y029185D03*
X035970Y029185D03*
X035773Y029185D03*
X035576Y029185D03*
X035379Y029185D03*
X035182Y029185D03*
X033943Y031791D03*
X033747Y031791D03*
X033550Y031791D03*
X033353Y031791D03*
X033156Y031791D03*
X032959Y031791D03*
X032762Y031791D03*
X032566Y031791D03*
X032566Y033602D03*
X032762Y033602D03*
X032959Y033602D03*
X033156Y033602D03*
X033353Y033602D03*
X033550Y033602D03*
X033747Y033602D03*
X033943Y033602D03*
X020417Y033338D03*
X020220Y033338D03*
X020023Y033338D03*
X019826Y033338D03*
X019629Y033338D03*
X019432Y033338D03*
X019432Y034755D03*
X019629Y034755D03*
X019826Y034755D03*
X020023Y034755D03*
X020220Y034755D03*
X020417Y034755D03*
D33*
X020633Y034539D03*
X020633Y034342D03*
X020633Y034145D03*
X020633Y033948D03*
X020633Y033751D03*
X020633Y033555D03*
X019216Y033555D03*
X019216Y033751D03*
X019216Y033948D03*
X019216Y034145D03*
X019216Y034342D03*
X019216Y034539D03*
X032349Y033386D03*
X032349Y033189D03*
X032349Y032992D03*
X032349Y032795D03*
X032349Y032598D03*
X032349Y032401D03*
X032349Y032205D03*
X032349Y032008D03*
X034160Y032008D03*
X034160Y032205D03*
X034160Y032401D03*
X034160Y032598D03*
X034160Y032795D03*
X034160Y032992D03*
X034160Y033189D03*
X034160Y033386D03*
X034966Y028969D03*
X034966Y028772D03*
X034966Y028575D03*
X034966Y028378D03*
X034966Y028181D03*
X034966Y027985D03*
X036383Y027985D03*
X036383Y028181D03*
X036383Y028378D03*
X036383Y028575D03*
X036383Y028772D03*
X036383Y028969D03*
X021913Y021290D03*
X021913Y021094D03*
X021913Y020897D03*
X021913Y020700D03*
X021913Y020503D03*
X020496Y020503D03*
X020496Y020700D03*
X020496Y020897D03*
X020496Y021094D03*
X020496Y021290D03*
D34*
X035675Y028477D03*
X019925Y034047D03*
D35*
X023551Y031280D02*
X023551Y031134D01*
X023551Y031280D02*
X023551Y031280D01*
X023551Y031134D01*
X023551Y031134D01*
X023551Y031224D02*
X023551Y031224D01*
X023708Y031280D02*
X023708Y031134D01*
X023708Y031280D02*
X023708Y031280D01*
X023708Y031134D01*
X023708Y031134D01*
X023708Y031224D02*
X023708Y031224D01*
X023866Y031280D02*
X023866Y031134D01*
X023866Y031280D02*
X023866Y031280D01*
X023866Y031134D01*
X023866Y031134D01*
X023866Y031224D02*
X023866Y031224D01*
X024023Y031280D02*
X024023Y031134D01*
X024023Y031280D02*
X024023Y031280D01*
X024023Y031134D01*
X024023Y031134D01*
X024023Y031224D02*
X024023Y031224D01*
X024181Y031280D02*
X024181Y031134D01*
X024181Y031280D02*
X024181Y031280D01*
X024181Y031134D01*
X024181Y031134D01*
X024181Y031224D02*
X024181Y031224D01*
X024338Y031280D02*
X024338Y031134D01*
X024338Y031280D02*
X024338Y031280D01*
X024338Y031134D01*
X024338Y031134D01*
X024338Y031224D02*
X024338Y031224D01*
X024462Y031010D02*
X024608Y031010D01*
X024608Y031010D01*
X024462Y031010D01*
X024462Y031010D01*
X024462Y030853D02*
X024608Y030853D01*
X024608Y030853D01*
X024462Y030853D01*
X024462Y030853D01*
X024462Y030695D02*
X024608Y030695D01*
X024608Y030695D01*
X024462Y030695D01*
X024462Y030695D01*
X024462Y030538D02*
X024608Y030538D01*
X024608Y030538D01*
X024462Y030538D01*
X024462Y030538D01*
X024462Y030380D02*
X024608Y030380D01*
X024608Y030380D01*
X024462Y030380D01*
X024462Y030380D01*
X024462Y030223D02*
X024608Y030223D01*
X024608Y030223D01*
X024462Y030223D01*
X024462Y030223D01*
X024338Y030099D02*
X024338Y029953D01*
X024338Y029953D01*
X024338Y030099D01*
X024338Y030099D01*
X024338Y030043D02*
X024338Y030043D01*
X024181Y030099D02*
X024181Y029953D01*
X024181Y029953D01*
X024181Y030099D01*
X024181Y030099D01*
X024181Y030043D02*
X024181Y030043D01*
X024023Y030099D02*
X024023Y029953D01*
X024023Y029953D01*
X024023Y030099D01*
X024023Y030099D01*
X024023Y030043D02*
X024023Y030043D01*
X023866Y030099D02*
X023866Y029953D01*
X023866Y029953D01*
X023866Y030099D01*
X023866Y030099D01*
X023866Y030043D02*
X023866Y030043D01*
X023708Y030099D02*
X023708Y029953D01*
X023708Y029953D01*
X023708Y030099D01*
X023708Y030099D01*
X023708Y030043D02*
X023708Y030043D01*
X023551Y030099D02*
X023551Y029953D01*
X023551Y029953D01*
X023551Y030099D01*
X023551Y030099D01*
X023551Y030043D02*
X023551Y030043D01*
X023427Y030223D02*
X023281Y030223D01*
X023281Y030223D01*
X023427Y030223D01*
X023427Y030223D01*
X023427Y030380D02*
X023281Y030380D01*
X023281Y030380D01*
X023427Y030380D01*
X023427Y030380D01*
X023427Y030538D02*
X023281Y030538D01*
X023281Y030538D01*
X023427Y030538D01*
X023427Y030538D01*
X023427Y030695D02*
X023281Y030695D01*
X023281Y030695D01*
X023427Y030695D01*
X023427Y030695D01*
X023427Y030853D02*
X023281Y030853D01*
X023281Y030853D01*
X023427Y030853D01*
X023427Y030853D01*
X023427Y031010D02*
X023281Y031010D01*
X023281Y031010D01*
X023427Y031010D01*
X023427Y031010D01*
D36*
X036152Y036187D03*
X037137Y036187D03*
D37*
X035907Y032620D03*
X035002Y032620D03*
X035002Y031163D03*
X035907Y031163D03*
X019502Y022360D03*
X018597Y022360D03*
X018597Y020903D03*
X019502Y020903D03*
D38*
X030196Y031731D03*
X030668Y031731D03*
X031141Y031731D03*
X031613Y031731D03*
X031613Y033663D03*
X031141Y033663D03*
X030668Y033663D03*
X030196Y033663D03*
D39*
X033255Y032697D03*
D40*
X018355Y017555D03*
X018355Y018539D03*
D41*
X020349Y019197D03*
X020860Y019197D03*
X020849Y019697D03*
X021360Y019697D03*
D42*
X021355Y019203D03*
X021355Y018691D03*
D43*
X030655Y024882D03*
X030655Y025452D03*
D44*
X030451Y028929D03*
X030451Y029165D03*
X030018Y029165D03*
X030018Y028929D03*
M02*
