G75*
%MOIN*%
%OFA0B0*%
%FSLAX25Y25*%
%IPPOS*%
%LPD*%
%AMOC8*
5,1,8,0,0,1.08239X$1,22.5*
%
%ADD10C,0.03000*%
%ADD11C,0.03962*%
%ADD12C,0.07400*%
%ADD13OC8,0.08500*%
%ADD14C,0.01600*%
%ADD15C,0.02800*%
%ADD16C,0.00600*%
%ADD17C,0.00800*%
D10*
X0212778Y0082467D02*
X0221286Y0082467D01*
X0224121Y0085302D01*
X0224121Y0088138D01*
X0221286Y0090974D01*
X0212778Y0090974D01*
X0221286Y0090974D02*
X0224121Y0093810D01*
X0224121Y0096645D01*
X0221286Y0099481D01*
X0212778Y0099481D01*
X0212778Y0082467D01*
X0231194Y0085302D02*
X0231194Y0090974D01*
X0234030Y0093810D01*
X0239701Y0093810D01*
X0242537Y0090974D01*
X0242537Y0085302D01*
X0239701Y0082467D01*
X0234030Y0082467D01*
X0231194Y0085302D01*
X0249610Y0093810D02*
X0255281Y0093810D01*
X0252446Y0096645D02*
X0252446Y0085302D01*
X0255281Y0082467D01*
X0264723Y0085302D02*
X0267559Y0082467D01*
X0264723Y0085302D02*
X0264723Y0096645D01*
X0261887Y0093810D02*
X0267559Y0093810D01*
X0274164Y0090974D02*
X0274164Y0085302D01*
X0277000Y0082467D01*
X0282672Y0082467D01*
X0285507Y0085302D01*
X0285507Y0090974D01*
X0282672Y0093810D01*
X0277000Y0093810D01*
X0274164Y0090974D01*
X0292580Y0093810D02*
X0292580Y0082467D01*
X0298251Y0082467D02*
X0298251Y0090974D01*
X0301087Y0093810D01*
X0303923Y0090974D01*
X0303923Y0082467D01*
X0298251Y0090974D02*
X0295416Y0093810D01*
X0292580Y0093810D01*
D11*
X0322528Y0258067D03*
X0322528Y0263067D03*
X0322528Y0268067D03*
X0322528Y0273067D03*
X0322528Y0278067D03*
X0327528Y0278067D03*
X0327528Y0273067D03*
X0327528Y0268067D03*
X0327528Y0263067D03*
X0327528Y0258067D03*
D12*
X0343378Y0199717D03*
X0353378Y0199717D03*
D13*
X0351028Y0219317D03*
X0361128Y0219217D03*
X0371128Y0219217D03*
X0371128Y0229217D03*
X0361128Y0229217D03*
X0351128Y0229217D03*
X0351128Y0239217D03*
X0361128Y0239217D03*
X0371128Y0239217D03*
X0268078Y0195267D03*
X0258078Y0195267D03*
X0248078Y0195267D03*
X0248078Y0185267D03*
X0258078Y0185267D03*
X0268078Y0185267D03*
X0268078Y0175267D03*
X0258078Y0175267D03*
X0248078Y0175267D03*
X0204378Y0264167D03*
X0194378Y0264167D03*
X0184378Y0264167D03*
X0184378Y0274167D03*
X0194378Y0274167D03*
X0204378Y0274167D03*
X0204378Y0284167D03*
X0194378Y0284167D03*
X0184378Y0284167D03*
X0240628Y0343967D03*
X0250628Y0343967D03*
X0250628Y0353217D03*
X0240628Y0353217D03*
X0240628Y0362467D03*
X0250628Y0362467D03*
X0260628Y0362467D03*
X0260628Y0353217D03*
X0260628Y0343967D03*
D14*
X0264727Y0348000D02*
X0292016Y0348000D01*
X0290418Y0346401D02*
X0266325Y0346401D01*
X0266378Y0346348D02*
X0264135Y0348592D01*
X0266378Y0350835D01*
X0266378Y0355598D01*
X0264064Y0357912D01*
X0266278Y0360126D01*
X0266278Y0361967D01*
X0261129Y0361967D01*
X0261129Y0362967D01*
X0266278Y0362967D01*
X0266278Y0364807D01*
X0264919Y0366167D01*
X0355028Y0366167D01*
X0355028Y0351900D01*
X0355462Y0350852D01*
X0356264Y0350051D01*
X0357312Y0349617D01*
X0375078Y0349617D01*
X0375078Y0279018D01*
X0374821Y0279275D01*
X0373755Y0279717D01*
X0372974Y0279717D01*
X0373924Y0280667D01*
X0374978Y0281721D01*
X0374978Y0291562D01*
X0370928Y0295612D01*
X0369874Y0296667D01*
X0368180Y0296667D01*
X0367521Y0297325D01*
X0366455Y0297767D01*
X0365302Y0297767D01*
X0364236Y0297325D01*
X0363420Y0296509D01*
X0362978Y0295444D01*
X0362978Y0294290D01*
X0363420Y0293224D01*
X0364236Y0292408D01*
X0365302Y0291967D01*
X0366327Y0291967D01*
X0366320Y0291959D01*
X0365878Y0290894D01*
X0365878Y0289740D01*
X0366320Y0288674D01*
X0366952Y0288042D01*
X0366320Y0287409D01*
X0365878Y0286344D01*
X0365878Y0285190D01*
X0366320Y0284124D01*
X0367136Y0283308D01*
X0367623Y0283106D01*
X0366378Y0281862D01*
X0366378Y0277162D01*
X0365128Y0275912D01*
X0365128Y0274312D01*
X0358183Y0267367D01*
X0345283Y0267367D01*
X0344228Y0266312D01*
X0342642Y0264726D01*
X0342587Y0264859D01*
X0341771Y0265675D01*
X0340705Y0266117D01*
X0339552Y0266117D01*
X0338486Y0265675D01*
X0337670Y0264859D01*
X0337228Y0263794D01*
X0337228Y0262640D01*
X0337670Y0261574D01*
X0338486Y0260758D01*
X0338728Y0260658D01*
X0338728Y0246062D01*
X0336033Y0243367D01*
X0325824Y0243367D01*
X0323224Y0245967D01*
X0320074Y0245967D01*
X0318974Y0247067D01*
X0310883Y0247067D01*
X0309828Y0246012D01*
X0307933Y0244117D01*
X0307002Y0244117D01*
X0305936Y0243675D01*
X0305120Y0242859D01*
X0304845Y0242196D01*
X0297028Y0250012D01*
X0297028Y0266162D01*
X0293428Y0269762D01*
X0293428Y0270015D01*
X0294087Y0270674D01*
X0294528Y0271740D01*
X0294528Y0272894D01*
X0294250Y0273567D01*
X0304124Y0273567D01*
X0305178Y0274621D01*
X0305178Y0274621D01*
X0312578Y0282021D01*
X0312578Y0275212D01*
X0312163Y0274797D01*
X0312137Y0274859D01*
X0311321Y0275675D01*
X0310255Y0276117D01*
X0309102Y0276117D01*
X0308036Y0275675D01*
X0307220Y0274859D01*
X0306778Y0273794D01*
X0306778Y0272640D01*
X0307220Y0271574D01*
X0308036Y0270758D01*
X0308098Y0270732D01*
X0307883Y0270517D01*
X0304145Y0270517D01*
X0303837Y0271259D01*
X0303021Y0272075D01*
X0301955Y0272517D01*
X0300802Y0272517D01*
X0299736Y0272075D01*
X0298920Y0271259D01*
X0298478Y0270194D01*
X0298478Y0269040D01*
X0298920Y0267974D01*
X0299727Y0267167D01*
X0299370Y0266809D01*
X0298928Y0265744D01*
X0298928Y0264590D01*
X0299370Y0263524D01*
X0300186Y0262708D01*
X0301252Y0262267D01*
X0302405Y0262267D01*
X0302849Y0262451D01*
X0309033Y0256267D01*
X0316577Y0256267D01*
X0316070Y0255759D01*
X0315628Y0254694D01*
X0315628Y0253540D01*
X0316070Y0252474D01*
X0316886Y0251658D01*
X0317952Y0251217D01*
X0319105Y0251217D01*
X0320171Y0251658D01*
X0320987Y0252474D01*
X0321428Y0253540D01*
X0321428Y0254694D01*
X0321398Y0254767D01*
X0321836Y0254586D01*
X0323221Y0254586D01*
X0324500Y0255116D01*
X0325028Y0255644D01*
X0325557Y0255116D01*
X0326836Y0254586D01*
X0328221Y0254586D01*
X0329500Y0255116D01*
X0330480Y0256095D01*
X0331010Y0257374D01*
X0331010Y0258759D01*
X0330480Y0260039D01*
X0329881Y0260637D01*
X0330155Y0260911D01*
X0330525Y0261465D01*
X0330780Y0262080D01*
X0330910Y0262734D01*
X0330910Y0263067D01*
X0330910Y0263400D01*
X0330780Y0264053D01*
X0330525Y0264668D01*
X0330155Y0265222D01*
X0329810Y0265567D01*
X0330155Y0265911D01*
X0330525Y0266465D01*
X0330780Y0267080D01*
X0330910Y0267734D01*
X0330910Y0268067D01*
X0330910Y0268400D01*
X0330780Y0269053D01*
X0330525Y0269668D01*
X0330155Y0270222D01*
X0329881Y0270496D01*
X0330480Y0271095D01*
X0331010Y0272374D01*
X0331010Y0273759D01*
X0330480Y0275039D01*
X0329881Y0275637D01*
X0330155Y0275911D01*
X0330525Y0276465D01*
X0330780Y0277080D01*
X0330910Y0277734D01*
X0330910Y0278067D01*
X0330910Y0278400D01*
X0330780Y0279053D01*
X0330525Y0279668D01*
X0330155Y0280222D01*
X0329684Y0280693D01*
X0329130Y0281063D01*
X0328515Y0281318D01*
X0327861Y0281448D01*
X0327529Y0281448D01*
X0327529Y0278067D01*
X0330910Y0278067D01*
X0327529Y0278067D01*
X0327529Y0278067D01*
X0327528Y0278067D01*
X0327528Y0281448D01*
X0327195Y0281448D01*
X0326542Y0281318D01*
X0325927Y0281063D01*
X0325373Y0280693D01*
X0325099Y0280419D01*
X0324500Y0281018D01*
X0323221Y0281548D01*
X0321836Y0281548D01*
X0320557Y0281018D01*
X0319577Y0280039D01*
X0319381Y0279565D01*
X0318971Y0279975D01*
X0317905Y0280417D01*
X0316752Y0280417D01*
X0316178Y0280179D01*
X0316178Y0286517D01*
X0319824Y0286517D01*
X0325574Y0292267D01*
X0334083Y0292267D01*
X0337628Y0288721D01*
X0337628Y0287968D01*
X0337370Y0287709D01*
X0336928Y0286644D01*
X0336928Y0285490D01*
X0337370Y0284424D01*
X0338186Y0283608D01*
X0338866Y0283326D01*
X0338728Y0282994D01*
X0338728Y0281840D01*
X0339170Y0280774D01*
X0339986Y0279958D01*
X0341052Y0279517D01*
X0342205Y0279517D01*
X0343271Y0279958D01*
X0344087Y0280774D01*
X0344528Y0281840D01*
X0344528Y0282994D01*
X0344087Y0284059D01*
X0343271Y0284875D01*
X0342591Y0285157D01*
X0342636Y0285267D01*
X0344177Y0285267D01*
X0344836Y0284608D01*
X0345902Y0284167D01*
X0347055Y0284167D01*
X0348121Y0284608D01*
X0348937Y0285424D01*
X0349378Y0286490D01*
X0349378Y0287644D01*
X0348937Y0288709D01*
X0348121Y0289525D01*
X0347055Y0289967D01*
X0345978Y0289967D01*
X0345978Y0290144D01*
X0345537Y0291209D01*
X0344721Y0292025D01*
X0343655Y0292467D01*
X0342724Y0292467D01*
X0336724Y0298467D01*
X0322774Y0298467D01*
X0322224Y0299017D01*
X0318583Y0299017D01*
X0318033Y0298467D01*
X0311780Y0298467D01*
X0311121Y0299125D01*
X0310055Y0299567D01*
X0308902Y0299567D01*
X0307836Y0299125D01*
X0307020Y0298309D01*
X0306578Y0297244D01*
X0306578Y0296090D01*
X0307020Y0295024D01*
X0307678Y0294365D01*
X0307678Y0284062D01*
X0301983Y0278367D01*
X0286824Y0278367D01*
X0285795Y0279396D01*
X0285978Y0279840D01*
X0285978Y0280994D01*
X0285537Y0282059D01*
X0284721Y0282875D01*
X0283655Y0283317D01*
X0282502Y0283317D01*
X0281436Y0282875D01*
X0281422Y0282862D01*
X0281237Y0283309D01*
X0280421Y0284125D01*
X0279355Y0284567D01*
X0278202Y0284567D01*
X0277136Y0284125D01*
X0276320Y0283309D01*
X0275878Y0282244D01*
X0275878Y0281090D01*
X0276320Y0280024D01*
X0276978Y0279365D01*
X0276978Y0278321D01*
X0280678Y0274621D01*
X0281733Y0273567D01*
X0286357Y0273567D01*
X0286136Y0273475D01*
X0285320Y0272659D01*
X0284878Y0271594D01*
X0284878Y0270440D01*
X0285320Y0269374D01*
X0286136Y0268558D01*
X0287202Y0268117D01*
X0288133Y0268117D01*
X0288156Y0268094D01*
X0287386Y0267775D01*
X0286570Y0266959D01*
X0286128Y0265894D01*
X0286128Y0264740D01*
X0286570Y0263674D01*
X0287228Y0263015D01*
X0287228Y0251071D01*
X0319728Y0218571D01*
X0320783Y0217517D01*
X0345278Y0217517D01*
X0345278Y0216943D01*
X0345236Y0216925D01*
X0344420Y0216109D01*
X0343978Y0215044D01*
X0343978Y0213890D01*
X0344420Y0212824D01*
X0345236Y0212008D01*
X0346302Y0211567D01*
X0347455Y0211567D01*
X0348521Y0212008D01*
X0349337Y0212824D01*
X0349645Y0213567D01*
X0353410Y0213567D01*
X0356028Y0216185D01*
X0358747Y0213467D01*
X0363510Y0213467D01*
X0366199Y0216156D01*
X0368788Y0213567D01*
X0370628Y0213567D01*
X0370628Y0218717D01*
X0371628Y0218717D01*
X0371628Y0213567D01*
X0373469Y0213567D01*
X0375078Y0215176D01*
X0375078Y0171767D01*
X0317880Y0171767D01*
X0318187Y0172074D01*
X0318628Y0173140D01*
X0318628Y0174294D01*
X0318187Y0175359D01*
X0317371Y0176175D01*
X0316305Y0176617D01*
X0315152Y0176617D01*
X0314259Y0176247D01*
X0314628Y0177140D01*
X0314628Y0178294D01*
X0314259Y0179187D01*
X0315152Y0178817D01*
X0316305Y0178817D01*
X0317371Y0179258D01*
X0318187Y0180074D01*
X0318628Y0181140D01*
X0318628Y0182294D01*
X0318187Y0183359D01*
X0317371Y0184175D01*
X0316305Y0184617D01*
X0315152Y0184617D01*
X0314259Y0184247D01*
X0314628Y0185140D01*
X0314628Y0186294D01*
X0314187Y0187359D01*
X0313371Y0188175D01*
X0312305Y0188617D01*
X0311152Y0188617D01*
X0310086Y0188175D01*
X0309270Y0187359D01*
X0308828Y0186294D01*
X0308828Y0185140D01*
X0309198Y0184247D01*
X0308305Y0184617D01*
X0307152Y0184617D01*
X0306086Y0184175D01*
X0305270Y0183359D01*
X0304828Y0182294D01*
X0304828Y0181140D01*
X0305198Y0180247D01*
X0304305Y0180617D01*
X0303152Y0180617D01*
X0302259Y0180247D01*
X0302628Y0181140D01*
X0302628Y0182294D01*
X0302187Y0183359D01*
X0301371Y0184175D01*
X0300305Y0184617D01*
X0299152Y0184617D01*
X0298086Y0184175D01*
X0297270Y0183359D01*
X0296828Y0182294D01*
X0296828Y0181140D01*
X0297198Y0180247D01*
X0296305Y0180617D01*
X0295152Y0180617D01*
X0294259Y0180247D01*
X0294628Y0181140D01*
X0294628Y0182294D01*
X0294187Y0183359D01*
X0293371Y0184175D01*
X0292305Y0184617D01*
X0291152Y0184617D01*
X0290086Y0184175D01*
X0289270Y0183359D01*
X0288828Y0182294D01*
X0288828Y0181140D01*
X0289270Y0180074D01*
X0290086Y0179258D01*
X0291152Y0178817D01*
X0292305Y0178817D01*
X0293198Y0179187D01*
X0292828Y0178294D01*
X0292828Y0177140D01*
X0293198Y0176247D01*
X0292305Y0176617D01*
X0291152Y0176617D01*
X0290086Y0176175D01*
X0289270Y0175359D01*
X0288828Y0174294D01*
X0288828Y0173140D01*
X0289270Y0172074D01*
X0289577Y0171767D01*
X0272710Y0171767D01*
X0273828Y0172885D01*
X0273828Y0177648D01*
X0271139Y0180337D01*
X0273728Y0182926D01*
X0273728Y0184767D01*
X0268579Y0184767D01*
X0268579Y0185767D01*
X0273728Y0185767D01*
X0273728Y0187607D01*
X0271139Y0190196D01*
X0273828Y0192885D01*
X0273828Y0197648D01*
X0270460Y0201017D01*
X0267324Y0201017D01*
X0265528Y0202812D01*
X0264474Y0203867D01*
X0256574Y0203867D01*
X0252478Y0207962D01*
X0252478Y0230671D01*
X0254728Y0232921D01*
X0254728Y0232240D01*
X0255170Y0231174D01*
X0255986Y0230358D01*
X0257052Y0229917D01*
X0258205Y0229917D01*
X0259271Y0230358D01*
X0260087Y0231174D01*
X0260528Y0232240D01*
X0260528Y0233394D01*
X0260087Y0234459D01*
X0259271Y0235275D01*
X0258530Y0235582D01*
X0258678Y0235940D01*
X0258678Y0237094D01*
X0258237Y0238159D01*
X0257421Y0238975D01*
X0256355Y0239417D01*
X0255369Y0239417D01*
X0254937Y0240459D01*
X0254121Y0241275D01*
X0253947Y0241347D01*
X0254378Y0242390D01*
X0254378Y0243544D01*
X0253937Y0244609D01*
X0253121Y0245425D01*
X0252055Y0245867D01*
X0250902Y0245867D01*
X0249836Y0245425D01*
X0249020Y0244609D01*
X0248578Y0243544D01*
X0248578Y0242612D01*
X0246278Y0240312D01*
X0246278Y0201017D01*
X0245697Y0201017D01*
X0242328Y0197648D01*
X0242328Y0192934D01*
X0241405Y0193317D01*
X0240252Y0193317D01*
X0239186Y0192875D01*
X0238370Y0192059D01*
X0237928Y0190994D01*
X0237928Y0189840D01*
X0238370Y0188774D01*
X0239186Y0187958D01*
X0240252Y0187517D01*
X0241405Y0187517D01*
X0242471Y0187958D01*
X0243287Y0188774D01*
X0243728Y0189840D01*
X0243728Y0190994D01*
X0243381Y0191832D01*
X0245017Y0190196D01*
X0242428Y0187607D01*
X0242428Y0185767D01*
X0247578Y0185767D01*
X0247578Y0184767D01*
X0242428Y0184767D01*
X0242428Y0182926D01*
X0245017Y0180337D01*
X0242328Y0177648D01*
X0242328Y0172885D01*
X0243447Y0171767D01*
X0196228Y0171767D01*
X0196228Y0193034D01*
X0195795Y0194081D01*
X0194993Y0194883D01*
X0193945Y0195317D01*
X0180678Y0195317D01*
X0180678Y0259876D01*
X0182038Y0258517D01*
X0183878Y0258517D01*
X0183878Y0263667D01*
X0184878Y0263667D01*
X0184878Y0258517D01*
X0186719Y0258517D01*
X0189308Y0261106D01*
X0191997Y0258417D01*
X0196760Y0258417D01*
X0199378Y0261035D01*
X0201997Y0258417D01*
X0206760Y0258417D01*
X0210128Y0261785D01*
X0210128Y0262367D01*
X0240837Y0262367D01*
X0241020Y0261924D01*
X0241836Y0261108D01*
X0242902Y0260667D01*
X0243328Y0260667D01*
X0243328Y0259890D01*
X0243770Y0258824D01*
X0244030Y0258564D01*
X0228228Y0242762D01*
X0228228Y0237768D01*
X0227570Y0237109D01*
X0227128Y0236044D01*
X0227128Y0234890D01*
X0227570Y0233824D01*
X0228386Y0233008D01*
X0229452Y0232567D01*
X0230605Y0232567D01*
X0231671Y0233008D01*
X0232487Y0233824D01*
X0232928Y0234890D01*
X0232928Y0236044D01*
X0232487Y0237109D01*
X0231828Y0237768D01*
X0231828Y0241271D01*
X0232278Y0241721D01*
X0232278Y0241340D01*
X0232720Y0240274D01*
X0233536Y0239458D01*
X0234602Y0239017D01*
X0235755Y0239017D01*
X0236821Y0239458D01*
X0237637Y0240274D01*
X0238078Y0241340D01*
X0238078Y0242021D01*
X0250824Y0254767D01*
X0253727Y0254767D01*
X0254386Y0254108D01*
X0255452Y0253667D01*
X0256605Y0253667D01*
X0257671Y0254108D01*
X0258487Y0254924D01*
X0258928Y0255990D01*
X0258928Y0257144D01*
X0258487Y0258209D01*
X0257671Y0259025D01*
X0256605Y0259467D01*
X0255452Y0259467D01*
X0254386Y0259025D01*
X0253727Y0258367D01*
X0249333Y0258367D01*
X0248278Y0257312D01*
X0235775Y0244809D01*
X0235755Y0244817D01*
X0235374Y0244817D01*
X0246974Y0256417D01*
X0248028Y0257471D01*
X0248028Y0258165D01*
X0248687Y0258824D01*
X0249079Y0259771D01*
X0249283Y0259567D01*
X0255724Y0259567D01*
X0256778Y0260621D01*
X0256974Y0260817D01*
X0257905Y0260817D01*
X0258971Y0261258D01*
X0259787Y0262074D01*
X0260228Y0263140D01*
X0260228Y0264294D01*
X0259787Y0265359D01*
X0259123Y0266024D01*
X0260171Y0266458D01*
X0260987Y0267274D01*
X0261428Y0268340D01*
X0261428Y0269494D01*
X0260987Y0270559D01*
X0260171Y0271375D01*
X0259105Y0271817D01*
X0257952Y0271817D01*
X0256886Y0271375D01*
X0256070Y0270559D01*
X0255628Y0269494D01*
X0255628Y0268562D01*
X0254833Y0267767D01*
X0241733Y0267767D01*
X0240678Y0266712D01*
X0239933Y0265967D01*
X0210128Y0265967D01*
X0210128Y0266548D01*
X0209999Y0266678D01*
X0210071Y0266708D01*
X0210887Y0267524D01*
X0211328Y0268590D01*
X0211328Y0269744D01*
X0210887Y0270809D01*
X0210071Y0271625D01*
X0209999Y0271655D01*
X0210128Y0271785D01*
X0210128Y0272517D01*
X0259827Y0272517D01*
X0260486Y0271858D01*
X0261552Y0271417D01*
X0262705Y0271417D01*
X0263771Y0271858D01*
X0264587Y0272674D01*
X0265028Y0273740D01*
X0265028Y0274894D01*
X0264587Y0275959D01*
X0263771Y0276775D01*
X0262705Y0277217D01*
X0261552Y0277217D01*
X0260692Y0276861D01*
X0260828Y0277190D01*
X0260828Y0278344D01*
X0260387Y0279409D01*
X0259571Y0280225D01*
X0258505Y0280667D01*
X0257352Y0280667D01*
X0256286Y0280225D01*
X0255627Y0279567D01*
X0245162Y0279567D01*
X0245378Y0280090D01*
X0245378Y0281021D01*
X0249824Y0285467D01*
X0250878Y0286521D01*
X0250878Y0294971D01*
X0251428Y0295521D01*
X0251428Y0300712D01*
X0250774Y0301367D01*
X0252433Y0301367D01*
X0254754Y0299046D01*
X0254628Y0298744D01*
X0254628Y0297590D01*
X0255070Y0296524D01*
X0255886Y0295708D01*
X0256952Y0295267D01*
X0258105Y0295267D01*
X0259171Y0295708D01*
X0259987Y0296524D01*
X0260428Y0297590D01*
X0260428Y0298744D01*
X0260357Y0298917D01*
X0275828Y0298917D01*
X0275828Y0295221D01*
X0278228Y0292821D01*
X0278228Y0291890D01*
X0278670Y0290824D01*
X0279486Y0290008D01*
X0280552Y0289567D01*
X0281705Y0289567D01*
X0282771Y0290008D01*
X0283587Y0290824D01*
X0284028Y0291890D01*
X0284028Y0292897D01*
X0284102Y0292867D01*
X0285255Y0292867D01*
X0286321Y0293308D01*
X0287137Y0294124D01*
X0287304Y0294527D01*
X0288052Y0294217D01*
X0289205Y0294217D01*
X0290271Y0294658D01*
X0291087Y0295474D01*
X0291528Y0296540D01*
X0291528Y0297694D01*
X0291087Y0298759D01*
X0290271Y0299575D01*
X0289205Y0300017D01*
X0288052Y0300017D01*
X0287325Y0299716D01*
X0272828Y0314212D01*
X0272828Y0334312D01*
X0271774Y0335367D01*
X0269078Y0338062D01*
X0268197Y0338944D01*
X0268278Y0339140D01*
X0268278Y0340294D01*
X0267837Y0341359D01*
X0267021Y0342175D01*
X0266378Y0342441D01*
X0266378Y0346348D01*
X0266378Y0344803D02*
X0289028Y0344803D01*
X0289028Y0345012D02*
X0289028Y0336612D01*
X0288336Y0336325D01*
X0287520Y0335509D01*
X0287078Y0334444D01*
X0287078Y0333290D01*
X0287520Y0332224D01*
X0288336Y0331408D01*
X0289402Y0330967D01*
X0290555Y0330967D01*
X0291621Y0331408D01*
X0292437Y0332224D01*
X0292878Y0333290D01*
X0292878Y0334444D01*
X0292628Y0335047D01*
X0292628Y0335068D01*
X0292752Y0335017D01*
X0293905Y0335017D01*
X0294971Y0335458D01*
X0295787Y0336274D01*
X0296228Y0337340D01*
X0296228Y0338494D01*
X0295787Y0339559D01*
X0295128Y0340218D01*
X0295128Y0344221D01*
X0296324Y0345417D01*
X0296491Y0345417D01*
X0296591Y0345317D01*
X0317841Y0345317D01*
X0322691Y0340467D01*
X0316391Y0340467D01*
X0315278Y0339354D01*
X0313541Y0337617D01*
X0304091Y0337617D01*
X0302978Y0336504D01*
X0296491Y0330017D01*
X0294133Y0330017D01*
X0291733Y0327617D01*
X0290678Y0326562D01*
X0290678Y0315962D01*
X0287383Y0312667D01*
X0286452Y0312667D01*
X0285386Y0312225D01*
X0284570Y0311409D01*
X0284128Y0310344D01*
X0284128Y0309190D01*
X0284570Y0308124D01*
X0285386Y0307308D01*
X0286452Y0306867D01*
X0287605Y0306867D01*
X0288671Y0307308D01*
X0289228Y0307865D01*
X0289386Y0307708D01*
X0290452Y0307267D01*
X0291605Y0307267D01*
X0292671Y0307708D01*
X0293487Y0308524D01*
X0293928Y0309590D01*
X0293928Y0310471D01*
X0294524Y0311067D01*
X0295578Y0312121D01*
X0295578Y0324521D01*
X0295624Y0324567D01*
X0302549Y0324567D01*
X0302228Y0323794D01*
X0302228Y0322640D01*
X0302670Y0321574D01*
X0303486Y0320758D01*
X0304552Y0320317D01*
X0305341Y0320317D01*
X0318978Y0306680D01*
X0320091Y0305567D01*
X0338415Y0305567D01*
X0340165Y0307317D01*
X0340955Y0307317D01*
X0342021Y0307758D01*
X0342837Y0308574D01*
X0343278Y0309640D01*
X0343278Y0310794D01*
X0342837Y0311859D01*
X0342021Y0312675D01*
X0341432Y0312919D01*
X0341837Y0313324D01*
X0342278Y0314390D01*
X0342278Y0315544D01*
X0341837Y0316609D01*
X0341021Y0317425D01*
X0339955Y0317867D01*
X0338802Y0317867D01*
X0337736Y0317425D01*
X0336920Y0316609D01*
X0336612Y0315867D01*
X0332665Y0315867D01*
X0318946Y0329586D01*
X0319278Y0330390D01*
X0319278Y0331544D01*
X0318837Y0332609D01*
X0318021Y0333425D01*
X0316955Y0333867D01*
X0315802Y0333867D01*
X0314736Y0333425D01*
X0313920Y0332609D01*
X0313778Y0332268D01*
X0313778Y0332754D01*
X0312715Y0333817D01*
X0315115Y0333817D01*
X0317965Y0336667D01*
X0318709Y0336667D01*
X0318678Y0336594D01*
X0318678Y0335440D01*
X0319120Y0334374D01*
X0319936Y0333558D01*
X0321002Y0333117D01*
X0322155Y0333117D01*
X0323221Y0333558D01*
X0324037Y0334374D01*
X0324478Y0335440D01*
X0324478Y0335530D01*
X0325941Y0334067D01*
X0349665Y0334067D01*
X0350778Y0335180D01*
X0350778Y0336265D01*
X0351337Y0336824D01*
X0351778Y0337890D01*
X0351778Y0339044D01*
X0351337Y0340109D01*
X0350521Y0340925D01*
X0349455Y0341367D01*
X0348302Y0341367D01*
X0347236Y0340925D01*
X0346420Y0340109D01*
X0346278Y0339768D01*
X0346278Y0340044D01*
X0345837Y0341109D01*
X0345021Y0341925D01*
X0343955Y0342367D01*
X0342802Y0342367D01*
X0341736Y0341925D01*
X0340920Y0341109D01*
X0340478Y0340044D01*
X0340478Y0338890D01*
X0340902Y0337867D01*
X0337562Y0337867D01*
X0337778Y0338390D01*
X0337778Y0339544D01*
X0337337Y0340609D01*
X0336521Y0341425D01*
X0335455Y0341867D01*
X0334302Y0341867D01*
X0333236Y0341425D01*
X0332420Y0340609D01*
X0331978Y0339544D01*
X0331978Y0338390D01*
X0332195Y0337867D01*
X0328930Y0337867D01*
X0329271Y0338008D01*
X0330087Y0338824D01*
X0330528Y0339890D01*
X0330528Y0341044D01*
X0330087Y0342109D01*
X0329271Y0342925D01*
X0328205Y0343367D01*
X0327052Y0343367D01*
X0325986Y0342925D01*
X0325796Y0342736D01*
X0325465Y0343067D01*
X0326205Y0343067D01*
X0327271Y0343508D01*
X0328087Y0344324D01*
X0328528Y0345390D01*
X0328528Y0346544D01*
X0328087Y0347609D01*
X0327271Y0348425D01*
X0326205Y0348867D01*
X0325052Y0348867D01*
X0324955Y0348827D01*
X0324028Y0349754D01*
X0322915Y0350867D01*
X0302680Y0350867D01*
X0303021Y0351008D01*
X0303837Y0351824D01*
X0304278Y0352890D01*
X0304278Y0354044D01*
X0303837Y0355109D01*
X0303021Y0355925D01*
X0301955Y0356367D01*
X0300802Y0356367D01*
X0299736Y0355925D01*
X0298920Y0355109D01*
X0298478Y0354044D01*
X0298478Y0352890D01*
X0298920Y0351824D01*
X0299736Y0351008D01*
X0300077Y0350867D01*
X0296641Y0350867D01*
X0296541Y0350767D01*
X0294783Y0350767D01*
X0290083Y0346067D01*
X0289028Y0345012D01*
X0289028Y0343204D02*
X0266378Y0343204D01*
X0267590Y0341606D02*
X0289028Y0341606D01*
X0289028Y0340007D02*
X0268278Y0340007D01*
X0268732Y0338409D02*
X0289028Y0338409D01*
X0289028Y0336810D02*
X0270330Y0336810D01*
X0269078Y0338062D02*
X0269078Y0338062D01*
X0271774Y0335367D02*
X0271774Y0335367D01*
X0271929Y0335212D02*
X0287397Y0335212D01*
X0287078Y0333613D02*
X0272828Y0333613D01*
X0272828Y0332015D02*
X0287729Y0332015D01*
X0292228Y0332015D02*
X0298490Y0332015D01*
X0300088Y0333613D02*
X0292878Y0333613D01*
X0294377Y0335212D02*
X0301687Y0335212D01*
X0303285Y0336810D02*
X0296009Y0336810D01*
X0296228Y0338409D02*
X0314334Y0338409D01*
X0315932Y0340007D02*
X0307204Y0340007D01*
X0307087Y0339724D02*
X0307528Y0340790D01*
X0307528Y0341944D01*
X0307087Y0343009D01*
X0306271Y0343825D01*
X0305205Y0344267D01*
X0304052Y0344267D01*
X0302986Y0343825D01*
X0302170Y0343009D01*
X0301728Y0341944D01*
X0301728Y0340790D01*
X0302170Y0339724D01*
X0302986Y0338908D01*
X0304052Y0338467D01*
X0305205Y0338467D01*
X0306271Y0338908D01*
X0307087Y0339724D01*
X0307528Y0341606D02*
X0321552Y0341606D01*
X0319954Y0343204D02*
X0306892Y0343204D01*
X0302365Y0343204D02*
X0295128Y0343204D01*
X0295128Y0341606D02*
X0301728Y0341606D01*
X0302053Y0340007D02*
X0295339Y0340007D01*
X0295710Y0344803D02*
X0318355Y0344803D01*
X0324184Y0349598D02*
X0327183Y0349598D01*
X0327502Y0349467D02*
X0328655Y0349467D01*
X0329721Y0349908D01*
X0330537Y0350724D01*
X0330978Y0351790D01*
X0330978Y0352944D01*
X0330537Y0354009D01*
X0329721Y0354825D01*
X0328655Y0355267D01*
X0327502Y0355267D01*
X0326436Y0354825D01*
X0325620Y0354009D01*
X0325178Y0352944D01*
X0325178Y0351790D01*
X0325620Y0350724D01*
X0326436Y0349908D01*
X0327502Y0349467D01*
X0328973Y0349598D02*
X0375078Y0349598D01*
X0375078Y0348000D02*
X0327696Y0348000D01*
X0328528Y0346401D02*
X0362782Y0346401D01*
X0363302Y0346617D02*
X0362236Y0346175D01*
X0361420Y0345359D01*
X0360978Y0344294D01*
X0360978Y0343140D01*
X0361420Y0342074D01*
X0362236Y0341258D01*
X0363302Y0340817D01*
X0364455Y0340817D01*
X0365521Y0341258D01*
X0366337Y0342074D01*
X0366778Y0343140D01*
X0366778Y0344294D01*
X0366337Y0345359D01*
X0365521Y0346175D01*
X0364455Y0346617D01*
X0363302Y0346617D01*
X0364975Y0346401D02*
X0375078Y0346401D01*
X0375078Y0344803D02*
X0366567Y0344803D01*
X0366778Y0343204D02*
X0375078Y0343204D01*
X0375078Y0341606D02*
X0365869Y0341606D01*
X0361888Y0341606D02*
X0345340Y0341606D01*
X0346278Y0340007D02*
X0346378Y0340007D01*
X0351379Y0340007D02*
X0375078Y0340007D01*
X0375078Y0338409D02*
X0351778Y0338409D01*
X0351323Y0336810D02*
X0375078Y0336810D01*
X0375078Y0335212D02*
X0350778Y0335212D01*
X0346521Y0331425D02*
X0345455Y0331867D01*
X0344302Y0331867D01*
X0343236Y0331425D01*
X0342420Y0330609D01*
X0341978Y0329544D01*
X0341978Y0328390D01*
X0342420Y0327324D01*
X0343236Y0326508D01*
X0344302Y0326067D01*
X0345455Y0326067D01*
X0346521Y0326508D01*
X0347337Y0327324D01*
X0347778Y0328390D01*
X0347778Y0329544D01*
X0347337Y0330609D01*
X0346521Y0331425D01*
X0347417Y0330416D02*
X0375078Y0330416D01*
X0375078Y0328818D02*
X0347778Y0328818D01*
X0347232Y0327219D02*
X0375078Y0327219D01*
X0375078Y0325621D02*
X0322911Y0325621D01*
X0321313Y0327219D02*
X0342525Y0327219D01*
X0341978Y0328818D02*
X0319714Y0328818D01*
X0319278Y0330416D02*
X0342340Y0330416D01*
X0340678Y0338409D02*
X0337778Y0338409D01*
X0337586Y0340007D02*
X0340478Y0340007D01*
X0341416Y0341606D02*
X0336085Y0341606D01*
X0333672Y0341606D02*
X0330296Y0341606D01*
X0330528Y0340007D02*
X0332171Y0340007D01*
X0331978Y0338409D02*
X0329672Y0338409D01*
X0328597Y0343204D02*
X0360978Y0343204D01*
X0361189Y0344803D02*
X0328285Y0344803D01*
X0326660Y0343204D02*
X0326538Y0343204D01*
X0325424Y0351197D02*
X0303210Y0351197D01*
X0304239Y0352795D02*
X0325178Y0352795D01*
X0326005Y0354394D02*
X0304133Y0354394D01*
X0302859Y0355993D02*
X0355028Y0355993D01*
X0355028Y0357591D02*
X0264386Y0357591D01*
X0265342Y0359190D02*
X0355028Y0359190D01*
X0355028Y0360788D02*
X0266278Y0360788D01*
X0266278Y0363985D02*
X0355028Y0363985D01*
X0355028Y0362387D02*
X0261129Y0362387D01*
X0260128Y0362387D02*
X0251129Y0362387D01*
X0251129Y0361967D02*
X0251129Y0362967D01*
X0256278Y0362967D01*
X0260128Y0362967D01*
X0260128Y0361967D01*
X0251129Y0361967D01*
X0250128Y0361967D02*
X0241129Y0361967D01*
X0241129Y0362967D01*
X0246278Y0362967D01*
X0250128Y0362967D01*
X0250128Y0361967D01*
X0250128Y0362387D02*
X0241129Y0362387D01*
X0240128Y0362387D02*
X0193921Y0362387D01*
X0193787Y0362709D02*
X0192971Y0363525D01*
X0191905Y0363967D01*
X0190752Y0363967D01*
X0189686Y0363525D01*
X0188870Y0362709D01*
X0188428Y0361644D01*
X0188428Y0360490D01*
X0188870Y0359424D01*
X0189686Y0358608D01*
X0190752Y0358167D01*
X0191683Y0358167D01*
X0215778Y0334071D01*
X0215778Y0332468D01*
X0215120Y0331809D01*
X0214678Y0330744D01*
X0214678Y0329590D01*
X0215120Y0328524D01*
X0215936Y0327708D01*
X0217002Y0327267D01*
X0218155Y0327267D01*
X0219221Y0327708D01*
X0220037Y0328524D01*
X0220478Y0329590D01*
X0220478Y0330744D01*
X0220037Y0331809D01*
X0219378Y0332468D01*
X0219378Y0335221D01*
X0220083Y0334517D01*
X0229463Y0325137D01*
X0229436Y0325125D01*
X0228620Y0324309D01*
X0228178Y0323244D01*
X0228178Y0322090D01*
X0228620Y0321024D01*
X0228677Y0320967D01*
X0222074Y0320967D01*
X0214574Y0328467D01*
X0189924Y0328467D01*
X0188678Y0329712D01*
X0188678Y0343315D01*
X0189337Y0343974D01*
X0189778Y0345040D01*
X0189778Y0346194D01*
X0189337Y0347259D01*
X0188980Y0347617D01*
X0189387Y0348024D01*
X0189828Y0349090D01*
X0189828Y0350244D01*
X0189387Y0351309D01*
X0188571Y0352125D01*
X0187505Y0352567D01*
X0186352Y0352567D01*
X0185286Y0352125D01*
X0184470Y0351309D01*
X0184028Y0350244D01*
X0184028Y0349362D01*
X0182178Y0347512D01*
X0182178Y0344517D01*
X0181452Y0344517D01*
X0180678Y0344196D01*
X0180678Y0366167D01*
X0236338Y0366167D01*
X0234978Y0364807D01*
X0234978Y0362967D01*
X0240128Y0362967D01*
X0240128Y0361967D01*
X0234978Y0361967D01*
X0234978Y0360126D01*
X0237192Y0357912D01*
X0234878Y0355598D01*
X0234878Y0350835D01*
X0237122Y0348592D01*
X0234878Y0346348D01*
X0234878Y0341912D01*
X0231628Y0345162D01*
X0231628Y0346094D01*
X0231187Y0347159D01*
X0230371Y0347975D01*
X0230167Y0348060D01*
X0232178Y0350071D01*
X0232178Y0354962D01*
X0230724Y0356417D01*
X0230878Y0356790D01*
X0230878Y0357944D01*
X0230437Y0359009D01*
X0229621Y0359825D01*
X0228555Y0360267D01*
X0227402Y0360267D01*
X0226336Y0359825D01*
X0225520Y0359009D01*
X0225078Y0357944D01*
X0225078Y0356790D01*
X0225520Y0355724D01*
X0226336Y0354908D01*
X0226533Y0354826D01*
X0225686Y0354475D01*
X0224870Y0353659D01*
X0224428Y0352594D01*
X0224428Y0351440D01*
X0224870Y0350374D01*
X0225205Y0350039D01*
X0219028Y0343862D01*
X0219028Y0335912D01*
X0194228Y0360712D01*
X0194228Y0361644D01*
X0193787Y0362709D01*
X0194228Y0360788D02*
X0234978Y0360788D01*
X0235915Y0359190D02*
X0230257Y0359190D01*
X0230878Y0357591D02*
X0236871Y0357591D01*
X0235273Y0355993D02*
X0231148Y0355993D01*
X0232178Y0354394D02*
X0234878Y0354394D01*
X0234878Y0352795D02*
X0232178Y0352795D01*
X0232178Y0351197D02*
X0234878Y0351197D01*
X0236115Y0349598D02*
X0231706Y0349598D01*
X0230311Y0348000D02*
X0236530Y0348000D01*
X0234932Y0346401D02*
X0231501Y0346401D01*
X0231988Y0344803D02*
X0234878Y0344803D01*
X0234878Y0343204D02*
X0233586Y0343204D01*
X0238927Y0338217D02*
X0240533Y0338217D01*
X0244433Y0334317D01*
X0255883Y0334317D01*
X0266628Y0323571D01*
X0266628Y0311771D01*
X0267683Y0310717D01*
X0271128Y0307271D01*
X0271128Y0307267D01*
X0270202Y0307267D01*
X0269136Y0306825D01*
X0268320Y0306009D01*
X0267878Y0304944D01*
X0267878Y0303790D01*
X0267888Y0303767D01*
X0256974Y0303767D01*
X0256708Y0304032D01*
X0256771Y0304058D01*
X0257587Y0304874D01*
X0258028Y0305940D01*
X0258028Y0307094D01*
X0257587Y0308159D01*
X0256771Y0308975D01*
X0255705Y0309417D01*
X0254552Y0309417D01*
X0253486Y0308975D01*
X0252670Y0308159D01*
X0252228Y0307094D01*
X0252228Y0306217D01*
X0249524Y0306217D01*
X0237074Y0318667D01*
X0249174Y0318667D01*
X0250228Y0319721D01*
X0252124Y0321617D01*
X0253178Y0322671D01*
X0253178Y0323615D01*
X0253887Y0324324D01*
X0254328Y0325390D01*
X0254328Y0326544D01*
X0253887Y0327609D01*
X0253071Y0328425D01*
X0252005Y0328867D01*
X0250852Y0328867D01*
X0249786Y0328425D01*
X0249403Y0328043D01*
X0248821Y0328625D01*
X0247755Y0329067D01*
X0246602Y0329067D01*
X0245536Y0328625D01*
X0244853Y0327943D01*
X0244771Y0328025D01*
X0243705Y0328467D01*
X0242552Y0328467D01*
X0241486Y0328025D01*
X0240872Y0327412D01*
X0240687Y0327859D01*
X0239871Y0328675D01*
X0238805Y0329117D01*
X0237652Y0329117D01*
X0237208Y0328933D01*
X0234292Y0331848D01*
X0234852Y0331617D01*
X0236005Y0331617D01*
X0237071Y0332058D01*
X0237887Y0332874D01*
X0238328Y0333940D01*
X0238328Y0335094D01*
X0237887Y0336159D01*
X0237627Y0336419D01*
X0237721Y0336458D01*
X0238537Y0337274D01*
X0238927Y0338217D01*
X0238073Y0336810D02*
X0241939Y0336810D01*
X0243538Y0335212D02*
X0238279Y0335212D01*
X0238193Y0333613D02*
X0256586Y0333613D01*
X0258185Y0332015D02*
X0236967Y0332015D01*
X0235724Y0330416D02*
X0259783Y0330416D01*
X0261382Y0328818D02*
X0252123Y0328818D01*
X0250734Y0328818D02*
X0248356Y0328818D01*
X0246001Y0328818D02*
X0239527Y0328818D01*
X0228979Y0325621D02*
X0217420Y0325621D01*
X0215821Y0327219D02*
X0227380Y0327219D01*
X0225782Y0328818D02*
X0220159Y0328818D01*
X0220478Y0330416D02*
X0224183Y0330416D01*
X0222585Y0332015D02*
X0219832Y0332015D01*
X0219378Y0333613D02*
X0220986Y0333613D01*
X0220083Y0334517D02*
X0220083Y0334517D01*
X0219388Y0335212D02*
X0219378Y0335212D01*
X0219028Y0336810D02*
X0218130Y0336810D01*
X0219028Y0338409D02*
X0216532Y0338409D01*
X0214933Y0340007D02*
X0219028Y0340007D01*
X0219028Y0341606D02*
X0213335Y0341606D01*
X0211736Y0343204D02*
X0219028Y0343204D01*
X0219969Y0344803D02*
X0210138Y0344803D01*
X0208539Y0346401D02*
X0221568Y0346401D01*
X0223166Y0348000D02*
X0206941Y0348000D01*
X0205342Y0349598D02*
X0224765Y0349598D01*
X0224529Y0351197D02*
X0203744Y0351197D01*
X0202145Y0352795D02*
X0224512Y0352795D01*
X0225605Y0354394D02*
X0200547Y0354394D01*
X0198948Y0355993D02*
X0225409Y0355993D01*
X0225078Y0357591D02*
X0197350Y0357591D01*
X0195751Y0359190D02*
X0225700Y0359190D01*
X0234978Y0363985D02*
X0180678Y0363985D01*
X0180678Y0362387D02*
X0188736Y0362387D01*
X0188428Y0360788D02*
X0180678Y0360788D01*
X0180678Y0359190D02*
X0189104Y0359190D01*
X0192259Y0357591D02*
X0180678Y0357591D01*
X0180678Y0355993D02*
X0193857Y0355993D01*
X0195456Y0354394D02*
X0180678Y0354394D01*
X0180678Y0352795D02*
X0197054Y0352795D01*
X0198653Y0351197D02*
X0189434Y0351197D01*
X0189828Y0349598D02*
X0200251Y0349598D01*
X0201850Y0348000D02*
X0189363Y0348000D01*
X0189692Y0346401D02*
X0203448Y0346401D01*
X0205047Y0344803D02*
X0189680Y0344803D01*
X0188678Y0343204D02*
X0206645Y0343204D01*
X0208244Y0341606D02*
X0188678Y0341606D01*
X0188678Y0340007D02*
X0209842Y0340007D01*
X0211441Y0338409D02*
X0188678Y0338409D01*
X0188678Y0336810D02*
X0213039Y0336810D01*
X0214638Y0335212D02*
X0188678Y0335212D01*
X0188678Y0333613D02*
X0215778Y0333613D01*
X0215325Y0332015D02*
X0188678Y0332015D01*
X0188678Y0330416D02*
X0214678Y0330416D01*
X0214998Y0328818D02*
X0189573Y0328818D01*
X0185829Y0325621D02*
X0180678Y0325621D01*
X0180678Y0327219D02*
X0184230Y0327219D01*
X0184233Y0327217D02*
X0187883Y0323567D01*
X0212533Y0323567D01*
X0212855Y0323245D01*
X0212070Y0322459D01*
X0211628Y0321394D01*
X0211628Y0320240D01*
X0212070Y0319174D01*
X0212886Y0318358D01*
X0213952Y0317917D01*
X0215105Y0317917D01*
X0215973Y0318276D01*
X0221980Y0312270D01*
X0221470Y0311759D01*
X0221028Y0310694D01*
X0221028Y0309540D01*
X0221470Y0308474D01*
X0222286Y0307658D01*
X0223352Y0307217D01*
X0224505Y0307217D01*
X0225571Y0307658D01*
X0226387Y0308474D01*
X0226828Y0309540D01*
X0226828Y0310667D01*
X0236383Y0310667D01*
X0247828Y0299221D01*
X0247828Y0297012D01*
X0247278Y0296462D01*
X0247278Y0288012D01*
X0242833Y0283567D01*
X0241902Y0283567D01*
X0240836Y0283125D01*
X0240020Y0282309D01*
X0239578Y0281244D01*
X0239578Y0280090D01*
X0239795Y0279567D01*
X0235230Y0279567D01*
X0235237Y0279574D01*
X0235678Y0280640D01*
X0235678Y0281794D01*
X0235237Y0282859D01*
X0234421Y0283675D01*
X0233355Y0284117D01*
X0232424Y0284117D01*
X0230024Y0286517D01*
X0228380Y0286517D01*
X0228721Y0286658D01*
X0229537Y0287474D01*
X0229978Y0288540D01*
X0229978Y0289694D01*
X0229537Y0290759D01*
X0228721Y0291575D01*
X0227655Y0292017D01*
X0226724Y0292017D01*
X0224274Y0294467D01*
X0218674Y0294467D01*
X0216978Y0296162D01*
X0216978Y0296765D01*
X0217637Y0297424D01*
X0218078Y0298490D01*
X0218078Y0299644D01*
X0217637Y0300709D01*
X0216821Y0301525D01*
X0215755Y0301967D01*
X0214602Y0301967D01*
X0213536Y0301525D01*
X0212720Y0300709D01*
X0212693Y0300645D01*
X0212687Y0300659D01*
X0211871Y0301475D01*
X0210805Y0301917D01*
X0209652Y0301917D01*
X0208586Y0301475D01*
X0208428Y0301318D01*
X0208428Y0303515D01*
X0208487Y0303574D01*
X0208928Y0304640D01*
X0208928Y0305794D01*
X0208487Y0306859D01*
X0207671Y0307675D01*
X0206605Y0308117D01*
X0205452Y0308117D01*
X0204386Y0307675D01*
X0203570Y0306859D01*
X0203152Y0305850D01*
X0202837Y0306609D01*
X0202021Y0307425D01*
X0200955Y0307867D01*
X0199802Y0307867D01*
X0198736Y0307425D01*
X0197920Y0306609D01*
X0197478Y0305544D01*
X0197478Y0304390D01*
X0197920Y0303324D01*
X0198578Y0302665D01*
X0198578Y0292571D01*
X0200028Y0291121D01*
X0201083Y0290067D01*
X0206016Y0290067D01*
X0205954Y0289917D01*
X0201997Y0289917D01*
X0199378Y0287298D01*
X0196760Y0289917D01*
X0191997Y0289917D01*
X0189308Y0287228D01*
X0186719Y0289817D01*
X0184878Y0289817D01*
X0184878Y0284667D01*
X0183878Y0284667D01*
X0183878Y0289817D01*
X0182038Y0289817D01*
X0180678Y0288457D01*
X0180678Y0339037D01*
X0181452Y0338717D01*
X0182605Y0338717D01*
X0183228Y0338975D01*
X0183228Y0329812D01*
X0183178Y0329762D01*
X0183178Y0328271D01*
X0184233Y0327217D01*
X0183178Y0328818D02*
X0180678Y0328818D01*
X0180678Y0330416D02*
X0183228Y0330416D01*
X0183228Y0332015D02*
X0180678Y0332015D01*
X0180678Y0333613D02*
X0183228Y0333613D01*
X0183228Y0335212D02*
X0180678Y0335212D01*
X0180678Y0336810D02*
X0183228Y0336810D01*
X0183228Y0338409D02*
X0180678Y0338409D01*
X0180678Y0344803D02*
X0182178Y0344803D01*
X0182178Y0346401D02*
X0180678Y0346401D01*
X0180678Y0348000D02*
X0182666Y0348000D01*
X0184028Y0349598D02*
X0180678Y0349598D01*
X0180678Y0351197D02*
X0184423Y0351197D01*
X0180678Y0365584D02*
X0235755Y0365584D01*
X0265502Y0365584D02*
X0355028Y0365584D01*
X0355028Y0354394D02*
X0330152Y0354394D01*
X0330978Y0352795D02*
X0355028Y0352795D01*
X0355320Y0351197D02*
X0330733Y0351197D01*
X0324796Y0335212D02*
X0324384Y0335212D01*
X0323276Y0333613D02*
X0375078Y0333613D01*
X0375078Y0332015D02*
X0319083Y0332015D01*
X0319881Y0333613D02*
X0317567Y0333613D01*
X0316511Y0335212D02*
X0318773Y0335212D01*
X0315190Y0333613D02*
X0312919Y0333613D01*
X0316778Y0323380D02*
X0322791Y0317367D01*
X0321802Y0317367D01*
X0320736Y0316925D01*
X0319920Y0316109D01*
X0319628Y0315404D01*
X0316778Y0318254D01*
X0316778Y0323380D01*
X0316778Y0322424D02*
X0317734Y0322424D01*
X0316778Y0320825D02*
X0319333Y0320825D01*
X0320931Y0319227D02*
X0316778Y0319227D01*
X0317404Y0317628D02*
X0322530Y0317628D01*
X0319887Y0316030D02*
X0319002Y0316030D01*
X0314424Y0311234D02*
X0294692Y0311234D01*
X0293928Y0309636D02*
X0316022Y0309636D01*
X0317621Y0308037D02*
X0293000Y0308037D01*
X0295578Y0312833D02*
X0312825Y0312833D01*
X0311227Y0314431D02*
X0295578Y0314431D01*
X0295578Y0316030D02*
X0309628Y0316030D01*
X0308030Y0317628D02*
X0295578Y0317628D01*
X0295578Y0319227D02*
X0306431Y0319227D01*
X0303419Y0320825D02*
X0295578Y0320825D01*
X0295578Y0322424D02*
X0302318Y0322424D01*
X0302323Y0324022D02*
X0295578Y0324022D01*
X0290678Y0324022D02*
X0272828Y0324022D01*
X0272828Y0322424D02*
X0290678Y0322424D01*
X0290678Y0320825D02*
X0272828Y0320825D01*
X0272828Y0319227D02*
X0290678Y0319227D01*
X0290678Y0317628D02*
X0272828Y0317628D01*
X0272828Y0316030D02*
X0290678Y0316030D01*
X0289147Y0314431D02*
X0272828Y0314431D01*
X0274208Y0312833D02*
X0287549Y0312833D01*
X0284497Y0311234D02*
X0275807Y0311234D01*
X0277405Y0309636D02*
X0284128Y0309636D01*
X0284657Y0308037D02*
X0279004Y0308037D01*
X0280602Y0306439D02*
X0319219Y0306439D01*
X0307157Y0298446D02*
X0291217Y0298446D01*
X0291528Y0296848D02*
X0306578Y0296848D01*
X0306927Y0295249D02*
X0290862Y0295249D01*
X0286664Y0293651D02*
X0307678Y0293651D01*
X0307678Y0292052D02*
X0284028Y0292052D01*
X0283217Y0290454D02*
X0307678Y0290454D01*
X0307678Y0288855D02*
X0299791Y0288855D01*
X0300187Y0288459D02*
X0299371Y0289275D01*
X0298305Y0289717D01*
X0297152Y0289717D01*
X0296086Y0289275D01*
X0295270Y0288459D01*
X0294828Y0287394D01*
X0294828Y0286240D01*
X0295270Y0285174D01*
X0296086Y0284358D01*
X0297152Y0283917D01*
X0298305Y0283917D01*
X0299371Y0284358D01*
X0300187Y0285174D01*
X0300628Y0286240D01*
X0300628Y0287394D01*
X0300187Y0288459D01*
X0300628Y0287257D02*
X0307678Y0287257D01*
X0307678Y0285658D02*
X0300387Y0285658D01*
X0298650Y0284060D02*
X0307676Y0284060D01*
X0306077Y0282461D02*
X0285135Y0282461D01*
X0285978Y0280862D02*
X0304479Y0280862D01*
X0302880Y0279264D02*
X0285927Y0279264D01*
X0285530Y0272870D02*
X0264668Y0272870D01*
X0265028Y0274468D02*
X0280831Y0274468D01*
X0279233Y0276067D02*
X0264479Y0276067D01*
X0260828Y0277665D02*
X0277634Y0277665D01*
X0276978Y0279264D02*
X0260447Y0279264D01*
X0260275Y0271271D02*
X0284878Y0271271D01*
X0285196Y0269673D02*
X0261354Y0269673D01*
X0261319Y0268074D02*
X0288108Y0268074D01*
X0286370Y0266476D02*
X0260189Y0266476D01*
X0259987Y0264877D02*
X0286128Y0264877D01*
X0286965Y0263279D02*
X0260228Y0263279D01*
X0259393Y0261680D02*
X0287228Y0261680D01*
X0287228Y0260082D02*
X0256239Y0260082D01*
X0258213Y0258483D02*
X0287228Y0258483D01*
X0287228Y0256885D02*
X0258928Y0256885D01*
X0258637Y0255286D02*
X0287228Y0255286D01*
X0287228Y0253688D02*
X0256656Y0253688D01*
X0255401Y0253688D02*
X0249745Y0253688D01*
X0248147Y0252089D02*
X0287228Y0252089D01*
X0287809Y0250491D02*
X0246548Y0250491D01*
X0244950Y0248892D02*
X0289407Y0248892D01*
X0291006Y0247294D02*
X0243351Y0247294D01*
X0241753Y0245695D02*
X0250488Y0245695D01*
X0252469Y0245695D02*
X0292604Y0245695D01*
X0294203Y0244097D02*
X0254149Y0244097D01*
X0254378Y0242498D02*
X0295801Y0242498D01*
X0297400Y0240900D02*
X0254497Y0240900D01*
X0256634Y0239301D02*
X0298998Y0239301D01*
X0300597Y0237703D02*
X0275402Y0237703D01*
X0275337Y0237859D02*
X0274521Y0238675D01*
X0273455Y0239117D01*
X0272302Y0239117D01*
X0271236Y0238675D01*
X0270420Y0237859D01*
X0269978Y0236794D01*
X0269978Y0235640D01*
X0270420Y0234574D01*
X0271236Y0233758D01*
X0272302Y0233317D01*
X0273455Y0233317D01*
X0274521Y0233758D01*
X0275337Y0234574D01*
X0275778Y0235640D01*
X0275778Y0236794D01*
X0275337Y0237859D01*
X0275778Y0236104D02*
X0302195Y0236104D01*
X0303794Y0234506D02*
X0275269Y0234506D01*
X0276152Y0231067D02*
X0275086Y0230625D01*
X0274270Y0229809D01*
X0273828Y0228744D01*
X0273828Y0227590D01*
X0274270Y0226524D01*
X0274627Y0226167D01*
X0274270Y0225809D01*
X0273828Y0224744D01*
X0273828Y0223590D01*
X0274270Y0222524D01*
X0275086Y0221708D01*
X0276152Y0221267D01*
X0277305Y0221267D01*
X0278371Y0221708D01*
X0279187Y0222524D01*
X0279628Y0223590D01*
X0279628Y0224744D01*
X0279187Y0225809D01*
X0278830Y0226167D01*
X0279187Y0226524D01*
X0279628Y0227590D01*
X0279628Y0228744D01*
X0279187Y0229809D01*
X0278371Y0230625D01*
X0277305Y0231067D01*
X0276152Y0231067D01*
X0274229Y0229710D02*
X0252478Y0229710D01*
X0252478Y0228112D02*
X0273828Y0228112D01*
X0274281Y0226513D02*
X0252478Y0226513D01*
X0252478Y0224915D02*
X0273899Y0224915D01*
X0273942Y0223316D02*
X0252478Y0223316D01*
X0252478Y0221718D02*
X0275076Y0221718D01*
X0278381Y0221718D02*
X0316582Y0221718D01*
X0314983Y0223316D02*
X0279515Y0223316D01*
X0279558Y0224915D02*
X0313385Y0224915D01*
X0311786Y0226513D02*
X0279176Y0226513D01*
X0279628Y0228112D02*
X0310188Y0228112D01*
X0308589Y0229710D02*
X0279228Y0229710D01*
X0270488Y0234506D02*
X0260041Y0234506D01*
X0260528Y0232907D02*
X0305392Y0232907D01*
X0306991Y0231309D02*
X0260143Y0231309D01*
X0258678Y0236104D02*
X0269978Y0236104D01*
X0270355Y0237703D02*
X0258426Y0237703D01*
X0254728Y0232907D02*
X0254714Y0232907D01*
X0255114Y0231309D02*
X0253116Y0231309D01*
X0246278Y0231309D02*
X0180678Y0231309D01*
X0180678Y0232907D02*
X0228630Y0232907D01*
X0227288Y0234506D02*
X0180678Y0234506D01*
X0180678Y0236104D02*
X0227154Y0236104D01*
X0228163Y0237703D02*
X0180678Y0237703D01*
X0180678Y0239301D02*
X0228228Y0239301D01*
X0228228Y0240900D02*
X0180678Y0240900D01*
X0180678Y0242498D02*
X0228228Y0242498D01*
X0229563Y0244097D02*
X0180678Y0244097D01*
X0180678Y0245695D02*
X0231161Y0245695D01*
X0232760Y0247294D02*
X0180678Y0247294D01*
X0180678Y0248892D02*
X0234358Y0248892D01*
X0235957Y0250491D02*
X0180678Y0250491D01*
X0180678Y0252089D02*
X0237555Y0252089D01*
X0239154Y0253688D02*
X0180678Y0253688D01*
X0180678Y0255286D02*
X0240753Y0255286D01*
X0242351Y0256885D02*
X0180678Y0256885D01*
X0180678Y0258483D02*
X0191930Y0258483D01*
X0190332Y0260082D02*
X0188284Y0260082D01*
X0184878Y0260082D02*
X0183878Y0260082D01*
X0183878Y0261680D02*
X0184878Y0261680D01*
X0184878Y0263279D02*
X0183878Y0263279D01*
X0183878Y0264667D02*
X0183878Y0269817D01*
X0183878Y0273667D01*
X0184878Y0273667D01*
X0184878Y0264667D01*
X0183878Y0264667D01*
X0183878Y0264877D02*
X0184878Y0264877D01*
X0184878Y0266476D02*
X0183878Y0266476D01*
X0183878Y0268074D02*
X0184878Y0268074D01*
X0184878Y0269673D02*
X0183878Y0269673D01*
X0183878Y0271271D02*
X0184878Y0271271D01*
X0184878Y0272870D02*
X0183878Y0272870D01*
X0183878Y0274667D02*
X0183878Y0279817D01*
X0183878Y0283667D01*
X0184878Y0283667D01*
X0184878Y0274667D01*
X0183878Y0274667D01*
X0183878Y0276067D02*
X0184878Y0276067D01*
X0184878Y0277665D02*
X0183878Y0277665D01*
X0183878Y0279264D02*
X0184878Y0279264D01*
X0184878Y0280862D02*
X0183878Y0280862D01*
X0183878Y0282461D02*
X0184878Y0282461D01*
X0184878Y0285658D02*
X0183878Y0285658D01*
X0183878Y0287257D02*
X0184878Y0287257D01*
X0184878Y0288855D02*
X0183878Y0288855D01*
X0181077Y0288855D02*
X0180678Y0288855D01*
X0180678Y0290454D02*
X0200696Y0290454D01*
X0200028Y0291121D02*
X0200028Y0291121D01*
X0199098Y0292052D02*
X0180678Y0292052D01*
X0180678Y0293651D02*
X0198578Y0293651D01*
X0198578Y0295249D02*
X0180678Y0295249D01*
X0180678Y0296848D02*
X0198578Y0296848D01*
X0198578Y0298446D02*
X0180678Y0298446D01*
X0180678Y0300045D02*
X0198578Y0300045D01*
X0198578Y0301643D02*
X0180678Y0301643D01*
X0180678Y0303242D02*
X0198002Y0303242D01*
X0197478Y0304840D02*
X0180678Y0304840D01*
X0180678Y0306439D02*
X0197849Y0306439D01*
X0202908Y0306439D02*
X0203396Y0306439D01*
X0205260Y0308037D02*
X0180678Y0308037D01*
X0180678Y0309636D02*
X0221028Y0309636D01*
X0221252Y0311234D02*
X0180678Y0311234D01*
X0180678Y0312833D02*
X0221417Y0312833D01*
X0219818Y0314431D02*
X0180678Y0314431D01*
X0180678Y0316030D02*
X0218220Y0316030D01*
X0216621Y0317628D02*
X0180678Y0317628D01*
X0180678Y0319227D02*
X0212048Y0319227D01*
X0211628Y0320825D02*
X0180678Y0320825D01*
X0180678Y0322424D02*
X0212055Y0322424D01*
X0219018Y0324022D02*
X0228501Y0324022D01*
X0228178Y0322424D02*
X0220617Y0322424D01*
X0238112Y0317628D02*
X0266628Y0317628D01*
X0266628Y0316030D02*
X0239711Y0316030D01*
X0241310Y0314431D02*
X0266628Y0314431D01*
X0266628Y0312833D02*
X0242908Y0312833D01*
X0244507Y0311234D02*
X0267165Y0311234D01*
X0268764Y0309636D02*
X0246105Y0309636D01*
X0247704Y0308037D02*
X0252619Y0308037D01*
X0252228Y0306439D02*
X0249302Y0306439D01*
X0245406Y0301643D02*
X0239606Y0301643D01*
X0239987Y0302024D02*
X0240428Y0303090D01*
X0240428Y0304244D01*
X0239987Y0305309D01*
X0239171Y0306125D01*
X0238105Y0306567D01*
X0236952Y0306567D01*
X0235886Y0306125D01*
X0235070Y0305309D01*
X0234628Y0304244D01*
X0234628Y0303090D01*
X0235070Y0302024D01*
X0235886Y0301208D01*
X0236952Y0300767D01*
X0238105Y0300767D01*
X0239171Y0301208D01*
X0239987Y0302024D01*
X0240428Y0303242D02*
X0243808Y0303242D01*
X0242209Y0304840D02*
X0240181Y0304840D01*
X0240611Y0306439D02*
X0238414Y0306439D01*
X0239012Y0308037D02*
X0225950Y0308037D01*
X0226828Y0309636D02*
X0237414Y0309636D01*
X0236643Y0306439D02*
X0208661Y0306439D01*
X0208928Y0304840D02*
X0234876Y0304840D01*
X0234628Y0303242D02*
X0208428Y0303242D01*
X0208428Y0301643D02*
X0208991Y0301643D01*
X0211466Y0301643D02*
X0213821Y0301643D01*
X0216536Y0301643D02*
X0235451Y0301643D01*
X0225090Y0293651D02*
X0247278Y0293651D01*
X0247278Y0295249D02*
X0217892Y0295249D01*
X0217061Y0296848D02*
X0247664Y0296848D01*
X0247828Y0298446D02*
X0218060Y0298446D01*
X0217912Y0300045D02*
X0247005Y0300045D01*
X0251428Y0300045D02*
X0253755Y0300045D01*
X0254628Y0298446D02*
X0251428Y0298446D01*
X0251428Y0296848D02*
X0254936Y0296848D01*
X0251156Y0295249D02*
X0275828Y0295249D01*
X0275828Y0296848D02*
X0260121Y0296848D01*
X0260428Y0298446D02*
X0275828Y0298446D01*
X0277399Y0293651D02*
X0250878Y0293651D01*
X0250878Y0292052D02*
X0278228Y0292052D01*
X0279040Y0290454D02*
X0250878Y0290454D01*
X0250878Y0288855D02*
X0295666Y0288855D01*
X0294828Y0287257D02*
X0250878Y0287257D01*
X0250015Y0285658D02*
X0295069Y0285658D01*
X0296807Y0284060D02*
X0280487Y0284060D01*
X0277070Y0284060D02*
X0248417Y0284060D01*
X0246818Y0282461D02*
X0275969Y0282461D01*
X0275973Y0280862D02*
X0245378Y0280862D01*
X0243326Y0284060D02*
X0233493Y0284060D01*
X0235402Y0282461D02*
X0240172Y0282461D01*
X0239578Y0280862D02*
X0235678Y0280862D01*
X0230883Y0285658D02*
X0244924Y0285658D01*
X0246523Y0287257D02*
X0229320Y0287257D01*
X0229978Y0288855D02*
X0247278Y0288855D01*
X0247278Y0290454D02*
X0229664Y0290454D01*
X0226689Y0292052D02*
X0247278Y0292052D01*
X0257553Y0304840D02*
X0267878Y0304840D01*
X0268749Y0306439D02*
X0258028Y0306439D01*
X0257638Y0308037D02*
X0270362Y0308037D01*
X0282201Y0304840D02*
X0375078Y0304840D01*
X0375078Y0303242D02*
X0283799Y0303242D01*
X0285398Y0301643D02*
X0375078Y0301643D01*
X0375078Y0300045D02*
X0286996Y0300045D01*
X0316178Y0285658D02*
X0327878Y0285658D01*
X0327678Y0286140D02*
X0328120Y0285074D01*
X0328936Y0284258D01*
X0330002Y0283817D01*
X0331155Y0283817D01*
X0332221Y0284258D01*
X0333037Y0285074D01*
X0333478Y0286140D01*
X0333478Y0287294D01*
X0333037Y0288359D01*
X0332221Y0289175D01*
X0331155Y0289617D01*
X0330002Y0289617D01*
X0328936Y0289175D01*
X0328120Y0288359D01*
X0327678Y0287294D01*
X0327678Y0286140D01*
X0327678Y0287257D02*
X0320564Y0287257D01*
X0322162Y0288855D02*
X0328616Y0288855D01*
X0332541Y0288855D02*
X0337495Y0288855D01*
X0337182Y0287257D02*
X0333478Y0287257D01*
X0333279Y0285658D02*
X0336928Y0285658D01*
X0337734Y0284060D02*
X0331742Y0284060D01*
X0329415Y0284060D02*
X0316178Y0284060D01*
X0316178Y0282461D02*
X0338728Y0282461D01*
X0339133Y0280862D02*
X0329430Y0280862D01*
X0327529Y0280862D02*
X0327528Y0280862D01*
X0327528Y0279264D02*
X0327529Y0279264D01*
X0325627Y0280862D02*
X0324656Y0280862D01*
X0320401Y0280862D02*
X0316178Y0280862D01*
X0312578Y0280862D02*
X0311420Y0280862D01*
X0312578Y0279264D02*
X0309821Y0279264D01*
X0308223Y0277665D02*
X0312578Y0277665D01*
X0312578Y0276067D02*
X0310375Y0276067D01*
X0308982Y0276067D02*
X0306624Y0276067D01*
X0307058Y0274468D02*
X0305026Y0274468D01*
X0306778Y0272870D02*
X0294528Y0272870D01*
X0294334Y0271271D02*
X0298932Y0271271D01*
X0298478Y0269673D02*
X0293518Y0269673D01*
X0295116Y0268074D02*
X0298878Y0268074D01*
X0299232Y0266476D02*
X0296715Y0266476D01*
X0297028Y0264877D02*
X0298928Y0264877D01*
X0299615Y0263279D02*
X0297028Y0263279D01*
X0297028Y0261680D02*
X0303619Y0261680D01*
X0305218Y0260082D02*
X0297028Y0260082D01*
X0297028Y0258483D02*
X0306816Y0258483D01*
X0308415Y0256885D02*
X0297028Y0256885D01*
X0297028Y0255286D02*
X0315874Y0255286D01*
X0315628Y0253688D02*
X0297028Y0253688D01*
X0297028Y0252089D02*
X0316455Y0252089D01*
X0320602Y0252089D02*
X0338728Y0252089D01*
X0338728Y0250491D02*
X0297028Y0250491D01*
X0298148Y0248892D02*
X0338728Y0248892D01*
X0338728Y0247294D02*
X0299747Y0247294D01*
X0301345Y0245695D02*
X0309511Y0245695D01*
X0306953Y0244097D02*
X0302944Y0244097D01*
X0304543Y0242498D02*
X0304970Y0242498D01*
X0308557Y0238483D02*
X0309221Y0238758D01*
X0309496Y0239033D01*
X0309520Y0238974D01*
X0310336Y0238158D01*
X0311402Y0237717D01*
X0312555Y0237717D01*
X0313621Y0238158D01*
X0314437Y0238974D01*
X0314637Y0239457D01*
X0315036Y0239058D01*
X0316102Y0238617D01*
X0316983Y0238617D01*
X0316833Y0238467D01*
X0315902Y0238467D01*
X0314836Y0238025D01*
X0314020Y0237209D01*
X0313578Y0236144D01*
X0313578Y0234990D01*
X0314020Y0233924D01*
X0314836Y0233108D01*
X0315902Y0232667D01*
X0317055Y0232667D01*
X0318121Y0233108D01*
X0318937Y0233924D01*
X0318991Y0234053D01*
X0319136Y0233908D01*
X0320202Y0233467D01*
X0321355Y0233467D01*
X0322421Y0233908D01*
X0323080Y0234567D01*
X0339724Y0234567D01*
X0341628Y0236471D01*
X0341628Y0228612D01*
X0339533Y0226517D01*
X0328130Y0226517D01*
X0327471Y0227175D01*
X0326405Y0227617D01*
X0325252Y0227617D01*
X0324186Y0227175D01*
X0323370Y0226359D01*
X0322928Y0225294D01*
X0322928Y0224140D01*
X0322948Y0224093D01*
X0308557Y0238483D01*
X0309338Y0237703D02*
X0314513Y0237703D01*
X0314572Y0239301D02*
X0314793Y0239301D01*
X0313578Y0236104D02*
X0310937Y0236104D01*
X0312535Y0234506D02*
X0313779Y0234506D01*
X0314134Y0232907D02*
X0315321Y0232907D01*
X0315732Y0231309D02*
X0341628Y0231309D01*
X0341628Y0232907D02*
X0317636Y0232907D01*
X0317331Y0229710D02*
X0341628Y0229710D01*
X0341128Y0228112D02*
X0318929Y0228112D01*
X0320528Y0226513D02*
X0323524Y0226513D01*
X0322928Y0224915D02*
X0322126Y0224915D01*
X0318181Y0220119D02*
X0252478Y0220119D01*
X0252478Y0218521D02*
X0319779Y0218521D01*
X0320652Y0209817D02*
X0319586Y0209375D01*
X0318770Y0208559D01*
X0318328Y0207494D01*
X0318328Y0206340D01*
X0318770Y0205274D01*
X0319586Y0204458D01*
X0320652Y0204017D01*
X0321583Y0204017D01*
X0337578Y0188021D01*
X0337578Y0184018D01*
X0336920Y0183359D01*
X0336478Y0182294D01*
X0336478Y0181140D01*
X0336920Y0180074D01*
X0337736Y0179258D01*
X0338802Y0178817D01*
X0339955Y0178817D01*
X0341021Y0179258D01*
X0341837Y0180074D01*
X0342278Y0181140D01*
X0342278Y0182294D01*
X0341837Y0183359D01*
X0341178Y0184018D01*
X0341178Y0189512D01*
X0340124Y0190567D01*
X0324128Y0206562D01*
X0324128Y0207494D01*
X0323687Y0208559D01*
X0322871Y0209375D01*
X0321805Y0209817D01*
X0320652Y0209817D01*
X0319140Y0208929D02*
X0303007Y0208929D01*
X0302555Y0209117D02*
X0301402Y0209117D01*
X0300336Y0208675D01*
X0299520Y0207859D01*
X0299078Y0206794D01*
X0299078Y0205640D01*
X0299520Y0204574D01*
X0300336Y0203758D01*
X0301402Y0203317D01*
X0302555Y0203317D01*
X0303621Y0203758D01*
X0304437Y0204574D01*
X0304878Y0205640D01*
X0304878Y0206794D01*
X0304437Y0207859D01*
X0303621Y0208675D01*
X0302555Y0209117D01*
X0300950Y0208929D02*
X0252478Y0208929D01*
X0252478Y0210528D02*
X0375078Y0210528D01*
X0375078Y0212127D02*
X0348639Y0212127D01*
X0345117Y0212127D02*
X0252478Y0212127D01*
X0252478Y0213725D02*
X0344047Y0213725D01*
X0344094Y0215324D02*
X0252478Y0215324D01*
X0252478Y0216922D02*
X0345233Y0216922D01*
X0353568Y0213725D02*
X0358488Y0213725D01*
X0356890Y0215324D02*
X0355167Y0215324D01*
X0363768Y0213725D02*
X0368630Y0213725D01*
X0370628Y0213725D02*
X0371628Y0213725D01*
X0371628Y0215324D02*
X0370628Y0215324D01*
X0370628Y0216922D02*
X0371628Y0216922D01*
X0371628Y0218521D02*
X0370628Y0218521D01*
X0370628Y0219717D02*
X0370628Y0228717D01*
X0371628Y0228717D01*
X0371628Y0223567D01*
X0371628Y0219717D01*
X0370628Y0219717D01*
X0370628Y0220119D02*
X0371628Y0220119D01*
X0371628Y0221718D02*
X0370628Y0221718D01*
X0370628Y0223316D02*
X0371628Y0223316D01*
X0371628Y0224915D02*
X0370628Y0224915D01*
X0370628Y0226513D02*
X0371628Y0226513D01*
X0371628Y0228112D02*
X0370628Y0228112D01*
X0370628Y0229717D02*
X0370628Y0238717D01*
X0371628Y0238717D01*
X0371628Y0233567D01*
X0371628Y0229717D01*
X0370628Y0229717D01*
X0370628Y0231309D02*
X0371628Y0231309D01*
X0371628Y0232907D02*
X0370628Y0232907D01*
X0370628Y0234506D02*
X0371628Y0234506D01*
X0371628Y0236104D02*
X0370628Y0236104D01*
X0370628Y0237703D02*
X0371628Y0237703D01*
X0371628Y0239717D02*
X0370628Y0239717D01*
X0370628Y0244867D01*
X0368788Y0244867D01*
X0366199Y0242278D01*
X0363510Y0244967D01*
X0358747Y0244967D01*
X0356128Y0242348D01*
X0353510Y0244967D01*
X0350928Y0244967D01*
X0350928Y0255615D01*
X0351587Y0256274D01*
X0352028Y0257340D01*
X0352028Y0258494D01*
X0351998Y0258567D01*
X0361874Y0258567D01*
X0372924Y0269617D01*
X0373855Y0269617D01*
X0374921Y0270058D01*
X0375078Y0270215D01*
X0375078Y0243257D01*
X0373469Y0244867D01*
X0371628Y0244867D01*
X0371628Y0239717D01*
X0371628Y0240900D02*
X0370628Y0240900D01*
X0370628Y0242498D02*
X0371628Y0242498D01*
X0371628Y0244097D02*
X0370628Y0244097D01*
X0368018Y0244097D02*
X0364380Y0244097D01*
X0365979Y0242498D02*
X0366420Y0242498D01*
X0374239Y0244097D02*
X0375078Y0244097D01*
X0375078Y0245695D02*
X0350928Y0245695D01*
X0350928Y0247294D02*
X0375078Y0247294D01*
X0375078Y0248892D02*
X0350928Y0248892D01*
X0350928Y0250491D02*
X0375078Y0250491D01*
X0375078Y0252089D02*
X0350928Y0252089D01*
X0350928Y0253688D02*
X0375078Y0253688D01*
X0375078Y0255286D02*
X0350928Y0255286D01*
X0351840Y0256885D02*
X0375078Y0256885D01*
X0375078Y0258483D02*
X0352028Y0258483D01*
X0342794Y0264877D02*
X0342569Y0264877D01*
X0344392Y0266476D02*
X0330529Y0266476D01*
X0330385Y0264877D02*
X0337688Y0264877D01*
X0337228Y0263279D02*
X0330910Y0263279D01*
X0330910Y0263067D02*
X0327529Y0263067D01*
X0327529Y0263067D01*
X0327528Y0263067D01*
X0327528Y0268067D01*
X0327529Y0268067D01*
X0330910Y0268067D01*
X0327529Y0268067D01*
X0327529Y0268067D01*
X0327529Y0264686D01*
X0327529Y0263067D01*
X0330910Y0263067D01*
X0330614Y0261680D02*
X0337626Y0261680D01*
X0338728Y0260082D02*
X0330436Y0260082D01*
X0331010Y0258483D02*
X0338728Y0258483D01*
X0338728Y0256885D02*
X0330807Y0256885D01*
X0329671Y0255286D02*
X0338728Y0255286D01*
X0338728Y0253688D02*
X0321428Y0253688D01*
X0324671Y0255286D02*
X0325386Y0255286D01*
X0319506Y0259867D02*
X0310524Y0259867D01*
X0308034Y0262356D01*
X0308521Y0262558D01*
X0309280Y0263317D01*
X0309774Y0263317D01*
X0310828Y0264371D01*
X0315224Y0268767D01*
X0319051Y0268767D01*
X0319047Y0268759D01*
X0319047Y0267374D01*
X0319577Y0266095D01*
X0320105Y0265567D01*
X0319577Y0265039D01*
X0319047Y0263759D01*
X0319047Y0262374D01*
X0319577Y0261095D01*
X0320105Y0260567D01*
X0319577Y0260039D01*
X0319506Y0259867D01*
X0319621Y0260082D02*
X0310309Y0260082D01*
X0308710Y0261680D02*
X0319335Y0261680D01*
X0319047Y0263279D02*
X0309242Y0263279D01*
X0311335Y0264877D02*
X0319511Y0264877D01*
X0319419Y0266476D02*
X0312933Y0266476D01*
X0314532Y0268074D02*
X0319047Y0268074D01*
X0327528Y0266476D02*
X0327529Y0266476D01*
X0327528Y0264877D02*
X0327529Y0264877D01*
X0327528Y0263279D02*
X0327529Y0263279D01*
X0330910Y0268074D02*
X0358891Y0268074D01*
X0360489Y0269673D02*
X0330522Y0269673D01*
X0330553Y0271271D02*
X0362088Y0271271D01*
X0363686Y0272870D02*
X0331010Y0272870D01*
X0330716Y0274468D02*
X0365128Y0274468D01*
X0365283Y0276067D02*
X0330259Y0276067D01*
X0330896Y0277665D02*
X0366378Y0277665D01*
X0366378Y0279264D02*
X0330692Y0279264D01*
X0344124Y0280862D02*
X0366378Y0280862D01*
X0366977Y0282461D02*
X0344528Y0282461D01*
X0344087Y0284060D02*
X0366384Y0284060D01*
X0365878Y0285658D02*
X0349034Y0285658D01*
X0349378Y0287257D02*
X0366257Y0287257D01*
X0366245Y0288855D02*
X0348791Y0288855D01*
X0345850Y0290454D02*
X0365878Y0290454D01*
X0365095Y0292052D02*
X0344656Y0292052D01*
X0341540Y0293651D02*
X0363243Y0293651D01*
X0362978Y0295249D02*
X0339942Y0295249D01*
X0338343Y0296848D02*
X0363758Y0296848D01*
X0367999Y0296848D02*
X0375078Y0296848D01*
X0375078Y0298446D02*
X0336745Y0298446D01*
X0339287Y0306439D02*
X0375078Y0306439D01*
X0375078Y0308037D02*
X0342300Y0308037D01*
X0343277Y0309636D02*
X0375078Y0309636D01*
X0375078Y0311234D02*
X0343096Y0311234D01*
X0341641Y0312833D02*
X0375078Y0312833D01*
X0375078Y0314431D02*
X0342278Y0314431D01*
X0342077Y0316030D02*
X0375078Y0316030D01*
X0375078Y0317628D02*
X0340531Y0317628D01*
X0338226Y0317628D02*
X0330904Y0317628D01*
X0332502Y0316030D02*
X0336680Y0316030D01*
X0329305Y0319227D02*
X0375078Y0319227D01*
X0375078Y0320825D02*
X0327707Y0320825D01*
X0326108Y0322424D02*
X0375078Y0322424D01*
X0375078Y0324022D02*
X0324510Y0324022D01*
X0296891Y0330416D02*
X0272828Y0330416D01*
X0272828Y0328818D02*
X0292934Y0328818D01*
X0291336Y0327219D02*
X0272828Y0327219D01*
X0272828Y0325621D02*
X0290678Y0325621D01*
X0266628Y0322424D02*
X0252931Y0322424D01*
X0253585Y0324022D02*
X0266177Y0324022D01*
X0264579Y0325621D02*
X0254328Y0325621D01*
X0254049Y0327219D02*
X0262980Y0327219D01*
X0266628Y0320825D02*
X0251333Y0320825D01*
X0249734Y0319227D02*
X0266628Y0319227D01*
X0221907Y0308037D02*
X0206797Y0308037D01*
X0187427Y0324022D02*
X0180678Y0324022D01*
X0187680Y0288855D02*
X0190935Y0288855D01*
X0189337Y0287257D02*
X0189279Y0287257D01*
X0197822Y0288855D02*
X0200935Y0288855D01*
X0210425Y0271271D02*
X0256782Y0271271D01*
X0255703Y0269673D02*
X0211328Y0269673D01*
X0211115Y0268074D02*
X0255141Y0268074D01*
X0253844Y0258483D02*
X0248346Y0258483D01*
X0247851Y0256885D02*
X0247442Y0256885D01*
X0246253Y0255286D02*
X0245844Y0255286D01*
X0244654Y0253688D02*
X0244245Y0253688D01*
X0243055Y0252089D02*
X0242647Y0252089D01*
X0241457Y0250491D02*
X0241048Y0250491D01*
X0239858Y0248892D02*
X0239450Y0248892D01*
X0238260Y0247294D02*
X0237851Y0247294D01*
X0236661Y0245695D02*
X0236253Y0245695D01*
X0238556Y0242498D02*
X0248464Y0242498D01*
X0248808Y0244097D02*
X0240154Y0244097D01*
X0237896Y0240900D02*
X0246866Y0240900D01*
X0246278Y0239301D02*
X0236442Y0239301D01*
X0233915Y0239301D02*
X0231828Y0239301D01*
X0231828Y0240900D02*
X0232461Y0240900D01*
X0231894Y0237703D02*
X0246278Y0237703D01*
X0246278Y0236104D02*
X0232903Y0236104D01*
X0232769Y0234506D02*
X0246278Y0234506D01*
X0246278Y0232907D02*
X0231427Y0232907D01*
X0246278Y0229710D02*
X0180678Y0229710D01*
X0180678Y0228112D02*
X0246278Y0228112D01*
X0246278Y0226513D02*
X0180678Y0226513D01*
X0180678Y0224915D02*
X0246278Y0224915D01*
X0246278Y0223316D02*
X0180678Y0223316D01*
X0180678Y0221718D02*
X0246278Y0221718D01*
X0246278Y0220119D02*
X0203941Y0220119D01*
X0203705Y0220217D02*
X0202552Y0220217D01*
X0201486Y0219775D01*
X0200670Y0218959D01*
X0200228Y0217894D01*
X0200228Y0216740D01*
X0200670Y0215674D01*
X0201486Y0214858D01*
X0202552Y0214417D01*
X0203705Y0214417D01*
X0204771Y0214858D01*
X0205587Y0215674D01*
X0206028Y0216740D01*
X0206028Y0217894D01*
X0205587Y0218959D01*
X0204771Y0219775D01*
X0203705Y0220217D01*
X0202316Y0220119D02*
X0180678Y0220119D01*
X0180678Y0218521D02*
X0200488Y0218521D01*
X0200228Y0216922D02*
X0180678Y0216922D01*
X0180678Y0215324D02*
X0201020Y0215324D01*
X0205237Y0215324D02*
X0237870Y0215324D01*
X0237720Y0215474D02*
X0238536Y0214658D01*
X0239602Y0214217D01*
X0240755Y0214217D01*
X0241821Y0214658D01*
X0242637Y0215474D01*
X0243078Y0216540D01*
X0243078Y0217694D01*
X0242637Y0218759D01*
X0241821Y0219575D01*
X0240755Y0220017D01*
X0239602Y0220017D01*
X0238536Y0219575D01*
X0237720Y0218759D01*
X0237278Y0217694D01*
X0237278Y0216540D01*
X0237720Y0215474D01*
X0237278Y0216922D02*
X0206028Y0216922D01*
X0205769Y0218521D02*
X0237621Y0218521D01*
X0242736Y0218521D02*
X0246278Y0218521D01*
X0246278Y0216922D02*
X0243078Y0216922D01*
X0242487Y0215324D02*
X0246278Y0215324D01*
X0246278Y0213725D02*
X0180678Y0213725D01*
X0180678Y0212127D02*
X0246278Y0212127D01*
X0246278Y0210528D02*
X0234121Y0210528D01*
X0234087Y0210609D02*
X0233271Y0211425D01*
X0232205Y0211867D01*
X0231052Y0211867D01*
X0229986Y0211425D01*
X0229170Y0210609D01*
X0228728Y0209544D01*
X0228728Y0208390D01*
X0229170Y0207324D01*
X0229986Y0206508D01*
X0231052Y0206067D01*
X0232205Y0206067D01*
X0233271Y0206508D01*
X0234087Y0207324D01*
X0234528Y0208390D01*
X0234528Y0209544D01*
X0234087Y0210609D01*
X0234528Y0208929D02*
X0246278Y0208929D01*
X0246278Y0207331D02*
X0234090Y0207331D01*
X0229167Y0207331D02*
X0180678Y0207331D01*
X0180678Y0208929D02*
X0228728Y0208929D01*
X0229136Y0210528D02*
X0180678Y0210528D01*
X0180678Y0205732D02*
X0246278Y0205732D01*
X0246278Y0204134D02*
X0180678Y0204134D01*
X0180678Y0202535D02*
X0246278Y0202535D01*
X0245617Y0200937D02*
X0180678Y0200937D01*
X0180678Y0199338D02*
X0244018Y0199338D01*
X0242420Y0197740D02*
X0180678Y0197740D01*
X0180678Y0196141D02*
X0242328Y0196141D01*
X0242328Y0194543D02*
X0220384Y0194543D01*
X0220205Y0194617D02*
X0219052Y0194617D01*
X0217986Y0194175D01*
X0217170Y0193359D01*
X0216728Y0192294D01*
X0216728Y0191140D01*
X0217170Y0190074D01*
X0217986Y0189258D01*
X0219052Y0188817D01*
X0220205Y0188817D01*
X0221271Y0189258D01*
X0222087Y0190074D01*
X0222528Y0191140D01*
X0222528Y0192294D01*
X0222087Y0193359D01*
X0221271Y0194175D01*
X0220205Y0194617D01*
X0218873Y0194543D02*
X0195333Y0194543D01*
X0196228Y0192944D02*
X0216998Y0192944D01*
X0216728Y0191346D02*
X0196228Y0191346D01*
X0196228Y0189747D02*
X0217497Y0189747D01*
X0221760Y0189747D02*
X0237967Y0189747D01*
X0238074Y0191346D02*
X0222528Y0191346D01*
X0222259Y0192944D02*
X0239353Y0192944D01*
X0242304Y0192944D02*
X0242328Y0192944D01*
X0243583Y0191346D02*
X0243868Y0191346D01*
X0243690Y0189747D02*
X0244569Y0189747D01*
X0242970Y0188149D02*
X0242662Y0188149D01*
X0242428Y0186550D02*
X0196228Y0186550D01*
X0196228Y0184952D02*
X0247578Y0184952D01*
X0248579Y0184952D02*
X0257578Y0184952D01*
X0257578Y0184767D02*
X0257578Y0185767D01*
X0248579Y0185767D01*
X0248579Y0184767D01*
X0252428Y0184767D01*
X0257578Y0184767D01*
X0258579Y0184767D02*
X0258579Y0185767D01*
X0267578Y0185767D01*
X0267578Y0184767D01*
X0262428Y0184767D01*
X0258579Y0184767D01*
X0258579Y0184952D02*
X0267578Y0184952D01*
X0268579Y0184952D02*
X0308906Y0184952D01*
X0308935Y0186550D02*
X0273728Y0186550D01*
X0273187Y0188149D02*
X0310059Y0188149D01*
X0313398Y0188149D02*
X0337451Y0188149D01*
X0337578Y0186550D02*
X0314522Y0186550D01*
X0314551Y0184952D02*
X0337578Y0184952D01*
X0336917Y0183353D02*
X0318189Y0183353D01*
X0318628Y0181755D02*
X0336478Y0181755D01*
X0336886Y0180156D02*
X0318221Y0180156D01*
X0314519Y0178558D02*
X0375078Y0178558D01*
X0375078Y0180156D02*
X0341871Y0180156D01*
X0342278Y0181755D02*
X0368308Y0181755D01*
X0369069Y0181440D02*
X0370888Y0181440D01*
X0372568Y0182136D01*
X0373854Y0183422D01*
X0374550Y0185102D01*
X0374550Y0186921D01*
X0373854Y0188601D01*
X0372568Y0189887D01*
X0370888Y0190583D01*
X0369069Y0190583D01*
X0367389Y0189887D01*
X0366103Y0188601D01*
X0365407Y0186921D01*
X0365407Y0185102D01*
X0366103Y0183422D01*
X0367389Y0182136D01*
X0369069Y0181440D01*
X0371649Y0181755D02*
X0375078Y0181755D01*
X0375078Y0183353D02*
X0373786Y0183353D01*
X0374488Y0184952D02*
X0375078Y0184952D01*
X0375078Y0186550D02*
X0374550Y0186550D01*
X0374041Y0188149D02*
X0375078Y0188149D01*
X0375078Y0189747D02*
X0372708Y0189747D01*
X0375078Y0191346D02*
X0339345Y0191346D01*
X0337746Y0192944D02*
X0375078Y0192944D01*
X0375078Y0194543D02*
X0373164Y0194543D01*
X0372568Y0193947D02*
X0373854Y0195233D01*
X0374550Y0196913D01*
X0374550Y0198732D01*
X0373854Y0200412D01*
X0372568Y0201698D01*
X0370888Y0202394D01*
X0369069Y0202394D01*
X0367389Y0201698D01*
X0366103Y0200412D01*
X0365407Y0198732D01*
X0365407Y0196913D01*
X0366103Y0195233D01*
X0367389Y0193947D01*
X0369069Y0193251D01*
X0370888Y0193251D01*
X0372568Y0193947D01*
X0374231Y0196141D02*
X0375078Y0196141D01*
X0375078Y0197740D02*
X0374550Y0197740D01*
X0374299Y0199338D02*
X0375078Y0199338D01*
X0375078Y0200937D02*
X0373329Y0200937D01*
X0375078Y0202535D02*
X0357839Y0202535D01*
X0357787Y0202662D02*
X0356324Y0204125D01*
X0354413Y0204917D01*
X0352344Y0204917D01*
X0350433Y0204125D01*
X0348970Y0202662D01*
X0348305Y0201057D01*
X0348105Y0201674D01*
X0347740Y0202390D01*
X0347269Y0203039D01*
X0346701Y0203607D01*
X0346051Y0204079D01*
X0345336Y0204443D01*
X0344573Y0204691D01*
X0343780Y0204817D01*
X0343578Y0204817D01*
X0343578Y0199917D01*
X0343178Y0199917D01*
X0343178Y0199517D01*
X0338278Y0199517D01*
X0338278Y0199315D01*
X0338404Y0198522D01*
X0338652Y0197759D01*
X0339017Y0197044D01*
X0339488Y0196394D01*
X0340056Y0195827D01*
X0340705Y0195355D01*
X0341421Y0194990D01*
X0342184Y0194742D01*
X0342977Y0194617D01*
X0343178Y0194617D01*
X0343178Y0199517D01*
X0343578Y0199517D01*
X0343578Y0194617D01*
X0343780Y0194617D01*
X0344573Y0194742D01*
X0345336Y0194990D01*
X0346051Y0195355D01*
X0346701Y0195827D01*
X0347269Y0196394D01*
X0347740Y0197044D01*
X0348105Y0197759D01*
X0348305Y0198376D01*
X0348970Y0196771D01*
X0350433Y0195308D01*
X0352344Y0194517D01*
X0354413Y0194517D01*
X0356324Y0195308D01*
X0357787Y0196771D01*
X0358578Y0198682D01*
X0358578Y0200751D01*
X0357787Y0202662D01*
X0358501Y0200937D02*
X0366628Y0200937D01*
X0365658Y0199338D02*
X0358578Y0199338D01*
X0358188Y0197740D02*
X0365407Y0197740D01*
X0365726Y0196141D02*
X0357157Y0196141D01*
X0354476Y0194543D02*
X0366792Y0194543D01*
X0367249Y0189747D02*
X0340943Y0189747D01*
X0341178Y0188149D02*
X0365916Y0188149D01*
X0365407Y0186550D02*
X0341178Y0186550D01*
X0341178Y0184952D02*
X0365469Y0184952D01*
X0366171Y0183353D02*
X0341839Y0183353D01*
X0335852Y0189747D02*
X0271588Y0189747D01*
X0272289Y0191346D02*
X0334254Y0191346D01*
X0332655Y0192944D02*
X0273828Y0192944D01*
X0273828Y0194543D02*
X0331057Y0194543D01*
X0329458Y0196141D02*
X0273828Y0196141D01*
X0273737Y0197740D02*
X0327860Y0197740D01*
X0326261Y0199338D02*
X0272138Y0199338D01*
X0270540Y0200937D02*
X0324663Y0200937D01*
X0323064Y0202535D02*
X0265805Y0202535D01*
X0256307Y0204134D02*
X0299960Y0204134D01*
X0299078Y0205732D02*
X0254708Y0205732D01*
X0253110Y0207331D02*
X0299301Y0207331D01*
X0304656Y0207331D02*
X0318328Y0207331D01*
X0318580Y0205732D02*
X0304878Y0205732D01*
X0303997Y0204134D02*
X0320369Y0204134D01*
X0324958Y0205732D02*
X0375078Y0205732D01*
X0375078Y0204134D02*
X0356303Y0204134D01*
X0350454Y0204134D02*
X0345943Y0204134D01*
X0347634Y0202535D02*
X0348918Y0202535D01*
X0348569Y0197740D02*
X0348095Y0197740D01*
X0347016Y0196141D02*
X0349600Y0196141D01*
X0352281Y0194543D02*
X0336148Y0194543D01*
X0334549Y0196141D02*
X0339741Y0196141D01*
X0338662Y0197740D02*
X0332951Y0197740D01*
X0331352Y0199338D02*
X0338278Y0199338D01*
X0338278Y0199917D02*
X0343178Y0199917D01*
X0343178Y0204817D01*
X0342977Y0204817D01*
X0342184Y0204691D01*
X0341421Y0204443D01*
X0340705Y0204079D01*
X0340056Y0203607D01*
X0339488Y0203039D01*
X0339017Y0202390D01*
X0338652Y0201674D01*
X0338404Y0200911D01*
X0338278Y0200118D01*
X0338278Y0199917D01*
X0338412Y0200937D02*
X0329754Y0200937D01*
X0328155Y0202535D02*
X0339122Y0202535D01*
X0340814Y0204134D02*
X0326557Y0204134D01*
X0324128Y0207331D02*
X0375078Y0207331D01*
X0375078Y0208929D02*
X0323317Y0208929D01*
X0343178Y0204134D02*
X0343578Y0204134D01*
X0343578Y0202535D02*
X0343178Y0202535D01*
X0343178Y0200937D02*
X0343578Y0200937D01*
X0343578Y0199338D02*
X0343178Y0199338D01*
X0343178Y0197740D02*
X0343578Y0197740D01*
X0343578Y0196141D02*
X0343178Y0196141D01*
X0365367Y0215324D02*
X0367031Y0215324D01*
X0373627Y0213725D02*
X0375078Y0213725D01*
X0341628Y0234506D02*
X0323019Y0234506D01*
X0325094Y0244097D02*
X0336763Y0244097D01*
X0338361Y0245695D02*
X0323495Y0245695D01*
X0341262Y0236104D02*
X0341628Y0236104D01*
X0355979Y0242498D02*
X0356278Y0242498D01*
X0357877Y0244097D02*
X0354380Y0244097D01*
X0363389Y0260082D02*
X0375078Y0260082D01*
X0375078Y0261680D02*
X0364988Y0261680D01*
X0366586Y0263279D02*
X0375078Y0263279D01*
X0375078Y0264877D02*
X0368185Y0264877D01*
X0369783Y0266476D02*
X0375078Y0266476D01*
X0375078Y0268074D02*
X0371382Y0268074D01*
X0373991Y0269673D02*
X0375078Y0269673D01*
X0375078Y0279264D02*
X0374832Y0279264D01*
X0375078Y0280862D02*
X0374120Y0280862D01*
X0374978Y0282461D02*
X0375078Y0282461D01*
X0375078Y0284060D02*
X0374978Y0284060D01*
X0374978Y0285658D02*
X0375078Y0285658D01*
X0375078Y0287257D02*
X0374978Y0287257D01*
X0374978Y0288855D02*
X0375078Y0288855D01*
X0375078Y0290454D02*
X0374978Y0290454D01*
X0375078Y0292052D02*
X0374489Y0292052D01*
X0375078Y0293651D02*
X0372890Y0293651D01*
X0371292Y0295249D02*
X0375078Y0295249D01*
X0335896Y0290454D02*
X0323761Y0290454D01*
X0325359Y0292052D02*
X0334298Y0292052D01*
X0307523Y0271271D02*
X0303825Y0271271D01*
X0243950Y0258483D02*
X0206827Y0258483D01*
X0208425Y0260082D02*
X0243328Y0260082D01*
X0241264Y0261680D02*
X0210024Y0261680D01*
X0210128Y0266476D02*
X0240442Y0266476D01*
X0201930Y0258483D02*
X0196827Y0258483D01*
X0198425Y0260082D02*
X0200332Y0260082D01*
X0196228Y0188149D02*
X0238995Y0188149D01*
X0242428Y0183353D02*
X0196228Y0183353D01*
X0196228Y0181755D02*
X0243600Y0181755D01*
X0244836Y0180156D02*
X0196228Y0180156D01*
X0196228Y0178558D02*
X0243238Y0178558D01*
X0242328Y0176959D02*
X0196228Y0176959D01*
X0196228Y0175361D02*
X0242328Y0175361D01*
X0242328Y0173762D02*
X0196228Y0173762D01*
X0196228Y0172164D02*
X0243050Y0172164D01*
X0271321Y0180156D02*
X0289236Y0180156D01*
X0288828Y0181755D02*
X0272557Y0181755D01*
X0273728Y0183353D02*
X0289267Y0183353D01*
X0294189Y0183353D02*
X0297267Y0183353D01*
X0296828Y0181755D02*
X0294628Y0181755D01*
X0292938Y0178558D02*
X0272919Y0178558D01*
X0273828Y0176959D02*
X0292903Y0176959D01*
X0289271Y0175361D02*
X0273828Y0175361D01*
X0273828Y0173762D02*
X0288828Y0173762D01*
X0289233Y0172164D02*
X0273107Y0172164D01*
X0302628Y0181755D02*
X0304828Y0181755D01*
X0305267Y0183353D02*
X0302189Y0183353D01*
X0314554Y0176959D02*
X0375078Y0176959D01*
X0375078Y0175361D02*
X0318186Y0175361D01*
X0318628Y0173762D02*
X0375078Y0173762D01*
X0375078Y0172164D02*
X0318224Y0172164D01*
X0293615Y0349598D02*
X0265142Y0349598D01*
X0266378Y0351197D02*
X0299547Y0351197D01*
X0298518Y0352795D02*
X0266378Y0352795D01*
X0266378Y0354394D02*
X0298624Y0354394D01*
X0299898Y0355993D02*
X0265984Y0355993D01*
D15*
X0272828Y0354067D03*
X0282828Y0349067D03*
X0283578Y0338267D03*
X0289978Y0333867D03*
X0293328Y0337917D03*
X0296878Y0335717D03*
X0296878Y0340217D03*
X0296878Y0344217D03*
X0304628Y0341367D03*
X0304128Y0331467D03*
X0308878Y0329967D03*
X0316378Y0330967D03*
X0321578Y0336017D03*
X0327628Y0340467D03*
X0325628Y0345967D03*
X0329378Y0347717D03*
X0328078Y0352367D03*
X0332878Y0351717D03*
X0328378Y0358217D03*
X0323878Y0358217D03*
X0319378Y0358217D03*
X0314878Y0358217D03*
X0310378Y0358217D03*
X0305878Y0358217D03*
X0301378Y0358217D03*
X0296878Y0358217D03*
X0296878Y0353717D03*
X0301378Y0353467D03*
X0297828Y0364067D03*
X0282828Y0364067D03*
X0312828Y0364067D03*
X0327828Y0364067D03*
X0331878Y0361717D03*
X0336378Y0361717D03*
X0340878Y0361717D03*
X0345378Y0361717D03*
X0345378Y0357217D03*
X0349878Y0361717D03*
X0353878Y0361717D03*
X0354128Y0351217D03*
X0357628Y0348467D03*
X0361628Y0348217D03*
X0365628Y0348217D03*
X0369628Y0348217D03*
X0373628Y0348217D03*
X0373628Y0344217D03*
X0373628Y0340217D03*
X0373628Y0336217D03*
X0373628Y0332217D03*
X0373628Y0328217D03*
X0373628Y0324217D03*
X0373628Y0320217D03*
X0373628Y0316217D03*
X0373628Y0312217D03*
X0373628Y0308217D03*
X0373628Y0304217D03*
X0373628Y0300217D03*
X0367778Y0303867D03*
X0363778Y0303867D03*
X0365928Y0309367D03*
X0365878Y0316217D03*
X0358728Y0319017D03*
X0354728Y0312367D03*
X0350178Y0318267D03*
X0354828Y0325067D03*
X0344878Y0328967D03*
X0332878Y0326717D03*
X0320378Y0318217D03*
X0322378Y0314467D03*
X0324378Y0310967D03*
X0323878Y0303717D03*
X0319378Y0303717D03*
X0314878Y0303717D03*
X0310378Y0303717D03*
X0305878Y0303717D03*
X0301378Y0303717D03*
X0296878Y0303717D03*
X0296878Y0308217D03*
X0296878Y0312717D03*
X0296878Y0317217D03*
X0305128Y0323217D03*
X0311228Y0323617D03*
X0296878Y0331217D03*
X0282778Y0317667D03*
X0277828Y0314067D03*
X0274228Y0317667D03*
X0262828Y0319067D03*
X0262828Y0309067D03*
X0255128Y0306517D03*
X0249228Y0309967D03*
X0237528Y0303667D03*
X0231728Y0298717D03*
X0227078Y0289117D03*
X0221828Y0289167D03*
X0222278Y0280967D03*
X0227928Y0280317D03*
X0232778Y0281217D03*
X0242478Y0280667D03*
X0257928Y0277767D03*
X0262128Y0274317D03*
X0258528Y0268917D03*
X0257328Y0263717D03*
X0246228Y0260467D03*
X0243478Y0263567D03*
X0237828Y0254067D03*
X0227828Y0254067D03*
X0217828Y0254067D03*
X0207828Y0254067D03*
X0207828Y0244067D03*
X0197828Y0244067D03*
X0198328Y0236567D03*
X0193328Y0236567D03*
X0189328Y0236567D03*
X0185328Y0236567D03*
X0181328Y0236567D03*
X0181328Y0232067D03*
X0181328Y0227567D03*
X0181328Y0223067D03*
X0181328Y0218567D03*
X0181328Y0214067D03*
X0181328Y0209567D03*
X0181328Y0205067D03*
X0181328Y0200567D03*
X0185328Y0200567D03*
X0185328Y0196067D03*
X0181328Y0196067D03*
X0189328Y0196067D03*
X0193328Y0196067D03*
X0197328Y0196067D03*
X0200978Y0201667D03*
X0190878Y0208667D03*
X0187028Y0216117D03*
X0195678Y0217217D03*
X0203128Y0217317D03*
X0208878Y0222717D03*
X0205628Y0228067D03*
X0199328Y0230817D03*
X0190828Y0223767D03*
X0212378Y0208967D03*
X0223378Y0219467D03*
X0226878Y0222717D03*
X0233878Y0221467D03*
X0233878Y0217467D03*
X0233878Y0213467D03*
X0237878Y0213467D03*
X0240178Y0217117D03*
X0239878Y0209467D03*
X0239878Y0205467D03*
X0239878Y0201217D03*
X0237878Y0197217D03*
X0233878Y0197217D03*
X0233878Y0193217D03*
X0233878Y0189217D03*
X0229878Y0189217D03*
X0229878Y0185217D03*
X0229878Y0181217D03*
X0229878Y0177217D03*
X0229878Y0173217D03*
X0225878Y0173217D03*
X0221878Y0173217D03*
X0217878Y0173217D03*
X0213878Y0173217D03*
X0209878Y0173217D03*
X0205878Y0173217D03*
X0201878Y0173217D03*
X0197878Y0173217D03*
X0197878Y0178217D03*
X0201878Y0178217D03*
X0205878Y0178217D03*
X0209378Y0182217D03*
X0209378Y0186717D03*
X0219628Y0191717D03*
X0224128Y0191717D03*
X0231628Y0202717D03*
X0231628Y0208967D03*
X0253078Y0199517D03*
X0263078Y0199267D03*
X0277828Y0204067D03*
X0284228Y0204717D03*
X0284228Y0200717D03*
X0284228Y0196717D03*
X0277828Y0194067D03*
X0289978Y0204717D03*
X0293978Y0204717D03*
X0297978Y0204717D03*
X0297978Y0208717D03*
X0301928Y0210517D03*
X0305928Y0210517D03*
X0309928Y0210517D03*
X0313928Y0214017D03*
X0317928Y0214017D03*
X0321928Y0214017D03*
X0325928Y0214017D03*
X0329928Y0214017D03*
X0333928Y0214017D03*
X0336678Y0210367D03*
X0340678Y0210367D03*
X0344678Y0210367D03*
X0348678Y0210367D03*
X0352678Y0210367D03*
X0356678Y0210367D03*
X0360678Y0210367D03*
X0364678Y0210367D03*
X0368678Y0210367D03*
X0372678Y0210367D03*
X0346878Y0214467D03*
X0346878Y0224217D03*
X0347128Y0234217D03*
X0325828Y0224717D03*
X0322928Y0229567D03*
X0320778Y0236367D03*
X0316478Y0235567D03*
X0316678Y0241517D03*
X0311978Y0240617D03*
X0307578Y0241217D03*
X0296128Y0240967D03*
X0292128Y0240967D03*
X0301328Y0232667D03*
X0276728Y0228167D03*
X0276728Y0224167D03*
X0271128Y0231867D03*
X0272878Y0236217D03*
X0257628Y0232817D03*
X0255778Y0236517D03*
X0252478Y0238817D03*
X0251478Y0242967D03*
X0255878Y0241967D03*
X0256028Y0256567D03*
X0267828Y0254067D03*
X0277828Y0264067D03*
X0289028Y0265317D03*
X0287778Y0271017D03*
X0291628Y0272317D03*
X0301378Y0269617D03*
X0301828Y0265167D03*
X0306878Y0265017D03*
X0313478Y0264917D03*
X0309678Y0273217D03*
X0309728Y0277817D03*
X0317328Y0277517D03*
X0304878Y0285267D03*
X0301578Y0281567D03*
X0297728Y0286817D03*
X0293428Y0282867D03*
X0291728Y0289717D03*
X0294778Y0292717D03*
X0288628Y0297117D03*
X0284678Y0295767D03*
X0280728Y0296617D03*
X0281128Y0292467D03*
X0278778Y0281667D03*
X0283078Y0280417D03*
X0272828Y0274067D03*
X0291378Y0256717D03*
X0301628Y0256867D03*
X0312178Y0252117D03*
X0318528Y0254117D03*
X0331978Y0256417D03*
X0340128Y0263217D03*
X0335728Y0266367D03*
X0341828Y0277517D03*
X0341628Y0282417D03*
X0339828Y0286067D03*
X0343078Y0289567D03*
X0346478Y0287067D03*
X0357178Y0284617D03*
X0368778Y0285767D03*
X0368778Y0290317D03*
X0365878Y0294867D03*
X0357628Y0299967D03*
X0353628Y0299967D03*
X0349628Y0299967D03*
X0348878Y0305217D03*
X0341878Y0304217D03*
X0337378Y0304217D03*
X0332878Y0303717D03*
X0328378Y0303717D03*
X0340378Y0310217D03*
X0339378Y0314967D03*
X0333878Y0311217D03*
X0320328Y0294767D03*
X0313078Y0289617D03*
X0309478Y0296667D03*
X0330578Y0286717D03*
X0373178Y0276817D03*
X0373278Y0272517D03*
X0372828Y0259067D03*
X0372828Y0249067D03*
X0349128Y0257917D03*
X0270778Y0304367D03*
X0262078Y0298067D03*
X0257528Y0298167D03*
X0251478Y0293717D03*
X0223928Y0310117D03*
X0217828Y0304067D03*
X0215178Y0299067D03*
X0210228Y0299017D03*
X0204228Y0298917D03*
X0206028Y0305217D03*
X0200378Y0304967D03*
X0187828Y0314067D03*
X0182828Y0319067D03*
X0181978Y0336817D03*
X0182028Y0341617D03*
X0186878Y0345617D03*
X0186928Y0349667D03*
X0182828Y0359067D03*
X0191328Y0361067D03*
X0197828Y0364067D03*
X0207828Y0364067D03*
X0227328Y0352017D03*
X0227978Y0357367D03*
X0227828Y0364067D03*
X0228728Y0345517D03*
X0228678Y0341267D03*
X0227528Y0336067D03*
X0235428Y0334517D03*
X0236078Y0338917D03*
X0245628Y0339967D03*
X0255628Y0339717D03*
X0265378Y0339717D03*
X0272828Y0339067D03*
X0251428Y0325967D03*
X0247178Y0326167D03*
X0243128Y0325567D03*
X0238228Y0326217D03*
X0231078Y0322667D03*
X0228028Y0316817D03*
X0233178Y0316117D03*
X0222828Y0324067D03*
X0222828Y0329067D03*
X0217578Y0330167D03*
X0214528Y0320817D03*
X0199678Y0340317D03*
X0182828Y0299067D03*
X0187828Y0294067D03*
X0208678Y0288917D03*
X0208678Y0279167D03*
X0208428Y0269167D03*
X0187828Y0254067D03*
X0182828Y0249067D03*
X0182828Y0244067D03*
X0217828Y0234067D03*
X0230028Y0235467D03*
X0235178Y0241917D03*
X0256478Y0226617D03*
X0301978Y0206217D03*
X0309978Y0200717D03*
X0321978Y0197217D03*
X0321228Y0206917D03*
X0311728Y0185717D03*
X0307728Y0181717D03*
X0303728Y0177717D03*
X0299728Y0181717D03*
X0295728Y0177717D03*
X0291728Y0181717D03*
X0277828Y0179067D03*
X0291728Y0173717D03*
X0299728Y0173717D03*
X0307728Y0173717D03*
X0311728Y0177717D03*
X0315728Y0181717D03*
X0315728Y0173717D03*
X0323978Y0172717D03*
X0327978Y0172717D03*
X0331978Y0172717D03*
X0336378Y0172717D03*
X0340378Y0172717D03*
X0344378Y0172717D03*
X0348378Y0172717D03*
X0352378Y0172717D03*
X0356378Y0172717D03*
X0360378Y0172717D03*
X0364378Y0172717D03*
X0368378Y0172717D03*
X0372378Y0172717D03*
X0339378Y0181717D03*
X0240828Y0190417D03*
X0237828Y0179067D03*
X0287028Y0309767D03*
X0291028Y0310167D03*
X0334878Y0338967D03*
X0343378Y0339467D03*
X0346378Y0343217D03*
X0348878Y0338467D03*
X0356378Y0336717D03*
X0363878Y0343717D03*
X0350128Y0349217D03*
X0366378Y0325217D03*
D16*
X0365878Y0294867D02*
X0369128Y0294867D01*
X0373178Y0290817D01*
X0373178Y0282467D01*
X0370778Y0280067D01*
X0370778Y0275317D01*
X0369528Y0274067D01*
X0369528Y0272467D01*
X0360028Y0262967D01*
X0347128Y0262967D01*
X0343128Y0258967D01*
X0343128Y0244217D01*
X0337878Y0238967D01*
X0323978Y0238967D01*
X0322878Y0240067D01*
X0318128Y0240067D01*
X0316678Y0241517D01*
X0318778Y0242867D02*
X0317678Y0243967D01*
X0315328Y0243967D01*
X0311978Y0240617D01*
X0307578Y0241217D02*
X0311628Y0245267D01*
X0318228Y0245267D01*
X0319328Y0244167D01*
X0322478Y0244167D01*
X0325078Y0241567D01*
X0336778Y0241567D01*
X0340528Y0245317D01*
X0340528Y0260067D01*
X0346028Y0265567D01*
X0358928Y0265567D01*
X0366928Y0273567D01*
X0366928Y0275167D01*
X0368178Y0276417D01*
X0368178Y0281117D01*
X0369628Y0282567D01*
X0369628Y0284917D01*
X0368778Y0285767D01*
X0371878Y0287367D02*
X0368928Y0290317D01*
X0368778Y0290317D01*
X0371878Y0287367D02*
X0371878Y0282967D01*
X0369478Y0280567D01*
X0369478Y0275867D01*
X0368228Y0274617D01*
X0368228Y0273017D01*
X0359478Y0264267D01*
X0346578Y0264267D01*
X0341828Y0259517D01*
X0341828Y0244767D01*
X0337328Y0240267D01*
X0324528Y0240267D01*
X0321928Y0242867D01*
X0318778Y0242867D01*
X0319678Y0238767D02*
X0316478Y0235567D01*
X0320778Y0236367D02*
X0338978Y0236367D01*
X0345728Y0243117D01*
X0345728Y0257867D01*
X0348228Y0260367D01*
X0361128Y0260367D01*
X0373278Y0272517D01*
X0370828Y0271917D02*
X0370828Y0273517D01*
X0373178Y0275867D01*
X0373178Y0276817D01*
X0370828Y0271917D02*
X0360578Y0261667D01*
X0347678Y0261667D01*
X0344428Y0258417D01*
X0344428Y0243667D01*
X0338428Y0237667D01*
X0323428Y0237667D01*
X0322328Y0238767D01*
X0319678Y0238767D01*
X0325828Y0224717D02*
X0340278Y0224717D01*
X0343428Y0227867D01*
X0343428Y0235867D01*
X0345878Y0238317D01*
X0345878Y0241417D01*
X0349128Y0244667D01*
X0349128Y0257917D01*
X0322528Y0258067D02*
X0309778Y0258067D01*
X0302978Y0264867D01*
X0302128Y0264867D01*
X0301828Y0265167D01*
X0302278Y0268717D02*
X0301378Y0269617D01*
X0302278Y0268717D02*
X0308628Y0268717D01*
X0314378Y0274467D01*
X0314378Y0287517D01*
X0315178Y0288317D01*
X0319078Y0288317D01*
X0324828Y0294067D01*
X0334828Y0294067D01*
X0339428Y0289467D01*
X0339428Y0286467D01*
X0339828Y0286067D01*
X0342278Y0287067D02*
X0340628Y0288717D01*
X0340628Y0290117D01*
X0335378Y0295367D01*
X0324278Y0295367D01*
X0318528Y0289617D01*
X0313078Y0289617D01*
X0313078Y0285067D01*
X0303378Y0275367D01*
X0282478Y0275367D01*
X0278778Y0279067D01*
X0278778Y0281667D01*
X0283078Y0280417D02*
X0283078Y0279567D01*
X0286078Y0276567D01*
X0302728Y0276567D01*
X0309478Y0283317D01*
X0309478Y0296667D01*
X0318778Y0296667D01*
X0319328Y0297217D01*
X0321478Y0297217D01*
X0322028Y0296667D01*
X0335978Y0296667D01*
X0343078Y0289567D01*
X0342278Y0287067D02*
X0346478Y0287067D01*
X0322528Y0268067D02*
X0320028Y0270567D01*
X0314478Y0270567D01*
X0309028Y0265117D01*
X0306978Y0265117D01*
X0306878Y0265017D01*
X0295228Y0265417D02*
X0291628Y0269017D01*
X0291628Y0272317D01*
X0287778Y0271017D02*
X0293928Y0264867D01*
X0293928Y0248767D01*
X0322078Y0220617D01*
X0339878Y0220617D01*
X0348478Y0229217D01*
X0351128Y0229217D01*
X0344728Y0227317D02*
X0344728Y0235317D01*
X0348628Y0239217D01*
X0351128Y0239217D01*
X0344728Y0227317D02*
X0339328Y0221917D01*
X0322578Y0221917D01*
X0295228Y0249267D01*
X0295228Y0265417D01*
X0289028Y0265317D02*
X0289028Y0251817D01*
X0321528Y0219317D01*
X0346178Y0219317D01*
X0347778Y0219317D01*
X0351028Y0219317D01*
X0321228Y0206917D02*
X0339378Y0188767D01*
X0339378Y0181717D01*
X0268078Y0195267D02*
X0268078Y0197717D01*
X0263728Y0202067D01*
X0255828Y0202067D01*
X0250678Y0207217D01*
X0250678Y0231417D01*
X0255778Y0236517D01*
X0252478Y0238817D02*
X0249378Y0235717D01*
X0249378Y0206667D01*
X0258078Y0197967D01*
X0258078Y0195267D01*
X0248078Y0195267D02*
X0248078Y0239567D01*
X0251478Y0242967D01*
X0250078Y0256567D02*
X0235328Y0241817D01*
X0235228Y0241917D01*
X0235178Y0241917D01*
X0230028Y0242017D02*
X0246228Y0258217D01*
X0246228Y0260467D01*
X0247828Y0263567D02*
X0250028Y0261367D01*
X0254978Y0261367D01*
X0257328Y0263717D01*
X0255578Y0265967D02*
X0258528Y0268917D01*
X0255578Y0265967D02*
X0242478Y0265967D01*
X0240678Y0264167D01*
X0204378Y0264167D01*
X0204378Y0274167D02*
X0204528Y0274317D01*
X0262128Y0274317D01*
X0257928Y0277767D02*
X0218878Y0277767D01*
X0212928Y0283717D01*
X0204828Y0283717D01*
X0204378Y0284167D01*
X0201828Y0291867D02*
X0211378Y0291867D01*
X0222278Y0280967D01*
X0221628Y0283417D02*
X0223278Y0283417D01*
X0226378Y0280317D01*
X0227928Y0280317D01*
X0229278Y0284717D02*
X0232778Y0281217D01*
X0229278Y0284717D02*
X0222178Y0284717D01*
X0212428Y0294467D01*
X0208528Y0294467D01*
X0206628Y0296367D01*
X0206628Y0304617D01*
X0206028Y0305217D01*
X0200378Y0304967D02*
X0200378Y0293317D01*
X0201828Y0291867D01*
X0204228Y0293567D02*
X0204628Y0293167D01*
X0211878Y0293167D01*
X0221628Y0283417D01*
X0221828Y0289167D02*
X0219578Y0289167D01*
X0210228Y0298517D01*
X0210228Y0299017D01*
X0215178Y0299067D02*
X0215178Y0295417D01*
X0217928Y0292667D01*
X0223528Y0292667D01*
X0227078Y0289117D01*
X0242478Y0280667D02*
X0249078Y0287267D01*
X0249078Y0295717D01*
X0249628Y0296267D01*
X0249628Y0299967D01*
X0237128Y0312467D01*
X0224328Y0312467D01*
X0215978Y0320817D01*
X0214528Y0320817D01*
X0213378Y0325267D02*
X0213378Y0325367D01*
X0188628Y0325367D01*
X0184978Y0329017D01*
X0185028Y0329067D01*
X0185028Y0343167D01*
X0183978Y0344217D01*
X0183978Y0346767D01*
X0186878Y0349667D01*
X0186928Y0349667D01*
X0186878Y0345617D02*
X0186878Y0328967D01*
X0189178Y0326667D01*
X0213828Y0326667D01*
X0221328Y0319167D01*
X0227928Y0319167D01*
X0228028Y0319067D01*
X0228028Y0316817D01*
X0227928Y0319167D02*
X0234028Y0319167D01*
X0248778Y0304417D01*
X0253778Y0304417D01*
X0256228Y0301967D01*
X0279128Y0301967D01*
X0280728Y0300367D01*
X0280728Y0296617D01*
X0277628Y0295967D02*
X0281128Y0292467D01*
X0284678Y0295767D02*
X0284678Y0298117D01*
X0269728Y0313067D01*
X0269728Y0324867D01*
X0257178Y0337417D01*
X0254178Y0337417D01*
X0252828Y0338767D01*
X0252828Y0341767D01*
X0250628Y0343967D01*
X0245178Y0336117D02*
X0240628Y0340667D01*
X0240628Y0343967D01*
X0236078Y0338917D02*
X0235328Y0338917D01*
X0228728Y0345517D01*
X0228678Y0341267D02*
X0235428Y0334517D01*
X0227528Y0336067D02*
X0237378Y0326217D01*
X0238228Y0326217D01*
X0236028Y0322967D02*
X0240778Y0322967D01*
X0243128Y0325317D01*
X0243128Y0325567D01*
X0242678Y0321667D02*
X0235478Y0321667D01*
X0220828Y0336317D01*
X0220828Y0343117D01*
X0227328Y0349617D01*
X0227328Y0352017D01*
X0230378Y0350817D02*
X0222128Y0342567D01*
X0222128Y0336867D01*
X0236028Y0322967D01*
X0233278Y0320467D02*
X0248428Y0320467D01*
X0251378Y0323417D01*
X0251378Y0325917D01*
X0251428Y0325967D01*
X0247178Y0326167D02*
X0242678Y0321667D01*
X0235328Y0316117D02*
X0233178Y0316117D01*
X0233178Y0316017D01*
X0230928Y0313767D01*
X0224878Y0313767D01*
X0213378Y0325267D01*
X0217578Y0330167D02*
X0217578Y0334817D01*
X0191328Y0361067D01*
X0227978Y0357367D02*
X0227978Y0356617D01*
X0230378Y0354217D01*
X0230378Y0350817D01*
X0245178Y0336117D02*
X0256628Y0336117D01*
X0268428Y0324317D01*
X0268428Y0312517D01*
X0272928Y0308017D01*
X0272928Y0306517D01*
X0270778Y0304367D01*
X0276878Y0300717D02*
X0256128Y0300717D01*
X0256078Y0300767D01*
X0255578Y0300767D01*
X0253178Y0303167D01*
X0248278Y0303167D01*
X0235328Y0316117D01*
X0233278Y0320467D02*
X0231078Y0322667D01*
X0260628Y0341017D02*
X0260628Y0343967D01*
X0260628Y0341017D02*
X0264328Y0337317D01*
X0267278Y0337317D01*
X0271028Y0333567D01*
X0271028Y0313467D01*
X0287378Y0297117D01*
X0288628Y0297117D01*
X0277628Y0295967D02*
X0277628Y0299967D01*
X0276878Y0300717D01*
X0287028Y0309767D02*
X0292478Y0315217D01*
X0292478Y0325817D01*
X0294878Y0328217D01*
X0297378Y0328217D01*
X0294978Y0326467D02*
X0293778Y0325267D01*
X0293778Y0312867D01*
X0291078Y0310167D01*
X0291028Y0310167D01*
X0289978Y0333867D02*
X0290828Y0334717D01*
X0290828Y0344267D01*
X0295528Y0348967D01*
X0297428Y0348967D01*
X0297378Y0347217D02*
X0295578Y0347217D01*
X0293328Y0344967D01*
X0293328Y0337917D01*
X0204228Y0298917D02*
X0204228Y0293567D01*
X0243478Y0263567D02*
X0247828Y0263567D01*
X0250078Y0256567D02*
X0256028Y0256567D01*
X0230028Y0242017D02*
X0230028Y0235467D01*
D17*
X0305128Y0323217D02*
X0320878Y0307467D01*
X0337628Y0307467D01*
X0340378Y0310217D01*
X0338378Y0313967D02*
X0331878Y0313967D01*
X0316378Y0329467D01*
X0316378Y0330967D01*
X0311878Y0330967D02*
X0330878Y0311967D01*
X0333878Y0311967D01*
X0333878Y0311217D01*
X0338378Y0313967D02*
X0339378Y0314967D01*
X0324378Y0310967D02*
X0321378Y0310967D01*
X0314878Y0317467D01*
X0314878Y0325467D01*
X0310378Y0329967D01*
X0308878Y0329967D01*
X0311878Y0330967D02*
X0311878Y0331967D01*
X0311378Y0332467D01*
X0306878Y0332467D01*
X0305878Y0331467D01*
X0304128Y0331467D01*
X0304878Y0335717D02*
X0297378Y0328217D01*
X0294978Y0326467D02*
X0308378Y0326467D01*
X0311228Y0323617D01*
X0314328Y0335717D02*
X0304878Y0335717D01*
X0314328Y0335717D02*
X0317178Y0338567D01*
X0324178Y0338567D01*
X0324178Y0338517D01*
X0326728Y0335967D01*
X0348878Y0335967D01*
X0348878Y0338467D01*
X0327628Y0340467D02*
X0325378Y0340467D01*
X0318628Y0347217D01*
X0297378Y0347217D01*
X0297428Y0348967D02*
X0322128Y0348967D01*
X0325378Y0345717D01*
X0325628Y0345967D01*
M02*
