G75*
%MOIN*%
%OFA0B0*%
%FSLAX25Y25*%
%IPPOS*%
%LPD*%
%AMOC8*
5,1,8,0,0,1.08239X$1,22.5*
%
%ADD10R,0.04331X0.03937*%
%ADD11R,0.03346X0.03543*%
%ADD12R,0.03543X0.03346*%
%ADD13R,0.05906X0.05118*%
%ADD14C,0.01181*%
%ADD15R,0.02362X0.02362*%
%ADD16R,0.02362X0.02362*%
%ADD17R,0.05906X0.02756*%
%ADD18R,0.02362X0.03937*%
%ADD19R,0.03150X0.03937*%
%ADD20R,0.01122X0.04331*%
%ADD21R,0.04331X0.01122*%
%ADD22R,0.07874X0.04724*%
%ADD23R,0.09448X0.06496*%
%ADD24R,0.01169X0.03346*%
%ADD25R,0.02756X0.01102*%
%ADD26R,0.03937X0.04331*%
%ADD27R,0.02165X0.06693*%
%ADD28R,0.03937X0.02756*%
%ADD29R,0.03740X0.02756*%
%ADD30R,0.02953X0.01772*%
%ADD31R,0.01772X0.02953*%
%ADD32R,0.00984X0.01575*%
%ADD33R,0.01575X0.00984*%
%ADD34R,0.07874X0.07874*%
%ADD35C,0.00906*%
%ADD36R,0.03937X0.06693*%
%ADD37R,0.04331X0.07480*%
%ADD38R,0.02800X0.05600*%
%ADD39R,0.10000X0.10000*%
%ADD40R,0.06693X0.03937*%
%ADD41R,0.02756X0.03543*%
%ADD42R,0.03543X0.02756*%
%ADD43R,0.10600X0.10600*%
%ADD44R,0.05500X0.03000*%
%ADD45R,0.02400X0.01200*%
D10*
X0261032Y0226817D03*
X0267725Y0226817D03*
X0289632Y0228667D03*
X0296325Y0228667D03*
X0316582Y0249217D03*
X0323275Y0249217D03*
X0361032Y0338467D03*
X0367725Y0338467D03*
G36*
X0341068Y0354735D02*
X0344129Y0351674D01*
X0341346Y0348891D01*
X0338285Y0351952D01*
X0341068Y0354735D01*
G37*
G36*
X0336335Y0359467D02*
X0339396Y0356406D01*
X0336613Y0353623D01*
X0333552Y0356684D01*
X0336335Y0359467D01*
G37*
G36*
X0334779Y0348069D02*
X0337840Y0351130D01*
X0340623Y0348347D01*
X0337562Y0345286D01*
X0334779Y0348069D01*
G37*
G36*
X0330046Y0343337D02*
X0333107Y0346398D01*
X0335890Y0343615D01*
X0332829Y0340554D01*
X0330046Y0343337D01*
G37*
X0314325Y0352467D03*
X0307632Y0352467D03*
D11*
X0319495Y0352367D03*
X0324062Y0352367D03*
G36*
X0339092Y0344967D02*
X0341458Y0347333D01*
X0343962Y0344829D01*
X0341596Y0342463D01*
X0339092Y0344967D01*
G37*
G36*
X0342321Y0348197D02*
X0344687Y0350563D01*
X0347191Y0348059D01*
X0344825Y0345693D01*
X0342321Y0348197D01*
G37*
X0350795Y0332767D03*
X0355362Y0332767D03*
X0362995Y0332617D03*
X0367562Y0332617D03*
X0357362Y0304967D03*
X0352795Y0304967D03*
X0262112Y0293867D03*
X0257545Y0293867D03*
X0240562Y0293667D03*
X0235995Y0293667D03*
X0289745Y0234467D03*
X0294312Y0234467D03*
X0266662Y0232817D03*
X0262095Y0232817D03*
X0224162Y0195717D03*
X0219595Y0195717D03*
X0195112Y0201817D03*
X0190545Y0201817D03*
X0219095Y0177967D03*
X0223662Y0177967D03*
X0195112Y0230817D03*
X0190545Y0230817D03*
D12*
X0227628Y0218000D03*
X0227628Y0213433D03*
X0227628Y0207750D03*
X0227628Y0203183D03*
X0204378Y0186750D03*
X0204378Y0182183D03*
X0198878Y0182183D03*
X0198878Y0186750D03*
X0213878Y0182750D03*
X0213878Y0178183D03*
X0312228Y0191433D03*
X0312228Y0196000D03*
X0301628Y0239183D03*
X0301628Y0243750D03*
X0305878Y0273183D03*
X0305878Y0277750D03*
X0346178Y0277483D03*
X0346178Y0282050D03*
X0250828Y0297633D03*
X0250828Y0302200D03*
X0228278Y0304883D03*
X0228278Y0309450D03*
X0187028Y0337083D03*
X0187028Y0341650D03*
D13*
X0282428Y0233507D03*
X0282428Y0226027D03*
D14*
X0253441Y0228393D02*
X0251493Y0230341D01*
X0253441Y0232289D01*
X0255389Y0230341D01*
X0253441Y0228393D01*
X0254621Y0229573D02*
X0252261Y0229573D01*
X0251905Y0230753D02*
X0254977Y0230753D01*
X0253797Y0231933D02*
X0253085Y0231933D01*
X0249905Y0231929D02*
X0247957Y0233877D01*
X0249905Y0235825D01*
X0251853Y0233877D01*
X0249905Y0231929D01*
X0251085Y0233109D02*
X0248725Y0233109D01*
X0248369Y0234289D02*
X0251441Y0234289D01*
X0250261Y0235469D02*
X0249549Y0235469D01*
X0246370Y0235464D02*
X0244422Y0237412D01*
X0246370Y0239360D01*
X0248318Y0237412D01*
X0246370Y0235464D01*
X0247550Y0236644D02*
X0245190Y0236644D01*
X0244834Y0237824D02*
X0247906Y0237824D01*
X0246726Y0239004D02*
X0246014Y0239004D01*
X0239539Y0232529D02*
X0241487Y0230581D01*
X0239539Y0232529D02*
X0241487Y0234477D01*
X0243435Y0232529D01*
X0241487Y0230581D01*
X0242667Y0231761D02*
X0240307Y0231761D01*
X0239951Y0232941D02*
X0243023Y0232941D01*
X0241843Y0234121D02*
X0241131Y0234121D01*
X0243075Y0228994D02*
X0245023Y0227046D01*
X0243075Y0228994D02*
X0245023Y0230942D01*
X0246971Y0228994D01*
X0245023Y0227046D01*
X0246203Y0228226D02*
X0243843Y0228226D01*
X0243487Y0229406D02*
X0246559Y0229406D01*
X0245379Y0230586D02*
X0244667Y0230586D01*
X0246610Y0225458D02*
X0248558Y0223510D01*
X0246610Y0225458D02*
X0248558Y0227406D01*
X0250506Y0225458D01*
X0248558Y0223510D01*
X0249738Y0224690D02*
X0247378Y0224690D01*
X0247022Y0225870D02*
X0250094Y0225870D01*
X0248914Y0227050D02*
X0248202Y0227050D01*
D15*
X0199978Y0213417D03*
X0199978Y0209417D03*
X0229628Y0198217D03*
X0229628Y0194217D03*
X0305478Y0206217D03*
X0309478Y0206217D03*
X0314478Y0206217D03*
X0314478Y0210217D03*
X0319978Y0210217D03*
X0323978Y0210217D03*
X0328978Y0210217D03*
X0332978Y0210217D03*
X0336278Y0255667D03*
X0336278Y0259667D03*
X0353828Y0260367D03*
X0353828Y0264367D03*
X0358028Y0264367D03*
X0358028Y0260367D03*
X0362228Y0260367D03*
X0362228Y0264367D03*
X0366428Y0264367D03*
X0366428Y0260367D03*
X0364328Y0268567D03*
X0364328Y0272567D03*
X0360128Y0272567D03*
X0360128Y0268567D03*
X0355928Y0268567D03*
X0355928Y0272567D03*
X0351728Y0272567D03*
X0351728Y0268567D03*
X0326678Y0286967D03*
X0322678Y0286967D03*
X0317078Y0292917D03*
X0317078Y0296667D03*
X0313078Y0296667D03*
X0313078Y0292917D03*
X0312928Y0277517D03*
X0312928Y0273517D03*
X0312428Y0260817D03*
X0312428Y0256817D03*
X0208778Y0315517D03*
X0208778Y0319517D03*
X0204578Y0319517D03*
X0204578Y0315517D03*
X0200378Y0315517D03*
X0200378Y0319517D03*
X0196178Y0319517D03*
X0196178Y0315517D03*
X0194078Y0323717D03*
X0194078Y0327717D03*
X0198278Y0327717D03*
X0198278Y0323717D03*
X0202478Y0323717D03*
X0202478Y0327717D03*
X0206678Y0327717D03*
X0206678Y0323717D03*
X0218728Y0343067D03*
X0218728Y0346817D03*
X0222728Y0346817D03*
X0222728Y0343067D03*
X0222728Y0351017D03*
X0218728Y0351017D03*
X0218728Y0355217D03*
X0222728Y0355217D03*
X0222728Y0359417D03*
X0218728Y0359417D03*
X0214528Y0357317D03*
X0210528Y0357317D03*
X0210528Y0353117D03*
X0214528Y0353117D03*
X0214528Y0348917D03*
X0210528Y0348917D03*
X0292278Y0325867D03*
X0296278Y0325867D03*
X0311778Y0342117D03*
X0311778Y0346117D03*
X0320378Y0344067D03*
X0320378Y0340067D03*
D16*
G36*
X0352834Y0342152D02*
X0351164Y0340482D01*
X0349494Y0342152D01*
X0351164Y0343822D01*
X0352834Y0342152D01*
G37*
G36*
X0355663Y0344981D02*
X0353993Y0343311D01*
X0352323Y0344981D01*
X0353993Y0346651D01*
X0355663Y0344981D01*
G37*
G36*
X0358613Y0341931D02*
X0356943Y0340261D01*
X0355273Y0341931D01*
X0356943Y0343601D01*
X0358613Y0341931D01*
G37*
G36*
X0355784Y0339102D02*
X0354114Y0337432D01*
X0352444Y0339102D01*
X0354114Y0340772D01*
X0355784Y0339102D01*
G37*
G36*
X0308173Y0237839D02*
X0309843Y0239509D01*
X0311513Y0237839D01*
X0309843Y0236169D01*
X0308173Y0237839D01*
G37*
G36*
X0305345Y0235011D02*
X0307015Y0236681D01*
X0308685Y0235011D01*
X0307015Y0233341D01*
X0305345Y0235011D01*
G37*
G36*
X0303860Y0230556D02*
X0305530Y0232226D01*
X0307200Y0230556D01*
X0305530Y0228886D01*
X0303860Y0230556D01*
G37*
G36*
X0301031Y0227728D02*
X0302701Y0229398D01*
X0304371Y0227728D01*
X0302701Y0226058D01*
X0301031Y0227728D01*
G37*
G36*
X0304001Y0224758D02*
X0305671Y0226428D01*
X0307341Y0224758D01*
X0305671Y0223088D01*
X0304001Y0224758D01*
G37*
G36*
X0306830Y0227586D02*
X0308500Y0229256D01*
X0310170Y0227586D01*
X0308500Y0225916D01*
X0306830Y0227586D01*
G37*
G36*
X0308315Y0232041D02*
X0309985Y0233711D01*
X0311655Y0232041D01*
X0309985Y0230371D01*
X0308315Y0232041D01*
G37*
G36*
X0311143Y0234870D02*
X0312813Y0236540D01*
X0314483Y0234870D01*
X0312813Y0233200D01*
X0311143Y0234870D01*
G37*
G36*
X0314113Y0231900D02*
X0315783Y0233570D01*
X0317453Y0231900D01*
X0315783Y0230230D01*
X0314113Y0231900D01*
G37*
G36*
X0311284Y0229071D02*
X0312954Y0230741D01*
X0314624Y0229071D01*
X0312954Y0227401D01*
X0311284Y0229071D01*
G37*
G36*
X0309799Y0224616D02*
X0311469Y0226286D01*
X0313139Y0224616D01*
X0311469Y0222946D01*
X0309799Y0224616D01*
G37*
G36*
X0306971Y0221788D02*
X0308641Y0223458D01*
X0310311Y0221788D01*
X0308641Y0220118D01*
X0306971Y0221788D01*
G37*
G36*
X0309941Y0218818D02*
X0311611Y0220488D01*
X0313281Y0218818D01*
X0311611Y0217148D01*
X0309941Y0218818D01*
G37*
G36*
X0312769Y0221647D02*
X0314439Y0223317D01*
X0316109Y0221647D01*
X0314439Y0219977D01*
X0312769Y0221647D01*
G37*
G36*
X0314254Y0226101D02*
X0315924Y0227771D01*
X0317594Y0226101D01*
X0315924Y0224431D01*
X0314254Y0226101D01*
G37*
G36*
X0317083Y0228930D02*
X0318753Y0230600D01*
X0320423Y0228930D01*
X0318753Y0227260D01*
X0317083Y0228930D01*
G37*
G36*
X0247013Y0222243D02*
X0245343Y0220573D01*
X0243673Y0222243D01*
X0245343Y0223913D01*
X0247013Y0222243D01*
G37*
G36*
X0244184Y0219414D02*
X0242514Y0217744D01*
X0240844Y0219414D01*
X0242514Y0221084D01*
X0244184Y0219414D01*
G37*
G36*
X0240649Y0222950D02*
X0238979Y0221280D01*
X0237309Y0222950D01*
X0238979Y0224620D01*
X0240649Y0222950D01*
G37*
G36*
X0243477Y0225778D02*
X0241807Y0224108D01*
X0240137Y0225778D01*
X0241807Y0227448D01*
X0243477Y0225778D01*
G37*
G36*
X0239942Y0229314D02*
X0238272Y0227644D01*
X0236602Y0229314D01*
X0238272Y0230984D01*
X0239942Y0229314D01*
G37*
G36*
X0237113Y0226485D02*
X0235443Y0224815D01*
X0233773Y0226485D01*
X0235443Y0228155D01*
X0237113Y0226485D01*
G37*
D17*
X0363089Y0200775D03*
X0363089Y0194869D03*
X0363089Y0183058D03*
D18*
X0373915Y0177547D03*
X0373915Y0206287D03*
D19*
X0365648Y0206287D03*
X0365648Y0177547D03*
D20*
X0288642Y0241026D03*
X0286674Y0241026D03*
X0284705Y0241026D03*
X0282737Y0241026D03*
X0280768Y0241026D03*
X0278800Y0241026D03*
X0276831Y0241026D03*
X0274863Y0241026D03*
X0272894Y0241026D03*
X0270926Y0241026D03*
X0268957Y0241026D03*
X0266989Y0241026D03*
X0265020Y0241026D03*
X0263052Y0241026D03*
X0261083Y0241026D03*
X0259115Y0241026D03*
X0259115Y0285908D03*
X0261083Y0285908D03*
X0263052Y0285908D03*
X0265020Y0285908D03*
X0266989Y0285908D03*
X0268957Y0285908D03*
X0270926Y0285908D03*
X0272894Y0285908D03*
X0274863Y0285908D03*
X0276831Y0285908D03*
X0278800Y0285908D03*
X0280768Y0285908D03*
X0282737Y0285908D03*
X0284705Y0285908D03*
X0286674Y0285908D03*
X0288642Y0285908D03*
D21*
X0296319Y0278230D03*
X0296319Y0276262D03*
X0296319Y0274293D03*
X0296319Y0272325D03*
X0296319Y0270356D03*
X0296319Y0268388D03*
X0296319Y0266419D03*
X0296319Y0264451D03*
X0296319Y0262482D03*
X0296319Y0260514D03*
X0296319Y0258545D03*
X0296319Y0256577D03*
X0296319Y0254608D03*
X0296319Y0252640D03*
X0296319Y0250671D03*
X0296319Y0248703D03*
X0251438Y0248703D03*
X0251438Y0250671D03*
X0251438Y0252640D03*
X0251438Y0254608D03*
X0251438Y0256577D03*
X0251438Y0258545D03*
X0251438Y0260514D03*
X0251438Y0262482D03*
X0251438Y0264451D03*
X0251438Y0266419D03*
X0251438Y0268388D03*
X0251438Y0270356D03*
X0251438Y0272325D03*
X0251438Y0274293D03*
X0251438Y0276262D03*
X0251438Y0278230D03*
D22*
X0291478Y0200016D03*
X0302478Y0200016D03*
X0302478Y0187417D03*
X0291478Y0187417D03*
D23*
X0321978Y0197217D03*
D24*
X0321978Y0191410D03*
X0320010Y0191410D03*
X0318041Y0191410D03*
X0323947Y0191410D03*
X0325915Y0191410D03*
X0325915Y0203024D03*
X0323947Y0203024D03*
X0321978Y0203024D03*
X0320010Y0203024D03*
X0318041Y0203024D03*
D25*
X0316073Y0198201D03*
X0316073Y0196232D03*
X0327884Y0196232D03*
X0327884Y0198201D03*
D26*
X0333478Y0200563D03*
X0333478Y0193870D03*
X0235628Y0201870D03*
X0235628Y0208563D03*
D27*
X0322671Y0181717D03*
X0334286Y0181717D03*
D28*
X0323557Y0186441D03*
D29*
X0323459Y0176992D03*
X0333498Y0176992D03*
X0333498Y0186441D03*
D30*
X0337701Y0216933D03*
X0337701Y0221500D03*
X0343056Y0221500D03*
X0343056Y0216973D03*
X0343056Y0226973D03*
X0343056Y0231500D03*
X0337701Y0231500D03*
X0337701Y0226933D03*
X0337701Y0236933D03*
X0337701Y0241500D03*
X0343056Y0241500D03*
X0343056Y0236973D03*
X0217806Y0261883D03*
X0217806Y0266450D03*
X0212451Y0266411D03*
X0212451Y0261883D03*
X0212451Y0271883D03*
X0212451Y0276411D03*
X0217806Y0276450D03*
X0217806Y0271883D03*
X0217806Y0281883D03*
X0217806Y0286450D03*
X0212451Y0286411D03*
X0212451Y0281883D03*
D31*
X0238345Y0330540D03*
X0242912Y0330540D03*
X0242873Y0335894D03*
X0238345Y0335894D03*
X0248345Y0335894D03*
X0252873Y0335894D03*
X0252912Y0330540D03*
X0248345Y0330540D03*
X0258345Y0330540D03*
X0262912Y0330540D03*
X0262873Y0335894D03*
X0258345Y0335894D03*
X0260362Y0208694D03*
X0255795Y0208694D03*
X0255834Y0203340D03*
X0260362Y0203340D03*
X0265834Y0203340D03*
X0270362Y0203340D03*
X0270362Y0208694D03*
X0265795Y0208694D03*
X0250362Y0208694D03*
X0245795Y0208694D03*
X0245834Y0203340D03*
X0250362Y0203340D03*
D32*
X0216315Y0201880D03*
X0214347Y0201880D03*
X0212378Y0201880D03*
X0210410Y0201880D03*
X0208441Y0201880D03*
X0208441Y0216053D03*
X0210410Y0216053D03*
X0212378Y0216053D03*
X0214347Y0216053D03*
X0216315Y0216053D03*
X0352157Y0277680D03*
X0354126Y0277680D03*
X0356094Y0277680D03*
X0358063Y0277680D03*
X0360031Y0277680D03*
X0362000Y0277680D03*
X0362000Y0291853D03*
X0360031Y0291853D03*
X0358063Y0291853D03*
X0356094Y0291853D03*
X0354126Y0291853D03*
X0352157Y0291853D03*
X0339768Y0317912D03*
X0337800Y0317912D03*
X0335831Y0317912D03*
X0333863Y0317912D03*
X0331894Y0317912D03*
X0329926Y0317912D03*
X0327957Y0317912D03*
X0325989Y0317912D03*
X0325989Y0336022D03*
X0327957Y0336022D03*
X0329926Y0336022D03*
X0331894Y0336022D03*
X0333863Y0336022D03*
X0335831Y0336022D03*
X0337800Y0336022D03*
X0339768Y0336022D03*
X0204500Y0333380D03*
X0202531Y0333380D03*
X0200563Y0333380D03*
X0198594Y0333380D03*
X0196626Y0333380D03*
X0194657Y0333380D03*
X0194657Y0347553D03*
X0196626Y0347553D03*
X0198594Y0347553D03*
X0200563Y0347553D03*
X0202531Y0347553D03*
X0204500Y0347553D03*
D33*
X0206665Y0345388D03*
X0206665Y0343419D03*
X0206665Y0341451D03*
X0206665Y0339482D03*
X0206665Y0337514D03*
X0206665Y0335545D03*
X0192492Y0335545D03*
X0192492Y0337514D03*
X0192492Y0339482D03*
X0192492Y0341451D03*
X0192492Y0343419D03*
X0192492Y0345388D03*
X0323823Y0333856D03*
X0323823Y0331888D03*
X0323823Y0329919D03*
X0323823Y0327951D03*
X0323823Y0325982D03*
X0323823Y0324014D03*
X0323823Y0322045D03*
X0323823Y0320077D03*
X0341934Y0320077D03*
X0341934Y0322045D03*
X0341934Y0324014D03*
X0341934Y0325982D03*
X0341934Y0327951D03*
X0341934Y0329919D03*
X0341934Y0331888D03*
X0341934Y0333856D03*
X0349992Y0289688D03*
X0349992Y0287719D03*
X0349992Y0285751D03*
X0349992Y0283782D03*
X0349992Y0281814D03*
X0349992Y0279845D03*
X0364165Y0279845D03*
X0364165Y0281814D03*
X0364165Y0283782D03*
X0364165Y0285751D03*
X0364165Y0287719D03*
X0364165Y0289688D03*
X0219465Y0212904D03*
X0219465Y0210935D03*
X0219465Y0208967D03*
X0219465Y0206998D03*
X0219465Y0205030D03*
X0205292Y0205030D03*
X0205292Y0206998D03*
X0205292Y0208967D03*
X0205292Y0210935D03*
X0205292Y0212904D03*
D34*
X0357078Y0284767D03*
X0199578Y0340467D03*
D35*
X0235841Y0312800D02*
X0235841Y0311344D01*
X0237416Y0311344D02*
X0237416Y0312800D01*
X0238991Y0312800D02*
X0238991Y0311344D01*
X0240566Y0311344D02*
X0240566Y0312800D01*
X0242141Y0312800D02*
X0242141Y0311344D01*
X0243715Y0311344D02*
X0243715Y0312800D01*
X0244956Y0310104D02*
X0246412Y0310104D01*
X0246412Y0308529D02*
X0244956Y0308529D01*
X0244956Y0306954D02*
X0246412Y0306954D01*
X0246412Y0305379D02*
X0244956Y0305379D01*
X0244956Y0303804D02*
X0246412Y0303804D01*
X0246412Y0302230D02*
X0244956Y0302230D01*
X0243715Y0300989D02*
X0243715Y0299533D01*
X0242141Y0299533D02*
X0242141Y0300989D01*
X0240566Y0300989D02*
X0240566Y0299533D01*
X0238991Y0299533D02*
X0238991Y0300989D01*
X0237416Y0300989D02*
X0237416Y0299533D01*
X0235841Y0299533D02*
X0235841Y0300989D01*
X0234601Y0302230D02*
X0233145Y0302230D01*
X0233145Y0303804D02*
X0234601Y0303804D01*
X0234601Y0305379D02*
X0233145Y0305379D01*
X0233145Y0306954D02*
X0234601Y0306954D01*
X0234601Y0308529D02*
X0233145Y0308529D01*
X0233145Y0310104D02*
X0234601Y0310104D01*
D36*
X0361857Y0361867D03*
X0371700Y0361867D03*
D37*
X0359406Y0326200D03*
X0350351Y0326200D03*
X0350351Y0311633D03*
X0359406Y0311633D03*
X0195356Y0223600D03*
X0186301Y0223600D03*
X0186301Y0209033D03*
X0195356Y0209033D03*
D38*
X0302292Y0317305D03*
X0307016Y0317305D03*
X0311741Y0317305D03*
X0316465Y0317305D03*
X0316465Y0336628D03*
X0311741Y0336628D03*
X0307016Y0336628D03*
X0302292Y0336628D03*
D39*
X0332878Y0326967D03*
D40*
X0183878Y0175545D03*
X0183878Y0185388D03*
D41*
X0203819Y0191967D03*
X0208938Y0191967D03*
X0208819Y0196967D03*
X0213938Y0196967D03*
D42*
X0213878Y0193026D03*
X0213878Y0187908D03*
D43*
X0212378Y0208967D03*
D44*
X0306878Y0248817D03*
X0306878Y0254517D03*
D45*
X0304847Y0289286D03*
X0304847Y0291648D03*
X0300516Y0291648D03*
X0300516Y0289286D03*
M02*
