G75*
%MOIN*%
%OFA0B0*%
%FSLAX25Y25*%
%IPPOS*%
%LPD*%
%AMOC8*
5,1,8,0,0,1.08239X$1,22.5*
%
%ADD10C,0.04362*%
%ADD11C,0.07800*%
%ADD12C,0.03943*%
%ADD13OC8,0.08900*%
%ADD14C,0.03200*%
D10*
X0322528Y0258067D03*
X0322528Y0263067D03*
X0322528Y0268067D03*
X0322528Y0273067D03*
X0322528Y0278067D03*
X0327528Y0278067D03*
X0327528Y0273067D03*
X0327528Y0268067D03*
X0327528Y0263067D03*
X0327528Y0258067D03*
D11*
X0343378Y0199717D03*
X0353378Y0199717D03*
D12*
X0369978Y0197822D03*
X0369978Y0186011D03*
D13*
X0371128Y0219217D03*
X0361128Y0219217D03*
X0351028Y0219317D03*
X0351128Y0229217D03*
X0361128Y0229217D03*
X0371128Y0229217D03*
X0371128Y0239217D03*
X0361128Y0239217D03*
X0351128Y0239217D03*
X0268078Y0195267D03*
X0258078Y0195267D03*
X0248078Y0195267D03*
X0248078Y0185267D03*
X0258078Y0185267D03*
X0268078Y0185267D03*
X0268078Y0175267D03*
X0258078Y0175267D03*
X0248078Y0175267D03*
X0204378Y0264167D03*
X0194378Y0264167D03*
X0184378Y0264167D03*
X0184378Y0274167D03*
X0194378Y0274167D03*
X0204378Y0274167D03*
X0204378Y0284167D03*
X0194378Y0284167D03*
X0184378Y0284167D03*
X0240628Y0343967D03*
X0250628Y0343967D03*
X0250628Y0353217D03*
X0240628Y0353217D03*
X0240628Y0362467D03*
X0250628Y0362467D03*
X0260628Y0362467D03*
X0260628Y0353217D03*
X0260628Y0343967D03*
D14*
X0197878Y0173217D03*
X0201878Y0173217D03*
X0205878Y0173217D03*
X0209878Y0173217D03*
X0213878Y0173217D03*
X0217878Y0173217D03*
X0221878Y0173217D03*
X0225878Y0173217D03*
X0229878Y0173217D03*
X0229878Y0177217D03*
X0229878Y0181217D03*
X0229878Y0185217D03*
X0229878Y0189217D03*
X0233878Y0189217D03*
X0233878Y0193217D03*
X0233878Y0197217D03*
X0237878Y0197217D03*
X0239878Y0201217D03*
X0239878Y0205467D03*
X0239878Y0209467D03*
X0237878Y0213467D03*
X0233878Y0213467D03*
X0233878Y0217467D03*
X0233878Y0221467D03*
X0226878Y0222717D03*
X0223378Y0219467D03*
X0231628Y0208967D03*
X0231628Y0202717D03*
X0224128Y0191717D03*
X0219628Y0191717D03*
X0209378Y0186717D03*
X0209378Y0182217D03*
X0205878Y0178217D03*
X0201878Y0178217D03*
X0197878Y0178217D03*
X0197328Y0196067D03*
X0193328Y0196067D03*
X0189328Y0196067D03*
X0185328Y0196067D03*
X0181328Y0196067D03*
X0181328Y0200567D03*
X0185328Y0200567D03*
X0181328Y0205067D03*
X0181328Y0209567D03*
X0181328Y0214067D03*
X0181328Y0218567D03*
X0181328Y0223067D03*
X0181328Y0227567D03*
X0181328Y0232067D03*
X0181328Y0236567D03*
X0185328Y0236567D03*
X0189328Y0236567D03*
X0193328Y0236567D03*
X0198328Y0236567D03*
X0199328Y0230817D03*
X0205628Y0228067D03*
X0208878Y0222717D03*
X0203128Y0217317D03*
X0195678Y0217217D03*
X0190828Y0223767D03*
X0187028Y0216117D03*
X0190878Y0208667D03*
X0200978Y0201667D03*
X0212378Y0208967D03*
X0240178Y0217117D03*
X0256478Y0226617D03*
X0257628Y0232817D03*
X0255778Y0236517D03*
X0252478Y0238817D03*
X0251478Y0242967D03*
X0255878Y0241967D03*
X0272878Y0236217D03*
X0271128Y0231867D03*
X0276728Y0228167D03*
X0276728Y0224167D03*
X0301328Y0232667D03*
X0316478Y0235567D03*
X0320778Y0236367D03*
X0316678Y0241517D03*
X0311978Y0240617D03*
X0307578Y0241217D03*
X0296128Y0240967D03*
X0292128Y0240967D03*
X0291378Y0256717D03*
X0289028Y0265317D03*
X0277828Y0264067D03*
X0272828Y0274067D03*
X0262128Y0274317D03*
X0257928Y0277767D03*
X0258528Y0268917D03*
X0257328Y0263717D03*
X0246228Y0260467D03*
X0243478Y0263567D03*
X0237828Y0254067D03*
X0227828Y0254067D03*
X0217828Y0254067D03*
X0207828Y0254067D03*
X0207828Y0244067D03*
X0197828Y0244067D03*
X0187828Y0254067D03*
X0182828Y0249067D03*
X0182828Y0244067D03*
X0217828Y0234067D03*
X0230028Y0235467D03*
X0235178Y0241917D03*
X0256028Y0256567D03*
X0267828Y0254067D03*
X0287778Y0271017D03*
X0291628Y0272317D03*
X0301378Y0269617D03*
X0301828Y0265167D03*
X0306878Y0265017D03*
X0313478Y0264917D03*
X0309678Y0273217D03*
X0309728Y0277817D03*
X0317328Y0277517D03*
X0304878Y0285267D03*
X0301578Y0281567D03*
X0297728Y0286817D03*
X0293428Y0282867D03*
X0291728Y0289717D03*
X0294778Y0292717D03*
X0288628Y0297117D03*
X0284678Y0295767D03*
X0280728Y0296617D03*
X0281128Y0292467D03*
X0278778Y0281667D03*
X0283078Y0280417D03*
X0262078Y0298067D03*
X0257528Y0298167D03*
X0251478Y0293717D03*
X0255128Y0306517D03*
X0249228Y0309967D03*
X0237528Y0303667D03*
X0231728Y0298717D03*
X0227078Y0289117D03*
X0221828Y0289167D03*
X0222278Y0280967D03*
X0227928Y0280317D03*
X0232778Y0281217D03*
X0242478Y0280667D03*
X0215178Y0299067D03*
X0210228Y0299017D03*
X0204228Y0298917D03*
X0206028Y0305217D03*
X0200378Y0304967D03*
X0187828Y0314067D03*
X0182828Y0319067D03*
X0181978Y0336817D03*
X0182028Y0341617D03*
X0186878Y0345617D03*
X0186928Y0349667D03*
X0182828Y0359067D03*
X0191328Y0361067D03*
X0197828Y0364067D03*
X0207828Y0364067D03*
X0227328Y0352017D03*
X0227978Y0357367D03*
X0227828Y0364067D03*
X0228728Y0345517D03*
X0228678Y0341267D03*
X0227528Y0336067D03*
X0235428Y0334517D03*
X0236078Y0338917D03*
X0245628Y0339967D03*
X0255628Y0339717D03*
X0265378Y0339717D03*
X0272828Y0339067D03*
X0283578Y0338267D03*
X0289978Y0333867D03*
X0293328Y0337917D03*
X0296878Y0335717D03*
X0296878Y0340217D03*
X0296878Y0344217D03*
X0304628Y0341367D03*
X0304128Y0331467D03*
X0308878Y0329967D03*
X0316378Y0330967D03*
X0321578Y0336017D03*
X0327628Y0340467D03*
X0325628Y0345967D03*
X0329378Y0347717D03*
X0328078Y0352367D03*
X0332878Y0351717D03*
X0328378Y0358217D03*
X0323878Y0358217D03*
X0319378Y0358217D03*
X0314878Y0358217D03*
X0310378Y0358217D03*
X0305878Y0358217D03*
X0301378Y0358217D03*
X0296878Y0358217D03*
X0296878Y0353717D03*
X0301378Y0353467D03*
X0297828Y0364067D03*
X0282828Y0364067D03*
X0272828Y0354067D03*
X0282828Y0349067D03*
X0296878Y0331217D03*
X0305128Y0323217D03*
X0311228Y0323617D03*
X0320378Y0318217D03*
X0322378Y0314467D03*
X0324378Y0310967D03*
X0323878Y0303717D03*
X0319378Y0303717D03*
X0314878Y0303717D03*
X0310378Y0303717D03*
X0305878Y0303717D03*
X0301378Y0303717D03*
X0296878Y0303717D03*
X0296878Y0308217D03*
X0296878Y0312717D03*
X0296878Y0317217D03*
X0291028Y0310167D03*
X0287028Y0309767D03*
X0277828Y0314067D03*
X0274228Y0317667D03*
X0282778Y0317667D03*
X0262828Y0319067D03*
X0262828Y0309067D03*
X0270778Y0304367D03*
X0251428Y0325967D03*
X0247178Y0326167D03*
X0243128Y0325567D03*
X0238228Y0326217D03*
X0231078Y0322667D03*
X0228028Y0316817D03*
X0233178Y0316117D03*
X0222828Y0324067D03*
X0222828Y0329067D03*
X0217578Y0330167D03*
X0214528Y0320817D03*
X0223928Y0310117D03*
X0217828Y0304067D03*
X0208678Y0288917D03*
X0187828Y0294067D03*
X0182828Y0299067D03*
X0208678Y0279167D03*
X0208428Y0269167D03*
X0301628Y0256867D03*
X0312178Y0252117D03*
X0318528Y0254117D03*
X0331978Y0256417D03*
X0340128Y0263217D03*
X0335728Y0266367D03*
X0341828Y0277517D03*
X0341628Y0282417D03*
X0339828Y0286067D03*
X0343078Y0289567D03*
X0346478Y0287067D03*
X0357178Y0284617D03*
X0368778Y0285767D03*
X0368778Y0290317D03*
X0365878Y0294867D03*
X0373628Y0300217D03*
X0373628Y0304217D03*
X0373628Y0308217D03*
X0373628Y0312217D03*
X0373628Y0316217D03*
X0373628Y0320217D03*
X0373628Y0324217D03*
X0373628Y0328217D03*
X0373628Y0332217D03*
X0373628Y0336217D03*
X0373628Y0340217D03*
X0373628Y0344217D03*
X0373628Y0348217D03*
X0369628Y0348217D03*
X0365628Y0348217D03*
X0361628Y0348217D03*
X0357628Y0348467D03*
X0354128Y0351217D03*
X0350128Y0349217D03*
X0346378Y0343217D03*
X0343378Y0339467D03*
X0348878Y0338467D03*
X0356378Y0336717D03*
X0363878Y0343717D03*
X0345378Y0357217D03*
X0345378Y0361717D03*
X0340878Y0361717D03*
X0336378Y0361717D03*
X0331878Y0361717D03*
X0327828Y0364067D03*
X0312828Y0364067D03*
X0334878Y0338967D03*
X0332878Y0326717D03*
X0344878Y0328967D03*
X0354828Y0325067D03*
X0358728Y0319017D03*
X0365878Y0316217D03*
X0365928Y0309367D03*
X0367778Y0303867D03*
X0363778Y0303867D03*
X0357628Y0299967D03*
X0353628Y0299967D03*
X0349628Y0299967D03*
X0348878Y0305217D03*
X0341878Y0304217D03*
X0337378Y0304217D03*
X0332878Y0303717D03*
X0328378Y0303717D03*
X0340378Y0310217D03*
X0339378Y0314967D03*
X0333878Y0311217D03*
X0350178Y0318267D03*
X0354728Y0312367D03*
X0366378Y0325217D03*
X0320328Y0294767D03*
X0313078Y0289617D03*
X0309478Y0296667D03*
X0330578Y0286717D03*
X0373178Y0276817D03*
X0373278Y0272517D03*
X0372828Y0259067D03*
X0372828Y0249067D03*
X0349128Y0257917D03*
X0347128Y0234217D03*
X0346878Y0224217D03*
X0346878Y0214467D03*
X0348678Y0210367D03*
X0344678Y0210367D03*
X0340678Y0210367D03*
X0336678Y0210367D03*
X0333928Y0214017D03*
X0329928Y0214017D03*
X0325928Y0214017D03*
X0321928Y0214017D03*
X0317928Y0214017D03*
X0313928Y0214017D03*
X0309928Y0210517D03*
X0305928Y0210517D03*
X0301928Y0210517D03*
X0301978Y0206217D03*
X0297978Y0204717D03*
X0293978Y0204717D03*
X0289978Y0204717D03*
X0284228Y0204717D03*
X0284228Y0200717D03*
X0284228Y0196717D03*
X0277828Y0194067D03*
X0277828Y0204067D03*
X0263078Y0199267D03*
X0253078Y0199517D03*
X0240828Y0190417D03*
X0237828Y0179067D03*
X0277828Y0179067D03*
X0291728Y0181717D03*
X0295728Y0177717D03*
X0291728Y0173717D03*
X0299728Y0173717D03*
X0303728Y0177717D03*
X0299728Y0181717D03*
X0307728Y0181717D03*
X0311728Y0185717D03*
X0315728Y0181717D03*
X0311728Y0177717D03*
X0307728Y0173717D03*
X0315728Y0173717D03*
X0323978Y0172717D03*
X0327978Y0172717D03*
X0331978Y0172717D03*
X0336378Y0172717D03*
X0340378Y0172717D03*
X0344378Y0172717D03*
X0348378Y0172717D03*
X0352378Y0172717D03*
X0356378Y0172717D03*
X0360378Y0172717D03*
X0364378Y0172717D03*
X0368378Y0172717D03*
X0372378Y0172717D03*
X0339378Y0181717D03*
X0321978Y0197217D03*
X0309978Y0200717D03*
X0321228Y0206917D03*
X0297978Y0208717D03*
X0325828Y0224717D03*
X0322928Y0229567D03*
X0352678Y0210367D03*
X0356678Y0210367D03*
X0360678Y0210367D03*
X0364678Y0210367D03*
X0368678Y0210367D03*
X0372678Y0210367D03*
X0199678Y0340317D03*
X0349878Y0361717D03*
X0353878Y0361717D03*
M02*
