G75*
%MOIN*%
%OFA0B0*%
%FSLAX24Y24*%
%IPPOS*%
%LPD*%
%AMOC8*
5,1,8,0,0,1.08239X$1,22.5*
%
%ADD10C,0.0300*%
%ADD11C,0.0396*%
%ADD12C,0.0560*%
%ADD13C,0.0680*%
%ADD14C,0.0160*%
%ADD15C,0.0280*%
D10*
X015785Y008490D02*
X016068Y008207D01*
X016635Y008207D01*
X016919Y008490D01*
X016919Y009057D01*
X016352Y009057D01*
X015785Y008490D02*
X015785Y009625D01*
X016068Y009908D01*
X016635Y009908D01*
X016919Y009625D01*
X017626Y009908D02*
X018760Y008207D01*
X018760Y009908D01*
X019468Y009908D02*
X020318Y009908D01*
X020602Y009625D01*
X020602Y008490D01*
X020318Y008207D01*
X019468Y008207D01*
X019468Y009908D01*
X017626Y009908D02*
X017626Y008207D01*
D11*
X032220Y025807D03*
X032720Y025807D03*
X032720Y026307D03*
X032720Y026807D03*
X032720Y027307D03*
X032720Y027807D03*
X032220Y027807D03*
X032220Y027307D03*
X032220Y026807D03*
X032220Y026307D03*
D12*
X034305Y019972D03*
X035305Y019972D03*
D13*
X035070Y021932D03*
X036080Y021922D03*
X037080Y021922D03*
X037080Y022922D03*
X036080Y022922D03*
X035080Y022922D03*
X035080Y023922D03*
X036080Y023922D03*
X037080Y023922D03*
X026775Y019527D03*
X025775Y019527D03*
X024775Y019527D03*
X024775Y018527D03*
X025775Y018527D03*
X026775Y018527D03*
X026775Y017527D03*
X025775Y017527D03*
X024775Y017527D03*
X020405Y026417D03*
X020405Y027417D03*
X019405Y027417D03*
X018405Y027417D03*
X018405Y026417D03*
X019405Y026417D03*
X019405Y028417D03*
X018405Y028417D03*
X020405Y028417D03*
X024030Y034397D03*
X025030Y034397D03*
X025030Y035322D03*
X024030Y035322D03*
X024030Y036247D03*
X025030Y036247D03*
X026030Y036247D03*
X026030Y035322D03*
X026030Y034397D03*
D14*
X026225Y033958D02*
X026225Y033916D01*
X026267Y033813D01*
X026346Y033734D01*
X026449Y033692D01*
X026560Y033692D01*
X026663Y033734D01*
X026742Y033813D01*
X026785Y033916D01*
X026785Y034027D01*
X026742Y034130D01*
X026663Y034209D01*
X026560Y034252D01*
X026489Y034252D01*
X026510Y034301D01*
X026510Y034492D01*
X026436Y034669D01*
X026301Y034804D01*
X026167Y034859D01*
X026301Y034915D01*
X026436Y035050D01*
X026510Y035226D01*
X026510Y035417D01*
X026436Y035594D01*
X026301Y035729D01*
X026164Y035786D01*
X026214Y035802D01*
X026281Y035836D01*
X026342Y035881D01*
X026396Y035934D01*
X026440Y035995D01*
X026474Y036062D01*
X026498Y036134D01*
X026508Y036197D01*
X026080Y036197D01*
X026080Y036297D01*
X026508Y036297D01*
X026498Y036359D01*
X026474Y036431D01*
X026440Y036498D01*
X026396Y036559D01*
X026342Y036613D01*
X026337Y036617D01*
X035470Y036617D01*
X035470Y035190D01*
X035513Y035085D01*
X035593Y035005D01*
X035698Y034962D01*
X037475Y034962D01*
X037475Y027888D01*
X037443Y027919D01*
X037340Y027962D01*
X037229Y027962D01*
X037126Y027919D01*
X037047Y027840D01*
X037005Y027737D01*
X037005Y027626D01*
X037047Y027523D01*
X037109Y027462D01*
X037057Y027410D01*
X037015Y027307D01*
X037015Y027196D01*
X037057Y027093D01*
X037136Y027014D01*
X037239Y026972D01*
X037350Y026972D01*
X037453Y027014D01*
X037475Y027036D01*
X037475Y024195D01*
X037446Y024234D01*
X037392Y024288D01*
X037331Y024332D01*
X037264Y024367D01*
X037192Y024390D01*
X037130Y024400D01*
X037130Y023972D01*
X037030Y023972D01*
X037030Y024400D01*
X036967Y024390D01*
X036895Y024367D01*
X036828Y024332D01*
X036767Y024288D01*
X036713Y024234D01*
X036669Y024173D01*
X036635Y024106D01*
X036611Y024034D01*
X036601Y023972D01*
X037030Y023972D01*
X037030Y023872D01*
X037130Y023872D01*
X037130Y023444D01*
X037192Y023453D01*
X037264Y023477D01*
X037331Y023511D01*
X037392Y023556D01*
X037446Y023609D01*
X037475Y023649D01*
X037475Y023195D01*
X037446Y023234D01*
X037392Y023288D01*
X037331Y023332D01*
X037264Y023367D01*
X037192Y023390D01*
X037130Y023400D01*
X037130Y022972D01*
X037030Y022972D01*
X037030Y023400D01*
X036967Y023390D01*
X036895Y023367D01*
X036828Y023332D01*
X036767Y023288D01*
X036713Y023234D01*
X036669Y023173D01*
X036635Y023106D01*
X036611Y023034D01*
X036601Y022972D01*
X037030Y022972D01*
X037030Y022872D01*
X037130Y022872D01*
X037130Y022444D01*
X037030Y022444D01*
X037030Y022872D01*
X036601Y022872D01*
X036611Y022809D01*
X036635Y022737D01*
X036669Y022670D01*
X036713Y022609D01*
X036767Y022556D01*
X036828Y022511D01*
X036895Y022477D01*
X036967Y022453D01*
X037030Y022444D01*
X037026Y022444D02*
X036181Y022444D01*
X036175Y022442D02*
X036351Y022515D01*
X036486Y022650D01*
X036560Y022826D01*
X036560Y023017D01*
X036486Y023194D01*
X036351Y023329D01*
X036175Y023402D01*
X035984Y023402D01*
X035808Y023329D01*
X035673Y023194D01*
X035600Y023017D01*
X035600Y022826D01*
X035673Y022650D01*
X035808Y022515D01*
X035984Y022442D01*
X036175Y022442D01*
X036175Y022402D02*
X035984Y022402D01*
X035808Y022329D01*
X035673Y022194D01*
X035600Y022017D01*
X035600Y021826D01*
X035673Y021650D01*
X035808Y021515D01*
X035984Y021442D01*
X036175Y021442D01*
X036351Y021515D01*
X036486Y021650D01*
X036560Y021826D01*
X036560Y022017D01*
X036486Y022194D01*
X036351Y022329D01*
X036175Y022402D01*
X035978Y022444D02*
X035181Y022444D01*
X035175Y022442D02*
X035351Y022515D01*
X035486Y022650D01*
X035560Y022826D01*
X035560Y023017D01*
X035486Y023194D01*
X035351Y023329D01*
X035175Y023402D01*
X034984Y023402D01*
X034960Y023392D01*
X034960Y023452D01*
X034984Y023442D01*
X035175Y023442D01*
X035351Y023515D01*
X035486Y023650D01*
X035560Y023826D01*
X035560Y024017D01*
X035486Y024194D01*
X035351Y024329D01*
X035175Y024402D01*
X034984Y024402D01*
X034808Y024329D01*
X034673Y024194D01*
X034600Y024017D01*
X034600Y023826D01*
X034651Y023702D01*
X034624Y023702D01*
X034521Y023659D01*
X034442Y023580D01*
X034400Y023477D01*
X034400Y023366D01*
X034442Y023263D01*
X034521Y023184D01*
X034624Y023142D01*
X034651Y023142D01*
X034600Y023017D01*
X034600Y022826D01*
X034651Y022702D01*
X034599Y022702D01*
X034496Y022659D01*
X034417Y022580D01*
X034375Y022477D01*
X034375Y022366D01*
X034417Y022263D01*
X034496Y022184D01*
X034599Y022142D01*
X034637Y022142D01*
X034590Y022027D01*
X034590Y021836D01*
X034635Y021727D01*
X034599Y021727D01*
X034496Y021684D01*
X034417Y021605D01*
X034375Y021502D01*
X034375Y021391D01*
X034417Y021288D01*
X034496Y021209D01*
X034599Y021167D01*
X034710Y021167D01*
X034813Y021209D01*
X034892Y021288D01*
X034935Y021391D01*
X034935Y021468D01*
X034974Y021452D01*
X035165Y021452D01*
X035341Y021525D01*
X035476Y021660D01*
X035550Y021836D01*
X035550Y022027D01*
X035476Y022204D01*
X035341Y022339D01*
X035165Y022412D01*
X034974Y022412D01*
X034935Y022395D01*
X034935Y022462D01*
X034984Y022442D01*
X035175Y022442D01*
X034978Y022444D02*
X034935Y022444D01*
X034631Y022127D02*
X018035Y022127D01*
X018035Y021969D02*
X020121Y021969D01*
X020042Y021890D01*
X020000Y021787D01*
X020000Y021676D01*
X020042Y021573D01*
X020121Y021494D01*
X020224Y021452D01*
X020335Y021452D01*
X020438Y021494D01*
X020517Y021573D01*
X020560Y021676D01*
X020560Y021787D01*
X020517Y021890D01*
X020438Y021969D01*
X020335Y022012D01*
X020224Y022012D01*
X020121Y021969D01*
X020009Y021810D02*
X018035Y021810D01*
X018035Y021652D02*
X020010Y021652D01*
X020124Y021493D02*
X018035Y021493D01*
X018035Y021335D02*
X034398Y021335D01*
X034375Y021493D02*
X024162Y021493D01*
X024143Y021474D02*
X024222Y021553D01*
X024265Y021656D01*
X024265Y021767D01*
X024222Y021870D01*
X024143Y021949D01*
X024040Y021992D01*
X023929Y021992D01*
X023826Y021949D01*
X023747Y021870D01*
X023705Y021767D01*
X023705Y021656D01*
X023747Y021553D01*
X023826Y021474D01*
X023929Y021432D01*
X024040Y021432D01*
X024143Y021474D01*
X024263Y021652D02*
X034464Y021652D01*
X034600Y021810D02*
X024247Y021810D01*
X024096Y021969D02*
X034590Y021969D01*
X034408Y022286D02*
X032760Y022286D01*
X032787Y022313D02*
X032830Y022416D01*
X032830Y022527D01*
X032787Y022630D01*
X032708Y022709D01*
X032605Y022752D01*
X032494Y022752D01*
X032391Y022709D01*
X032312Y022630D01*
X032270Y022527D01*
X032270Y022416D01*
X032312Y022313D01*
X032391Y022234D01*
X032494Y022192D01*
X032605Y022192D01*
X032708Y022234D01*
X032787Y022313D01*
X032830Y022444D02*
X034375Y022444D01*
X034440Y022603D02*
X032798Y022603D01*
X032301Y022603D02*
X027849Y022603D01*
X027835Y022617D02*
X027877Y022658D01*
X027920Y022761D01*
X027920Y022872D01*
X027877Y022975D01*
X027798Y023054D01*
X027695Y023097D01*
X027584Y023097D01*
X027481Y023054D01*
X027402Y022975D01*
X027360Y022872D01*
X027360Y022761D01*
X027402Y022658D01*
X027444Y022617D01*
X027402Y022575D01*
X027360Y022472D01*
X027360Y022361D01*
X027402Y022258D01*
X027481Y022179D01*
X027584Y022137D01*
X027695Y022137D01*
X027798Y022179D01*
X027877Y022258D01*
X027920Y022361D01*
X027920Y022472D01*
X027877Y022575D01*
X027835Y022617D01*
X027920Y022761D02*
X034626Y022761D01*
X034600Y022920D02*
X027900Y022920D01*
X027740Y023078D02*
X034625Y023078D01*
X034469Y023237D02*
X026010Y023237D01*
X026010Y023226D02*
X025967Y023123D01*
X025888Y023044D01*
X025785Y023002D01*
X025674Y023002D01*
X025571Y023044D01*
X025492Y023123D01*
X025450Y023226D01*
X025450Y023337D01*
X025467Y023381D01*
X025386Y023414D01*
X025307Y023493D01*
X025265Y023596D01*
X025265Y023602D01*
X025159Y023602D01*
X025056Y023644D01*
X024977Y023723D01*
X024935Y023826D01*
X024935Y023937D01*
X024977Y024040D01*
X024984Y024048D01*
X024956Y024059D01*
X024877Y024138D01*
X024835Y024241D01*
X024835Y024352D01*
X024877Y024455D01*
X024956Y024534D01*
X025059Y024577D01*
X025170Y024577D01*
X025273Y024534D01*
X025352Y024455D01*
X025395Y024352D01*
X025395Y024241D01*
X025352Y024138D01*
X025345Y024131D01*
X025373Y024119D01*
X025452Y024040D01*
X025495Y023937D01*
X025495Y023932D01*
X025600Y023932D01*
X025703Y023889D01*
X025782Y023810D01*
X025825Y023707D01*
X025825Y023596D01*
X025807Y023553D01*
X025888Y023519D01*
X025967Y023440D01*
X026010Y023337D01*
X026010Y023226D01*
X025986Y023395D02*
X027085Y023395D01*
X027096Y023384D02*
X027199Y023342D01*
X027310Y023342D01*
X027413Y023384D01*
X027492Y023463D01*
X027535Y023566D01*
X027535Y023677D01*
X027492Y023780D01*
X027413Y023859D01*
X027310Y023902D01*
X027199Y023902D01*
X027096Y023859D01*
X027017Y023780D01*
X026975Y023677D01*
X026975Y023566D01*
X027017Y023463D01*
X027096Y023384D01*
X026980Y023554D02*
X025807Y023554D01*
X025823Y023712D02*
X026989Y023712D01*
X027124Y023871D02*
X025721Y023871D01*
X025456Y024029D02*
X030460Y024029D01*
X030445Y024066D02*
X030487Y023963D01*
X030566Y023884D01*
X030669Y023842D01*
X030780Y023842D01*
X030883Y023884D01*
X030920Y023921D01*
X030927Y023903D01*
X031006Y023824D01*
X031109Y023782D01*
X031220Y023782D01*
X031323Y023824D01*
X031402Y023903D01*
X031427Y023963D01*
X031476Y023914D01*
X031579Y023872D01*
X031690Y023872D01*
X031793Y023914D01*
X031872Y023993D01*
X031915Y024096D01*
X031915Y024207D01*
X031872Y024310D01*
X031793Y024389D01*
X031690Y024432D01*
X031579Y024432D01*
X031476Y024389D01*
X031397Y024310D01*
X031372Y024250D01*
X031323Y024299D01*
X031220Y024342D01*
X031109Y024342D01*
X031006Y024299D01*
X030969Y024262D01*
X030962Y024280D01*
X030883Y024359D01*
X030780Y024402D01*
X030669Y024402D01*
X030566Y024359D01*
X030487Y024280D01*
X030445Y024177D01*
X030445Y024066D01*
X030449Y024188D02*
X025372Y024188D01*
X025395Y024346D02*
X030553Y024346D01*
X030896Y024346D02*
X031433Y024346D01*
X031836Y024346D02*
X034850Y024346D01*
X034670Y024188D02*
X031915Y024188D01*
X031887Y024029D02*
X034604Y024029D01*
X034600Y023871D02*
X032206Y023871D01*
X032203Y023874D02*
X032100Y023917D01*
X031989Y023917D01*
X031886Y023874D01*
X031807Y023795D01*
X031797Y023770D01*
X031773Y023794D01*
X031670Y023837D01*
X031559Y023837D01*
X031456Y023794D01*
X031377Y023715D01*
X031335Y023612D01*
X031335Y023501D01*
X031377Y023398D01*
X031456Y023319D01*
X031559Y023277D01*
X031670Y023277D01*
X031773Y023319D01*
X031852Y023398D01*
X031862Y023423D01*
X031886Y023399D01*
X031989Y023357D01*
X032100Y023357D01*
X032203Y023399D01*
X032282Y023478D01*
X032325Y023581D01*
X032325Y023692D01*
X032282Y023795D01*
X032203Y023874D01*
X032316Y023712D02*
X034647Y023712D01*
X034431Y023554D02*
X032313Y023554D01*
X032193Y023395D02*
X034400Y023395D01*
X034960Y023395D02*
X034968Y023395D01*
X035191Y023395D02*
X035968Y023395D01*
X035984Y023442D02*
X036175Y023442D01*
X036351Y023515D01*
X036486Y023650D01*
X036560Y023826D01*
X036560Y024017D01*
X036486Y024194D01*
X036351Y024329D01*
X036175Y024402D01*
X035984Y024402D01*
X035808Y024329D01*
X035673Y024194D01*
X035600Y024017D01*
X035600Y023826D01*
X035673Y023650D01*
X035808Y023515D01*
X035984Y023442D01*
X036191Y023395D02*
X037001Y023395D01*
X037030Y023395D02*
X037130Y023395D01*
X037158Y023395D02*
X037475Y023395D01*
X037475Y023237D02*
X037443Y023237D01*
X037130Y023237D02*
X037030Y023237D01*
X037030Y023078D02*
X037130Y023078D01*
X037030Y022920D02*
X036560Y022920D01*
X036534Y023078D02*
X036626Y023078D01*
X036716Y023237D02*
X036443Y023237D01*
X036390Y023554D02*
X036769Y023554D01*
X036767Y023556D02*
X036828Y023511D01*
X036895Y023477D01*
X036967Y023453D01*
X037030Y023444D01*
X037030Y023872D01*
X036601Y023872D01*
X036611Y023809D01*
X036635Y023737D01*
X036669Y023670D01*
X036713Y023609D01*
X036767Y023556D01*
X036648Y023712D02*
X036512Y023712D01*
X036560Y023871D02*
X036602Y023871D01*
X036611Y024029D02*
X036555Y024029D01*
X036489Y024188D02*
X036679Y024188D01*
X036855Y024346D02*
X036309Y024346D01*
X035850Y024346D02*
X035309Y024346D01*
X035489Y024188D02*
X035670Y024188D01*
X035604Y024029D02*
X035555Y024029D01*
X035560Y023871D02*
X035600Y023871D01*
X035647Y023712D02*
X035512Y023712D01*
X035390Y023554D02*
X035769Y023554D01*
X035716Y023237D02*
X035443Y023237D01*
X035534Y023078D02*
X035625Y023078D01*
X035600Y022920D02*
X035560Y022920D01*
X035533Y022761D02*
X035626Y022761D01*
X035720Y022603D02*
X035439Y022603D01*
X035394Y022286D02*
X035765Y022286D01*
X035645Y022127D02*
X035508Y022127D01*
X035550Y021969D02*
X035600Y021969D01*
X035606Y021810D02*
X035539Y021810D01*
X035468Y021652D02*
X035672Y021652D01*
X035860Y021493D02*
X035265Y021493D01*
X034911Y021335D02*
X037475Y021335D01*
X037475Y021493D02*
X037296Y021493D01*
X037264Y021477D02*
X037331Y021511D01*
X037392Y021556D01*
X037446Y021609D01*
X037475Y021649D01*
X037475Y017177D01*
X031740Y017177D01*
X031777Y017213D01*
X031820Y017316D01*
X031820Y017427D01*
X031777Y017530D01*
X031698Y017609D01*
X031595Y017652D01*
X031484Y017652D01*
X031381Y017609D01*
X031302Y017530D01*
X031260Y017427D01*
X031260Y017316D01*
X031302Y017213D01*
X031339Y017177D01*
X030940Y017177D01*
X030977Y017213D01*
X031020Y017316D01*
X031020Y017427D01*
X030977Y017530D01*
X030898Y017609D01*
X030795Y017652D01*
X030684Y017652D01*
X030581Y017609D01*
X030502Y017530D01*
X030460Y017427D01*
X030460Y017316D01*
X030502Y017213D01*
X030539Y017177D01*
X030140Y017177D01*
X030177Y017213D01*
X030220Y017316D01*
X030220Y017427D01*
X030177Y017530D01*
X030098Y017609D01*
X029995Y017652D01*
X029884Y017652D01*
X029781Y017609D01*
X029702Y017530D01*
X029660Y017427D01*
X029660Y017316D01*
X029702Y017213D01*
X029739Y017177D01*
X029340Y017177D01*
X029377Y017213D01*
X029420Y017316D01*
X029420Y017427D01*
X029377Y017530D01*
X029298Y017609D01*
X029195Y017652D01*
X029084Y017652D01*
X028981Y017609D01*
X028902Y017530D01*
X028860Y017427D01*
X028860Y017316D01*
X028902Y017213D01*
X028939Y017177D01*
X027103Y017177D01*
X027141Y017214D01*
X027185Y017275D01*
X027219Y017342D01*
X027243Y017414D01*
X027253Y017477D01*
X026825Y017477D01*
X026825Y017577D01*
X027253Y017577D01*
X027243Y017639D01*
X027219Y017711D01*
X027185Y017778D01*
X027141Y017839D01*
X027087Y017893D01*
X027026Y017937D01*
X026959Y017972D01*
X026887Y017995D01*
X026825Y018005D01*
X026825Y017577D01*
X026725Y017577D01*
X026725Y018005D01*
X026662Y017995D01*
X026590Y017972D01*
X026523Y017937D01*
X026462Y017893D01*
X026408Y017839D01*
X026364Y017778D01*
X026330Y017711D01*
X026306Y017639D01*
X026296Y017577D01*
X026725Y017577D01*
X026725Y017477D01*
X026296Y017477D01*
X026306Y017414D01*
X026330Y017342D01*
X026364Y017275D01*
X026408Y017214D01*
X026446Y017177D01*
X026103Y017177D01*
X026141Y017214D01*
X026185Y017275D01*
X026219Y017342D01*
X026243Y017414D01*
X026253Y017477D01*
X025825Y017477D01*
X025825Y017577D01*
X026253Y017577D01*
X026243Y017639D01*
X026219Y017711D01*
X026185Y017778D01*
X026141Y017839D01*
X026087Y017893D01*
X026026Y017937D01*
X025959Y017972D01*
X025887Y017995D01*
X025825Y018005D01*
X025825Y017577D01*
X025725Y017577D01*
X025725Y018005D01*
X025662Y017995D01*
X025590Y017972D01*
X025523Y017937D01*
X025462Y017893D01*
X025408Y017839D01*
X025364Y017778D01*
X025330Y017711D01*
X025306Y017639D01*
X025296Y017577D01*
X025725Y017577D01*
X025725Y017477D01*
X025296Y017477D01*
X025306Y017414D01*
X025330Y017342D01*
X025364Y017275D01*
X025408Y017214D01*
X025446Y017177D01*
X025103Y017177D01*
X025141Y017214D01*
X025185Y017275D01*
X025219Y017342D01*
X025243Y017414D01*
X025253Y017477D01*
X024825Y017477D01*
X024825Y017577D01*
X025253Y017577D01*
X025243Y017639D01*
X025219Y017711D01*
X025185Y017778D01*
X025141Y017839D01*
X025087Y017893D01*
X025026Y017937D01*
X024959Y017972D01*
X024887Y017995D01*
X024825Y018005D01*
X024825Y017577D01*
X024725Y017577D01*
X024725Y018005D01*
X024662Y017995D01*
X024590Y017972D01*
X024523Y017937D01*
X024462Y017893D01*
X024408Y017839D01*
X024364Y017778D01*
X024330Y017711D01*
X024306Y017639D01*
X024296Y017577D01*
X024725Y017577D01*
X024725Y017477D01*
X024296Y017477D01*
X024306Y017414D01*
X024330Y017342D01*
X024364Y017275D01*
X024408Y017214D01*
X024446Y017177D01*
X019590Y017177D01*
X019590Y019303D01*
X019546Y019408D01*
X019466Y019488D01*
X019361Y019532D01*
X018035Y019532D01*
X018035Y026109D01*
X018038Y026104D01*
X018092Y026051D01*
X018153Y026006D01*
X018220Y025972D01*
X018292Y025948D01*
X018355Y025939D01*
X018355Y026367D01*
X018455Y026367D01*
X018455Y026467D01*
X018883Y026467D01*
X018873Y026529D01*
X018849Y026601D01*
X018815Y026668D01*
X018771Y026729D01*
X018717Y026783D01*
X018656Y026827D01*
X018589Y026862D01*
X018517Y026885D01*
X018455Y026895D01*
X018455Y026467D01*
X018355Y026467D01*
X018355Y026895D01*
X018292Y026885D01*
X018220Y026862D01*
X018153Y026827D01*
X018092Y026783D01*
X018038Y026729D01*
X018035Y026724D01*
X018035Y027109D01*
X018038Y027104D01*
X018092Y027051D01*
X018153Y027006D01*
X018220Y026972D01*
X018292Y026948D01*
X018355Y026939D01*
X018355Y027367D01*
X018455Y027367D01*
X018455Y027467D01*
X018883Y027467D01*
X018873Y027529D01*
X018849Y027601D01*
X018815Y027668D01*
X018771Y027729D01*
X018717Y027783D01*
X018656Y027827D01*
X018589Y027862D01*
X018517Y027885D01*
X018455Y027895D01*
X018455Y027467D01*
X018355Y027467D01*
X018355Y027895D01*
X018292Y027885D01*
X018220Y027862D01*
X018153Y027827D01*
X018092Y027783D01*
X018038Y027729D01*
X018035Y027724D01*
X018035Y028109D01*
X018038Y028104D01*
X018092Y028051D01*
X018153Y028006D01*
X018220Y027972D01*
X018292Y027948D01*
X018355Y027939D01*
X018355Y028367D01*
X018455Y028367D01*
X018455Y028467D01*
X018355Y028467D01*
X018355Y028895D01*
X018292Y028885D01*
X018220Y028862D01*
X018153Y028827D01*
X018092Y028783D01*
X018038Y028729D01*
X018035Y028724D01*
X018035Y033915D01*
X018114Y033882D01*
X018225Y033882D01*
X018328Y033924D01*
X018407Y034003D01*
X018450Y034106D01*
X018450Y034217D01*
X018407Y034320D01*
X018328Y034399D01*
X018225Y034442D01*
X018114Y034442D01*
X018035Y034409D01*
X018035Y036617D01*
X023722Y036617D01*
X023717Y036613D01*
X023663Y036559D01*
X023619Y036498D01*
X023585Y036431D01*
X023561Y036359D01*
X023551Y036297D01*
X023980Y036297D01*
X023980Y036197D01*
X023551Y036197D01*
X023561Y036134D01*
X023585Y036062D01*
X023619Y035995D01*
X023663Y035934D01*
X023717Y035881D01*
X023778Y035836D01*
X023845Y035802D01*
X023895Y035786D01*
X023758Y035729D01*
X023623Y035594D01*
X023550Y035417D01*
X023550Y035226D01*
X023623Y035050D01*
X023758Y034915D01*
X023892Y034859D01*
X023758Y034804D01*
X023623Y034669D01*
X023550Y034492D01*
X023550Y034301D01*
X023603Y034172D01*
X023519Y034172D01*
X023416Y034129D01*
X023337Y034050D01*
X023295Y033947D01*
X023295Y033836D01*
X023337Y033733D01*
X023372Y033698D01*
X023351Y033689D01*
X023272Y033610D01*
X023230Y033507D01*
X023230Y033396D01*
X023272Y033293D01*
X023351Y033214D01*
X023454Y033172D01*
X023565Y033172D01*
X023668Y033214D01*
X023747Y033293D01*
X023790Y033396D01*
X023790Y033507D01*
X023747Y033610D01*
X023712Y033645D01*
X023733Y033654D01*
X023812Y033733D01*
X023855Y033836D01*
X023855Y033947D01*
X023853Y033950D01*
X023934Y033917D01*
X024125Y033917D01*
X024250Y033968D01*
X024250Y033941D01*
X024292Y033838D01*
X024371Y033759D01*
X024474Y033717D01*
X024585Y033717D01*
X024688Y033759D01*
X024767Y033838D01*
X024810Y033941D01*
X024810Y033968D01*
X024934Y033917D01*
X025125Y033917D01*
X025250Y033968D01*
X025250Y033916D01*
X025292Y033813D01*
X025371Y033734D01*
X025474Y033692D01*
X025585Y033692D01*
X025688Y033734D01*
X025767Y033813D01*
X025810Y033916D01*
X025810Y033968D01*
X025934Y033917D01*
X026125Y033917D01*
X026225Y033958D01*
X026249Y033856D02*
X025785Y033856D01*
X025600Y033698D02*
X026434Y033698D01*
X026575Y033698D02*
X029035Y033698D01*
X029020Y033667D02*
X028909Y033667D01*
X028806Y033624D01*
X028727Y033545D01*
X028685Y033442D01*
X028685Y033331D01*
X028727Y033228D01*
X028806Y033149D01*
X028909Y033107D01*
X029020Y033107D01*
X029123Y033149D01*
X029202Y033228D01*
X029245Y033331D01*
X029245Y033442D01*
X029210Y033526D01*
X029244Y033512D01*
X029355Y033512D01*
X029458Y033554D01*
X029537Y033633D01*
X029580Y033736D01*
X029580Y033847D01*
X029537Y033950D01*
X029458Y034029D01*
X029355Y034072D01*
X029244Y034072D01*
X029141Y034029D01*
X029062Y033950D01*
X029020Y033847D01*
X029020Y033736D01*
X029054Y033653D01*
X029020Y033667D01*
X029023Y033856D02*
X026760Y033856D01*
X026785Y034015D02*
X029127Y034015D01*
X029472Y034015D02*
X030177Y034015D01*
X030192Y033978D02*
X030271Y033899D01*
X030374Y033857D01*
X030485Y033857D01*
X030588Y033899D01*
X030667Y033978D01*
X030710Y034081D01*
X030710Y034192D01*
X030667Y034295D01*
X030588Y034374D01*
X030485Y034417D01*
X030374Y034417D01*
X030271Y034374D01*
X030192Y034295D01*
X030150Y034192D01*
X030150Y034081D01*
X030192Y033978D01*
X030150Y034173D02*
X026699Y034173D01*
X026510Y034332D02*
X030229Y034332D01*
X030630Y034332D02*
X032438Y034332D01*
X032474Y034317D02*
X032585Y034317D01*
X032688Y034359D01*
X032767Y034438D01*
X032810Y034541D01*
X032810Y034652D01*
X032767Y034755D01*
X032688Y034834D01*
X032585Y034877D01*
X032474Y034877D01*
X032371Y034834D01*
X032292Y034755D01*
X032250Y034652D01*
X032250Y034541D01*
X032292Y034438D01*
X032371Y034359D01*
X032474Y034317D01*
X032571Y034284D02*
X032492Y034205D01*
X032450Y034102D01*
X032450Y033991D01*
X032492Y033888D01*
X032571Y033809D01*
X032674Y033767D01*
X032785Y033767D01*
X032888Y033809D01*
X032967Y033888D01*
X033010Y033991D01*
X033010Y034102D01*
X032967Y034205D01*
X032888Y034284D01*
X032785Y034327D01*
X032674Y034327D01*
X032571Y034284D01*
X032621Y034332D02*
X036075Y034332D01*
X036075Y034316D02*
X036117Y034213D01*
X036196Y034134D01*
X036299Y034092D01*
X036410Y034092D01*
X036513Y034134D01*
X036592Y034213D01*
X036635Y034316D01*
X036635Y034427D01*
X036592Y034530D01*
X036513Y034609D01*
X036410Y034652D01*
X036299Y034652D01*
X036196Y034609D01*
X036117Y034530D01*
X036075Y034427D01*
X036075Y034316D01*
X036157Y034173D02*
X034474Y034173D01*
X034463Y034184D02*
X034360Y034227D01*
X034249Y034227D01*
X034146Y034184D01*
X034067Y034105D01*
X034025Y034002D01*
X034025Y033891D01*
X034067Y033788D01*
X034146Y033709D01*
X034249Y033667D01*
X034360Y033667D01*
X034463Y033709D01*
X034542Y033788D01*
X034575Y033867D01*
X034575Y033791D01*
X034617Y033688D01*
X034696Y033609D01*
X034799Y033567D01*
X034910Y033567D01*
X035013Y033609D01*
X035092Y033688D01*
X035135Y033791D01*
X035135Y033902D01*
X035092Y034005D01*
X035013Y034084D01*
X034910Y034127D01*
X034799Y034127D01*
X034696Y034084D01*
X034617Y034005D01*
X034585Y033927D01*
X034585Y034002D01*
X034542Y034105D01*
X034463Y034184D01*
X034579Y034015D02*
X034627Y034015D01*
X034575Y033856D02*
X034570Y033856D01*
X034613Y033698D02*
X034435Y033698D01*
X034174Y033698D02*
X033652Y033698D01*
X033613Y033659D02*
X033692Y033738D01*
X033735Y033841D01*
X033735Y033952D01*
X033692Y034055D01*
X033613Y034134D01*
X033510Y034177D01*
X033399Y034177D01*
X033296Y034134D01*
X033217Y034055D01*
X033175Y033952D01*
X033175Y033841D01*
X033217Y033738D01*
X033296Y033659D01*
X033399Y033617D01*
X033510Y033617D01*
X033613Y033659D01*
X033735Y033856D02*
X034039Y033856D01*
X034030Y034015D02*
X033709Y034015D01*
X033519Y034173D02*
X034135Y034173D01*
X033390Y034173D02*
X032980Y034173D01*
X033010Y034015D02*
X033200Y034015D01*
X033175Y033856D02*
X032935Y033856D01*
X033258Y033698D02*
X032388Y033698D01*
X032405Y033657D02*
X032362Y033760D01*
X032283Y033839D01*
X032180Y033882D01*
X032069Y033882D01*
X031966Y033839D01*
X031887Y033760D01*
X031845Y033657D01*
X031845Y033546D01*
X031887Y033443D01*
X031966Y033364D01*
X032069Y033322D01*
X032180Y033322D01*
X032283Y033364D01*
X032362Y033443D01*
X032405Y033546D01*
X032405Y033657D01*
X032402Y033539D02*
X037475Y033539D01*
X037475Y033381D02*
X032300Y033381D01*
X031950Y033381D02*
X030541Y033381D01*
X030538Y033384D02*
X030435Y033427D01*
X030324Y033427D01*
X030221Y033384D01*
X030142Y033305D01*
X030100Y033202D01*
X030100Y033091D01*
X030142Y032988D01*
X030221Y032909D01*
X030324Y032867D01*
X030435Y032867D01*
X030538Y032909D01*
X030575Y032946D01*
X030575Y032941D01*
X030617Y032838D01*
X030696Y032759D01*
X030799Y032717D01*
X030910Y032717D01*
X031013Y032759D01*
X031092Y032838D01*
X031135Y032941D01*
X031135Y033052D01*
X031092Y033155D01*
X031013Y033234D01*
X030910Y033277D01*
X030799Y033277D01*
X030696Y033234D01*
X030660Y033198D01*
X030660Y033202D01*
X030617Y033305D01*
X030538Y033384D01*
X030651Y033222D02*
X030684Y033222D01*
X030589Y032905D02*
X030528Y032905D01*
X030726Y032747D02*
X025350Y032747D01*
X025347Y032755D02*
X025268Y032834D01*
X025165Y032877D01*
X025054Y032877D01*
X024951Y032834D01*
X024907Y032790D01*
X024843Y032854D01*
X024740Y032897D01*
X024629Y032897D01*
X024526Y032854D01*
X024452Y032780D01*
X024438Y032794D01*
X024335Y032837D01*
X024224Y032837D01*
X024121Y032794D01*
X024050Y032724D01*
X024027Y032780D01*
X023948Y032859D01*
X023845Y032902D01*
X023734Y032902D01*
X023631Y032859D01*
X023552Y032780D01*
X023510Y032677D01*
X023510Y032566D01*
X023552Y032463D01*
X023631Y032384D01*
X023734Y032342D01*
X023845Y032342D01*
X023948Y032384D01*
X024019Y032455D01*
X024042Y032398D01*
X024121Y032319D01*
X024224Y032277D01*
X024335Y032277D01*
X024438Y032319D01*
X024512Y032393D01*
X024526Y032379D01*
X024629Y032337D01*
X024740Y032337D01*
X024843Y032379D01*
X024887Y032423D01*
X024951Y032359D01*
X025054Y032317D01*
X025165Y032317D01*
X025268Y032359D01*
X025347Y032438D01*
X025390Y032541D01*
X025390Y032652D01*
X025347Y032755D01*
X025390Y032588D02*
X030391Y032588D01*
X030424Y032602D02*
X030321Y032559D01*
X030242Y032480D01*
X030200Y032377D01*
X030200Y032266D01*
X030242Y032163D01*
X030321Y032084D01*
X030424Y032042D01*
X030535Y032042D01*
X030638Y032084D01*
X030717Y032163D01*
X030760Y032266D01*
X030760Y032377D01*
X030717Y032480D01*
X030638Y032559D01*
X030535Y032602D01*
X030424Y032602D01*
X030568Y032588D02*
X030920Y032588D01*
X030931Y032599D02*
X030852Y032520D01*
X030810Y032417D01*
X030810Y032306D01*
X030852Y032203D01*
X030931Y032124D01*
X031034Y032082D01*
X031145Y032082D01*
X031248Y032124D01*
X031327Y032203D01*
X031370Y032306D01*
X031370Y032417D01*
X031327Y032520D01*
X031248Y032599D01*
X031145Y032642D01*
X031034Y032642D01*
X030931Y032599D01*
X030983Y032747D02*
X034214Y032747D01*
X034217Y032738D02*
X034296Y032659D01*
X034399Y032617D01*
X034510Y032617D01*
X034613Y032659D01*
X034692Y032738D01*
X034735Y032841D01*
X034735Y032952D01*
X034692Y033055D01*
X034613Y033134D01*
X034510Y033177D01*
X034399Y033177D01*
X034296Y033134D01*
X034217Y033055D01*
X034175Y032952D01*
X034175Y032841D01*
X034217Y032738D01*
X034175Y032905D02*
X031809Y032905D01*
X031842Y032938D02*
X031763Y032859D01*
X031660Y032817D01*
X031549Y032817D01*
X031446Y032859D01*
X031367Y032938D01*
X031325Y033041D01*
X031325Y033152D01*
X031367Y033255D01*
X031446Y033334D01*
X031549Y033377D01*
X031660Y033377D01*
X031763Y033334D01*
X031842Y033255D01*
X031885Y033152D01*
X031885Y033041D01*
X031842Y032938D01*
X031885Y033064D02*
X034226Y033064D01*
X034683Y033064D02*
X037475Y033064D01*
X037475Y033222D02*
X031856Y033222D01*
X031847Y033539D02*
X029422Y033539D01*
X029564Y033698D02*
X031861Y033698D01*
X032007Y033856D02*
X029576Y033856D01*
X029245Y033381D02*
X030218Y033381D01*
X030108Y033222D02*
X029196Y033222D01*
X028733Y033222D02*
X023676Y033222D01*
X023783Y033381D02*
X028685Y033381D01*
X028725Y033539D02*
X023776Y033539D01*
X023777Y033698D02*
X025459Y033698D01*
X025274Y033856D02*
X024774Y033856D01*
X024560Y034277D02*
X024499Y034277D01*
X024510Y034301D01*
X024510Y034492D01*
X024436Y034669D01*
X024301Y034804D01*
X024167Y034859D01*
X024301Y034915D01*
X024436Y035050D01*
X024510Y035226D01*
X024510Y035417D01*
X024436Y035594D01*
X024301Y035729D01*
X024164Y035786D01*
X024214Y035802D01*
X024281Y035836D01*
X024342Y035881D01*
X024396Y035934D01*
X024440Y035995D01*
X024474Y036062D01*
X024498Y036134D01*
X024508Y036197D01*
X024080Y036197D01*
X024080Y036297D01*
X024508Y036297D01*
X024498Y036359D01*
X024474Y036431D01*
X024440Y036498D01*
X024396Y036559D01*
X024342Y036613D01*
X024337Y036617D01*
X024722Y036617D01*
X024717Y036613D01*
X024663Y036559D01*
X024619Y036498D01*
X024585Y036431D01*
X024561Y036359D01*
X024551Y036297D01*
X024980Y036297D01*
X024980Y036197D01*
X024551Y036197D01*
X024561Y036134D01*
X024585Y036062D01*
X024619Y035995D01*
X024663Y035934D01*
X024717Y035881D01*
X024778Y035836D01*
X024845Y035802D01*
X024895Y035786D01*
X024758Y035729D01*
X024623Y035594D01*
X024550Y035417D01*
X024550Y035226D01*
X024623Y035050D01*
X024758Y034915D01*
X024892Y034859D01*
X024758Y034804D01*
X024623Y034669D01*
X024550Y034492D01*
X024550Y034301D01*
X024560Y034277D01*
X024550Y034332D02*
X024510Y034332D01*
X024510Y034490D02*
X024550Y034490D01*
X024614Y034649D02*
X024445Y034649D01*
X024293Y034807D02*
X024766Y034807D01*
X024707Y034966D02*
X024352Y034966D01*
X024467Y035124D02*
X024592Y035124D01*
X024550Y035283D02*
X024510Y035283D01*
X024500Y035441D02*
X024559Y035441D01*
X024629Y035600D02*
X024430Y035600D01*
X024230Y035758D02*
X024829Y035758D01*
X024681Y035917D02*
X024378Y035917D01*
X024479Y036075D02*
X024581Y036075D01*
X024572Y036392D02*
X024487Y036392D01*
X024402Y036551D02*
X024657Y036551D01*
X024980Y036234D02*
X024080Y036234D01*
X023980Y036234D02*
X019350Y036234D01*
X019337Y036265D02*
X019258Y036344D01*
X019155Y036387D01*
X019044Y036387D01*
X018941Y036344D01*
X018862Y036265D01*
X018820Y036162D01*
X018820Y036051D01*
X018862Y035948D01*
X018941Y035869D01*
X019044Y035827D01*
X019155Y035827D01*
X019258Y035869D01*
X019337Y035948D01*
X019380Y036051D01*
X019380Y036162D01*
X019337Y036265D01*
X019380Y036075D02*
X023581Y036075D01*
X023681Y035917D02*
X022980Y035917D01*
X023002Y035895D02*
X022923Y035974D01*
X022820Y036017D01*
X022709Y036017D01*
X022606Y035974D01*
X022527Y035895D01*
X022485Y035792D01*
X022485Y035681D01*
X022527Y035578D01*
X022606Y035499D01*
X022648Y035482D01*
X022644Y035482D01*
X022541Y035439D01*
X022462Y035360D01*
X022420Y035257D01*
X022420Y035146D01*
X022462Y035043D01*
X022541Y034964D01*
X022644Y034922D01*
X022755Y034922D01*
X022858Y034964D01*
X022937Y035043D01*
X022980Y035146D01*
X022980Y035257D01*
X022937Y035360D01*
X022858Y035439D01*
X022816Y035457D01*
X022820Y035457D01*
X022923Y035499D01*
X023002Y035578D01*
X023045Y035681D01*
X023045Y035792D01*
X023002Y035895D01*
X023045Y035758D02*
X023829Y035758D01*
X023629Y035600D02*
X023011Y035600D01*
X022853Y035441D02*
X023559Y035441D01*
X023550Y035283D02*
X022969Y035283D01*
X022970Y035124D02*
X023592Y035124D01*
X023707Y034966D02*
X022860Y034966D01*
X022895Y034832D02*
X022784Y034832D01*
X022681Y034789D01*
X022602Y034710D01*
X022560Y034607D01*
X022560Y034496D01*
X022602Y034393D01*
X022654Y034342D01*
X022597Y034285D01*
X022555Y034182D01*
X022555Y034071D01*
X022597Y033968D01*
X022676Y033889D01*
X022682Y033887D01*
X022664Y033887D01*
X022561Y033844D01*
X022482Y033765D01*
X022440Y033662D01*
X022440Y033551D01*
X022482Y033448D01*
X022561Y033369D01*
X022664Y033327D01*
X022775Y033327D01*
X022878Y033369D01*
X022957Y033448D01*
X023000Y033551D01*
X023000Y033662D01*
X022957Y033765D01*
X022878Y033844D01*
X022872Y033847D01*
X022890Y033847D01*
X022993Y033889D01*
X023072Y033968D01*
X023115Y034071D01*
X023115Y034182D01*
X023072Y034285D01*
X023020Y034337D01*
X023077Y034393D01*
X023120Y034496D01*
X023120Y034607D01*
X023077Y034710D01*
X022998Y034789D01*
X022895Y034832D01*
X022954Y034807D02*
X023766Y034807D01*
X023614Y034649D02*
X023102Y034649D01*
X023117Y034490D02*
X023550Y034490D01*
X023550Y034332D02*
X023025Y034332D01*
X023115Y034173D02*
X023603Y034173D01*
X023322Y034015D02*
X023091Y034015D01*
X022913Y033856D02*
X023295Y033856D01*
X023372Y033698D02*
X022985Y033698D01*
X022995Y033539D02*
X023243Y033539D01*
X023236Y033381D02*
X022890Y033381D01*
X022550Y033381D02*
X018035Y033381D01*
X018035Y033539D02*
X022444Y033539D01*
X022454Y033698D02*
X018035Y033698D01*
X018035Y033856D02*
X022590Y033856D01*
X022578Y034015D02*
X018412Y034015D01*
X018450Y034173D02*
X022555Y034173D01*
X022644Y034332D02*
X018821Y034332D01*
X018813Y034324D02*
X018892Y034403D01*
X018935Y034506D01*
X018935Y034617D01*
X018892Y034720D01*
X018850Y034762D01*
X018897Y034808D01*
X018940Y034911D01*
X018940Y035022D01*
X018897Y035125D01*
X018818Y035204D01*
X018715Y035247D01*
X018604Y035247D01*
X018501Y035204D01*
X018422Y035125D01*
X018380Y035022D01*
X018380Y034911D01*
X018422Y034808D01*
X018464Y034767D01*
X018417Y034720D01*
X018375Y034617D01*
X018375Y034506D01*
X018417Y034403D01*
X018496Y034324D01*
X018599Y034282D01*
X018710Y034282D01*
X018813Y034324D01*
X018928Y034490D02*
X022562Y034490D01*
X022577Y034649D02*
X018922Y034649D01*
X018896Y034807D02*
X022725Y034807D01*
X022540Y034966D02*
X018940Y034966D01*
X018897Y035124D02*
X022429Y035124D01*
X022430Y035283D02*
X018035Y035283D01*
X018035Y035441D02*
X022546Y035441D01*
X022518Y035600D02*
X018035Y035600D01*
X018035Y035758D02*
X022485Y035758D01*
X022549Y035917D02*
X019306Y035917D01*
X018894Y035917D02*
X018035Y035917D01*
X018035Y036075D02*
X018820Y036075D01*
X018849Y036234D02*
X018035Y036234D01*
X018035Y036392D02*
X023572Y036392D01*
X023657Y036551D02*
X018035Y036551D01*
X018035Y035124D02*
X018422Y035124D01*
X018380Y034966D02*
X018035Y034966D01*
X018035Y034807D02*
X018423Y034807D01*
X018387Y034649D02*
X018035Y034649D01*
X018035Y034490D02*
X018381Y034490D01*
X018395Y034332D02*
X018489Y034332D01*
X018035Y033222D02*
X021534Y033222D01*
X021566Y033254D02*
X021487Y033175D01*
X021445Y033072D01*
X021445Y032961D01*
X021487Y032858D01*
X021566Y032779D01*
X021669Y032737D01*
X021780Y032737D01*
X021883Y032779D01*
X021962Y032858D01*
X022005Y032961D01*
X022005Y033072D01*
X021962Y033175D01*
X021883Y033254D01*
X021780Y033297D01*
X021669Y033297D01*
X021566Y033254D01*
X021445Y033064D02*
X018035Y033064D01*
X018035Y032905D02*
X021468Y032905D01*
X021645Y032747D02*
X018035Y032747D01*
X018035Y032588D02*
X023510Y032588D01*
X023538Y032747D02*
X021804Y032747D01*
X021981Y032905D02*
X030231Y032905D01*
X030111Y033064D02*
X022005Y033064D01*
X021915Y033222D02*
X023343Y033222D01*
X023130Y032547D02*
X023019Y032547D01*
X022916Y032504D01*
X022837Y032425D01*
X022795Y032322D01*
X022795Y032211D01*
X022837Y032108D01*
X022916Y032029D01*
X023019Y031987D01*
X023130Y031987D01*
X023233Y032029D01*
X023312Y032108D01*
X023355Y032211D01*
X023355Y032322D01*
X023312Y032425D01*
X023233Y032504D01*
X023130Y032547D01*
X023307Y032430D02*
X023586Y032430D01*
X023355Y032271D02*
X030200Y032271D01*
X030221Y032430D02*
X025339Y032430D01*
X024074Y032747D02*
X024041Y032747D01*
X024029Y032430D02*
X023994Y032430D01*
X023314Y032113D02*
X030293Y032113D01*
X030667Y032113D02*
X030959Y032113D01*
X030824Y032271D02*
X030760Y032271D01*
X030738Y032430D02*
X030815Y032430D01*
X031259Y032588D02*
X037475Y032588D01*
X037475Y032430D02*
X031364Y032430D01*
X031355Y032271D02*
X037475Y032271D01*
X037475Y032113D02*
X031220Y032113D01*
X031120Y032905D02*
X031400Y032905D01*
X031325Y033064D02*
X031130Y033064D01*
X031025Y033222D02*
X031353Y033222D01*
X030682Y034015D02*
X032450Y034015D01*
X032479Y034173D02*
X030710Y034173D01*
X030263Y035109D02*
X030342Y035188D01*
X030385Y035291D01*
X030385Y035402D01*
X030342Y035505D01*
X030263Y035584D01*
X030160Y035627D01*
X030049Y035627D01*
X029946Y035584D01*
X029867Y035505D01*
X029825Y035402D01*
X029825Y035291D01*
X029867Y035188D01*
X029946Y035109D01*
X030049Y035067D01*
X030160Y035067D01*
X030263Y035109D01*
X030278Y035124D02*
X032518Y035124D01*
X032537Y035078D02*
X032616Y034999D01*
X032719Y034957D01*
X032830Y034957D01*
X032933Y034999D01*
X033012Y035078D01*
X033055Y035181D01*
X033055Y035292D01*
X033012Y035395D01*
X032933Y035474D01*
X032830Y035517D01*
X032719Y035517D01*
X032616Y035474D01*
X032537Y035395D01*
X032495Y035292D01*
X032495Y035181D01*
X032537Y035078D01*
X032697Y034966D02*
X026352Y034966D01*
X026293Y034807D02*
X032344Y034807D01*
X032250Y034649D02*
X026445Y034649D01*
X026510Y034490D02*
X032271Y034490D01*
X032788Y034490D02*
X036101Y034490D01*
X036292Y034649D02*
X032810Y034649D01*
X032715Y034807D02*
X037475Y034807D01*
X037475Y034649D02*
X036417Y034649D01*
X036608Y034490D02*
X037475Y034490D01*
X037475Y034332D02*
X036635Y034332D01*
X036552Y034173D02*
X037475Y034173D01*
X037475Y034015D02*
X035082Y034015D01*
X035135Y033856D02*
X037475Y033856D01*
X037475Y033698D02*
X035096Y033698D01*
X034735Y032905D02*
X037475Y032905D01*
X037475Y032747D02*
X034695Y032747D01*
X034063Y031734D02*
X033960Y031777D01*
X033849Y031777D01*
X033746Y031734D01*
X033667Y031655D01*
X033625Y031552D01*
X033625Y031441D01*
X033667Y031338D01*
X033746Y031259D01*
X033817Y031230D01*
X033767Y031180D01*
X033725Y031077D01*
X033725Y030966D01*
X033767Y030863D01*
X033846Y030784D01*
X033949Y030742D01*
X034060Y030742D01*
X034163Y030784D01*
X034242Y030863D01*
X034285Y030966D01*
X034285Y031077D01*
X034242Y031180D01*
X034163Y031259D01*
X034092Y031288D01*
X034142Y031338D01*
X034185Y031441D01*
X034185Y031552D01*
X034142Y031655D01*
X034063Y031734D01*
X034149Y031637D02*
X037475Y031637D01*
X037475Y031479D02*
X034185Y031479D01*
X034124Y031320D02*
X037475Y031320D01*
X037475Y031162D02*
X034250Y031162D01*
X034285Y031003D02*
X037475Y031003D01*
X037475Y030845D02*
X034224Y030845D01*
X033786Y030845D02*
X033418Y030845D01*
X033410Y030842D02*
X033513Y030884D01*
X033592Y030963D01*
X033635Y031066D01*
X033635Y031177D01*
X033592Y031280D01*
X033513Y031359D01*
X033410Y031402D01*
X033299Y031402D01*
X033196Y031359D01*
X033117Y031280D01*
X033075Y031177D01*
X033075Y031066D01*
X033117Y030963D01*
X033196Y030884D01*
X033299Y030842D01*
X033410Y030842D01*
X033292Y030845D02*
X032528Y030845D01*
X032563Y030859D02*
X032642Y030938D01*
X032685Y031041D01*
X032685Y031152D01*
X032642Y031255D01*
X032563Y031334D01*
X032476Y031370D01*
X032485Y031391D01*
X032485Y031502D01*
X032442Y031605D01*
X032363Y031684D01*
X032260Y031727D01*
X032149Y031727D01*
X032046Y031684D01*
X031967Y031605D01*
X031925Y031502D01*
X031925Y031391D01*
X031967Y031288D01*
X032046Y031209D01*
X032133Y031173D01*
X032125Y031152D01*
X032125Y031041D01*
X032167Y030938D01*
X032246Y030859D01*
X032349Y030817D01*
X032460Y030817D01*
X032563Y030859D01*
X032669Y031003D02*
X033101Y031003D01*
X033075Y031162D02*
X032681Y031162D01*
X032577Y031320D02*
X033157Y031320D01*
X033552Y031320D02*
X033685Y031320D01*
X033635Y031162D02*
X033759Y031162D01*
X033725Y031003D02*
X033609Y031003D01*
X033625Y031479D02*
X032485Y031479D01*
X032410Y031637D02*
X033660Y031637D01*
X032281Y030845D02*
X029294Y030845D01*
X029307Y030858D02*
X029350Y030961D01*
X029350Y031072D01*
X029307Y031175D01*
X029228Y031254D01*
X029125Y031297D01*
X029014Y031297D01*
X028911Y031254D01*
X028850Y031193D01*
X028828Y031214D01*
X028725Y031257D01*
X028614Y031257D01*
X028511Y031214D01*
X028432Y031135D01*
X028390Y031032D01*
X028390Y030921D01*
X028432Y030818D01*
X028511Y030739D01*
X028614Y030697D01*
X028725Y030697D01*
X028828Y030739D01*
X028890Y030801D01*
X028911Y030779D01*
X029014Y030737D01*
X029125Y030737D01*
X029228Y030779D01*
X029307Y030858D01*
X029350Y031003D02*
X032140Y031003D01*
X032128Y031162D02*
X029313Y031162D01*
X028459Y031162D02*
X022600Y031162D01*
X022597Y031170D02*
X022518Y031249D01*
X022415Y031292D01*
X022304Y031292D01*
X022201Y031249D01*
X022122Y031170D01*
X022080Y031067D01*
X022080Y030956D01*
X022122Y030853D01*
X022201Y030774D01*
X022304Y030732D01*
X022415Y030732D01*
X022518Y030774D01*
X022597Y030853D01*
X022640Y030956D01*
X022640Y031067D01*
X022597Y031170D01*
X022640Y031003D02*
X028390Y031003D01*
X028421Y030845D02*
X025682Y030845D01*
X025717Y030810D02*
X025638Y030889D01*
X025535Y030932D01*
X025424Y030932D01*
X025321Y030889D01*
X025242Y030810D01*
X025200Y030707D01*
X025200Y030596D01*
X025242Y030493D01*
X025321Y030414D01*
X025424Y030372D01*
X025535Y030372D01*
X025638Y030414D01*
X025717Y030493D01*
X025760Y030596D01*
X025760Y030707D01*
X025717Y030810D01*
X025760Y030686D02*
X026915Y030686D01*
X026886Y030674D02*
X026807Y030595D01*
X026765Y030492D01*
X026765Y030381D01*
X026807Y030278D01*
X026886Y030199D01*
X026989Y030157D01*
X027100Y030157D01*
X027203Y030199D01*
X027282Y030278D01*
X027325Y030381D01*
X027325Y030492D01*
X027282Y030595D01*
X027203Y030674D01*
X027100Y030717D01*
X026989Y030717D01*
X026886Y030674D01*
X026779Y030528D02*
X025731Y030528D01*
X025775Y030097D02*
X025664Y030097D01*
X025561Y030054D01*
X025482Y029975D01*
X025440Y029872D01*
X025440Y029761D01*
X025482Y029658D01*
X025561Y029579D01*
X025664Y029537D01*
X025775Y029537D01*
X025878Y029579D01*
X025957Y029658D01*
X026000Y029761D01*
X026000Y029872D01*
X025957Y029975D01*
X025878Y030054D01*
X025775Y030097D01*
X025880Y030052D02*
X037475Y030052D01*
X037475Y029894D02*
X031083Y029894D01*
X031073Y029904D02*
X030970Y029947D01*
X030859Y029947D01*
X030756Y029904D01*
X030677Y029825D01*
X030635Y029722D01*
X030635Y029611D01*
X030677Y029508D01*
X030756Y029429D01*
X030859Y029387D01*
X030970Y029387D01*
X031073Y029429D01*
X031152Y029508D01*
X031195Y029611D01*
X031195Y029722D01*
X031152Y029825D01*
X031073Y029904D01*
X031189Y029735D02*
X031892Y029735D01*
X031841Y029714D02*
X031762Y029635D01*
X031720Y029532D01*
X031720Y029421D01*
X031762Y029318D01*
X031841Y029239D01*
X031944Y029197D01*
X032055Y029197D01*
X032158Y029239D01*
X032237Y029318D01*
X032280Y029421D01*
X032280Y029532D01*
X032237Y029635D01*
X032158Y029714D01*
X032055Y029757D01*
X031944Y029757D01*
X031841Y029714D01*
X031738Y029577D02*
X031180Y029577D01*
X031046Y029418D02*
X031721Y029418D01*
X031821Y029260D02*
X028360Y029260D01*
X028379Y029297D02*
X028490Y029297D01*
X028593Y029339D01*
X028672Y029418D01*
X028692Y029466D01*
X028774Y029432D01*
X028885Y029432D01*
X028988Y029474D01*
X029067Y029553D01*
X029110Y029656D01*
X029110Y029767D01*
X029067Y029870D01*
X028988Y029949D01*
X028885Y029992D01*
X028774Y029992D01*
X028671Y029949D01*
X028592Y029870D01*
X028572Y029823D01*
X028490Y029857D01*
X028379Y029857D01*
X028279Y029815D01*
X028277Y029820D01*
X028198Y029899D01*
X028095Y029942D01*
X027984Y029942D01*
X027881Y029899D01*
X027802Y029820D01*
X027760Y029717D01*
X027760Y029606D01*
X027802Y029503D01*
X027871Y029434D01*
X027842Y029405D01*
X027800Y029302D01*
X027800Y029191D01*
X027842Y029088D01*
X027921Y029009D01*
X028024Y028967D01*
X028135Y028967D01*
X028238Y029009D01*
X028317Y029088D01*
X028360Y029191D01*
X028360Y029302D01*
X028358Y029305D01*
X028379Y029297D01*
X028322Y029101D02*
X031029Y029101D01*
X031037Y029120D02*
X030995Y029017D01*
X030995Y028906D01*
X031037Y028803D01*
X031116Y028724D01*
X031219Y028682D01*
X031330Y028682D01*
X031433Y028724D01*
X031512Y028803D01*
X031555Y028906D01*
X031555Y029017D01*
X031512Y029120D01*
X031433Y029199D01*
X031330Y029242D01*
X031219Y029242D01*
X031116Y029199D01*
X031037Y029120D01*
X030995Y028943D02*
X029841Y028943D01*
X029795Y028962D02*
X029684Y028962D01*
X029581Y028919D01*
X029502Y028840D01*
X029460Y028737D01*
X029460Y028626D01*
X023205Y028626D01*
X023205Y028606D02*
X023162Y028503D01*
X023083Y028424D01*
X022980Y028382D01*
X022869Y028382D01*
X022766Y028424D01*
X022687Y028503D01*
X022645Y028606D01*
X022645Y028717D01*
X022687Y028820D01*
X022766Y028899D01*
X022869Y028942D01*
X022980Y028942D01*
X023083Y028899D01*
X023162Y028820D01*
X023205Y028717D01*
X023205Y028606D01*
X023126Y028467D02*
X029558Y028467D01*
X029581Y028444D02*
X029684Y028402D01*
X029795Y028402D01*
X029898Y028444D01*
X029977Y028523D01*
X030020Y028626D01*
X030020Y028737D01*
X029977Y028840D01*
X029898Y028919D01*
X029795Y028962D01*
X029638Y028943D02*
X022522Y028943D01*
X022547Y028968D02*
X022590Y029071D01*
X022590Y029182D01*
X022547Y029285D01*
X022468Y029364D01*
X022365Y029407D01*
X022254Y029407D01*
X022151Y029364D01*
X022072Y029285D01*
X022030Y029182D01*
X022030Y029071D01*
X022072Y028968D01*
X022151Y028889D01*
X022254Y028847D01*
X022365Y028847D01*
X022468Y028889D01*
X022547Y028968D01*
X022590Y029101D02*
X027837Y029101D01*
X027800Y029260D02*
X022557Y029260D01*
X022672Y028784D02*
X021093Y028784D01*
X021072Y028733D02*
X021115Y028836D01*
X021115Y028947D01*
X021072Y029050D01*
X020993Y029129D01*
X020890Y029172D01*
X020779Y029172D01*
X020676Y029129D01*
X020597Y029050D01*
X020555Y028947D01*
X020555Y028874D01*
X020500Y028897D01*
X020309Y028897D01*
X020133Y028824D01*
X019998Y028689D01*
X019925Y028512D01*
X019925Y028321D01*
X019998Y028145D01*
X020133Y028010D01*
X020309Y027937D01*
X020500Y027937D01*
X020555Y027959D01*
X020555Y027874D01*
X020500Y027897D01*
X020309Y027897D01*
X020133Y027824D01*
X019998Y027689D01*
X019925Y027512D01*
X019925Y027321D01*
X019998Y027145D01*
X020133Y027010D01*
X020309Y026937D01*
X020500Y026937D01*
X020530Y026949D01*
X020530Y026884D01*
X020500Y026897D01*
X020309Y026897D01*
X020133Y026824D01*
X019998Y026689D01*
X019925Y026512D01*
X019925Y026321D01*
X019998Y026145D01*
X020133Y026010D01*
X020309Y025937D01*
X020500Y025937D01*
X020676Y026010D01*
X020811Y026145D01*
X020885Y026321D01*
X020885Y026512D01*
X020833Y026637D01*
X020865Y026637D01*
X020968Y026679D01*
X021047Y026758D01*
X021090Y026861D01*
X021090Y026972D01*
X021047Y027075D01*
X020968Y027154D01*
X020865Y027197D01*
X020833Y027197D01*
X020885Y027321D01*
X020885Y027512D01*
X020833Y027637D01*
X020890Y027637D01*
X020993Y027679D01*
X021072Y027758D01*
X021115Y027861D01*
X021115Y027972D01*
X021072Y028075D01*
X020993Y028154D01*
X020890Y028197D01*
X020833Y028197D01*
X020885Y028321D01*
X020885Y028512D01*
X020843Y028612D01*
X020890Y028612D01*
X020993Y028654D01*
X021072Y028733D01*
X020924Y028626D02*
X022645Y028626D01*
X022723Y028467D02*
X020885Y028467D01*
X020879Y028309D02*
X022697Y028309D01*
X022704Y028312D02*
X022601Y028269D01*
X022522Y028190D01*
X022480Y028087D01*
X022480Y027976D01*
X022522Y027873D01*
X022601Y027794D01*
X022704Y027752D01*
X022815Y027752D01*
X022918Y027794D01*
X022997Y027873D01*
X023026Y027944D01*
X023086Y027884D01*
X023189Y027842D01*
X023300Y027842D01*
X023403Y027884D01*
X023482Y027963D01*
X023525Y028066D01*
X023525Y028177D01*
X023482Y028280D01*
X023403Y028359D01*
X023300Y028402D01*
X023189Y028402D01*
X023086Y028359D01*
X023007Y028280D01*
X022978Y028209D01*
X022918Y028269D01*
X022815Y028312D01*
X022704Y028312D01*
X022822Y028309D02*
X023036Y028309D01*
X023453Y028309D02*
X024067Y028309D01*
X024056Y028304D02*
X023977Y028225D01*
X023935Y028122D01*
X023935Y028011D01*
X023977Y027908D01*
X024056Y027829D01*
X024159Y027787D01*
X024270Y027787D01*
X024373Y027829D01*
X024452Y027908D01*
X024495Y028011D01*
X024495Y028122D01*
X024452Y028225D01*
X024373Y028304D01*
X024270Y028347D01*
X024159Y028347D01*
X024056Y028304D01*
X023946Y028150D02*
X023525Y028150D01*
X023494Y027992D02*
X023943Y027992D01*
X024052Y027833D02*
X022957Y027833D01*
X022562Y027833D02*
X022347Y027833D01*
X022352Y027838D02*
X022395Y027941D01*
X022395Y028052D01*
X022352Y028155D01*
X022273Y028234D01*
X022170Y028277D01*
X022059Y028277D01*
X021956Y028234D01*
X021877Y028155D01*
X021835Y028052D01*
X021835Y027941D01*
X021877Y027838D01*
X021956Y027759D01*
X022059Y027717D01*
X022170Y027717D01*
X022273Y027759D01*
X022352Y027838D01*
X022395Y027992D02*
X022480Y027992D01*
X022506Y028150D02*
X022354Y028150D01*
X021875Y028150D02*
X020997Y028150D01*
X021107Y027992D02*
X021835Y027992D01*
X021882Y027833D02*
X021103Y027833D01*
X020982Y027675D02*
X025499Y027675D01*
X025480Y027721D02*
X025522Y027618D01*
X025601Y027539D01*
X025704Y027497D01*
X025815Y027497D01*
X025918Y027539D01*
X025923Y027544D01*
X025900Y027487D01*
X025900Y027376D01*
X025942Y027273D01*
X026021Y027194D01*
X026124Y027152D01*
X026235Y027152D01*
X026338Y027194D01*
X026417Y027273D01*
X026460Y027376D01*
X026460Y027487D01*
X026417Y027590D01*
X026338Y027669D01*
X026235Y027712D01*
X026124Y027712D01*
X026021Y027669D01*
X026016Y027664D01*
X026040Y027721D01*
X026040Y027832D01*
X025997Y027935D01*
X025918Y028014D01*
X025815Y028057D01*
X025704Y028057D01*
X025601Y028014D01*
X025522Y027935D01*
X025480Y027832D01*
X025480Y027721D01*
X025480Y027833D02*
X024377Y027833D01*
X024487Y027992D02*
X025579Y027992D01*
X025940Y027992D02*
X027624Y027992D01*
X027607Y028008D02*
X027686Y027929D01*
X027789Y027887D01*
X027900Y027887D01*
X028003Y027929D01*
X028014Y027940D01*
X028037Y027883D01*
X028116Y027804D01*
X028219Y027762D01*
X028330Y027762D01*
X028433Y027804D01*
X028512Y027883D01*
X028555Y027986D01*
X028555Y028097D01*
X028512Y028200D01*
X028433Y028279D01*
X028330Y028322D01*
X028219Y028322D01*
X028116Y028279D01*
X028105Y028269D01*
X028082Y028325D01*
X028003Y028404D01*
X027900Y028447D01*
X027789Y028447D01*
X027686Y028404D01*
X027607Y028325D01*
X027565Y028222D01*
X027565Y028111D01*
X027607Y028008D01*
X027565Y028150D02*
X024483Y028150D01*
X024362Y028309D02*
X027600Y028309D01*
X028089Y028309D02*
X028187Y028309D01*
X028362Y028309D02*
X033854Y028309D01*
X033850Y028297D02*
X033850Y028186D01*
X033892Y028083D01*
X033971Y028004D01*
X034074Y027962D01*
X034185Y027962D01*
X034288Y028004D01*
X034367Y028083D01*
X034410Y028186D01*
X034410Y028297D01*
X034367Y028400D01*
X034288Y028479D01*
X034213Y028510D01*
X034230Y028551D01*
X034230Y028662D01*
X034224Y028677D01*
X034330Y028677D01*
X034335Y028678D01*
X034335Y028651D01*
X034377Y028548D01*
X034456Y028469D01*
X034559Y028427D01*
X034670Y028427D01*
X034773Y028469D01*
X034852Y028548D01*
X034895Y028651D01*
X034895Y028762D01*
X034852Y028865D01*
X034773Y028944D01*
X034670Y028987D01*
X034559Y028987D01*
X034555Y028985D01*
X034555Y029012D01*
X034512Y029115D01*
X034433Y029194D01*
X034330Y029237D01*
X034219Y029237D01*
X034116Y029194D01*
X034037Y029115D01*
X033995Y029012D01*
X033995Y028901D01*
X034000Y028887D01*
X033894Y028887D01*
X033791Y028844D01*
X033712Y028765D01*
X033670Y028662D01*
X033670Y028551D01*
X033712Y028448D01*
X033791Y028369D01*
X033866Y028338D01*
X033850Y028297D01*
X033864Y028150D02*
X028533Y028150D01*
X028555Y027992D02*
X031547Y027992D01*
X031541Y027989D02*
X031462Y027910D01*
X031420Y027807D01*
X031420Y027696D01*
X031462Y027593D01*
X031541Y027514D01*
X031644Y027472D01*
X031755Y027472D01*
X031858Y027514D01*
X031937Y027593D01*
X031942Y027606D01*
X031991Y027557D01*
X031933Y027498D01*
X031881Y027374D01*
X031881Y027239D01*
X031933Y027115D01*
X031991Y027057D01*
X031933Y026998D01*
X031881Y026874D01*
X031881Y026739D01*
X031933Y026615D01*
X031991Y026557D01*
X031933Y026498D01*
X031881Y026374D01*
X031881Y026239D01*
X031933Y026115D01*
X031991Y026057D01*
X031933Y025998D01*
X031881Y025874D01*
X031881Y025739D01*
X031907Y025679D01*
X031875Y025692D01*
X031764Y025692D01*
X031661Y025649D01*
X031582Y025570D01*
X031540Y025467D01*
X031540Y025356D01*
X031582Y025253D01*
X031661Y025174D01*
X031764Y025132D01*
X031875Y025132D01*
X031978Y025174D01*
X032057Y025253D01*
X032100Y025356D01*
X032100Y025467D01*
X032088Y025495D01*
X032152Y025469D01*
X032287Y025469D01*
X032411Y025520D01*
X032470Y025579D01*
X032528Y025520D01*
X032652Y025469D01*
X032787Y025469D01*
X032911Y025520D01*
X033006Y025615D01*
X033058Y025739D01*
X033058Y025874D01*
X033006Y025998D01*
X032948Y026057D01*
X032982Y026091D01*
X033019Y026147D01*
X033045Y026208D01*
X033058Y026273D01*
X033058Y026307D01*
X033058Y026340D01*
X033045Y026405D01*
X033019Y026467D01*
X032982Y026522D01*
X032948Y026557D01*
X032982Y026591D01*
X033019Y026647D01*
X033045Y026708D01*
X033058Y026773D01*
X033058Y026807D01*
X033058Y026840D01*
X033045Y026905D01*
X033019Y026967D01*
X032982Y027022D01*
X032948Y027057D01*
X033006Y027115D01*
X033058Y027239D01*
X033058Y027374D01*
X033006Y027498D01*
X032948Y027557D01*
X032982Y027591D01*
X033019Y027647D01*
X033045Y027708D01*
X033058Y027773D01*
X033058Y027807D01*
X033058Y027840D01*
X033045Y027905D01*
X033019Y027967D01*
X032982Y028022D01*
X032935Y028069D01*
X032880Y028106D01*
X032818Y028132D01*
X032753Y028145D01*
X032720Y028145D01*
X032720Y027807D01*
X033058Y027807D01*
X032720Y027807D01*
X032720Y027807D01*
X032720Y027807D01*
X032720Y028145D01*
X032686Y028145D01*
X032621Y028132D01*
X032559Y028106D01*
X032504Y028069D01*
X032470Y028035D01*
X032411Y028093D01*
X032287Y028145D01*
X032152Y028145D01*
X032028Y028093D01*
X031933Y027998D01*
X031908Y027939D01*
X031858Y027989D01*
X031755Y028032D01*
X031644Y028032D01*
X031541Y027989D01*
X031430Y027833D02*
X028462Y027833D01*
X028087Y027833D02*
X026039Y027833D01*
X026035Y027675D02*
X026020Y027675D01*
X025911Y027516D02*
X025862Y027516D01*
X025907Y027358D02*
X020885Y027358D01*
X020883Y027516D02*
X025657Y027516D01*
X025764Y027172D02*
X025661Y027129D01*
X025582Y027050D01*
X025540Y026947D01*
X025540Y026836D01*
X025582Y026733D01*
X025661Y026654D01*
X025667Y026652D01*
X025644Y026652D01*
X025541Y026609D01*
X025462Y026530D01*
X025420Y026427D01*
X025420Y026316D01*
X025462Y026213D01*
X025541Y026134D01*
X025644Y026092D01*
X025755Y026092D01*
X025858Y026134D01*
X025937Y026213D01*
X025980Y026316D01*
X025980Y026427D01*
X025937Y026530D01*
X025858Y026609D01*
X025852Y026612D01*
X025875Y026612D01*
X025978Y026654D01*
X026057Y026733D01*
X026100Y026836D01*
X026100Y026947D01*
X026057Y027050D01*
X025978Y027129D01*
X025875Y027172D01*
X025764Y027172D01*
X025578Y027041D02*
X021061Y027041D01*
X021090Y026882D02*
X025540Y026882D01*
X025592Y026724D02*
X021013Y026724D01*
X020863Y026565D02*
X024127Y026565D01*
X024156Y026594D02*
X024077Y026515D01*
X024035Y026412D01*
X024035Y026301D01*
X024077Y026198D01*
X024156Y026119D01*
X024259Y026077D01*
X024310Y026077D01*
X024310Y025991D01*
X024352Y025888D01*
X024431Y025809D01*
X024534Y025767D01*
X024645Y025767D01*
X024748Y025809D01*
X024827Y025888D01*
X024870Y025991D01*
X024870Y026102D01*
X024827Y026205D01*
X024748Y026284D01*
X024645Y026327D01*
X024595Y026327D01*
X024595Y026412D01*
X024552Y026515D01*
X024473Y026594D01*
X024370Y026637D01*
X024259Y026637D01*
X024156Y026594D01*
X024035Y026407D02*
X020885Y026407D01*
X020854Y026248D02*
X024056Y026248D01*
X024227Y026090D02*
X020756Y026090D01*
X020053Y026090D02*
X019756Y026090D01*
X019811Y026145D02*
X019885Y026321D01*
X019885Y026512D01*
X019811Y026689D01*
X019676Y026824D01*
X019500Y026897D01*
X019309Y026897D01*
X019133Y026824D01*
X018998Y026689D01*
X018925Y026512D01*
X018925Y026321D01*
X018998Y026145D01*
X019133Y026010D01*
X019309Y025937D01*
X019500Y025937D01*
X019676Y026010D01*
X019811Y026145D01*
X019854Y026248D02*
X019955Y026248D01*
X019925Y026407D02*
X019885Y026407D01*
X019863Y026565D02*
X019946Y026565D01*
X020033Y026724D02*
X019776Y026724D01*
X019535Y026882D02*
X020274Y026882D01*
X020102Y027041D02*
X019707Y027041D01*
X019676Y027010D02*
X019811Y027145D01*
X019885Y027321D01*
X019885Y027512D01*
X019811Y027689D01*
X019676Y027824D01*
X019500Y027897D01*
X019309Y027897D01*
X019133Y027824D01*
X018998Y027689D01*
X018925Y027512D01*
X018925Y027321D01*
X018998Y027145D01*
X019133Y027010D01*
X019309Y026937D01*
X019500Y026937D01*
X019676Y027010D01*
X019834Y027199D02*
X019975Y027199D01*
X019925Y027358D02*
X019885Y027358D01*
X019883Y027516D02*
X019926Y027516D01*
X019992Y027675D02*
X019817Y027675D01*
X019653Y027833D02*
X020156Y027833D01*
X020176Y027992D02*
X019633Y027992D01*
X019676Y028010D02*
X019811Y028145D01*
X019885Y028321D01*
X019885Y028512D01*
X019811Y028689D01*
X019676Y028824D01*
X019500Y028897D01*
X019309Y028897D01*
X019133Y028824D01*
X018998Y028689D01*
X018925Y028512D01*
X018925Y028321D01*
X018998Y028145D01*
X019133Y028010D01*
X019309Y027937D01*
X019500Y027937D01*
X019676Y028010D01*
X019814Y028150D02*
X019995Y028150D01*
X019930Y028309D02*
X019879Y028309D01*
X019885Y028467D02*
X019925Y028467D01*
X019972Y028626D02*
X019837Y028626D01*
X019716Y028784D02*
X020093Y028784D01*
X020555Y028943D02*
X018035Y028943D01*
X018035Y029101D02*
X020648Y029101D01*
X021021Y029101D02*
X022030Y029101D01*
X022062Y029260D02*
X018035Y029260D01*
X018035Y029418D02*
X023265Y029418D01*
X023226Y029434D02*
X023329Y029392D01*
X023440Y029392D01*
X023543Y029434D01*
X023622Y029513D01*
X023665Y029616D01*
X023665Y029727D01*
X023622Y029830D01*
X023543Y029909D01*
X023440Y029952D01*
X023329Y029952D01*
X023226Y029909D01*
X023147Y029830D01*
X023105Y029727D01*
X023105Y029616D01*
X023147Y029513D01*
X023226Y029434D01*
X023121Y029577D02*
X018035Y029577D01*
X018035Y029735D02*
X020151Y029735D01*
X020152Y029733D02*
X020231Y029654D01*
X020334Y029612D01*
X020445Y029612D01*
X020548Y029654D01*
X020627Y029733D01*
X020670Y029836D01*
X020670Y029947D01*
X020627Y030050D01*
X020548Y030129D01*
X020445Y030172D01*
X020334Y030172D01*
X020231Y030129D01*
X020152Y030050D01*
X020110Y029947D01*
X020110Y029836D01*
X020152Y029733D01*
X020110Y029894D02*
X018035Y029894D01*
X018035Y030052D02*
X020154Y030052D01*
X020060Y030217D02*
X020163Y030259D01*
X020242Y030338D01*
X020285Y030441D01*
X020285Y030552D01*
X020242Y030655D01*
X020163Y030734D01*
X020060Y030777D01*
X019949Y030777D01*
X019846Y030734D01*
X019767Y030655D01*
X019725Y030552D01*
X019725Y030441D01*
X019767Y030338D01*
X019846Y030259D01*
X019949Y030217D01*
X020060Y030217D01*
X020255Y030369D02*
X020330Y030369D01*
X020332Y030363D02*
X020411Y030284D01*
X020514Y030242D01*
X020625Y030242D01*
X020728Y030284D01*
X020807Y030363D01*
X020850Y030466D01*
X020850Y030577D01*
X020807Y030680D01*
X020728Y030759D01*
X020625Y030802D01*
X020514Y030802D01*
X020411Y030759D01*
X020332Y030680D01*
X020290Y030577D01*
X020290Y030466D01*
X020332Y030363D01*
X020290Y030528D02*
X020285Y030528D01*
X020338Y030686D02*
X020211Y030686D01*
X019798Y030686D02*
X018035Y030686D01*
X018035Y030528D02*
X019725Y030528D01*
X019754Y030369D02*
X018035Y030369D01*
X018035Y030211D02*
X026875Y030211D01*
X026769Y030369D02*
X020809Y030369D01*
X020850Y030528D02*
X025228Y030528D01*
X025200Y030686D02*
X020801Y030686D01*
X020934Y030182D02*
X020831Y030139D01*
X020752Y030060D01*
X020710Y029957D01*
X020710Y029846D01*
X020752Y029743D01*
X020831Y029664D01*
X020934Y029622D01*
X021045Y029622D01*
X021148Y029664D01*
X021227Y029743D01*
X021238Y029770D01*
X021247Y029748D01*
X021326Y029669D01*
X021429Y029627D01*
X021540Y029627D01*
X021643Y029669D01*
X021722Y029748D01*
X021765Y029851D01*
X021765Y029962D01*
X021722Y030065D01*
X021643Y030144D01*
X021540Y030187D01*
X021429Y030187D01*
X021326Y030144D01*
X021247Y030065D01*
X021236Y030038D01*
X021227Y030060D01*
X021148Y030139D01*
X021045Y030182D01*
X020934Y030182D01*
X020749Y030052D02*
X020625Y030052D01*
X020670Y029894D02*
X020710Y029894D01*
X020760Y029735D02*
X020628Y029735D01*
X021219Y029735D02*
X021260Y029735D01*
X021242Y030052D02*
X021230Y030052D01*
X021727Y030052D02*
X025559Y030052D01*
X025448Y029894D02*
X023558Y029894D01*
X023661Y029735D02*
X025450Y029735D01*
X025567Y029577D02*
X023648Y029577D01*
X023504Y029418D02*
X027855Y029418D01*
X027772Y029577D02*
X025872Y029577D01*
X025989Y029735D02*
X027767Y029735D01*
X027876Y029894D02*
X025991Y029894D01*
X025277Y030845D02*
X022589Y030845D01*
X022131Y030845D02*
X018035Y030845D01*
X018035Y031003D02*
X022080Y031003D01*
X022119Y031162D02*
X018035Y031162D01*
X018035Y031320D02*
X031954Y031320D01*
X031925Y031479D02*
X023533Y031479D01*
X023522Y031453D02*
X023565Y031556D01*
X023565Y031667D01*
X023522Y031770D01*
X023443Y031849D01*
X023340Y031892D01*
X023229Y031892D01*
X023126Y031849D01*
X023047Y031770D01*
X023042Y031757D01*
X023007Y031840D01*
X022928Y031919D01*
X022825Y031962D01*
X022714Y031962D01*
X022611Y031919D01*
X022532Y031840D01*
X022490Y031737D01*
X022490Y031626D01*
X022532Y031523D01*
X022611Y031444D01*
X022714Y031402D01*
X022825Y031402D01*
X022928Y031444D01*
X023007Y031523D01*
X023013Y031537D01*
X023047Y031453D01*
X023126Y031374D01*
X023229Y031332D01*
X023340Y031332D01*
X023443Y031374D01*
X023522Y031453D01*
X023565Y031637D02*
X031999Y031637D01*
X030746Y029894D02*
X029043Y029894D01*
X029110Y029735D02*
X030640Y029735D01*
X030649Y029577D02*
X029077Y029577D01*
X028672Y029418D02*
X030783Y029418D01*
X031520Y029101D02*
X034031Y029101D01*
X033995Y028943D02*
X033102Y028943D01*
X033080Y028952D02*
X032969Y028952D01*
X032866Y028909D01*
X032787Y028830D01*
X032745Y028727D01*
X032745Y028616D01*
X032787Y028513D01*
X032866Y028434D01*
X032969Y028392D01*
X033080Y028392D01*
X033183Y028434D01*
X033262Y028513D01*
X033305Y028616D01*
X033305Y028727D01*
X033262Y028830D01*
X033183Y028909D01*
X033080Y028952D01*
X032947Y028943D02*
X031555Y028943D01*
X031493Y028784D02*
X032768Y028784D01*
X032745Y028626D02*
X030019Y028626D01*
X030000Y028784D02*
X031056Y028784D01*
X031852Y027992D02*
X031930Y027992D01*
X031951Y027516D02*
X031860Y027516D01*
X031881Y027358D02*
X031215Y027358D01*
X031215Y027377D02*
X031172Y027480D01*
X031093Y027559D01*
X030990Y027602D01*
X030879Y027602D01*
X030776Y027559D01*
X030697Y027480D01*
X030655Y027377D01*
X030655Y027266D01*
X030697Y027163D01*
X030776Y027084D01*
X030879Y027042D01*
X030990Y027042D01*
X031093Y027084D01*
X031172Y027163D01*
X031215Y027266D01*
X031215Y027377D01*
X031136Y027516D02*
X031539Y027516D01*
X031428Y027675D02*
X026324Y027675D01*
X026448Y027516D02*
X030733Y027516D01*
X030655Y027358D02*
X029380Y027358D01*
X029367Y027390D02*
X029288Y027469D01*
X029185Y027512D01*
X029074Y027512D01*
X028971Y027469D01*
X028892Y027390D01*
X028876Y027350D01*
X028800Y027382D01*
X028689Y027382D01*
X028586Y027339D01*
X028507Y027260D01*
X028465Y027157D01*
X028465Y027046D01*
X028507Y026943D01*
X028586Y026864D01*
X028689Y026822D01*
X028800Y026822D01*
X028903Y026864D01*
X028982Y026943D01*
X028998Y026983D01*
X029074Y026952D01*
X029185Y026952D01*
X029288Y026994D01*
X029367Y027073D01*
X029410Y027176D01*
X029410Y027287D01*
X029367Y027390D01*
X029410Y027199D02*
X029946Y027199D01*
X029867Y027120D01*
X029825Y027017D01*
X029825Y026906D01*
X029867Y026803D01*
X029946Y026724D01*
X029957Y026720D01*
X029912Y026675D01*
X029870Y026572D01*
X029870Y026461D01*
X029912Y026358D01*
X029991Y026279D01*
X030094Y026237D01*
X030205Y026237D01*
X030308Y026279D01*
X030387Y026358D01*
X030399Y026387D01*
X030417Y026343D01*
X030496Y026264D01*
X030599Y026222D01*
X030710Y026222D01*
X030813Y026264D01*
X030892Y026343D01*
X030935Y026446D01*
X030935Y026557D01*
X030892Y026660D01*
X030813Y026739D01*
X030710Y026782D01*
X030599Y026782D01*
X030496Y026739D01*
X030417Y026660D01*
X030405Y026631D01*
X030387Y026675D01*
X030308Y026754D01*
X030297Y026759D01*
X030342Y026803D01*
X030385Y026906D01*
X030385Y027017D01*
X030342Y027120D01*
X030263Y027199D01*
X030160Y027242D01*
X030049Y027242D01*
X029946Y027199D01*
X029834Y027041D02*
X029335Y027041D01*
X029028Y026769D02*
X028925Y026812D01*
X028814Y026812D01*
X028711Y026769D01*
X028632Y026690D01*
X028590Y026587D01*
X028590Y026476D01*
X028632Y026373D01*
X028711Y026294D01*
X028814Y026252D01*
X028925Y026252D01*
X029028Y026294D01*
X029107Y026373D01*
X029150Y026476D01*
X029150Y026587D01*
X029107Y026690D01*
X029028Y026769D01*
X029073Y026724D02*
X029947Y026724D01*
X029870Y026565D02*
X029150Y026565D01*
X029121Y026407D02*
X029892Y026407D01*
X030066Y026248D02*
X025951Y026248D01*
X025980Y026407D02*
X028618Y026407D01*
X028590Y026565D02*
X025902Y026565D01*
X026048Y026724D02*
X028666Y026724D01*
X028568Y026882D02*
X026100Y026882D01*
X026061Y027041D02*
X028467Y027041D01*
X028482Y027199D02*
X026343Y027199D01*
X026452Y027358D02*
X028631Y027358D01*
X028858Y027358D02*
X028879Y027358D01*
X028921Y026882D02*
X029834Y026882D01*
X030338Y026724D02*
X030481Y026724D01*
X030375Y026882D02*
X031885Y026882D01*
X031888Y026724D02*
X030828Y026724D01*
X030931Y026565D02*
X031983Y026565D01*
X031895Y026407D02*
X030918Y026407D01*
X030774Y026248D02*
X031881Y026248D01*
X031958Y026090D02*
X024870Y026090D01*
X024845Y025931D02*
X025501Y025931D01*
X025514Y025937D02*
X025411Y025894D01*
X025332Y025815D01*
X025290Y025712D01*
X025290Y025601D01*
X025332Y025498D01*
X025411Y025419D01*
X025514Y025377D01*
X025625Y025377D01*
X025728Y025419D01*
X025807Y025498D01*
X025850Y025601D01*
X025850Y025712D01*
X025807Y025815D01*
X025728Y025894D01*
X025625Y025937D01*
X025514Y025937D01*
X025638Y025931D02*
X028999Y025931D01*
X029049Y025952D02*
X028946Y025909D01*
X028867Y025830D01*
X028825Y025727D01*
X028825Y025616D01*
X028867Y025513D01*
X028946Y025434D01*
X029049Y025392D01*
X029160Y025392D01*
X029263Y025434D01*
X029342Y025513D01*
X029385Y025616D01*
X029385Y025727D01*
X029342Y025830D01*
X029263Y025909D01*
X029160Y025952D01*
X029049Y025952D01*
X029210Y025931D02*
X031905Y025931D01*
X031881Y025773D02*
X029366Y025773D01*
X029384Y025614D02*
X031626Y025614D01*
X031540Y025456D02*
X029285Y025456D01*
X028925Y025456D02*
X025765Y025456D01*
X025850Y025614D02*
X028825Y025614D01*
X028843Y025773D02*
X025825Y025773D01*
X025314Y025773D02*
X024660Y025773D01*
X024519Y025773D02*
X018035Y025773D01*
X018035Y025931D02*
X024334Y025931D01*
X024595Y026407D02*
X025420Y026407D01*
X025448Y026248D02*
X024784Y026248D01*
X024502Y026565D02*
X025497Y026565D01*
X026016Y027199D02*
X020834Y027199D01*
X019274Y026882D02*
X018525Y026882D01*
X018517Y026948D02*
X018589Y026972D01*
X018656Y027006D01*
X018717Y027051D01*
X018771Y027104D01*
X018815Y027165D01*
X018849Y027232D01*
X018873Y027304D01*
X018883Y027367D01*
X018455Y027367D01*
X018455Y026939D01*
X018517Y026948D01*
X018455Y026882D02*
X018355Y026882D01*
X018284Y026882D02*
X018035Y026882D01*
X018035Y027041D02*
X018105Y027041D01*
X018355Y027041D02*
X018455Y027041D01*
X018455Y027199D02*
X018355Y027199D01*
X018355Y027358D02*
X018455Y027358D01*
X018455Y027516D02*
X018355Y027516D01*
X018355Y027675D02*
X018455Y027675D01*
X018455Y027833D02*
X018355Y027833D01*
X018455Y027939D02*
X018517Y027948D01*
X018589Y027972D01*
X018656Y028006D01*
X018717Y028051D01*
X018771Y028104D01*
X018815Y028165D01*
X018849Y028232D01*
X018873Y028304D01*
X018883Y028367D01*
X018455Y028367D01*
X018455Y027939D01*
X018455Y027992D02*
X018355Y027992D01*
X018355Y028150D02*
X018455Y028150D01*
X018455Y028309D02*
X018355Y028309D01*
X018355Y028467D02*
X018455Y028467D01*
X018883Y028467D01*
X018873Y028529D01*
X018849Y028601D01*
X018815Y028668D01*
X018771Y028729D01*
X018717Y028783D01*
X018656Y028827D01*
X018589Y028862D01*
X018517Y028885D01*
X018455Y028895D01*
X018455Y028467D01*
X018455Y028626D02*
X018355Y028626D01*
X018355Y028784D02*
X018455Y028784D01*
X018715Y028784D02*
X019093Y028784D01*
X018972Y028626D02*
X018837Y028626D01*
X018882Y028467D02*
X018925Y028467D01*
X018930Y028309D02*
X018873Y028309D01*
X018804Y028150D02*
X018995Y028150D01*
X019176Y027992D02*
X018628Y027992D01*
X018644Y027833D02*
X019156Y027833D01*
X018992Y027675D02*
X018810Y027675D01*
X018875Y027516D02*
X018926Y027516D01*
X018925Y027358D02*
X018881Y027358D01*
X018832Y027199D02*
X018975Y027199D01*
X019102Y027041D02*
X018704Y027041D01*
X018775Y026724D02*
X019033Y026724D01*
X018946Y026565D02*
X018861Y026565D01*
X018925Y026407D02*
X018455Y026407D01*
X018455Y026367D02*
X018883Y026367D01*
X018873Y026304D01*
X018849Y026232D01*
X018815Y026165D01*
X018771Y026104D01*
X018717Y026051D01*
X018656Y026006D01*
X018589Y025972D01*
X018517Y025948D01*
X018455Y025939D01*
X018455Y026367D01*
X018455Y026248D02*
X018355Y026248D01*
X018355Y026090D02*
X018455Y026090D01*
X018756Y026090D02*
X019053Y026090D01*
X018955Y026248D02*
X018854Y026248D01*
X018455Y026565D02*
X018355Y026565D01*
X018355Y026724D02*
X018455Y026724D01*
X018053Y026090D02*
X018035Y026090D01*
X018035Y025614D02*
X025290Y025614D01*
X025375Y025456D02*
X018035Y025456D01*
X018035Y025297D02*
X031564Y025297D01*
X031747Y025139D02*
X018035Y025139D01*
X018035Y024980D02*
X037475Y024980D01*
X037475Y024822D02*
X018035Y024822D01*
X018035Y024663D02*
X037475Y024663D01*
X037475Y024505D02*
X025302Y024505D01*
X024927Y024505D02*
X018035Y024505D01*
X018035Y024346D02*
X023245Y024346D01*
X023247Y024350D02*
X023205Y024247D01*
X023205Y024136D01*
X023247Y024033D01*
X023326Y023954D01*
X023429Y023912D01*
X023540Y023912D01*
X023643Y023954D01*
X023722Y024033D01*
X023765Y024136D01*
X023765Y024247D01*
X023722Y024350D01*
X023643Y024429D01*
X023540Y024472D01*
X023429Y024472D01*
X023326Y024429D01*
X023247Y024350D01*
X023205Y024188D02*
X018035Y024188D01*
X018035Y024029D02*
X023251Y024029D01*
X023128Y023784D02*
X023025Y023827D01*
X022914Y023827D01*
X022811Y023784D01*
X022732Y023705D01*
X022690Y023602D01*
X022690Y023491D01*
X022732Y023388D01*
X022811Y023309D01*
X022914Y023267D01*
X023025Y023267D01*
X023128Y023309D01*
X023207Y023388D01*
X023250Y023491D01*
X023250Y023602D01*
X023207Y023705D01*
X023128Y023784D01*
X023200Y023712D02*
X024988Y023712D01*
X024935Y023871D02*
X018035Y023871D01*
X018035Y023712D02*
X022739Y023712D01*
X022690Y023554D02*
X018035Y023554D01*
X018035Y023395D02*
X022729Y023395D01*
X023210Y023395D02*
X025432Y023395D01*
X025450Y023237D02*
X018035Y023237D01*
X018035Y023078D02*
X025537Y023078D01*
X025922Y023078D02*
X027539Y023078D01*
X027379Y022920D02*
X018035Y022920D01*
X018035Y022761D02*
X027360Y022761D01*
X027430Y022603D02*
X018035Y022603D01*
X018035Y022444D02*
X027360Y022444D01*
X027391Y022286D02*
X018035Y022286D01*
X018035Y021176D02*
X023073Y021176D01*
X023074Y021177D02*
X022971Y021134D01*
X022892Y021055D01*
X022850Y020952D01*
X022850Y020841D01*
X022892Y020738D01*
X022971Y020659D01*
X023074Y020617D01*
X023185Y020617D01*
X023288Y020659D01*
X023367Y020738D01*
X023410Y020841D01*
X023410Y020952D01*
X023367Y021055D01*
X023288Y021134D01*
X023185Y021177D01*
X023074Y021177D01*
X023186Y021176D02*
X034576Y021176D01*
X034733Y021176D02*
X037475Y021176D01*
X037475Y021018D02*
X023382Y021018D01*
X023410Y020859D02*
X030006Y020859D01*
X029927Y020780D01*
X029885Y020677D01*
X029885Y020566D01*
X029927Y020463D01*
X030006Y020384D01*
X030109Y020342D01*
X030220Y020342D01*
X030323Y020384D01*
X030402Y020463D01*
X030445Y020566D01*
X030445Y020677D01*
X030402Y020780D01*
X030323Y020859D01*
X030220Y020902D01*
X030109Y020902D01*
X030006Y020859D01*
X029894Y020701D02*
X023329Y020701D01*
X022930Y020701D02*
X018035Y020701D01*
X018035Y020859D02*
X022850Y020859D01*
X022877Y021018D02*
X018035Y021018D01*
X018035Y020542D02*
X029894Y020542D01*
X030007Y020384D02*
X018035Y020384D01*
X018035Y020225D02*
X025203Y020225D01*
X025219Y020232D02*
X025116Y020189D01*
X025037Y020110D01*
X024995Y020007D01*
X024995Y019955D01*
X024870Y020007D01*
X024679Y020007D01*
X024503Y019934D01*
X024368Y019799D01*
X024295Y019622D01*
X024295Y019431D01*
X024368Y019255D01*
X024503Y019120D01*
X024679Y019047D01*
X024870Y019047D01*
X025046Y019120D01*
X025181Y019255D01*
X025255Y019431D01*
X025255Y019622D01*
X025234Y019672D01*
X025315Y019672D01*
X025295Y019622D01*
X025295Y019431D01*
X025368Y019255D01*
X025503Y019120D01*
X025679Y019047D01*
X025870Y019047D01*
X026046Y019120D01*
X026181Y019255D01*
X026255Y019431D01*
X026255Y019622D01*
X026244Y019647D01*
X026305Y019647D01*
X026295Y019622D01*
X026295Y019431D01*
X026368Y019255D01*
X026503Y019120D01*
X026679Y019047D01*
X026870Y019047D01*
X027046Y019120D01*
X027181Y019255D01*
X027255Y019431D01*
X027255Y019622D01*
X027181Y019799D01*
X027046Y019934D01*
X026870Y020007D01*
X026679Y020007D01*
X026555Y019955D01*
X026555Y019982D01*
X026512Y020085D01*
X026433Y020164D01*
X026330Y020207D01*
X026219Y020207D01*
X026116Y020164D01*
X026037Y020085D01*
X025995Y019982D01*
X025995Y019955D01*
X025870Y020007D01*
X025679Y020007D01*
X025555Y019955D01*
X025555Y020007D01*
X025512Y020110D01*
X025433Y020189D01*
X025330Y020232D01*
X025219Y020232D01*
X025346Y020225D02*
X033970Y020225D01*
X033984Y020245D02*
X033945Y020192D01*
X033915Y020133D01*
X033895Y020070D01*
X033885Y020005D01*
X033885Y019992D01*
X034285Y019992D01*
X034285Y020392D01*
X034271Y020392D01*
X034206Y020381D01*
X034143Y020361D01*
X034084Y020331D01*
X034031Y020292D01*
X033984Y020245D01*
X033894Y020067D02*
X026520Y020067D01*
X026029Y020067D02*
X025530Y020067D01*
X025019Y020067D02*
X018035Y020067D01*
X018035Y019908D02*
X024477Y019908D01*
X024347Y019750D02*
X018035Y019750D01*
X018035Y019591D02*
X024295Y019591D01*
X024295Y019433D02*
X022031Y019433D01*
X021985Y019452D02*
X021874Y019452D01*
X021771Y019409D01*
X021692Y019330D01*
X021650Y019227D01*
X021650Y019116D01*
X021692Y019013D01*
X021771Y018934D01*
X021874Y018892D01*
X021985Y018892D01*
X022088Y018934D01*
X022167Y019013D01*
X022210Y019116D01*
X022210Y019227D01*
X022167Y019330D01*
X022088Y019409D01*
X021985Y019452D01*
X021828Y019433D02*
X019522Y019433D01*
X019590Y019274D02*
X021669Y019274D01*
X021650Y019116D02*
X019590Y019116D01*
X019590Y018957D02*
X021748Y018957D01*
X022111Y018957D02*
X023781Y018957D01*
X023770Y018986D02*
X023812Y018883D01*
X023891Y018804D01*
X023994Y018762D01*
X024105Y018762D01*
X024208Y018804D01*
X024287Y018883D01*
X024330Y018986D01*
X024330Y019097D01*
X024287Y019200D01*
X024208Y019279D01*
X024105Y019322D01*
X023994Y019322D01*
X023891Y019279D01*
X023812Y019200D01*
X023770Y019097D01*
X023770Y018986D01*
X023777Y019116D02*
X022209Y019116D01*
X022190Y019274D02*
X023886Y019274D01*
X024213Y019274D02*
X024360Y019274D01*
X024322Y019116D02*
X024512Y019116D01*
X024560Y018957D02*
X024318Y018957D01*
X024368Y018799D02*
X024195Y018799D01*
X024368Y018799D02*
X024295Y018622D01*
X024295Y018431D01*
X024368Y018255D01*
X024503Y018120D01*
X024679Y018047D01*
X024870Y018047D01*
X025046Y018120D01*
X025181Y018255D01*
X025255Y018431D01*
X025255Y018622D01*
X025181Y018799D01*
X025368Y018799D01*
X025295Y018622D01*
X025295Y018431D01*
X025368Y018255D01*
X025503Y018120D01*
X025679Y018047D01*
X025870Y018047D01*
X026046Y018120D01*
X026181Y018255D01*
X026255Y018431D01*
X026255Y018622D01*
X026181Y018799D01*
X026368Y018799D01*
X026295Y018622D01*
X026295Y018431D01*
X026368Y018255D01*
X026503Y018120D01*
X026679Y018047D01*
X026870Y018047D01*
X027046Y018120D01*
X027181Y018255D01*
X027255Y018431D01*
X027255Y018622D01*
X027181Y018799D01*
X030971Y018799D01*
X030981Y018809D02*
X030902Y018730D01*
X030860Y018627D01*
X030860Y018516D01*
X030902Y018413D01*
X030981Y018334D01*
X031084Y018292D01*
X031195Y018292D01*
X031298Y018334D01*
X031377Y018413D01*
X031420Y018516D01*
X031420Y018627D01*
X031377Y018730D01*
X031298Y018809D01*
X031195Y018852D01*
X031084Y018852D01*
X030981Y018809D01*
X030865Y018640D02*
X027247Y018640D01*
X027255Y018482D02*
X030874Y018482D01*
X030898Y018409D02*
X030795Y018452D01*
X030684Y018452D01*
X030581Y018409D01*
X030502Y018330D01*
X030460Y018227D01*
X030460Y018116D01*
X030502Y018013D01*
X030581Y017934D01*
X030684Y017892D01*
X030795Y017892D01*
X030898Y017934D01*
X030977Y018013D01*
X031020Y018116D01*
X031020Y018227D01*
X030977Y018330D01*
X030898Y018409D01*
X030980Y018323D02*
X031008Y018323D01*
X031020Y018165D02*
X031260Y018165D01*
X031260Y018116D02*
X031302Y018013D01*
X031381Y017934D01*
X031484Y017892D01*
X031595Y017892D01*
X031698Y017934D01*
X031777Y018013D01*
X031820Y018116D01*
X031820Y018227D01*
X031777Y018330D01*
X031698Y018409D01*
X031595Y018452D01*
X031484Y018452D01*
X031381Y018409D01*
X031302Y018330D01*
X031260Y018227D01*
X031260Y018116D01*
X031195Y018052D02*
X031084Y018052D01*
X030981Y018009D01*
X030902Y017930D01*
X030860Y017827D01*
X030860Y017716D01*
X030902Y017613D01*
X030981Y017534D01*
X031084Y017492D01*
X031195Y017492D01*
X031298Y017534D01*
X031377Y017613D01*
X031420Y017716D01*
X031420Y017827D01*
X031377Y017930D01*
X031298Y018009D01*
X031195Y018052D01*
X031301Y018006D02*
X031309Y018006D01*
X031411Y017848D02*
X037475Y017848D01*
X037475Y018006D02*
X034135Y018006D01*
X034142Y018013D02*
X034185Y018116D01*
X034185Y018227D01*
X034142Y018330D01*
X034063Y018409D01*
X033960Y018452D01*
X033849Y018452D01*
X033746Y018409D01*
X033667Y018330D01*
X033625Y018227D01*
X033625Y018116D01*
X033667Y018013D01*
X033746Y017934D01*
X033849Y017892D01*
X033960Y017892D01*
X034063Y017934D01*
X034142Y018013D01*
X034185Y018165D02*
X036824Y018165D01*
X036874Y018144D02*
X037055Y018144D01*
X037223Y018214D01*
X037352Y018342D01*
X037422Y018510D01*
X037422Y018692D01*
X037352Y018860D01*
X037223Y018989D01*
X037055Y019058D01*
X036874Y019058D01*
X036706Y018989D01*
X036577Y018860D01*
X036507Y018692D01*
X036507Y018510D01*
X036577Y018342D01*
X036706Y018214D01*
X036874Y018144D01*
X037105Y018165D02*
X037475Y018165D01*
X037475Y018323D02*
X037333Y018323D01*
X037410Y018482D02*
X037475Y018482D01*
X037475Y018640D02*
X037422Y018640D01*
X037378Y018799D02*
X037475Y018799D01*
X037475Y018957D02*
X037255Y018957D01*
X037475Y019116D02*
X027037Y019116D01*
X026989Y018957D02*
X036674Y018957D01*
X036552Y018799D02*
X031308Y018799D01*
X031414Y018640D02*
X036507Y018640D01*
X036519Y018482D02*
X031405Y018482D01*
X031299Y018323D02*
X031271Y018323D01*
X030978Y018006D02*
X030970Y018006D01*
X030868Y017848D02*
X030611Y017848D01*
X030620Y017827D02*
X030577Y017930D01*
X030498Y018009D01*
X030395Y018052D01*
X030284Y018052D01*
X030181Y018009D01*
X030102Y017930D01*
X030060Y017827D01*
X030060Y017716D01*
X030102Y017613D01*
X030181Y017534D01*
X030284Y017492D01*
X030395Y017492D01*
X030498Y017534D01*
X030577Y017613D01*
X030620Y017716D01*
X030620Y017827D01*
X030608Y017689D02*
X030871Y017689D01*
X030976Y017531D02*
X030990Y017531D01*
X031020Y017372D02*
X031260Y017372D01*
X031289Y017531D02*
X031303Y017531D01*
X031408Y017689D02*
X037475Y017689D01*
X037475Y017531D02*
X031776Y017531D01*
X031820Y017372D02*
X037475Y017372D01*
X037475Y017214D02*
X031777Y017214D01*
X031302Y017214D02*
X030977Y017214D01*
X030502Y017214D02*
X030177Y017214D01*
X030220Y017372D02*
X030460Y017372D01*
X030489Y017531D02*
X030503Y017531D01*
X030190Y017531D02*
X030176Y017531D01*
X030071Y017689D02*
X029808Y017689D01*
X029820Y017716D02*
X029777Y017613D01*
X029698Y017534D01*
X029595Y017492D01*
X029484Y017492D01*
X029381Y017534D01*
X029302Y017613D01*
X029260Y017716D01*
X029260Y017827D01*
X029302Y017930D01*
X029381Y018009D01*
X029484Y018052D01*
X029595Y018052D01*
X029698Y018009D01*
X029777Y017930D01*
X029820Y017827D01*
X029820Y017716D01*
X029811Y017848D02*
X030068Y017848D01*
X029995Y017892D02*
X030098Y017934D01*
X030177Y018013D01*
X030220Y018116D01*
X030220Y018227D01*
X030177Y018330D01*
X030098Y018409D01*
X029995Y018452D01*
X029884Y018452D01*
X029781Y018409D01*
X029702Y018330D01*
X029660Y018227D01*
X029660Y018116D01*
X029702Y018013D01*
X029781Y017934D01*
X029884Y017892D01*
X029995Y017892D01*
X030170Y018006D02*
X030178Y018006D01*
X030220Y018165D02*
X030460Y018165D01*
X030499Y018323D02*
X030180Y018323D01*
X030501Y018006D02*
X030509Y018006D01*
X029709Y018006D02*
X029701Y018006D01*
X029660Y018165D02*
X029420Y018165D01*
X029420Y018116D02*
X029377Y018013D01*
X029298Y017934D01*
X029195Y017892D01*
X029084Y017892D01*
X028981Y017934D01*
X028902Y018013D01*
X028860Y018116D01*
X028860Y018227D01*
X028902Y018330D01*
X028981Y018409D01*
X029084Y018452D01*
X029195Y018452D01*
X029298Y018409D01*
X029377Y018330D01*
X029420Y018227D01*
X029420Y018116D01*
X029378Y018006D02*
X029370Y018006D01*
X029268Y017848D02*
X027132Y017848D01*
X027226Y017689D02*
X029271Y017689D01*
X029376Y017531D02*
X029390Y017531D01*
X029420Y017372D02*
X029660Y017372D01*
X029689Y017531D02*
X029703Y017531D01*
X029702Y017214D02*
X029377Y017214D01*
X028902Y017214D02*
X027140Y017214D01*
X027229Y017372D02*
X028860Y017372D01*
X028903Y017531D02*
X026825Y017531D01*
X026725Y017531D02*
X025825Y017531D01*
X025725Y017531D02*
X024825Y017531D01*
X024725Y017531D02*
X019590Y017531D01*
X019590Y017689D02*
X024323Y017689D01*
X024417Y017848D02*
X019590Y017848D01*
X019590Y018006D02*
X028909Y018006D01*
X028860Y018165D02*
X027091Y018165D01*
X027210Y018323D02*
X028899Y018323D01*
X029380Y018323D02*
X029699Y018323D01*
X031780Y018323D02*
X033664Y018323D01*
X033625Y018165D02*
X031820Y018165D01*
X031770Y018006D02*
X033674Y018006D01*
X034145Y018323D02*
X036596Y018323D01*
X036874Y019325D02*
X037055Y019325D01*
X037223Y019395D01*
X037352Y019523D01*
X037422Y019691D01*
X037422Y019873D01*
X037352Y020041D01*
X037223Y020170D01*
X037055Y020239D01*
X036874Y020239D01*
X036706Y020170D01*
X036577Y020041D01*
X036507Y019873D01*
X036507Y019691D01*
X036577Y019523D01*
X036706Y019395D01*
X036874Y019325D01*
X036668Y019433D02*
X027255Y019433D01*
X027255Y019591D02*
X034126Y019591D01*
X034143Y019582D02*
X034206Y019562D01*
X034271Y019552D01*
X034285Y019552D01*
X034285Y019952D01*
X034325Y019952D01*
X034325Y019992D01*
X034725Y019992D01*
X034725Y020005D01*
X034714Y020070D01*
X034694Y020133D01*
X034664Y020192D01*
X034625Y020245D01*
X034578Y020292D01*
X034525Y020331D01*
X034466Y020361D01*
X034403Y020381D01*
X034338Y020392D01*
X034325Y020392D01*
X034325Y019992D01*
X034285Y019992D01*
X034285Y019952D01*
X033885Y019952D01*
X033885Y019939D01*
X033895Y019873D01*
X033915Y019810D01*
X033945Y019752D01*
X033984Y019698D01*
X034031Y019651D01*
X034084Y019612D01*
X034143Y019582D01*
X034285Y019591D02*
X034325Y019591D01*
X034325Y019552D02*
X034338Y019552D01*
X034403Y019562D01*
X034466Y019582D01*
X034525Y019612D01*
X034578Y019651D01*
X034625Y019698D01*
X034664Y019752D01*
X034694Y019810D01*
X034714Y019873D01*
X034725Y019939D01*
X034725Y019952D01*
X034325Y019952D01*
X034325Y019552D01*
X034483Y019591D02*
X035126Y019591D01*
X035067Y019616D02*
X035221Y019552D01*
X035388Y019552D01*
X035542Y019616D01*
X035661Y019734D01*
X035725Y019888D01*
X035725Y020055D01*
X035661Y020210D01*
X035542Y020328D01*
X035388Y020392D01*
X035221Y020392D01*
X035067Y020328D01*
X034948Y020210D01*
X034885Y020055D01*
X034885Y019888D01*
X034948Y019734D01*
X035067Y019616D01*
X034942Y019750D02*
X034662Y019750D01*
X034720Y019908D02*
X034885Y019908D01*
X034889Y020067D02*
X034715Y020067D01*
X034639Y020225D02*
X034964Y020225D01*
X035202Y020384D02*
X034388Y020384D01*
X034325Y020384D02*
X034285Y020384D01*
X034221Y020384D02*
X030322Y020384D01*
X030435Y020542D02*
X031848Y020542D01*
X031852Y020533D02*
X031931Y020454D01*
X032034Y020412D01*
X032145Y020412D01*
X032248Y020454D01*
X032327Y020533D01*
X032370Y020636D01*
X032370Y020747D01*
X032327Y020850D01*
X032248Y020929D01*
X032145Y020972D01*
X032034Y020972D01*
X031931Y020929D01*
X031852Y020850D01*
X031810Y020747D01*
X031810Y020636D01*
X031852Y020533D01*
X031810Y020701D02*
X030435Y020701D01*
X030323Y020859D02*
X031861Y020859D01*
X032318Y020859D02*
X037475Y020859D01*
X037475Y020701D02*
X032370Y020701D01*
X032331Y020542D02*
X037475Y020542D01*
X037475Y020384D02*
X035407Y020384D01*
X035645Y020225D02*
X036839Y020225D01*
X037090Y020225D02*
X037475Y020225D01*
X037475Y020067D02*
X037327Y020067D01*
X037407Y019908D02*
X037475Y019908D01*
X037475Y019750D02*
X037422Y019750D01*
X037380Y019591D02*
X037475Y019591D01*
X037475Y019433D02*
X037261Y019433D01*
X037475Y019274D02*
X027189Y019274D01*
X027046Y018934D02*
X026870Y019007D01*
X026679Y019007D01*
X026503Y018934D01*
X026368Y018799D01*
X026302Y018640D02*
X026247Y018640D01*
X026255Y018482D02*
X026295Y018482D01*
X026339Y018323D02*
X026210Y018323D01*
X026091Y018165D02*
X026458Y018165D01*
X026417Y017848D02*
X026132Y017848D01*
X026226Y017689D02*
X026323Y017689D01*
X026320Y017372D02*
X026229Y017372D01*
X026140Y017214D02*
X026409Y017214D01*
X026725Y017689D02*
X026825Y017689D01*
X026825Y017848D02*
X026725Y017848D01*
X025825Y017848D02*
X025725Y017848D01*
X025725Y017689D02*
X025825Y017689D01*
X025417Y017848D02*
X025132Y017848D01*
X025226Y017689D02*
X025323Y017689D01*
X025320Y017372D02*
X025229Y017372D01*
X025140Y017214D02*
X025409Y017214D01*
X024825Y017689D02*
X024725Y017689D01*
X024725Y017848D02*
X024825Y017848D01*
X025091Y018165D02*
X025458Y018165D01*
X025339Y018323D02*
X025210Y018323D01*
X025255Y018482D02*
X025295Y018482D01*
X025302Y018640D02*
X025247Y018640D01*
X025181Y018799D02*
X025046Y018934D01*
X024870Y019007D01*
X024679Y019007D01*
X024503Y018934D01*
X024368Y018799D01*
X024302Y018640D02*
X019590Y018640D01*
X019590Y018482D02*
X024295Y018482D01*
X024339Y018323D02*
X019590Y018323D01*
X019590Y018165D02*
X024458Y018165D01*
X023904Y018799D02*
X019590Y018799D01*
X019590Y017372D02*
X024320Y017372D01*
X024409Y017214D02*
X019590Y017214D01*
X024989Y018957D02*
X025560Y018957D01*
X025503Y018934D02*
X025679Y019007D01*
X025870Y019007D01*
X026046Y018934D01*
X026181Y018799D01*
X025989Y018957D02*
X026560Y018957D01*
X026512Y019116D02*
X026037Y019116D01*
X026189Y019274D02*
X026360Y019274D01*
X026295Y019433D02*
X026255Y019433D01*
X026255Y019591D02*
X026295Y019591D01*
X027072Y019908D02*
X033889Y019908D01*
X033947Y019750D02*
X027202Y019750D01*
X027046Y018934D02*
X027181Y018799D01*
X025503Y018934D02*
X025368Y018799D01*
X025512Y019116D02*
X025037Y019116D01*
X025189Y019274D02*
X025360Y019274D01*
X025295Y019433D02*
X025255Y019433D01*
X025255Y019591D02*
X025295Y019591D01*
X023807Y021493D02*
X020435Y021493D01*
X020549Y021652D02*
X023706Y021652D01*
X023722Y021810D02*
X020550Y021810D01*
X020438Y021969D02*
X023873Y021969D01*
X023250Y023554D02*
X025282Y023554D01*
X024973Y024029D02*
X023718Y024029D01*
X023765Y024188D02*
X024857Y024188D01*
X024835Y024346D02*
X023724Y024346D01*
X027385Y023871D02*
X030599Y023871D01*
X030850Y023871D02*
X030960Y023871D01*
X031370Y023871D02*
X031883Y023871D01*
X031896Y023395D02*
X031849Y023395D01*
X031380Y023395D02*
X027424Y023395D01*
X027529Y023554D02*
X031335Y023554D01*
X031376Y023712D02*
X027520Y023712D01*
X027920Y022444D02*
X032270Y022444D01*
X032340Y022286D02*
X027888Y022286D01*
X031892Y025139D02*
X037475Y025139D01*
X037475Y025297D02*
X032075Y025297D01*
X032100Y025456D02*
X037475Y025456D01*
X037475Y025614D02*
X035098Y025614D01*
X035117Y025633D02*
X035160Y025736D01*
X035160Y025847D01*
X035117Y025950D01*
X035038Y026029D01*
X034935Y026072D01*
X034824Y026072D01*
X034721Y026029D01*
X034642Y025950D01*
X034600Y025847D01*
X034600Y025736D01*
X034642Y025633D01*
X034721Y025554D01*
X034824Y025512D01*
X034935Y025512D01*
X035038Y025554D01*
X035117Y025633D01*
X035160Y025773D02*
X037475Y025773D01*
X037475Y025931D02*
X035125Y025931D01*
X034634Y025931D02*
X033034Y025931D01*
X033058Y025773D02*
X034600Y025773D01*
X034661Y025614D02*
X033005Y025614D01*
X032981Y026090D02*
X033816Y026090D01*
X033821Y026084D02*
X033924Y026042D01*
X034035Y026042D01*
X034138Y026084D01*
X034217Y026163D01*
X034260Y026266D01*
X034260Y026377D01*
X034217Y026480D01*
X034138Y026559D01*
X034035Y026602D01*
X033924Y026602D01*
X033821Y026559D01*
X033742Y026480D01*
X033700Y026377D01*
X033700Y026266D01*
X033742Y026163D01*
X033821Y026084D01*
X033707Y026248D02*
X033053Y026248D01*
X033058Y026307D02*
X032720Y026307D01*
X033058Y026307D01*
X033044Y026407D02*
X033712Y026407D01*
X033836Y026565D02*
X032956Y026565D01*
X033048Y026724D02*
X037475Y026724D01*
X037475Y026882D02*
X033049Y026882D01*
X033058Y026807D02*
X032720Y026807D01*
X032720Y026807D01*
X033058Y026807D01*
X032964Y027041D02*
X037110Y027041D01*
X037015Y027199D02*
X033041Y027199D01*
X033058Y027358D02*
X037035Y027358D01*
X037054Y027516D02*
X032988Y027516D01*
X033031Y027675D02*
X037005Y027675D01*
X037044Y027833D02*
X033058Y027833D01*
X033003Y027992D02*
X034001Y027992D01*
X034258Y027992D02*
X037475Y027992D01*
X037475Y028150D02*
X034395Y028150D01*
X034405Y028309D02*
X036760Y028309D01*
X036789Y028297D02*
X036900Y028297D01*
X037003Y028339D01*
X037082Y028418D01*
X037125Y028521D01*
X037125Y028632D01*
X037082Y028735D01*
X037013Y028804D01*
X037082Y028873D01*
X037125Y028976D01*
X037125Y029087D01*
X037082Y029190D01*
X037003Y029269D01*
X036900Y029312D01*
X036789Y029312D01*
X036766Y029302D01*
X036792Y029328D01*
X036835Y029431D01*
X036835Y029542D01*
X036792Y029645D01*
X036713Y029724D01*
X036610Y029767D01*
X036499Y029767D01*
X036396Y029724D01*
X036317Y029645D01*
X036275Y029542D01*
X036275Y029431D01*
X036317Y029328D01*
X036396Y029249D01*
X036499Y029207D01*
X036610Y029207D01*
X036633Y029216D01*
X036607Y029190D01*
X036565Y029087D01*
X036565Y028976D01*
X036607Y028873D01*
X036676Y028804D01*
X036607Y028735D01*
X036565Y028632D01*
X036565Y028521D01*
X036607Y028418D01*
X036686Y028339D01*
X036789Y028297D01*
X036929Y028309D02*
X037475Y028309D01*
X037475Y028467D02*
X037102Y028467D01*
X037125Y028626D02*
X037475Y028626D01*
X037475Y028784D02*
X037033Y028784D01*
X037111Y028943D02*
X037475Y028943D01*
X037475Y029101D02*
X037119Y029101D01*
X037012Y029260D02*
X037475Y029260D01*
X037475Y029418D02*
X036829Y029418D01*
X036820Y029577D02*
X037475Y029577D01*
X037475Y029735D02*
X036686Y029735D01*
X036423Y029735D02*
X032107Y029735D01*
X032261Y029577D02*
X036289Y029577D01*
X036280Y029418D02*
X032278Y029418D01*
X032179Y029260D02*
X036386Y029260D01*
X036570Y029101D02*
X034518Y029101D01*
X034774Y028943D02*
X036578Y028943D01*
X036656Y028784D02*
X034885Y028784D01*
X034884Y028626D02*
X036565Y028626D01*
X036587Y028467D02*
X034768Y028467D01*
X034461Y028467D02*
X034300Y028467D01*
X034345Y028626D02*
X034230Y028626D01*
X033731Y028784D02*
X033281Y028784D01*
X033305Y028626D02*
X033670Y028626D01*
X033704Y028467D02*
X033216Y028467D01*
X032833Y028467D02*
X029921Y028467D01*
X029581Y028444D02*
X029502Y028523D01*
X029460Y028626D01*
X029479Y028784D02*
X023177Y028784D01*
X022098Y028943D02*
X021115Y028943D01*
X021709Y029735D02*
X023108Y029735D01*
X023211Y029894D02*
X021765Y029894D01*
X022577Y031479D02*
X018035Y031479D01*
X018035Y031637D02*
X022490Y031637D01*
X022514Y031796D02*
X018035Y031796D01*
X018035Y031954D02*
X021169Y031954D01*
X021182Y031923D02*
X021261Y031844D01*
X021364Y031802D01*
X021475Y031802D01*
X021578Y031844D01*
X021657Y031923D01*
X021700Y032026D01*
X021700Y032137D01*
X021657Y032240D01*
X021578Y032319D01*
X021475Y032362D01*
X021364Y032362D01*
X021261Y032319D01*
X021182Y032240D01*
X021140Y032137D01*
X021140Y032026D01*
X021182Y031923D01*
X021140Y032113D02*
X018035Y032113D01*
X018035Y032271D02*
X021213Y032271D01*
X021626Y032271D02*
X022795Y032271D01*
X022835Y032113D02*
X021700Y032113D01*
X021670Y031954D02*
X022696Y031954D01*
X022843Y031954D02*
X037475Y031954D01*
X037475Y031796D02*
X023496Y031796D01*
X023073Y031796D02*
X023025Y031796D01*
X023037Y031479D02*
X022963Y031479D01*
X022842Y032430D02*
X018035Y032430D01*
X023855Y033856D02*
X024285Y033856D01*
X025489Y034252D02*
X025510Y034301D01*
X025510Y034492D01*
X025436Y034669D01*
X025301Y034804D01*
X025167Y034859D01*
X025301Y034915D01*
X025436Y035050D01*
X025510Y035226D01*
X025510Y035417D01*
X025436Y035594D01*
X025301Y035729D01*
X025164Y035786D01*
X025214Y035802D01*
X025281Y035836D01*
X025342Y035881D01*
X025396Y035934D01*
X025440Y035995D01*
X025474Y036062D01*
X025498Y036134D01*
X025508Y036197D01*
X025080Y036197D01*
X025080Y036297D01*
X025508Y036297D01*
X025498Y036359D01*
X025474Y036431D01*
X025440Y036498D01*
X025396Y036559D01*
X025342Y036613D01*
X025337Y036617D01*
X025722Y036617D01*
X025717Y036613D01*
X025663Y036559D01*
X025619Y036498D01*
X025585Y036431D01*
X025561Y036359D01*
X025551Y036297D01*
X025980Y036297D01*
X025980Y036197D01*
X025551Y036197D01*
X025561Y036134D01*
X025585Y036062D01*
X025619Y035995D01*
X025663Y035934D01*
X025717Y035881D01*
X025778Y035836D01*
X025845Y035802D01*
X025895Y035786D01*
X025758Y035729D01*
X025623Y035594D01*
X025550Y035417D01*
X025550Y035226D01*
X025623Y035050D01*
X025758Y034915D01*
X025892Y034859D01*
X025758Y034804D01*
X025623Y034669D01*
X025550Y034492D01*
X025550Y034301D01*
X025570Y034252D01*
X025489Y034252D01*
X025510Y034332D02*
X025550Y034332D01*
X025550Y034490D02*
X025510Y034490D01*
X025445Y034649D02*
X025614Y034649D01*
X025766Y034807D02*
X025293Y034807D01*
X025352Y034966D02*
X025707Y034966D01*
X025592Y035124D02*
X025467Y035124D01*
X025510Y035283D02*
X025550Y035283D01*
X025559Y035441D02*
X025500Y035441D01*
X025430Y035600D02*
X025629Y035600D01*
X025829Y035758D02*
X025230Y035758D01*
X025378Y035917D02*
X025681Y035917D01*
X025581Y036075D02*
X025479Y036075D01*
X025487Y036392D02*
X025572Y036392D01*
X025657Y036551D02*
X025402Y036551D01*
X025080Y036234D02*
X025980Y036234D01*
X026080Y036234D02*
X035470Y036234D01*
X035470Y036392D02*
X026487Y036392D01*
X026402Y036551D02*
X035470Y036551D01*
X035470Y036075D02*
X026479Y036075D01*
X026378Y035917D02*
X035470Y035917D01*
X035470Y035758D02*
X026230Y035758D01*
X026430Y035600D02*
X029984Y035600D01*
X029841Y035441D02*
X026500Y035441D01*
X026510Y035283D02*
X029828Y035283D01*
X029931Y035124D02*
X026467Y035124D01*
X030225Y035600D02*
X035470Y035600D01*
X035470Y035441D02*
X032966Y035441D01*
X033055Y035283D02*
X035470Y035283D01*
X035497Y035124D02*
X033031Y035124D01*
X032852Y034966D02*
X035688Y034966D01*
X032583Y035441D02*
X030368Y035441D01*
X030381Y035283D02*
X032495Y035283D01*
X032524Y033856D02*
X032242Y033856D01*
X027174Y030686D02*
X037475Y030686D01*
X037475Y030528D02*
X027310Y030528D01*
X027320Y030369D02*
X037475Y030369D01*
X037475Y030211D02*
X027215Y030211D01*
X028203Y029894D02*
X028616Y029894D01*
X032720Y027992D02*
X032720Y027992D01*
X032720Y027833D02*
X032720Y027833D01*
X031898Y027199D02*
X031187Y027199D01*
X030682Y027199D02*
X030263Y027199D01*
X030375Y027041D02*
X031975Y027041D01*
X032720Y026807D02*
X032720Y026307D01*
X032720Y026307D01*
X032720Y026307D01*
X032720Y026645D01*
X032720Y026807D01*
X032720Y026807D01*
X032720Y026724D02*
X032720Y026724D01*
X032720Y026565D02*
X032720Y026565D01*
X032720Y026407D02*
X032720Y026407D01*
X034123Y026565D02*
X037475Y026565D01*
X037475Y026407D02*
X034247Y026407D01*
X034252Y026248D02*
X037475Y026248D01*
X037475Y026090D02*
X034144Y026090D01*
X037030Y024346D02*
X037130Y024346D01*
X037130Y024188D02*
X037030Y024188D01*
X037030Y024029D02*
X037130Y024029D01*
X037130Y023871D02*
X037030Y023871D01*
X037030Y023712D02*
X037130Y023712D01*
X037130Y023554D02*
X037030Y023554D01*
X037390Y023554D02*
X037475Y023554D01*
X037475Y024346D02*
X037304Y024346D01*
X037130Y022761D02*
X037030Y022761D01*
X037030Y022603D02*
X037130Y022603D01*
X037133Y022444D02*
X037475Y022444D01*
X037392Y022556D02*
X037446Y022609D01*
X037475Y022649D01*
X037475Y022195D01*
X037446Y022234D01*
X037392Y022288D01*
X037331Y022332D01*
X037264Y022367D01*
X037192Y022390D01*
X037130Y022400D01*
X037130Y021972D01*
X037030Y021972D01*
X037030Y022400D01*
X036967Y022390D01*
X036895Y022367D01*
X036828Y022332D01*
X036767Y022288D01*
X036713Y022234D01*
X036669Y022173D01*
X036635Y022106D01*
X036611Y022034D01*
X036601Y021972D01*
X037030Y021972D01*
X037030Y021872D01*
X037130Y021872D01*
X037130Y021444D01*
X037192Y021453D01*
X037264Y021477D01*
X037130Y021493D02*
X037030Y021493D01*
X037030Y021444D02*
X037030Y021872D01*
X036601Y021872D01*
X036611Y021809D01*
X036635Y021737D01*
X036669Y021670D01*
X036713Y021609D01*
X036767Y021556D01*
X036828Y021511D01*
X036895Y021477D01*
X036967Y021453D01*
X037030Y021444D01*
X036863Y021493D02*
X036299Y021493D01*
X036487Y021652D02*
X036682Y021652D01*
X036611Y021810D02*
X036553Y021810D01*
X036560Y021969D02*
X037030Y021969D01*
X037030Y022127D02*
X037130Y022127D01*
X037130Y022286D02*
X037030Y022286D01*
X037130Y022444D02*
X037192Y022453D01*
X037264Y022477D01*
X037331Y022511D01*
X037392Y022556D01*
X037439Y022603D02*
X037475Y022603D01*
X037475Y022286D02*
X037394Y022286D01*
X037130Y021810D02*
X037030Y021810D01*
X037030Y021652D02*
X037130Y021652D01*
X036646Y022127D02*
X036514Y022127D01*
X036394Y022286D02*
X036765Y022286D01*
X036720Y022603D02*
X036439Y022603D01*
X036533Y022761D02*
X036627Y022761D01*
X036602Y020067D02*
X035720Y020067D01*
X035725Y019908D02*
X036522Y019908D01*
X036507Y019750D02*
X035667Y019750D01*
X035483Y019591D02*
X036549Y019591D01*
X034325Y019750D02*
X034285Y019750D01*
X034285Y019908D02*
X034325Y019908D01*
X034325Y020067D02*
X034285Y020067D01*
X034285Y020225D02*
X034325Y020225D01*
X030535Y026248D02*
X030233Y026248D01*
X018165Y027833D02*
X018035Y027833D01*
X018035Y027992D02*
X018181Y027992D01*
X018094Y028784D02*
X018035Y028784D01*
D15*
X018750Y029407D03*
X018250Y029907D03*
X020005Y030497D03*
X020570Y030522D03*
X020390Y029892D03*
X020990Y029902D03*
X021485Y029907D03*
X021750Y030407D03*
X022360Y031012D03*
X022770Y031682D03*
X023285Y031612D03*
X023075Y032267D03*
X023790Y032622D03*
X024280Y032557D03*
X024685Y032617D03*
X025110Y032597D03*
X026250Y031657D03*
X027390Y031767D03*
X027750Y031407D03*
X028245Y031767D03*
X028670Y030977D03*
X029070Y031017D03*
X029655Y030822D03*
X029655Y031272D03*
X029655Y031722D03*
X030480Y032322D03*
X031090Y032362D03*
X032005Y031822D03*
X032205Y031447D03*
X032405Y031097D03*
X032355Y030372D03*
X032805Y030372D03*
X033255Y030372D03*
X033705Y030422D03*
X034155Y030422D03*
X034005Y031022D03*
X033905Y031497D03*
X033355Y031122D03*
X034855Y030522D03*
X034930Y029997D03*
X035330Y029997D03*
X035730Y029997D03*
X036345Y030387D03*
X036745Y030387D03*
X036560Y030937D03*
X037330Y030822D03*
X037330Y031222D03*
X037330Y031622D03*
X037330Y032022D03*
X037330Y032422D03*
X037330Y032822D03*
X037330Y033222D03*
X037330Y033622D03*
X037330Y034022D03*
X037330Y034422D03*
X037330Y034822D03*
X036930Y034822D03*
X036530Y034822D03*
X036130Y034822D03*
X035730Y034847D03*
X035380Y035122D03*
X034980Y034922D03*
X034605Y034322D03*
X034305Y033947D03*
X034855Y033847D03*
X035605Y033672D03*
X036355Y034372D03*
X034505Y035722D03*
X034505Y036172D03*
X034955Y036172D03*
X035355Y036172D03*
X034055Y036172D03*
X033605Y036172D03*
X033155Y036172D03*
X032750Y036407D03*
X032805Y035822D03*
X032355Y035822D03*
X031905Y035822D03*
X031455Y035822D03*
X031005Y035822D03*
X030555Y035822D03*
X030105Y035822D03*
X029655Y035822D03*
X029655Y035372D03*
X030105Y035347D03*
X029655Y034422D03*
X029655Y034022D03*
X029300Y033792D03*
X029655Y033572D03*
X029655Y033122D03*
X030380Y033147D03*
X030855Y032997D03*
X031605Y033097D03*
X032125Y033602D03*
X032730Y034047D03*
X032530Y034597D03*
X032905Y034772D03*
X032775Y035237D03*
X033255Y035172D03*
X031250Y036407D03*
X029750Y036407D03*
X028250Y036407D03*
X027250Y035407D03*
X028250Y034907D03*
X028325Y033827D03*
X028965Y033387D03*
X030430Y034137D03*
X033255Y032672D03*
X034455Y032897D03*
X035450Y032507D03*
X035840Y031902D03*
X036555Y031622D03*
X035440Y031237D03*
X034985Y031827D03*
X036605Y032522D03*
X033455Y033897D03*
X031905Y030372D03*
X031455Y030372D03*
X031005Y030372D03*
X030555Y030372D03*
X030105Y030372D03*
X029655Y030372D03*
X028830Y029712D03*
X028435Y029577D03*
X028040Y029662D03*
X028080Y029247D03*
X029140Y028972D03*
X029445Y029272D03*
X029740Y028682D03*
X029310Y028287D03*
X030125Y028157D03*
X030455Y028527D03*
X031275Y028962D03*
X030915Y029667D03*
X032000Y029477D03*
X033025Y028672D03*
X033950Y028607D03*
X034130Y028242D03*
X034150Y027752D03*
X034615Y028707D03*
X034275Y028957D03*
X035685Y028462D03*
X036845Y028577D03*
X036845Y029032D03*
X036555Y029487D03*
X037330Y030022D03*
X037330Y030422D03*
X037285Y027682D03*
X037295Y027252D03*
X037250Y025907D03*
X037250Y024907D03*
X034880Y025792D03*
X033980Y026322D03*
X033540Y026637D03*
X031700Y027752D03*
X030940Y027782D03*
X030935Y027322D03*
X030105Y026962D03*
X030150Y026517D03*
X030655Y026502D03*
X031315Y026492D03*
X031820Y025412D03*
X031185Y025212D03*
X030130Y025687D03*
X029105Y025672D03*
X028870Y026532D03*
X027750Y026407D03*
X027250Y027407D03*
X026180Y027432D03*
X025760Y027777D03*
X025820Y026892D03*
X025700Y026372D03*
X024590Y026047D03*
X024315Y026357D03*
X023750Y025407D03*
X022750Y025407D03*
X021750Y025407D03*
X020750Y025407D03*
X020750Y024407D03*
X019750Y024407D03*
X019800Y023657D03*
X019300Y023657D03*
X018900Y023657D03*
X018500Y023657D03*
X018100Y023657D03*
X018100Y023207D03*
X018100Y022757D03*
X018100Y022307D03*
X018100Y021857D03*
X018100Y021407D03*
X018100Y020957D03*
X018100Y020507D03*
X018100Y020057D03*
X018500Y020057D03*
X018500Y019607D03*
X018900Y019607D03*
X019300Y019607D03*
X019700Y019607D03*
X020065Y020167D03*
X019055Y020867D03*
X018670Y021612D03*
X019050Y022377D03*
X019535Y021722D03*
X020280Y021732D03*
X020855Y022272D03*
X020530Y022807D03*
X019900Y023082D03*
X021750Y023407D03*
X022970Y023547D03*
X023485Y024192D03*
X025115Y024297D03*
X025215Y023882D03*
X025545Y023652D03*
X025730Y023282D03*
X025615Y022662D03*
X027080Y023187D03*
X027255Y023622D03*
X027640Y022817D03*
X027640Y022417D03*
X030100Y023267D03*
X031615Y023557D03*
X032045Y023637D03*
X031635Y024152D03*
X031165Y024062D03*
X030725Y024122D03*
X029580Y024097D03*
X029180Y024097D03*
X026750Y025407D03*
X025570Y025657D03*
X025555Y024197D03*
X023355Y022147D03*
X023355Y021747D03*
X023355Y021347D03*
X023755Y021347D03*
X023985Y021712D03*
X023955Y020947D03*
X023955Y020547D03*
X023955Y020122D03*
X023755Y019722D03*
X023355Y019722D03*
X023355Y019322D03*
X023355Y018922D03*
X022955Y018922D03*
X022955Y018522D03*
X022955Y018122D03*
X022955Y017722D03*
X022955Y017322D03*
X022555Y017322D03*
X022155Y017322D03*
X021755Y017322D03*
X021355Y017322D03*
X020955Y017322D03*
X020555Y017322D03*
X020155Y017322D03*
X019755Y017322D03*
X019755Y017822D03*
X020155Y017822D03*
X020555Y017822D03*
X020905Y018222D03*
X020905Y018672D03*
X021930Y019172D03*
X022380Y019172D03*
X023130Y020272D03*
X023130Y020897D03*
X022305Y021947D03*
X022655Y022272D03*
X025275Y019952D03*
X026275Y019927D03*
X028390Y020072D03*
X028390Y020472D03*
X028965Y020472D03*
X029365Y020472D03*
X029765Y020472D03*
X029765Y020872D03*
X030160Y021052D03*
X030560Y021052D03*
X030960Y021052D03*
X031360Y021402D03*
X031760Y021402D03*
X032160Y021402D03*
X032560Y021402D03*
X032960Y021402D03*
X033360Y021402D03*
X033635Y021037D03*
X034035Y021037D03*
X034435Y021037D03*
X034835Y021037D03*
X035235Y021037D03*
X035635Y021037D03*
X036035Y021037D03*
X036435Y021037D03*
X036835Y021037D03*
X037235Y021037D03*
X034655Y021447D03*
X034655Y022422D03*
X034680Y023422D03*
X032550Y022472D03*
X032260Y022957D03*
X032090Y020692D03*
X030965Y020072D03*
X030165Y020622D03*
X032165Y019722D03*
X031140Y018572D03*
X031540Y018172D03*
X031140Y017772D03*
X031540Y017372D03*
X030740Y017372D03*
X030340Y017772D03*
X030740Y018172D03*
X029940Y018172D03*
X029540Y017772D03*
X029940Y017372D03*
X029140Y017372D03*
X027750Y017907D03*
X029140Y018172D03*
X028390Y019672D03*
X024050Y019042D03*
X023750Y017907D03*
X018100Y019607D03*
X018250Y024407D03*
X018250Y024907D03*
X018750Y025407D03*
X020810Y026917D03*
X020835Y027917D03*
X022115Y027997D03*
X022760Y028032D03*
X023245Y028122D03*
X022925Y028662D03*
X022310Y029127D03*
X023385Y029672D03*
X023510Y029252D03*
X022920Y029787D03*
X025115Y029372D03*
X025720Y029817D03*
X026175Y029807D03*
X027045Y030437D03*
X026250Y030907D03*
X025480Y030652D03*
X024890Y030997D03*
X022250Y032407D03*
X022250Y032907D03*
X021725Y033017D03*
X022720Y033607D03*
X022835Y034127D03*
X022840Y034552D03*
X023575Y033892D03*
X023510Y033452D03*
X024530Y033997D03*
X025530Y033972D03*
X026505Y033972D03*
X027250Y033907D03*
X022765Y035737D03*
X022700Y035202D03*
X022750Y036407D03*
X020750Y036407D03*
X019750Y036407D03*
X019100Y036107D03*
X018250Y035907D03*
X018660Y034967D03*
X018655Y034562D03*
X018170Y034162D03*
X018165Y033682D03*
X019935Y034032D03*
X021420Y032082D03*
X018750Y031407D03*
X018250Y031907D03*
X020835Y028892D03*
X024215Y028067D03*
X027845Y028167D03*
X028275Y028042D03*
X028745Y027102D03*
X029130Y027232D03*
X033165Y025642D03*
X033905Y018172D03*
X034005Y017272D03*
X034405Y017272D03*
X034805Y017272D03*
X035205Y017272D03*
X035605Y017272D03*
X036005Y017272D03*
X036405Y017272D03*
X036805Y017272D03*
X037205Y017272D03*
X033605Y017272D03*
X033165Y017272D03*
X032765Y017272D03*
X032365Y017272D03*
M02*
