%
M48
M72
T01C0.0120
T02C0.0236
T03C0.0354
T04C0.0400
T05C0.0520
%
T01
X19788Y17322
X20188Y17322
X20588Y17322
X20988Y17322
X21388Y17322
X21788Y17322
X22188Y17322
X22588Y17322
X22988Y17322
X22988Y17722
X22988Y18122
X22988Y18522
X22988Y18922
X23388Y18922
X23388Y19322
X23388Y19722
X23788Y19722
X23988Y20122
X23988Y20547
X23988Y20947
X23788Y21347
X23388Y21347
X23388Y21747
X23388Y22147
X22688Y22272
X22338Y21947
X23163Y20897
X23163Y20272
X22413Y19172
X21963Y19172
X20938Y18672
X20938Y18222
X20588Y17822
X20188Y17822
X19788Y17822
X19733Y19607
X19333Y19607
X18933Y19607
X18533Y19607
X18133Y19607
X18133Y20057
X18533Y20057
X18133Y20507
X18133Y20957
X18133Y21407
X18133Y21857
X18133Y22307
X18133Y22757
X18133Y23207
X18133Y23657
X18533Y23657
X18933Y23657
X19333Y23657
X19833Y23657
X19933Y23082
X20563Y22807
X20888Y22272
X20313Y21732
X19568Y21722
X19083Y22377
X18703Y21612
X19088Y20867
X20098Y20167
X21238Y20897
X24018Y21712
X25648Y22662
X25763Y23282
X25578Y23652
X25248Y23882
X25148Y24297
X25588Y24197
X27288Y23622
X27113Y23187
X27673Y22817
X27673Y22417
X30133Y23267
X31648Y23557
X32078Y23637
X31668Y24152
X31198Y24062
X30758Y24122
X29613Y24097
X29213Y24097
X29138Y25672
X28903Y26532
X27783Y26407
X27283Y27407
X26213Y27432
X25793Y27777
X25853Y26892
X25733Y26372
X24623Y26047
X24348Y26357
X23783Y25407
X22783Y25407
X21783Y25407
X20783Y25407
X20783Y24407
X19783Y24407
X18783Y25407
X18283Y24907
X18283Y24407
X21783Y23407
X23003Y23547
X23518Y24192
X25603Y25657
X26783Y25407
X28778Y27102
X29163Y27232
X30138Y26962
X30183Y26517
X30688Y26502
X31348Y26492
X30968Y27322
X30973Y27782
X31733Y27752
X30488Y28527
X30158Y28157
X29773Y28682
X29343Y28287
X29173Y28972
X29478Y29272
X28863Y29712
X28468Y29577
X28073Y29662
X28113Y29247
X27878Y28167
X28308Y28042
X26208Y29807
X25753Y29817
X25148Y29372
X25513Y30652
X24923Y30997
X23753Y30367
X23173Y29872
X22708Y28912
X22183Y28917
X22228Y28097
X22793Y28032
X23278Y28122
X24248Y28067
X21518Y29907
X21023Y29902
X20423Y29892
X20603Y30522
X20038Y30497
X18783Y31407
X18283Y31907
X18198Y33682
X18203Y34162
X18688Y34562
X18693Y34967
X18283Y35907
X19133Y36107
X19783Y36407
X20783Y36407
X22733Y35202
X22798Y35737
X22783Y36407
X22873Y34552
X22868Y34127
X22753Y33607
X23543Y33452
X23608Y33892
X24563Y33997
X25563Y33972
X26538Y33972
X27283Y33907
X28358Y33827
X28998Y33387
X29333Y33792
X29688Y33572
X29688Y34022
X29688Y34422
X30463Y34137
X30413Y33147
X30888Y32997
X31638Y33097
X32158Y33602
X32763Y34047
X32563Y34597
X32938Y34772
X32808Y35237
X33288Y35172
X32838Y35822
X32388Y35822
X31938Y35822
X31488Y35822
X31038Y35822
X30588Y35822
X30138Y35822
X29688Y35822
X29688Y35372
X30138Y35347
X29783Y36407
X31283Y36407
X32783Y36407
X33188Y36172
X33638Y36172
X34088Y36172
X34538Y36172
X34988Y36172
X35388Y36172
X34538Y35722
X35013Y34922
X35413Y35122
X35763Y34847
X36163Y34822
X36563Y34822
X36963Y34822
X37363Y34822
X37363Y34422
X37363Y34022
X37363Y33622
X37363Y33222
X37363Y32822
X37363Y32422
X37363Y32022
X37363Y31622
X37363Y31222
X37363Y30822
X37363Y30422
X37363Y30022
X36778Y30387
X36378Y30387
X36593Y30937
X36588Y31622
X35873Y31902
X35473Y31237
X35018Y31827
X35483Y32507
X34488Y32897
X33288Y32672
X32038Y31822
X32238Y31447
X32438Y31097
X32388Y30372
X32838Y30372
X33288Y30372
X33738Y30422
X34188Y30422
X34038Y31022
X33938Y31497
X33388Y31122
X34888Y30522
X34963Y29997
X35363Y29997
X35763Y29997
X36588Y29487
X36878Y29032
X36878Y28577
X37318Y27682
X37328Y27252
X37283Y25907
X37283Y24907
X34913Y25792
X34013Y26322
X33573Y26637
X34183Y27752
X34163Y28242
X33983Y28607
X34308Y28957
X34648Y28707
X35718Y28462
X33058Y28672
X32033Y29477
X31308Y28962
X30948Y29667
X31038Y30372
X31488Y30372
X31938Y30372
X30588Y30372
X30138Y30372
X29688Y30372
X29688Y30822
X29688Y31272
X29688Y31722
X30513Y32322
X31123Y32362
X29688Y33122
X28278Y31767
X27783Y31407
X27423Y31767
X26283Y31907
X26283Y30907
X27078Y30437
X28703Y30977
X29103Y31017
X25143Y32597
X24718Y32617
X24313Y32557
X23823Y32622
X23108Y32267
X22803Y31682
X23318Y31612
X22283Y32407
X22283Y32907
X21758Y33017
X21453Y32082
X22393Y31012
X21783Y30407
X20868Y28892
X18783Y29407
X18283Y29907
X20868Y27917
X20843Y26917
X30163Y25687
X31218Y25212
X31853Y25412
X33198Y25642
X34713Y23422
X34688Y22422
X34688Y21447
X34868Y21037
X35268Y21037
X35668Y21037
X36068Y21037
X36468Y21037
X36868Y21037
X37268Y21037
X34468Y21037
X34068Y21037
X33668Y21037
X33393Y21402
X32993Y21402
X32593Y21402
X32193Y21402
X31793Y21402
X31393Y21402
X30993Y21052
X30593Y21052
X30193Y21052
X30198Y20622
X29798Y20472
X29798Y20872
X29398Y20472
X28998Y20472
X28423Y20472
X28423Y20072
X28423Y19672
X27783Y19407
X27783Y20407
X26308Y19927
X25308Y19952
X24083Y19042
X23783Y17907
X27783Y17907
X29173Y18172
X29573Y17772
X29973Y18172
X30373Y17772
X30773Y18172
X31173Y18572
X31573Y18172
X31173Y17772
X31573Y17372
X30773Y17372
X29973Y17372
X29173Y17372
X32398Y17272
X32798Y17272
X33198Y17272
X33638Y17272
X34038Y17272
X34438Y17272
X34838Y17272
X35238Y17272
X35638Y17272
X36038Y17272
X36438Y17272
X36838Y17272
X37238Y17272
X33938Y18172
X32198Y19722
X30998Y20072
X32123Y20692
X32583Y22472
X32293Y22957
X36638Y32522
X35638Y33672
X34888Y33847
X34638Y34322
X34338Y33947
X33488Y33897
X36388Y34372
X28283Y34907
X27283Y35407
X28283Y36407
X19968Y34032
T02
X32253Y27807
X32753Y27807
X32753Y27307
X32253Y27307
X32253Y26807
X32753Y26807
X32753Y26307
X32253Y26307
X32253Y25807
X32753Y25807
T03
X36998Y19782
X36998Y18601
T04
X35338Y19972
X34338Y19972
T05
X35103Y21932
X36113Y21922
X37113Y21922
X37113Y22922
X36113Y22922
X35113Y22922
X35113Y23922
X36113Y23922
X37113Y23922
X26808Y19527
X25808Y19527
X24808Y19527
X24808Y18527
X25808Y18527
X26808Y18527
X26808Y17527
X25808Y17527
X24808Y17527
X20438Y26417
X20438Y27417
X19438Y27417
X18438Y27417
X18438Y26417
X19438Y26417
X19438Y28417
X18438Y28417
X20438Y28417
X24063Y34397
X25063Y34397
X25063Y35322
X24063Y35322
X24063Y36247
X25063Y36247
X26063Y36247
X26063Y35322
X26063Y34397
M30
