%
M48
M72
T01C0.0120
T02C0.0236
T03C0.0354
T04C0.0400
T05C0.0520
%
T01
X19755Y17322
X20155Y17322
X20555Y17322
X20955Y17322
X21355Y17322
X21755Y17322
X22155Y17322
X22555Y17322
X22955Y17322
X22955Y17722
X22955Y18122
X22955Y18522
X22955Y18922
X23355Y18922
X23355Y19322
X23355Y19722
X23755Y19722
X23955Y20122
X23955Y20547
X23955Y20947
X23755Y21347
X23355Y21347
X23355Y21747
X23355Y22147
X22655Y22272
X22305Y21947
X23130Y20897
X23130Y20272
X22380Y19172
X21930Y19172
X20905Y18672
X20905Y18222
X20555Y17822
X20155Y17822
X19755Y17822
X19700Y19607
X19300Y19607
X18900Y19607
X18500Y19607
X18100Y19607
X18100Y20057
X18500Y20057
X18100Y20507
X18100Y20957
X18100Y21407
X18100Y21857
X18100Y22307
X18100Y22757
X18100Y23207
X18100Y23657
X18500Y23657
X18900Y23657
X19300Y23657
X19800Y23657
X19900Y23082
X20530Y22807
X20855Y22272
X20280Y21732
X19535Y21722
X19050Y22377
X18670Y21612
X19055Y20867
X20065Y20167
X24050Y19042
X25275Y19952
X26275Y19927
X28390Y20072
X28390Y20472
X28965Y20472
X29365Y20472
X29765Y20472
X29765Y20872
X30160Y21052
X30560Y21052
X30960Y21052
X31360Y21402
X31760Y21402
X32160Y21402
X32560Y21402
X32960Y21402
X33360Y21402
X33635Y21037
X34035Y21037
X34435Y21037
X34835Y21037
X35235Y21037
X35635Y21037
X36035Y21037
X36435Y21037
X36835Y21037
X37235Y21037
X34655Y21447
X34655Y22422
X34680Y23422
X32550Y22472
X32260Y22957
X32045Y23637
X31615Y23557
X31635Y24152
X31165Y24062
X30725Y24122
X29580Y24097
X29180Y24097
X30100Y23267
X27640Y22817
X27640Y22417
X27080Y23187
X27255Y23622
X25730Y23282
X25545Y23652
X25215Y23882
X25115Y24297
X25555Y24197
X25570Y25657
X24590Y26047
X24315Y26357
X23750Y25407
X22750Y25407
X21750Y25407
X20750Y25407
X20750Y24407
X19750Y24407
X18750Y25407
X18250Y24907
X18250Y24407
X21750Y23407
X22970Y23547
X23485Y24192
X25615Y22662
X23985Y21712
X28390Y19672
X29140Y18172
X29540Y17772
X29940Y18172
X30340Y17772
X30740Y18172
X31140Y18572
X31540Y18172
X31140Y17772
X31540Y17372
X30740Y17372
X29940Y17372
X29140Y17372
X27750Y17907
X30965Y20072
X30165Y20622
X32090Y20692
X32165Y19722
X33905Y18172
X34005Y17272
X34405Y17272
X34805Y17272
X35205Y17272
X35605Y17272
X36005Y17272
X36405Y17272
X36805Y17272
X37205Y17272
X33605Y17272
X33165Y17272
X32765Y17272
X32365Y17272
X23750Y17907
X31185Y25212
X31820Y25412
X33165Y25642
X33980Y26322
X33540Y26637
X34150Y27752
X34130Y28242
X33950Y28607
X34275Y28957
X34615Y28707
X35685Y28462
X36845Y28577
X36845Y29032
X36555Y29487
X37330Y30022
X37330Y30422
X37330Y30822
X37330Y31222
X37330Y31622
X37330Y32022
X37330Y32422
X37330Y32822
X37330Y33222
X37330Y33622
X37330Y34022
X37330Y34422
X37330Y34822
X36930Y34822
X36530Y34822
X36130Y34822
X35730Y34847
X35380Y35122
X34980Y34922
X34605Y34322
X34305Y33947
X34855Y33847
X35605Y33672
X36355Y34372
X34505Y35722
X34505Y36172
X34955Y36172
X35355Y36172
X34055Y36172
X33605Y36172
X33155Y36172
X32750Y36407
X32805Y35822
X32355Y35822
X31905Y35822
X31455Y35822
X31005Y35822
X30555Y35822
X30105Y35822
X29655Y35822
X29655Y35372
X30105Y35347
X29655Y34422
X29655Y34022
X29300Y33792
X29655Y33572
X29655Y33122
X30380Y33147
X30855Y32997
X31605Y33097
X32125Y33602
X32730Y34047
X32530Y34597
X32905Y34772
X32775Y35237
X33255Y35172
X31250Y36407
X29750Y36407
X28250Y36407
X27250Y35407
X28250Y34907
X28325Y33827
X28965Y33387
X30430Y34137
X33255Y32672
X34455Y32897
X35450Y32507
X35840Y31902
X36555Y31622
X35440Y31237
X34985Y31827
X33905Y31497
X34005Y31022
X34155Y30422
X33705Y30422
X33255Y30372
X32805Y30372
X32355Y30372
X31905Y30372
X31455Y30372
X31005Y30372
X30555Y30372
X30105Y30372
X29655Y30372
X29655Y30822
X29655Y31272
X29655Y31722
X30480Y32322
X31090Y32362
X32005Y31822
X32205Y31447
X32405Y31097
X33355Y31122
X34855Y30522
X34930Y29997
X35330Y29997
X35730Y29997
X36345Y30387
X36745Y30387
X36560Y30937
X36605Y32522
X33455Y33897
X29070Y31017
X28670Y30977
X27750Y31407
X27390Y31767
X28245Y31767
X26250Y31657
X26250Y30907
X25480Y30652
X24890Y30997
X25720Y29817
X26175Y29807
X27045Y30437
X28040Y29662
X28435Y29577
X28830Y29712
X29445Y29272
X29140Y28972
X29740Y28682
X29310Y28287
X30125Y28157
X30455Y28527
X31275Y28962
X30915Y29667
X32000Y29477
X33025Y28672
X31700Y27752
X30940Y27782
X30935Y27322
X30105Y26962
X30150Y26517
X30655Y26502
X31315Y26492
X30130Y25687
X29105Y25672
X28870Y26532
X27750Y26407
X27250Y27407
X26180Y27432
X25760Y27777
X25820Y26892
X25700Y26372
X26750Y25407
X28745Y27102
X29130Y27232
X28275Y28042
X27845Y28167
X28080Y29247
X25115Y29372
X23510Y29252
X23385Y29672
X22920Y29787
X22310Y29127
X22925Y28662
X23245Y28122
X22760Y28032
X22115Y27997
X20835Y27917
X20810Y26917
X24215Y28067
X21485Y29907
X20990Y29902
X20390Y29892
X20570Y30522
X20005Y30497
X18750Y31407
X18250Y31907
X18165Y33682
X18170Y34162
X18655Y34562
X18660Y34967
X18250Y35907
X19100Y36107
X19750Y36407
X20750Y36407
X22750Y36407
X22765Y35737
X22700Y35202
X22840Y34552
X22835Y34127
X22720Y33607
X23510Y33452
X23575Y33892
X24530Y33997
X25530Y33972
X26505Y33972
X27250Y33907
X25110Y32597
X24685Y32617
X24280Y32557
X23790Y32622
X23075Y32267
X22770Y31682
X23285Y31612
X22250Y32407
X22250Y32907
X21725Y33017
X21420Y32082
X22360Y31012
X21750Y30407
X20835Y28892
X18750Y29407
X18250Y29907
X19935Y34032
X34880Y25792
X37250Y25907
X37250Y24907
X37295Y27252
X37285Y27682
T02
X32720Y27807
X32720Y27307
X32720Y26807
X32720Y26307
X32720Y25807
X32220Y25807
X32220Y26307
X32220Y26807
X32220Y27307
X32220Y27807
T03
X36965Y19782
X36965Y18601
T04
X35305Y19972
X34305Y19972
T05
X35070Y21932
X36080Y21922
X37080Y21922
X37080Y22922
X36080Y22922
X35080Y22922
X35080Y23922
X36080Y23922
X37080Y23922
X26775Y19527
X25775Y19527
X24775Y19527
X24775Y18527
X25775Y18527
X26775Y18527
X26775Y17527
X25775Y17527
X24775Y17527
X20405Y26417
X20405Y27417
X19405Y27417
X18405Y27417
X18405Y26417
X19405Y26417
X19405Y28417
X18405Y28417
X20405Y28417
X24030Y34397
X25030Y34397
X25030Y35322
X24030Y35322
X24030Y36247
X25030Y36247
X26030Y36247
X26030Y35322
X26030Y34397
M30
