G75*
%MOIN*%
%OFA0B0*%
%FSLAX25Y25*%
%IPPOS*%
%LPD*%
%AMOC8*
5,1,8,0,0,1.08239X$1,22.5*
%
%ADD10C,0.02200*%
%ADD11C,0.00800*%
%ADD12R,0.03000X0.01800*%
%ADD13R,0.01800X0.03000*%
%ADD14C,0.00500*%
%ADD15C,0.01575*%
%ADD16C,0.00197*%
%ADD17R,0.02800X0.01600*%
D10*
X0072800Y0091180D02*
X0072800Y0091420D01*
X0091800Y0099480D02*
X0091800Y0099720D01*
X0110580Y0084500D02*
X0110820Y0084500D01*
X0097785Y0079015D02*
X0097615Y0079185D01*
X0097015Y0070685D02*
X0097185Y0070515D01*
X0129600Y0091480D02*
X0129600Y0091720D01*
X0148100Y0093980D02*
X0148100Y0094220D01*
X0132200Y0117580D02*
X0132200Y0117820D01*
X0094620Y0122300D02*
X0094380Y0122300D01*
X0072100Y0121420D02*
X0072100Y0121180D01*
X0095100Y0161580D02*
X0095100Y0161820D01*
X0091120Y0174100D02*
X0090880Y0174100D01*
X0112580Y0165200D02*
X0112820Y0165200D01*
X0138380Y0156200D02*
X0138620Y0156200D01*
X0126200Y0191480D02*
X0126200Y0191720D01*
X0106600Y0197280D02*
X0106600Y0197520D01*
X0079800Y0225480D02*
X0079800Y0225720D01*
X0085780Y0236200D02*
X0086020Y0236200D01*
X0093880Y0236400D02*
X0094120Y0236400D01*
X0118580Y0235900D02*
X0118820Y0235900D01*
X0132480Y0236200D02*
X0132720Y0236200D01*
X0152080Y0209800D02*
X0152320Y0209800D01*
X0170900Y0214480D02*
X0170900Y0214720D01*
X0169400Y0200920D02*
X0169400Y0200680D01*
X0184800Y0214480D02*
X0184800Y0214720D01*
X0210900Y0193020D02*
X0210900Y0192780D01*
X0208520Y0183900D02*
X0208280Y0183900D01*
X0203700Y0175020D02*
X0203700Y0174780D01*
X0201300Y0162720D02*
X0201300Y0162480D01*
X0207200Y0155820D02*
X0207200Y0155580D01*
X0187000Y0093920D02*
X0187000Y0093680D01*
X0187000Y0088220D02*
X0187000Y0087980D01*
X0193480Y0066800D02*
X0193720Y0066800D01*
X0205200Y0063620D02*
X0205200Y0063380D01*
X0166020Y0066200D02*
X0165780Y0066200D01*
X0160020Y0066200D02*
X0159780Y0066200D01*
X0148200Y0065420D02*
X0148200Y0065180D01*
X0250680Y0231300D02*
X0250920Y0231300D01*
X0195120Y0241900D02*
X0194880Y0241900D01*
D11*
X0177411Y0255210D02*
X0153789Y0255210D01*
X0153789Y0268990D01*
X0177411Y0268990D01*
X0177411Y0255210D01*
X0171210Y0259403D02*
X0171210Y0264797D01*
X0159990Y0264797D01*
X0159990Y0259403D01*
X0171210Y0259403D01*
X0138562Y0209399D02*
X0133838Y0209399D01*
X0126357Y0204281D02*
X0126357Y0201919D01*
X0133838Y0196801D02*
X0138562Y0196801D01*
X0146043Y0201919D02*
X0146043Y0204281D01*
X0148315Y0191085D02*
X0148315Y0151715D01*
X0183748Y0151715D01*
X0187685Y0155652D01*
X0187685Y0191085D01*
X0148315Y0191085D01*
X0117172Y0215698D02*
X0113628Y0215698D01*
X0113628Y0227902D02*
X0117172Y0227902D01*
X0114200Y0234100D02*
X0114200Y0236700D01*
X0114200Y0243200D02*
X0114200Y0245800D01*
X0101200Y0245800D02*
X0101200Y0243200D01*
X0101794Y0233994D02*
X0100810Y0233010D01*
X0071511Y0248331D02*
X0069700Y0248331D01*
X0068780Y0249551D01*
X0067889Y0248331D02*
X0069700Y0248331D01*
X0069800Y0248391D02*
X0070560Y0249551D01*
X0063881Y0218289D02*
X0061519Y0218289D01*
X0057582Y0215730D02*
X0057582Y0194470D01*
X0061519Y0191911D02*
X0063881Y0191911D01*
X0067818Y0205100D02*
X0067818Y0211006D01*
X0069300Y0173800D02*
X0066800Y0171300D01*
X0066800Y0166300D01*
X0069300Y0163800D01*
X0066800Y0161300D01*
X0066800Y0156300D01*
X0069300Y0153800D01*
X0074300Y0153800D01*
X0076800Y0156300D01*
X0076800Y0161300D01*
X0074300Y0163800D01*
X0076800Y0166300D01*
X0076800Y0171300D01*
X0074300Y0173800D01*
X0069300Y0173800D01*
X0070419Y0115743D02*
X0072781Y0115743D01*
X0077899Y0108262D02*
X0077899Y0103538D01*
X0072781Y0096057D02*
X0070419Y0096057D01*
X0065301Y0103538D02*
X0065301Y0108262D01*
X0126900Y0050300D02*
X0130900Y0050300D01*
X0130900Y0043300D02*
X0126900Y0043300D01*
X0146919Y0069757D02*
X0149281Y0069757D01*
X0154399Y0077238D02*
X0154399Y0081962D01*
X0149281Y0089443D02*
X0146919Y0089443D01*
X0141801Y0081962D02*
X0141801Y0077238D01*
X0213963Y0157017D02*
X0213963Y0171583D01*
X0221837Y0171583D01*
X0221837Y0157017D01*
X0213963Y0157017D01*
X0214063Y0173517D02*
X0214063Y0188083D01*
X0221937Y0188083D01*
X0221937Y0173517D01*
X0214063Y0173517D01*
X0255749Y0154260D02*
X0256909Y0153500D01*
X0256969Y0153400D02*
X0255749Y0152480D01*
X0256969Y0151589D02*
X0256969Y0153400D01*
X0256969Y0155211D01*
X0256869Y0147411D02*
X0256869Y0145600D01*
X0255649Y0144680D01*
X0256869Y0143789D02*
X0256869Y0145600D01*
X0256809Y0145700D02*
X0255649Y0146460D01*
X0279900Y0148300D02*
X0282400Y0145800D01*
X0279900Y0143300D01*
X0279900Y0138300D01*
X0282400Y0135800D01*
X0279900Y0133300D01*
X0279900Y0128300D01*
X0282400Y0125800D01*
X0279900Y0123300D01*
X0279900Y0118300D01*
X0282400Y0115800D01*
X0279900Y0113300D01*
X0279900Y0108300D01*
X0282400Y0105800D01*
X0279900Y0103300D01*
X0279900Y0098300D01*
X0282400Y0095800D01*
X0279900Y0093300D01*
X0279900Y0088300D01*
X0282400Y0085800D01*
X0279900Y0083300D01*
X0279900Y0078300D01*
X0282400Y0075800D01*
X0287400Y0075800D01*
X0289900Y0078300D01*
X0289900Y0083300D01*
X0287400Y0085800D01*
X0289900Y0088300D01*
X0289900Y0093300D01*
X0287400Y0095800D01*
X0289900Y0098300D01*
X0289900Y0103300D01*
X0287400Y0105800D01*
X0289900Y0108300D01*
X0289900Y0113300D01*
X0287400Y0115800D01*
X0289900Y0118300D01*
X0289900Y0123300D01*
X0287400Y0125800D01*
X0289900Y0128300D01*
X0289900Y0133300D01*
X0287400Y0135800D01*
X0289900Y0138300D01*
X0289900Y0143300D01*
X0287400Y0145800D01*
X0289900Y0148300D01*
X0289900Y0153300D01*
X0287400Y0155800D01*
X0289900Y0158300D01*
X0289900Y0163300D01*
X0287400Y0165800D01*
X0289900Y0168300D01*
X0289900Y0173300D01*
X0287400Y0175800D01*
X0289900Y0178300D01*
X0289900Y0183300D01*
X0287400Y0185800D01*
X0289900Y0188300D01*
X0289900Y0193300D01*
X0287400Y0195800D01*
X0289900Y0198300D01*
X0289900Y0203300D01*
X0287400Y0205800D01*
X0289900Y0208300D01*
X0289900Y0213300D01*
X0287400Y0215800D01*
X0289900Y0218300D01*
X0289900Y0223300D01*
X0287400Y0225800D01*
X0282400Y0225800D01*
X0279900Y0223300D01*
X0279900Y0218300D01*
X0282400Y0215800D01*
X0279900Y0213300D01*
X0279900Y0208300D01*
X0282400Y0205800D01*
X0279900Y0203300D01*
X0279900Y0198300D01*
X0282400Y0195800D01*
X0279900Y0193300D01*
X0279900Y0188300D01*
X0282400Y0185800D01*
X0279900Y0183300D01*
X0279900Y0178300D01*
X0282400Y0175800D01*
X0279900Y0173300D01*
X0279900Y0168300D01*
X0282400Y0165800D01*
X0279900Y0163300D01*
X0279900Y0158300D01*
X0282400Y0155800D01*
X0279900Y0153300D01*
X0279900Y0148300D01*
X0276198Y0234228D02*
X0276198Y0237772D01*
X0288402Y0237772D02*
X0288402Y0234228D01*
X0236600Y0053400D02*
X0236600Y0049400D01*
X0229600Y0049400D02*
X0229600Y0053400D01*
D12*
X0204700Y0107700D03*
X0198600Y0107700D03*
X0137500Y0079700D03*
X0124700Y0131300D03*
X0199900Y0183700D03*
X0125400Y0236100D03*
X0110600Y0255200D03*
X0094000Y0248900D03*
X0085500Y0249200D03*
X0077500Y0249100D03*
D13*
G36*
X0069303Y0074224D02*
X0070576Y0075497D01*
X0072697Y0073376D01*
X0071424Y0072103D01*
X0069303Y0074224D01*
G37*
G36*
X0087903Y0084924D02*
X0089176Y0086197D01*
X0091297Y0084076D01*
X0090024Y0082803D01*
X0087903Y0084924D01*
G37*
X0129600Y0097400D03*
X0129600Y0103500D03*
X0186400Y0076300D03*
X0243100Y0145600D03*
X0243100Y0153400D03*
X0134000Y0251700D03*
X0121600Y0251700D03*
D14*
X0167664Y0231899D02*
X0188136Y0231899D01*
X0188136Y0219301D02*
X0167664Y0219301D01*
X0204509Y0221796D02*
X0204511Y0221852D01*
X0204517Y0221907D01*
X0204527Y0221961D01*
X0204540Y0222015D01*
X0204558Y0222068D01*
X0204579Y0222119D01*
X0204603Y0222169D01*
X0204631Y0222217D01*
X0204663Y0222263D01*
X0204697Y0222307D01*
X0204735Y0222348D01*
X0204775Y0222386D01*
X0204818Y0222421D01*
X0204863Y0222453D01*
X0204911Y0222482D01*
X0204960Y0222508D01*
X0205011Y0222530D01*
X0205063Y0222548D01*
X0205117Y0222562D01*
X0205172Y0222573D01*
X0205227Y0222580D01*
X0205282Y0222583D01*
X0205338Y0222582D01*
X0205393Y0222577D01*
X0205448Y0222568D01*
X0205502Y0222556D01*
X0205555Y0222539D01*
X0205607Y0222519D01*
X0205657Y0222495D01*
X0205705Y0222468D01*
X0205752Y0222438D01*
X0205796Y0222404D01*
X0205838Y0222367D01*
X0205876Y0222327D01*
X0205913Y0222285D01*
X0205946Y0222240D01*
X0205975Y0222194D01*
X0206002Y0222145D01*
X0206024Y0222094D01*
X0206044Y0222042D01*
X0206059Y0221988D01*
X0206071Y0221934D01*
X0206079Y0221879D01*
X0206083Y0221824D01*
X0206083Y0221768D01*
X0206079Y0221713D01*
X0206071Y0221658D01*
X0206059Y0221604D01*
X0206044Y0221550D01*
X0206024Y0221498D01*
X0206002Y0221447D01*
X0205975Y0221398D01*
X0205946Y0221352D01*
X0205913Y0221307D01*
X0205876Y0221265D01*
X0205838Y0221225D01*
X0205796Y0221188D01*
X0205752Y0221154D01*
X0205705Y0221124D01*
X0205657Y0221097D01*
X0205607Y0221073D01*
X0205555Y0221053D01*
X0205502Y0221036D01*
X0205448Y0221024D01*
X0205393Y0221015D01*
X0205338Y0221010D01*
X0205282Y0221009D01*
X0205227Y0221012D01*
X0205172Y0221019D01*
X0205117Y0221030D01*
X0205063Y0221044D01*
X0205011Y0221062D01*
X0204960Y0221084D01*
X0204911Y0221110D01*
X0204863Y0221139D01*
X0204818Y0221171D01*
X0204775Y0221206D01*
X0204735Y0221244D01*
X0204697Y0221285D01*
X0204663Y0221329D01*
X0204631Y0221375D01*
X0204603Y0221423D01*
X0204579Y0221473D01*
X0204558Y0221524D01*
X0204540Y0221577D01*
X0204527Y0221631D01*
X0204517Y0221685D01*
X0204511Y0221740D01*
X0204509Y0221796D01*
X0206083Y0222583D02*
X0206083Y0258017D01*
X0241517Y0258017D01*
X0241517Y0222583D01*
X0206083Y0222583D01*
X0254236Y0254177D02*
X0254236Y0273862D01*
X0254433Y0273862D01*
X0252858Y0275831D01*
X0254433Y0273862D02*
X0283567Y0273862D01*
X0285142Y0275831D01*
X0283764Y0273862D02*
X0283567Y0273862D01*
X0283764Y0273862D02*
X0283764Y0254177D01*
X0254236Y0254177D01*
X0182031Y0156369D02*
X0182033Y0156432D01*
X0182039Y0156494D01*
X0182049Y0156556D01*
X0182062Y0156618D01*
X0182080Y0156678D01*
X0182101Y0156737D01*
X0182126Y0156795D01*
X0182155Y0156851D01*
X0182187Y0156905D01*
X0182222Y0156957D01*
X0182260Y0157006D01*
X0182302Y0157054D01*
X0182346Y0157098D01*
X0182394Y0157140D01*
X0182443Y0157178D01*
X0182495Y0157213D01*
X0182549Y0157245D01*
X0182605Y0157274D01*
X0182663Y0157299D01*
X0182722Y0157320D01*
X0182782Y0157338D01*
X0182844Y0157351D01*
X0182906Y0157361D01*
X0182968Y0157367D01*
X0183031Y0157369D01*
X0183094Y0157367D01*
X0183156Y0157361D01*
X0183218Y0157351D01*
X0183280Y0157338D01*
X0183340Y0157320D01*
X0183399Y0157299D01*
X0183457Y0157274D01*
X0183513Y0157245D01*
X0183567Y0157213D01*
X0183619Y0157178D01*
X0183668Y0157140D01*
X0183716Y0157098D01*
X0183760Y0157054D01*
X0183802Y0157006D01*
X0183840Y0156957D01*
X0183875Y0156905D01*
X0183907Y0156851D01*
X0183936Y0156795D01*
X0183961Y0156737D01*
X0183982Y0156678D01*
X0184000Y0156618D01*
X0184013Y0156556D01*
X0184023Y0156494D01*
X0184029Y0156432D01*
X0184031Y0156369D01*
X0184029Y0156306D01*
X0184023Y0156244D01*
X0184013Y0156182D01*
X0184000Y0156120D01*
X0183982Y0156060D01*
X0183961Y0156001D01*
X0183936Y0155943D01*
X0183907Y0155887D01*
X0183875Y0155833D01*
X0183840Y0155781D01*
X0183802Y0155732D01*
X0183760Y0155684D01*
X0183716Y0155640D01*
X0183668Y0155598D01*
X0183619Y0155560D01*
X0183567Y0155525D01*
X0183513Y0155493D01*
X0183457Y0155464D01*
X0183399Y0155439D01*
X0183340Y0155418D01*
X0183280Y0155400D01*
X0183218Y0155387D01*
X0183156Y0155377D01*
X0183094Y0155371D01*
X0183031Y0155369D01*
X0182968Y0155371D01*
X0182906Y0155377D01*
X0182844Y0155387D01*
X0182782Y0155400D01*
X0182722Y0155418D01*
X0182663Y0155439D01*
X0182605Y0155464D01*
X0182549Y0155493D01*
X0182495Y0155525D01*
X0182443Y0155560D01*
X0182394Y0155598D01*
X0182346Y0155640D01*
X0182302Y0155684D01*
X0182260Y0155732D01*
X0182222Y0155781D01*
X0182187Y0155833D01*
X0182155Y0155887D01*
X0182126Y0155943D01*
X0182101Y0156001D01*
X0182080Y0156060D01*
X0182062Y0156120D01*
X0182049Y0156182D01*
X0182039Y0156244D01*
X0182033Y0156306D01*
X0182031Y0156369D01*
X0106906Y0168294D02*
X0105724Y0168294D01*
X0106906Y0168294D02*
X0106906Y0169476D01*
X0106906Y0178924D02*
X0106906Y0180106D01*
X0105724Y0180106D01*
X0096276Y0180106D02*
X0095094Y0180106D01*
X0095094Y0178924D01*
X0095094Y0169476D02*
X0095094Y0168294D01*
X0096276Y0168294D01*
X0105240Y0074600D02*
X0105242Y0074658D01*
X0105248Y0074716D01*
X0105258Y0074773D01*
X0105271Y0074830D01*
X0105289Y0074885D01*
X0105310Y0074939D01*
X0105334Y0074992D01*
X0105363Y0075043D01*
X0105394Y0075091D01*
X0105429Y0075138D01*
X0105467Y0075182D01*
X0105507Y0075223D01*
X0105551Y0075262D01*
X0105597Y0075297D01*
X0105645Y0075330D01*
X0105695Y0075359D01*
X0105748Y0075384D01*
X0105801Y0075406D01*
X0105856Y0075425D01*
X0105913Y0075439D01*
X0105970Y0075450D01*
X0106027Y0075457D01*
X0106085Y0075460D01*
X0106144Y0075459D01*
X0106201Y0075454D01*
X0106259Y0075445D01*
X0106316Y0075433D01*
X0106371Y0075416D01*
X0106426Y0075396D01*
X0106479Y0075372D01*
X0106530Y0075345D01*
X0106579Y0075314D01*
X0106626Y0075280D01*
X0106671Y0075243D01*
X0106713Y0075203D01*
X0106753Y0075160D01*
X0106789Y0075115D01*
X0106822Y0075067D01*
X0106852Y0075017D01*
X0106878Y0074966D01*
X0106901Y0074912D01*
X0106921Y0074857D01*
X0106936Y0074801D01*
X0106948Y0074745D01*
X0106956Y0074687D01*
X0106960Y0074629D01*
X0106960Y0074571D01*
X0106956Y0074513D01*
X0106948Y0074455D01*
X0106936Y0074399D01*
X0106921Y0074343D01*
X0106901Y0074288D01*
X0106878Y0074234D01*
X0106852Y0074183D01*
X0106822Y0074133D01*
X0106789Y0074085D01*
X0106753Y0074040D01*
X0106713Y0073997D01*
X0106671Y0073957D01*
X0106626Y0073920D01*
X0106579Y0073886D01*
X0106530Y0073855D01*
X0106479Y0073828D01*
X0106426Y0073804D01*
X0106371Y0073784D01*
X0106316Y0073767D01*
X0106259Y0073755D01*
X0106201Y0073746D01*
X0106144Y0073741D01*
X0106085Y0073740D01*
X0106027Y0073743D01*
X0105970Y0073750D01*
X0105913Y0073761D01*
X0105856Y0073775D01*
X0105801Y0073794D01*
X0105748Y0073816D01*
X0105695Y0073841D01*
X0105645Y0073870D01*
X0105597Y0073903D01*
X0105551Y0073938D01*
X0105507Y0073977D01*
X0105467Y0074018D01*
X0105429Y0074062D01*
X0105394Y0074109D01*
X0105363Y0074157D01*
X0105334Y0074208D01*
X0105310Y0074261D01*
X0105289Y0074315D01*
X0105271Y0074370D01*
X0105258Y0074427D01*
X0105248Y0074484D01*
X0105242Y0074542D01*
X0105240Y0074600D01*
X0106000Y0074600D02*
X0106002Y0074620D01*
X0106008Y0074638D01*
X0106017Y0074656D01*
X0106029Y0074671D01*
X0106044Y0074683D01*
X0106062Y0074692D01*
X0106080Y0074698D01*
X0106100Y0074700D01*
X0106120Y0074698D01*
X0106138Y0074692D01*
X0106156Y0074683D01*
X0106171Y0074671D01*
X0106183Y0074656D01*
X0106192Y0074638D01*
X0106198Y0074620D01*
X0106200Y0074600D01*
X0106198Y0074580D01*
X0106192Y0074562D01*
X0106183Y0074544D01*
X0106171Y0074529D01*
X0106156Y0074517D01*
X0106138Y0074508D01*
X0106120Y0074502D01*
X0106100Y0074500D01*
X0106080Y0074502D01*
X0106062Y0074508D01*
X0106044Y0074517D01*
X0106029Y0074529D01*
X0106017Y0074544D01*
X0106008Y0074562D01*
X0106002Y0074580D01*
X0106000Y0074600D01*
X0105600Y0074600D02*
X0105602Y0074644D01*
X0105608Y0074688D01*
X0105618Y0074731D01*
X0105631Y0074773D01*
X0105648Y0074814D01*
X0105669Y0074853D01*
X0105693Y0074890D01*
X0105720Y0074925D01*
X0105750Y0074957D01*
X0105783Y0074987D01*
X0105819Y0075013D01*
X0105856Y0075037D01*
X0105896Y0075056D01*
X0105937Y0075073D01*
X0105980Y0075085D01*
X0106023Y0075094D01*
X0106067Y0075099D01*
X0106111Y0075100D01*
X0106155Y0075097D01*
X0106199Y0075090D01*
X0106242Y0075079D01*
X0106284Y0075065D01*
X0106324Y0075047D01*
X0106363Y0075025D01*
X0106399Y0075001D01*
X0106433Y0074973D01*
X0106465Y0074942D01*
X0106494Y0074908D01*
X0106520Y0074872D01*
X0106542Y0074834D01*
X0106561Y0074794D01*
X0106576Y0074752D01*
X0106588Y0074710D01*
X0106596Y0074666D01*
X0106600Y0074622D01*
X0106600Y0074578D01*
X0106596Y0074534D01*
X0106588Y0074490D01*
X0106576Y0074448D01*
X0106561Y0074406D01*
X0106542Y0074366D01*
X0106520Y0074328D01*
X0106494Y0074292D01*
X0106465Y0074258D01*
X0106433Y0074227D01*
X0106399Y0074199D01*
X0106363Y0074175D01*
X0106324Y0074153D01*
X0106284Y0074135D01*
X0106242Y0074121D01*
X0106199Y0074110D01*
X0106155Y0074103D01*
X0106111Y0074100D01*
X0106067Y0074101D01*
X0106023Y0074106D01*
X0105980Y0074115D01*
X0105937Y0074127D01*
X0105896Y0074144D01*
X0105856Y0074163D01*
X0105819Y0074187D01*
X0105783Y0074213D01*
X0105750Y0074243D01*
X0105720Y0074275D01*
X0105693Y0074310D01*
X0105669Y0074347D01*
X0105648Y0074386D01*
X0105631Y0074427D01*
X0105618Y0074469D01*
X0105608Y0074512D01*
X0105602Y0074556D01*
X0105600Y0074600D01*
X0086840Y0067100D02*
X0086842Y0067158D01*
X0086848Y0067216D01*
X0086858Y0067273D01*
X0086871Y0067330D01*
X0086889Y0067385D01*
X0086910Y0067439D01*
X0086934Y0067492D01*
X0086963Y0067543D01*
X0086994Y0067591D01*
X0087029Y0067638D01*
X0087067Y0067682D01*
X0087107Y0067723D01*
X0087151Y0067762D01*
X0087197Y0067797D01*
X0087245Y0067830D01*
X0087295Y0067859D01*
X0087348Y0067884D01*
X0087401Y0067906D01*
X0087456Y0067925D01*
X0087513Y0067939D01*
X0087570Y0067950D01*
X0087627Y0067957D01*
X0087685Y0067960D01*
X0087744Y0067959D01*
X0087801Y0067954D01*
X0087859Y0067945D01*
X0087916Y0067933D01*
X0087971Y0067916D01*
X0088026Y0067896D01*
X0088079Y0067872D01*
X0088130Y0067845D01*
X0088179Y0067814D01*
X0088226Y0067780D01*
X0088271Y0067743D01*
X0088313Y0067703D01*
X0088353Y0067660D01*
X0088389Y0067615D01*
X0088422Y0067567D01*
X0088452Y0067517D01*
X0088478Y0067466D01*
X0088501Y0067412D01*
X0088521Y0067357D01*
X0088536Y0067301D01*
X0088548Y0067245D01*
X0088556Y0067187D01*
X0088560Y0067129D01*
X0088560Y0067071D01*
X0088556Y0067013D01*
X0088548Y0066955D01*
X0088536Y0066899D01*
X0088521Y0066843D01*
X0088501Y0066788D01*
X0088478Y0066734D01*
X0088452Y0066683D01*
X0088422Y0066633D01*
X0088389Y0066585D01*
X0088353Y0066540D01*
X0088313Y0066497D01*
X0088271Y0066457D01*
X0088226Y0066420D01*
X0088179Y0066386D01*
X0088130Y0066355D01*
X0088079Y0066328D01*
X0088026Y0066304D01*
X0087971Y0066284D01*
X0087916Y0066267D01*
X0087859Y0066255D01*
X0087801Y0066246D01*
X0087744Y0066241D01*
X0087685Y0066240D01*
X0087627Y0066243D01*
X0087570Y0066250D01*
X0087513Y0066261D01*
X0087456Y0066275D01*
X0087401Y0066294D01*
X0087348Y0066316D01*
X0087295Y0066341D01*
X0087245Y0066370D01*
X0087197Y0066403D01*
X0087151Y0066438D01*
X0087107Y0066477D01*
X0087067Y0066518D01*
X0087029Y0066562D01*
X0086994Y0066609D01*
X0086963Y0066657D01*
X0086934Y0066708D01*
X0086910Y0066761D01*
X0086889Y0066815D01*
X0086871Y0066870D01*
X0086858Y0066927D01*
X0086848Y0066984D01*
X0086842Y0067042D01*
X0086840Y0067100D01*
X0087600Y0067100D02*
X0087602Y0067120D01*
X0087608Y0067138D01*
X0087617Y0067156D01*
X0087629Y0067171D01*
X0087644Y0067183D01*
X0087662Y0067192D01*
X0087680Y0067198D01*
X0087700Y0067200D01*
X0087720Y0067198D01*
X0087738Y0067192D01*
X0087756Y0067183D01*
X0087771Y0067171D01*
X0087783Y0067156D01*
X0087792Y0067138D01*
X0087798Y0067120D01*
X0087800Y0067100D01*
X0087798Y0067080D01*
X0087792Y0067062D01*
X0087783Y0067044D01*
X0087771Y0067029D01*
X0087756Y0067017D01*
X0087738Y0067008D01*
X0087720Y0067002D01*
X0087700Y0067000D01*
X0087680Y0067002D01*
X0087662Y0067008D01*
X0087644Y0067017D01*
X0087629Y0067029D01*
X0087617Y0067044D01*
X0087608Y0067062D01*
X0087602Y0067080D01*
X0087600Y0067100D01*
X0087200Y0067100D02*
X0087202Y0067144D01*
X0087208Y0067188D01*
X0087218Y0067231D01*
X0087231Y0067273D01*
X0087248Y0067314D01*
X0087269Y0067353D01*
X0087293Y0067390D01*
X0087320Y0067425D01*
X0087350Y0067457D01*
X0087383Y0067487D01*
X0087419Y0067513D01*
X0087456Y0067537D01*
X0087496Y0067556D01*
X0087537Y0067573D01*
X0087580Y0067585D01*
X0087623Y0067594D01*
X0087667Y0067599D01*
X0087711Y0067600D01*
X0087755Y0067597D01*
X0087799Y0067590D01*
X0087842Y0067579D01*
X0087884Y0067565D01*
X0087924Y0067547D01*
X0087963Y0067525D01*
X0087999Y0067501D01*
X0088033Y0067473D01*
X0088065Y0067442D01*
X0088094Y0067408D01*
X0088120Y0067372D01*
X0088142Y0067334D01*
X0088161Y0067294D01*
X0088176Y0067252D01*
X0088188Y0067210D01*
X0088196Y0067166D01*
X0088200Y0067122D01*
X0088200Y0067078D01*
X0088196Y0067034D01*
X0088188Y0066990D01*
X0088176Y0066948D01*
X0088161Y0066906D01*
X0088142Y0066866D01*
X0088120Y0066828D01*
X0088094Y0066792D01*
X0088065Y0066758D01*
X0088033Y0066727D01*
X0087999Y0066699D01*
X0087963Y0066675D01*
X0087924Y0066653D01*
X0087884Y0066635D01*
X0087842Y0066621D01*
X0087799Y0066610D01*
X0087755Y0066603D01*
X0087711Y0066600D01*
X0087667Y0066601D01*
X0087623Y0066606D01*
X0087580Y0066615D01*
X0087537Y0066627D01*
X0087496Y0066644D01*
X0087456Y0066663D01*
X0087419Y0066687D01*
X0087383Y0066713D01*
X0087350Y0066743D01*
X0087320Y0066775D01*
X0087293Y0066810D01*
X0087269Y0066847D01*
X0087248Y0066886D01*
X0087231Y0066927D01*
X0087218Y0066969D01*
X0087208Y0067012D01*
X0087202Y0067056D01*
X0087200Y0067100D01*
D15*
X0108087Y0167507D03*
D16*
X0100257Y0111943D02*
X0119943Y0111943D01*
X0119943Y0092257D01*
X0101832Y0092257D01*
X0100257Y0093832D01*
X0100257Y0111943D01*
X0100257Y0093832D02*
X0100257Y0092257D01*
X0101832Y0092257D01*
X0161926Y0090774D02*
X0161926Y0075026D01*
X0177674Y0075026D01*
X0177674Y0088806D01*
X0175706Y0090774D01*
X0177674Y0090774D01*
X0177674Y0088806D01*
X0175706Y0090774D02*
X0161926Y0090774D01*
D17*
X0265200Y0243400D03*
X0270200Y0243400D03*
M02*
