G75*
%MOIN*%
%OFA0B0*%
%FSLAX25Y25*%
%IPPOS*%
%LPD*%
%AMOC8*
5,1,8,0,0,1.08239X$1,22.5*
%
%ADD10R,0.04737X0.05131*%
%ADD11R,0.05131X0.04737*%
%ADD12R,0.02953X0.06693*%
%ADD13R,0.05315X0.03543*%
%ADD14R,0.06706X0.05918*%
%ADD15C,0.01421*%
%ADD16R,0.05131X0.01922*%
%ADD17R,0.01922X0.05131*%
%ADD18R,0.01969X0.04146*%
%ADD19R,0.03556X0.01902*%
%ADD20R,0.09448X0.06496*%
%ADD21R,0.07493X0.10249*%
%ADD22R,0.08280X0.05131*%
%ADD23C,0.08200*%
%ADD24R,0.04737X0.07493*%
%ADD25R,0.07493X0.04737*%
%ADD26R,0.03556X0.04343*%
%ADD27R,0.05131X0.08280*%
%ADD28R,0.03162X0.02375*%
%ADD29C,0.01706*%
%ADD30R,0.06706X0.03556*%
%ADD31R,0.03162X0.04737*%
%ADD32R,0.03950X0.04737*%
%ADD33C,0.04343*%
%ADD34R,0.02375X0.01784*%
%ADD35R,0.01784X0.02375*%
%ADD36R,0.10800X0.10800*%
%ADD37R,0.01587X0.08674*%
%ADD38R,0.08674X0.01587*%
%ADD39R,0.02375X0.06115*%
%ADD40R,0.09068X0.08674*%
%ADD41R,0.07099X0.08280*%
%ADD42R,0.05524X0.08280*%
%ADD43R,0.13989X0.09304*%
%ADD44R,0.04343X0.03556*%
%ADD45R,0.06693X0.02953*%
%ADD46R,0.03543X0.05315*%
%ADD47C,0.04762*%
%ADD48C,0.04800*%
D10*
X0110700Y0081154D03*
X0110700Y0087846D03*
X0137500Y0083046D03*
X0137500Y0076354D03*
X0159900Y0069546D03*
X0165900Y0069546D03*
X0165900Y0062854D03*
X0159900Y0062854D03*
X0193600Y0063454D03*
X0193600Y0070146D03*
X0198600Y0104354D03*
X0204700Y0104354D03*
X0204700Y0111046D03*
X0198600Y0111046D03*
X0138500Y0152854D03*
X0138500Y0159546D03*
X0112700Y0161854D03*
X0112700Y0168546D03*
X0091000Y0170754D03*
X0091000Y0177446D03*
X0124700Y0134646D03*
X0124700Y0127954D03*
X0094500Y0125646D03*
X0094500Y0118954D03*
X0152200Y0206454D03*
X0152200Y0213146D03*
X0132600Y0232854D03*
X0132600Y0239546D03*
X0125400Y0239446D03*
X0125400Y0232754D03*
X0118700Y0232554D03*
X0118700Y0239246D03*
X0110600Y0251854D03*
X0110600Y0258546D03*
X0094000Y0252246D03*
X0094000Y0245554D03*
X0094000Y0239746D03*
X0085900Y0239546D03*
X0085900Y0232854D03*
X0094000Y0233054D03*
X0085500Y0245854D03*
X0085500Y0252546D03*
X0077500Y0252446D03*
X0077500Y0245754D03*
X0195000Y0245246D03*
X0195000Y0238554D03*
X0199900Y0187046D03*
X0199900Y0180354D03*
X0208400Y0180554D03*
X0208400Y0187246D03*
X0250800Y0227954D03*
X0250800Y0234646D03*
D11*
X0214246Y0192900D03*
X0207554Y0192900D03*
X0207046Y0174900D03*
X0200354Y0174900D03*
X0197954Y0162600D03*
X0204646Y0162600D03*
X0203854Y0155700D03*
X0210546Y0155700D03*
X0239754Y0153400D03*
X0246446Y0153400D03*
X0246446Y0145600D03*
X0239754Y0145600D03*
X0190346Y0093800D03*
X0190346Y0088100D03*
X0183654Y0088100D03*
X0183654Y0093800D03*
X0183054Y0076300D03*
X0189746Y0076300D03*
X0201854Y0063500D03*
X0208546Y0063500D03*
X0151546Y0065300D03*
X0144854Y0065300D03*
X0132946Y0091600D03*
X0132946Y0097400D03*
X0126254Y0097400D03*
X0126254Y0091600D03*
X0126254Y0103500D03*
X0132946Y0103500D03*
X0135546Y0117700D03*
X0128854Y0117700D03*
X0144754Y0094100D03*
X0151446Y0094100D03*
G36*
X0108605Y0068746D02*
X0104978Y0072373D01*
X0108327Y0075722D01*
X0111954Y0072095D01*
X0108605Y0068746D01*
G37*
G36*
X0103873Y0073478D02*
X0100246Y0077105D01*
X0103595Y0080454D01*
X0107222Y0076827D01*
X0103873Y0073478D01*
G37*
G36*
X0102954Y0073105D02*
X0099327Y0069478D01*
X0095978Y0072827D01*
X0099605Y0076454D01*
X0102954Y0073105D01*
G37*
G36*
X0091846Y0076595D02*
X0095473Y0080222D01*
X0098822Y0076873D01*
X0095195Y0073246D01*
X0091846Y0076595D01*
G37*
G36*
X0083746Y0081995D02*
X0087373Y0085622D01*
X0090722Y0082273D01*
X0087095Y0078646D01*
X0083746Y0081995D01*
G37*
X0076146Y0091300D03*
X0069454Y0091300D03*
G36*
X0069878Y0076027D02*
X0073505Y0079654D01*
X0076854Y0076305D01*
X0073227Y0072678D01*
X0069878Y0076027D01*
G37*
G36*
X0065146Y0071295D02*
X0068773Y0074922D01*
X0072122Y0071573D01*
X0068495Y0067946D01*
X0065146Y0071295D01*
G37*
G36*
X0085195Y0072954D02*
X0088822Y0069327D01*
X0085473Y0065978D01*
X0081846Y0069605D01*
X0085195Y0072954D01*
G37*
G36*
X0098222Y0068373D02*
X0094595Y0064746D01*
X0091246Y0068095D01*
X0094873Y0071722D01*
X0098222Y0068373D01*
G37*
G36*
X0089927Y0068222D02*
X0093554Y0064595D01*
X0090205Y0061246D01*
X0086578Y0064873D01*
X0089927Y0068222D01*
G37*
G36*
X0096578Y0081327D02*
X0100205Y0084954D01*
X0103554Y0081605D01*
X0099927Y0077978D01*
X0096578Y0081327D01*
G37*
G36*
X0088478Y0086727D02*
X0092105Y0090354D01*
X0095454Y0087005D01*
X0091827Y0083378D01*
X0088478Y0086727D01*
G37*
X0088454Y0099600D03*
X0095146Y0099600D03*
X0075446Y0121300D03*
X0068754Y0121300D03*
X0091754Y0161700D03*
X0098446Y0161700D03*
X0122854Y0191600D03*
X0129546Y0191600D03*
X0109946Y0197400D03*
X0103254Y0197400D03*
X0083146Y0225600D03*
X0076454Y0225600D03*
X0118254Y0251700D03*
X0124946Y0251700D03*
X0130654Y0251700D03*
X0137346Y0251700D03*
X0167554Y0214600D03*
X0174246Y0214600D03*
X0181454Y0214600D03*
X0188146Y0214600D03*
X0172746Y0200800D03*
X0166054Y0200800D03*
D12*
X0121601Y0221800D03*
X0109199Y0221800D03*
D13*
X0110380Y0216682D03*
X0120420Y0216682D03*
X0120420Y0226918D03*
X0110380Y0226918D03*
D14*
X0218000Y0184540D03*
X0218000Y0177060D03*
X0217900Y0168040D03*
X0217900Y0160560D03*
D15*
X0251189Y0155058D02*
X0251189Y0151742D01*
X0251189Y0155058D02*
X0254505Y0155058D01*
X0254505Y0151742D01*
X0251189Y0151742D01*
X0251189Y0153162D02*
X0254505Y0153162D01*
X0254505Y0154582D02*
X0251189Y0154582D01*
X0258095Y0155058D02*
X0258095Y0151742D01*
X0258095Y0155058D02*
X0261411Y0155058D01*
X0261411Y0151742D01*
X0258095Y0151742D01*
X0258095Y0153162D02*
X0261411Y0153162D01*
X0261411Y0154582D02*
X0258095Y0154582D01*
X0257995Y0147258D02*
X0257995Y0143942D01*
X0257995Y0147258D02*
X0261311Y0147258D01*
X0261311Y0143942D01*
X0257995Y0143942D01*
X0257995Y0145362D02*
X0261311Y0145362D01*
X0261311Y0146782D02*
X0257995Y0146782D01*
X0251089Y0147258D02*
X0251089Y0143942D01*
X0251089Y0147258D02*
X0254405Y0147258D01*
X0254405Y0143942D01*
X0251089Y0143942D01*
X0251089Y0145362D02*
X0254405Y0145362D01*
X0254405Y0146782D02*
X0251089Y0146782D01*
X0071358Y0247205D02*
X0068042Y0247205D01*
X0071358Y0247205D02*
X0071358Y0243889D01*
X0068042Y0243889D01*
X0068042Y0247205D01*
X0068042Y0245309D02*
X0071358Y0245309D01*
X0071358Y0246729D02*
X0068042Y0246729D01*
X0068042Y0254111D02*
X0071358Y0254111D01*
X0071358Y0250795D01*
X0068042Y0250795D01*
X0068042Y0254111D01*
X0068042Y0252215D02*
X0071358Y0252215D01*
X0071358Y0253635D02*
X0068042Y0253635D01*
D16*
X0145559Y0186164D03*
X0145559Y0184195D03*
X0145559Y0182227D03*
X0145559Y0180258D03*
X0145559Y0178290D03*
X0145559Y0176321D03*
X0145559Y0174353D03*
X0145559Y0172384D03*
X0145559Y0170416D03*
X0145559Y0168447D03*
X0145559Y0166479D03*
X0145559Y0164510D03*
X0145559Y0162542D03*
X0145559Y0160573D03*
X0145559Y0158605D03*
X0145559Y0156636D03*
X0190441Y0156636D03*
X0190441Y0158605D03*
X0190441Y0160573D03*
X0190441Y0162542D03*
X0190441Y0164510D03*
X0190441Y0166479D03*
X0190441Y0168447D03*
X0190441Y0170416D03*
X0190441Y0172384D03*
X0190441Y0174353D03*
X0190441Y0176321D03*
X0190441Y0178290D03*
X0190441Y0180258D03*
X0190441Y0182227D03*
X0190441Y0184195D03*
X0190441Y0186164D03*
D17*
X0182764Y0193841D03*
X0180795Y0193841D03*
X0178827Y0193841D03*
X0176858Y0193841D03*
X0174890Y0193841D03*
X0172921Y0193841D03*
X0170953Y0193841D03*
X0168984Y0193841D03*
X0167016Y0193841D03*
X0165047Y0193841D03*
X0163079Y0193841D03*
X0161110Y0193841D03*
X0159142Y0193841D03*
X0157173Y0193841D03*
X0155205Y0193841D03*
X0153236Y0193841D03*
X0153236Y0148959D03*
X0155205Y0148959D03*
X0157173Y0148959D03*
X0159142Y0148959D03*
X0161110Y0148959D03*
X0163079Y0148959D03*
X0165047Y0148959D03*
X0167016Y0148959D03*
X0168984Y0148959D03*
X0170953Y0148959D03*
X0172921Y0148959D03*
X0174890Y0148959D03*
X0176858Y0148959D03*
X0178827Y0148959D03*
X0180795Y0148959D03*
X0182764Y0148959D03*
D18*
X0111637Y0234093D03*
X0109669Y0234093D03*
X0107700Y0234093D03*
X0105731Y0234093D03*
X0103763Y0234093D03*
X0103763Y0245707D03*
X0105731Y0245707D03*
X0107700Y0245707D03*
X0109669Y0245707D03*
X0111637Y0245707D03*
D19*
X0113606Y0240884D03*
X0113606Y0238916D03*
X0101794Y0238916D03*
X0101794Y0240884D03*
D20*
X0107700Y0239900D03*
D21*
X0170617Y0225600D03*
X0185183Y0225600D03*
D22*
X0143483Y0207628D03*
X0143483Y0198572D03*
X0128917Y0198572D03*
X0128917Y0207628D03*
D23*
X0071800Y0168800D03*
X0071800Y0158800D03*
X0284900Y0160800D03*
X0284900Y0150800D03*
X0284900Y0140800D03*
X0284900Y0130800D03*
X0284900Y0120800D03*
X0284900Y0110800D03*
X0284900Y0100800D03*
X0284900Y0090800D03*
X0284900Y0080800D03*
X0284900Y0170800D03*
X0284900Y0180800D03*
X0284900Y0190800D03*
X0284900Y0200800D03*
X0284900Y0210800D03*
X0284900Y0220800D03*
D24*
X0133821Y0046800D03*
X0123979Y0046800D03*
D25*
X0233100Y0046479D03*
X0233100Y0056321D03*
D26*
X0188959Y0070600D03*
X0183841Y0070600D03*
X0178859Y0070600D03*
X0173741Y0070600D03*
X0175759Y0065400D03*
X0170641Y0065400D03*
D27*
X0152628Y0072317D03*
X0143572Y0072317D03*
X0143572Y0086883D03*
X0152628Y0086883D03*
X0076128Y0098617D03*
X0067072Y0098617D03*
X0067072Y0113183D03*
X0076128Y0113183D03*
D28*
X0101739Y0118913D03*
X0101739Y0123638D03*
X0101739Y0128362D03*
X0101739Y0133087D03*
X0119061Y0133087D03*
X0119061Y0128362D03*
X0119061Y0123638D03*
X0119061Y0118913D03*
D29*
X0104937Y0167566D02*
X0104937Y0169022D01*
X0103362Y0169022D02*
X0103362Y0167566D01*
X0101787Y0167566D02*
X0101787Y0169022D01*
X0100213Y0169022D02*
X0100213Y0167566D01*
X0098638Y0167566D02*
X0098638Y0169022D01*
X0097063Y0169022D02*
X0097063Y0167566D01*
X0095822Y0170263D02*
X0094366Y0170263D01*
X0094366Y0171838D02*
X0095822Y0171838D01*
X0095822Y0173413D02*
X0094366Y0173413D01*
X0094366Y0174987D02*
X0095822Y0174987D01*
X0095822Y0176562D02*
X0094366Y0176562D01*
X0094366Y0178137D02*
X0095822Y0178137D01*
X0097063Y0179378D02*
X0097063Y0180834D01*
X0098638Y0180834D02*
X0098638Y0179378D01*
X0100213Y0179378D02*
X0100213Y0180834D01*
X0101787Y0180834D02*
X0101787Y0179378D01*
X0103362Y0179378D02*
X0103362Y0180834D01*
X0104937Y0180834D02*
X0104937Y0179378D01*
X0106178Y0178137D02*
X0107634Y0178137D01*
X0107634Y0176562D02*
X0106178Y0176562D01*
X0106178Y0174987D02*
X0107634Y0174987D01*
X0107634Y0173413D02*
X0106178Y0173413D01*
X0106178Y0171838D02*
X0107634Y0171838D01*
X0107634Y0170263D02*
X0106178Y0170263D01*
D30*
X0069590Y0196242D03*
X0069590Y0202147D03*
X0069590Y0213958D03*
D31*
X0058763Y0219470D03*
X0058763Y0190730D03*
D32*
X0067031Y0190730D03*
X0067031Y0219470D03*
D33*
X0062700Y0211006D03*
X0062700Y0199194D03*
D34*
X0101045Y0108990D03*
X0101045Y0107021D03*
X0101045Y0105053D03*
X0101045Y0103084D03*
X0101045Y0101116D03*
X0101045Y0099147D03*
X0101045Y0097179D03*
X0101045Y0095210D03*
X0119155Y0095210D03*
X0119155Y0097179D03*
X0119155Y0099147D03*
X0119155Y0101116D03*
X0119155Y0103084D03*
X0119155Y0105053D03*
X0119155Y0107021D03*
X0119155Y0108990D03*
X0162713Y0086837D03*
X0162713Y0084869D03*
X0162713Y0082900D03*
X0162713Y0080931D03*
X0162713Y0078963D03*
X0176887Y0078963D03*
X0176887Y0080931D03*
X0176887Y0082900D03*
X0176887Y0084869D03*
X0176887Y0086837D03*
D35*
X0173737Y0089987D03*
X0171769Y0089987D03*
X0169800Y0089987D03*
X0167831Y0089987D03*
X0165863Y0089987D03*
X0165863Y0075813D03*
X0167831Y0075813D03*
X0169800Y0075813D03*
X0171769Y0075813D03*
X0173737Y0075813D03*
X0116990Y0093045D03*
X0115021Y0093045D03*
X0113053Y0093045D03*
X0111084Y0093045D03*
X0109116Y0093045D03*
X0107147Y0093045D03*
X0105179Y0093045D03*
X0103210Y0093045D03*
X0103210Y0111155D03*
X0105179Y0111155D03*
X0107147Y0111155D03*
X0109116Y0111155D03*
X0111084Y0111155D03*
X0113053Y0111155D03*
X0115021Y0111155D03*
X0116990Y0111155D03*
D36*
X0110100Y0102100D03*
D37*
X0212973Y0220615D03*
X0214942Y0220615D03*
X0216910Y0220615D03*
X0218879Y0220615D03*
X0220847Y0220615D03*
X0222816Y0220615D03*
X0224784Y0220615D03*
X0226753Y0220615D03*
X0228721Y0220615D03*
X0230690Y0220615D03*
X0232658Y0220615D03*
X0234627Y0220615D03*
X0234627Y0259985D03*
X0232658Y0259985D03*
X0230690Y0259985D03*
X0228721Y0259985D03*
X0226753Y0259985D03*
X0224784Y0259985D03*
X0222816Y0259985D03*
X0220847Y0259985D03*
X0218879Y0259985D03*
X0216910Y0259985D03*
X0214942Y0259985D03*
X0212973Y0259985D03*
D38*
X0204115Y0251127D03*
X0204115Y0249158D03*
X0204115Y0247190D03*
X0204115Y0245221D03*
X0204115Y0243253D03*
X0204115Y0241284D03*
X0204115Y0239316D03*
X0204115Y0237347D03*
X0204115Y0235379D03*
X0204115Y0233410D03*
X0204115Y0231442D03*
X0204115Y0229473D03*
X0243485Y0229473D03*
X0243485Y0231442D03*
X0243485Y0233410D03*
X0243485Y0235379D03*
X0243485Y0237347D03*
X0243485Y0239316D03*
X0243485Y0241284D03*
X0243485Y0243253D03*
X0243485Y0245221D03*
X0243485Y0247190D03*
X0243485Y0249158D03*
X0243485Y0251127D03*
D39*
X0263882Y0255260D03*
X0266441Y0255260D03*
X0269000Y0255260D03*
X0271559Y0255260D03*
X0274118Y0255260D03*
D40*
X0281205Y0256539D03*
X0256795Y0256539D03*
D41*
X0252858Y0265791D03*
X0285142Y0265791D03*
D42*
X0272346Y0265791D03*
X0265654Y0265791D03*
D43*
X0184990Y0262100D03*
X0146210Y0262100D03*
D44*
X0265200Y0245959D03*
X0270200Y0245959D03*
X0270200Y0240841D03*
X0265200Y0240841D03*
D45*
X0282300Y0242201D03*
X0282300Y0229799D03*
D46*
X0277182Y0230980D03*
X0277182Y0241020D03*
X0287418Y0241020D03*
X0287418Y0230980D03*
D47*
X0061600Y0063500D03*
X0066600Y0063500D03*
X0071600Y0063500D03*
X0076600Y0063500D03*
X0081600Y0063500D03*
X0085600Y0059500D03*
X0089600Y0055500D03*
X0093300Y0051400D03*
X0098100Y0047500D03*
X0100900Y0043200D03*
X0107100Y0043500D03*
X0112100Y0043500D03*
X0117100Y0043500D03*
X0117600Y0050500D03*
X0112600Y0050500D03*
X0107600Y0050500D03*
X0103100Y0052500D03*
X0105600Y0057500D03*
X0100600Y0057500D03*
X0110600Y0057500D03*
X0115600Y0057500D03*
X0120600Y0057500D03*
X0125600Y0057500D03*
X0130600Y0056500D03*
X0130600Y0061500D03*
X0130600Y0066500D03*
X0130600Y0071500D03*
X0130600Y0076500D03*
X0130600Y0081500D03*
X0132600Y0086000D03*
X0138100Y0088500D03*
X0138600Y0094000D03*
X0139100Y0099000D03*
X0144600Y0099500D03*
X0150600Y0100500D03*
X0152100Y0106500D03*
X0146600Y0105500D03*
X0150600Y0112500D03*
X0150600Y0117500D03*
X0150600Y0122500D03*
X0150600Y0127500D03*
X0151600Y0136000D03*
X0158600Y0126000D03*
X0159100Y0116500D03*
X0164100Y0111500D03*
X0160600Y0108000D03*
X0158600Y0099000D03*
X0167600Y0115500D03*
X0169900Y0122500D03*
X0177600Y0124500D03*
X0177600Y0119500D03*
X0177600Y0114500D03*
X0177600Y0109500D03*
X0177600Y0104500D03*
X0181300Y0100000D03*
X0186600Y0100300D03*
X0191600Y0100500D03*
X0195600Y0097500D03*
X0195600Y0092500D03*
X0195600Y0087500D03*
X0200300Y0080800D03*
X0196600Y0076500D03*
X0198600Y0071500D03*
X0203900Y0072100D03*
X0208600Y0072500D03*
X0213600Y0072500D03*
X0218600Y0072500D03*
X0218600Y0067500D03*
X0218600Y0062500D03*
X0218600Y0057500D03*
X0213600Y0057500D03*
X0208600Y0057500D03*
X0203600Y0057500D03*
X0198600Y0057500D03*
X0201100Y0053000D03*
X0205600Y0050000D03*
X0210600Y0050000D03*
X0215600Y0050000D03*
X0220600Y0050000D03*
X0225600Y0050000D03*
X0225600Y0043000D03*
X0220600Y0043000D03*
X0215600Y0043000D03*
X0210600Y0043000D03*
X0205600Y0043000D03*
X0200600Y0043500D03*
X0196600Y0047500D03*
X0192600Y0051500D03*
X0189100Y0056500D03*
X0184600Y0060500D03*
X0179600Y0060500D03*
X0175600Y0057500D03*
X0170600Y0057500D03*
X0165600Y0057500D03*
X0160600Y0057500D03*
X0155600Y0057500D03*
X0150600Y0057500D03*
X0145600Y0057500D03*
X0140600Y0057500D03*
X0135600Y0057500D03*
X0123600Y0084500D03*
X0116300Y0083900D03*
X0110100Y0102100D03*
X0099100Y0113600D03*
X0087600Y0108500D03*
X0088100Y0120000D03*
X0093700Y0131700D03*
X0100800Y0138400D03*
X0106700Y0135300D03*
X0107600Y0128700D03*
X0113700Y0129200D03*
X0114700Y0137600D03*
X0119600Y0144000D03*
X0117300Y0153100D03*
X0108600Y0151000D03*
X0103600Y0151000D03*
X0098600Y0151000D03*
X0093600Y0150000D03*
X0104000Y0156100D03*
X0106100Y0162500D03*
X0113900Y0174300D03*
X0108400Y0181300D03*
X0102200Y0186000D03*
X0097100Y0193600D03*
X0076600Y0196500D03*
X0089300Y0225400D03*
X0097000Y0223500D03*
X0099600Y0233200D03*
X0099100Y0257700D03*
X0122200Y0258400D03*
X0139500Y0226100D03*
X0166100Y0245500D03*
X0188600Y0250500D03*
X0202500Y0258300D03*
X0228000Y0236700D03*
X0245100Y0260500D03*
X0278600Y0249200D03*
X0284900Y0249400D03*
X0276100Y0225500D03*
X0227600Y0179000D03*
X0220500Y0193400D03*
X0201400Y0169300D03*
X0196500Y0168100D03*
X0196500Y0155600D03*
X0210600Y0165300D03*
X0229300Y0147000D03*
X0226300Y0142000D03*
X0222200Y0137900D03*
X0218400Y0133600D03*
X0214800Y0129100D03*
X0211200Y0124900D03*
X0206400Y0121400D03*
X0202500Y0118000D03*
X0194200Y0119900D03*
X0190200Y0123800D03*
X0190200Y0115200D03*
X0187300Y0107900D03*
X0187400Y0107800D03*
X0142600Y0139000D03*
X0144200Y0144400D03*
X0145800Y0150200D03*
X0156600Y0154500D03*
X0161600Y0160500D03*
X0156600Y0165500D03*
X0151600Y0167500D03*
X0153600Y0172000D03*
X0152600Y0180000D03*
X0164100Y0172500D03*
X0171100Y0171500D03*
X0171700Y0164700D03*
X0177100Y0167600D03*
X0166600Y0154500D03*
X0172600Y0180000D03*
X0176100Y0184500D03*
X0131000Y0133600D03*
X0131600Y0126000D03*
X0123300Y0117200D03*
X0113600Y0118300D03*
X0105600Y0144000D03*
X0082800Y0143700D03*
X0082600Y0138500D03*
X0082600Y0133500D03*
X0077600Y0138500D03*
X0072600Y0138500D03*
X0067600Y0138500D03*
X0061600Y0138500D03*
X0061600Y0133500D03*
X0061600Y0128500D03*
X0061600Y0123500D03*
X0061600Y0118500D03*
X0061600Y0113500D03*
X0061600Y0108500D03*
X0061600Y0103500D03*
X0061600Y0098500D03*
X0061600Y0093500D03*
X0061600Y0088500D03*
X0061600Y0083500D03*
X0061600Y0078500D03*
X0061600Y0073500D03*
X0061600Y0068500D03*
X0082600Y0078500D03*
X0097300Y0091000D03*
X0072700Y0129700D03*
X0083100Y0165500D03*
D48*
X0076800Y0202200D03*
X0131700Y0226600D03*
X0152100Y0186500D03*
X0186100Y0240000D03*
X0195400Y0254300D03*
X0213100Y0246500D03*
X0226100Y0252000D03*
X0224100Y0231500D03*
X0217100Y0230500D03*
X0212100Y0232500D03*
X0173100Y0245500D03*
M02*
