G75*
%MOIN*%
%OFA0B0*%
%FSLAX25Y25*%
%IPPOS*%
%LPD*%
%AMOC8*
5,1,8,0,0,1.08239X$1,22.5*
%
%ADD10C,0.08200*%
%ADD11C,0.04343*%
%ADD12C,0.04762*%
%ADD13C,0.04800*%
D10*
X0071800Y0158800D03*
X0071800Y0168800D03*
X0284900Y0170800D03*
X0284900Y0160800D03*
X0284900Y0150800D03*
X0284900Y0140800D03*
X0284900Y0130800D03*
X0284900Y0120800D03*
X0284900Y0110800D03*
X0284900Y0100800D03*
X0284900Y0090800D03*
X0284900Y0080800D03*
X0284900Y0180800D03*
X0284900Y0190800D03*
X0284900Y0200800D03*
X0284900Y0210800D03*
X0284900Y0220800D03*
D11*
X0062700Y0211006D03*
X0062700Y0199194D03*
D12*
X0061600Y0063500D03*
X0066600Y0063500D03*
X0071600Y0063500D03*
X0076600Y0063500D03*
X0081600Y0063500D03*
X0085600Y0059500D03*
X0089600Y0055500D03*
X0093300Y0051400D03*
X0098100Y0047500D03*
X0100900Y0043200D03*
X0107100Y0043500D03*
X0112100Y0043500D03*
X0117100Y0043500D03*
X0117600Y0050500D03*
X0112600Y0050500D03*
X0107600Y0050500D03*
X0103100Y0052500D03*
X0105600Y0057500D03*
X0100600Y0057500D03*
X0110600Y0057500D03*
X0115600Y0057500D03*
X0120600Y0057500D03*
X0125600Y0057500D03*
X0130600Y0056500D03*
X0130600Y0061500D03*
X0130600Y0066500D03*
X0130600Y0071500D03*
X0130600Y0076500D03*
X0130600Y0081500D03*
X0132600Y0086000D03*
X0138100Y0088500D03*
X0138600Y0094000D03*
X0139100Y0099000D03*
X0144600Y0099500D03*
X0150600Y0100500D03*
X0152100Y0106500D03*
X0146600Y0105500D03*
X0150600Y0112500D03*
X0150600Y0117500D03*
X0150600Y0122500D03*
X0150600Y0127500D03*
X0151600Y0136000D03*
X0158600Y0126000D03*
X0159100Y0116500D03*
X0164100Y0111500D03*
X0160600Y0108000D03*
X0158600Y0099000D03*
X0167600Y0115500D03*
X0169900Y0122500D03*
X0177600Y0124500D03*
X0177600Y0119500D03*
X0177600Y0114500D03*
X0177600Y0109500D03*
X0177600Y0104500D03*
X0181300Y0100000D03*
X0186600Y0100300D03*
X0191600Y0100500D03*
X0195600Y0097500D03*
X0195600Y0092500D03*
X0195600Y0087500D03*
X0200300Y0080800D03*
X0196600Y0076500D03*
X0198600Y0071500D03*
X0203900Y0072100D03*
X0208600Y0072500D03*
X0213600Y0072500D03*
X0218600Y0072500D03*
X0218600Y0067500D03*
X0218600Y0062500D03*
X0218600Y0057500D03*
X0213600Y0057500D03*
X0208600Y0057500D03*
X0203600Y0057500D03*
X0198600Y0057500D03*
X0201100Y0053000D03*
X0205600Y0050000D03*
X0210600Y0050000D03*
X0215600Y0050000D03*
X0220600Y0050000D03*
X0225600Y0050000D03*
X0225600Y0043000D03*
X0220600Y0043000D03*
X0215600Y0043000D03*
X0210600Y0043000D03*
X0205600Y0043000D03*
X0200600Y0043500D03*
X0196600Y0047500D03*
X0192600Y0051500D03*
X0189100Y0056500D03*
X0184600Y0060500D03*
X0179600Y0060500D03*
X0175600Y0057500D03*
X0170600Y0057500D03*
X0165600Y0057500D03*
X0160600Y0057500D03*
X0155600Y0057500D03*
X0150600Y0057500D03*
X0145600Y0057500D03*
X0140600Y0057500D03*
X0135600Y0057500D03*
X0123600Y0084500D03*
X0116300Y0083900D03*
X0110100Y0102100D03*
X0099100Y0113600D03*
X0087600Y0108500D03*
X0088100Y0120000D03*
X0093700Y0131700D03*
X0100800Y0138400D03*
X0106700Y0135300D03*
X0107600Y0128700D03*
X0113700Y0129200D03*
X0114700Y0137600D03*
X0119600Y0144000D03*
X0117300Y0153100D03*
X0108600Y0151000D03*
X0103600Y0151000D03*
X0098600Y0151000D03*
X0093600Y0150000D03*
X0104000Y0156100D03*
X0106100Y0162500D03*
X0113900Y0174300D03*
X0108400Y0181300D03*
X0102200Y0186000D03*
X0097100Y0193600D03*
X0076600Y0196500D03*
X0089300Y0225400D03*
X0097000Y0223500D03*
X0099600Y0233200D03*
X0099100Y0257700D03*
X0122200Y0258400D03*
X0139500Y0226100D03*
X0166100Y0245500D03*
X0188600Y0250500D03*
X0202500Y0258300D03*
X0228000Y0236700D03*
X0245100Y0260500D03*
X0278600Y0249200D03*
X0284900Y0249400D03*
X0276100Y0225500D03*
X0227600Y0179000D03*
X0220500Y0193400D03*
X0201400Y0169300D03*
X0196500Y0168100D03*
X0196500Y0155600D03*
X0210600Y0165300D03*
X0229300Y0147000D03*
X0226300Y0142000D03*
X0222200Y0137900D03*
X0218400Y0133600D03*
X0214800Y0129100D03*
X0211200Y0124900D03*
X0206400Y0121400D03*
X0202500Y0118000D03*
X0194200Y0119900D03*
X0190200Y0123800D03*
X0190200Y0115200D03*
X0187300Y0107900D03*
X0187400Y0107800D03*
X0142600Y0139000D03*
X0144200Y0144400D03*
X0145800Y0150200D03*
X0156600Y0154500D03*
X0161600Y0160500D03*
X0156600Y0165500D03*
X0151600Y0167500D03*
X0153600Y0172000D03*
X0152600Y0180000D03*
X0164100Y0172500D03*
X0171100Y0171500D03*
X0171700Y0164700D03*
X0177100Y0167600D03*
X0166600Y0154500D03*
X0172600Y0180000D03*
X0176100Y0184500D03*
X0131000Y0133600D03*
X0131600Y0126000D03*
X0123300Y0117200D03*
X0113600Y0118300D03*
X0105600Y0144000D03*
X0082800Y0143700D03*
X0082600Y0138500D03*
X0082600Y0133500D03*
X0077600Y0138500D03*
X0072600Y0138500D03*
X0067600Y0138500D03*
X0061600Y0138500D03*
X0061600Y0133500D03*
X0061600Y0128500D03*
X0061600Y0123500D03*
X0061600Y0118500D03*
X0061600Y0113500D03*
X0061600Y0108500D03*
X0061600Y0103500D03*
X0061600Y0098500D03*
X0061600Y0093500D03*
X0061600Y0088500D03*
X0061600Y0083500D03*
X0061600Y0078500D03*
X0061600Y0073500D03*
X0061600Y0068500D03*
X0082600Y0078500D03*
X0097300Y0091000D03*
X0072700Y0129700D03*
X0083100Y0165500D03*
D13*
X0076800Y0202200D03*
X0131700Y0226600D03*
X0152100Y0186500D03*
X0186100Y0240000D03*
X0195400Y0254300D03*
X0213100Y0246500D03*
X0226100Y0252000D03*
X0224100Y0231500D03*
X0217100Y0230500D03*
X0212100Y0232500D03*
X0173100Y0245500D03*
M02*
