G75*
%MOIN*%
%OFA0B0*%
%FSLAX25Y25*%
%IPPOS*%
%LPD*%
%AMOC8*
5,1,8,0,0,1.08239X$1,22.5*
%
%ADD10C,0.07400*%
%ADD11C,0.03962*%
%ADD12C,0.01000*%
%ADD13C,0.02400*%
%ADD14C,0.04000*%
%ADD15C,0.03200*%
%ADD16C,0.00700*%
%ADD17C,0.01600*%
D10*
X0071800Y0158800D03*
X0071800Y0168800D03*
X0284900Y0170800D03*
X0284900Y0160800D03*
X0284900Y0150800D03*
X0284900Y0140800D03*
X0284900Y0130800D03*
X0284900Y0120800D03*
X0284900Y0110800D03*
X0284900Y0100800D03*
X0284900Y0090800D03*
X0284900Y0080800D03*
X0284900Y0180800D03*
X0284900Y0190800D03*
X0284900Y0200800D03*
X0284900Y0210800D03*
X0284900Y0220800D03*
D11*
X0276100Y0225500D03*
X0278600Y0249200D03*
X0284900Y0249400D03*
X0245100Y0260500D03*
X0228000Y0236700D03*
X0202500Y0258300D03*
X0188600Y0250500D03*
X0166100Y0245500D03*
X0139500Y0226100D03*
X0113500Y0206700D03*
X0097100Y0193600D03*
X0102200Y0186000D03*
X0108400Y0181300D03*
X0113900Y0174300D03*
X0106100Y0162500D03*
X0104000Y0156100D03*
X0103600Y0151000D03*
X0098600Y0151000D03*
X0093600Y0150000D03*
X0082800Y0143700D03*
X0082600Y0138500D03*
X0082600Y0133500D03*
X0077600Y0138500D03*
X0072600Y0138500D03*
X0067600Y0138500D03*
X0061600Y0138500D03*
X0061600Y0133500D03*
X0061600Y0128500D03*
X0061600Y0123500D03*
X0061600Y0118500D03*
X0061600Y0113500D03*
X0061600Y0108500D03*
X0061600Y0103500D03*
X0061600Y0098500D03*
X0061600Y0093500D03*
X0061600Y0088500D03*
X0061600Y0083500D03*
X0061600Y0078500D03*
X0061600Y0073500D03*
X0061600Y0068500D03*
X0061600Y0063500D03*
X0066600Y0063500D03*
X0071600Y0063500D03*
X0076600Y0063500D03*
X0081600Y0063500D03*
X0085600Y0059500D03*
X0089600Y0055500D03*
X0093300Y0051400D03*
X0098100Y0047500D03*
X0100900Y0043200D03*
X0107100Y0043500D03*
X0112100Y0043500D03*
X0117100Y0043500D03*
X0117600Y0050500D03*
X0112600Y0050500D03*
X0107600Y0050500D03*
X0103100Y0052500D03*
X0105600Y0057500D03*
X0100600Y0057500D03*
X0110600Y0057500D03*
X0115600Y0057500D03*
X0120600Y0057500D03*
X0125600Y0057500D03*
X0130600Y0056500D03*
X0130600Y0061500D03*
X0130600Y0066500D03*
X0130600Y0071500D03*
X0130600Y0076500D03*
X0130600Y0081500D03*
X0132600Y0086000D03*
X0138100Y0088500D03*
X0138600Y0094000D03*
X0139100Y0099000D03*
X0144600Y0099500D03*
X0150600Y0100500D03*
X0152100Y0106500D03*
X0146600Y0105500D03*
X0150600Y0112500D03*
X0150600Y0117500D03*
X0150600Y0122500D03*
X0150600Y0127500D03*
X0151600Y0136000D03*
X0158600Y0126000D03*
X0159100Y0116500D03*
X0164100Y0111500D03*
X0160600Y0108000D03*
X0158600Y0099000D03*
X0167600Y0115500D03*
X0169900Y0122500D03*
X0177600Y0124500D03*
X0177600Y0119500D03*
X0177600Y0114500D03*
X0177600Y0109500D03*
X0177600Y0104500D03*
X0181300Y0100000D03*
X0186600Y0100300D03*
X0191600Y0100500D03*
X0195600Y0097500D03*
X0195600Y0092500D03*
X0195600Y0087500D03*
X0200300Y0080800D03*
X0196600Y0076500D03*
X0198600Y0071500D03*
X0203900Y0072100D03*
X0208600Y0072500D03*
X0213600Y0072500D03*
X0218600Y0072500D03*
X0218600Y0067500D03*
X0218600Y0062500D03*
X0218600Y0057500D03*
X0213600Y0057500D03*
X0208600Y0057500D03*
X0203600Y0057500D03*
X0198600Y0057500D03*
X0201100Y0053000D03*
X0205600Y0050000D03*
X0210600Y0050000D03*
X0215600Y0050000D03*
X0220600Y0050000D03*
X0225600Y0050000D03*
X0225600Y0043000D03*
X0220600Y0043000D03*
X0215600Y0043000D03*
X0210600Y0043000D03*
X0205600Y0043000D03*
X0200600Y0043500D03*
X0196600Y0047500D03*
X0192600Y0051500D03*
X0189100Y0056500D03*
X0184600Y0060500D03*
X0179600Y0060500D03*
X0175600Y0057500D03*
X0170600Y0057500D03*
X0165600Y0057500D03*
X0160600Y0057500D03*
X0155600Y0057500D03*
X0150600Y0057500D03*
X0145600Y0057500D03*
X0140600Y0057500D03*
X0135600Y0057500D03*
X0119700Y0067500D03*
X0116300Y0083900D03*
X0123600Y0084500D03*
X0110100Y0102100D03*
X0099100Y0113600D03*
X0087600Y0108500D03*
X0088100Y0120000D03*
X0093700Y0131700D03*
X0100800Y0138400D03*
X0106700Y0135300D03*
X0107600Y0128700D03*
X0113700Y0129200D03*
X0114700Y0137600D03*
X0119600Y0144000D03*
X0117300Y0153100D03*
X0108600Y0151000D03*
X0105600Y0144000D03*
X0083100Y0165500D03*
X0060000Y0178000D03*
X0076600Y0196500D03*
X0089300Y0225400D03*
X0097000Y0223500D03*
X0099600Y0233200D03*
X0099100Y0257700D03*
X0122200Y0258400D03*
X0062400Y0249700D03*
X0061900Y0265900D03*
X0062200Y0231700D03*
X0060600Y0149600D03*
X0072700Y0129700D03*
X0113600Y0118300D03*
X0123300Y0117200D03*
X0131600Y0126000D03*
X0131000Y0133600D03*
X0142600Y0139000D03*
X0144200Y0144400D03*
X0145800Y0150200D03*
X0156600Y0154500D03*
X0161600Y0160500D03*
X0156600Y0165500D03*
X0151600Y0167500D03*
X0153600Y0172000D03*
X0152600Y0180000D03*
X0164100Y0172500D03*
X0171100Y0171500D03*
X0171700Y0164700D03*
X0177100Y0167600D03*
X0166600Y0154500D03*
X0172600Y0180000D03*
X0176100Y0184500D03*
X0196500Y0168100D03*
X0201400Y0169300D03*
X0210600Y0165300D03*
X0196500Y0155600D03*
X0218400Y0133600D03*
X0222200Y0137900D03*
X0226300Y0142000D03*
X0229300Y0147000D03*
X0214800Y0129100D03*
X0211200Y0124900D03*
X0206400Y0121400D03*
X0202500Y0118000D03*
X0194200Y0119900D03*
X0190200Y0123800D03*
X0190200Y0115200D03*
X0187300Y0107900D03*
X0187400Y0107800D03*
X0218100Y0097800D03*
X0242900Y0097600D03*
X0266000Y0098000D03*
X0257900Y0068200D03*
X0232400Y0067900D03*
X0227600Y0179000D03*
X0220500Y0193400D03*
X0241400Y0191600D03*
X0267100Y0201000D03*
X0198100Y0219800D03*
X0097300Y0091000D03*
X0082600Y0078500D03*
X0074000Y0048100D03*
D12*
X0055000Y0041000D02*
X0055000Y0272000D01*
X0244500Y0272000D01*
X0244500Y0270605D01*
X0245185Y0268951D01*
X0246451Y0267685D01*
X0248105Y0267000D01*
X0253476Y0267000D01*
X0253476Y0264405D01*
X0254390Y0262200D01*
X0254390Y0262200D01*
X0255490Y0261100D01*
X0251937Y0261100D01*
X0251000Y0260163D01*
X0245437Y0254600D01*
X0233937Y0254600D01*
X0233000Y0253663D01*
X0227437Y0248100D01*
X0215793Y0248100D01*
X0215728Y0248256D01*
X0214856Y0249128D01*
X0213717Y0249600D01*
X0212483Y0249600D01*
X0211344Y0249128D01*
X0210472Y0248256D01*
X0210000Y0247117D01*
X0210000Y0245883D01*
X0210472Y0244744D01*
X0211344Y0243872D01*
X0212483Y0243400D01*
X0213717Y0243400D01*
X0214856Y0243872D01*
X0215728Y0244744D01*
X0215793Y0244900D01*
X0228763Y0244900D01*
X0235263Y0251400D01*
X0246763Y0251400D01*
X0253263Y0257900D01*
X0282037Y0257900D01*
X0283300Y0256637D01*
X0283300Y0252072D01*
X0283155Y0252012D01*
X0282288Y0251145D01*
X0281819Y0250013D01*
X0281819Y0248787D01*
X0282288Y0247655D01*
X0283155Y0246788D01*
X0284287Y0246319D01*
X0285513Y0246319D01*
X0286000Y0246521D01*
X0286000Y0225891D01*
X0285400Y0225986D01*
X0285400Y0221300D01*
X0284400Y0221300D01*
X0284400Y0225986D01*
X0283682Y0225872D01*
X0282904Y0225619D01*
X0282175Y0225247D01*
X0281512Y0224766D01*
X0280934Y0224188D01*
X0280453Y0223525D01*
X0280081Y0222796D01*
X0279828Y0222018D01*
X0279714Y0221300D01*
X0284400Y0221300D01*
X0284400Y0220300D01*
X0279714Y0220300D01*
X0279828Y0219582D01*
X0280081Y0218804D01*
X0280453Y0218075D01*
X0280934Y0217412D01*
X0281512Y0216834D01*
X0282175Y0216353D01*
X0282904Y0215981D01*
X0283461Y0215800D01*
X0282904Y0215619D01*
X0282175Y0215247D01*
X0281512Y0214766D01*
X0280934Y0214188D01*
X0280453Y0213525D01*
X0280081Y0212796D01*
X0279828Y0212018D01*
X0279714Y0211300D01*
X0284400Y0211300D01*
X0284400Y0215986D01*
X0284400Y0220300D01*
X0285400Y0220300D01*
X0285400Y0211300D01*
X0284400Y0211300D01*
X0284400Y0210300D01*
X0279714Y0210300D01*
X0279828Y0209582D01*
X0280081Y0208804D01*
X0280453Y0208075D01*
X0280934Y0207412D01*
X0281512Y0206834D01*
X0282175Y0206353D01*
X0282904Y0205981D01*
X0283461Y0205800D01*
X0282904Y0205619D01*
X0282175Y0205247D01*
X0281512Y0204766D01*
X0280934Y0204188D01*
X0280453Y0203525D01*
X0280081Y0202796D01*
X0279828Y0202018D01*
X0279714Y0201300D01*
X0284400Y0201300D01*
X0284400Y0205986D01*
X0284400Y0210300D01*
X0285400Y0210300D01*
X0285400Y0201300D01*
X0284400Y0201300D01*
X0284400Y0200300D01*
X0279714Y0200300D01*
X0279828Y0199582D01*
X0280081Y0198804D01*
X0280453Y0198075D01*
X0280934Y0197412D01*
X0281512Y0196834D01*
X0282175Y0196353D01*
X0282904Y0195981D01*
X0283461Y0195800D01*
X0282904Y0195619D01*
X0282175Y0195247D01*
X0281512Y0194766D01*
X0280934Y0194188D01*
X0280453Y0193525D01*
X0280081Y0192796D01*
X0279828Y0192018D01*
X0279714Y0191300D01*
X0284400Y0191300D01*
X0284400Y0195986D01*
X0284400Y0200300D01*
X0285400Y0200300D01*
X0285400Y0191300D01*
X0284400Y0191300D01*
X0284400Y0190300D01*
X0285400Y0190300D01*
X0285400Y0185614D01*
X0286000Y0185709D01*
X0286000Y0185540D01*
X0285855Y0185600D01*
X0283945Y0185600D01*
X0282181Y0184869D01*
X0280831Y0183519D01*
X0280367Y0182400D01*
X0241737Y0182400D01*
X0240800Y0181463D01*
X0240800Y0181463D01*
X0230037Y0170700D01*
X0229100Y0169763D01*
X0229100Y0150081D01*
X0228687Y0150081D01*
X0227555Y0149612D01*
X0226688Y0148745D01*
X0226219Y0147613D01*
X0226219Y0146387D01*
X0226688Y0145255D01*
X0226862Y0145081D01*
X0225687Y0145081D01*
X0224555Y0144612D01*
X0223688Y0143745D01*
X0223219Y0142613D01*
X0223219Y0141387D01*
X0223506Y0140694D01*
X0222813Y0140981D01*
X0221587Y0140981D01*
X0220455Y0140512D01*
X0219588Y0139645D01*
X0219119Y0138513D01*
X0219119Y0137287D01*
X0219444Y0136503D01*
X0219013Y0136681D01*
X0217787Y0136681D01*
X0216655Y0136212D01*
X0215788Y0135345D01*
X0215319Y0134213D01*
X0215319Y0132987D01*
X0215702Y0132061D01*
X0215413Y0132181D01*
X0214187Y0132181D01*
X0213055Y0131712D01*
X0212188Y0130845D01*
X0211719Y0129713D01*
X0211719Y0128487D01*
X0211952Y0127923D01*
X0211813Y0127981D01*
X0210587Y0127981D01*
X0209455Y0127512D01*
X0208588Y0126645D01*
X0208119Y0125513D01*
X0208119Y0124287D01*
X0208295Y0123863D01*
X0208145Y0124012D01*
X0207013Y0124481D01*
X0205787Y0124481D01*
X0204655Y0124012D01*
X0203788Y0123145D01*
X0203319Y0122013D01*
X0203319Y0120996D01*
X0203113Y0121081D01*
X0201887Y0121081D01*
X0200755Y0120612D01*
X0199888Y0119745D01*
X0199419Y0118613D01*
X0199419Y0117387D01*
X0199888Y0116255D01*
X0200755Y0115388D01*
X0201887Y0114919D01*
X0203113Y0114919D01*
X0204245Y0115388D01*
X0205112Y0116255D01*
X0205172Y0116400D01*
X0277037Y0116400D01*
X0280564Y0112874D01*
X0280100Y0111755D01*
X0280100Y0109845D01*
X0280831Y0108081D01*
X0282181Y0106731D01*
X0283945Y0106000D01*
X0285855Y0106000D01*
X0286000Y0106060D01*
X0286000Y0105540D01*
X0285855Y0105600D01*
X0283945Y0105600D01*
X0282181Y0104869D01*
X0280831Y0103519D01*
X0280100Y0101755D01*
X0280100Y0099845D01*
X0280831Y0098081D01*
X0282181Y0096731D01*
X0282200Y0096723D01*
X0282200Y0094877D01*
X0282181Y0094869D01*
X0280831Y0093519D01*
X0280100Y0091755D01*
X0280100Y0089845D01*
X0280831Y0088081D01*
X0282181Y0086731D01*
X0282200Y0086723D01*
X0282200Y0084877D01*
X0282181Y0084869D01*
X0280831Y0083519D01*
X0280100Y0081755D01*
X0280100Y0080900D01*
X0204018Y0080900D01*
X0203300Y0081618D01*
X0203300Y0103037D01*
X0202889Y0104029D01*
X0199889Y0107029D01*
X0199129Y0107789D01*
X0198137Y0108200D01*
X0190818Y0108200D01*
X0190393Y0108625D01*
X0190012Y0109545D01*
X0189145Y0110412D01*
X0189045Y0110512D01*
X0188125Y0110893D01*
X0185200Y0113818D01*
X0185200Y0120537D01*
X0186500Y0119237D01*
X0187437Y0118300D01*
X0191528Y0118300D01*
X0191588Y0118155D01*
X0191920Y0117822D01*
X0190813Y0118281D01*
X0189587Y0118281D01*
X0188455Y0117812D01*
X0187588Y0116945D01*
X0187119Y0115813D01*
X0187119Y0114587D01*
X0187588Y0113455D01*
X0188455Y0112588D01*
X0189587Y0112119D01*
X0190813Y0112119D01*
X0191945Y0112588D01*
X0192812Y0113455D01*
X0193281Y0114587D01*
X0193281Y0115813D01*
X0192812Y0116945D01*
X0192480Y0117278D01*
X0193587Y0116819D01*
X0194813Y0116819D01*
X0195945Y0117288D01*
X0196812Y0118155D01*
X0197281Y0119287D01*
X0197281Y0120513D01*
X0196812Y0121645D01*
X0195945Y0122512D01*
X0194813Y0122981D01*
X0193587Y0122981D01*
X0193115Y0122785D01*
X0193281Y0123187D01*
X0193281Y0124413D01*
X0192812Y0125545D01*
X0191945Y0126412D01*
X0191800Y0126472D01*
X0191800Y0127063D01*
X0190863Y0128000D01*
X0190700Y0128163D01*
X0190700Y0146663D01*
X0175263Y0162100D01*
X0170763Y0162100D01*
X0163413Y0169450D01*
X0163487Y0169419D01*
X0164713Y0169419D01*
X0165845Y0169888D01*
X0166712Y0170755D01*
X0166967Y0171370D01*
X0167737Y0170600D01*
X0168421Y0169916D01*
X0168488Y0169755D01*
X0169355Y0168888D01*
X0170487Y0168419D01*
X0171713Y0168419D01*
X0172845Y0168888D01*
X0173712Y0169755D01*
X0174181Y0170887D01*
X0174181Y0172113D01*
X0173712Y0173245D01*
X0172845Y0174112D01*
X0171713Y0174581D01*
X0170487Y0174581D01*
X0170000Y0174379D01*
X0170000Y0175263D01*
X0168363Y0176900D01*
X0171763Y0176900D01*
X0171842Y0176979D01*
X0171987Y0176919D01*
X0173213Y0176919D01*
X0174345Y0177388D01*
X0175212Y0178255D01*
X0175681Y0179387D01*
X0175681Y0180613D01*
X0175318Y0181489D01*
X0175487Y0181419D01*
X0176713Y0181419D01*
X0177845Y0181888D01*
X0178712Y0182755D01*
X0179181Y0183887D01*
X0179181Y0185113D01*
X0178712Y0186245D01*
X0177845Y0187112D01*
X0176713Y0187581D01*
X0175487Y0187581D01*
X0174355Y0187112D01*
X0173488Y0186245D01*
X0173019Y0185113D01*
X0173019Y0185100D01*
X0169763Y0185100D01*
X0166700Y0188163D01*
X0166700Y0233837D01*
X0166763Y0233900D01*
X0176763Y0233900D01*
X0177700Y0234837D01*
X0183000Y0240137D01*
X0183000Y0239383D01*
X0183472Y0238244D01*
X0184344Y0237372D01*
X0185483Y0236900D01*
X0186717Y0236900D01*
X0187856Y0237372D01*
X0188728Y0238244D01*
X0188793Y0238400D01*
X0193937Y0238400D01*
X0205937Y0226400D01*
X0215263Y0226400D01*
X0216327Y0227465D01*
X0216483Y0227400D01*
X0217717Y0227400D01*
X0218856Y0227872D01*
X0219728Y0228744D01*
X0220200Y0229883D01*
X0220200Y0231117D01*
X0219728Y0232256D01*
X0218856Y0233128D01*
X0217717Y0233600D01*
X0216483Y0233600D01*
X0215344Y0233128D01*
X0214472Y0232256D01*
X0214000Y0231117D01*
X0214000Y0229883D01*
X0214065Y0229727D01*
X0213937Y0229600D01*
X0207263Y0229600D01*
X0196200Y0240663D01*
X0195263Y0241600D01*
X0188793Y0241600D01*
X0188728Y0241756D01*
X0187856Y0242628D01*
X0186717Y0243100D01*
X0185963Y0243100D01*
X0186763Y0243900D01*
X0203437Y0243900D01*
X0212237Y0235100D01*
X0225328Y0235100D01*
X0225388Y0234955D01*
X0226255Y0234088D01*
X0227387Y0233619D01*
X0228613Y0233619D01*
X0229745Y0234088D01*
X0230612Y0234955D01*
X0231081Y0236087D01*
X0231081Y0237313D01*
X0230612Y0238445D01*
X0229745Y0239312D01*
X0228613Y0239781D01*
X0227387Y0239781D01*
X0226255Y0239312D01*
X0225388Y0238445D01*
X0225328Y0238300D01*
X0213563Y0238300D01*
X0205700Y0246163D01*
X0204763Y0247100D01*
X0185963Y0247100D01*
X0186803Y0247940D01*
X0186855Y0247888D01*
X0187987Y0247419D01*
X0189213Y0247419D01*
X0190345Y0247888D01*
X0191212Y0248755D01*
X0191681Y0249887D01*
X0191681Y0251113D01*
X0191212Y0252245D01*
X0190757Y0252700D01*
X0192707Y0252700D01*
X0192772Y0252544D01*
X0193644Y0251672D01*
X0194783Y0251200D01*
X0196017Y0251200D01*
X0197156Y0251672D01*
X0198028Y0252544D01*
X0198500Y0253683D01*
X0198500Y0254917D01*
X0198028Y0256056D01*
X0197156Y0256928D01*
X0196017Y0257400D01*
X0194783Y0257400D01*
X0193644Y0256928D01*
X0192772Y0256056D01*
X0192707Y0255900D01*
X0183237Y0255900D01*
X0177500Y0250163D01*
X0177500Y0246163D01*
X0176185Y0244848D01*
X0176200Y0244883D01*
X0176200Y0246117D01*
X0175728Y0247256D01*
X0174856Y0248128D01*
X0173717Y0248600D01*
X0172483Y0248600D01*
X0171344Y0248128D01*
X0170472Y0247256D01*
X0170000Y0246117D01*
X0170000Y0244883D01*
X0170065Y0244727D01*
X0168437Y0243100D01*
X0168057Y0243100D01*
X0168712Y0243755D01*
X0169181Y0244887D01*
X0169181Y0246113D01*
X0168712Y0247245D01*
X0167845Y0248112D01*
X0166713Y0248581D01*
X0165487Y0248581D01*
X0164355Y0248112D01*
X0163488Y0247245D01*
X0163428Y0247100D01*
X0162437Y0247100D01*
X0156437Y0241100D01*
X0155500Y0240163D01*
X0155500Y0192163D01*
X0152873Y0189535D01*
X0152717Y0189600D01*
X0151483Y0189600D01*
X0150344Y0189128D01*
X0149472Y0188256D01*
X0149000Y0187117D01*
X0149000Y0185883D01*
X0149472Y0184744D01*
X0150344Y0183872D01*
X0151483Y0183400D01*
X0152717Y0183400D01*
X0153856Y0183872D01*
X0154728Y0184744D01*
X0155200Y0185883D01*
X0155200Y0187117D01*
X0155135Y0187273D01*
X0157500Y0189637D01*
X0157500Y0175363D01*
X0157200Y0175663D01*
X0157200Y0178663D01*
X0156263Y0179600D01*
X0155681Y0180182D01*
X0155681Y0180613D01*
X0155212Y0181745D01*
X0154345Y0182612D01*
X0153213Y0183081D01*
X0151987Y0183081D01*
X0150855Y0182612D01*
X0149988Y0181745D01*
X0149519Y0180613D01*
X0149519Y0179387D01*
X0149988Y0178255D01*
X0150855Y0177388D01*
X0151987Y0176919D01*
X0153213Y0176919D01*
X0154000Y0177245D01*
X0154000Y0175081D01*
X0152987Y0175081D01*
X0151855Y0174612D01*
X0150988Y0173745D01*
X0150519Y0172613D01*
X0150519Y0171387D01*
X0150872Y0170534D01*
X0150842Y0170521D01*
X0140863Y0180500D01*
X0111463Y0180500D01*
X0111421Y0180542D01*
X0111481Y0180687D01*
X0111481Y0181913D01*
X0111012Y0183045D01*
X0110145Y0183912D01*
X0109013Y0184381D01*
X0107787Y0184381D01*
X0106655Y0183912D01*
X0105788Y0183045D01*
X0105319Y0181913D01*
X0105319Y0180687D01*
X0105788Y0179555D01*
X0106655Y0178688D01*
X0107787Y0178219D01*
X0109013Y0178219D01*
X0109158Y0178279D01*
X0109200Y0178237D01*
X0110137Y0177300D01*
X0113091Y0177300D01*
X0112155Y0176912D01*
X0111288Y0176045D01*
X0110819Y0174913D01*
X0110819Y0173687D01*
X0110879Y0173542D01*
X0110637Y0173300D01*
X0109700Y0172363D01*
X0109700Y0164963D01*
X0108837Y0164100D01*
X0108772Y0164100D01*
X0108712Y0164245D01*
X0107845Y0165112D01*
X0106713Y0165581D01*
X0105487Y0165581D01*
X0104355Y0165112D01*
X0103488Y0164245D01*
X0103019Y0163113D01*
X0103019Y0161887D01*
X0103488Y0160755D01*
X0104355Y0159888D01*
X0105487Y0159419D01*
X0106713Y0159419D01*
X0107845Y0159888D01*
X0108712Y0160755D01*
X0108772Y0160900D01*
X0110163Y0160900D01*
X0111963Y0162700D01*
X0112900Y0163637D01*
X0112900Y0171037D01*
X0113142Y0171279D01*
X0113287Y0171219D01*
X0114513Y0171219D01*
X0115645Y0171688D01*
X0116512Y0172555D01*
X0116981Y0173687D01*
X0116981Y0174913D01*
X0116512Y0176045D01*
X0115645Y0176912D01*
X0114709Y0177300D01*
X0139537Y0177300D01*
X0148579Y0168258D01*
X0148519Y0168113D01*
X0148519Y0166887D01*
X0148988Y0165755D01*
X0149855Y0164888D01*
X0150987Y0164419D01*
X0152213Y0164419D01*
X0153345Y0164888D01*
X0153519Y0165062D01*
X0153519Y0164887D01*
X0153988Y0163755D01*
X0154855Y0162888D01*
X0155987Y0162419D01*
X0156000Y0162419D01*
X0156000Y0157581D01*
X0155987Y0157581D01*
X0154855Y0157112D01*
X0153988Y0156245D01*
X0153519Y0155113D01*
X0153519Y0153887D01*
X0153988Y0152755D01*
X0154855Y0151888D01*
X0155987Y0151419D01*
X0157213Y0151419D01*
X0158345Y0151888D01*
X0159212Y0152755D01*
X0159681Y0153887D01*
X0159681Y0155113D01*
X0159212Y0156245D01*
X0159200Y0156257D01*
X0159200Y0163743D01*
X0159212Y0163755D01*
X0159681Y0164887D01*
X0159681Y0165656D01*
X0167500Y0157837D01*
X0168437Y0156900D01*
X0172937Y0156900D01*
X0185000Y0144837D01*
X0185000Y0134620D01*
X0184789Y0135129D01*
X0184029Y0135889D01*
X0175129Y0144789D01*
X0174137Y0145200D01*
X0154218Y0145200D01*
X0148881Y0150537D01*
X0148881Y0150813D01*
X0148412Y0151945D01*
X0147545Y0152812D01*
X0146413Y0153281D01*
X0145972Y0153281D01*
X0143853Y0155400D01*
X0119357Y0155400D01*
X0119045Y0155712D01*
X0117913Y0156181D01*
X0116687Y0156181D01*
X0115555Y0155712D01*
X0115243Y0155400D01*
X0114453Y0155400D01*
X0112800Y0157053D01*
X0111453Y0158400D01*
X0106057Y0158400D01*
X0105745Y0158712D01*
X0104613Y0159181D01*
X0103387Y0159181D01*
X0102255Y0158712D01*
X0101943Y0158400D01*
X0092247Y0158400D01*
X0090300Y0156453D01*
X0090300Y0161553D01*
X0088953Y0162900D01*
X0086181Y0165672D01*
X0086181Y0166113D01*
X0085712Y0167245D01*
X0084845Y0168112D01*
X0083713Y0168581D01*
X0082487Y0168581D01*
X0081355Y0168112D01*
X0080488Y0167245D01*
X0080019Y0166113D01*
X0080019Y0164887D01*
X0080488Y0163755D01*
X0081355Y0162888D01*
X0082487Y0162419D01*
X0082928Y0162419D01*
X0085700Y0159647D01*
X0085700Y0121957D01*
X0085488Y0121745D01*
X0085019Y0120613D01*
X0085019Y0119387D01*
X0085488Y0118255D01*
X0086355Y0117388D01*
X0086533Y0117314D01*
X0087147Y0116700D01*
X0093300Y0110547D01*
X0093300Y0100453D01*
X0086800Y0093953D01*
X0086800Y0092963D01*
X0078000Y0084163D01*
X0078000Y0078837D01*
X0078937Y0077900D01*
X0078937Y0077900D01*
X0079000Y0077837D01*
X0079921Y0076916D01*
X0079988Y0076755D01*
X0080855Y0075888D01*
X0081987Y0075419D01*
X0083213Y0075419D01*
X0084345Y0075888D01*
X0085212Y0076755D01*
X0085681Y0077887D01*
X0085681Y0079113D01*
X0085212Y0080245D01*
X0084345Y0081112D01*
X0083213Y0081581D01*
X0081987Y0081581D01*
X0081200Y0081255D01*
X0081200Y0082837D01*
X0089063Y0090700D01*
X0090053Y0090700D01*
X0097900Y0098547D01*
X0097900Y0106700D01*
X0129437Y0106700D01*
X0111537Y0088800D01*
X0101763Y0088800D01*
X0100321Y0090242D01*
X0100381Y0090387D01*
X0100381Y0091613D01*
X0099912Y0092745D01*
X0099045Y0093612D01*
X0097913Y0094081D01*
X0096687Y0094081D01*
X0095555Y0093612D01*
X0094688Y0092745D01*
X0094219Y0091613D01*
X0094219Y0090387D01*
X0094688Y0089255D01*
X0095555Y0088388D01*
X0096687Y0087919D01*
X0097913Y0087919D01*
X0098058Y0087979D01*
X0100437Y0085600D01*
X0112863Y0085600D01*
X0113800Y0086537D01*
X0113800Y0086537D01*
X0118000Y0090737D01*
X0118000Y0086531D01*
X0116913Y0086981D01*
X0115687Y0086981D01*
X0114555Y0086512D01*
X0113688Y0085645D01*
X0113219Y0084513D01*
X0113219Y0083287D01*
X0113688Y0082155D01*
X0114555Y0081288D01*
X0115687Y0080819D01*
X0116913Y0080819D01*
X0118045Y0081288D01*
X0118912Y0082155D01*
X0119191Y0082828D01*
X0119600Y0083237D01*
X0120519Y0084156D01*
X0120519Y0083887D01*
X0120988Y0082755D01*
X0121855Y0081888D01*
X0122987Y0081419D01*
X0124213Y0081419D01*
X0125345Y0081888D01*
X0126212Y0082755D01*
X0126272Y0082900D01*
X0126763Y0082900D01*
X0134200Y0090337D01*
X0134200Y0098837D01*
X0136763Y0101400D01*
X0144763Y0101400D01*
X0145700Y0102337D01*
X0145842Y0102479D01*
X0145987Y0102419D01*
X0147213Y0102419D01*
X0148345Y0102888D01*
X0149212Y0103755D01*
X0149681Y0104887D01*
X0149681Y0106113D01*
X0149212Y0107245D01*
X0148345Y0108112D01*
X0147213Y0108581D01*
X0146944Y0108581D01*
X0147700Y0109337D01*
X0147700Y0143163D01*
X0147221Y0143642D01*
X0147281Y0143787D01*
X0147281Y0144501D01*
X0151571Y0140211D01*
X0152563Y0139800D01*
X0172482Y0139800D01*
X0179800Y0132482D01*
X0179800Y0112163D01*
X0180211Y0111171D01*
X0180971Y0110411D01*
X0184307Y0107075D01*
X0184688Y0106155D01*
X0184788Y0106055D01*
X0184788Y0106055D01*
X0185655Y0105188D01*
X0186575Y0104807D01*
X0187240Y0104141D01*
X0187311Y0103971D01*
X0188071Y0103211D01*
X0189063Y0102800D01*
X0196482Y0102800D01*
X0197900Y0101382D01*
X0197900Y0082757D01*
X0197688Y0082545D01*
X0197219Y0081413D01*
X0197219Y0080187D01*
X0197688Y0079055D01*
X0198555Y0078188D01*
X0199475Y0077807D01*
X0200611Y0076671D01*
X0200611Y0076671D01*
X0201371Y0075911D01*
X0202363Y0075500D01*
X0282837Y0075500D01*
X0283829Y0075911D01*
X0283926Y0076008D01*
X0283945Y0076000D01*
X0285855Y0076000D01*
X0286000Y0076060D01*
X0286000Y0062000D01*
X0228622Y0062000D01*
X0228231Y0062017D01*
X0228212Y0062000D01*
X0228186Y0062000D01*
X0227909Y0061723D01*
X0227619Y0061458D01*
X0227618Y0061432D01*
X0227600Y0061414D01*
X0227600Y0061022D01*
X0226710Y0041000D01*
X0187600Y0041000D01*
X0187600Y0053414D01*
X0187014Y0054000D01*
X0119686Y0054000D01*
X0119100Y0053414D01*
X0119100Y0041000D01*
X0055000Y0041000D01*
X0055000Y0041493D02*
X0119100Y0041493D01*
X0119100Y0042491D02*
X0055000Y0042491D01*
X0055000Y0043490D02*
X0119100Y0043490D01*
X0119100Y0044488D02*
X0055000Y0044488D01*
X0055000Y0045487D02*
X0119100Y0045487D01*
X0119100Y0046485D02*
X0055000Y0046485D01*
X0055000Y0047484D02*
X0119100Y0047484D01*
X0119100Y0048482D02*
X0055000Y0048482D01*
X0055000Y0049481D02*
X0119100Y0049481D01*
X0119100Y0050479D02*
X0055000Y0050479D01*
X0055000Y0051478D02*
X0119100Y0051478D01*
X0119100Y0052476D02*
X0055000Y0052476D01*
X0055000Y0053475D02*
X0119160Y0053475D01*
X0118190Y0081433D02*
X0122953Y0081433D01*
X0124247Y0081433D02*
X0197227Y0081433D01*
X0197219Y0080434D02*
X0085023Y0080434D01*
X0085547Y0079436D02*
X0197530Y0079436D01*
X0198305Y0078437D02*
X0085681Y0078437D01*
X0085495Y0077439D02*
X0199843Y0077439D01*
X0200841Y0076440D02*
X0084898Y0076440D01*
X0083268Y0075442D02*
X0286000Y0075442D01*
X0286000Y0074443D02*
X0055000Y0074443D01*
X0055000Y0073445D02*
X0286000Y0073445D01*
X0286000Y0072446D02*
X0055000Y0072446D01*
X0055000Y0071448D02*
X0286000Y0071448D01*
X0286000Y0070449D02*
X0055000Y0070449D01*
X0055000Y0069451D02*
X0286000Y0069451D01*
X0286000Y0068452D02*
X0055000Y0068452D01*
X0055000Y0067454D02*
X0286000Y0067454D01*
X0286000Y0066455D02*
X0055000Y0066455D01*
X0055000Y0065457D02*
X0286000Y0065457D01*
X0286000Y0064458D02*
X0055000Y0064458D01*
X0055000Y0063460D02*
X0286000Y0063460D01*
X0286000Y0062461D02*
X0055000Y0062461D01*
X0055000Y0061463D02*
X0227624Y0061463D01*
X0227575Y0060464D02*
X0055000Y0060464D01*
X0055000Y0059466D02*
X0227531Y0059466D01*
X0227486Y0058467D02*
X0055000Y0058467D01*
X0055000Y0057469D02*
X0227442Y0057469D01*
X0227398Y0056470D02*
X0055000Y0056470D01*
X0055000Y0055472D02*
X0227353Y0055472D01*
X0227309Y0054473D02*
X0055000Y0054473D01*
X0055000Y0075442D02*
X0081931Y0075442D01*
X0080302Y0076440D02*
X0055000Y0076440D01*
X0055000Y0077439D02*
X0079398Y0077439D01*
X0079000Y0077837D02*
X0079000Y0077837D01*
X0078400Y0078437D02*
X0055000Y0078437D01*
X0055000Y0079436D02*
X0078000Y0079436D01*
X0078000Y0080434D02*
X0055000Y0080434D01*
X0055000Y0081433D02*
X0078000Y0081433D01*
X0078000Y0082432D02*
X0055000Y0082432D01*
X0055000Y0083430D02*
X0078000Y0083430D01*
X0078266Y0084429D02*
X0055000Y0084429D01*
X0055000Y0085427D02*
X0079264Y0085427D01*
X0080263Y0086426D02*
X0055000Y0086426D01*
X0055000Y0087424D02*
X0081261Y0087424D01*
X0082260Y0088423D02*
X0055000Y0088423D01*
X0055000Y0089421D02*
X0083258Y0089421D01*
X0084257Y0090420D02*
X0055000Y0090420D01*
X0055000Y0091418D02*
X0085255Y0091418D01*
X0086254Y0092417D02*
X0055000Y0092417D01*
X0055000Y0093415D02*
X0086800Y0093415D01*
X0087261Y0094414D02*
X0055000Y0094414D01*
X0055000Y0095412D02*
X0088259Y0095412D01*
X0089258Y0096411D02*
X0055000Y0096411D01*
X0055000Y0097409D02*
X0090257Y0097409D01*
X0091255Y0098408D02*
X0055000Y0098408D01*
X0055000Y0099406D02*
X0092254Y0099406D01*
X0093252Y0100405D02*
X0055000Y0100405D01*
X0055000Y0101403D02*
X0093300Y0101403D01*
X0093300Y0102402D02*
X0055000Y0102402D01*
X0055000Y0103400D02*
X0093300Y0103400D01*
X0093300Y0104399D02*
X0055000Y0104399D01*
X0055000Y0105397D02*
X0093300Y0105397D01*
X0093300Y0106396D02*
X0089853Y0106396D01*
X0090212Y0106755D02*
X0090681Y0107887D01*
X0090681Y0109113D01*
X0090212Y0110245D01*
X0089345Y0111112D01*
X0088213Y0111581D01*
X0086987Y0111581D01*
X0086842Y0111521D01*
X0084200Y0114163D01*
X0084200Y0130828D01*
X0084345Y0130888D01*
X0085212Y0131755D01*
X0085681Y0132887D01*
X0085681Y0134113D01*
X0085212Y0135245D01*
X0084345Y0136112D01*
X0083213Y0136581D01*
X0081987Y0136581D01*
X0080855Y0136112D01*
X0079988Y0135245D01*
X0079519Y0134113D01*
X0079519Y0132887D01*
X0079988Y0131755D01*
X0080855Y0130888D01*
X0081000Y0130828D01*
X0081000Y0112837D01*
X0081937Y0111900D01*
X0084579Y0109258D01*
X0084519Y0109113D01*
X0084519Y0107887D01*
X0084988Y0106755D01*
X0085855Y0105888D01*
X0086987Y0105419D01*
X0088213Y0105419D01*
X0089345Y0105888D01*
X0090212Y0106755D01*
X0090477Y0107394D02*
X0093300Y0107394D01*
X0093300Y0108393D02*
X0090681Y0108393D01*
X0090566Y0109391D02*
X0093300Y0109391D01*
X0093300Y0110390D02*
X0090067Y0110390D01*
X0088678Y0111388D02*
X0092459Y0111388D01*
X0091460Y0112387D02*
X0085976Y0112387D01*
X0084977Y0113385D02*
X0090462Y0113385D01*
X0089463Y0114384D02*
X0084200Y0114384D01*
X0084200Y0115382D02*
X0088465Y0115382D01*
X0087466Y0116381D02*
X0084200Y0116381D01*
X0084200Y0117379D02*
X0086375Y0117379D01*
X0085437Y0118378D02*
X0084200Y0118378D01*
X0084200Y0119376D02*
X0085023Y0119376D01*
X0085019Y0120375D02*
X0084200Y0120375D01*
X0084200Y0121373D02*
X0085334Y0121373D01*
X0085700Y0122372D02*
X0084200Y0122372D01*
X0084200Y0123370D02*
X0085700Y0123370D01*
X0085700Y0124369D02*
X0084200Y0124369D01*
X0084200Y0125368D02*
X0085700Y0125368D01*
X0085700Y0126366D02*
X0084200Y0126366D01*
X0084200Y0127365D02*
X0085700Y0127365D01*
X0085700Y0128363D02*
X0084200Y0128363D01*
X0084200Y0129362D02*
X0085700Y0129362D01*
X0085700Y0130360D02*
X0084200Y0130360D01*
X0084816Y0131359D02*
X0085700Y0131359D01*
X0085700Y0132357D02*
X0085462Y0132357D01*
X0085681Y0133356D02*
X0085700Y0133356D01*
X0085700Y0134354D02*
X0085581Y0134354D01*
X0085700Y0135353D02*
X0085105Y0135353D01*
X0085700Y0136351D02*
X0083768Y0136351D01*
X0085700Y0137350D02*
X0055000Y0137350D01*
X0055000Y0138348D02*
X0085700Y0138348D01*
X0085700Y0139347D02*
X0055000Y0139347D01*
X0055000Y0140345D02*
X0085700Y0140345D01*
X0085700Y0141344D02*
X0055000Y0141344D01*
X0055000Y0142342D02*
X0085700Y0142342D01*
X0085700Y0143341D02*
X0055000Y0143341D01*
X0055000Y0144339D02*
X0085700Y0144339D01*
X0085700Y0145338D02*
X0055000Y0145338D01*
X0055000Y0146336D02*
X0085700Y0146336D01*
X0085700Y0147335D02*
X0055000Y0147335D01*
X0055000Y0148333D02*
X0085700Y0148333D01*
X0085700Y0149332D02*
X0055000Y0149332D01*
X0055000Y0150330D02*
X0085700Y0150330D01*
X0085700Y0151329D02*
X0055000Y0151329D01*
X0055000Y0152327D02*
X0085700Y0152327D01*
X0085700Y0153326D02*
X0055000Y0153326D01*
X0055000Y0154324D02*
X0069130Y0154324D01*
X0069075Y0154353D02*
X0069804Y0153981D01*
X0070582Y0153728D01*
X0071300Y0153614D01*
X0071300Y0158300D01*
X0072300Y0158300D01*
X0072300Y0159300D01*
X0076986Y0159300D01*
X0076872Y0160018D01*
X0076619Y0160796D01*
X0076247Y0161525D01*
X0075766Y0162188D01*
X0075188Y0162766D01*
X0074525Y0163247D01*
X0073796Y0163619D01*
X0073018Y0163872D01*
X0072300Y0163986D01*
X0072300Y0159300D01*
X0071300Y0159300D01*
X0071300Y0163986D01*
X0070582Y0163872D01*
X0069804Y0163619D01*
X0069075Y0163247D01*
X0068412Y0162766D01*
X0067834Y0162188D01*
X0067353Y0161525D01*
X0066981Y0160796D01*
X0066728Y0160018D01*
X0066614Y0159300D01*
X0071300Y0159300D01*
X0071300Y0158300D01*
X0066614Y0158300D01*
X0066728Y0157582D01*
X0066981Y0156804D01*
X0067353Y0156075D01*
X0067834Y0155412D01*
X0068412Y0154834D01*
X0069075Y0154353D01*
X0067923Y0155323D02*
X0055000Y0155323D01*
X0055000Y0156321D02*
X0067227Y0156321D01*
X0066813Y0157320D02*
X0055000Y0157320D01*
X0055000Y0158318D02*
X0071300Y0158318D01*
X0071300Y0157320D02*
X0072300Y0157320D01*
X0072300Y0158300D02*
X0072300Y0153614D01*
X0073018Y0153728D01*
X0073796Y0153981D01*
X0074525Y0154353D01*
X0075188Y0154834D01*
X0075766Y0155412D01*
X0076247Y0156075D01*
X0076619Y0156804D01*
X0076872Y0157582D01*
X0076986Y0158300D01*
X0072300Y0158300D01*
X0072300Y0158318D02*
X0085700Y0158318D01*
X0085700Y0157320D02*
X0076787Y0157320D01*
X0076373Y0156321D02*
X0085700Y0156321D01*
X0085700Y0155323D02*
X0075677Y0155323D01*
X0074470Y0154324D02*
X0085700Y0154324D01*
X0085700Y0159317D02*
X0076983Y0159317D01*
X0076775Y0160315D02*
X0085032Y0160315D01*
X0084033Y0161314D02*
X0076355Y0161314D01*
X0075641Y0162312D02*
X0083035Y0162312D01*
X0080932Y0163311D02*
X0074401Y0163311D01*
X0073502Y0164309D02*
X0080258Y0164309D01*
X0080019Y0165308D02*
X0075096Y0165308D01*
X0074519Y0164731D02*
X0075869Y0166081D01*
X0076600Y0167845D01*
X0076600Y0169755D01*
X0075869Y0171519D01*
X0074519Y0172869D01*
X0072755Y0173600D01*
X0070845Y0173600D01*
X0069081Y0172869D01*
X0067731Y0171519D01*
X0067000Y0169755D01*
X0067000Y0167845D01*
X0067731Y0166081D01*
X0069081Y0164731D01*
X0070845Y0164000D01*
X0072755Y0164000D01*
X0074519Y0164731D01*
X0075963Y0166306D02*
X0080099Y0166306D01*
X0080548Y0167305D02*
X0076376Y0167305D01*
X0076600Y0168303D02*
X0081817Y0168303D01*
X0084383Y0168303D02*
X0109700Y0168303D01*
X0109700Y0167305D02*
X0085652Y0167305D01*
X0086101Y0166306D02*
X0109700Y0166306D01*
X0109700Y0165308D02*
X0107372Y0165308D01*
X0108648Y0164309D02*
X0109047Y0164309D01*
X0109500Y0162500D02*
X0111300Y0164300D01*
X0111300Y0171700D01*
X0113900Y0174300D01*
X0116981Y0174295D02*
X0142543Y0174295D01*
X0141544Y0175293D02*
X0116824Y0175293D01*
X0116266Y0176292D02*
X0140546Y0176292D01*
X0139547Y0177290D02*
X0114733Y0177290D01*
X0113067Y0177290D02*
X0055000Y0177290D01*
X0055000Y0176292D02*
X0111534Y0176292D01*
X0110976Y0175293D02*
X0055000Y0175293D01*
X0055000Y0174295D02*
X0110819Y0174295D01*
X0110637Y0173300D02*
X0110637Y0173300D01*
X0110633Y0173296D02*
X0073489Y0173296D01*
X0075091Y0172298D02*
X0109700Y0172298D01*
X0109700Y0171299D02*
X0075960Y0171299D01*
X0076374Y0170301D02*
X0109700Y0170301D01*
X0109700Y0169302D02*
X0076600Y0169302D01*
X0070111Y0173296D02*
X0055000Y0173296D01*
X0055000Y0172298D02*
X0068509Y0172298D01*
X0067640Y0171299D02*
X0055000Y0171299D01*
X0055000Y0170301D02*
X0067226Y0170301D01*
X0067000Y0169302D02*
X0055000Y0169302D01*
X0055000Y0168303D02*
X0067000Y0168303D01*
X0067224Y0167305D02*
X0055000Y0167305D01*
X0055000Y0166306D02*
X0067637Y0166306D01*
X0068504Y0165308D02*
X0055000Y0165308D01*
X0055000Y0164309D02*
X0070098Y0164309D01*
X0069199Y0163311D02*
X0055000Y0163311D01*
X0055000Y0162312D02*
X0067959Y0162312D01*
X0067245Y0161314D02*
X0055000Y0161314D01*
X0055000Y0160315D02*
X0066825Y0160315D01*
X0066617Y0159317D02*
X0055000Y0159317D01*
X0071300Y0159317D02*
X0072300Y0159317D01*
X0072300Y0160315D02*
X0071300Y0160315D01*
X0071300Y0161314D02*
X0072300Y0161314D01*
X0072300Y0162312D02*
X0071300Y0162312D01*
X0071300Y0163311D02*
X0072300Y0163311D01*
X0072300Y0156321D02*
X0071300Y0156321D01*
X0071300Y0155323D02*
X0072300Y0155323D01*
X0072300Y0154324D02*
X0071300Y0154324D01*
X0086545Y0165308D02*
X0104828Y0165308D01*
X0103552Y0164309D02*
X0087543Y0164309D01*
X0088542Y0163311D02*
X0103101Y0163311D01*
X0103019Y0162312D02*
X0089540Y0162312D01*
X0090300Y0161314D02*
X0103256Y0161314D01*
X0103927Y0160315D02*
X0090300Y0160315D01*
X0090300Y0159317D02*
X0156000Y0159317D01*
X0156000Y0160315D02*
X0108273Y0160315D01*
X0109500Y0162500D02*
X0106100Y0162500D01*
X0110577Y0161314D02*
X0156000Y0161314D01*
X0156000Y0162312D02*
X0111575Y0162312D01*
X0112574Y0163311D02*
X0154432Y0163311D01*
X0153758Y0164309D02*
X0112900Y0164309D01*
X0112900Y0165308D02*
X0149435Y0165308D01*
X0148759Y0166306D02*
X0112900Y0166306D01*
X0112900Y0167305D02*
X0148519Y0167305D01*
X0148534Y0168303D02*
X0112900Y0168303D01*
X0112900Y0169302D02*
X0147535Y0169302D01*
X0146537Y0170301D02*
X0112900Y0170301D01*
X0114706Y0171299D02*
X0145538Y0171299D01*
X0144540Y0172298D02*
X0116255Y0172298D01*
X0116819Y0173296D02*
X0143541Y0173296D01*
X0146070Y0175293D02*
X0154000Y0175293D01*
X0154000Y0176292D02*
X0145071Y0176292D01*
X0144073Y0177290D02*
X0151091Y0177290D01*
X0149974Y0178289D02*
X0143074Y0178289D01*
X0142076Y0179287D02*
X0149560Y0179287D01*
X0149519Y0180286D02*
X0141077Y0180286D01*
X0140200Y0178900D02*
X0151600Y0167500D01*
X0150555Y0171299D02*
X0150064Y0171299D01*
X0150519Y0172298D02*
X0149065Y0172298D01*
X0148067Y0173296D02*
X0150802Y0173296D01*
X0151537Y0174295D02*
X0147068Y0174295D01*
X0153600Y0172000D02*
X0155600Y0172000D01*
X0169100Y0158500D01*
X0173600Y0158500D01*
X0186600Y0145500D01*
X0186600Y0121400D01*
X0188100Y0119900D01*
X0194200Y0119900D01*
X0196925Y0121373D02*
X0203319Y0121373D01*
X0203468Y0122372D02*
X0196085Y0122372D01*
X0197281Y0120375D02*
X0200518Y0120375D01*
X0199735Y0119376D02*
X0197281Y0119376D01*
X0196904Y0118378D02*
X0199419Y0118378D01*
X0199422Y0117379D02*
X0196037Y0117379D01*
X0193046Y0116381D02*
X0199836Y0116381D01*
X0200768Y0115382D02*
X0193281Y0115382D01*
X0193197Y0114384D02*
X0279053Y0114384D01*
X0278055Y0115382D02*
X0204232Y0115382D01*
X0205164Y0116381D02*
X0277056Y0116381D01*
X0277700Y0118000D02*
X0284900Y0110800D01*
X0281517Y0107394D02*
X0199524Y0107394D01*
X0200523Y0106396D02*
X0282990Y0106396D01*
X0283456Y0105397D02*
X0201521Y0105397D01*
X0202520Y0104399D02*
X0281711Y0104399D01*
X0280782Y0103400D02*
X0203150Y0103400D01*
X0203300Y0102402D02*
X0280368Y0102402D01*
X0280100Y0101403D02*
X0203300Y0101403D01*
X0203300Y0100405D02*
X0280100Y0100405D01*
X0280282Y0099406D02*
X0203300Y0099406D01*
X0203300Y0098408D02*
X0280695Y0098408D01*
X0281503Y0097409D02*
X0203300Y0097409D01*
X0203300Y0096411D02*
X0282200Y0096411D01*
X0282200Y0095412D02*
X0203300Y0095412D01*
X0203300Y0094414D02*
X0281725Y0094414D01*
X0280788Y0093415D02*
X0203300Y0093415D01*
X0203300Y0092417D02*
X0280374Y0092417D01*
X0280100Y0091418D02*
X0203300Y0091418D01*
X0203300Y0090420D02*
X0280100Y0090420D01*
X0280276Y0089421D02*
X0203300Y0089421D01*
X0203300Y0088423D02*
X0280689Y0088423D01*
X0281488Y0087424D02*
X0203300Y0087424D01*
X0203300Y0086426D02*
X0282200Y0086426D01*
X0282200Y0085427D02*
X0203300Y0085427D01*
X0203300Y0084429D02*
X0281740Y0084429D01*
X0280794Y0083430D02*
X0203300Y0083430D01*
X0203300Y0082432D02*
X0280380Y0082432D01*
X0280100Y0081433D02*
X0203485Y0081433D01*
X0197641Y0082432D02*
X0125889Y0082432D01*
X0127293Y0083430D02*
X0197900Y0083430D01*
X0197900Y0084429D02*
X0128291Y0084429D01*
X0129290Y0085427D02*
X0197900Y0085427D01*
X0197900Y0086426D02*
X0130288Y0086426D01*
X0131287Y0087424D02*
X0197900Y0087424D01*
X0197900Y0088423D02*
X0132285Y0088423D01*
X0133284Y0089421D02*
X0197900Y0089421D01*
X0197900Y0090420D02*
X0134200Y0090420D01*
X0134200Y0091418D02*
X0197900Y0091418D01*
X0197900Y0092417D02*
X0134200Y0092417D01*
X0134200Y0093415D02*
X0197900Y0093415D01*
X0197900Y0094414D02*
X0134200Y0094414D01*
X0134200Y0095412D02*
X0197900Y0095412D01*
X0197900Y0096411D02*
X0160368Y0096411D01*
X0160345Y0096388D02*
X0161212Y0097255D01*
X0161681Y0098387D01*
X0161681Y0099613D01*
X0161212Y0100745D01*
X0160910Y0101047D01*
X0172263Y0112400D01*
X0173200Y0113337D01*
X0173200Y0121463D01*
X0172921Y0121742D01*
X0172981Y0121887D01*
X0172981Y0123113D01*
X0172512Y0124245D01*
X0171645Y0125112D01*
X0170513Y0125581D01*
X0169287Y0125581D01*
X0168155Y0125112D01*
X0167700Y0124657D01*
X0167700Y0128663D01*
X0166763Y0129600D01*
X0160763Y0135600D01*
X0154681Y0135600D01*
X0154681Y0136613D01*
X0154212Y0137745D01*
X0153345Y0138612D01*
X0152213Y0139081D01*
X0150987Y0139081D01*
X0149855Y0138612D01*
X0148988Y0137745D01*
X0148519Y0136613D01*
X0148519Y0135387D01*
X0148988Y0134255D01*
X0149855Y0133388D01*
X0150987Y0132919D01*
X0152213Y0132919D01*
X0152358Y0132979D01*
X0152937Y0132400D01*
X0159437Y0132400D01*
X0164500Y0127337D01*
X0164500Y0116337D01*
X0164579Y0116258D01*
X0164519Y0116113D01*
X0164519Y0114887D01*
X0164646Y0114581D01*
X0163487Y0114581D01*
X0163342Y0114521D01*
X0162121Y0115742D01*
X0162181Y0115887D01*
X0162181Y0117113D01*
X0161712Y0118245D01*
X0160845Y0119112D01*
X0159713Y0119581D01*
X0158944Y0119581D01*
X0160200Y0120837D01*
X0160200Y0123328D01*
X0160345Y0123388D01*
X0161212Y0124255D01*
X0161681Y0125387D01*
X0161681Y0126613D01*
X0161212Y0127745D01*
X0160345Y0128612D01*
X0159213Y0129081D01*
X0157987Y0129081D01*
X0156855Y0128612D01*
X0155988Y0127745D01*
X0155519Y0126613D01*
X0155519Y0125387D01*
X0155988Y0124255D01*
X0156855Y0123388D01*
X0157000Y0123328D01*
X0157000Y0122163D01*
X0154437Y0119600D01*
X0153500Y0118663D01*
X0153500Y0112837D01*
X0157579Y0108758D01*
X0157519Y0108613D01*
X0157519Y0107387D01*
X0157988Y0106255D01*
X0158855Y0105388D01*
X0159987Y0104919D01*
X0160256Y0104919D01*
X0157016Y0101679D01*
X0156855Y0101612D01*
X0155988Y0100745D01*
X0155519Y0099613D01*
X0155519Y0098387D01*
X0155988Y0097255D01*
X0156855Y0096388D01*
X0157987Y0095919D01*
X0159213Y0095919D01*
X0160345Y0096388D01*
X0161276Y0097409D02*
X0197900Y0097409D01*
X0197900Y0098408D02*
X0161681Y0098408D01*
X0161681Y0099406D02*
X0197900Y0099406D01*
X0197900Y0100405D02*
X0161353Y0100405D01*
X0161266Y0101403D02*
X0197878Y0101403D01*
X0196880Y0102402D02*
X0162264Y0102402D01*
X0163263Y0103400D02*
X0187881Y0103400D01*
X0186983Y0104399D02*
X0164261Y0104399D01*
X0165260Y0105397D02*
X0185445Y0105397D01*
X0184588Y0106396D02*
X0166259Y0106396D01*
X0167257Y0107394D02*
X0183987Y0107394D01*
X0182989Y0108393D02*
X0168256Y0108393D01*
X0169254Y0109391D02*
X0181990Y0109391D01*
X0180992Y0110390D02*
X0170253Y0110390D01*
X0171251Y0111388D02*
X0180121Y0111388D01*
X0179800Y0112387D02*
X0172250Y0112387D01*
X0173200Y0113385D02*
X0179800Y0113385D01*
X0179800Y0114384D02*
X0173200Y0114384D01*
X0173200Y0115382D02*
X0179800Y0115382D01*
X0179800Y0116381D02*
X0173200Y0116381D01*
X0173200Y0117379D02*
X0179800Y0117379D01*
X0179800Y0118378D02*
X0173200Y0118378D01*
X0173200Y0119376D02*
X0179800Y0119376D01*
X0179800Y0120375D02*
X0173200Y0120375D01*
X0173200Y0121373D02*
X0179800Y0121373D01*
X0179800Y0122372D02*
X0172981Y0122372D01*
X0172874Y0123370D02*
X0179800Y0123370D01*
X0179800Y0124369D02*
X0172388Y0124369D01*
X0171029Y0125368D02*
X0179800Y0125368D01*
X0179800Y0126366D02*
X0167700Y0126366D01*
X0167700Y0125368D02*
X0168771Y0125368D01*
X0167700Y0127365D02*
X0179800Y0127365D01*
X0179800Y0128363D02*
X0167700Y0128363D01*
X0167001Y0129362D02*
X0179800Y0129362D01*
X0179800Y0130360D02*
X0166003Y0130360D01*
X0165004Y0131359D02*
X0179800Y0131359D01*
X0179800Y0132357D02*
X0164006Y0132357D01*
X0163007Y0133356D02*
X0178926Y0133356D01*
X0177928Y0134354D02*
X0162009Y0134354D01*
X0161010Y0135353D02*
X0176929Y0135353D01*
X0175930Y0136351D02*
X0154681Y0136351D01*
X0154376Y0137350D02*
X0174932Y0137350D01*
X0173933Y0138348D02*
X0153609Y0138348D01*
X0151436Y0140345D02*
X0147700Y0140345D01*
X0147700Y0139347D02*
X0172935Y0139347D01*
X0176578Y0143341D02*
X0185000Y0143341D01*
X0185000Y0144339D02*
X0175579Y0144339D01*
X0177576Y0142342D02*
X0185000Y0142342D01*
X0185000Y0141344D02*
X0178575Y0141344D01*
X0179573Y0140345D02*
X0185000Y0140345D01*
X0185000Y0139347D02*
X0180572Y0139347D01*
X0181570Y0138348D02*
X0185000Y0138348D01*
X0185000Y0137350D02*
X0182569Y0137350D01*
X0183567Y0136351D02*
X0185000Y0136351D01*
X0185000Y0135353D02*
X0184566Y0135353D01*
X0184029Y0135889D02*
X0184029Y0135889D01*
X0189100Y0127500D02*
X0190200Y0126400D01*
X0190200Y0123800D01*
X0192886Y0125368D02*
X0208119Y0125368D01*
X0208119Y0124369D02*
X0207283Y0124369D01*
X0205517Y0124369D02*
X0193281Y0124369D01*
X0193281Y0123370D02*
X0204013Y0123370D01*
X0206400Y0121400D02*
X0284300Y0121400D01*
X0284900Y0120800D01*
X0279000Y0124900D02*
X0284900Y0130800D01*
X0284900Y0140800D02*
X0273200Y0129100D01*
X0214800Y0129100D01*
X0211987Y0130360D02*
X0190700Y0130360D01*
X0190700Y0129362D02*
X0211719Y0129362D01*
X0211770Y0128363D02*
X0190700Y0128363D01*
X0191498Y0127365D02*
X0209307Y0127365D01*
X0208472Y0126366D02*
X0191991Y0126366D01*
X0189100Y0127500D02*
X0189100Y0146000D01*
X0174600Y0160500D01*
X0170100Y0160500D01*
X0155600Y0175000D01*
X0155600Y0178000D01*
X0153600Y0180000D01*
X0152600Y0180000D01*
X0155403Y0181284D02*
X0157500Y0181284D01*
X0157500Y0180286D02*
X0155681Y0180286D01*
X0156576Y0179287D02*
X0157500Y0179287D01*
X0157500Y0178289D02*
X0157200Y0178289D01*
X0157200Y0177290D02*
X0157500Y0177290D01*
X0157500Y0176292D02*
X0157200Y0176292D01*
X0159100Y0175500D02*
X0162100Y0172500D01*
X0164100Y0172500D01*
X0166937Y0171299D02*
X0167038Y0171299D01*
X0166258Y0170301D02*
X0168037Y0170301D01*
X0168941Y0169302D02*
X0163561Y0169302D01*
X0164559Y0168303D02*
X0174056Y0168303D01*
X0174019Y0168213D02*
X0174019Y0166987D01*
X0174488Y0165855D01*
X0175355Y0164988D01*
X0175500Y0164928D01*
X0175500Y0162837D01*
X0188537Y0149800D01*
X0200563Y0149800D01*
X0202063Y0151300D01*
X0203000Y0152237D01*
X0203000Y0166628D01*
X0203145Y0166688D01*
X0204012Y0167555D01*
X0204481Y0168687D01*
X0204481Y0169913D01*
X0204012Y0171045D01*
X0203145Y0171912D01*
X0202013Y0172381D01*
X0200787Y0172381D01*
X0199655Y0171912D01*
X0198788Y0171045D01*
X0198531Y0170426D01*
X0198245Y0170712D01*
X0197113Y0171181D01*
X0195887Y0171181D01*
X0194755Y0170712D01*
X0193888Y0169845D01*
X0193419Y0168713D01*
X0193419Y0167487D01*
X0193888Y0166355D01*
X0194755Y0165488D01*
X0195887Y0165019D01*
X0196000Y0165019D01*
X0196000Y0158681D01*
X0195887Y0158681D01*
X0194755Y0158212D01*
X0193888Y0157345D01*
X0193419Y0156213D01*
X0193419Y0154987D01*
X0193888Y0153855D01*
X0194743Y0153000D01*
X0189863Y0153000D01*
X0178700Y0164163D01*
X0178700Y0164928D01*
X0178845Y0164988D01*
X0179712Y0165855D01*
X0180181Y0166987D01*
X0180181Y0168213D01*
X0179712Y0169345D01*
X0178845Y0170212D01*
X0177713Y0170681D01*
X0176487Y0170681D01*
X0175355Y0170212D01*
X0174488Y0169345D01*
X0174019Y0168213D01*
X0174019Y0167305D02*
X0165558Y0167305D01*
X0166556Y0166306D02*
X0174301Y0166306D01*
X0175035Y0165308D02*
X0167555Y0165308D01*
X0168553Y0164309D02*
X0175500Y0164309D01*
X0175500Y0163311D02*
X0169552Y0163311D01*
X0170550Y0162312D02*
X0176025Y0162312D01*
X0176049Y0161314D02*
X0177023Y0161314D01*
X0177047Y0160315D02*
X0178022Y0160315D01*
X0178046Y0159317D02*
X0179020Y0159317D01*
X0179044Y0158318D02*
X0180019Y0158318D01*
X0180043Y0157320D02*
X0181017Y0157320D01*
X0181041Y0156321D02*
X0182016Y0156321D01*
X0182040Y0155323D02*
X0183014Y0155323D01*
X0183038Y0154324D02*
X0184013Y0154324D01*
X0184037Y0153326D02*
X0185011Y0153326D01*
X0185035Y0152327D02*
X0186010Y0152327D01*
X0186034Y0151329D02*
X0187008Y0151329D01*
X0187032Y0150330D02*
X0188007Y0150330D01*
X0188031Y0149332D02*
X0227274Y0149332D01*
X0226517Y0148333D02*
X0189029Y0148333D01*
X0190028Y0147335D02*
X0226219Y0147335D01*
X0226240Y0146336D02*
X0190700Y0146336D01*
X0190700Y0145338D02*
X0226654Y0145338D01*
X0224282Y0144339D02*
X0190700Y0144339D01*
X0190700Y0143341D02*
X0223520Y0143341D01*
X0223219Y0142342D02*
X0190700Y0142342D01*
X0190700Y0141344D02*
X0223237Y0141344D01*
X0220288Y0140345D02*
X0190700Y0140345D01*
X0190700Y0139347D02*
X0219464Y0139347D01*
X0219119Y0138348D02*
X0190700Y0138348D01*
X0190700Y0137350D02*
X0219119Y0137350D01*
X0216991Y0136351D02*
X0190700Y0136351D01*
X0190700Y0135353D02*
X0215795Y0135353D01*
X0215377Y0134354D02*
X0190700Y0134354D01*
X0190700Y0133356D02*
X0215319Y0133356D01*
X0215580Y0132357D02*
X0190700Y0132357D01*
X0190700Y0131359D02*
X0212701Y0131359D01*
X0218400Y0133600D02*
X0267700Y0133600D01*
X0284900Y0150800D01*
X0284900Y0160800D02*
X0272100Y0160800D01*
X0259800Y0148500D01*
X0239400Y0148500D01*
X0228800Y0137900D01*
X0222200Y0137900D01*
X0226300Y0142000D02*
X0229200Y0142000D01*
X0233100Y0145900D01*
X0233100Y0161300D01*
X0242600Y0170800D01*
X0284900Y0170800D01*
X0284900Y0180800D02*
X0242400Y0180800D01*
X0230700Y0169100D01*
X0230700Y0148400D01*
X0229300Y0147000D01*
X0229100Y0150330D02*
X0201093Y0150330D01*
X0202092Y0151329D02*
X0229100Y0151329D01*
X0229100Y0152327D02*
X0203000Y0152327D01*
X0203000Y0153326D02*
X0229100Y0153326D01*
X0229100Y0154324D02*
X0203000Y0154324D01*
X0203000Y0155323D02*
X0229100Y0155323D01*
X0229100Y0156321D02*
X0203000Y0156321D01*
X0203000Y0157320D02*
X0229100Y0157320D01*
X0229100Y0158318D02*
X0203000Y0158318D01*
X0203000Y0159317D02*
X0229100Y0159317D01*
X0229100Y0160315D02*
X0203000Y0160315D01*
X0203000Y0161314D02*
X0229100Y0161314D01*
X0229100Y0162312D02*
X0211439Y0162312D01*
X0211213Y0162219D02*
X0212345Y0162688D01*
X0213212Y0163555D01*
X0213272Y0163700D01*
X0213363Y0163700D01*
X0221163Y0171500D01*
X0222100Y0172437D01*
X0222100Y0190728D01*
X0222245Y0190788D01*
X0223112Y0191655D01*
X0223581Y0192787D01*
X0223581Y0194013D01*
X0223112Y0195145D01*
X0222245Y0196012D01*
X0221113Y0196481D01*
X0219887Y0196481D01*
X0218755Y0196012D01*
X0217888Y0195145D01*
X0217419Y0194013D01*
X0217419Y0192787D01*
X0217888Y0191655D01*
X0218755Y0190788D01*
X0218900Y0190728D01*
X0218900Y0173763D01*
X0212697Y0167560D01*
X0212345Y0167912D01*
X0211213Y0168381D01*
X0209987Y0168381D01*
X0208855Y0167912D01*
X0207988Y0167045D01*
X0207519Y0165913D01*
X0207519Y0164687D01*
X0207988Y0163555D01*
X0208855Y0162688D01*
X0209987Y0162219D01*
X0211213Y0162219D01*
X0209761Y0162312D02*
X0203000Y0162312D01*
X0203000Y0163311D02*
X0208232Y0163311D01*
X0207675Y0164309D02*
X0203000Y0164309D01*
X0203000Y0165308D02*
X0207519Y0165308D01*
X0207682Y0166306D02*
X0203000Y0166306D01*
X0203762Y0167305D02*
X0208248Y0167305D01*
X0209800Y0168303D02*
X0204322Y0168303D01*
X0204481Y0169302D02*
X0214439Y0169302D01*
X0213441Y0168303D02*
X0211400Y0168303D01*
X0210600Y0165300D02*
X0212700Y0165300D01*
X0220500Y0173100D01*
X0220500Y0193400D01*
X0221642Y0196262D02*
X0282353Y0196262D01*
X0282206Y0195263D02*
X0222994Y0195263D01*
X0223477Y0194265D02*
X0281011Y0194265D01*
X0280321Y0193266D02*
X0223581Y0193266D01*
X0223366Y0192268D02*
X0279909Y0192268D01*
X0279714Y0190300D02*
X0279828Y0189582D01*
X0280081Y0188804D01*
X0280453Y0188075D01*
X0280934Y0187412D01*
X0281512Y0186834D01*
X0282175Y0186353D01*
X0282904Y0185981D01*
X0283682Y0185728D01*
X0284400Y0185614D01*
X0284400Y0190300D01*
X0279714Y0190300D01*
X0279719Y0190271D02*
X0222100Y0190271D01*
X0222100Y0189272D02*
X0279929Y0189272D01*
X0280351Y0188274D02*
X0222100Y0188274D01*
X0222100Y0187275D02*
X0281071Y0187275D01*
X0282323Y0186277D02*
X0222100Y0186277D01*
X0222100Y0185278D02*
X0283168Y0185278D01*
X0284400Y0186277D02*
X0285400Y0186277D01*
X0285400Y0187275D02*
X0284400Y0187275D01*
X0284400Y0188274D02*
X0285400Y0188274D01*
X0285400Y0189272D02*
X0284400Y0189272D01*
X0284400Y0190271D02*
X0285400Y0190271D01*
X0284400Y0191269D02*
X0222727Y0191269D01*
X0218900Y0190271D02*
X0166700Y0190271D01*
X0166700Y0191269D02*
X0218273Y0191269D01*
X0217634Y0192268D02*
X0166700Y0192268D01*
X0166700Y0193266D02*
X0217419Y0193266D01*
X0217523Y0194265D02*
X0166700Y0194265D01*
X0166700Y0195263D02*
X0218006Y0195263D01*
X0219358Y0196262D02*
X0166700Y0196262D01*
X0166700Y0197260D02*
X0281086Y0197260D01*
X0280359Y0198259D02*
X0166700Y0198259D01*
X0166700Y0199257D02*
X0279934Y0199257D01*
X0279721Y0200256D02*
X0166700Y0200256D01*
X0166700Y0201254D02*
X0284400Y0201254D01*
X0284400Y0200256D02*
X0285400Y0200256D01*
X0285400Y0199257D02*
X0284400Y0199257D01*
X0284400Y0198259D02*
X0285400Y0198259D01*
X0285400Y0197260D02*
X0284400Y0197260D01*
X0284400Y0196262D02*
X0285400Y0196262D01*
X0285400Y0195263D02*
X0284400Y0195263D01*
X0284400Y0194265D02*
X0285400Y0194265D01*
X0285400Y0193266D02*
X0284400Y0193266D01*
X0284400Y0192268D02*
X0285400Y0192268D01*
X0281591Y0184280D02*
X0222100Y0184280D01*
X0222100Y0183281D02*
X0280732Y0183281D01*
X0279904Y0202253D02*
X0166700Y0202253D01*
X0166700Y0203251D02*
X0280313Y0203251D01*
X0280996Y0204250D02*
X0166700Y0204250D01*
X0166700Y0205248D02*
X0282177Y0205248D01*
X0282382Y0206247D02*
X0166700Y0206247D01*
X0166700Y0207245D02*
X0281101Y0207245D01*
X0280366Y0208244D02*
X0166700Y0208244D01*
X0166700Y0209242D02*
X0279938Y0209242D01*
X0279724Y0210241D02*
X0166700Y0210241D01*
X0166700Y0211239D02*
X0284400Y0211239D01*
X0284400Y0210241D02*
X0285400Y0210241D01*
X0285400Y0209242D02*
X0284400Y0209242D01*
X0284400Y0208244D02*
X0285400Y0208244D01*
X0285400Y0207245D02*
X0284400Y0207245D01*
X0284400Y0206247D02*
X0285400Y0206247D01*
X0285400Y0205248D02*
X0284400Y0205248D01*
X0284400Y0204250D02*
X0285400Y0204250D01*
X0285400Y0203251D02*
X0284400Y0203251D01*
X0284400Y0202253D02*
X0285400Y0202253D01*
X0285400Y0212238D02*
X0284400Y0212238D01*
X0284400Y0213237D02*
X0285400Y0213237D01*
X0285400Y0214235D02*
X0284400Y0214235D01*
X0284400Y0215234D02*
X0285400Y0215234D01*
X0285400Y0216232D02*
X0284400Y0216232D01*
X0284400Y0217231D02*
X0285400Y0217231D01*
X0285400Y0218229D02*
X0284400Y0218229D01*
X0284400Y0219228D02*
X0285400Y0219228D01*
X0285400Y0220226D02*
X0284400Y0220226D01*
X0284400Y0221225D02*
X0166700Y0221225D01*
X0166700Y0222223D02*
X0279895Y0222223D01*
X0280298Y0223222D02*
X0166700Y0223222D01*
X0166700Y0224220D02*
X0280966Y0224220D01*
X0282135Y0225219D02*
X0166700Y0225219D01*
X0166700Y0226217D02*
X0286000Y0226217D01*
X0286000Y0227216D02*
X0216078Y0227216D01*
X0214600Y0228000D02*
X0217100Y0230500D01*
X0219922Y0229213D02*
X0286000Y0229213D01*
X0286000Y0230211D02*
X0220200Y0230211D01*
X0220161Y0231210D02*
X0286000Y0231210D01*
X0286000Y0232208D02*
X0219748Y0232208D01*
X0218666Y0233207D02*
X0286000Y0233207D01*
X0286000Y0234205D02*
X0229863Y0234205D01*
X0230715Y0235204D02*
X0286000Y0235204D01*
X0286000Y0236202D02*
X0231081Y0236202D01*
X0231081Y0237201D02*
X0286000Y0237201D01*
X0286000Y0238199D02*
X0230714Y0238199D01*
X0229860Y0239198D02*
X0286000Y0239198D01*
X0286000Y0240196D02*
X0211666Y0240196D01*
X0210668Y0241195D02*
X0286000Y0241195D01*
X0286000Y0242193D02*
X0209669Y0242193D01*
X0208671Y0243192D02*
X0286000Y0243192D01*
X0286000Y0244190D02*
X0215174Y0244190D01*
X0213100Y0246500D02*
X0228100Y0246500D01*
X0234600Y0253000D01*
X0246100Y0253000D01*
X0252600Y0259500D01*
X0282700Y0259500D01*
X0284900Y0257300D01*
X0284900Y0249400D01*
X0282069Y0248184D02*
X0232047Y0248184D01*
X0231049Y0247186D02*
X0282757Y0247186D01*
X0281819Y0249183D02*
X0233046Y0249183D01*
X0234044Y0250181D02*
X0281889Y0250181D01*
X0282323Y0251180D02*
X0235043Y0251180D01*
X0232514Y0253177D02*
X0228968Y0253177D01*
X0229200Y0252617D02*
X0228728Y0253756D01*
X0227856Y0254628D01*
X0226717Y0255100D01*
X0225483Y0255100D01*
X0224344Y0254628D01*
X0223472Y0253756D01*
X0223407Y0253600D01*
X0209463Y0253600D01*
X0205521Y0257542D01*
X0205581Y0257687D01*
X0205581Y0258913D01*
X0205112Y0260045D01*
X0204357Y0260800D01*
X0240982Y0260800D01*
X0242107Y0259675D01*
X0242488Y0258755D01*
X0243355Y0257888D01*
X0244487Y0257419D01*
X0245713Y0257419D01*
X0246845Y0257888D01*
X0247712Y0258755D01*
X0248181Y0259887D01*
X0248181Y0261113D01*
X0247712Y0262245D01*
X0246845Y0263112D01*
X0245925Y0263493D01*
X0244389Y0265029D01*
X0243629Y0265789D01*
X0242637Y0266200D01*
X0167063Y0266200D01*
X0166071Y0265789D01*
X0146071Y0245789D01*
X0145311Y0245029D01*
X0144900Y0244037D01*
X0144900Y0224118D01*
X0140482Y0219700D01*
X0128603Y0219700D01*
X0128629Y0219711D01*
X0132490Y0223572D01*
X0133456Y0223972D01*
X0134328Y0224844D01*
X0134800Y0225983D01*
X0134800Y0227217D01*
X0134328Y0228356D01*
X0133456Y0229228D01*
X0132317Y0229700D01*
X0131083Y0229700D01*
X0129944Y0229228D01*
X0129072Y0228356D01*
X0128672Y0227390D01*
X0125982Y0224700D01*
X0104063Y0224700D01*
X0103071Y0224289D01*
X0102311Y0223529D01*
X0083682Y0204900D01*
X0078382Y0204900D01*
X0077417Y0205300D01*
X0076183Y0205300D01*
X0075044Y0204828D01*
X0074172Y0203956D01*
X0073700Y0202817D01*
X0073700Y0201583D01*
X0074172Y0200444D01*
X0075044Y0199572D01*
X0075505Y0199381D01*
X0074855Y0199112D01*
X0073988Y0198245D01*
X0073519Y0197113D01*
X0073519Y0195887D01*
X0073988Y0194755D01*
X0074855Y0193888D01*
X0075987Y0193419D01*
X0077213Y0193419D01*
X0078133Y0193800D01*
X0087637Y0193800D01*
X0088629Y0194211D01*
X0108718Y0214300D01*
X0142137Y0214300D01*
X0143129Y0214711D01*
X0143889Y0215471D01*
X0149889Y0221471D01*
X0150300Y0222463D01*
X0150300Y0242382D01*
X0168718Y0260800D01*
X0200643Y0260800D01*
X0199888Y0260045D01*
X0199419Y0258913D01*
X0199419Y0257687D01*
X0199888Y0256555D01*
X0200755Y0255688D01*
X0201887Y0255219D01*
X0203113Y0255219D01*
X0203258Y0255279D01*
X0208137Y0250400D01*
X0223407Y0250400D01*
X0223472Y0250244D01*
X0224344Y0249372D01*
X0225483Y0248900D01*
X0226717Y0248900D01*
X0227856Y0249372D01*
X0228728Y0250244D01*
X0229200Y0251383D01*
X0229200Y0252617D01*
X0229200Y0252178D02*
X0231516Y0252178D01*
X0230517Y0251180D02*
X0229116Y0251180D01*
X0229519Y0250181D02*
X0228665Y0250181D01*
X0228520Y0249183D02*
X0227400Y0249183D01*
X0227522Y0248184D02*
X0215758Y0248184D01*
X0214724Y0249183D02*
X0224800Y0249183D01*
X0223535Y0250181D02*
X0191681Y0250181D01*
X0191653Y0251180D02*
X0207357Y0251180D01*
X0206359Y0252178D02*
X0197662Y0252178D01*
X0198290Y0253177D02*
X0205360Y0253177D01*
X0204362Y0254175D02*
X0198500Y0254175D01*
X0198393Y0255174D02*
X0203363Y0255174D01*
X0205892Y0257171D02*
X0248008Y0257171D01*
X0247127Y0258170D02*
X0249007Y0258170D01*
X0250005Y0259168D02*
X0247883Y0259168D01*
X0248181Y0260167D02*
X0251004Y0260167D01*
X0248159Y0261165D02*
X0255424Y0261165D01*
X0254426Y0262164D02*
X0247746Y0262164D01*
X0246724Y0263162D02*
X0253991Y0263162D01*
X0253578Y0264161D02*
X0245258Y0264161D01*
X0244259Y0265159D02*
X0253476Y0265159D01*
X0253476Y0266158D02*
X0242739Y0266158D01*
X0245981Y0268155D02*
X0055000Y0268155D01*
X0055000Y0269153D02*
X0245101Y0269153D01*
X0244688Y0270152D02*
X0055000Y0270152D01*
X0055000Y0271150D02*
X0244500Y0271150D01*
X0247728Y0267156D02*
X0055000Y0267156D01*
X0055000Y0266158D02*
X0087619Y0266158D01*
X0087963Y0266300D02*
X0086971Y0265889D01*
X0076111Y0255029D01*
X0075700Y0254037D01*
X0075700Y0222463D01*
X0076111Y0221471D01*
X0076871Y0220711D01*
X0080371Y0217211D01*
X0081363Y0216800D01*
X0093537Y0216800D01*
X0094529Y0217211D01*
X0095289Y0217971D01*
X0097825Y0220507D01*
X0098745Y0220888D01*
X0099612Y0221755D01*
X0100081Y0222887D01*
X0100081Y0224113D01*
X0099612Y0225245D01*
X0098745Y0226112D01*
X0097613Y0226581D01*
X0096387Y0226581D01*
X0095255Y0226112D01*
X0094388Y0225245D01*
X0094007Y0224325D01*
X0091882Y0222200D01*
X0083018Y0222200D01*
X0081100Y0224118D01*
X0081100Y0252382D01*
X0089618Y0260900D01*
X0133882Y0260900D01*
X0136800Y0257982D01*
X0136800Y0227633D01*
X0136419Y0226713D01*
X0136419Y0225487D01*
X0136888Y0224355D01*
X0137755Y0223488D01*
X0138887Y0223019D01*
X0140113Y0223019D01*
X0141245Y0223488D01*
X0142112Y0224355D01*
X0142581Y0225487D01*
X0142581Y0226713D01*
X0142200Y0227633D01*
X0142200Y0259637D01*
X0141789Y0260629D01*
X0141029Y0261389D01*
X0136529Y0265889D01*
X0135537Y0266300D01*
X0087963Y0266300D01*
X0086241Y0265159D02*
X0055000Y0265159D01*
X0055000Y0264161D02*
X0085242Y0264161D01*
X0084244Y0263162D02*
X0055000Y0263162D01*
X0055000Y0262164D02*
X0083245Y0262164D01*
X0082247Y0261165D02*
X0055000Y0261165D01*
X0055000Y0260167D02*
X0081248Y0260167D01*
X0080250Y0259168D02*
X0055000Y0259168D01*
X0055000Y0258170D02*
X0079251Y0258170D01*
X0078253Y0257171D02*
X0055000Y0257171D01*
X0055000Y0256172D02*
X0077254Y0256172D01*
X0076256Y0255174D02*
X0055000Y0255174D01*
X0055000Y0254175D02*
X0075757Y0254175D01*
X0075700Y0253177D02*
X0055000Y0253177D01*
X0055000Y0252178D02*
X0075700Y0252178D01*
X0075700Y0251180D02*
X0055000Y0251180D01*
X0055000Y0250181D02*
X0075700Y0250181D01*
X0075700Y0249183D02*
X0055000Y0249183D01*
X0055000Y0248184D02*
X0075700Y0248184D01*
X0075700Y0247186D02*
X0055000Y0247186D01*
X0055000Y0246187D02*
X0075700Y0246187D01*
X0075700Y0245189D02*
X0055000Y0245189D01*
X0055000Y0244190D02*
X0075700Y0244190D01*
X0075700Y0243192D02*
X0055000Y0243192D01*
X0055000Y0242193D02*
X0075700Y0242193D01*
X0075700Y0241195D02*
X0055000Y0241195D01*
X0055000Y0240196D02*
X0075700Y0240196D01*
X0075700Y0239198D02*
X0055000Y0239198D01*
X0055000Y0238199D02*
X0075700Y0238199D01*
X0075700Y0237201D02*
X0055000Y0237201D01*
X0055000Y0236202D02*
X0075700Y0236202D01*
X0075700Y0235204D02*
X0055000Y0235204D01*
X0055000Y0234205D02*
X0075700Y0234205D01*
X0075700Y0233207D02*
X0055000Y0233207D01*
X0055000Y0232208D02*
X0075700Y0232208D01*
X0075700Y0231210D02*
X0055000Y0231210D01*
X0055000Y0230211D02*
X0075700Y0230211D01*
X0075700Y0229213D02*
X0055000Y0229213D01*
X0055000Y0228214D02*
X0075700Y0228214D01*
X0075700Y0227216D02*
X0055000Y0227216D01*
X0055000Y0226217D02*
X0075700Y0226217D01*
X0075700Y0225219D02*
X0055000Y0225219D01*
X0055000Y0224220D02*
X0075700Y0224220D01*
X0075700Y0223222D02*
X0055000Y0223222D01*
X0055000Y0222223D02*
X0075799Y0222223D01*
X0076357Y0221225D02*
X0055000Y0221225D01*
X0055000Y0220226D02*
X0077356Y0220226D01*
X0076871Y0220711D02*
X0076871Y0220711D01*
X0078354Y0219228D02*
X0055000Y0219228D01*
X0055000Y0218229D02*
X0079353Y0218229D01*
X0080351Y0217231D02*
X0064060Y0217231D01*
X0063948Y0217277D02*
X0061452Y0217277D01*
X0059147Y0216322D01*
X0057383Y0214558D01*
X0056428Y0212253D01*
X0056428Y0209758D01*
X0057383Y0207453D01*
X0059147Y0205689D01*
X0060569Y0205100D01*
X0059147Y0204511D01*
X0057383Y0202747D01*
X0056428Y0200442D01*
X0056428Y0197947D01*
X0057383Y0195642D01*
X0059147Y0193878D01*
X0061452Y0192923D01*
X0063948Y0192923D01*
X0066253Y0193878D01*
X0068017Y0195642D01*
X0068972Y0197947D01*
X0068972Y0200442D01*
X0068017Y0202747D01*
X0066253Y0204511D01*
X0064831Y0205100D01*
X0066253Y0205689D01*
X0068017Y0207453D01*
X0068972Y0209758D01*
X0068972Y0212253D01*
X0068017Y0214558D01*
X0066253Y0216322D01*
X0063948Y0217277D01*
X0061340Y0217231D02*
X0055000Y0217231D01*
X0055000Y0216232D02*
X0059057Y0216232D01*
X0058059Y0215234D02*
X0055000Y0215234D01*
X0055000Y0214235D02*
X0057249Y0214235D01*
X0056836Y0213237D02*
X0055000Y0213237D01*
X0055000Y0212238D02*
X0056428Y0212238D01*
X0056428Y0211239D02*
X0055000Y0211239D01*
X0055000Y0210241D02*
X0056428Y0210241D01*
X0056642Y0209242D02*
X0055000Y0209242D01*
X0055000Y0208244D02*
X0057055Y0208244D01*
X0057591Y0207245D02*
X0055000Y0207245D01*
X0055000Y0206247D02*
X0058589Y0206247D01*
X0060210Y0205248D02*
X0055000Y0205248D01*
X0055000Y0204250D02*
X0058886Y0204250D01*
X0057887Y0203251D02*
X0055000Y0203251D01*
X0055000Y0202253D02*
X0057178Y0202253D01*
X0056765Y0201254D02*
X0055000Y0201254D01*
X0055000Y0200256D02*
X0056428Y0200256D01*
X0056428Y0199257D02*
X0055000Y0199257D01*
X0055000Y0198259D02*
X0056428Y0198259D01*
X0056713Y0197260D02*
X0055000Y0197260D01*
X0055000Y0196262D02*
X0057126Y0196262D01*
X0057762Y0195263D02*
X0055000Y0195263D01*
X0055000Y0194265D02*
X0058760Y0194265D01*
X0060623Y0193266D02*
X0055000Y0193266D01*
X0055000Y0192268D02*
X0094317Y0192268D01*
X0094488Y0191855D02*
X0095355Y0190988D01*
X0095650Y0190866D01*
X0095650Y0190499D01*
X0099241Y0186908D01*
X0099119Y0186613D01*
X0099119Y0185387D01*
X0099588Y0184255D01*
X0100455Y0183388D01*
X0101587Y0182919D01*
X0102813Y0182919D01*
X0103945Y0183388D01*
X0104812Y0184255D01*
X0105281Y0185387D01*
X0105281Y0186613D01*
X0104812Y0187745D01*
X0103945Y0188612D01*
X0102813Y0189081D01*
X0101587Y0189081D01*
X0101292Y0188959D01*
X0099054Y0191197D01*
X0099712Y0191855D01*
X0100181Y0192987D01*
X0100181Y0194213D01*
X0099712Y0195345D01*
X0098845Y0196212D01*
X0097713Y0196681D01*
X0096487Y0196681D01*
X0095355Y0196212D01*
X0094488Y0195345D01*
X0094019Y0194213D01*
X0094019Y0192987D01*
X0094488Y0191855D01*
X0095073Y0191269D02*
X0055000Y0191269D01*
X0055000Y0190271D02*
X0095879Y0190271D01*
X0096877Y0189272D02*
X0055000Y0189272D01*
X0055000Y0188274D02*
X0097876Y0188274D01*
X0098874Y0187275D02*
X0055000Y0187275D01*
X0055000Y0186277D02*
X0099119Y0186277D01*
X0099164Y0185278D02*
X0055000Y0185278D01*
X0055000Y0184280D02*
X0099578Y0184280D01*
X0100713Y0183281D02*
X0055000Y0183281D01*
X0055000Y0182283D02*
X0105472Y0182283D01*
X0105319Y0181284D02*
X0055000Y0181284D01*
X0055000Y0180286D02*
X0105485Y0180286D01*
X0106056Y0179287D02*
X0055000Y0179287D01*
X0055000Y0178289D02*
X0107619Y0178289D01*
X0108400Y0181300D02*
X0110800Y0178900D01*
X0140200Y0178900D01*
X0149797Y0181284D02*
X0111481Y0181284D01*
X0111328Y0182283D02*
X0150525Y0182283D01*
X0149936Y0184280D02*
X0109258Y0184280D01*
X0107542Y0184280D02*
X0104822Y0184280D01*
X0105236Y0185278D02*
X0149251Y0185278D01*
X0149000Y0186277D02*
X0105281Y0186277D01*
X0105007Y0187275D02*
X0149066Y0187275D01*
X0149490Y0188274D02*
X0104284Y0188274D01*
X0100978Y0189272D02*
X0150692Y0189272D01*
X0153608Y0190271D02*
X0099980Y0190271D01*
X0099127Y0191269D02*
X0154607Y0191269D01*
X0155500Y0192268D02*
X0099883Y0192268D01*
X0100181Y0193266D02*
X0155500Y0193266D01*
X0155500Y0194265D02*
X0100160Y0194265D01*
X0099746Y0195263D02*
X0155500Y0195263D01*
X0155500Y0196262D02*
X0098725Y0196262D01*
X0095475Y0196262D02*
X0090680Y0196262D01*
X0091679Y0197260D02*
X0155500Y0197260D01*
X0155500Y0198259D02*
X0092677Y0198259D01*
X0093676Y0199257D02*
X0155500Y0199257D01*
X0155500Y0200256D02*
X0094674Y0200256D01*
X0095673Y0201254D02*
X0155500Y0201254D01*
X0155500Y0202253D02*
X0096671Y0202253D01*
X0097670Y0203251D02*
X0155500Y0203251D01*
X0155500Y0204250D02*
X0098668Y0204250D01*
X0099667Y0205248D02*
X0155500Y0205248D01*
X0155500Y0206247D02*
X0100665Y0206247D01*
X0101664Y0207245D02*
X0155500Y0207245D01*
X0155500Y0208244D02*
X0102662Y0208244D01*
X0103661Y0209242D02*
X0155500Y0209242D01*
X0155500Y0210241D02*
X0104659Y0210241D01*
X0105658Y0211239D02*
X0155500Y0211239D01*
X0155500Y0212238D02*
X0106656Y0212238D01*
X0107655Y0213237D02*
X0155500Y0213237D01*
X0155500Y0214235D02*
X0108653Y0214235D01*
X0101005Y0222223D02*
X0099806Y0222223D01*
X0100006Y0221225D02*
X0099082Y0221225D01*
X0099008Y0220226D02*
X0097544Y0220226D01*
X0098009Y0219228D02*
X0096546Y0219228D01*
X0097011Y0218229D02*
X0095547Y0218229D01*
X0095289Y0217971D02*
X0095289Y0217971D01*
X0096012Y0217231D02*
X0094549Y0217231D01*
X0095014Y0216232D02*
X0066343Y0216232D01*
X0067341Y0215234D02*
X0094015Y0215234D01*
X0093017Y0214235D02*
X0068151Y0214235D01*
X0068564Y0213237D02*
X0092018Y0213237D01*
X0091020Y0212238D02*
X0068972Y0212238D01*
X0068972Y0211239D02*
X0090021Y0211239D01*
X0089023Y0210241D02*
X0068972Y0210241D01*
X0068758Y0209242D02*
X0088024Y0209242D01*
X0087026Y0208244D02*
X0068345Y0208244D01*
X0067809Y0207245D02*
X0086027Y0207245D01*
X0085029Y0206247D02*
X0066811Y0206247D01*
X0065190Y0205248D02*
X0076059Y0205248D01*
X0077541Y0205248D02*
X0084030Y0205248D01*
X0074466Y0204250D02*
X0066514Y0204250D01*
X0067513Y0203251D02*
X0073880Y0203251D01*
X0073700Y0202253D02*
X0068222Y0202253D01*
X0068635Y0201254D02*
X0073836Y0201254D01*
X0074360Y0200256D02*
X0068972Y0200256D01*
X0068972Y0199257D02*
X0075206Y0199257D01*
X0074002Y0198259D02*
X0068972Y0198259D01*
X0068687Y0197260D02*
X0073580Y0197260D01*
X0073519Y0196262D02*
X0068274Y0196262D01*
X0067638Y0195263D02*
X0073777Y0195263D01*
X0074478Y0194265D02*
X0066640Y0194265D01*
X0064777Y0193266D02*
X0094019Y0193266D01*
X0094040Y0194265D02*
X0088683Y0194265D01*
X0089682Y0195263D02*
X0094454Y0195263D01*
X0103687Y0183281D02*
X0106024Y0183281D01*
X0110776Y0183281D02*
X0157500Y0183281D01*
X0157500Y0182283D02*
X0154675Y0182283D01*
X0154264Y0184280D02*
X0157500Y0184280D01*
X0157500Y0185278D02*
X0154949Y0185278D01*
X0155200Y0186277D02*
X0157500Y0186277D01*
X0157500Y0187275D02*
X0155138Y0187275D01*
X0156136Y0188274D02*
X0157500Y0188274D01*
X0157500Y0189272D02*
X0157135Y0189272D01*
X0157100Y0191500D02*
X0157100Y0239500D01*
X0163100Y0245500D01*
X0166100Y0245500D01*
X0168892Y0244190D02*
X0169528Y0244190D01*
X0169181Y0245189D02*
X0170000Y0245189D01*
X0170029Y0246187D02*
X0169150Y0246187D01*
X0168737Y0247186D02*
X0170443Y0247186D01*
X0171480Y0248184D02*
X0167671Y0248184D01*
X0164529Y0248184D02*
X0156103Y0248184D01*
X0155104Y0247186D02*
X0163463Y0247186D01*
X0161525Y0246187D02*
X0154106Y0246187D01*
X0153107Y0245189D02*
X0160526Y0245189D01*
X0159528Y0244190D02*
X0152109Y0244190D01*
X0151110Y0243192D02*
X0158529Y0243192D01*
X0157531Y0242193D02*
X0150300Y0242193D01*
X0150300Y0241195D02*
X0156532Y0241195D01*
X0156437Y0241100D02*
X0156437Y0241100D01*
X0155534Y0240196D02*
X0150300Y0240196D01*
X0150300Y0239198D02*
X0155500Y0239198D01*
X0155500Y0238199D02*
X0150300Y0238199D01*
X0150300Y0237201D02*
X0155500Y0237201D01*
X0155500Y0236202D02*
X0150300Y0236202D01*
X0150300Y0235204D02*
X0155500Y0235204D01*
X0155500Y0234205D02*
X0150300Y0234205D01*
X0150300Y0233207D02*
X0155500Y0233207D01*
X0155500Y0232208D02*
X0150300Y0232208D01*
X0150300Y0231210D02*
X0155500Y0231210D01*
X0155500Y0230211D02*
X0150300Y0230211D01*
X0150300Y0229213D02*
X0155500Y0229213D01*
X0155500Y0228214D02*
X0150300Y0228214D01*
X0150300Y0227216D02*
X0155500Y0227216D01*
X0155500Y0226217D02*
X0150300Y0226217D01*
X0150300Y0225219D02*
X0155500Y0225219D01*
X0155500Y0224220D02*
X0150300Y0224220D01*
X0150300Y0223222D02*
X0155500Y0223222D01*
X0155500Y0222223D02*
X0150201Y0222223D01*
X0149643Y0221225D02*
X0155500Y0221225D01*
X0155500Y0220226D02*
X0148644Y0220226D01*
X0147646Y0219228D02*
X0155500Y0219228D01*
X0155500Y0218229D02*
X0146647Y0218229D01*
X0145649Y0217231D02*
X0155500Y0217231D01*
X0155500Y0216232D02*
X0144650Y0216232D01*
X0143652Y0215234D02*
X0155500Y0215234D01*
X0166700Y0215234D02*
X0282155Y0215234D01*
X0282411Y0216232D02*
X0166700Y0216232D01*
X0166700Y0217231D02*
X0281116Y0217231D01*
X0280374Y0218229D02*
X0166700Y0218229D01*
X0166700Y0219228D02*
X0279943Y0219228D01*
X0279726Y0220226D02*
X0166700Y0220226D01*
X0166700Y0214235D02*
X0280981Y0214235D01*
X0280305Y0213237D02*
X0166700Y0213237D01*
X0166700Y0212238D02*
X0279900Y0212238D01*
X0284400Y0222223D02*
X0285400Y0222223D01*
X0285400Y0223222D02*
X0284400Y0223222D01*
X0284400Y0224220D02*
X0285400Y0224220D01*
X0285400Y0225219D02*
X0284400Y0225219D01*
X0286000Y0228214D02*
X0219198Y0228214D01*
X0221100Y0231500D02*
X0224100Y0231500D01*
X0221100Y0231500D02*
X0218100Y0234500D01*
X0213100Y0234500D01*
X0212100Y0232500D01*
X0214039Y0231210D02*
X0205653Y0231210D01*
X0204655Y0232208D02*
X0214452Y0232208D01*
X0215534Y0233207D02*
X0203656Y0233207D01*
X0202657Y0234205D02*
X0226137Y0234205D01*
X0228000Y0236700D02*
X0212900Y0236700D01*
X0204100Y0245500D01*
X0186100Y0245500D01*
X0176100Y0235500D01*
X0166100Y0235500D01*
X0165100Y0234500D01*
X0165100Y0187500D01*
X0169100Y0183500D01*
X0175100Y0183500D01*
X0176100Y0184500D01*
X0178930Y0183281D02*
X0218900Y0183281D01*
X0218900Y0182283D02*
X0178240Y0182283D01*
X0179181Y0184280D02*
X0218900Y0184280D01*
X0218900Y0185278D02*
X0179113Y0185278D01*
X0178681Y0186277D02*
X0218900Y0186277D01*
X0218900Y0187275D02*
X0177451Y0187275D01*
X0174749Y0187275D02*
X0167588Y0187275D01*
X0166700Y0188274D02*
X0218900Y0188274D01*
X0218900Y0189272D02*
X0166700Y0189272D01*
X0168586Y0186277D02*
X0173519Y0186277D01*
X0173087Y0185278D02*
X0169585Y0185278D01*
X0172600Y0180000D02*
X0171100Y0178500D01*
X0164100Y0178500D01*
X0163100Y0179500D01*
X0163100Y0236500D01*
X0164100Y0237500D01*
X0174100Y0237500D01*
X0187100Y0250500D01*
X0188600Y0250500D01*
X0191389Y0249183D02*
X0211476Y0249183D01*
X0210442Y0248184D02*
X0190642Y0248184D01*
X0191240Y0252178D02*
X0193137Y0252178D01*
X0195400Y0254300D02*
X0183900Y0254300D01*
X0179100Y0249500D01*
X0179100Y0245500D01*
X0173100Y0239500D01*
X0163100Y0239500D01*
X0161100Y0237500D01*
X0161100Y0178500D01*
X0163100Y0176500D01*
X0166500Y0176500D01*
X0168400Y0174600D01*
X0168400Y0172200D01*
X0169100Y0171500D01*
X0171100Y0171500D01*
X0173938Y0170301D02*
X0175568Y0170301D01*
X0174470Y0169302D02*
X0173259Y0169302D01*
X0174181Y0171299D02*
X0199042Y0171299D01*
X0200585Y0172298D02*
X0174105Y0172298D01*
X0173661Y0173296D02*
X0218433Y0173296D01*
X0218900Y0174295D02*
X0172405Y0174295D01*
X0169970Y0175293D02*
X0218900Y0175293D01*
X0218900Y0176292D02*
X0168971Y0176292D01*
X0174109Y0177290D02*
X0218900Y0177290D01*
X0218900Y0178289D02*
X0175226Y0178289D01*
X0175640Y0179287D02*
X0218900Y0179287D01*
X0218900Y0180286D02*
X0175681Y0180286D01*
X0175403Y0181284D02*
X0218900Y0181284D01*
X0222100Y0181284D02*
X0240621Y0181284D01*
X0239623Y0180286D02*
X0222100Y0180286D01*
X0222100Y0179287D02*
X0238624Y0179287D01*
X0237626Y0178289D02*
X0222100Y0178289D01*
X0222100Y0177290D02*
X0236627Y0177290D01*
X0235629Y0176292D02*
X0222100Y0176292D01*
X0222100Y0175293D02*
X0234630Y0175293D01*
X0233632Y0174295D02*
X0222100Y0174295D01*
X0222100Y0173296D02*
X0232633Y0173296D01*
X0231635Y0172298D02*
X0221960Y0172298D01*
X0220962Y0171299D02*
X0230636Y0171299D01*
X0229638Y0170301D02*
X0219963Y0170301D01*
X0218965Y0169302D02*
X0229100Y0169302D01*
X0229100Y0168303D02*
X0217966Y0168303D01*
X0216968Y0167305D02*
X0229100Y0167305D01*
X0229100Y0166306D02*
X0215969Y0166306D01*
X0214971Y0165308D02*
X0229100Y0165308D01*
X0229100Y0164309D02*
X0213972Y0164309D01*
X0212968Y0163311D02*
X0229100Y0163311D01*
X0217435Y0172298D02*
X0202215Y0172298D01*
X0203758Y0171299D02*
X0216436Y0171299D01*
X0215438Y0170301D02*
X0204321Y0170301D01*
X0201400Y0169300D02*
X0201400Y0152900D01*
X0199900Y0151400D01*
X0189200Y0151400D01*
X0177100Y0163500D01*
X0177100Y0167600D01*
X0179899Y0166306D02*
X0193936Y0166306D01*
X0193494Y0167305D02*
X0180181Y0167305D01*
X0180144Y0168303D02*
X0193419Y0168303D01*
X0193663Y0169302D02*
X0179730Y0169302D01*
X0178632Y0170301D02*
X0194343Y0170301D01*
X0196500Y0168100D02*
X0197600Y0167000D01*
X0197600Y0156700D01*
X0196500Y0155600D01*
X0193693Y0154324D02*
X0188538Y0154324D01*
X0187540Y0155323D02*
X0193419Y0155323D01*
X0193464Y0156321D02*
X0186541Y0156321D01*
X0185543Y0157320D02*
X0193877Y0157320D01*
X0195011Y0158318D02*
X0184544Y0158318D01*
X0183546Y0159317D02*
X0196000Y0159317D01*
X0196000Y0160315D02*
X0182547Y0160315D01*
X0181549Y0161314D02*
X0196000Y0161314D01*
X0196000Y0162312D02*
X0180550Y0162312D01*
X0179552Y0163311D02*
X0196000Y0163311D01*
X0196000Y0164309D02*
X0178700Y0164309D01*
X0179165Y0165308D02*
X0195189Y0165308D01*
X0201400Y0165600D02*
X0201400Y0169300D01*
X0194417Y0153326D02*
X0189537Y0153326D01*
X0182502Y0147335D02*
X0152084Y0147335D01*
X0153082Y0146336D02*
X0183501Y0146336D01*
X0184500Y0145338D02*
X0154081Y0145338D01*
X0151085Y0148333D02*
X0181504Y0148333D01*
X0180505Y0149332D02*
X0150087Y0149332D01*
X0149088Y0150330D02*
X0179507Y0150330D01*
X0178508Y0151329D02*
X0148667Y0151329D01*
X0148030Y0152327D02*
X0154415Y0152327D01*
X0153751Y0153326D02*
X0145927Y0153326D01*
X0144928Y0154324D02*
X0153519Y0154324D01*
X0153606Y0155323D02*
X0143930Y0155323D01*
X0141947Y0150800D02*
X0142719Y0150028D01*
X0142719Y0149587D01*
X0143188Y0148455D01*
X0144055Y0147588D01*
X0144292Y0147490D01*
X0144301Y0147481D01*
X0143587Y0147481D01*
X0142455Y0147012D01*
X0141588Y0146145D01*
X0141119Y0145013D01*
X0141119Y0143787D01*
X0141588Y0142655D01*
X0142162Y0142081D01*
X0141987Y0142081D01*
X0140855Y0141612D01*
X0139988Y0140745D01*
X0139519Y0139613D01*
X0139519Y0138387D01*
X0139988Y0137255D01*
X0140855Y0136388D01*
X0141987Y0135919D01*
X0142500Y0135919D01*
X0142500Y0111663D01*
X0139637Y0108800D01*
X0132587Y0108800D01*
X0137000Y0113213D01*
X0137000Y0125787D01*
X0135887Y0126900D01*
X0134887Y0127900D01*
X0134057Y0127900D01*
X0133345Y0128612D01*
X0132213Y0129081D01*
X0130987Y0129081D01*
X0129855Y0128612D01*
X0128988Y0127745D01*
X0128519Y0126613D01*
X0128519Y0125387D01*
X0128988Y0124255D01*
X0129855Y0123388D01*
X0130987Y0122919D01*
X0132213Y0122919D01*
X0133200Y0123328D01*
X0133200Y0114787D01*
X0129713Y0111300D01*
X0101157Y0111300D01*
X0101712Y0111855D01*
X0102181Y0112987D01*
X0102181Y0114213D01*
X0101712Y0115345D01*
X0100845Y0116212D01*
X0100550Y0116334D01*
X0100550Y0135319D01*
X0101413Y0135319D01*
X0102545Y0135788D01*
X0103412Y0136655D01*
X0103881Y0137787D01*
X0103881Y0139013D01*
X0103412Y0140145D01*
X0102545Y0141012D01*
X0101413Y0141481D01*
X0100187Y0141481D01*
X0099055Y0141012D01*
X0098188Y0140145D01*
X0097719Y0139013D01*
X0097719Y0138170D01*
X0097650Y0138101D01*
X0097650Y0117101D01*
X0097499Y0116950D01*
X0096650Y0116101D01*
X0096650Y0115507D01*
X0096488Y0115345D01*
X0096054Y0114298D01*
X0091118Y0119235D01*
X0091181Y0119387D01*
X0091181Y0120613D01*
X0090712Y0121745D01*
X0090300Y0122157D01*
X0090300Y0149947D01*
X0094153Y0153800D01*
X0101943Y0153800D01*
X0102255Y0153488D01*
X0103387Y0153019D01*
X0104613Y0153019D01*
X0105745Y0153488D01*
X0106057Y0153800D01*
X0109547Y0153800D01*
X0112547Y0150800D01*
X0115243Y0150800D01*
X0115555Y0150488D01*
X0116687Y0150019D01*
X0117913Y0150019D01*
X0119045Y0150488D01*
X0119357Y0150800D01*
X0141947Y0150800D01*
X0142417Y0150330D02*
X0118665Y0150330D01*
X0115935Y0150330D02*
X0090683Y0150330D01*
X0090300Y0149332D02*
X0142825Y0149332D01*
X0143309Y0148333D02*
X0090300Y0148333D01*
X0090300Y0147335D02*
X0143234Y0147335D01*
X0141779Y0146336D02*
X0121621Y0146336D01*
X0121345Y0146612D02*
X0120213Y0147081D01*
X0118987Y0147081D01*
X0117855Y0146612D01*
X0116988Y0145745D01*
X0116928Y0145600D01*
X0108272Y0145600D01*
X0108212Y0145745D01*
X0107345Y0146612D01*
X0106213Y0147081D01*
X0104987Y0147081D01*
X0103855Y0146612D01*
X0102988Y0145745D01*
X0102519Y0144613D01*
X0102519Y0143387D01*
X0102988Y0142255D01*
X0103855Y0141388D01*
X0104987Y0140919D01*
X0106213Y0140919D01*
X0107345Y0141388D01*
X0108212Y0142255D01*
X0108272Y0142400D01*
X0116928Y0142400D01*
X0116988Y0142255D01*
X0117855Y0141388D01*
X0118987Y0140919D01*
X0120213Y0140919D01*
X0121345Y0141388D01*
X0122212Y0142255D01*
X0122681Y0143387D01*
X0122681Y0144613D01*
X0122212Y0145745D01*
X0121345Y0146612D01*
X0122381Y0145338D02*
X0141253Y0145338D01*
X0141119Y0144339D02*
X0122681Y0144339D01*
X0122662Y0143341D02*
X0141304Y0143341D01*
X0141900Y0142342D02*
X0122248Y0142342D01*
X0121238Y0141344D02*
X0140586Y0141344D01*
X0139822Y0140345D02*
X0116124Y0140345D01*
X0116445Y0140212D02*
X0115313Y0140681D01*
X0114087Y0140681D01*
X0112955Y0140212D01*
X0112088Y0139345D01*
X0112028Y0139200D01*
X0108337Y0139200D01*
X0107987Y0138850D01*
X0107899Y0138850D01*
X0107396Y0138347D01*
X0107313Y0138381D01*
X0106087Y0138381D01*
X0104955Y0137912D01*
X0104088Y0137045D01*
X0103619Y0135913D01*
X0103619Y0134687D01*
X0104088Y0133555D01*
X0104955Y0132688D01*
X0106087Y0132219D01*
X0107313Y0132219D01*
X0108090Y0132541D01*
X0107330Y0131781D01*
X0106987Y0131781D01*
X0105855Y0131312D01*
X0104988Y0130445D01*
X0104519Y0129313D01*
X0104519Y0128087D01*
X0104988Y0126955D01*
X0105855Y0126088D01*
X0106987Y0125619D01*
X0108213Y0125619D01*
X0109345Y0126088D01*
X0110212Y0126955D01*
X0110681Y0128087D01*
X0110681Y0128437D01*
X0111088Y0127455D01*
X0111955Y0126588D01*
X0112150Y0126507D01*
X0112150Y0121034D01*
X0111855Y0120912D01*
X0110988Y0120045D01*
X0110519Y0118913D01*
X0110519Y0117687D01*
X0110988Y0116555D01*
X0111855Y0115688D01*
X0112987Y0115219D01*
X0114213Y0115219D01*
X0115345Y0115688D01*
X0116212Y0116555D01*
X0116681Y0117687D01*
X0116681Y0118913D01*
X0116212Y0120045D01*
X0115345Y0120912D01*
X0115050Y0121034D01*
X0115050Y0126424D01*
X0115445Y0126588D01*
X0116312Y0127455D01*
X0116781Y0128587D01*
X0116781Y0129813D01*
X0116312Y0130945D01*
X0115507Y0131750D01*
X0115999Y0131750D01*
X0121850Y0125899D01*
X0121850Y0119934D01*
X0121555Y0119812D01*
X0120688Y0118945D01*
X0120219Y0117813D01*
X0120219Y0116587D01*
X0120688Y0115455D01*
X0121555Y0114588D01*
X0122687Y0114119D01*
X0123913Y0114119D01*
X0125045Y0114588D01*
X0125912Y0115455D01*
X0126381Y0116587D01*
X0126381Y0117813D01*
X0125912Y0118945D01*
X0125045Y0119812D01*
X0124750Y0119934D01*
X0124750Y0127101D01*
X0117201Y0134650D01*
X0115629Y0134650D01*
X0116445Y0134988D01*
X0117312Y0135855D01*
X0117781Y0136987D01*
X0117781Y0138213D01*
X0117312Y0139345D01*
X0116445Y0140212D01*
X0117311Y0139347D02*
X0139519Y0139347D01*
X0139535Y0138348D02*
X0117725Y0138348D01*
X0117781Y0137350D02*
X0139949Y0137350D01*
X0140944Y0136351D02*
X0117518Y0136351D01*
X0116810Y0135353D02*
X0142500Y0135353D01*
X0142500Y0134354D02*
X0117496Y0134354D01*
X0118495Y0133356D02*
X0142500Y0133356D01*
X0142500Y0132357D02*
X0119494Y0132357D01*
X0120492Y0131359D02*
X0142500Y0131359D01*
X0142500Y0130360D02*
X0121491Y0130360D01*
X0122489Y0129362D02*
X0142500Y0129362D01*
X0142500Y0128363D02*
X0133594Y0128363D01*
X0135422Y0127365D02*
X0142500Y0127365D01*
X0142500Y0126366D02*
X0136421Y0126366D01*
X0137000Y0125368D02*
X0142500Y0125368D01*
X0142500Y0124369D02*
X0137000Y0124369D01*
X0137000Y0123370D02*
X0142500Y0123370D01*
X0142500Y0122372D02*
X0137000Y0122372D01*
X0137000Y0121373D02*
X0142500Y0121373D01*
X0142500Y0120375D02*
X0137000Y0120375D01*
X0137000Y0119376D02*
X0142500Y0119376D01*
X0142500Y0118378D02*
X0137000Y0118378D01*
X0137000Y0117379D02*
X0142500Y0117379D01*
X0142500Y0116381D02*
X0137000Y0116381D01*
X0137000Y0115382D02*
X0142500Y0115382D01*
X0142500Y0114384D02*
X0137000Y0114384D01*
X0137000Y0113385D02*
X0142500Y0113385D01*
X0142500Y0112387D02*
X0136174Y0112387D01*
X0135175Y0111388D02*
X0142226Y0111388D01*
X0141227Y0110390D02*
X0134177Y0110390D01*
X0133178Y0109391D02*
X0140229Y0109391D01*
X0140300Y0107200D02*
X0144100Y0111000D01*
X0144100Y0137500D01*
X0142600Y0139000D01*
X0146100Y0142500D02*
X0144200Y0144400D01*
X0146100Y0142500D02*
X0146100Y0110000D01*
X0141100Y0105000D01*
X0134100Y0105000D01*
X0119600Y0090500D01*
X0119600Y0085500D01*
X0118000Y0083900D01*
X0116300Y0083900D01*
X0119027Y0082432D02*
X0121311Y0082432D01*
X0120708Y0083430D02*
X0119793Y0083430D01*
X0123600Y0084500D02*
X0126100Y0084500D01*
X0132600Y0091000D01*
X0132600Y0099500D01*
X0136100Y0103000D01*
X0144100Y0103000D01*
X0146600Y0105500D01*
X0149479Y0104399D02*
X0159736Y0104399D01*
X0158845Y0105397D02*
X0149681Y0105397D01*
X0149564Y0106396D02*
X0157930Y0106396D01*
X0157519Y0107394D02*
X0149063Y0107394D01*
X0147667Y0108393D02*
X0157519Y0108393D01*
X0156946Y0109391D02*
X0147700Y0109391D01*
X0147700Y0110390D02*
X0155947Y0110390D01*
X0154949Y0111388D02*
X0147700Y0111388D01*
X0147700Y0112387D02*
X0153950Y0112387D01*
X0153500Y0113385D02*
X0147700Y0113385D01*
X0147700Y0114384D02*
X0153500Y0114384D01*
X0153500Y0115382D02*
X0147700Y0115382D01*
X0147700Y0116381D02*
X0153500Y0116381D01*
X0153500Y0117379D02*
X0147700Y0117379D01*
X0147700Y0118378D02*
X0153500Y0118378D01*
X0154214Y0119376D02*
X0147700Y0119376D01*
X0147700Y0120375D02*
X0155212Y0120375D01*
X0156211Y0121373D02*
X0147700Y0121373D01*
X0147700Y0122372D02*
X0157000Y0122372D01*
X0156897Y0123370D02*
X0147700Y0123370D01*
X0147700Y0124369D02*
X0155941Y0124369D01*
X0155527Y0125368D02*
X0147700Y0125368D01*
X0147700Y0126366D02*
X0155519Y0126366D01*
X0155830Y0127365D02*
X0147700Y0127365D01*
X0147700Y0128363D02*
X0156606Y0128363D01*
X0158600Y0126000D02*
X0158600Y0121500D01*
X0155100Y0118000D01*
X0155100Y0113500D01*
X0160600Y0108000D01*
X0164100Y0111500D02*
X0159100Y0116500D01*
X0160207Y0119376D02*
X0164500Y0119376D01*
X0164500Y0118378D02*
X0161579Y0118378D01*
X0162071Y0117379D02*
X0164500Y0117379D01*
X0164500Y0116381D02*
X0162181Y0116381D01*
X0162480Y0115382D02*
X0164519Y0115382D01*
X0166100Y0117000D02*
X0167600Y0115500D01*
X0166100Y0117000D02*
X0166100Y0128000D01*
X0160100Y0134000D01*
X0153600Y0134000D01*
X0151600Y0136000D01*
X0148824Y0137350D02*
X0147700Y0137350D01*
X0147700Y0138348D02*
X0149591Y0138348D01*
X0148519Y0136351D02*
X0147700Y0136351D01*
X0147700Y0135353D02*
X0148533Y0135353D01*
X0148947Y0134354D02*
X0147700Y0134354D01*
X0147700Y0133356D02*
X0149933Y0133356D01*
X0147700Y0132357D02*
X0159480Y0132357D01*
X0160479Y0131359D02*
X0147700Y0131359D01*
X0147700Y0130360D02*
X0161477Y0130360D01*
X0162476Y0129362D02*
X0147700Y0129362D01*
X0147700Y0141344D02*
X0150438Y0141344D01*
X0149439Y0142342D02*
X0147700Y0142342D01*
X0147522Y0143341D02*
X0148441Y0143341D01*
X0147442Y0144339D02*
X0147281Y0144339D01*
X0154064Y0156321D02*
X0113531Y0156321D01*
X0112533Y0157320D02*
X0155356Y0157320D01*
X0156000Y0158318D02*
X0111534Y0158318D01*
X0110021Y0153326D02*
X0105354Y0153326D01*
X0102646Y0153326D02*
X0093679Y0153326D01*
X0092680Y0152327D02*
X0111020Y0152327D01*
X0112019Y0151329D02*
X0091681Y0151329D01*
X0090300Y0146336D02*
X0103579Y0146336D01*
X0102819Y0145338D02*
X0090300Y0145338D01*
X0090300Y0144339D02*
X0102519Y0144339D01*
X0102538Y0143341D02*
X0090300Y0143341D01*
X0090300Y0142342D02*
X0102952Y0142342D01*
X0103962Y0141344D02*
X0101745Y0141344D01*
X0103212Y0140345D02*
X0113276Y0140345D01*
X0112089Y0139347D02*
X0103743Y0139347D01*
X0103881Y0138348D02*
X0106008Y0138348D01*
X0107392Y0138348D02*
X0107398Y0138348D01*
X0109000Y0137600D02*
X0106700Y0135300D01*
X0103619Y0135353D02*
X0101494Y0135353D01*
X0100550Y0134354D02*
X0103757Y0134354D01*
X0104287Y0133356D02*
X0100550Y0133356D01*
X0100550Y0132357D02*
X0105753Y0132357D01*
X0105967Y0131359D02*
X0100550Y0131359D01*
X0100550Y0130360D02*
X0104953Y0130360D01*
X0104539Y0129362D02*
X0100550Y0129362D01*
X0100550Y0128363D02*
X0104519Y0128363D01*
X0104818Y0127365D02*
X0100550Y0127365D01*
X0100550Y0126366D02*
X0105577Y0126366D01*
X0109623Y0126366D02*
X0112150Y0126366D01*
X0112150Y0125368D02*
X0100550Y0125368D01*
X0100550Y0124369D02*
X0112150Y0124369D01*
X0112150Y0123370D02*
X0100550Y0123370D01*
X0100550Y0122372D02*
X0112150Y0122372D01*
X0112150Y0121373D02*
X0100550Y0121373D01*
X0100550Y0120375D02*
X0111318Y0120375D01*
X0110711Y0119376D02*
X0100550Y0119376D01*
X0100550Y0118378D02*
X0110519Y0118378D01*
X0110646Y0117379D02*
X0100550Y0117379D01*
X0100550Y0116381D02*
X0111162Y0116381D01*
X0112592Y0115382D02*
X0101675Y0115382D01*
X0102110Y0114384D02*
X0122047Y0114384D01*
X0120760Y0115382D02*
X0114608Y0115382D01*
X0116038Y0116381D02*
X0120304Y0116381D01*
X0120219Y0117379D02*
X0116554Y0117379D01*
X0116681Y0118378D02*
X0120453Y0118378D01*
X0121119Y0119376D02*
X0116489Y0119376D01*
X0115882Y0120375D02*
X0121850Y0120375D01*
X0121850Y0121373D02*
X0115050Y0121373D01*
X0115050Y0122372D02*
X0121850Y0122372D01*
X0121850Y0123370D02*
X0115050Y0123370D01*
X0115050Y0124369D02*
X0121850Y0124369D01*
X0121850Y0125368D02*
X0115050Y0125368D01*
X0115050Y0126366D02*
X0121383Y0126366D01*
X0120385Y0127365D02*
X0116222Y0127365D01*
X0116688Y0128363D02*
X0119386Y0128363D01*
X0118388Y0129362D02*
X0116781Y0129362D01*
X0116554Y0130360D02*
X0117389Y0130360D01*
X0116391Y0131359D02*
X0115899Y0131359D01*
X0110712Y0128363D02*
X0110681Y0128363D01*
X0110382Y0127365D02*
X0111178Y0127365D01*
X0107906Y0132357D02*
X0107646Y0132357D01*
X0109000Y0137600D02*
X0114700Y0137600D01*
X0117962Y0141344D02*
X0107238Y0141344D01*
X0108248Y0142342D02*
X0116952Y0142342D01*
X0119600Y0144000D02*
X0105600Y0144000D01*
X0107621Y0146336D02*
X0117579Y0146336D01*
X0104392Y0137350D02*
X0103700Y0137350D01*
X0103800Y0136351D02*
X0103108Y0136351D01*
X0097650Y0136351D02*
X0090300Y0136351D01*
X0090300Y0135353D02*
X0097650Y0135353D01*
X0097650Y0134354D02*
X0090300Y0134354D01*
X0090300Y0133356D02*
X0097650Y0133356D01*
X0097650Y0132357D02*
X0090300Y0132357D01*
X0090300Y0131359D02*
X0097650Y0131359D01*
X0097650Y0130360D02*
X0090300Y0130360D01*
X0090300Y0129362D02*
X0097650Y0129362D01*
X0097650Y0128363D02*
X0090300Y0128363D01*
X0090300Y0127365D02*
X0097650Y0127365D01*
X0097650Y0126366D02*
X0090300Y0126366D01*
X0090300Y0125368D02*
X0097650Y0125368D01*
X0097650Y0124369D02*
X0090300Y0124369D01*
X0090300Y0123370D02*
X0097650Y0123370D01*
X0097650Y0122372D02*
X0090300Y0122372D01*
X0090866Y0121373D02*
X0097650Y0121373D01*
X0097650Y0120375D02*
X0091181Y0120375D01*
X0091177Y0119376D02*
X0097650Y0119376D01*
X0097650Y0118378D02*
X0091975Y0118378D01*
X0092973Y0117379D02*
X0097650Y0117379D01*
X0096930Y0116381D02*
X0093972Y0116381D01*
X0094970Y0115382D02*
X0096525Y0115382D01*
X0096090Y0114384D02*
X0095969Y0114384D01*
X0101246Y0111388D02*
X0129801Y0111388D01*
X0130800Y0112387D02*
X0101932Y0112387D01*
X0102181Y0113385D02*
X0131798Y0113385D01*
X0132797Y0114384D02*
X0124553Y0114384D01*
X0125840Y0115382D02*
X0133200Y0115382D01*
X0133200Y0116381D02*
X0126296Y0116381D01*
X0126381Y0117379D02*
X0133200Y0117379D01*
X0133200Y0118378D02*
X0126147Y0118378D01*
X0125481Y0119376D02*
X0133200Y0119376D01*
X0133200Y0120375D02*
X0124750Y0120375D01*
X0124750Y0121373D02*
X0133200Y0121373D01*
X0133200Y0122372D02*
X0124750Y0122372D01*
X0124750Y0123370D02*
X0129897Y0123370D01*
X0128941Y0124369D02*
X0124750Y0124369D01*
X0124750Y0125368D02*
X0128527Y0125368D01*
X0128519Y0126366D02*
X0124750Y0126366D01*
X0124486Y0127365D02*
X0128830Y0127365D01*
X0129606Y0128363D02*
X0123488Y0128363D01*
X0129133Y0106396D02*
X0097900Y0106396D01*
X0097900Y0105397D02*
X0128135Y0105397D01*
X0127136Y0104399D02*
X0097900Y0104399D01*
X0097900Y0103400D02*
X0126138Y0103400D01*
X0125139Y0102402D02*
X0097900Y0102402D01*
X0097900Y0101403D02*
X0124141Y0101403D01*
X0123142Y0100405D02*
X0097900Y0100405D01*
X0097900Y0099406D02*
X0122143Y0099406D01*
X0121145Y0098408D02*
X0097760Y0098408D01*
X0096762Y0097409D02*
X0120146Y0097409D01*
X0119148Y0096411D02*
X0095763Y0096411D01*
X0094765Y0095412D02*
X0118149Y0095412D01*
X0117151Y0094414D02*
X0093766Y0094414D01*
X0092768Y0093415D02*
X0095358Y0093415D01*
X0094552Y0092417D02*
X0091769Y0092417D01*
X0090771Y0091418D02*
X0094219Y0091418D01*
X0094219Y0090420D02*
X0088782Y0090420D01*
X0087784Y0089421D02*
X0094619Y0089421D01*
X0095520Y0088423D02*
X0086785Y0088423D01*
X0085787Y0087424D02*
X0098613Y0087424D01*
X0099612Y0086426D02*
X0084788Y0086426D01*
X0083790Y0085427D02*
X0113598Y0085427D01*
X0113688Y0086426D02*
X0114468Y0086426D01*
X0114687Y0087424D02*
X0118000Y0087424D01*
X0118000Y0088423D02*
X0115685Y0088423D01*
X0116684Y0089421D02*
X0118000Y0089421D01*
X0118000Y0090420D02*
X0117682Y0090420D01*
X0115154Y0092417D02*
X0100048Y0092417D01*
X0100381Y0091418D02*
X0114155Y0091418D01*
X0113157Y0090420D02*
X0100381Y0090420D01*
X0101142Y0089421D02*
X0112158Y0089421D01*
X0112200Y0087200D02*
X0101100Y0087200D01*
X0097300Y0091000D01*
X0099242Y0093415D02*
X0116152Y0093415D01*
X0112200Y0087200D02*
X0132200Y0107200D01*
X0140300Y0107200D01*
X0145764Y0102402D02*
X0157739Y0102402D01*
X0158738Y0103400D02*
X0148858Y0103400D01*
X0144766Y0101403D02*
X0156646Y0101403D01*
X0155847Y0100405D02*
X0135767Y0100405D01*
X0134769Y0099406D02*
X0155519Y0099406D01*
X0155519Y0098408D02*
X0134200Y0098408D01*
X0134200Y0097409D02*
X0155924Y0097409D01*
X0156832Y0096411D02*
X0134200Y0096411D01*
X0113219Y0084429D02*
X0082791Y0084429D01*
X0081793Y0083430D02*
X0113219Y0083430D01*
X0113573Y0082432D02*
X0081200Y0082432D01*
X0081200Y0081433D02*
X0081630Y0081433D01*
X0083570Y0081433D02*
X0114410Y0081433D01*
X0110900Y0101300D02*
X0110100Y0102100D01*
X0089100Y0093000D02*
X0079600Y0083500D01*
X0079600Y0079500D01*
X0080600Y0078500D01*
X0082600Y0078500D01*
X0085347Y0106396D02*
X0055000Y0106396D01*
X0055000Y0107394D02*
X0084723Y0107394D01*
X0084519Y0108393D02*
X0055000Y0108393D01*
X0055000Y0109391D02*
X0084446Y0109391D01*
X0083447Y0110390D02*
X0055000Y0110390D01*
X0055000Y0111388D02*
X0082449Y0111388D01*
X0081450Y0112387D02*
X0055000Y0112387D01*
X0055000Y0113385D02*
X0081000Y0113385D01*
X0081000Y0114384D02*
X0055000Y0114384D01*
X0055000Y0115382D02*
X0081000Y0115382D01*
X0081000Y0116381D02*
X0055000Y0116381D01*
X0055000Y0117379D02*
X0081000Y0117379D01*
X0081000Y0118378D02*
X0055000Y0118378D01*
X0055000Y0119376D02*
X0081000Y0119376D01*
X0081000Y0120375D02*
X0055000Y0120375D01*
X0055000Y0121373D02*
X0081000Y0121373D01*
X0081000Y0122372D02*
X0055000Y0122372D01*
X0055000Y0123370D02*
X0081000Y0123370D01*
X0081000Y0124369D02*
X0055000Y0124369D01*
X0055000Y0125368D02*
X0081000Y0125368D01*
X0081000Y0126366D02*
X0055000Y0126366D01*
X0055000Y0127365D02*
X0081000Y0127365D01*
X0081000Y0128363D02*
X0055000Y0128363D01*
X0055000Y0129362D02*
X0081000Y0129362D01*
X0081000Y0130360D02*
X0055000Y0130360D01*
X0055000Y0131359D02*
X0080384Y0131359D01*
X0079738Y0132357D02*
X0055000Y0132357D01*
X0055000Y0133356D02*
X0079519Y0133356D01*
X0079619Y0134354D02*
X0055000Y0134354D01*
X0055000Y0135353D02*
X0080095Y0135353D01*
X0081432Y0136351D02*
X0055000Y0136351D01*
X0082600Y0133500D02*
X0082600Y0113500D01*
X0087600Y0108500D01*
X0090300Y0137350D02*
X0097650Y0137350D01*
X0097719Y0138348D02*
X0090300Y0138348D01*
X0090300Y0139347D02*
X0097857Y0139347D01*
X0098388Y0140345D02*
X0090300Y0140345D01*
X0090300Y0141344D02*
X0099855Y0141344D01*
X0091167Y0157320D02*
X0090300Y0157320D01*
X0090300Y0158318D02*
X0092166Y0158318D01*
X0091905Y0222223D02*
X0082995Y0222223D01*
X0081997Y0223222D02*
X0087121Y0223222D01*
X0086688Y0223655D02*
X0087555Y0222788D01*
X0088687Y0222319D01*
X0089913Y0222319D01*
X0091045Y0222788D01*
X0091357Y0223100D01*
X0091753Y0223100D01*
X0093100Y0224447D01*
X0098835Y0230182D01*
X0098987Y0230119D01*
X0100213Y0230119D01*
X0101345Y0230588D01*
X0102212Y0231455D01*
X0102681Y0232587D01*
X0102681Y0233813D01*
X0102212Y0234945D01*
X0101345Y0235812D01*
X0100213Y0236281D01*
X0098987Y0236281D01*
X0097855Y0235812D01*
X0096988Y0234945D01*
X0096914Y0234767D01*
X0090419Y0228272D01*
X0089913Y0228481D01*
X0088687Y0228481D01*
X0087555Y0228012D01*
X0086688Y0227145D01*
X0086219Y0226013D01*
X0086219Y0224787D01*
X0086688Y0223655D01*
X0086454Y0224220D02*
X0081100Y0224220D01*
X0081100Y0225219D02*
X0086219Y0225219D01*
X0086304Y0226217D02*
X0081100Y0226217D01*
X0081100Y0227216D02*
X0086758Y0227216D01*
X0088043Y0228214D02*
X0081100Y0228214D01*
X0081100Y0229213D02*
X0091360Y0229213D01*
X0092359Y0230211D02*
X0081100Y0230211D01*
X0081100Y0231210D02*
X0093357Y0231210D01*
X0094356Y0232208D02*
X0081100Y0232208D01*
X0081100Y0233207D02*
X0095354Y0233207D01*
X0096353Y0234205D02*
X0081100Y0234205D01*
X0081100Y0235204D02*
X0097246Y0235204D01*
X0098797Y0236202D02*
X0081100Y0236202D01*
X0081100Y0237201D02*
X0136800Y0237201D01*
X0136800Y0238199D02*
X0081100Y0238199D01*
X0081100Y0239198D02*
X0136800Y0239198D01*
X0136800Y0240196D02*
X0081100Y0240196D01*
X0081100Y0241195D02*
X0136800Y0241195D01*
X0136800Y0242193D02*
X0081100Y0242193D01*
X0081100Y0243192D02*
X0136800Y0243192D01*
X0136800Y0244190D02*
X0081100Y0244190D01*
X0081100Y0245189D02*
X0136800Y0245189D01*
X0136800Y0246187D02*
X0081100Y0246187D01*
X0081100Y0247186D02*
X0136800Y0247186D01*
X0136800Y0248184D02*
X0081100Y0248184D01*
X0081100Y0249183D02*
X0136800Y0249183D01*
X0136800Y0250181D02*
X0081100Y0250181D01*
X0081100Y0251180D02*
X0136800Y0251180D01*
X0136800Y0252178D02*
X0081100Y0252178D01*
X0081895Y0253177D02*
X0136800Y0253177D01*
X0136800Y0254175D02*
X0082894Y0254175D01*
X0083892Y0255174D02*
X0136800Y0255174D01*
X0136800Y0256172D02*
X0084891Y0256172D01*
X0085889Y0257171D02*
X0136800Y0257171D01*
X0136612Y0258170D02*
X0086888Y0258170D01*
X0087886Y0259168D02*
X0135614Y0259168D01*
X0134615Y0260167D02*
X0088885Y0260167D01*
X0100403Y0236202D02*
X0136800Y0236202D01*
X0136800Y0235204D02*
X0101954Y0235204D01*
X0102519Y0234205D02*
X0136800Y0234205D01*
X0136800Y0233207D02*
X0102681Y0233207D01*
X0102524Y0232208D02*
X0136800Y0232208D01*
X0136800Y0231210D02*
X0101967Y0231210D01*
X0100436Y0230211D02*
X0136800Y0230211D01*
X0136800Y0229213D02*
X0133471Y0229213D01*
X0134387Y0228214D02*
X0136800Y0228214D01*
X0136627Y0227216D02*
X0134800Y0227216D01*
X0134800Y0226217D02*
X0136419Y0226217D01*
X0136530Y0225219D02*
X0134483Y0225219D01*
X0133704Y0224220D02*
X0137023Y0224220D01*
X0138398Y0223222D02*
X0132140Y0223222D01*
X0131141Y0222223D02*
X0143005Y0222223D01*
X0144003Y0223222D02*
X0140602Y0223222D01*
X0141977Y0224220D02*
X0144900Y0224220D01*
X0144900Y0225219D02*
X0142470Y0225219D01*
X0142581Y0226217D02*
X0144900Y0226217D01*
X0144900Y0227216D02*
X0142373Y0227216D01*
X0142200Y0228214D02*
X0144900Y0228214D01*
X0144900Y0229213D02*
X0142200Y0229213D01*
X0142200Y0230211D02*
X0144900Y0230211D01*
X0144900Y0231210D02*
X0142200Y0231210D01*
X0142200Y0232208D02*
X0144900Y0232208D01*
X0144900Y0233207D02*
X0142200Y0233207D01*
X0142200Y0234205D02*
X0144900Y0234205D01*
X0144900Y0235204D02*
X0142200Y0235204D01*
X0142200Y0236202D02*
X0144900Y0236202D01*
X0144900Y0237201D02*
X0142200Y0237201D01*
X0142200Y0238199D02*
X0144900Y0238199D01*
X0144900Y0239198D02*
X0142200Y0239198D01*
X0142200Y0240196D02*
X0144900Y0240196D01*
X0144900Y0241195D02*
X0142200Y0241195D01*
X0142200Y0242193D02*
X0144900Y0242193D01*
X0144900Y0243192D02*
X0142200Y0243192D01*
X0142200Y0244190D02*
X0144964Y0244190D01*
X0145470Y0245189D02*
X0142200Y0245189D01*
X0142200Y0246187D02*
X0146469Y0246187D01*
X0147468Y0247186D02*
X0142200Y0247186D01*
X0142200Y0248184D02*
X0148466Y0248184D01*
X0149465Y0249183D02*
X0142200Y0249183D01*
X0142200Y0250181D02*
X0150463Y0250181D01*
X0151462Y0251180D02*
X0142200Y0251180D01*
X0142200Y0252178D02*
X0152460Y0252178D01*
X0153459Y0253177D02*
X0142200Y0253177D01*
X0142200Y0254175D02*
X0154457Y0254175D01*
X0155456Y0255174D02*
X0142200Y0255174D01*
X0142200Y0256172D02*
X0156454Y0256172D01*
X0157453Y0257171D02*
X0142200Y0257171D01*
X0142200Y0258170D02*
X0158451Y0258170D01*
X0159450Y0259168D02*
X0142200Y0259168D01*
X0141981Y0260167D02*
X0160448Y0260167D01*
X0161447Y0261165D02*
X0141253Y0261165D01*
X0140255Y0262164D02*
X0162445Y0262164D01*
X0163444Y0263162D02*
X0139256Y0263162D01*
X0138258Y0264161D02*
X0164442Y0264161D01*
X0165441Y0265159D02*
X0137259Y0265159D01*
X0135881Y0266158D02*
X0166961Y0266158D01*
X0168085Y0260167D02*
X0200009Y0260167D01*
X0199525Y0259168D02*
X0167086Y0259168D01*
X0166088Y0258170D02*
X0199419Y0258170D01*
X0199633Y0257171D02*
X0196569Y0257171D01*
X0197912Y0256172D02*
X0200270Y0256172D01*
X0202500Y0258300D02*
X0208800Y0252000D01*
X0226100Y0252000D01*
X0228309Y0254175D02*
X0233513Y0254175D01*
X0230050Y0246187D02*
X0286000Y0246187D01*
X0286000Y0245189D02*
X0229052Y0245189D01*
X0223891Y0254175D02*
X0208887Y0254175D01*
X0207889Y0255174D02*
X0246011Y0255174D01*
X0247010Y0256172D02*
X0206890Y0256172D01*
X0205581Y0258170D02*
X0243073Y0258170D01*
X0242317Y0259168D02*
X0205475Y0259168D01*
X0204991Y0260167D02*
X0241615Y0260167D01*
X0248540Y0253177D02*
X0283300Y0253177D01*
X0283300Y0254175D02*
X0249538Y0254175D01*
X0250537Y0255174D02*
X0283300Y0255174D01*
X0283300Y0256172D02*
X0251535Y0256172D01*
X0252534Y0257171D02*
X0282766Y0257171D01*
X0283300Y0252178D02*
X0247541Y0252178D01*
X0226140Y0239198D02*
X0212665Y0239198D01*
X0210136Y0237201D02*
X0199662Y0237201D01*
X0198663Y0238199D02*
X0209138Y0238199D01*
X0208139Y0239198D02*
X0197665Y0239198D01*
X0196666Y0240196D02*
X0207141Y0240196D01*
X0206142Y0241195D02*
X0195668Y0241195D01*
X0194600Y0240000D02*
X0186100Y0240000D01*
X0188291Y0242193D02*
X0205144Y0242193D01*
X0204145Y0243192D02*
X0186055Y0243192D01*
X0186049Y0247186D02*
X0210029Y0247186D01*
X0210000Y0246187D02*
X0205675Y0246187D01*
X0206674Y0245189D02*
X0210288Y0245189D01*
X0211026Y0244190D02*
X0207672Y0244190D01*
X0211135Y0236202D02*
X0200660Y0236202D01*
X0201659Y0235204D02*
X0212134Y0235204D01*
X0214000Y0230211D02*
X0206652Y0230211D01*
X0206600Y0228000D02*
X0214600Y0228000D01*
X0206600Y0228000D02*
X0194600Y0240000D01*
X0194138Y0238199D02*
X0188683Y0238199D01*
X0187443Y0237201D02*
X0195136Y0237201D01*
X0196135Y0236202D02*
X0179065Y0236202D01*
X0178066Y0235204D02*
X0197134Y0235204D01*
X0198132Y0234205D02*
X0177068Y0234205D01*
X0180063Y0237201D02*
X0184757Y0237201D01*
X0183517Y0238199D02*
X0181062Y0238199D01*
X0182061Y0239198D02*
X0183077Y0239198D01*
X0176526Y0245189D02*
X0176200Y0245189D01*
X0176171Y0246187D02*
X0177500Y0246187D01*
X0177500Y0247186D02*
X0175757Y0247186D01*
X0174720Y0248184D02*
X0177500Y0248184D01*
X0177500Y0249183D02*
X0157101Y0249183D01*
X0158100Y0250181D02*
X0177519Y0250181D01*
X0178517Y0251180D02*
X0159098Y0251180D01*
X0160097Y0252178D02*
X0179516Y0252178D01*
X0180514Y0253177D02*
X0161095Y0253177D01*
X0162094Y0254175D02*
X0181513Y0254175D01*
X0182511Y0255174D02*
X0163092Y0255174D01*
X0164091Y0256172D02*
X0192888Y0256172D01*
X0194231Y0257171D02*
X0165089Y0257171D01*
X0173100Y0245500D02*
X0169100Y0241500D01*
X0162100Y0241500D01*
X0159100Y0238500D01*
X0159100Y0175500D01*
X0159681Y0165308D02*
X0160029Y0165308D01*
X0159442Y0164309D02*
X0161028Y0164309D01*
X0162026Y0163311D02*
X0159200Y0163311D01*
X0159200Y0162312D02*
X0163025Y0162312D01*
X0164023Y0161314D02*
X0159200Y0161314D01*
X0159200Y0160315D02*
X0165022Y0160315D01*
X0166020Y0159317D02*
X0159200Y0159317D01*
X0159200Y0158318D02*
X0167019Y0158318D01*
X0168017Y0157320D02*
X0159200Y0157320D01*
X0159200Y0156321D02*
X0173516Y0156321D01*
X0174514Y0155323D02*
X0159594Y0155323D01*
X0159681Y0154324D02*
X0175513Y0154324D01*
X0176511Y0153326D02*
X0159449Y0153326D01*
X0158785Y0152327D02*
X0177510Y0152327D01*
X0157600Y0155500D02*
X0157600Y0164500D01*
X0156600Y0165500D01*
X0157600Y0155500D02*
X0156600Y0154500D01*
X0160594Y0128363D02*
X0163474Y0128363D01*
X0164473Y0127365D02*
X0161370Y0127365D01*
X0161681Y0126366D02*
X0164500Y0126366D01*
X0164500Y0125368D02*
X0161673Y0125368D01*
X0161259Y0124369D02*
X0164500Y0124369D01*
X0164500Y0123370D02*
X0160303Y0123370D01*
X0160200Y0122372D02*
X0164500Y0122372D01*
X0164500Y0121373D02*
X0160200Y0121373D01*
X0159738Y0120375D02*
X0164500Y0120375D01*
X0169900Y0122500D02*
X0171600Y0120800D01*
X0171600Y0114000D01*
X0158600Y0101000D01*
X0158600Y0099000D01*
X0185633Y0113385D02*
X0187657Y0113385D01*
X0187203Y0114384D02*
X0185200Y0114384D01*
X0185200Y0115382D02*
X0187119Y0115382D01*
X0187354Y0116381D02*
X0185200Y0116381D01*
X0185200Y0117379D02*
X0188022Y0117379D01*
X0187359Y0118378D02*
X0185200Y0118378D01*
X0185200Y0119376D02*
X0186361Y0119376D01*
X0185362Y0120375D02*
X0185200Y0120375D01*
X0186631Y0112387D02*
X0188940Y0112387D01*
X0187630Y0111388D02*
X0280100Y0111388D01*
X0280100Y0110390D02*
X0189167Y0110390D01*
X0189145Y0110412D02*
X0189145Y0110412D01*
X0190076Y0109391D02*
X0280288Y0109391D01*
X0280702Y0108393D02*
X0190626Y0108393D01*
X0191460Y0112387D02*
X0280362Y0112387D01*
X0280052Y0113385D02*
X0192743Y0113385D01*
X0202500Y0118000D02*
X0277700Y0118000D01*
X0279000Y0124900D02*
X0211200Y0124900D01*
X0259700Y0148400D02*
X0259800Y0148500D01*
X0241620Y0182283D02*
X0222100Y0182283D01*
X0205122Y0227216D02*
X0166700Y0227216D01*
X0166700Y0228214D02*
X0204123Y0228214D01*
X0203125Y0229213D02*
X0166700Y0229213D01*
X0166700Y0230211D02*
X0202126Y0230211D01*
X0201128Y0231210D02*
X0166700Y0231210D01*
X0166700Y0232208D02*
X0200129Y0232208D01*
X0199131Y0233207D02*
X0166700Y0233207D01*
X0168149Y0243192D02*
X0168529Y0243192D01*
X0142006Y0221225D02*
X0130143Y0221225D01*
X0129144Y0220226D02*
X0141008Y0220226D01*
X0129929Y0229213D02*
X0097865Y0229213D01*
X0096867Y0228214D02*
X0129013Y0228214D01*
X0128497Y0227216D02*
X0095868Y0227216D01*
X0095509Y0226217D02*
X0094870Y0226217D01*
X0094377Y0225219D02*
X0093871Y0225219D01*
X0093902Y0224220D02*
X0092873Y0224220D01*
X0092903Y0223222D02*
X0091874Y0223222D01*
X0098491Y0226217D02*
X0127499Y0226217D01*
X0126500Y0225219D02*
X0099623Y0225219D01*
X0100037Y0224220D02*
X0103002Y0224220D01*
X0102311Y0223529D02*
X0102311Y0223529D01*
X0102003Y0223222D02*
X0100081Y0223222D01*
X0152100Y0186500D02*
X0157100Y0191500D01*
X0187540Y0053475D02*
X0227265Y0053475D01*
X0227220Y0052476D02*
X0187600Y0052476D01*
X0187600Y0051478D02*
X0227176Y0051478D01*
X0227131Y0050479D02*
X0187600Y0050479D01*
X0187600Y0049481D02*
X0227087Y0049481D01*
X0227043Y0048482D02*
X0187600Y0048482D01*
X0187600Y0047484D02*
X0226998Y0047484D01*
X0226954Y0046485D02*
X0187600Y0046485D01*
X0187600Y0045487D02*
X0226910Y0045487D01*
X0226865Y0044488D02*
X0187600Y0044488D01*
X0187600Y0043490D02*
X0226821Y0043490D01*
X0226776Y0042491D02*
X0187600Y0042491D01*
X0187600Y0041493D02*
X0226732Y0041493D01*
D13*
X0187400Y0107800D02*
X0187300Y0107900D01*
X0145800Y0150200D02*
X0142900Y0153100D01*
X0117300Y0153100D01*
X0113500Y0153100D01*
X0110500Y0156100D01*
X0104000Y0156100D01*
X0093200Y0156100D01*
X0088000Y0150900D01*
X0088000Y0160600D01*
X0083100Y0165500D01*
X0088000Y0150900D02*
X0088000Y0120100D01*
X0088100Y0120000D01*
X0088100Y0119000D01*
X0095600Y0111500D01*
X0098100Y0109000D01*
X0130100Y0109000D01*
X0095600Y0111500D02*
X0095600Y0099500D01*
X0089100Y0093000D01*
X0170300Y0164500D02*
X0171100Y0164300D01*
X0171700Y0164700D02*
X0170300Y0164500D01*
X0099600Y0233200D02*
X0098600Y0233200D01*
X0090800Y0225400D01*
X0089300Y0225400D01*
D14*
X0076800Y0202200D03*
X0131700Y0226600D03*
X0152100Y0186500D03*
X0186100Y0240000D03*
X0195400Y0254300D03*
X0213100Y0246500D03*
X0226100Y0252000D03*
X0224100Y0231500D03*
X0217100Y0230500D03*
X0212100Y0232500D03*
X0173100Y0245500D03*
D15*
X0167600Y0263500D02*
X0147600Y0243500D01*
X0147600Y0223000D01*
X0141600Y0217000D01*
X0107600Y0217000D01*
X0087100Y0196500D01*
X0076600Y0196500D01*
X0076800Y0202200D02*
X0084800Y0202200D01*
X0104600Y0222000D01*
X0127100Y0222000D01*
X0131700Y0226600D01*
X0139500Y0226100D02*
X0139500Y0259100D01*
X0135000Y0263600D01*
X0088500Y0263600D01*
X0078400Y0253500D01*
X0078400Y0223000D01*
X0081900Y0219500D01*
X0093000Y0219500D01*
X0097000Y0223500D01*
X0167600Y0263500D02*
X0242100Y0263500D01*
X0245100Y0260500D01*
X0145800Y0150200D02*
X0145600Y0150000D01*
X0153100Y0142500D01*
X0173600Y0142500D01*
X0182500Y0133600D01*
X0182500Y0112700D01*
X0187300Y0107900D01*
X0189600Y0105600D01*
X0189600Y0105500D01*
X0197600Y0105500D01*
X0200600Y0102500D01*
X0200600Y0081100D01*
X0200300Y0080800D01*
X0202900Y0078200D01*
X0282300Y0078200D01*
X0284900Y0080800D01*
X0284900Y0090800D01*
X0284900Y0082300D01*
X0283900Y0089800D02*
X0284900Y0090800D01*
X0284900Y0100800D01*
D16*
X0123300Y0117200D02*
X0123300Y0126500D01*
X0116600Y0133200D01*
X0110800Y0133200D01*
X0107600Y0130000D01*
X0107600Y0128700D01*
X0113600Y0129100D02*
X0113700Y0129200D01*
X0113600Y0129100D02*
X0113600Y0118300D01*
X0099100Y0116500D02*
X0098100Y0115500D01*
X0098100Y0114600D01*
X0099100Y0113600D01*
X0099100Y0116500D02*
X0099100Y0137500D01*
X0100000Y0138400D01*
X0100800Y0138400D01*
X0106700Y0135600D02*
X0108500Y0137400D01*
X0106700Y0135600D02*
X0106700Y0135300D01*
X0102200Y0186000D02*
X0097100Y0191100D01*
X0097100Y0193600D01*
D17*
X0131600Y0126000D02*
X0134100Y0126000D01*
X0135100Y0125000D01*
X0135100Y0114000D01*
X0130100Y0109000D01*
M02*
