G04 ================== begin FILE IDENTIFICATION RECORD ==================*
G04 Layout Name:  E:/git/clay/Circuit/R6/allegro/CLAYR6.brd*
G04 Film Name:    PWR*
G04 File Format:  Gerber RS274X*
G04 File Origin:  Cadence Allegro 16.6-P004*
G04 Origin Date:  Sun Dec 13 23:06:28 2015*
G04 *
G04 Layer:  ETCH/PWR*
G04 Layer:  PIN/PWR*
G04 Layer:  VIA CLASS/PWR*
G04 *
G04 Offset:    (0.00 0.00)*
G04 Mirror:    No*
G04 Mode:      Positive*
G04 Rotation:  0*
G04 FullContactRelief:  No*
G04 UndefLineWidth:     0.00*
G04 ================== end FILE IDENTIFICATION RECORD ====================*
%FSLAX25Y25*MOIN*%
%IR0*IPPOS*OFA0.00000B0.00000*MIA0B0*SFA1.00000B1.00000*%
%ADD14C,.05*%
%ADD13C,.032*%
%ADD10C,.024*%
%ADD11C,.07*%
%ADD12C,.048*%
%ADD15C,.01*%
%ADD16C,.016*%
%ADD22C,.06004*%
%ADD21C,.05204*%
%ADD23C,.06204*%
%ADD20C,.04404*%
%ADD18C,.08004*%
%ADD17C,.03604*%
%ADD19C,.08204*%
G75*
%LPD*%
G75*
G36*
G01X-72761Y-97309D02*
G03X-72681Y-94772I-1239J1309D01*
G02Y-94228I293J272D01*
G03Y-91772I-1319J1228D01*
G02Y-91228I293J272D01*
G03Y-88772I-1319J1228D01*
G02Y-88228I293J272D01*
G03Y-85772I-1319J1228D01*
G02Y-85228I293J272D01*
G03Y-82772I-1319J1228D01*
G02Y-82228I293J272D01*
G03X-72228Y-80672I-1319J1228D01*
G02X-71956Y-80218I393J73D01*
G03X-71272Y-79819I-544J1718D01*
G02X-70728I272J-293D01*
G03X-68272I1228J1319D01*
G02X-67728I272J-293D01*
G03X-65272I1228J1319D01*
G02X-64728I272J-293D01*
G03X-62272I1228J1319D01*
G02X-61728I272J-293D01*
G03X-59272I1228J1319D01*
G02X-58728I272J-293D01*
G03X-56272I1228J1319D01*
G02X-55728I272J-293D01*
G03X-53272I1228J1319D01*
G02X-52728I272J-293D01*
G03X-50272I1228J1319D01*
G02X-49728I272J-293D01*
G03X-47272I1228J1319D01*
G02X-46728I272J-293D01*
G03X-44272I1228J1319D01*
G02X-43728I272J-293D01*
G03X-41272I1228J1319D01*
G02X-40728I272J-293D01*
G03X-38272I1228J1319D01*
G02X-37728I272J-293D01*
G03X-35272I1228J1319D01*
G02X-34728I272J-293D01*
G03X-32272I1228J1319D01*
G02X-31728I272J-293D01*
G03X-29272I1228J1319D01*
G02X-28728I272J-293D01*
G03X-26272I1228J1319D01*
G02X-25728I272J-293D01*
G03X-23181Y-77272I1228J1319D01*
G02Y-76728I293J272D01*
G03Y-74272I-1319J1228D01*
G02Y-73728I293J272D01*
G03Y-71272I-1319J1228D01*
G02Y-70728I293J272D01*
G03X-22842Y-68795I-1319J1228D01*
G02X-22569Y-68250I368J156D01*
G03X-21681Y-65272I-431J1750D01*
G02Y-64728I293J272D01*
G03Y-62272I-1319J1228D01*
G02Y-61728I293J272D01*
G03Y-59272I-1319J1228D01*
G02Y-58728I293J272D01*
G03Y-56272I-1319J1228D01*
G02Y-55728I293J272D01*
G03Y-53272I-1319J1228D01*
G02Y-52728I293J272D01*
G03Y-50272I-1319J1228D01*
G02Y-49728I293J272D01*
G03Y-47272I-1319J1228D01*
G02Y-46728I293J272D01*
G03Y-44272I-1319J1228D01*
G02Y-43728I293J272D01*
G03X-22569Y-40750I-1319J1228D01*
G02X-22842Y-40205I95J389D01*
G03X-23181Y-38272I-1658J705D01*
G02Y-37728I293J272D01*
G03X-25819I-1319J1228D01*
G02Y-38272I-293J-272D01*
G03X-24931Y-41250I1319J-1228D01*
G02X-24658Y-41795I-95J-389D01*
G03X-24319Y-43728I1658J-705D01*
G02Y-44272I-293J-272D01*
G03Y-46728I1319J-1228D01*
G02Y-47272I-293J-272D01*
G03Y-49728I1319J-1228D01*
G02Y-50272I-293J-272D01*
G03Y-52728I1319J-1228D01*
G02Y-53272I-293J-272D01*
G03Y-55728I1319J-1228D01*
G02Y-56272I-293J-272D01*
G03Y-58728I1319J-1228D01*
G02Y-59272I-293J-272D01*
G03Y-61728I1319J-1228D01*
G02Y-62272I-293J-272D01*
G03Y-64728I1319J-1228D01*
G02Y-65272I-293J-272D01*
G03X-24658Y-67205I1319J-1228D01*
G02X-24931Y-67750I-368J-156D01*
G03X-25819Y-70728I431J-1750D01*
G02Y-71272I-293J-272D01*
G03Y-73728I1319J-1228D01*
G02Y-74272I-293J-272D01*
G03Y-76728I1319J-1228D01*
G02Y-77272I-293J-272D01*
G03X-25850Y-77307I1333J-1212D01*
G02X-26150I-150J133D01*
G03X-28728Y-77181I-1350J-1193D01*
G02X-29272I-272J293D01*
G03X-31728I-1228J-1319D01*
G02X-32272I-272J293D01*
G03X-34728I-1228J-1319D01*
G02X-35272I-272J293D01*
G03X-37728I-1228J-1319D01*
G02X-38272I-272J293D01*
G03X-40728I-1228J-1319D01*
G02X-41272I-272J293D01*
G03X-43728I-1228J-1319D01*
G02X-44272I-272J293D01*
G03X-46728I-1228J-1319D01*
G02X-47272I-272J293D01*
G03X-49728I-1228J-1319D01*
G02X-50272I-272J293D01*
G03X-52728I-1228J-1319D01*
G02X-53272I-272J293D01*
G03X-55728I-1228J-1319D01*
G02X-56272I-272J293D01*
G03X-58728I-1228J-1319D01*
G02X-59272I-272J293D01*
G03X-61728I-1228J-1319D01*
G02X-62272I-272J293D01*
G03X-64728I-1228J-1319D01*
G02X-65272I-272J293D01*
G03X-67728I-1228J-1319D01*
G02X-68272I-272J293D01*
G03X-70728I-1228J-1319D01*
G02X-71272I-272J293D01*
G03X-73728I-1228J-1319D01*
G02X-74272I-272J293D01*
G03X-76728I-1228J-1319D01*
G02X-77272I-272J293D01*
G03X-79728I-1228J-1319D01*
G02X-80272I-272J293D01*
G03X-82728I-1228J-1319D01*
G02X-83272I-272J293D01*
G03X-85728I-1228J-1319D01*
G02X-86272I-272J293D01*
G03X-88728I-1228J-1319D01*
G02X-89272I-272J293D01*
G03X-92145Y-79235I-1228J-1319D01*
G02X-92510Y-79798I-365J-163D01*
G01X-97999D01*
Y-78208D01*
G02X-97399Y-77861I400J0D01*
G03X-95181Y-75072I899J1562D01*
G02Y-74528I293J272D01*
G03X-95150Y-74493I-1333J1212D01*
G02X-94850I150J-133D01*
G03X-92272Y-74619I1350J1193D01*
G02X-91728I272J-293D01*
G03X-89272I1228J1319D01*
G02X-88728I272J-293D01*
G03X-86272I1228J1319D01*
G02X-85728I272J-293D01*
G03X-83272I1228J1319D01*
G02X-82728I272J-293D01*
G03X-80272I1228J1319D01*
G02X-79728I272J-293D01*
G03Y-71981I1228J1319D01*
G02X-80272I-272J293D01*
G03X-82728I-1228J-1319D01*
G02X-83272I-272J293D01*
G03X-85728I-1228J-1319D01*
G02X-86272I-272J293D01*
G03X-88728I-1228J-1319D01*
G02X-89272I-272J293D01*
G03X-91728I-1228J-1319D01*
G02X-92272I-272J293D01*
G03X-94728I-1228J-1319D01*
G02X-95272I-272J293D01*
G03X-95307Y-71950I-1212J-1333D01*
G02Y-71650I133J150D01*
G03X-95181Y-69072I-1193J1350D01*
G02Y-68528I293J272D01*
G03Y-66072I-1319J1228D01*
G02Y-65528I293J272D01*
G03Y-63072I-1319J1228D01*
G02Y-62528I293J272D01*
G03Y-60072I-1319J1228D01*
G02Y-59528I293J272D01*
G03Y-57072I-1319J1228D01*
G02Y-56528I293J272D01*
G03Y-54072I-1319J1228D01*
G02Y-53528I293J272D01*
G03Y-51072I-1319J1228D01*
G02Y-50528I293J272D01*
G03Y-48072I-1319J1228D01*
G02Y-47528I293J272D01*
G03Y-45072I-1319J1228D01*
G02Y-44528I293J272D01*
G03Y-42072I-1319J1228D01*
G02Y-41528I293J272D01*
G03Y-39072I-1319J1228D01*
G02Y-38528I293J272D01*
G03Y-36072I-1319J1228D01*
G02Y-35528I293J272D01*
G03Y-33072I-1319J1228D01*
G02Y-32528I293J272D01*
G03Y-30072I-1319J1228D01*
G02Y-29528I293J272D01*
G03X-95150Y-29493I-1333J1212D01*
G02X-94850I150J-133D01*
G03X-92272Y-29619I1350J1193D01*
G02X-91728I272J-293D01*
G03X-89272I1228J1319D01*
G02X-88728I272J-293D01*
G03X-86272I1228J1319D01*
G02X-85728I272J-293D01*
G03X-84591Y-30100I1228J1319D01*
G02X-84319Y-30772I-20J-399D01*
G03X-81681I1319J-1228D01*
G02X-81409Y-30100I292J273D01*
G03X-80272Y-29619I-91J1800D01*
G02X-79728I272J-293D01*
G03X-77272I1228J1319D01*
G02X-76728I272J-293D01*
G03Y-26981I1228J1319D01*
G02X-77272I-272J293D01*
G03X-79728I-1228J-1319D01*
G02X-80272I-272J293D01*
G03X-82728I-1228J-1319D01*
G02X-83272I-272J293D01*
G03X-85728I-1228J-1319D01*
G02X-86272I-272J293D01*
G03X-88728I-1228J-1319D01*
G02X-89272I-272J293D01*
G03X-91728I-1228J-1319D01*
G02X-92272I-272J293D01*
G03X-94728I-1228J-1319D01*
G02X-95272I-272J293D01*
G03X-97399Y-26739I-1227J-1319D01*
G02X-97999Y-26392I-200J347D01*
G01Y-13266D01*
G02X-97324Y-12975I400J1D01*
G03Y-7025I2824J2975D01*
G02X-97999Y-6734I-275J290D01*
G01Y-3266D01*
G02X-97324Y-2975I400J1D01*
G03Y2975I2824J2975D01*
G02X-97999Y3266I-275J290D01*
G01Y6734D01*
G02X-97324Y7025I400J1D01*
G03Y12975I2824J2975D01*
G02X-97999Y13266I-275J290D01*
G01Y49368D01*
X-97752Y49471D01*
X-97680Y49398D01*
X-91877D01*
G03X-91523I177J2596D01*
G01X-78392D01*
X-78002Y49008D01*
Y47351D01*
X-76549Y45898D01*
X-74351D01*
X-72651Y47598D01*
X-69551D01*
X-68415Y48734D01*
G02X-67745Y48551I283J-283D01*
G03X-67658Y48295I1745J450D01*
G02X-67931Y47750I-368J-156D01*
G03X-66272Y44681I431J-1750D01*
G02X-65728I272J-293D01*
G03X-64069Y47750I1228J1319D01*
G02X-64342Y48295I95J389D01*
G03X-64198Y48999I-1658J706D01*
G02X-63798Y49398I400J-1D01*
G01X-44751D01*
X-41898Y52251D01*
Y60249D01*
X-45365Y63716D01*
G02X-45082Y64398I283J282D01*
G01X-42104D01*
X-42051Y64279D01*
G03X-38749I1651J721D01*
G01X-38696Y64398D01*
X-27251D01*
X-21898Y69751D01*
Y78181D01*
G02X-21390Y78566I400J0D01*
G03Y82034I490J1734D01*
G02X-21899Y82419I-109J385D01*
G01Y97999D01*
X-13266D01*
G02X-12975Y97324I1J-400D01*
G03X-7025I2975J-2824D01*
G02X-6734Y97999I290J275D01*
G01X-3266D01*
G02X-2975Y97324I1J-400D01*
G03X2975I2975J-2824D01*
G02X3266Y97999I290J275D01*
G01X6734D01*
G02X7025Y97324I1J-400D01*
G03X12975I2975J-2824D01*
G02X13266Y97999I290J275D01*
G01X25148D01*
G02X25521Y97454I0J-400D01*
G03X25881Y95572I1679J-654D01*
G02Y95028I-293J-272D01*
G03Y92572I1319J-1228D01*
G02Y92028I-293J-272D01*
G03Y89572I1319J-1228D01*
G02Y89028I-293J-272D01*
G03Y86572I1319J-1228D01*
G02Y86028I-293J-272D01*
G03X28519I1319J-1228D01*
G02Y86572I293J272D01*
G03Y89028I-1319J1228D01*
G02Y89572I293J272D01*
G03Y92028I-1319J1228D01*
G02Y92572I293J272D01*
G03Y95028I-1319J1228D01*
G02Y95572I293J272D01*
G03X28550Y95607I-1333J1212D01*
G02X28850I150J-133D01*
G03X31428Y95481I1350J1193D01*
G02X31972I272J-293D01*
G03X34428I1228J1319D01*
G02X34972I272J-293D01*
G03X37428I1228J1319D01*
G02X37972I272J-293D01*
G03X40428I1228J1319D01*
G02X40972I272J-293D01*
G03X43428I1228J1319D01*
G02X43972I272J-293D01*
G03X46428I1228J1319D01*
G02X46972I272J-293D01*
G03X49428I1228J1319D01*
G02X49972I272J-293D01*
G03X52428I1228J1319D01*
G02X52972I272J-293D01*
G03X55428I1228J1319D01*
G02X55972I272J-293D01*
G03X58428I1228J1319D01*
G02X58972I272J-293D01*
G03X61428I1228J1319D01*
G02X61972I272J-293D01*
G03X64428I1228J1319D01*
G02X64972I272J-293D01*
G03X67428I1228J1319D01*
G02X67972I272J-293D01*
G03X70428I1228J1319D01*
G02X70972I272J-293D01*
G03X71029Y95430I1230J1317D01*
G02X70993Y94794I-260J-304D01*
G03X70681Y92072I1007J-1494D01*
G02Y91528I-293J-272D01*
G03Y89072I1319J-1228D01*
G02Y88528I-293J-272D01*
G03X73319I1319J-1228D01*
G02Y89072I293J272D01*
G03Y91528I-1319J1228D01*
G02Y92072I293J272D01*
G03X73171Y94670I-1319J1228D01*
G02X73207Y95306I260J304D01*
G03X73428Y95481I-1005J1496D01*
G02X73972I272J-293D01*
G03X76428I1228J1319D01*
G02X76972I272J-293D01*
G03X79181Y95288I1228J1319D01*
G02X79798Y94953I217J-335D01*
G01Y92647D01*
G02X79181Y92312I-400J0D01*
G03X76881Y89572I-981J-1511D01*
G02Y89028I-293J-272D01*
G03Y86572I1319J-1228D01*
G02Y86028I-293J-272D01*
G03Y83572I1319J-1228D01*
G02Y83028I-293J-272D01*
G03Y80572I1319J-1228D01*
G02Y80028I-293J-272D01*
G03Y77572I1319J-1228D01*
G02Y77028I-293J-272D01*
G03Y74572I1319J-1228D01*
G02Y74028I-293J-272D01*
G03Y71572I1319J-1228D01*
G02Y71028I-293J-272D01*
G03Y68572I1319J-1228D01*
G02Y68028I-293J-272D01*
G03Y65572I1319J-1228D01*
G02Y65028I-293J-272D01*
G03Y62572I1319J-1228D01*
G02Y62028I-293J-272D01*
G03Y59572I1319J-1228D01*
G02Y59028I-293J-272D01*
G03X76535Y57111I1319J-1228D01*
G02X76244Y56567I-370J-152D01*
G03X74878Y54268I356J-1767D01*
G02X74642Y53778I-382J-118D01*
G03X74072Y53419I659J-1678D01*
G02X73528I-272J293D01*
G03X71072I-1228J-1319D01*
G02X70528I-272J293D01*
G03X68072I-1228J-1319D01*
G02X67528I-272J293D01*
G03X65072I-1228J-1319D01*
G02X64528I-272J293D01*
G03X62072I-1228J-1319D01*
G02X61528I-272J293D01*
G03X59072I-1228J-1319D01*
G02X58528I-272J293D01*
G03X56072I-1228J-1319D01*
G02X55528I-272J293D01*
G03X53072I-1228J-1319D01*
G02X52528I-272J293D01*
G03X50072I-1228J-1319D01*
G02X49528I-272J293D01*
G03X47072I-1228J-1319D01*
G02X46528I-272J293D01*
G03X44072I-1228J-1319D01*
G02X43528I-272J293D01*
G03X41072I-1228J-1319D01*
G02X40528I-272J293D01*
G03X38072I-1228J-1319D01*
G02X37528I-272J293D01*
G03X35072I-1228J-1319D01*
G02X34528I-272J293D01*
G03Y50781I-1228J-1319D01*
G02X35072I272J-293D01*
G03X37528I1228J1319D01*
G02X38072I272J-293D01*
G03X40528I1228J1319D01*
G02X41072I272J-293D01*
G03X43528I1228J1319D01*
G02X44072I272J-293D01*
G03X46528I1228J1319D01*
G02X47072I272J-293D01*
G03X49528I1228J1319D01*
G02X50072I272J-293D01*
G03X52528I1228J1319D01*
G02X53072I272J-293D01*
G03X55528I1228J1319D01*
G02X56072I272J-293D01*
G03X58528I1228J1319D01*
G02X59072I272J-293D01*
G03X61528I1228J1319D01*
G02X62072I272J-293D01*
G03X64528I1228J1319D01*
G02X65072I272J-293D01*
G03X67528I1228J1319D01*
G02X68072I272J-293D01*
G03X70528I1228J1319D01*
G02X71072I272J-293D01*
G03X73528I1228J1319D01*
G02X74072I272J-293D01*
G03X76528I1228J1319D01*
G02X77072I272J-293D01*
G03X79528I1228J1319D01*
G02X80072I272J-293D01*
G03X82528I1228J1319D01*
G02X83072I272J-293D01*
G03X85528I1228J1319D01*
G02X86072I272J-293D01*
G03X88528I1228J1319D01*
G02X89072I272J-293D01*
G03X91528I1228J1319D01*
G02X92072I272J-293D01*
G03X94528I1228J1319D01*
G02X95072I272J-293D01*
G03X97363Y50645I1228J1319D01*
G02X97999Y50322I236J-323D01*
G01Y13266D01*
G02X97324Y12975I-400J-1D01*
G03Y7025I-2824J-2975D01*
G02X97999Y6734I275J-290D01*
G01Y3266D01*
G02X97324Y2975I-400J-1D01*
G03Y-2975I-2824J-2975D01*
G02X97999Y-3266I275J-290D01*
G01Y-6734D01*
G02X97324Y-7025I-400J-1D01*
G03Y-12975I-2824J-2975D01*
G02X97999Y-13266I275J-290D01*
G01Y-91700D01*
G02X97345Y-92009I-400J0D01*
G03X94397Y-93400I-1146J-1391D01*
G02X93979Y-93800I-400J0D01*
G03X92672Y-94281I-79J-1800D01*
G02X92128I-272J293D01*
G03X89672I-1228J-1319D01*
G02X89128I-272J293D01*
G03X86672I-1228J-1319D01*
G02X86128I-272J293D01*
G03X83672I-1228J-1319D01*
G02X83128I-272J293D01*
G03X80672I-1228J-1319D01*
G02X80128I-272J293D01*
G03X77632Y-94320I-1228J-1319D01*
G02X77068I-282J284D01*
G03Y-96880I-1268J-1280D01*
G02X77632I282J-284D01*
G03X80128Y-96919I1268J1280D01*
G02X80672I272J-293D01*
G03X83128I1228J1319D01*
G02X83672I272J-293D01*
G03X86128I1228J1319D01*
G02X86672I272J-293D01*
G03X89128I1228J1319D01*
G02X89672I272J-293D01*
G03X92128I1228J1319D01*
G02X92672I272J-293D01*
G03X94564Y-97275I1228J1319D01*
G02X95073Y-97475I148J-372D01*
G03X95194Y-97689I1625J778D01*
G02X95027Y-97999I-167J-110D01*
G01X37147D01*
G02X36811Y-97381I0J400D01*
G03X34072Y-95081I-1512J981D01*
G02X33528I-272J293D01*
G03X33493Y-95050I-1212J-1333D01*
G02Y-94750I133J150D01*
G03X30981Y-94628I-1193J1350D01*
G02Y-95172I-293J-272D01*
G03X30789Y-97381I1319J-1227D01*
G02X30453Y-97999I-336J-218D01*
G01X13266D01*
G02X12975Y-97324I-1J400D01*
G03X7025I-2975J2824D01*
G02X6734Y-97999I-290J-275D01*
G01X3266D01*
G02X2975Y-97324I-1J400D01*
G03X-2975I-2975J2824D01*
G02X-3266Y-97999I-290J-275D01*
G01X-6734D01*
G02X-7025Y-97324I-1J400D01*
G03X-12975I-2975J2824D01*
G02X-13266Y-97999I-290J-275D01*
G01X-72486D01*
G02X-72761Y-97309I0J400D01*
G37*
G36*
G01X-76300Y46500D02*
X-77400Y47600D01*
Y49257D01*
X-78143Y50000D01*
X-89156D01*
G02X-89495Y50612I0J400D01*
G03X-93905I-2205J1382D01*
G02X-94244Y50000I-339J-212D01*
G01X-97431D01*
X-97999Y50568D01*
Y56898D01*
X-95943D01*
G03X-93257I1343J1202D01*
G01X-92251D01*
X-89751Y59398D01*
X-77251D01*
X-72251Y64398D01*
X-67109D01*
X-67100Y64208D01*
G03X-63500I1800J92D01*
G01X-63491Y64398D01*
X-57806D01*
G03X-53994I1906J1102D01*
G01X-46898D01*
X-42500Y60000D01*
Y52500D01*
X-45000Y50000D01*
X-62987D01*
G02X-63262Y50691I0J400D01*
G03X-65728Y53319I-1238J1309D01*
G02X-66272I-272J293D01*
G03X-68289Y50380I-1228J-1319D01*
G01X-68176Y50325D01*
Y50000D01*
X-68199D01*
Y49801D01*
X-69800Y48200D01*
X-72900D01*
X-74600Y46500D01*
X-76300D01*
G37*
G36*
G01X-97999Y57500D02*
Y97999D01*
X-22500D01*
Y81129D01*
G03Y79471I1600J-829D01*
G01Y70000D01*
X-27500Y65000D01*
X-38589D01*
X-38607Y65180D01*
G03X-42193I-1793J-180D01*
G01X-42211Y65000D01*
X-53300D01*
G02X-53700Y65415I0J400D01*
G03X-54794Y67404I-2200J85D01*
G02Y68096I201J346D01*
G03X-57006I-1106J1904D01*
G02Y67404I-201J-346D01*
G03X-58100Y65415I1106J-1904D01*
G02X-58500Y65000I-400J-15D01*
G01X-63640D01*
G03X-66960I-1660J-700D01*
G01X-72500D01*
X-77500Y60000D01*
X-90000D01*
X-92500Y57500D01*
X-92838D01*
Y57720D01*
X-92834Y57740D01*
G03X-96395Y57936I-1766J359D01*
G02X-96793Y57500I-398J-36D01*
G01X-97999D01*
G37*
%LPC*%
G75*
G36*
G01X6327Y57222D02*
G03X5800Y57385I-349J-195D01*
G02X6573Y59878I-800J1614D01*
G03X7100Y59715I349J195D01*
G02X6327Y57222I800J-1614D01*
G37*
G36*
G01X63081Y57958D02*
G03X62990Y57413I240J-320D01*
G02X60419Y57842I-1490J-1013D01*
G03X60510Y58387I-240J320D01*
G02X63081Y57958I1490J1013D01*
G37*
G36*
G01X28982Y54329D02*
G03X29309Y53875I395J-60D01*
G02X27218Y52371I-309J-1775D01*
G03X26891Y52825I-395J60D01*
G02X25881Y55828I309J1775D01*
G03Y56372I-293J272D01*
G02Y58828I1319J1228D01*
G03Y59372I-293J272D01*
G02Y61828I1319J1228D01*
G03Y62372I-293J272D01*
G02Y64828I1319J1228D01*
G03Y65372I-293J272D01*
G02Y67828I1319J1228D01*
G03Y68372I-293J272D01*
G02Y70828I1319J1228D01*
G03Y71372I-293J272D01*
G02X25844Y73787I1319J1228D01*
G03Y74313I-301J263D01*
G02X28556I1356J1187D01*
G03Y73787I301J-263D01*
G02X28519Y71372I-1356J-1187D01*
G03Y70828I293J-272D01*
G02Y68372I-1319J-1228D01*
G03Y67828I293J-272D01*
G02Y65372I-1319J-1228D01*
G03Y64828I293J-272D01*
G02Y62372I-1319J-1228D01*
G03Y61828I293J-272D01*
G02Y59372I-1319J-1228D01*
G03Y58828I293J-272D01*
G02Y56372I-1319J-1228D01*
G03Y55828I293J-272D01*
G02X28982Y54329I-1319J-1228D01*
G37*
G36*
G01X-25470Y39138D02*
G03X-24931Y38788I399J25D01*
G02X-26099Y36992I631J-1688D01*
G03X-26638Y37342I-399J-25D01*
G02X-25470Y39138I-631J1688D01*
G37*
G36*
G01X-30204Y37028D02*
G03X-30216Y36483I287J-279D01*
G02X-32853Y36542I-1346J-1198D01*
G03X-32841Y37087I-287J279D01*
G02X-30204Y37028I1346J1198D01*
G37*
G36*
G01X-7045Y33041D02*
G03X-6863Y33604I-165J364D01*
G02X-4555Y32859I1563J896D01*
G03X-4737Y32296I165J-364D01*
G02X-7045Y33041I-1563J-896D01*
G37*
G36*
G01X33000Y28980D02*
G03X33426Y28598I400J17D01*
G02X31743Y26720I117J-1798D01*
G03X31317Y27102I-400J-17D01*
G02X33000Y28980I-117J1798D01*
G37*
G36*
G01X-9400Y24218D02*
G03X-9818Y24600I-400J-18D01*
G02X-8100Y26482I-82J1800D01*
G03X-7682Y26100I400J18D01*
G02X-5828Y23974I82J-1800D01*
G03X-5428Y23502I393J-72D01*
G02X-7172Y22026I28J-1802D01*
G03X-7572Y22498I-393J72D01*
G02X-9400Y24218I-28J1802D01*
G37*
G36*
G01X-83302Y21895D02*
G03X-83066Y21387I377J-134D01*
G02X-85398Y20305I-634J-1687D01*
G03X-85634Y20813I-377J134D01*
G02X-83302Y21895I634J1687D01*
G37*
G36*
G01X60648Y17404D02*
G03X60012Y17295I-278J-288D01*
G02X59652Y19396I-1612J805D01*
G03X60288Y19505I278J288D01*
G02X60648Y17404I1612J-805D01*
G37*
G36*
G01X-51210Y10165D02*
G03X-51755Y10158I-269J-296D01*
G02X-51790Y12796I-1245J1303D01*
G03X-51245Y12803I269J296D01*
G02X-48772Y12819I1245J-1303D01*
G03X-48228I272J293D01*
G02Y10181I1228J-1319D01*
G03X-48772I-272J-293D01*
G02X-51210Y10165I-1228J1319D01*
G37*
G36*
G01X-45307Y2149D02*
G03X-45344Y1586I265J-300D01*
G02X-47893Y1751I-1357J-1186D01*
G03X-47856Y2314I-265J300D01*
G02X-45307Y2149I1357J1186D01*
G37*
G36*
G01X-17560Y-870D02*
G03X-17219Y-1371I386J-104D01*
G02X-19162Y-2692I-203J-1791D01*
G03X-19503Y-2191I-386J104D01*
G02X-17560Y-870I203J1791D01*
G37*
G36*
G01X-6722Y-7005D02*
G03X-7192Y-7299I-82J-391D01*
G02X-8569Y-5097I-1748J439D01*
G03X-8099Y-4803I82J391D01*
G02X-6722Y-7005I1748J-439D01*
G37*
G36*
G01X5912Y-9071D02*
G03X6444Y-9188I329J227D01*
G02X5879Y-11765I917J-1551D01*
G03X5347Y-11648I-329J-227D01*
G02X5912Y-9071I-917J1551D01*
G37*
G36*
G01X-39079Y-25225D02*
G03X-39642Y-25497I-173J-360D01*
G02X-40621Y-23475I-1758J397D01*
G03X-40058Y-23203I173J360D01*
G02X-39079Y-25225I1758J-397D01*
G37*
G36*
G01X-6598Y-27197D02*
G03X-6973Y-26663I-377J134D01*
G02X-8590Y-24086I10J1802D01*
G03X-8753Y-23566I-361J172D01*
G02X-6237Y-22774I889J1567D01*
G03X-6074Y-23294I361J-172D01*
G02X-5265Y-25464I-889J-1567D01*
G03X-4890Y-25998I377J-134D01*
G02X-6598Y-27197I-10J-1802D01*
G37*
G36*
G01X8529Y-27669D02*
G03X8165Y-27197I-393J73D01*
G02X7888Y-27154I137J1797D01*
G03X7397Y-27572I-92J-390D01*
G02X6012Y-25946I-1797J-128D01*
G03X6503Y-25528I92J390D01*
G02X7020Y-24132I1797J128D01*
G03X7016Y-23565I-284J282D01*
G02X9560Y-23548I1263J1285D01*
G03X9564Y-24115I284J-282D01*
G02X10071Y-25731I-1264J-1284D01*
G03X10435Y-26203I393J-73D01*
G02X8529Y-27669I-135J-1797D01*
G37*
G36*
G01X-46779Y-33619D02*
G03X-47323I-272J-293D01*
G02Y-30981I-1228J1319D01*
G03X-46779I272J293D01*
G02X-44323I1228J-1319D01*
G03X-43779I272J293D01*
G02X-41323I1228J-1319D01*
G03X-40779I272J293D01*
G02X-38323I1228J-1319D01*
G03X-37779I272J293D01*
G02X-35323I1228J-1319D01*
G03X-34779I272J293D01*
G02X-32323I1228J-1319D01*
G03X-31779I272J293D01*
G02X-29323I1228J-1319D01*
G03X-28779I272J293D01*
G02X-26323I1228J-1319D01*
G03X-25779I272J293D01*
G02Y-33619I1228J-1319D01*
G03X-26323I-272J-293D01*
G02X-28779I-1228J1319D01*
G03X-29323I-272J-293D01*
G02X-31779I-1228J1319D01*
G03X-32323I-272J-293D01*
G02X-34779I-1228J1319D01*
G03X-35323I-272J-293D01*
G02X-37779I-1228J1319D01*
G03X-38323I-272J-293D01*
G02X-40779I-1228J1319D01*
G03X-41323I-272J-293D01*
G02X-43779I-1228J1319D01*
G03X-44323I-272J-293D01*
G02X-46779I-1228J1319D01*
G37*
G36*
G01X-66354Y-33979D02*
G03X-66899Y-34343I-145J-373D01*
G02X-70019Y-33072I-1801J43D01*
G03Y-32528I-293J272D01*
G02Y-30072I1319J1228D01*
G03Y-29528I-293J272D01*
G02X-67381I1319J1228D01*
G03Y-30072I293J-272D01*
G02X-67076Y-30519I-1319J-1228D01*
G03X-66531Y-30701I361J173D01*
G02X-64472Y-30981I831J-1599D01*
G03X-63928I272J293D01*
G02X-61472I1228J-1319D01*
G03X-60928I272J293D01*
G02X-58472I1228J-1319D01*
G03X-57928I272J293D01*
G02Y-33619I1228J-1319D01*
G03X-58472I-272J-293D01*
G02X-60928I-1228J1319D01*
G03X-61472I-272J-293D01*
G02X-63928I-1228J1319D01*
G03X-64472I-272J-293D01*
G02X-66354Y-33979I-1228J1319D01*
G37*
G36*
G01X-45557Y-49501D02*
G03X-45610Y-50044I265J-300D01*
G02X-48233Y-49789I-1430J-1096D01*
G03X-48180Y-49246I-265J300D01*
G02X-45557Y-49501I1430J1096D01*
G37*
G36*
G01X-35726Y-51176D02*
G03X-35869Y-51742I194J-350D01*
G02X-38259Y-51139I-1517J-973D01*
G03X-38116Y-50573I-194J350D01*
G02X-35726Y-51176I1517J973D01*
G37*
G36*
G01X29154Y-56296D02*
G03X28944Y-56546I-17J-199D01*
G02X25415Y-56755I-1744J-454D01*
G03X25033Y-56301I-396J54D01*
G02X26885Y-54745I67J1801D01*
G03X27267Y-55199I396J-54D01*
G02X27346Y-55204I-74J-1801D01*
G03X27556Y-54954I17J199D01*
G02X31085Y-54745I1744J454D01*
G03X31467Y-55199I396J-54D01*
G02X31546Y-55204I-74J-1801D01*
G03X31756Y-54954I17J199D01*
G02X35285Y-54744I1744J454D01*
G03X35685Y-55198I396J-54D01*
G02X35846Y-55204I13J-1802D01*
G03X36056Y-54954I17J199D01*
G02X39585Y-54745I1744J454D01*
G03X39967Y-55199I396J-54D01*
G02X40046Y-55204I-74J-1801D01*
G03X40256Y-54954I17J199D01*
G02X43785Y-54745I1744J454D01*
G03X44167Y-55199I396J-54D01*
G02X44246Y-55204I-74J-1801D01*
G03X44456Y-54954I17J199D01*
G02X47985Y-54745I1744J454D01*
G03X48367Y-55199I396J-54D01*
G02X48446Y-55204I-74J-1801D01*
G03X48656Y-54954I17J199D01*
G02X52185Y-54745I1744J454D01*
G03X52567Y-55199I396J-54D01*
G02X52729Y-55213I-74J-1800D01*
G03X52948Y-54967I25J198D01*
G02X56490Y-54753I1752J423D01*
G03X56871Y-55199I397J-47D01*
G02X56946Y-55204I-82J-1800D01*
G03X57156Y-54954I17J199D01*
G02X60685Y-54745I1744J454D01*
G03X61067Y-55199I396J-54D01*
G02X59215Y-56755I-67J-1801D01*
G03X58833Y-56301I-396J54D01*
G02X58754Y-56296I74J1801D01*
G03X58544Y-56546I-17J-199D01*
G02X55010Y-56791I-1744J-454D01*
G03X54629Y-56345I-397J47D01*
G02X54471Y-56331I80J1800D01*
G03X54252Y-56577I-25J-198D01*
G02X50715Y-56755I-1752J-423D01*
G03X50333Y-56301I-396J54D01*
G02X50254Y-56296I74J1801D01*
G03X50044Y-56546I-17J-199D01*
G02X46515Y-56755I-1744J-454D01*
G03X46133Y-56301I-396J54D01*
G02X46054Y-56296I74J1801D01*
G03X45844Y-56546I-17J-199D01*
G02X42315Y-56755I-1744J-454D01*
G03X41933Y-56301I-396J54D01*
G02X41854Y-56296I74J1801D01*
G03X41644Y-56546I-17J-199D01*
G02X38115Y-56755I-1744J-454D01*
G03X37733Y-56301I-396J54D01*
G02X37654Y-56296I74J1801D01*
G03X37444Y-56546I-17J-199D01*
G02X33915Y-56756I-1744J-454D01*
G03X33515Y-56302I-396J54D01*
G02X33354Y-56296I-13J1802D01*
G03X33144Y-56546I-17J-199D01*
G02X29615Y-56755I-1744J-454D01*
G03X29233Y-56301I-396J54D01*
G02X29154Y-56296I74J1801D01*
G37*
G36*
G01X-32703Y-58117D02*
G03X-32854Y-58674I192J-351D01*
G02X-35262Y-58018I-1546J-926D01*
G03X-35111Y-57461I-192J351D01*
G02X-32703Y-58117I1546J926D01*
G37*
G36*
G01X16072Y-79719D02*
G03X15528I-272J-293D01*
G02X12499Y-78467I-1228J1319D01*
G03X11913Y-78129I-399J-16D01*
G02X13798Y-76051I-1913J3629D01*
G03X14192Y-76601I370J-151D01*
G02X15528Y-77081I108J-1799D01*
G03X16072I272J293D01*
G02Y-79719I1228J-1319D01*
G37*
G36*
G01X22072Y-85719D02*
G03X21528I-272J-293D01*
G02X18981Y-83172I-1228J1319D01*
G03Y-82628I-293J272D01*
G02X21619I1319J1228D01*
G03Y-83172I293J-272D01*
G02X21650Y-83207I-1333J-1212D01*
G03X21950I150J133D01*
G02X22072Y-85719I1350J-1193D01*
G37*
G36*
G01X28072Y-91719D02*
G03X27528I-272J-293D01*
G02X24981Y-89172I-1228J1319D01*
G03Y-88628I-293J272D01*
G02X27619I1319J1228D01*
G03Y-89172I293J-272D01*
G02X27650Y-89207I-1333J-1212D01*
G03X27950I150J133D01*
G02X28072Y-91719I1350J-1193D01*
G37*
G36*
G01X13282Y76960D02*
G02X11468Y78330I-3282J-2460D01*
G03X11990Y78830I143J374D01*
G02X13620Y77600I1709J570D01*
G03X13282Y76960I-18J-400D01*
G37*
G36*
G01X3157Y77119D02*
G02X399Y78583I-3158J-2619D01*
G03X831Y79057I39J398D01*
G02X900Y79997I1769J343D01*
G03X475Y80526I-378J132D01*
G02X-2605Y81462I-475J3974D01*
G03X-3235Y81311I-260J-304D01*
G02X-6606Y81421I-1665J689D01*
G03X-7259Y81584I-379J-128D01*
G02X-12634Y81487I-2741J2916D01*
G03X-13261Y81352I-263J-301D01*
G02X-14486Y83854I-1639J748D01*
G03X-13995Y84266I92J389D01*
G02X-13962Y85061I3995J232D01*
G03X-14566Y85459I-396J56D01*
G02X-13725Y87309I-934J1541D01*
G03X-13028Y87117I394J69D01*
G02X-6016Y84120I3028J-2617D01*
G03X-5488Y83704I398J-38D01*
G02X-4480Y83752I586J-1704D01*
G03X-3989Y84174I92J389D01*
G02X2937Y81781I3989J326D01*
G03X3116Y81127I294J-271D01*
G02X3307Y77743I-516J-1727D01*
G03X3157Y77119I157J-368D01*
G37*
G36*
G01X69954Y72837D02*
G02X68446I-754J-1637D01*
G03Y73563I-167J363D01*
G02X69954I754J1637D01*
G03Y72837I167J-363D01*
G37*
G36*
G01X-3618Y55729D02*
G02X-7134Y56489I-1782J271D01*
G03X-7516Y56998I-385J109D01*
G02X-5766Y58311I16J1802D01*
G03X-5384Y57802I385J-109D01*
G02X-4399Y57498I-17J-1802D01*
G03X-3782Y57771I222J333D01*
G02X-3001Y56002I1782J-270D01*
G03X-3618Y55729I-222J-333D01*
G37*
G36*
G01X-17898Y56137D02*
G02X-18212Y54436I1398J-1138D01*
G03X-18902Y54563I-380J-125D01*
G02X-18588Y56264I-1398J1138D01*
G03X-17898Y56137I380J125D01*
G37*
G36*
G01X72238Y19385D02*
G02X70055Y18627I-638J-1685D01*
G03X69854Y19207I-343J206D01*
G02X69187Y19649I637J1686D01*
G03X68535Y19542I-290J-276D01*
G02X68205Y21543I-1635J758D01*
G03X68857Y21650I290J276D01*
G02X72037Y19965I1635J-758D01*
G03X72238Y19385I343J-206D01*
G37*
G36*
G01X-57116Y-1347D02*
G02X-59066Y-789I-1385J-1153D01*
G03X-58884Y-153I-125J380D01*
G02X-56934Y-711I1385J1153D01*
G03X-57116Y-1347I125J-380D01*
G37*
G36*
G01X17035Y-10675D02*
G02X15017Y-12198I-235J-1787D01*
G03X14674Y-11743I-395J59D01*
G02X13230Y-9302I235J1787D01*
G03X12781Y-8765I-373J144D01*
G02X14120Y-7649I-340J1770D01*
G03X14569Y-8186I373J-144D01*
G02X15870Y-8432I339J-1770D01*
G03X16468Y-8203I213J339D01*
G02X17024Y-10066I1732J-498D01*
G03X16696Y-10191I-130J-152D01*
G02X16692Y-10220I-1787J232D01*
G03X17035Y-10675I395J-59D01*
G37*
G36*
G01X58284Y-14422D02*
G02X55648Y-14521I-1272J-1276D01*
G03X55628Y-13976I-303J262D01*
G02X55707Y-11350I1272J1276D01*
G03Y-10750I-265J300D01*
G02X55581Y-8172I1193J1350D01*
G03Y-7628I-293J272D01*
G02X55862Y-4927I1319J1228D01*
G03Y-4273I-230J327D01*
G02X55580Y-1573I1038J1473D01*
G03X55574Y-1022I-293J272D01*
G02X55840Y1717I1291J1257D01*
G03X55828Y2383I-228J329D01*
G02X55555Y5203I972J1517D01*
G03X55567Y5769I-276J289D01*
G02X55819Y8486I1298J1250D01*
G03X55843Y9118I-233J325D01*
G02X58046Y9033I1156J1382D01*
G03X58022Y8401I233J-325D01*
G02X58110Y5716I-1157J-1382D01*
G03X58098Y5150I276J-289D01*
G02X57825Y2418I-1298J-1250D01*
G03X57837Y1752I228J-329D01*
G02X58185Y-992I-972J-1517D01*
G03X58191Y-1543I293J-272D01*
G02X57938Y-4273I-1291J-1257D01*
G03Y-4927I230J-327D01*
G02X58219Y-7628I-1038J-1473D01*
G03Y-8172I293J-272D01*
G02X58093Y-10750I-1319J-1228D01*
G03Y-11350I265J-300D01*
G02X58264Y-13877I-1193J-1350D01*
G03X58284Y-14422I303J-262D01*
G37*
G36*
G01X30709Y-21207D02*
G02X29138Y-20849I-1144J-1393D01*
G03X29297Y-20152I-95J388D01*
G02X29258Y-20119I1145J1392D01*
G03X28651Y-20217I-263J-301D01*
G02X28283Y-17940I-1551J918D01*
G03X28890Y-17842I263J301D01*
G02X29123Y-17530I1552J-916D01*
G03X29068Y-16936I-293J272D01*
G02X28370Y-15145I1071J1449D01*
G03X28072Y-14680I-393J76D01*
G02X28519Y-11128I428J1750D01*
G03X28918Y-10669I4J400D01*
G02X30681Y-12202I1782J269D01*
G03X30282Y-12661I-4J-400D01*
G02X30269Y-13272I-1782J-268D01*
G03X30567Y-13737I393J-76D01*
G02X31457Y-16716I-428J-1750D01*
G03X31512Y-17310I293J-272D01*
G02X30868Y-20510I-1071J-1449D01*
G03X30709Y-21207I95J-388D01*
G37*
G36*
G01X-61464Y-24185D02*
G02X-62153Y-22233I-1736J485D01*
G03X-61536Y-22015I232J325D01*
G02X-60847Y-23967I1736J-485D01*
G03X-61464Y-24185I-232J-325D01*
G37*
G36*
G01X-36257Y-28968D02*
G02X-36359Y-27068I-1579J868D01*
G03X-35680Y-27031I328J229D01*
G02X-35578Y-28931I1579J-868D01*
G03X-36257Y-28968I-328J-229D01*
G37*
G36*
G01X2444Y-51823D02*
G02X2222Y-49870I-1612J806D01*
G03X2888Y-49794I308J255D01*
G02X3110Y-51747I1612J-806D01*
G03X2444Y-51823I-308J-255D01*
G37*
G36*
G01X-52268Y-68766D02*
G02X-52841Y-66226I-1502J996D01*
G03X-52302Y-66104I206J343D01*
G02X-50881Y-65300I1502J-996D01*
G03X-50591Y-64646I-19J400D01*
G02X-49119Y-65300I1391J1146D01*
G03X-49409Y-65954I19J-400D01*
G02X-51729Y-68644I-1391J-1146D01*
G03X-52268Y-68766I-206J-343D01*
G37*
G36*
G01X88710Y-72069D02*
G02X86312Y-69835I-1710J569D01*
G03X86421Y-69163I-153J370D01*
G02X86357Y-69105I1178J1364D01*
G03X85758Y-69159I-276J-290D01*
G02X82498Y-68102I-1458J1059D01*
G03X82098Y-67702I-400J0D01*
G02X81190Y-64345I2J1802D01*
G03X81281Y-63727I-202J345D01*
G02X80808Y-62310I1319J1228D01*
G03X80481Y-61874I-398J42D01*
G02X82592Y-60290I319J1774D01*
G03X82919Y-60726I398J-42D01*
G02X83510Y-64055I-319J-1774D01*
G03X83419Y-64673I202J-345D01*
G02X83902Y-65898I-1319J-1228D01*
G03X84302Y-66298I400J0D01*
G02X85543Y-66795I-2J-1802D01*
G03X86142Y-66741I276J290D01*
G02X88288Y-69465I1458J-1059D01*
G03X88179Y-70137I153J-370D01*
G02X88359Y-70317I-1181J-1361D01*
G03X89040Y-70181I302J263D01*
G02X89391Y-71933I1710J-569D01*
G03X88710Y-72069I-302J-263D01*
G37*
G36*
G01X94218Y-76176D02*
G02X92466Y-75825I-1183J-1359D01*
G03X92602Y-75144I-127J379D01*
G02X94354Y-75495I1183J1359D01*
G03X94218Y-76176I127J-379D01*
G37*
G36*
G01X58153Y-94133D02*
G02X57464Y-96085I1047J-1467D01*
G03X56847Y-95867I-385J-107D01*
G02X54130Y-95077I-1047J1467D01*
G03X53603Y-94859I-371J-150D01*
G02X51230Y-93877I-703J1659D01*
G03X50703Y-93659I-371J-150D01*
G02X48325Y-91336I-703J1659D01*
G03X47998Y-90791I-372J148D01*
G02X46658Y-88067I202J1791D01*
G03X46547Y-87534I-342J207D01*
G02X45857Y-85563I1041J1471D01*
G03X45520Y-85055I-385J111D01*
G02X44300Y-82175I214J1789D01*
G03X44037Y-81536I-318J243D01*
G02X45717Y-80842I246J1785D01*
G03X45980Y-81481I318J-243D01*
G02X47465Y-83766I-246J-1785D01*
G03X47802Y-84274I385J-111D01*
G02X49130Y-86996I-214J-1789D01*
G03X49241Y-87529I342J-207D01*
G02X49875Y-89664I-1041J-1471D01*
G03X50202Y-90209I372J-148D01*
G02X51670Y-91323I-202J-1791D01*
G03X52197Y-91541I371J150D01*
G02X54570Y-92523I703J-1659D01*
G03X55097Y-92741I371J150D01*
G02X57536Y-93915I703J-1659D01*
G03X58153Y-94133I385J107D01*
G37*
G36*
G01X-67338Y69602D02*
G03X-67193Y69057I347J-200D01*
G02X-69662Y68398I-907J-1557D01*
G03X-69807Y68943I-347J200D01*
G02X-67338Y69602I907J1557D01*
G37*
G36*
G01X-64703Y87876D02*
G02X-65030Y89776I-1664J692D01*
G03X-64364Y89891I297J268D01*
G02X-64037Y87991I1664J-692D01*
G03X-64703Y87876I-297J-268D01*
G37*
G54D22*
X-82600Y84900D03*
X-92600D03*
X-32963Y73164D03*
G54D21*
X-91700Y63806D03*
G54D23*
X-40837Y73164D03*
G54D20*
X-21500Y-88000D03*
G54D18*
X-84500Y-10000D03*
Y0D03*
Y10000D03*
X0Y-84500D03*
X-10000D03*
X10000D03*
Y84500D03*
X84500Y-10000D03*
Y0D03*
Y10000D03*
G54D17*
X-85100Y-53200D03*
X-89000Y-46000D03*
X-94400Y18100D03*
X-94500Y39500D03*
X-91800Y43300D03*
X-71025Y-66975D03*
X-77176Y-60000D03*
X-74100Y-45900D03*
X-68000Y-15200D03*
X-79700Y5100D03*
X-79800Y-5000D03*
X-77200Y38500D03*
X-79000Y42300D03*
X-57100Y-94300D03*
X-57800Y-69400D03*
X-58700Y-54100D03*
X-54800Y-21200D03*
X-57350Y-14000D03*
X-58000Y-9500D03*
X-58400Y7100D03*
X-39900Y-94300D03*
X-43700Y-69000D03*
X-41200Y-54800D03*
X-48551Y-42929D03*
X-41500Y-40250D03*
X-44800Y-22500D03*
X-49802Y-21198D03*
X-40800Y-17700D03*
X-34600Y-21100D03*
X-43400Y-11600D03*
X-44400Y42700D03*
X-32400Y-49400D03*
X-18700Y-31300D03*
X-18200Y-39600D03*
X-33800Y-14600D03*
X-31400Y18500D03*
Y22600D03*
X-20000Y39300D03*
X-19900Y26500D03*
X-31320Y27898D03*
X-30700Y50600D03*
X-5000Y-80100D03*
X-17300Y-78800D03*
Y-66200D03*
X-12900Y-56800D03*
X-10400Y-52800D03*
X-3100Y-33000D03*
X-14874Y-8200D03*
X-2100Y-4800D03*
X-14400Y1400D03*
X-14500Y19500D03*
X-15500Y38787D03*
X-4700Y38900D03*
X-13400Y28500D03*
X-1500Y51000D03*
X-15415Y50585D03*
X4700Y-80100D03*
X11012Y-32784D03*
X2900Y-40800D03*
X1000Y-26800D03*
X15000Y5000D03*
X8300Y26900D03*
Y34800D03*
X13200Y52300D03*
X8000Y51500D03*
X5000Y54800D03*
X21600Y-51000D03*
X20500Y-33500D03*
X32100Y-34700D03*
X29400Y-42600D03*
X22200Y-28475D03*
X17000Y-26800D03*
X22200Y-19825D03*
X29500Y-4216D03*
X31500Y-575D03*
Y4425D03*
X18400Y52300D03*
X17800Y68600D03*
X16600Y59014D03*
X42000Y33900D03*
X35000Y34500D03*
X42400Y60800D03*
X34500Y63600D03*
X39100Y73900D03*
X61000Y-62900D03*
X49600Y62100D03*
X62000Y87800D03*
X72100Y-76500D03*
X77200Y-62500D03*
X71197Y-52803D03*
X66777Y-53025D03*
X77184Y-52792D03*
X76300Y-18200D03*
X79100Y-5000D03*
Y5300D03*
X75600Y29700D03*
X75100Y43200D03*
X72600Y62200D03*
X94400Y-83500D03*
X89815Y-74815D03*
X94000Y-54500D03*
X95500Y-50300D03*
X82500Y-35000D03*
Y-25000D03*
X-73100Y55800D03*
X-71700Y78400D03*
Y83200D03*
X-80900Y77300D03*
X-72188Y73988D03*
X-67200Y94700D03*
X-41600Y91500D03*
X-27100Y92000D03*
G54D19*
X-74500Y-10000D03*
Y0D03*
Y10000D03*
X0Y-74500D03*
X-10000D03*
Y74500D03*
X74500Y-10000D03*
Y0D03*
Y10000D03*
%LPD*%
G75*
G54D10*
X-96500Y-76300D03*
X-90500Y-78500D03*
X-87500D03*
X-84500D03*
X-96500Y-73300D03*
X-93500D03*
X-96500Y-70300D03*
Y-67300D03*
Y-64300D03*
Y-61300D03*
X-90500Y-73300D03*
X-87500D03*
X-84500D03*
X-85100Y-53200D03*
X-89000Y-46000D03*
X-96500Y-58300D03*
Y-55300D03*
Y-52300D03*
Y-49300D03*
Y-46300D03*
Y-43300D03*
Y-40300D03*
Y-37300D03*
Y-34300D03*
Y-31300D03*
Y-28300D03*
X-93500D03*
X-90500D03*
X-87500D03*
X-84500D03*
X-94400Y18100D03*
X-85000Y22500D03*
X-83700Y19700D03*
X-94500Y39500D03*
X-91800Y43300D03*
X-84100Y63500D03*
X-87100D03*
X-94600Y58100D03*
X-74000Y-96000D03*
Y-93000D03*
Y-81000D03*
Y-84000D03*
Y-87000D03*
Y-90000D03*
X-75500Y-78500D03*
X-72500D03*
X-69500D03*
X-81500D03*
X-78500D03*
X-71025Y-66975D03*
X-78325Y-68700D03*
X-67100Y-65000D03*
X-75200Y-67186D03*
X-77176Y-60000D03*
X-81500Y-73300D03*
X-78500D03*
X-74100Y-45900D03*
X-70820Y-55080D03*
X-83000Y-32000D03*
X-81500Y-28300D03*
X-78500D03*
X-75500D03*
X-68700Y-31300D03*
Y-34300D03*
Y-28300D03*
X-68000Y-15200D03*
X-72200Y-5000D03*
Y5000D03*
X-79700Y5100D03*
X-79800Y-5000D03*
X-72200Y15000D03*
X-75000Y30000D03*
Y25000D03*
Y35000D03*
X-77200Y38500D03*
X-67500Y52000D03*
Y46000D03*
X-79000Y42300D03*
X-71807Y40607D03*
X-73100Y55800D03*
X-75600Y48400D03*
X-81100Y63500D03*
X-68100Y67500D03*
X-80000Y57500D03*
X-77000D03*
X-68900Y70500D03*
X-71700Y83200D03*
X-80900Y77300D03*
X-71700Y78400D03*
X-72188Y73988D03*
X-67200Y94700D03*
X-57100Y-94300D03*
X-66500Y-78500D03*
X-63500D03*
X-60500D03*
X-57500D03*
X-54500D03*
X-51500D03*
X-50800Y-67100D03*
X-53770Y-67770D03*
X-57917Y-65860D03*
X-57800Y-69400D03*
X-58700Y-54100D03*
X-65700Y-32300D03*
X-62700D03*
X-59700D03*
X-56700D03*
X-54800Y-21200D03*
X-59800Y-22500D03*
X-57350Y-14000D03*
X-63200Y-23700D03*
X-57500Y1000D03*
X-58500Y-2500D03*
X-58000Y-9500D03*
X-53500Y-6750D03*
X-53000Y11461D03*
X-58400Y7100D03*
X-54000Y39400D03*
Y36400D03*
Y33400D03*
Y30400D03*
Y27400D03*
X-64500Y52000D03*
Y46000D03*
X-66000Y49000D03*
X-54000Y42400D03*
X-65300Y64300D03*
X-54343Y59139D03*
X-57343D03*
X-66367Y88567D03*
X-52000Y74000D03*
X-62700Y89200D03*
X-39900Y-94300D03*
X-48500Y-78500D03*
X-45500D03*
X-42500D03*
X-39500D03*
X-36500D03*
X-36100Y-69100D03*
X-40600Y-69000D03*
X-49200Y-63500D03*
X-34400Y-59600D03*
X-43700Y-69000D03*
X-46750Y-48150D03*
X-47040Y-51140D03*
X-46200Y-45000D03*
X-39600Y-48950D03*
X-46750Y-57050D03*
X-36600Y-49600D03*
X-41200Y-54800D03*
X-37385Y-52715D03*
X-48551Y-42929D03*
X-34101Y-27899D03*
X-37836Y-28100D03*
X-45551Y-32300D03*
X-42551D03*
X-39551D03*
X-36551D03*
X-48551D03*
X-41500Y-40250D03*
X-44800Y-22500D03*
X-49802Y-21198D03*
X-38300Y-23600D03*
X-40800Y-17700D03*
X-34600Y-21100D03*
X-43400Y-11600D03*
X-41400Y-25100D03*
X-46500Y3500D03*
X-46700Y400D03*
X-47000Y11500D03*
X-50000D03*
X-42600Y26375D03*
X-44400Y42700D03*
X-40400Y65000D03*
X-49000Y74000D03*
X-41600Y91500D03*
X-33500Y-78500D03*
X-30500D03*
X-27500D03*
X-24500D03*
X-23000Y-60500D03*
Y-63500D03*
Y-66500D03*
X-24500Y-69500D03*
Y-72500D03*
Y-75500D03*
X-32400Y-49400D03*
X-23000Y-45500D03*
Y-48500D03*
Y-51500D03*
Y-54500D03*
Y-57500D03*
X-33565Y-56535D03*
X-18069Y-36000D03*
X-18700Y-31300D03*
X-18200Y-39600D03*
X-33551Y-32300D03*
X-30551D03*
X-27551D03*
X-24551D03*
X-24500Y-36500D03*
Y-39500D03*
X-23000Y-42500D03*
X-21500Y-12300D03*
X-33800Y-14600D03*
X-17422Y-3162D03*
X-19300Y-400D03*
X-31400Y18500D03*
Y22600D03*
X-31495Y38285D03*
X-27269Y39030D03*
X-31562Y35285D03*
X-20000Y39300D03*
X-24300Y37100D03*
X-19900Y26500D03*
X-31320Y27898D03*
X-20300Y55700D03*
X-30700Y50600D03*
X-20900Y80300D03*
X-27100Y92000D03*
X-5000Y-80100D03*
X-17300Y-78800D03*
X-5000Y-72200D03*
X-15000D03*
X-17300Y-66200D03*
X-13400Y-52800D03*
X-12900Y-56800D03*
X-10400Y-52800D03*
X-4900Y-27800D03*
X-2075Y-26725D03*
X-9800Y-31600D03*
X-3100Y-33000D03*
X-7864Y-21999D03*
X-6963Y-24861D03*
X-14874Y-8200D03*
X-6351Y-5242D03*
X-2100Y-4800D03*
X-8940Y-6860D03*
X-14400Y1400D03*
X-5400Y21700D03*
X-14500Y19500D03*
X-7600Y24300D03*
X-6300Y31400D03*
X-5300Y34500D03*
X-7500Y37700D03*
X-15500Y38787D03*
X-4700Y38900D03*
X-13400Y28500D03*
X-9900Y26400D03*
X-5400Y56000D03*
X-1500Y51000D03*
X-15415Y50585D03*
X-16500Y55000D03*
X-2000Y57500D03*
X-7500Y58800D03*
X-5000Y72200D03*
X-14900Y82100D03*
X-15500Y87000D03*
X-4900Y82000D03*
X14300Y-78400D03*
X4700Y-80100D03*
X5000Y-72200D03*
X4500Y-50600D03*
X832Y-51017D03*
X2900Y-43800D03*
X11012Y-32784D03*
X5600Y-27700D03*
X13800Y-26800D03*
X7900Y-35000D03*
X10300Y-28000D03*
X2900Y-40800D03*
X1000Y-26800D03*
X8300Y-25400D03*
X14909Y-9956D03*
X8280Y-22280D03*
X4430Y-10097D03*
X7361Y-10739D03*
X15000Y5000D03*
X12441Y-6995D03*
X8300Y26900D03*
Y34800D03*
X13200Y52300D03*
X8000Y51500D03*
X5000Y54800D03*
Y59000D03*
X7900Y58100D03*
X5000Y72200D03*
X2600Y79400D03*
X13700D03*
X29300Y-90400D03*
X26300D03*
Y-87400D03*
X23300Y-84400D03*
X20300D03*
Y-81400D03*
X17300Y-78400D03*
X29300Y-54500D03*
X25100D03*
X27200Y-57000D03*
X31400D03*
X21600Y-51000D03*
X20500Y-33500D03*
X16900Y-35000D03*
X32100Y-34700D03*
X29400Y-42600D03*
X22200Y-28475D03*
X17000Y-26800D03*
X28500Y-12930D03*
X29465Y-26000D03*
X27100Y-19300D03*
X22200Y-19825D03*
X29565Y-22600D03*
X30700Y-10400D03*
X30139Y-15487D03*
X16800Y-12462D03*
X30441Y-18759D03*
X29500Y-4216D03*
X31500Y-575D03*
Y4425D03*
X18200Y-8700D03*
X31000Y12800D03*
X31200Y28900D03*
X18400Y52300D03*
X29000Y52100D03*
X27200Y54600D03*
X17800Y68600D03*
X16600Y59014D03*
X27200Y69600D03*
Y57600D03*
Y60600D03*
Y63600D03*
Y66600D03*
Y72600D03*
X17500Y74500D03*
X27200Y75500D03*
Y84800D03*
Y87800D03*
Y90800D03*
Y93800D03*
X30200Y96800D03*
X27200D03*
X35300Y-96400D03*
X32300D03*
Y-93400D03*
X48200Y-89000D03*
X47588Y-86063D03*
X44283Y-79751D03*
X45734Y-83266D03*
X48300Y-57000D03*
X35700D03*
X42000Y-54500D03*
X33500D03*
X44100Y-57000D03*
X39900D03*
X46200Y-54500D03*
X37800D03*
X33543Y26800D03*
X35000Y37500D03*
X42000Y33900D03*
X35000Y34500D03*
X48300Y52100D03*
X45300D03*
X42300D03*
X39300D03*
X36300D03*
X33300D03*
X38200Y71000D03*
X42700Y69300D03*
X42400Y60800D03*
X34500Y63600D03*
X37500Y87500D03*
X39100Y73900D03*
X44500Y90100D03*
X33200Y96800D03*
X36200D03*
X39200D03*
X42200D03*
X45200D03*
X48200D03*
X55800Y-94400D03*
X59200Y-95600D03*
X52900Y-93200D03*
X50000Y-92000D03*
X61000Y-62900D03*
Y-57000D03*
X52500D03*
X54700Y-54544D03*
X56800Y-57000D03*
X58900Y-54500D03*
X50400D03*
X63300Y-30000D03*
X56900Y-12700D03*
X57012Y-15698D03*
X56900Y-6400D03*
X56800Y3900D03*
X56900Y-2800D03*
Y-9400D03*
X56865Y235D03*
X57000Y10500D03*
X56865Y7019D03*
X61900Y18700D03*
X58400Y18100D03*
X51300Y49100D03*
X61500Y56400D03*
X63300Y52100D03*
X60300D03*
X57300D03*
X54300D03*
X51300D03*
X49600Y62100D03*
X62000Y59400D03*
X55200Y85200D03*
X62000Y87800D03*
X51200Y96800D03*
X54200D03*
X57200D03*
X60200D03*
X63200D03*
X78900Y-95600D03*
X75800D03*
X72100Y-76500D03*
X77200Y-62500D03*
X80800Y-60100D03*
X66744Y-47625D03*
X74191Y-53000D03*
X71197Y-52803D03*
X66777Y-53025D03*
X77184Y-52792D03*
X76300Y-18200D03*
X73000Y-15600D03*
X66012Y-16825D03*
X72200Y-5000D03*
Y5000D03*
X79100Y-5000D03*
Y5300D03*
X66900Y20300D03*
X70492Y20892D03*
X71600Y17700D03*
X75600Y29700D03*
X75100Y43200D03*
X76600Y54800D03*
X81300Y52100D03*
X78300D03*
X75300D03*
X72300D03*
X69300D03*
X66300D03*
X72600Y62200D03*
X78200Y57800D03*
Y60800D03*
Y63800D03*
Y66800D03*
Y72800D03*
X81200D03*
X78200Y69800D03*
X69200Y71200D03*
X78200Y87800D03*
Y84800D03*
Y81800D03*
Y78800D03*
Y75800D03*
X69200Y75200D03*
X72000Y87300D03*
Y93300D03*
Y90300D03*
X66200Y96800D03*
X69200D03*
X72200D03*
X75200D03*
X78200D03*
Y90800D03*
X87900Y-95600D03*
X90900D03*
X96199Y-93400D03*
X84900Y-95600D03*
X93900D03*
X81900D03*
X96700Y-96700D03*
X93035Y-77535D03*
X94400Y-83500D03*
X82600Y-62500D03*
X87600Y-67800D03*
X89815Y-74815D03*
X87000Y-71500D03*
X84300Y-68100D03*
X90750Y-70750D03*
X82100Y-65900D03*
X93785Y-73785D03*
X94000Y-54500D03*
X93900Y-45900D03*
X95500Y-50300D03*
X82500Y-35000D03*
Y-25000D03*
X86700Y34500D03*
X96300Y52100D03*
X93300D03*
X90300D03*
X87300D03*
X84300D03*
X93700Y62600D03*
X84200Y72800D03*
X87200D03*
X90200D03*
X93200D03*
X96200D03*
G54D11*
X-94500Y-10000D03*
X-84500D03*
X-94500Y0D03*
X-84500D03*
X-94500Y10000D03*
X-84500D03*
X-74500Y-10000D03*
Y0D03*
Y10000D03*
X0Y-94500D03*
X-10000D03*
X0Y-84500D03*
X-10000D03*
X0Y-74500D03*
X-10000D03*
Y74500D03*
X0D03*
X-10000Y84500D03*
X0D03*
X-10000Y94500D03*
X0D03*
X10000Y-94500D03*
Y-84500D03*
Y-74500D03*
Y74500D03*
Y84500D03*
Y94500D03*
X74500Y-10000D03*
Y0D03*
Y10000D03*
X94500Y-10000D03*
X84500D03*
X94500Y0D03*
X84500D03*
X94500Y10000D03*
X84500D03*
G54D12*
X-82600Y84900D03*
X-92600D03*
G54D13*
X-55900Y65500D03*
Y70000D03*
X-21500Y-88000D03*
G54D14*
X-32963Y73164D03*
X-40837D03*
G54D15*
G01X-133250Y-162900D02*
Y-172900D01*
X-128250D01*
G01X-123875D02*
X-120750Y-162900D01*
X-117625Y-172900D01*
G01X-118750Y-169400D02*
X-122750D01*
G01X-110750Y-172900D02*
Y-168400D01*
X-113250Y-162900D01*
G01X-108250D02*
X-110750Y-168400D01*
G01X-98250Y-172900D02*
X-103250D01*
Y-162900D01*
X-98250D01*
G01X-100250Y-167733D02*
X-103250D01*
G01X-93250Y-172900D02*
Y-162900D01*
X-90125D01*
X-89125Y-163400D01*
X-88500Y-164067D01*
X-88250Y-165400D01*
X-88500Y-166733D01*
X-89250Y-167567D01*
X-90125Y-168067D01*
X-93250D01*
G01X-90125D02*
X-88250Y-172900D01*
G01X-73500Y-170900D02*
X-72750Y-172067D01*
X-71750Y-172733D01*
X-70625Y-172900D01*
X-69625Y-172733D01*
X-68625Y-171900D01*
X-68000Y-170900D01*
X-67875Y-169900D01*
X-68125Y-168734D01*
X-69000Y-167900D01*
X-69875Y-167567D01*
X-71000D01*
G01X-69875D02*
X-69125Y-167067D01*
X-68500Y-166234D01*
X-68250Y-165233D01*
X-68500Y-164233D01*
X-69125Y-163400D01*
X-70250Y-162900D01*
X-71375Y-163067D01*
X-72500Y-163733D01*
G54D16*
G01X-88702Y0D02*
X-84500D01*
G01X-88702Y-10000D02*
X-84500D01*
G01X-88702Y10000D02*
X-84500D01*
G01Y-14202D02*
Y-10000D01*
G01Y5798D02*
Y10000D01*
G01Y-4202D02*
Y0D01*
G01D02*
Y4202D01*
G01Y0D02*
X-80298D01*
G01X-84500Y-10000D02*
Y-5798D01*
G01Y-10000D02*
X-80298D01*
G01X-84500Y10000D02*
Y14202D01*
G01Y10000D02*
X-80298D01*
G01X-36165Y73164D02*
X-32963D01*
G01Y69962D02*
Y73164D01*
G01D02*
Y76366D01*
G01Y73164D02*
X-29761D01*
G01X-10000Y-88702D02*
Y-84500D01*
G01D02*
Y-80298D01*
G01X-14202Y-84500D02*
X-10000D01*
G01D02*
X-5798D01*
G01X-4202D02*
X0D01*
G01X-10000Y80298D02*
Y84500D01*
G01D02*
Y88702D01*
G01Y84500D02*
X-5798D01*
G01X10000Y-88702D02*
Y-84500D01*
G01D02*
Y-80298D01*
G01X5798Y-84500D02*
X10000D01*
G01D02*
X14202D01*
G01X0Y-88702D02*
Y-84500D01*
G01D02*
Y-80298D01*
G01Y-84500D02*
X4202D01*
G01X10000Y80298D02*
Y84500D01*
G01D02*
Y88702D01*
G01X5798Y84500D02*
X10000D01*
G01D02*
X14202D01*
G01X0Y80298D02*
Y84500D01*
G01D02*
Y88702D01*
G01Y84500D02*
X4202D01*
G01X80298Y0D02*
X84500D01*
G01X80298Y-10000D02*
X84500D01*
G01X80298Y10000D02*
X84500D01*
G01Y-14202D02*
Y-10000D01*
G01Y5798D02*
Y10000D01*
G01Y-4202D02*
Y0D01*
G01D02*
Y4202D01*
G01Y0D02*
X88702D01*
G01X84500Y-10000D02*
Y-5798D01*
G01Y-10000D02*
X88702D01*
G01X84500Y10000D02*
Y14202D01*
G01Y10000D02*
X88702D01*
M02*
