G04 ================== begin FILE IDENTIFICATION RECORD ==================*
G04 Layout Name:  E:/git/clay/Circuit/R6/allegro/CLAYR6.brd*
G04 Film Name:    SILK_TOP*
G04 File Format:  Gerber RS274X*
G04 File Origin:  Cadence Allegro 16.6-P004*
G04 Origin Date:  Mon Dec 14 04:52:40 2015*
G04 *
G04 Layer:  REF DES/SILKSCREEN_TOP*
G04 Layer:  PACKAGE GEOMETRY/SILKSCREEN_TOP*
G04 Layer:  BOARD GEOMETRY/SILKSCREEN_TOP*
G04 *
G04 Offset:    (0.00 0.00)*
G04 Mirror:    No*
G04 Mode:      Positive*
G04 Rotation:  0*
G04 FullContactRelief:  No*
G04 UndefLineWidth:     10.00*
G04 ================== end FILE IDENTIFICATION RECORD ====================*
%FSLAX25Y25*MOIN*%
%IR0*IPPOS*OFA0.00000B0.00000*MIA0B0*SFA1.00000B1.00000*%
%ADD10C,.01*%
%ADD11C,.005*%
%ADD12C,.006*%
G75*
%LPD*%
G75*
G36*
G01X-15813Y-34703D02*
G03I-389J0D01*
G37*
G54D10*
G01X-15179Y-45806D02*
X-16006D01*
Y-44900D01*
G01X-4194Y-44821D02*
Y-45806D01*
X-5021D01*
G01X-5179Y-33994D02*
X-4194D01*
Y-34939D01*
G01X-16006Y-35254D02*
X-14746Y-33994D01*
G54D11*
G01X-89600Y-80100D02*
Y-97300D01*
X-97200D01*
Y-80100D01*
X-89600D01*
G01X-76800Y-67300D02*
X-88200D01*
Y-62700D01*
X-76800D01*
Y-67300D01*
G01X-79700Y-71300D02*
X-85300D01*
Y-67700D01*
X-79700D01*
Y-71300D01*
G01X-91600Y-57450D02*
X-78400D01*
G01X-90650Y-30200D02*
X-85050D01*
Y-33800D01*
X-90650D01*
Y-30200D01*
G01X-90900Y35000D02*
Y32000D01*
G01X-90200Y35000D02*
X-82800D01*
Y32000D01*
X-90200D01*
Y35000D01*
G01X-90900Y28000D02*
Y25000D01*
G01X-90200Y28000D02*
X-82800D01*
Y25000D01*
X-90200D01*
Y28000D01*
G01X-90900Y31500D02*
Y28500D01*
G01X-90200Y31500D02*
X-82800D01*
Y28500D01*
X-90200D01*
Y31500D01*
G01X-90900Y38500D02*
Y35500D01*
G01X-90200Y38500D02*
X-82800D01*
Y35500D01*
X-90200D01*
Y38500D01*
G01X-72807Y-70247D02*
X-68847Y-74207D01*
X-71393Y-76753D01*
X-75353Y-72793D01*
X-72807Y-70247D01*
G01X-48400Y-43800D02*
X-69000D01*
Y-62800D01*
X-67400Y-64400D01*
X-48400D01*
Y-43800D01*
G01X-69700Y-65800D02*
X-75300D01*
Y-62200D01*
X-69700D01*
Y-65800D01*
G01X-75300Y-58200D02*
X-69700D01*
Y-61800D01*
X-75300D01*
Y-58200D01*
G01X-64347Y-70193D02*
X-68307Y-74153D01*
X-70853Y-71607D01*
X-66893Y-67647D01*
X-64347Y-70193D01*
G01X-79350Y-61500D02*
X-84950D01*
Y-57900D01*
X-79350D01*
Y-61500D01*
G01X-81900Y-16800D02*
X-73700D01*
X-72500Y-15600D01*
X-73600D01*
X-72500Y-16700D01*
Y-15600D01*
G01X-60200Y-13800D02*
Y-6200D01*
X-70800D01*
Y-13800D01*
X-60200D01*
G01Y-3800D02*
Y3800D01*
X-70800D01*
Y-3800D01*
X-60200D01*
G01X-72500Y20500D02*
Y37600D01*
X-75500Y40600D01*
X-80500D01*
X-81400Y39700D01*
Y39900D01*
G01X-60200Y6200D02*
Y13800D01*
X-70800D01*
Y6200D01*
X-60200D01*
G01X-64400Y16800D02*
Y23100D01*
X-65000Y23700D01*
X-70800D01*
X-74300Y27200D01*
Y26800D01*
X-73900Y27200D01*
X-74300D01*
G01X-82300Y35900D02*
X-76700D01*
Y32300D01*
X-82300D01*
Y35900D01*
G01Y31800D02*
X-76700D01*
Y28200D01*
X-82300D01*
Y31800D01*
G01Y27700D02*
X-76700D01*
Y24100D01*
X-82300D01*
Y27700D01*
G01X-81400Y39900D02*
Y40000D01*
X-81100Y39700D01*
X-81200D01*
G01D02*
X-81400D01*
G01X-67900Y42700D02*
X-71900D01*
G01X-80750Y43700D02*
Y49300D01*
X-77150D01*
Y43700D01*
X-80750D01*
G01Y49700D02*
Y55300D01*
X-77150D01*
Y49700D01*
X-80750D01*
G01X-71300Y56800D02*
Y62400D01*
X-58700D01*
Y56800D01*
X-71300D01*
G01X-76800Y79200D02*
Y84800D01*
X-73200D01*
Y79200D01*
X-76800D01*
G01X-62393Y-71553D02*
X-66353Y-67593D01*
X-63807Y-65047D01*
X-59847Y-69007D01*
X-62393Y-71553D01*
G01X-61000Y-37300D02*
X-55400D01*
Y-40900D01*
X-61000D01*
Y-37300D01*
G01X-53200Y8900D02*
Y3300D01*
X-53300Y3200D01*
X-58700D01*
X-59400Y2500D01*
Y3200D01*
X-58700Y2500D01*
X-59400D01*
G01X-68500Y31600D02*
Y37200D01*
X-55900D01*
Y31600D01*
X-68500D01*
G01Y25500D02*
Y31100D01*
X-55900D01*
Y25500D01*
X-68500D01*
G01X-58700Y37700D02*
X-64300D01*
Y41300D01*
X-58700D01*
Y37700D01*
G01X-42000Y61300D02*
Y46700D01*
X-53200D01*
Y61300D01*
X-42000D01*
G01X-60100Y42700D02*
X-64100D01*
G01X-53400Y61800D02*
X-20400D01*
Y98100D01*
X-53400D01*
Y61800D01*
G01X-66700Y66200D02*
Y71800D01*
X-63100D01*
Y66200D01*
X-66700D01*
G01X-62700D02*
Y71800D01*
X-59100D01*
Y66200D01*
X-62700D01*
G01X-58100Y73700D02*
Y85300D01*
G01X-57700Y72900D02*
Y78500D01*
X-54100D01*
Y72900D01*
X-57700D01*
G01X-54100Y86100D02*
Y80500D01*
X-57700D01*
Y86100D01*
X-54100D01*
G01Y86800D02*
Y97000D01*
G01X-38300Y-71000D02*
X-26900D01*
Y-75600D01*
X-38300D01*
Y-71000D01*
G01X-51600Y-76400D02*
Y-70800D01*
X-48000D01*
Y-76400D01*
X-51600D01*
G01X-47600D02*
Y-70800D01*
X-44000D01*
Y-76400D01*
X-47600D01*
G01X-38800Y-70800D02*
Y-76400D01*
X-42400D01*
Y-70800D01*
X-38800D01*
G01X-44800Y-42300D02*
Y-66700D01*
G01X-44900Y-1300D02*
Y-12700D01*
X-49500D01*
Y-1300D01*
X-44900D01*
G01X-40800Y-4500D02*
Y-10100D01*
X-44400D01*
Y-4500D01*
X-40800D01*
G01X-44900Y28300D02*
Y16900D01*
X-49500D01*
Y28300D01*
X-44900D01*
G01X-40800Y25000D02*
Y19400D01*
X-44400D01*
Y25000D01*
X-40800D01*
G01X-36100Y39300D02*
X-31300Y44100D01*
G01X3800Y-60200D02*
X-3800D01*
Y-70800D01*
X3800D01*
Y-60200D01*
G01X-6200D02*
X-13800D01*
Y-70800D01*
X-6200D01*
Y-60200D01*
G01X-14700Y-47800D02*
X-9100D01*
Y-51400D01*
X-14700D01*
Y-47800D01*
G01X-5100D02*
Y-53400D01*
X-8700D01*
Y-47800D01*
X-5100D01*
G01X-3400Y-21800D02*
X2200D01*
Y-25400D01*
X-3400D01*
Y-21800D01*
G01X-9100Y52400D02*
X-3500D01*
Y48800D01*
X-9100D01*
Y52400D01*
G01X-3800Y60200D02*
X3800D01*
Y70800D01*
X-3800D01*
Y60200D01*
G01X-13800D02*
X-6200D01*
Y70800D01*
X-13800D01*
Y60200D01*
G01X13800Y-60200D02*
X6200D01*
Y-70800D01*
X13800D01*
Y-60200D01*
G01X-2100Y-45200D02*
Y-39600D01*
X1500D01*
Y-45200D01*
X-2100D01*
G01X12200Y-40000D02*
X6600D01*
Y-36400D01*
X12200D01*
Y-40000D01*
G01X12600Y-36400D02*
X18200D01*
Y-40000D01*
X12600D01*
Y-36400D01*
G01X12300Y-21800D02*
X17900D01*
Y-25400D01*
X12300D01*
Y-21800D01*
G01X6200Y60200D02*
X13800D01*
Y70800D01*
X6200D01*
Y60200D01*
G01X28100Y-26400D02*
Y-21800D01*
G01X25100Y-12300D02*
Y-17100D01*
X20300D01*
G01X33400Y11400D02*
Y5800D01*
X29800D01*
Y11400D01*
X33400D01*
G01Y38800D02*
Y33200D01*
X29800D01*
Y38800D01*
X33400D01*
G01X15800Y77700D02*
Y72700D01*
X15100Y72000D01*
Y72400D01*
X15500Y72000D01*
X15100D01*
G01X38500Y14500D02*
Y3100D01*
X33900D01*
Y14500D01*
X38500D01*
G01X43500Y-3100D02*
Y2500D01*
X47100D01*
Y-3100D01*
X43500D01*
G01X46100Y40200D02*
X51700D01*
Y36600D01*
X46100D01*
Y40200D01*
G01X37800Y28300D02*
X43400D01*
Y24700D01*
X37800D01*
Y28300D01*
G01X44000Y24900D02*
Y36100D01*
G01X36950Y67350D02*
Y54150D01*
G01X45500Y71700D02*
X51100D01*
Y68100D01*
X45500D01*
Y71700D01*
G01X33200Y69700D02*
Y75300D01*
X36800D01*
Y69700D01*
X33200D01*
G01X32800Y55100D02*
Y60700D01*
X36400D01*
Y55100D01*
X32800D01*
G01X31200Y83000D02*
Y94400D01*
X35800D01*
Y83000D01*
X31200D01*
G01X43200Y95100D02*
X48800D01*
Y91500D01*
X43200D01*
Y95100D01*
G01X42800Y91500D02*
X37200D01*
Y95100D01*
X42800D01*
Y91500D01*
G01X61800Y-67500D02*
Y-86800D01*
X82400D01*
Y-66200D01*
X63100D01*
X61800Y-67500D01*
G01X60200Y-6200D02*
Y-13800D01*
X70800D01*
Y-6200D01*
X60200D01*
G01Y3800D02*
Y-3800D01*
X70800D01*
Y3800D01*
X60200D01*
G01X56800Y52500D02*
Y16500D01*
X96800D01*
Y52500D01*
X56800D01*
G01X60200Y13800D02*
Y6200D01*
X70800D01*
Y13800D01*
X60200D01*
G01X52700Y44800D02*
Y50400D01*
X56300D01*
Y44800D01*
X52700D01*
G01X63800Y66400D02*
Y60800D01*
X60200D01*
Y66400D01*
X63800D01*
G01X62200Y73000D02*
X67800D01*
Y69400D01*
X62200D01*
Y73000D01*
G01X61800Y79300D02*
Y73700D01*
X58200D01*
Y79300D01*
X61800D01*
G01X54100Y76600D02*
Y82200D01*
X57700D01*
Y76600D01*
X54100D01*
G01X58200Y83400D02*
X63800D01*
Y79800D01*
X58200D01*
Y83400D01*
G01X62200Y77000D02*
X67800D01*
Y73400D01*
X62200D01*
Y77000D01*
G01X53500Y94600D02*
Y89000D01*
X49900D01*
Y94600D01*
X53500D01*
G01X74900Y-62000D02*
X69300D01*
Y-58400D01*
X74900D01*
Y-62000D01*
G01X95700Y-45300D02*
X69300D01*
G01X64700Y-46800D02*
Y-41200D01*
X68300D01*
Y-46800D01*
X64700D01*
G01X79000Y-54200D02*
Y-59800D01*
X75400D01*
Y-54200D01*
X79000D01*
G01X68800Y-54400D02*
Y-60000D01*
X65200D01*
Y-54400D01*
X68800D01*
G01X74900Y-58000D02*
X69300D01*
Y-54400D01*
X74900D01*
Y-58000D01*
G01X68300Y-33200D02*
Y-38800D01*
X64700D01*
Y-33200D01*
X68300D01*
G01X64700Y-31800D02*
Y-26200D01*
X68300D01*
Y-31800D01*
X64700D01*
G01X68300Y-18200D02*
Y-23800D01*
X64700D01*
Y-18200D01*
X68300D01*
G01X75900Y72300D02*
Y72400D01*
X70400Y77900D01*
X72200D01*
X70500Y76200D01*
X70400Y76300D01*
Y77900D01*
G01X70200Y80300D02*
Y85900D01*
X73800D01*
Y80300D01*
X70200D01*
G01X64200Y83400D02*
X69800D01*
Y79800D01*
X64200D01*
Y83400D01*
G01X80100Y97200D02*
X97300D01*
Y89600D01*
X80100D01*
Y97200D01*
G54D12*
G01X-87600Y-81092D02*
X-84500Y-82050D01*
X-87600Y-83008D01*
G01X-86515Y-82663D02*
Y-81437D01*
G01X-87600Y-85917D02*
Y-84383D01*
X-84500D01*
Y-85917D01*
G01X-85998Y-85303D02*
Y-84383D01*
G01X-85017Y-87522D02*
X-84707Y-87752D01*
X-84552Y-88020D01*
X-84500Y-88327D01*
X-84603Y-88710D01*
X-84862Y-88978D01*
X-85172Y-89055D01*
X-85482Y-89017D01*
X-85740Y-88863D01*
X-86257Y-88097D01*
X-86618Y-87752D01*
X-87135Y-87522D01*
X-87600Y-87445D01*
Y-89055D01*
G01X-94800Y-65881D02*
X-95072Y-65934D01*
X-95335Y-66051D01*
X-95552Y-66268D01*
X-95686Y-66621D01*
X-95693Y-66994D01*
X-95609Y-67348D01*
X-95353Y-67822D01*
X-95051Y-68178D01*
X-94668Y-68453D01*
X-94367Y-68591D01*
X-93985Y-68647D01*
X-93650Y-68603D01*
X-93387Y-68487D01*
X-93197Y-68297D01*
X-93080Y-68034D01*
X-93027Y-67762D01*
X-93038Y-67480D01*
G01X-92230Y-66453D02*
X-91811Y-66546D01*
X-91448Y-66475D01*
X-91168Y-66268D01*
X-90987Y-66014D01*
X-90953Y-65615D01*
X-91037Y-65260D01*
X-91229Y-65014D01*
X-91539Y-64812D01*
X-91911Y-64819D01*
X-92174Y-64936D01*
X-92418Y-65180D01*
G01X-92174Y-64936D02*
X-92121Y-64664D01*
X-92168Y-64346D01*
X-92333Y-64072D01*
X-92607Y-63907D01*
X-92925Y-63860D01*
X-93278Y-63994D01*
X-93486Y-64275D01*
X-93584Y-64665D01*
G01X-90038Y-64261D02*
X-89619Y-64354D01*
X-89256Y-64283D01*
X-88976Y-64076D01*
X-88795Y-63822D01*
X-88761Y-63423D01*
X-88845Y-63068D01*
X-89037Y-62822D01*
X-89347Y-62620D01*
X-89719Y-62627D01*
X-89982Y-62744D01*
X-90226Y-62988D01*
G01X-89982Y-62744D02*
X-89929Y-62472D01*
X-89976Y-62154D01*
X-90141Y-61880D01*
X-90415Y-61715D01*
X-90733Y-61668D01*
X-91086Y-61802D01*
X-91294Y-62083D01*
X-91392Y-62473D01*
G01X-92807Y-58758D02*
X-93037Y-58603D01*
X-93305Y-58500D01*
X-93612D01*
X-93957Y-58655D01*
X-94225Y-58913D01*
X-94417Y-59223D01*
X-94570Y-59740D01*
X-94608Y-60205D01*
X-94532Y-60670D01*
X-94417Y-60980D01*
X-94187Y-61290D01*
X-93918Y-61497D01*
X-93650Y-61600D01*
X-93382D01*
X-93113Y-61497D01*
X-92883Y-61342D01*
X-92692Y-61135D01*
G01X-91393Y-60980D02*
X-91163Y-61342D01*
X-90857Y-61548D01*
X-90512Y-61600D01*
X-90205Y-61548D01*
X-89898Y-61290D01*
X-89707Y-60980D01*
X-89668Y-60670D01*
X-89745Y-60308D01*
X-90013Y-60050D01*
X-90282Y-59947D01*
X-90627D01*
G01X-90282D02*
X-90052Y-59792D01*
X-89860Y-59533D01*
X-89783Y-59223D01*
X-89860Y-58913D01*
X-90052Y-58655D01*
X-90397Y-58500D01*
X-90742Y-58552D01*
X-91087Y-58758D01*
G01X-87450Y-61600D02*
X-87182Y-61548D01*
X-86875Y-61393D01*
X-86683Y-61135D01*
X-86607Y-60773D01*
X-86683Y-60412D01*
X-86913Y-60102D01*
X-87258Y-59947D01*
X-87642D01*
X-87872Y-59843D01*
X-88063Y-59585D01*
X-88140Y-59223D01*
X-88025Y-58862D01*
X-87757Y-58603D01*
X-87450Y-58500D01*
X-87143Y-58603D01*
X-86875Y-58862D01*
X-86760Y-59223D01*
X-86837Y-59585D01*
X-87028Y-59843D01*
X-87258Y-59947D01*
X-87642D01*
X-87987Y-60102D01*
X-88217Y-60412D01*
X-88293Y-60773D01*
X-88217Y-61135D01*
X-88025Y-61393D01*
X-87718Y-61548D01*
X-87450Y-61600D01*
G01X-92607Y-68758D02*
X-92837Y-68603D01*
X-93105Y-68500D01*
X-93412D01*
X-93757Y-68655D01*
X-94025Y-68913D01*
X-94217Y-69223D01*
X-94370Y-69740D01*
X-94408Y-70205D01*
X-94332Y-70670D01*
X-94217Y-70980D01*
X-93987Y-71290D01*
X-93718Y-71497D01*
X-93450Y-71600D01*
X-93182D01*
X-92913Y-71497D01*
X-92683Y-71342D01*
X-92492Y-71135D01*
G01X-91193Y-70980D02*
X-90963Y-71342D01*
X-90657Y-71548D01*
X-90312Y-71600D01*
X-90005Y-71548D01*
X-89698Y-71290D01*
X-89507Y-70980D01*
X-89468Y-70670D01*
X-89545Y-70308D01*
X-89813Y-70050D01*
X-90082Y-69947D01*
X-90427D01*
G01X-90082D02*
X-89852Y-69792D01*
X-89660Y-69533D01*
X-89583Y-69223D01*
X-89660Y-68913D01*
X-89852Y-68655D01*
X-90197Y-68500D01*
X-90542Y-68552D01*
X-90887Y-68758D01*
G01X-88093Y-71135D02*
X-87863Y-71393D01*
X-87595Y-71548D01*
X-87250Y-71600D01*
X-86905Y-71497D01*
X-86637Y-71290D01*
X-86445Y-70928D01*
X-86407Y-70515D01*
X-86483Y-70102D01*
X-86675Y-69843D01*
X-86943Y-69637D01*
X-87212Y-69585D01*
X-87480Y-69637D01*
X-87825Y-69843D01*
X-87710Y-68500D01*
X-86675D01*
G01X-98830Y-22700D02*
X-96170Y-17700D01*
G01X-98830D02*
X-96170Y-22700D01*
G01X-93223Y-21033D02*
X-91577D01*
G01X-90293Y-18500D02*
Y-15400D01*
X-89527D01*
X-89220Y-15555D01*
X-88990Y-15762D01*
X-88798Y-16072D01*
X-88645Y-16433D01*
X-88607Y-16950D01*
X-88645Y-17467D01*
X-88798Y-17828D01*
X-88990Y-18138D01*
X-89220Y-18345D01*
X-89527Y-18500D01*
X-90293D01*
G01X-87155Y-18087D02*
X-86848Y-18345D01*
X-86503Y-18500D01*
X-86197D01*
X-85890Y-18345D01*
X-85660Y-18087D01*
X-85545Y-17725D01*
X-85622Y-17363D01*
X-85813Y-17053D01*
X-86158Y-16847D01*
X-86618Y-16743D01*
X-86887Y-16537D01*
X-87002Y-16175D01*
X-86925Y-15813D01*
X-86733Y-15555D01*
X-86465Y-15400D01*
X-86197D01*
X-85928Y-15503D01*
X-85698Y-15762D01*
G01X-83327Y-18500D02*
X-83250Y-17828D01*
X-83135Y-17260D01*
X-82982Y-16743D01*
X-82790Y-16175D01*
X-82483Y-15400D01*
X-84017D01*
G01X-90293Y-22100D02*
Y-19000D01*
X-89527D01*
X-89220Y-19155D01*
X-88990Y-19362D01*
X-88798Y-19672D01*
X-88645Y-20033D01*
X-88607Y-20550D01*
X-88645Y-21067D01*
X-88798Y-21428D01*
X-88990Y-21738D01*
X-89220Y-21945D01*
X-89527Y-22100D01*
X-90293D01*
G01X-87155Y-21687D02*
X-86848Y-21945D01*
X-86503Y-22100D01*
X-86197D01*
X-85890Y-21945D01*
X-85660Y-21687D01*
X-85545Y-21325D01*
X-85622Y-20963D01*
X-85813Y-20653D01*
X-86158Y-20447D01*
X-86618Y-20343D01*
X-86887Y-20137D01*
X-87002Y-19775D01*
X-86925Y-19413D01*
X-86733Y-19155D01*
X-86465Y-19000D01*
X-86197D01*
X-85928Y-19103D01*
X-85698Y-19362D01*
G01X-83250Y-22100D02*
X-82982Y-22048D01*
X-82675Y-21893D01*
X-82483Y-21635D01*
X-82407Y-21273D01*
X-82483Y-20912D01*
X-82713Y-20602D01*
X-83058Y-20447D01*
X-83442D01*
X-83672Y-20343D01*
X-83863Y-20085D01*
X-83940Y-19723D01*
X-83825Y-19362D01*
X-83557Y-19103D01*
X-83250Y-19000D01*
X-82943Y-19103D01*
X-82675Y-19362D01*
X-82560Y-19723D01*
X-82637Y-20085D01*
X-82828Y-20343D01*
X-83058Y-20447D01*
X-83442D01*
X-83787Y-20602D01*
X-84017Y-20912D01*
X-84093Y-21273D01*
X-84017Y-21635D01*
X-83825Y-21893D01*
X-83518Y-22048D01*
X-83250Y-22100D01*
G01X-90293Y-25600D02*
Y-22500D01*
X-89527D01*
X-89220Y-22655D01*
X-88990Y-22862D01*
X-88798Y-23172D01*
X-88645Y-23533D01*
X-88607Y-24050D01*
X-88645Y-24567D01*
X-88798Y-24928D01*
X-88990Y-25238D01*
X-89220Y-25445D01*
X-89527Y-25600D01*
X-90293D01*
G01X-87155Y-25187D02*
X-86848Y-25445D01*
X-86503Y-25600D01*
X-86197D01*
X-85890Y-25445D01*
X-85660Y-25187D01*
X-85545Y-24825D01*
X-85622Y-24463D01*
X-85813Y-24153D01*
X-86158Y-23947D01*
X-86618Y-23843D01*
X-86887Y-23637D01*
X-87002Y-23275D01*
X-86925Y-22913D01*
X-86733Y-22655D01*
X-86465Y-22500D01*
X-86197D01*
X-85928Y-22603D01*
X-85698Y-22862D01*
G01X-83902Y-25238D02*
X-83633Y-25497D01*
X-83327Y-25600D01*
X-83020Y-25497D01*
X-82752Y-25187D01*
X-82560Y-24722D01*
X-82483Y-24257D01*
Y-23688D01*
X-82560Y-23223D01*
X-82752Y-22810D01*
X-82982Y-22603D01*
X-83250Y-22500D01*
X-83557Y-22603D01*
X-83787Y-22810D01*
X-83940Y-23120D01*
X-84017Y-23533D01*
X-83940Y-23895D01*
X-83748Y-24257D01*
X-83518Y-24463D01*
X-83250Y-24515D01*
X-82943Y-24412D01*
X-82713Y-24153D01*
X-82483Y-23688D01*
G01X-92793Y13700D02*
Y16800D01*
X-92027D01*
X-91720Y16645D01*
X-91490Y16438D01*
X-91298Y16128D01*
X-91145Y15767D01*
X-91107Y15250D01*
X-91145Y14733D01*
X-91298Y14372D01*
X-91490Y14062D01*
X-91720Y13855D01*
X-92027Y13700D01*
X-92793D01*
G01X-89655Y14113D02*
X-89348Y13855D01*
X-89003Y13700D01*
X-88697D01*
X-88390Y13855D01*
X-88160Y14113D01*
X-88045Y14475D01*
X-88122Y14837D01*
X-88313Y15147D01*
X-88658Y15353D01*
X-89118Y15457D01*
X-89387Y15663D01*
X-89502Y16025D01*
X-89425Y16387D01*
X-89233Y16645D01*
X-88965Y16800D01*
X-88697D01*
X-88428Y16697D01*
X-88198Y16438D01*
G01X-86593Y14320D02*
X-86363Y13958D01*
X-86057Y13752D01*
X-85712Y13700D01*
X-85405Y13752D01*
X-85098Y14010D01*
X-84907Y14320D01*
X-84868Y14630D01*
X-84945Y14992D01*
X-85213Y15250D01*
X-85482Y15353D01*
X-85827D01*
G01X-85482D02*
X-85252Y15508D01*
X-85060Y15767D01*
X-84983Y16077D01*
X-85060Y16387D01*
X-85252Y16645D01*
X-85597Y16800D01*
X-85942Y16748D01*
X-86287Y16542D01*
G01X-92793Y17200D02*
Y20300D01*
X-92027D01*
X-91720Y20145D01*
X-91490Y19938D01*
X-91298Y19628D01*
X-91145Y19267D01*
X-91107Y18750D01*
X-91145Y18233D01*
X-91298Y17872D01*
X-91490Y17562D01*
X-91720Y17355D01*
X-92027Y17200D01*
X-92793D01*
G01X-89655Y17613D02*
X-89348Y17355D01*
X-89003Y17200D01*
X-88697D01*
X-88390Y17355D01*
X-88160Y17613D01*
X-88045Y17975D01*
X-88122Y18337D01*
X-88313Y18647D01*
X-88658Y18853D01*
X-89118Y18957D01*
X-89387Y19163D01*
X-89502Y19525D01*
X-89425Y19887D01*
X-89233Y20145D01*
X-88965Y20300D01*
X-88697D01*
X-88428Y20197D01*
X-88198Y19938D01*
G01X-86478Y19783D02*
X-86248Y20093D01*
X-85980Y20248D01*
X-85673Y20300D01*
X-85290Y20197D01*
X-85022Y19938D01*
X-84945Y19628D01*
X-84983Y19318D01*
X-85137Y19060D01*
X-85903Y18543D01*
X-86248Y18182D01*
X-86478Y17665D01*
X-86555Y17200D01*
X-84945D01*
G01X-98007Y38342D02*
X-98237Y38497D01*
X-98505Y38600D01*
X-98812D01*
X-99157Y38445D01*
X-99425Y38187D01*
X-99617Y37877D01*
X-99770Y37360D01*
X-99808Y36895D01*
X-99732Y36430D01*
X-99617Y36120D01*
X-99387Y35810D01*
X-99118Y35603D01*
X-98850Y35500D01*
X-98582D01*
X-98313Y35603D01*
X-98083Y35758D01*
X-97892Y35965D01*
G01X-96555Y35500D02*
Y38600D01*
G01X-94945D02*
Y35500D01*
G01Y37050D02*
X-96555D01*
G01X-92420D02*
X-91653D01*
Y36120D01*
X-91883Y35810D01*
X-92152Y35603D01*
X-92535Y35500D01*
X-92918Y35603D01*
X-93187Y35810D01*
X-93417Y36120D01*
X-93570Y36482D01*
X-93647Y36895D01*
Y37257D01*
X-93570Y37567D01*
X-93417Y37928D01*
X-93187Y38238D01*
X-92957Y38445D01*
X-92650Y38600D01*
X-92382D01*
X-92075Y38497D01*
X-91845Y38290D01*
G01X-99617Y32000D02*
Y35100D01*
X-98697D01*
X-98390Y34945D01*
X-98160Y34583D01*
X-98083Y34170D01*
X-98160Y33757D01*
X-98352Y33447D01*
X-98697Y33292D01*
X-99617D01*
G01X-96900Y35100D02*
X-96363Y32000D01*
X-95750Y35100D01*
X-95137Y32000D01*
X-94600Y35100D01*
G01X-93417Y32000D02*
Y35100D01*
X-92458D01*
X-92152Y34945D01*
X-91960Y34738D01*
X-91883Y34325D01*
X-91960Y33912D01*
X-92190Y33653D01*
X-92458Y33498D01*
X-93417D01*
G01X-92458D02*
X-91883Y32000D01*
G01X-99617Y31700D02*
Y28600D01*
X-98083D01*
G01X-95750Y31700D02*
Y28600D01*
G01X-96632Y31700D02*
X-94868D01*
G01X-92650Y28600D02*
Y31700D01*
X-93110Y31080D01*
G01Y28600D02*
X-92190D01*
G01X-99617Y28400D02*
Y25300D01*
X-98083D01*
G01X-95750Y28400D02*
Y25300D01*
G01X-96632Y28400D02*
X-94868D01*
G01X-93378Y27883D02*
X-93148Y28193D01*
X-92880Y28348D01*
X-92573Y28400D01*
X-92190Y28297D01*
X-91922Y28038D01*
X-91845Y27728D01*
X-91883Y27418D01*
X-92037Y27160D01*
X-92803Y26643D01*
X-93148Y26282D01*
X-93378Y25765D01*
X-93455Y25300D01*
X-91845D01*
G01X-91650Y78050D02*
Y81150D01*
X-92110Y80530D01*
G01Y78050D02*
X-91190D01*
G01X-67337Y-92279D02*
X-69529Y-94471D01*
X-68445Y-95555D01*
G01X-66849Y-97151D02*
X-66320Y-96730D01*
X-65837Y-96410D01*
X-65363Y-96153D01*
X-64826Y-95886D01*
X-64061Y-95555D01*
X-65145Y-94471D01*
G01X-72117Y-87600D02*
Y-84500D01*
X-71158D01*
X-70852Y-84655D01*
X-70660Y-84862D01*
X-70583Y-85275D01*
X-70660Y-85688D01*
X-70890Y-85947D01*
X-71158Y-86102D01*
X-72117D01*
G01X-71158D02*
X-70583Y-87600D01*
G01X-68978Y-85017D02*
X-68748Y-84707D01*
X-68480Y-84552D01*
X-68173Y-84500D01*
X-67790Y-84603D01*
X-67522Y-84862D01*
X-67445Y-85172D01*
X-67483Y-85482D01*
X-67637Y-85740D01*
X-68403Y-86257D01*
X-68748Y-86618D01*
X-68978Y-87135D01*
X-69055Y-87600D01*
X-67445D01*
G01X-65993Y-87135D02*
X-65763Y-87393D01*
X-65495Y-87548D01*
X-65150Y-87600D01*
X-64805Y-87497D01*
X-64537Y-87290D01*
X-64345Y-86928D01*
X-64307Y-86515D01*
X-64383Y-86102D01*
X-64575Y-85843D01*
X-64843Y-85637D01*
X-65112Y-85585D01*
X-65380Y-85637D01*
X-65725Y-85843D01*
X-65610Y-84500D01*
X-64575D01*
G01X-72117Y-83600D02*
Y-80500D01*
X-71158D01*
X-70852Y-80655D01*
X-70660Y-80862D01*
X-70583Y-81275D01*
X-70660Y-81688D01*
X-70890Y-81947D01*
X-71158Y-82102D01*
X-72117D01*
G01X-71158D02*
X-70583Y-83600D01*
G01X-68978Y-81017D02*
X-68748Y-80707D01*
X-68480Y-80552D01*
X-68173Y-80500D01*
X-67790Y-80603D01*
X-67522Y-80862D01*
X-67445Y-81172D01*
X-67483Y-81482D01*
X-67637Y-81740D01*
X-68403Y-82257D01*
X-68748Y-82618D01*
X-68978Y-83135D01*
X-69055Y-83600D01*
X-67445D01*
G01X-65227D02*
X-65150Y-82928D01*
X-65035Y-82360D01*
X-64882Y-81843D01*
X-64690Y-81275D01*
X-64383Y-80500D01*
X-65917D01*
G01X-74800Y-51550D02*
X-76195D01*
X-77900Y-52317D01*
G01Y-50783D02*
X-76195Y-51550D01*
G01X-74800Y-47990D02*
X-77900D01*
X-75678Y-49408D01*
Y-47492D01*
G01X-69000Y-42393D02*
X-66778D01*
X-66313Y-42240D01*
X-66003Y-41933D01*
X-65900Y-41550D01*
X-66003Y-41167D01*
X-66313Y-40860D01*
X-66778Y-40707D01*
X-69000D01*
G01X-65900Y-38527D02*
X-66572Y-38450D01*
X-67140Y-38335D01*
X-67657Y-38182D01*
X-68225Y-37990D01*
X-69000Y-37683D01*
Y-39217D01*
G01X-79307Y-30258D02*
X-79537Y-30103D01*
X-79805Y-30000D01*
X-80112D01*
X-80457Y-30155D01*
X-80725Y-30413D01*
X-80917Y-30723D01*
X-81070Y-31240D01*
X-81108Y-31705D01*
X-81032Y-32170D01*
X-80917Y-32480D01*
X-80687Y-32790D01*
X-80418Y-32997D01*
X-80150Y-33100D01*
X-79882D01*
X-79613Y-32997D01*
X-79383Y-32842D01*
X-79192Y-32635D01*
G01X-77893Y-32480D02*
X-77663Y-32842D01*
X-77357Y-33048D01*
X-77012Y-33100D01*
X-76705Y-33048D01*
X-76398Y-32790D01*
X-76207Y-32480D01*
X-76168Y-32170D01*
X-76245Y-31808D01*
X-76513Y-31550D01*
X-76782Y-31447D01*
X-77127D01*
G01X-76782D02*
X-76552Y-31292D01*
X-76360Y-31033D01*
X-76283Y-30723D01*
X-76360Y-30413D01*
X-76552Y-30155D01*
X-76897Y-30000D01*
X-77242Y-30052D01*
X-77587Y-30258D01*
G01X-74602Y-32738D02*
X-74333Y-32997D01*
X-74027Y-33100D01*
X-73720Y-32997D01*
X-73452Y-32687D01*
X-73260Y-32222D01*
X-73183Y-31757D01*
Y-31188D01*
X-73260Y-30723D01*
X-73452Y-30310D01*
X-73682Y-30103D01*
X-73950Y-30000D01*
X-74257Y-30103D01*
X-74487Y-30310D01*
X-74640Y-30620D01*
X-74717Y-31033D01*
X-74640Y-31395D01*
X-74448Y-31757D01*
X-74218Y-31963D01*
X-73950Y-32015D01*
X-73643Y-31912D01*
X-73413Y-31653D01*
X-73183Y-31188D01*
G01X-70817Y-21600D02*
Y-18500D01*
X-69858D01*
X-69552Y-18655D01*
X-69360Y-18862D01*
X-69283Y-19275D01*
X-69360Y-19688D01*
X-69590Y-19947D01*
X-69858Y-20102D01*
X-70817D01*
G01X-69858D02*
X-69283Y-21600D01*
G01X-80893Y16400D02*
Y19500D01*
X-80127D01*
X-79820Y19345D01*
X-79590Y19138D01*
X-79398Y18828D01*
X-79245Y18467D01*
X-79207Y17950D01*
X-79245Y17433D01*
X-79398Y17072D01*
X-79590Y16762D01*
X-79820Y16555D01*
X-80127Y16400D01*
X-80893D01*
G01X-77755Y16813D02*
X-77448Y16555D01*
X-77103Y16400D01*
X-76797D01*
X-76490Y16555D01*
X-76260Y16813D01*
X-76145Y17175D01*
X-76222Y17537D01*
X-76413Y17847D01*
X-76758Y18053D01*
X-77218Y18157D01*
X-77487Y18363D01*
X-77602Y18725D01*
X-77525Y19087D01*
X-77333Y19345D01*
X-77065Y19500D01*
X-76797D01*
X-76528Y19397D01*
X-76298Y19138D01*
G01X-73850Y16400D02*
Y19500D01*
X-74310Y18880D01*
G01Y16400D02*
X-73390D01*
G01X-71478Y17692D02*
X-71210Y18053D01*
X-70980Y18260D01*
X-70673Y18363D01*
X-70405Y18260D01*
X-70213Y18053D01*
X-70060Y17743D01*
X-70022Y17382D01*
X-70060Y17072D01*
X-70213Y16762D01*
X-70443Y16503D01*
X-70712Y16400D01*
X-71018Y16503D01*
X-71287Y16813D01*
X-71440Y17278D01*
X-71478Y17795D01*
X-71402Y18467D01*
X-71287Y18828D01*
X-71095Y19190D01*
X-70827Y19448D01*
X-70558Y19500D01*
X-70290Y19397D01*
X-70098Y19138D01*
G01X-80893Y19900D02*
Y23000D01*
X-80127D01*
X-79820Y22845D01*
X-79590Y22638D01*
X-79398Y22328D01*
X-79245Y21967D01*
X-79207Y21450D01*
X-79245Y20933D01*
X-79398Y20572D01*
X-79590Y20262D01*
X-79820Y20055D01*
X-80127Y19900D01*
X-80893D01*
G01X-77755Y20313D02*
X-77448Y20055D01*
X-77103Y19900D01*
X-76797D01*
X-76490Y20055D01*
X-76260Y20313D01*
X-76145Y20675D01*
X-76222Y21037D01*
X-76413Y21347D01*
X-76758Y21553D01*
X-77218Y21657D01*
X-77487Y21863D01*
X-77602Y22225D01*
X-77525Y22587D01*
X-77333Y22845D01*
X-77065Y23000D01*
X-76797D01*
X-76528Y22897D01*
X-76298Y22638D01*
G01X-73850Y19900D02*
Y23000D01*
X-74310Y22380D01*
G01Y19900D02*
X-73390D01*
G01X-69200Y11933D02*
X-69450Y11800D01*
X-69617Y11640D01*
X-69700Y11453D01*
X-69617Y11240D01*
X-69450Y11080D01*
X-69200Y10920D01*
X-68867Y10867D01*
X-67200D01*
G01X-69325Y9787D02*
X-69533Y9627D01*
X-69658Y9440D01*
X-69700Y9200D01*
X-69617Y8960D01*
X-69450Y8773D01*
X-69158Y8640D01*
X-68825Y8613D01*
X-68492Y8667D01*
X-68283Y8800D01*
X-68117Y8987D01*
X-68075Y9173D01*
X-68117Y9360D01*
X-68283Y9600D01*
X-67200Y9520D01*
Y8800D01*
G01X-73700Y42083D02*
X-76800D01*
Y43042D01*
X-76645Y43348D01*
X-76438Y43540D01*
X-76025Y43617D01*
X-75612Y43540D01*
X-75353Y43310D01*
X-75198Y43042D01*
Y42083D01*
G01Y43042D02*
X-73700Y43617D01*
G01X-76283Y45222D02*
X-76593Y45452D01*
X-76748Y45720D01*
X-76800Y46027D01*
X-76697Y46410D01*
X-76438Y46678D01*
X-76128Y46755D01*
X-75818Y46717D01*
X-75560Y46563D01*
X-75043Y45797D01*
X-74682Y45452D01*
X-74165Y45222D01*
X-73700Y45145D01*
Y46755D01*
G01X-76283Y48322D02*
X-76593Y48552D01*
X-76748Y48820D01*
X-76800Y49127D01*
X-76697Y49510D01*
X-76438Y49778D01*
X-76128Y49855D01*
X-75818Y49817D01*
X-75560Y49663D01*
X-75043Y48897D01*
X-74682Y48552D01*
X-74165Y48322D01*
X-73700Y48245D01*
Y49855D01*
G01Y50083D02*
X-76800D01*
Y51042D01*
X-76645Y51348D01*
X-76438Y51540D01*
X-76025Y51617D01*
X-75612Y51540D01*
X-75353Y51310D01*
X-75198Y51042D01*
Y50083D01*
G01Y51042D02*
X-73700Y51617D01*
G01X-76283Y53222D02*
X-76593Y53452D01*
X-76748Y53720D01*
X-76800Y54027D01*
X-76697Y54410D01*
X-76438Y54678D01*
X-76128Y54755D01*
X-75818Y54717D01*
X-75560Y54563D01*
X-75043Y53797D01*
X-74682Y53452D01*
X-74165Y53222D01*
X-73700Y53145D01*
Y54755D01*
G01X-76800Y57050D02*
X-76697Y56743D01*
X-76438Y56513D01*
X-76128Y56360D01*
X-75715Y56245D01*
X-75250Y56207D01*
X-74785Y56245D01*
X-74372Y56360D01*
X-74062Y56513D01*
X-73803Y56743D01*
X-73700Y57050D01*
X-73803Y57357D01*
X-74062Y57587D01*
X-74372Y57740D01*
X-74785Y57855D01*
X-75250Y57893D01*
X-75715Y57855D01*
X-76128Y57740D01*
X-76438Y57587D01*
X-76697Y57357D01*
X-76800Y57050D01*
G01X-81617Y71920D02*
X-81425Y71610D01*
X-81195Y71403D01*
X-80927Y71300D01*
X-80620Y71403D01*
X-80390Y71610D01*
X-80160Y71920D01*
X-80083Y72333D01*
Y74400D01*
G01X-77750Y71300D02*
Y74400D01*
X-78210Y73780D01*
G01Y71300D02*
X-77290D01*
G01X-78207Y61742D02*
X-78437Y61897D01*
X-78705Y62000D01*
X-79012D01*
X-79357Y61845D01*
X-79625Y61587D01*
X-79817Y61277D01*
X-79970Y60760D01*
X-80008Y60295D01*
X-79932Y59830D01*
X-79817Y59520D01*
X-79587Y59210D01*
X-79318Y59003D01*
X-79050Y58900D01*
X-78782D01*
X-78513Y59003D01*
X-78283Y59158D01*
X-78092Y59365D01*
G01X-76793Y59520D02*
X-76563Y59158D01*
X-76257Y58952D01*
X-75912Y58900D01*
X-75605Y58952D01*
X-75298Y59210D01*
X-75107Y59520D01*
X-75068Y59830D01*
X-75145Y60192D01*
X-75413Y60450D01*
X-75682Y60553D01*
X-76027D01*
G01X-75682D02*
X-75452Y60708D01*
X-75260Y60967D01*
X-75183Y61277D01*
X-75260Y61587D01*
X-75452Y61845D01*
X-75797Y62000D01*
X-76142Y61948D01*
X-76487Y61742D01*
G01X-72850Y62000D02*
X-73157Y61897D01*
X-73387Y61638D01*
X-73540Y61328D01*
X-73655Y60915D01*
X-73693Y60450D01*
X-73655Y59985D01*
X-73540Y59572D01*
X-73387Y59262D01*
X-73157Y59003D01*
X-72850Y58900D01*
X-72543Y59003D01*
X-72313Y59262D01*
X-72160Y59572D01*
X-72045Y59985D01*
X-72007Y60450D01*
X-72045Y60915D01*
X-72160Y61328D01*
X-72313Y61638D01*
X-72543Y61897D01*
X-72850Y62000D01*
G01X-76913Y63345D02*
X-76655Y63652D01*
X-76500Y63997D01*
Y64303D01*
X-76655Y64610D01*
X-76913Y64840D01*
X-77275Y64955D01*
X-77637Y64878D01*
X-77947Y64687D01*
X-78153Y64342D01*
X-78257Y63882D01*
X-78463Y63613D01*
X-78825Y63498D01*
X-79187Y63575D01*
X-79445Y63767D01*
X-79600Y64035D01*
Y64303D01*
X-79497Y64572D01*
X-79238Y64802D01*
G01X-79600Y66100D02*
X-76500Y66637D01*
X-79600Y67250D01*
X-76500Y67863D01*
X-79600Y68400D01*
G01X-76500Y70350D02*
X-79600D01*
X-78980Y69890D01*
G01X-76500D02*
Y70810D01*
G01X-73100Y64183D02*
X-76200D01*
Y65142D01*
X-76045Y65448D01*
X-75838Y65640D01*
X-75425Y65717D01*
X-75012Y65640D01*
X-74753Y65410D01*
X-74598Y65142D01*
Y64183D01*
G01Y65142D02*
X-73100Y65717D01*
G01X-74392Y67322D02*
X-74753Y67590D01*
X-74960Y67820D01*
X-75063Y68127D01*
X-74960Y68395D01*
X-74753Y68587D01*
X-74443Y68740D01*
X-74082Y68778D01*
X-73772Y68740D01*
X-73462Y68587D01*
X-73203Y68357D01*
X-73100Y68088D01*
X-73203Y67782D01*
X-73513Y67513D01*
X-73978Y67360D01*
X-74495Y67322D01*
X-75167Y67398D01*
X-75528Y67513D01*
X-75890Y67705D01*
X-76148Y67973D01*
X-76200Y68242D01*
X-76097Y68510D01*
X-75838Y68702D01*
G01X-69500Y64183D02*
X-72600D01*
Y65142D01*
X-72445Y65448D01*
X-72238Y65640D01*
X-71825Y65717D01*
X-71412Y65640D01*
X-71153Y65410D01*
X-70998Y65142D01*
Y64183D01*
G01Y65142D02*
X-69500Y65717D01*
G01X-69965Y67207D02*
X-69707Y67437D01*
X-69552Y67705D01*
X-69500Y68050D01*
X-69603Y68395D01*
X-69810Y68663D01*
X-70172Y68855D01*
X-70585Y68893D01*
X-70998Y68817D01*
X-71257Y68625D01*
X-71463Y68357D01*
X-71515Y68088D01*
X-71463Y67820D01*
X-71257Y67475D01*
X-72600Y67590D01*
Y68625D01*
G01X-75493Y72700D02*
Y70478D01*
X-75340Y70013D01*
X-75033Y69703D01*
X-74650Y69600D01*
X-74267Y69703D01*
X-73960Y70013D01*
X-73807Y70478D01*
Y72700D01*
G01X-71550Y69600D02*
Y72700D01*
X-72010Y72080D01*
G01Y69600D02*
X-71090D01*
G01X-73500Y74283D02*
X-76600D01*
Y75242D01*
X-76445Y75548D01*
X-76238Y75740D01*
X-75825Y75817D01*
X-75412Y75740D01*
X-75153Y75510D01*
X-74998Y75242D01*
Y74283D01*
G01Y75242D02*
X-73500Y75817D01*
G01Y78150D02*
X-76600D01*
X-75980Y77690D01*
G01X-73500D02*
Y78610D01*
G01X-65500Y-90181D02*
X-65772Y-90234D01*
X-66035Y-90351D01*
X-66252Y-90568D01*
X-66386Y-90921D01*
X-66393Y-91294D01*
X-66309Y-91648D01*
X-66053Y-92122D01*
X-65751Y-92478D01*
X-65368Y-92753D01*
X-65067Y-92891D01*
X-64685Y-92947D01*
X-64350Y-92903D01*
X-64087Y-92787D01*
X-63897Y-92597D01*
X-63780Y-92334D01*
X-63727Y-92062D01*
X-63738Y-91780D01*
G01X-62930Y-90753D02*
X-62511Y-90846D01*
X-62148Y-90775D01*
X-61868Y-90568D01*
X-61687Y-90314D01*
X-61653Y-89915D01*
X-61737Y-89560D01*
X-61929Y-89314D01*
X-62239Y-89112D01*
X-62611Y-89119D01*
X-62874Y-89236D01*
X-63118Y-89480D01*
G01X-62874Y-89236D02*
X-62821Y-88964D01*
X-62868Y-88646D01*
X-63033Y-88372D01*
X-63307Y-88207D01*
X-63625Y-88160D01*
X-63978Y-88294D01*
X-64186Y-88575D01*
X-64284Y-88965D01*
G01X-59757Y-88457D02*
X-60178Y-87928D01*
X-60498Y-87445D01*
X-60755Y-86971D01*
X-61022Y-86434D01*
X-61353Y-85669D01*
X-62437Y-86753D01*
G01X-59837Y-81279D02*
X-62029Y-83471D01*
X-60945Y-84555D01*
G01X-58897Y-84777D02*
X-58451Y-84711D01*
X-58142Y-84727D01*
X-57852Y-84871D01*
X-57736Y-85134D01*
X-57746Y-85416D01*
X-57857Y-85743D01*
X-58086Y-86026D01*
X-58332Y-86218D01*
X-58660Y-86329D01*
X-59005Y-86349D01*
X-59268Y-86232D01*
X-59411Y-85942D01*
X-59382Y-85533D01*
X-59162Y-85096D01*
X-58823Y-84704D01*
X-58294Y-84283D01*
X-57957Y-84109D01*
X-57566Y-83988D01*
X-57194Y-83995D01*
X-56967Y-84149D01*
X-56851Y-84411D01*
X-56898Y-84730D01*
G01X-54317Y-40600D02*
Y-37500D01*
X-53358D01*
X-53052Y-37655D01*
X-52860Y-37862D01*
X-52783Y-38275D01*
X-52860Y-38688D01*
X-53090Y-38947D01*
X-53358Y-39102D01*
X-54317D01*
G01X-53358D02*
X-52783Y-40600D01*
G01X-51178Y-38017D02*
X-50948Y-37707D01*
X-50680Y-37552D01*
X-50373Y-37500D01*
X-49990Y-37603D01*
X-49722Y-37862D01*
X-49645Y-38172D01*
X-49683Y-38482D01*
X-49837Y-38740D01*
X-50603Y-39257D01*
X-50948Y-39618D01*
X-51178Y-40135D01*
X-51255Y-40600D01*
X-49645D01*
G01X-48078Y-39308D02*
X-47810Y-38947D01*
X-47580Y-38740D01*
X-47273Y-38637D01*
X-47005Y-38740D01*
X-46813Y-38947D01*
X-46660Y-39257D01*
X-46622Y-39618D01*
X-46660Y-39928D01*
X-46813Y-40238D01*
X-47043Y-40497D01*
X-47312Y-40600D01*
X-47618Y-40497D01*
X-47887Y-40187D01*
X-48040Y-39722D01*
X-48078Y-39205D01*
X-48002Y-38533D01*
X-47887Y-38172D01*
X-47695Y-37810D01*
X-47427Y-37552D01*
X-47158Y-37500D01*
X-46890Y-37603D01*
X-46698Y-37862D01*
G01X-65800Y-15700D02*
X-60800D01*
X-61800Y-14940D01*
G01X-65800D02*
Y-16460D01*
G01X-61633Y-19597D02*
X-61133Y-19977D01*
X-60883Y-20420D01*
X-60800Y-20927D01*
X-60967Y-21560D01*
X-61383Y-22003D01*
X-61883Y-22130D01*
X-62383Y-22067D01*
X-62800Y-21813D01*
X-63633Y-20547D01*
X-64217Y-19977D01*
X-65050Y-19597D01*
X-65800Y-19470D01*
Y-22130D01*
G01X-55917Y-15100D02*
Y-18200D01*
X-54383D01*
G01X-51590D02*
Y-15100D01*
X-53008Y-17322D01*
X-51092D01*
G01X-52800Y8500D02*
X-47800D01*
X-48800Y9260D01*
G01X-52800D02*
Y7740D01*
G01Y3400D02*
X-47800D01*
X-48800Y4160D01*
G01X-52800D02*
Y2640D01*
G01X-58700Y14100D02*
X-53700D01*
X-54700Y14860D01*
G01X-58700D02*
Y13340D01*
G01X-53700Y9000D02*
X-53867Y9507D01*
X-54283Y9887D01*
X-54783Y10140D01*
X-55450Y10330D01*
X-56200Y10393D01*
X-56950Y10330D01*
X-57617Y10140D01*
X-58117Y9887D01*
X-58533Y9507D01*
X-58700Y9000D01*
X-58533Y8493D01*
X-58117Y8113D01*
X-57617Y7860D01*
X-56950Y7670D01*
X-56200Y7607D01*
X-55450Y7670D01*
X-54783Y7860D01*
X-54283Y8113D01*
X-53867Y8493D01*
X-53700Y9000D01*
G01X-53642Y19293D02*
X-53797Y19063D01*
X-53900Y18795D01*
Y18488D01*
X-53745Y18143D01*
X-53487Y17875D01*
X-53177Y17683D01*
X-52660Y17530D01*
X-52195Y17492D01*
X-51730Y17568D01*
X-51420Y17683D01*
X-51110Y17913D01*
X-50903Y18182D01*
X-50800Y18450D01*
Y18718D01*
X-50903Y18987D01*
X-51058Y19217D01*
X-51265Y19408D01*
G01X-53383Y20822D02*
X-53693Y21052D01*
X-53848Y21320D01*
X-53900Y21627D01*
X-53797Y22010D01*
X-53538Y22278D01*
X-53228Y22355D01*
X-52918Y22317D01*
X-52660Y22163D01*
X-52143Y21397D01*
X-51782Y21052D01*
X-51265Y20822D01*
X-50800Y20745D01*
Y22355D01*
G01Y24650D02*
X-50852Y24918D01*
X-51007Y25225D01*
X-51265Y25417D01*
X-51627Y25493D01*
X-51988Y25417D01*
X-52298Y25187D01*
X-52453Y24842D01*
Y24458D01*
X-52557Y24228D01*
X-52815Y24037D01*
X-53177Y23960D01*
X-53538Y24075D01*
X-53797Y24343D01*
X-53900Y24650D01*
X-53797Y24957D01*
X-53538Y25225D01*
X-53177Y25340D01*
X-52815Y25263D01*
X-52557Y25072D01*
X-52453Y24842D01*
Y24458D01*
X-52298Y24113D01*
X-51988Y23883D01*
X-51627Y23807D01*
X-51265Y23883D01*
X-51007Y24075D01*
X-50852Y24382D01*
X-50800Y24650D01*
G01X-63717Y21400D02*
Y24500D01*
X-62758D01*
X-62452Y24345D01*
X-62260Y24138D01*
X-62183Y23725D01*
X-62260Y23312D01*
X-62490Y23053D01*
X-62758Y22898D01*
X-63717D01*
G01X-62758D02*
X-62183Y21400D01*
G01X-60578Y23983D02*
X-60348Y24293D01*
X-60080Y24448D01*
X-59773Y24500D01*
X-59390Y24397D01*
X-59122Y24138D01*
X-59045Y23828D01*
X-59083Y23518D01*
X-59237Y23260D01*
X-60003Y22743D01*
X-60348Y22382D01*
X-60578Y21865D01*
X-60655Y21400D01*
X-59045D01*
G01X-56750D02*
Y24500D01*
X-57210Y23880D01*
G01Y21400D02*
X-56290D01*
G01X-63717Y18100D02*
Y21200D01*
X-62758D01*
X-62452Y21045D01*
X-62260Y20838D01*
X-62183Y20425D01*
X-62260Y20012D01*
X-62490Y19753D01*
X-62758Y19598D01*
X-63717D01*
G01X-62758D02*
X-62183Y18100D01*
G01X-60578Y20683D02*
X-60348Y20993D01*
X-60080Y21148D01*
X-59773Y21200D01*
X-59390Y21097D01*
X-59122Y20838D01*
X-59045Y20528D01*
X-59083Y20218D01*
X-59237Y19960D01*
X-60003Y19443D01*
X-60348Y19082D01*
X-60578Y18565D01*
X-60655Y18100D01*
X-59045D01*
G01X-63717Y14800D02*
Y17900D01*
X-62758D01*
X-62452Y17745D01*
X-62260Y17538D01*
X-62183Y17125D01*
X-62260Y16712D01*
X-62490Y16453D01*
X-62758Y16298D01*
X-63717D01*
G01X-62758D02*
X-62183Y14800D01*
G01X-60693Y15420D02*
X-60463Y15058D01*
X-60157Y14852D01*
X-59812Y14800D01*
X-59505Y14852D01*
X-59198Y15110D01*
X-59007Y15420D01*
X-58968Y15730D01*
X-59045Y16092D01*
X-59313Y16350D01*
X-59582Y16453D01*
X-59927D01*
G01X-59582D02*
X-59352Y16608D01*
X-59160Y16867D01*
X-59083Y17177D01*
X-59160Y17487D01*
X-59352Y17745D01*
X-59697Y17900D01*
X-60042Y17848D01*
X-60387Y17642D01*
G01X-50107Y36742D02*
X-50337Y36897D01*
X-50605Y37000D01*
X-50912D01*
X-51257Y36845D01*
X-51525Y36587D01*
X-51717Y36277D01*
X-51870Y35760D01*
X-51908Y35295D01*
X-51832Y34830D01*
X-51717Y34520D01*
X-51487Y34210D01*
X-51218Y34003D01*
X-50950Y33900D01*
X-50682D01*
X-50413Y34003D01*
X-50183Y34158D01*
X-49992Y34365D01*
G01X-48693Y34520D02*
X-48463Y34158D01*
X-48157Y33952D01*
X-47812Y33900D01*
X-47505Y33952D01*
X-47198Y34210D01*
X-47007Y34520D01*
X-46968Y34830D01*
X-47045Y35192D01*
X-47313Y35450D01*
X-47582Y35553D01*
X-47927D01*
G01X-47582D02*
X-47352Y35708D01*
X-47160Y35967D01*
X-47083Y36277D01*
X-47160Y36587D01*
X-47352Y36845D01*
X-47697Y37000D01*
X-48042Y36948D01*
X-48387Y36742D01*
G01X-44750Y33900D02*
Y37000D01*
X-45210Y36380D01*
G01Y33900D02*
X-44290D01*
G01X-50007Y33142D02*
X-50237Y33297D01*
X-50505Y33400D01*
X-50812D01*
X-51157Y33245D01*
X-51425Y32987D01*
X-51617Y32677D01*
X-51770Y32160D01*
X-51808Y31695D01*
X-51732Y31230D01*
X-51617Y30920D01*
X-51387Y30610D01*
X-51118Y30403D01*
X-50850Y30300D01*
X-50582D01*
X-50313Y30403D01*
X-50083Y30558D01*
X-49892Y30765D01*
G01X-48478Y32883D02*
X-48248Y33193D01*
X-47980Y33348D01*
X-47673Y33400D01*
X-47290Y33297D01*
X-47022Y33038D01*
X-46945Y32728D01*
X-46983Y32418D01*
X-47137Y32160D01*
X-47903Y31643D01*
X-48248Y31282D01*
X-48478Y30765D01*
X-48555Y30300D01*
X-46945D01*
G01X-45302Y30662D02*
X-45033Y30403D01*
X-44727Y30300D01*
X-44420Y30403D01*
X-44152Y30713D01*
X-43960Y31178D01*
X-43883Y31643D01*
Y32212D01*
X-43960Y32677D01*
X-44152Y33090D01*
X-44382Y33297D01*
X-44650Y33400D01*
X-44957Y33297D01*
X-45187Y33090D01*
X-45340Y32780D01*
X-45417Y32367D01*
X-45340Y32005D01*
X-45148Y31643D01*
X-44918Y31437D01*
X-44650Y31385D01*
X-44343Y31488D01*
X-44113Y31747D01*
X-43883Y32212D01*
G01X-50107Y40542D02*
X-50337Y40697D01*
X-50605Y40800D01*
X-50912D01*
X-51257Y40645D01*
X-51525Y40387D01*
X-51717Y40077D01*
X-51870Y39560D01*
X-51908Y39095D01*
X-51832Y38630D01*
X-51717Y38320D01*
X-51487Y38010D01*
X-51218Y37803D01*
X-50950Y37700D01*
X-50682D01*
X-50413Y37803D01*
X-50183Y37958D01*
X-49992Y38165D01*
G01X-48693Y38320D02*
X-48463Y37958D01*
X-48157Y37752D01*
X-47812Y37700D01*
X-47505Y37752D01*
X-47198Y38010D01*
X-47007Y38320D01*
X-46968Y38630D01*
X-47045Y38992D01*
X-47313Y39250D01*
X-47582Y39353D01*
X-47927D01*
G01X-47582D02*
X-47352Y39508D01*
X-47160Y39767D01*
X-47083Y40077D01*
X-47160Y40387D01*
X-47352Y40645D01*
X-47697Y40800D01*
X-48042Y40748D01*
X-48387Y40542D01*
G01X-45478Y40283D02*
X-45248Y40593D01*
X-44980Y40748D01*
X-44673Y40800D01*
X-44290Y40697D01*
X-44022Y40438D01*
X-43945Y40128D01*
X-43983Y39818D01*
X-44137Y39560D01*
X-44903Y39043D01*
X-45248Y38682D01*
X-45478Y38165D01*
X-45555Y37700D01*
X-43945D01*
G01X-58000Y44907D02*
X-55778D01*
X-55313Y45060D01*
X-55003Y45367D01*
X-54900Y45750D01*
X-55003Y46133D01*
X-55313Y46440D01*
X-55778Y46593D01*
X-58000D01*
G01X-56192Y48122D02*
X-56553Y48390D01*
X-56760Y48620D01*
X-56863Y48927D01*
X-56760Y49195D01*
X-56553Y49387D01*
X-56243Y49540D01*
X-55882Y49578D01*
X-55572Y49540D01*
X-55262Y49387D01*
X-55003Y49157D01*
X-54900Y48888D01*
X-55003Y48582D01*
X-55313Y48313D01*
X-55778Y48160D01*
X-56295Y48122D01*
X-56967Y48198D01*
X-57328Y48313D01*
X-57690Y48505D01*
X-57948Y48773D01*
X-58000Y49042D01*
X-57897Y49310D01*
X-57638Y49502D01*
G01X-67893Y96800D02*
Y99900D01*
X-67127D01*
X-66820Y99745D01*
X-66590Y99538D01*
X-66398Y99228D01*
X-66245Y98867D01*
X-66207Y98350D01*
X-66245Y97833D01*
X-66398Y97472D01*
X-66590Y97162D01*
X-66820Y96955D01*
X-67127Y96800D01*
X-67893D01*
G01X-63950D02*
Y99900D01*
X-64410Y99280D01*
G01Y96800D02*
X-63490D01*
G01X-34907Y-80058D02*
X-35137Y-79903D01*
X-35405Y-79800D01*
X-35712D01*
X-36057Y-79955D01*
X-36325Y-80213D01*
X-36517Y-80523D01*
X-36670Y-81040D01*
X-36708Y-81505D01*
X-36632Y-81970D01*
X-36517Y-82280D01*
X-36287Y-82590D01*
X-36018Y-82797D01*
X-35750Y-82900D01*
X-35482D01*
X-35213Y-82797D01*
X-34983Y-82642D01*
X-34792Y-82435D01*
G01X-33493Y-82280D02*
X-33263Y-82642D01*
X-32957Y-82848D01*
X-32612Y-82900D01*
X-32305Y-82848D01*
X-31998Y-82590D01*
X-31807Y-82280D01*
X-31768Y-81970D01*
X-31845Y-81608D01*
X-32113Y-81350D01*
X-32382Y-81247D01*
X-32727D01*
G01X-32382D02*
X-32152Y-81092D01*
X-31960Y-80833D01*
X-31883Y-80523D01*
X-31960Y-80213D01*
X-32152Y-79955D01*
X-32497Y-79800D01*
X-32842Y-79852D01*
X-33187Y-80058D01*
G01X-29090Y-82900D02*
Y-79800D01*
X-30508Y-82022D01*
X-28592D01*
G01X-48100Y-87817D02*
X-51200D01*
Y-86858D01*
X-51045Y-86552D01*
X-50838Y-86360D01*
X-50425Y-86283D01*
X-50012Y-86360D01*
X-49753Y-86590D01*
X-49598Y-86858D01*
Y-87817D01*
G01Y-86858D02*
X-48100Y-86283D01*
G01X-50683Y-84678D02*
X-50993Y-84448D01*
X-51148Y-84180D01*
X-51200Y-83873D01*
X-51097Y-83490D01*
X-50838Y-83222D01*
X-50528Y-83145D01*
X-50218Y-83183D01*
X-49960Y-83337D01*
X-49443Y-84103D01*
X-49082Y-84448D01*
X-48565Y-84678D01*
X-48100Y-84755D01*
Y-83145D01*
G01X-48720Y-81693D02*
X-48358Y-81463D01*
X-48152Y-81157D01*
X-48100Y-80812D01*
X-48152Y-80505D01*
X-48410Y-80198D01*
X-48720Y-80007D01*
X-49030Y-79968D01*
X-49392Y-80045D01*
X-49650Y-80313D01*
X-49753Y-80582D01*
Y-80927D01*
G01Y-80582D02*
X-49908Y-80352D01*
X-50167Y-80160D01*
X-50477Y-80083D01*
X-50787Y-80160D01*
X-51045Y-80352D01*
X-51200Y-80697D01*
X-51148Y-81042D01*
X-50942Y-81387D01*
G01X-44000Y-87717D02*
X-47100D01*
Y-86758D01*
X-46945Y-86452D01*
X-46738Y-86260D01*
X-46325Y-86183D01*
X-45912Y-86260D01*
X-45653Y-86490D01*
X-45498Y-86758D01*
Y-87717D01*
G01Y-86758D02*
X-44000Y-86183D01*
G01X-46583Y-84578D02*
X-46893Y-84348D01*
X-47048Y-84080D01*
X-47100Y-83773D01*
X-46997Y-83390D01*
X-46738Y-83122D01*
X-46428Y-83045D01*
X-46118Y-83083D01*
X-45860Y-83237D01*
X-45343Y-84003D01*
X-44982Y-84348D01*
X-44465Y-84578D01*
X-44000Y-84655D01*
Y-83045D01*
G01Y-80290D02*
X-47100D01*
X-44878Y-81708D01*
Y-79792D01*
G01X-42142Y-86007D02*
X-42297Y-86237D01*
X-42400Y-86505D01*
Y-86812D01*
X-42245Y-87157D01*
X-41987Y-87425D01*
X-41677Y-87617D01*
X-41160Y-87770D01*
X-40695Y-87808D01*
X-40230Y-87732D01*
X-39920Y-87617D01*
X-39610Y-87387D01*
X-39403Y-87118D01*
X-39300Y-86850D01*
Y-86582D01*
X-39403Y-86313D01*
X-39558Y-86083D01*
X-39765Y-85892D01*
G01X-39920Y-84593D02*
X-39558Y-84363D01*
X-39352Y-84057D01*
X-39300Y-83712D01*
X-39352Y-83405D01*
X-39610Y-83098D01*
X-39920Y-82907D01*
X-40230Y-82868D01*
X-40592Y-82945D01*
X-40850Y-83213D01*
X-40953Y-83482D01*
Y-83827D01*
G01Y-83482D02*
X-41108Y-83252D01*
X-41367Y-83060D01*
X-41677Y-82983D01*
X-41987Y-83060D01*
X-42245Y-83252D01*
X-42400Y-83597D01*
X-42348Y-83942D01*
X-42142Y-84287D01*
G01X-40592Y-81378D02*
X-40953Y-81110D01*
X-41160Y-80880D01*
X-41263Y-80573D01*
X-41160Y-80305D01*
X-40953Y-80113D01*
X-40643Y-79960D01*
X-40282Y-79922D01*
X-39972Y-79960D01*
X-39662Y-80113D01*
X-39403Y-80343D01*
X-39300Y-80612D01*
X-39403Y-80918D01*
X-39713Y-81187D01*
X-40178Y-81340D01*
X-40695Y-81378D01*
X-41367Y-81302D01*
X-41728Y-81187D01*
X-42090Y-80995D01*
X-42348Y-80727D01*
X-42400Y-80458D01*
X-42297Y-80190D01*
X-42038Y-79998D01*
G01X-48500Y-69193D02*
X-46278D01*
X-45813Y-69040D01*
X-45503Y-68733D01*
X-45400Y-68350D01*
X-45503Y-67967D01*
X-45813Y-67660D01*
X-46278Y-67507D01*
X-48500D01*
G01X-45400Y-65250D02*
X-45452Y-64982D01*
X-45607Y-64675D01*
X-45865Y-64483D01*
X-46227Y-64407D01*
X-46588Y-64483D01*
X-46898Y-64713D01*
X-47053Y-65058D01*
Y-65442D01*
X-47157Y-65672D01*
X-47415Y-65863D01*
X-47777Y-65940D01*
X-48138Y-65825D01*
X-48397Y-65557D01*
X-48500Y-65250D01*
X-48397Y-64943D01*
X-48138Y-64675D01*
X-47777Y-64560D01*
X-47415Y-64637D01*
X-47157Y-64828D01*
X-47053Y-65058D01*
Y-65442D01*
X-46898Y-65787D01*
X-46588Y-66017D01*
X-46227Y-66093D01*
X-45865Y-66017D01*
X-45607Y-65825D01*
X-45452Y-65518D01*
X-45400Y-65250D01*
G01X-47842Y-19707D02*
X-47997Y-19937D01*
X-48100Y-20205D01*
Y-20512D01*
X-47945Y-20857D01*
X-47687Y-21125D01*
X-47377Y-21317D01*
X-46860Y-21470D01*
X-46395Y-21508D01*
X-45930Y-21432D01*
X-45620Y-21317D01*
X-45310Y-21087D01*
X-45103Y-20818D01*
X-45000Y-20550D01*
Y-20282D01*
X-45103Y-20013D01*
X-45258Y-19783D01*
X-45465Y-19592D01*
G01X-47583Y-18178D02*
X-47893Y-17948D01*
X-48048Y-17680D01*
X-48100Y-17373D01*
X-47997Y-16990D01*
X-47738Y-16722D01*
X-47428Y-16645D01*
X-47118Y-16683D01*
X-46860Y-16837D01*
X-46343Y-17603D01*
X-45982Y-17948D01*
X-45465Y-18178D01*
X-45000Y-18255D01*
Y-16645D01*
G01X-48100Y-14350D02*
X-47997Y-14657D01*
X-47738Y-14887D01*
X-47428Y-15040D01*
X-47015Y-15155D01*
X-46550Y-15193D01*
X-46085Y-15155D01*
X-45672Y-15040D01*
X-45362Y-14887D01*
X-45103Y-14657D01*
X-45000Y-14350D01*
X-45103Y-14043D01*
X-45362Y-13813D01*
X-45672Y-13660D01*
X-46085Y-13545D01*
X-46550Y-13507D01*
X-47015Y-13545D01*
X-47428Y-13660D01*
X-47738Y-13813D01*
X-47997Y-14043D01*
X-48100Y-14350D01*
G01X-43642Y-1707D02*
X-43797Y-1937D01*
X-43900Y-2205D01*
Y-2512D01*
X-43745Y-2857D01*
X-43487Y-3125D01*
X-43177Y-3317D01*
X-42660Y-3470D01*
X-42195Y-3508D01*
X-41730Y-3432D01*
X-41420Y-3317D01*
X-41110Y-3087D01*
X-40903Y-2818D01*
X-40800Y-2550D01*
Y-2282D01*
X-40903Y-2013D01*
X-41058Y-1783D01*
X-41265Y-1592D01*
G01X-40800Y550D02*
X-43900D01*
X-43280Y90D01*
G01X-40800D02*
Y1010D01*
G01X-41162Y2998D02*
X-40903Y3267D01*
X-40800Y3573D01*
X-40903Y3880D01*
X-41213Y4148D01*
X-41678Y4340D01*
X-42143Y4417D01*
X-42712D01*
X-43177Y4340D01*
X-43590Y4148D01*
X-43797Y3918D01*
X-43900Y3650D01*
X-43797Y3343D01*
X-43590Y3113D01*
X-43280Y2960D01*
X-42867Y2883D01*
X-42505Y2960D01*
X-42143Y3152D01*
X-41937Y3382D01*
X-41885Y3650D01*
X-41988Y3957D01*
X-42247Y4187D01*
X-42712Y4417D01*
G01X-43842Y12493D02*
X-43997Y12263D01*
X-44100Y11995D01*
Y11688D01*
X-43945Y11343D01*
X-43687Y11075D01*
X-43377Y10883D01*
X-42860Y10730D01*
X-42395Y10692D01*
X-41930Y10768D01*
X-41620Y10883D01*
X-41310Y11113D01*
X-41103Y11382D01*
X-41000Y11650D01*
Y11918D01*
X-41103Y12187D01*
X-41258Y12417D01*
X-41465Y12608D01*
G01X-43583Y14022D02*
X-43893Y14252D01*
X-44048Y14520D01*
X-44100Y14827D01*
X-43997Y15210D01*
X-43738Y15478D01*
X-43428Y15555D01*
X-43118Y15517D01*
X-42860Y15363D01*
X-42343Y14597D01*
X-41982Y14252D01*
X-41465Y14022D01*
X-41000Y13945D01*
Y15555D01*
G01Y17850D02*
X-44100D01*
X-43480Y17390D01*
G01X-41000D02*
Y18310D01*
G01X-40217Y55800D02*
Y52700D01*
X-38683D01*
G01X-37193Y53165D02*
X-36963Y52907D01*
X-36695Y52752D01*
X-36350Y52700D01*
X-36005Y52803D01*
X-35737Y53010D01*
X-35545Y53372D01*
X-35507Y53785D01*
X-35583Y54198D01*
X-35775Y54457D01*
X-36043Y54663D01*
X-36312Y54715D01*
X-36580Y54663D01*
X-36925Y54457D01*
X-36810Y55800D01*
X-35775D01*
G01X-29293Y-93500D02*
Y-90400D01*
X-28527D01*
X-28220Y-90555D01*
X-27990Y-90762D01*
X-27798Y-91072D01*
X-27645Y-91433D01*
X-27607Y-91950D01*
X-27645Y-92467D01*
X-27798Y-92828D01*
X-27990Y-93138D01*
X-28220Y-93345D01*
X-28527Y-93500D01*
X-29293D01*
G01X-26308D02*
X-25350Y-90400D01*
X-24392Y-93500D01*
G01X-24737Y-92415D02*
X-25963D01*
G01X-21407Y-90658D02*
X-21637Y-90503D01*
X-21905Y-90400D01*
X-22212D01*
X-22557Y-90555D01*
X-22825Y-90813D01*
X-23017Y-91123D01*
X-23170Y-91640D01*
X-23208Y-92105D01*
X-23132Y-92570D01*
X-23017Y-92880D01*
X-22787Y-93190D01*
X-22518Y-93397D01*
X-22250Y-93500D01*
X-21982D01*
X-21713Y-93397D01*
X-21483Y-93242D01*
X-21292Y-93035D01*
G01X-29600Y-86300D02*
X-29063Y-89400D01*
X-28450Y-86300D01*
X-27837Y-89400D01*
X-27300Y-86300D01*
G01X-25350Y-89400D02*
Y-86300D01*
X-25810Y-86920D01*
G01Y-89400D02*
X-24890D01*
G01X-19107Y-48558D02*
X-19337Y-48403D01*
X-19605Y-48300D01*
X-19912D01*
X-20257Y-48455D01*
X-20525Y-48713D01*
X-20717Y-49023D01*
X-20870Y-49540D01*
X-20908Y-50005D01*
X-20832Y-50470D01*
X-20717Y-50780D01*
X-20487Y-51090D01*
X-20218Y-51297D01*
X-19950Y-51400D01*
X-19682D01*
X-19413Y-51297D01*
X-19183Y-51142D01*
X-18992Y-50935D01*
G01X-17693D02*
X-17463Y-51193D01*
X-17195Y-51348D01*
X-16850Y-51400D01*
X-16505Y-51297D01*
X-16237Y-51090D01*
X-16045Y-50728D01*
X-16007Y-50315D01*
X-16083Y-49902D01*
X-16275Y-49643D01*
X-16543Y-49437D01*
X-16812Y-49385D01*
X-17080Y-49437D01*
X-17425Y-49643D01*
X-17310Y-48300D01*
X-16275D01*
G01X-15358Y-56293D02*
X-15203Y-56063D01*
X-15100Y-55795D01*
Y-55488D01*
X-15255Y-55143D01*
X-15513Y-54875D01*
X-15823Y-54683D01*
X-16340Y-54530D01*
X-16805Y-54492D01*
X-17270Y-54568D01*
X-17580Y-54683D01*
X-17890Y-54913D01*
X-18097Y-55182D01*
X-18200Y-55450D01*
Y-55718D01*
X-18097Y-55987D01*
X-17942Y-56217D01*
X-17735Y-56408D01*
G01X-16908Y-57822D02*
X-16547Y-58090D01*
X-16340Y-58320D01*
X-16237Y-58627D01*
X-16340Y-58895D01*
X-16547Y-59087D01*
X-16857Y-59240D01*
X-17218Y-59278D01*
X-17528Y-59240D01*
X-17838Y-59087D01*
X-18097Y-58857D01*
X-18200Y-58588D01*
X-18097Y-58282D01*
X-17787Y-58013D01*
X-17322Y-57860D01*
X-16805Y-57822D01*
X-16133Y-57898D01*
X-15772Y-58013D01*
X-15410Y-58205D01*
X-15152Y-58473D01*
X-15100Y-58742D01*
X-15203Y-59010D01*
X-15462Y-59202D01*
G01X-27450Y-31800D02*
Y-30405D01*
X-28217Y-28700D01*
G01X-26683D02*
X-27450Y-30405D01*
G01X-25193Y-31180D02*
X-24963Y-31542D01*
X-24657Y-31748D01*
X-24312Y-31800D01*
X-24005Y-31748D01*
X-23698Y-31490D01*
X-23507Y-31180D01*
X-23468Y-30870D01*
X-23545Y-30508D01*
X-23813Y-30250D01*
X-24082Y-30147D01*
X-24427D01*
G01X-24082D02*
X-23852Y-29992D01*
X-23660Y-29733D01*
X-23583Y-29423D01*
X-23660Y-29113D01*
X-23852Y-28855D01*
X-24197Y-28700D01*
X-24542Y-28752D01*
X-24887Y-28958D01*
G01X-29650Y64400D02*
Y67500D01*
X-30110Y66880D01*
G01Y64400D02*
X-29190D01*
G01X-25017Y57820D02*
X-24825Y57510D01*
X-24595Y57303D01*
X-24327Y57200D01*
X-24020Y57303D01*
X-23790Y57510D01*
X-23560Y57820D01*
X-23483Y58233D01*
Y60300D01*
G01X-21878Y59783D02*
X-21648Y60093D01*
X-21380Y60248D01*
X-21073Y60300D01*
X-20690Y60197D01*
X-20422Y59938D01*
X-20345Y59628D01*
X-20383Y59318D01*
X-20537Y59060D01*
X-21303Y58543D01*
X-21648Y58182D01*
X-21878Y57665D01*
X-21955Y57200D01*
X-20345D01*
G01X-19600Y69500D02*
X-19063Y66400D01*
X-18450Y69500D01*
X-17837Y66400D01*
X-17300Y69500D01*
G01X-16193Y67020D02*
X-15963Y66658D01*
X-15657Y66452D01*
X-15312Y66400D01*
X-15005Y66452D01*
X-14698Y66710D01*
X-14507Y67020D01*
X-14468Y67330D01*
X-14545Y67692D01*
X-14813Y67950D01*
X-15082Y68053D01*
X-15427D01*
G01X-15082D02*
X-14852Y68208D01*
X-14660Y68467D01*
X-14583Y68777D01*
X-14660Y69087D01*
X-14852Y69345D01*
X-15197Y69500D01*
X-15542Y69448D01*
X-15887Y69242D01*
G01X-19600Y73300D02*
X-19063Y70200D01*
X-18450Y73300D01*
X-17837Y70200D01*
X-17300Y73300D01*
G01X-16078Y72783D02*
X-15848Y73093D01*
X-15580Y73248D01*
X-15273Y73300D01*
X-14890Y73197D01*
X-14622Y72938D01*
X-14545Y72628D01*
X-14583Y72318D01*
X-14737Y72060D01*
X-15503Y71543D01*
X-15848Y71182D01*
X-16078Y70665D01*
X-16155Y70200D01*
X-14545D01*
G01X-19042Y77093D02*
X-19197Y76863D01*
X-19300Y76595D01*
Y76288D01*
X-19145Y75943D01*
X-18887Y75675D01*
X-18577Y75483D01*
X-18060Y75330D01*
X-17595Y75292D01*
X-17130Y75368D01*
X-16820Y75483D01*
X-16510Y75713D01*
X-16303Y75982D01*
X-16200Y76250D01*
Y76518D01*
X-16303Y76787D01*
X-16458Y77017D01*
X-16665Y77208D01*
G01X-16200Y79350D02*
X-19300D01*
X-18680Y78890D01*
G01X-16200D02*
Y79810D01*
G01X-19242Y82793D02*
X-19397Y82563D01*
X-19500Y82295D01*
Y81988D01*
X-19345Y81643D01*
X-19087Y81375D01*
X-18777Y81183D01*
X-18260Y81030D01*
X-17795Y80992D01*
X-17330Y81068D01*
X-17020Y81183D01*
X-16710Y81413D01*
X-16503Y81682D01*
X-16400Y81950D01*
Y82218D01*
X-16503Y82487D01*
X-16658Y82717D01*
X-16865Y82908D01*
G01X-17020Y84207D02*
X-16658Y84437D01*
X-16452Y84743D01*
X-16400Y85088D01*
X-16452Y85395D01*
X-16710Y85702D01*
X-17020Y85893D01*
X-17330Y85932D01*
X-17692Y85855D01*
X-17950Y85587D01*
X-18053Y85318D01*
Y84973D01*
G01Y85318D02*
X-18208Y85548D01*
X-18467Y85740D01*
X-18777Y85817D01*
X-19087Y85740D01*
X-19345Y85548D01*
X-19500Y85203D01*
X-19448Y84858D01*
X-19242Y84513D01*
G01X-9900Y-59300D02*
Y-54300D01*
X-10660Y-55300D01*
G01Y-59300D02*
X-9140D01*
G01X3293Y-71200D02*
Y-74300D01*
X2527D01*
X2220Y-74145D01*
X1990Y-73938D01*
X1798Y-73628D01*
X1645Y-73267D01*
X1607Y-72750D01*
X1645Y-72233D01*
X1798Y-71872D01*
X1990Y-71562D01*
X2220Y-71355D01*
X2527Y-71200D01*
X3293D01*
G01X155Y-71613D02*
X-152Y-71355D01*
X-497Y-71200D01*
X-803D01*
X-1110Y-71355D01*
X-1340Y-71613D01*
X-1455Y-71975D01*
X-1378Y-72337D01*
X-1187Y-72647D01*
X-842Y-72853D01*
X-382Y-72957D01*
X-113Y-73163D01*
X2Y-73525D01*
X-75Y-73887D01*
X-267Y-74145D01*
X-535Y-74300D01*
X-803D01*
X-1072Y-74197D01*
X-1302Y-73938D01*
G01X-3750Y-71200D02*
Y-74300D01*
X-3290Y-73680D01*
G01Y-71200D02*
X-4210D01*
G01X-6850D02*
Y-74300D01*
X-6390Y-73680D01*
G01Y-71200D02*
X-7310D01*
G01X-6707D02*
Y-74300D01*
X-7473D01*
X-7780Y-74145D01*
X-8010Y-73938D01*
X-8202Y-73628D01*
X-8355Y-73267D01*
X-8393Y-72750D01*
X-8355Y-72233D01*
X-8202Y-71872D01*
X-8010Y-71562D01*
X-7780Y-71355D01*
X-7473Y-71200D01*
X-6707D01*
G01X-9845Y-71613D02*
X-10152Y-71355D01*
X-10497Y-71200D01*
X-10803D01*
X-11110Y-71355D01*
X-11340Y-71613D01*
X-11455Y-71975D01*
X-11378Y-72337D01*
X-11187Y-72647D01*
X-10842Y-72853D01*
X-10382Y-72957D01*
X-10113Y-73163D01*
X-9998Y-73525D01*
X-10075Y-73887D01*
X-10267Y-74145D01*
X-10535Y-74300D01*
X-10803D01*
X-11072Y-74197D01*
X-11302Y-73938D01*
G01X-13750Y-71200D02*
Y-74300D01*
X-13290Y-73680D01*
G01Y-71200D02*
X-14210D01*
G01X-16122Y-73783D02*
X-16352Y-74093D01*
X-16620Y-74248D01*
X-16927Y-74300D01*
X-17310Y-74197D01*
X-17578Y-73938D01*
X-17655Y-73628D01*
X-17617Y-73318D01*
X-17463Y-73060D01*
X-16697Y-72543D01*
X-16352Y-72182D01*
X-16122Y-71665D01*
X-16045Y-71200D01*
X-17655D01*
G01X-11817Y-69080D02*
X-11625Y-69390D01*
X-11395Y-69597D01*
X-11127Y-69700D01*
X-10820Y-69597D01*
X-10590Y-69390D01*
X-10360Y-69080D01*
X-10283Y-68667D01*
Y-66600D01*
G01X-8793Y-69080D02*
X-8563Y-69442D01*
X-8257Y-69648D01*
X-7912Y-69700D01*
X-7605Y-69648D01*
X-7298Y-69390D01*
X-7107Y-69080D01*
X-7068Y-68770D01*
X-7145Y-68408D01*
X-7413Y-68150D01*
X-7682Y-68047D01*
X-8027D01*
G01X-7682D02*
X-7452Y-67892D01*
X-7260Y-67633D01*
X-7183Y-67323D01*
X-7260Y-67013D01*
X-7452Y-66755D01*
X-7797Y-66600D01*
X-8142Y-66652D01*
X-8487Y-66858D01*
G01X-16600Y-32893D02*
X-14378D01*
X-13913Y-32740D01*
X-13603Y-32433D01*
X-13500Y-32050D01*
X-13603Y-31667D01*
X-13913Y-31360D01*
X-14378Y-31207D01*
X-16600D01*
G01X-16083Y-29678D02*
X-16393Y-29448D01*
X-16548Y-29180D01*
X-16600Y-28873D01*
X-16497Y-28490D01*
X-16238Y-28222D01*
X-15928Y-28145D01*
X-15618Y-28183D01*
X-15360Y-28337D01*
X-14843Y-29103D01*
X-14482Y-29448D01*
X-13965Y-29678D01*
X-13500Y-29755D01*
Y-28145D01*
G01X-2107Y-28358D02*
X-2337Y-28203D01*
X-2605Y-28100D01*
X-2912D01*
X-3257Y-28255D01*
X-3525Y-28513D01*
X-3717Y-28823D01*
X-3870Y-29340D01*
X-3908Y-29805D01*
X-3832Y-30270D01*
X-3717Y-30580D01*
X-3487Y-30890D01*
X-3218Y-31097D01*
X-2950Y-31200D01*
X-2682D01*
X-2413Y-31097D01*
X-2183Y-30942D01*
X-1992Y-30735D01*
G01X-578Y-28617D02*
X-348Y-28307D01*
X-80Y-28152D01*
X227Y-28100D01*
X610Y-28203D01*
X878Y-28462D01*
X955Y-28772D01*
X917Y-29082D01*
X763Y-29340D01*
X-3Y-29857D01*
X-348Y-30218D01*
X-578Y-30735D01*
X-655Y-31200D01*
X955D01*
G01X3710D02*
Y-28100D01*
X2292Y-30322D01*
X4208D01*
G01X-10723Y57917D02*
X-11167Y58333D01*
X-11673Y58500D01*
X-12180Y58333D01*
X-12623Y57833D01*
X-12940Y57083D01*
X-13067Y56333D01*
Y55417D01*
X-12940Y54667D01*
X-12623Y54000D01*
X-12243Y53667D01*
X-11800Y53500D01*
X-11293Y53667D01*
X-10913Y54000D01*
X-10660Y54500D01*
X-10533Y55167D01*
X-10660Y55750D01*
X-10977Y56333D01*
X-11357Y56667D01*
X-11800Y56750D01*
X-12307Y56583D01*
X-12687Y56167D01*
X-13067Y55417D01*
G01X-1103Y-55133D02*
X-723Y-54633D01*
X-280Y-54383D01*
X227Y-54300D01*
X860Y-54467D01*
X1303Y-54883D01*
X1430Y-55383D01*
X1367Y-55883D01*
X1113Y-56300D01*
X-153Y-57133D01*
X-723Y-57717D01*
X-1103Y-58550D01*
X-1230Y-59300D01*
X1430D01*
G01X8607Y-58300D02*
X8987Y-58883D01*
X9493Y-59217D01*
X10063Y-59300D01*
X10570Y-59217D01*
X11077Y-58800D01*
X11393Y-58300D01*
X11457Y-57800D01*
X11330Y-57217D01*
X10887Y-56800D01*
X10443Y-56633D01*
X9873D01*
G01X10443D02*
X10823Y-56383D01*
X11140Y-55967D01*
X11267Y-55467D01*
X11140Y-54967D01*
X10823Y-54550D01*
X10253Y-54300D01*
X9683Y-54383D01*
X9113Y-54717D01*
G01X13293Y-71200D02*
Y-74300D01*
X12527D01*
X12220Y-74145D01*
X11990Y-73938D01*
X11798Y-73628D01*
X11645Y-73267D01*
X11607Y-72750D01*
X11645Y-72233D01*
X11798Y-71872D01*
X11990Y-71562D01*
X12220Y-71355D01*
X12527Y-71200D01*
X13293D01*
G01X10155Y-71613D02*
X9848Y-71355D01*
X9503Y-71200D01*
X9197D01*
X8890Y-71355D01*
X8660Y-71613D01*
X8545Y-71975D01*
X8622Y-72337D01*
X8813Y-72647D01*
X9158Y-72853D01*
X9618Y-72957D01*
X9887Y-73163D01*
X10002Y-73525D01*
X9925Y-73887D01*
X9733Y-74145D01*
X9465Y-74300D01*
X9197D01*
X8928Y-74197D01*
X8698Y-73938D01*
G01X6250Y-71200D02*
Y-74300D01*
X6710Y-73680D01*
G01Y-71200D02*
X5790D01*
G01X3150Y-74300D02*
X3457Y-74197D01*
X3687Y-73938D01*
X3840Y-73628D01*
X3955Y-73215D01*
X3993Y-72750D01*
X3955Y-72285D01*
X3840Y-71872D01*
X3687Y-71562D01*
X3457Y-71303D01*
X3150Y-71200D01*
X2843Y-71303D01*
X2613Y-71562D01*
X2460Y-71872D01*
X2345Y-72285D01*
X2307Y-72750D01*
X2345Y-73215D01*
X2460Y-73628D01*
X2613Y-73938D01*
X2843Y-74197D01*
X3150Y-74300D01*
G01X6293Y-41658D02*
X6063Y-41503D01*
X5795Y-41400D01*
X5488D01*
X5143Y-41555D01*
X4875Y-41813D01*
X4683Y-42123D01*
X4530Y-42640D01*
X4492Y-43105D01*
X4568Y-43570D01*
X4683Y-43880D01*
X4913Y-44190D01*
X5182Y-44397D01*
X5450Y-44500D01*
X5718D01*
X5987Y-44397D01*
X6217Y-44242D01*
X6408Y-44035D01*
G01X12305Y-42321D02*
X10113Y-44513D01*
G01X11682Y-41698D02*
X12929Y-42945D01*
G01X11763Y-46163D02*
X13955Y-43971D01*
X14606Y-44622D01*
X14713Y-44948D01*
X14620Y-45366D01*
X14382Y-45713D01*
X14035Y-45951D01*
X13680Y-46035D01*
X13327Y-45900D01*
X12676Y-45250D01*
G01X15809Y-46555D02*
X16191Y-46499D01*
X16490Y-46579D01*
X16743Y-46759D01*
X16941Y-47103D01*
X16948Y-47476D01*
X16784Y-47749D01*
X16537Y-47941D01*
X16246Y-48016D01*
X15339Y-47839D01*
X14839Y-47851D01*
X14311Y-48053D01*
X13928Y-48328D01*
X15066Y-49466D01*
G01X3450Y-46000D02*
Y-49100D01*
G01X2568Y-46000D02*
X4332D01*
G01X5783Y-49100D02*
Y-46000D01*
X6703D01*
X7010Y-46155D01*
X7240Y-46517D01*
X7317Y-46930D01*
X7240Y-47343D01*
X7048Y-47653D01*
X6703Y-47808D01*
X5783D01*
G01X10110Y-49100D02*
Y-46000D01*
X8692Y-48222D01*
X10608D01*
G01X7850Y-49400D02*
Y-52500D01*
G01X6968Y-49400D02*
X8732D01*
G01X10183Y-52500D02*
Y-49400D01*
X11103D01*
X11410Y-49555D01*
X11640Y-49917D01*
X11717Y-50330D01*
X11640Y-50743D01*
X11448Y-51053D01*
X11103Y-51208D01*
X10183D01*
G01X13207Y-51880D02*
X13437Y-52242D01*
X13743Y-52448D01*
X14088Y-52500D01*
X14395Y-52448D01*
X14702Y-52190D01*
X14893Y-51880D01*
X14932Y-51570D01*
X14855Y-51208D01*
X14587Y-50950D01*
X14318Y-50847D01*
X13973D01*
G01X14318D02*
X14548Y-50692D01*
X14740Y-50433D01*
X14817Y-50123D01*
X14740Y-49813D01*
X14548Y-49555D01*
X14203Y-49400D01*
X13858Y-49452D01*
X13513Y-49658D01*
G01X12793Y-28558D02*
X12563Y-28403D01*
X12295Y-28300D01*
X11988D01*
X11643Y-28455D01*
X11375Y-28713D01*
X11183Y-29023D01*
X11030Y-29540D01*
X10992Y-30005D01*
X11068Y-30470D01*
X11183Y-30780D01*
X11413Y-31090D01*
X11682Y-31297D01*
X11950Y-31400D01*
X12218D01*
X12487Y-31297D01*
X12717Y-31142D01*
X12908Y-30935D01*
G01X14322Y-28817D02*
X14552Y-28507D01*
X14820Y-28352D01*
X15127Y-28300D01*
X15510Y-28403D01*
X15778Y-28662D01*
X15855Y-28972D01*
X15817Y-29282D01*
X15663Y-29540D01*
X14897Y-30057D01*
X14552Y-30418D01*
X14322Y-30935D01*
X14245Y-31400D01*
X15855D01*
G01X17422Y-28817D02*
X17652Y-28507D01*
X17920Y-28352D01*
X18227Y-28300D01*
X18610Y-28403D01*
X18878Y-28662D01*
X18955Y-28972D01*
X18917Y-29282D01*
X18763Y-29540D01*
X17997Y-30057D01*
X17652Y-30418D01*
X17422Y-30935D01*
X17345Y-31400D01*
X18955D01*
G01X-1642Y-36307D02*
X-1797Y-36537D01*
X-1900Y-36805D01*
Y-37112D01*
X-1745Y-37457D01*
X-1487Y-37725D01*
X-1177Y-37917D01*
X-660Y-38070D01*
X-195Y-38108D01*
X270Y-38032D01*
X580Y-37917D01*
X890Y-37687D01*
X1097Y-37418D01*
X1200Y-37150D01*
Y-36882D01*
X1097Y-36613D01*
X942Y-36383D01*
X735Y-36192D01*
G01X1200Y-33590D02*
X-1900D01*
X322Y-35008D01*
Y-33092D01*
G01X10427Y58500D02*
X10300Y57417D01*
X10110Y56500D01*
X9857Y55667D01*
X9540Y54750D01*
X9033Y53500D01*
X11567D01*
G01X1100Y58500D02*
X657Y58417D01*
X150Y58167D01*
X-167Y57750D01*
X-293Y57167D01*
X-167Y56583D01*
X213Y56083D01*
X783Y55833D01*
X1417D01*
X1797Y55667D01*
X2113Y55250D01*
X2240Y54667D01*
X2050Y54083D01*
X1607Y53667D01*
X1100Y53500D01*
X593Y53667D01*
X150Y54083D01*
X-40Y54667D01*
X87Y55250D01*
X403Y55667D01*
X783Y55833D01*
X1417D01*
X1987Y56083D01*
X2367Y56583D01*
X2493Y57167D01*
X2367Y57750D01*
X2050Y58167D01*
X1543Y58417D01*
X1100Y58500D01*
G01X1793Y50642D02*
X1563Y50797D01*
X1295Y50900D01*
X988D01*
X643Y50745D01*
X375Y50487D01*
X183Y50177D01*
X30Y49660D01*
X-8Y49195D01*
X68Y48730D01*
X183Y48420D01*
X413Y48110D01*
X682Y47903D01*
X950Y47800D01*
X1218D01*
X1487Y47903D01*
X1717Y48058D01*
X1908Y48265D01*
G01X3322Y50383D02*
X3552Y50693D01*
X3820Y50848D01*
X4127Y50900D01*
X4510Y50797D01*
X4778Y50538D01*
X4855Y50228D01*
X4817Y49918D01*
X4663Y49660D01*
X3897Y49143D01*
X3552Y48782D01*
X3322Y48265D01*
X3245Y47800D01*
X4855D01*
G01X6307Y48420D02*
X6537Y48058D01*
X6843Y47852D01*
X7188Y47800D01*
X7495Y47852D01*
X7802Y48110D01*
X7993Y48420D01*
X8032Y48730D01*
X7955Y49092D01*
X7687Y49350D01*
X7418Y49453D01*
X7073D01*
G01X7418D02*
X7648Y49608D01*
X7840Y49867D01*
X7917Y50177D01*
X7840Y50487D01*
X7648Y50745D01*
X7303Y50900D01*
X6958Y50848D01*
X6613Y50642D01*
G01X11933Y69200D02*
X11800Y69450D01*
X11640Y69617D01*
X11453Y69700D01*
X11240Y69617D01*
X11080Y69450D01*
X10920Y69200D01*
X10867Y68867D01*
Y67200D01*
G01X8880Y69700D02*
Y67200D01*
X9867Y68992D01*
X8533D01*
G01X16900Y-96700D02*
Y-94450D01*
X15633Y-91700D01*
G01X18167D02*
X16900Y-94450D01*
G01X21177Y-95033D02*
X22823D01*
G01X31064Y-77897D02*
X30954Y-77342D01*
X30715Y-76805D01*
X30272Y-76362D01*
X29550Y-76087D01*
X28792Y-76070D01*
X28069Y-76239D01*
X27105Y-76759D01*
X26382Y-77372D01*
X25824Y-78151D01*
X25545Y-78763D01*
X25432Y-79541D01*
X25522Y-80226D01*
X25762Y-80762D01*
X26149Y-81149D01*
X26686Y-81389D01*
X27241Y-81498D01*
X27815Y-81478D01*
G01X30217Y-85217D02*
X34671Y-80762D01*
G01X35669Y-90669D02*
X38639Y-87699D01*
G01X38119Y-88219D02*
X38194Y-87700D01*
X38010Y-87219D01*
X37697Y-86757D01*
X37161Y-86518D01*
X36531Y-86483D01*
X35864Y-86707D01*
X35160Y-87190D01*
X34676Y-87894D01*
X34452Y-88562D01*
X34488Y-89191D01*
X34727Y-89727D01*
X35189Y-90041D01*
X35744Y-90150D01*
X36263Y-90075D01*
G01X36627Y-94300D02*
X36811Y-94781D01*
X37403Y-95075D01*
X37976Y-95055D01*
X38569Y-94906D01*
X40089Y-94050D01*
X43260Y-92320D01*
G01X41487Y-90548D02*
X40089Y-94050D01*
G01X15797Y-59900D02*
X18203D01*
X15797Y-64900D01*
X18203D01*
G01X21403Y-63233D02*
X22923D01*
G01X22100Y-62150D02*
Y-64317D01*
G01X27200Y-65067D02*
X27073Y-64983D01*
Y-64817D01*
X27200Y-64733D01*
X27327Y-64817D01*
Y-64983D01*
X27200Y-65067D01*
G01Y-62817D02*
X27073Y-62733D01*
Y-62567D01*
X27200Y-62483D01*
X27327Y-62567D01*
Y-62733D01*
X27200Y-62817D01*
G01X32300Y-59900D02*
Y-64900D01*
G01X30843Y-59900D02*
X33757D01*
G01X37400Y-64900D02*
X36893Y-64817D01*
X36450Y-64483D01*
X36070Y-63983D01*
X35817Y-63400D01*
X35690Y-62733D01*
Y-62067D01*
X35817Y-61400D01*
X36070Y-60817D01*
X36450Y-60317D01*
X36893Y-59983D01*
X37400Y-59900D01*
X37907Y-59983D01*
X38350Y-60317D01*
X38730Y-60817D01*
X38983Y-61400D01*
X39110Y-62067D01*
Y-62733D01*
X38983Y-63400D01*
X38730Y-63983D01*
X38350Y-64483D01*
X37907Y-64817D01*
X37400Y-64900D01*
G01X41233D02*
Y-59900D01*
X42753D01*
X43260Y-60150D01*
X43640Y-60733D01*
X43767Y-61400D01*
X43640Y-62067D01*
X43323Y-62567D01*
X42753Y-62817D01*
X41233D01*
G01X15797Y-66200D02*
X18203D01*
X15797Y-71200D01*
X18203D01*
G01X21277Y-69533D02*
X22923D01*
G01X27200Y-71367D02*
X27073Y-71283D01*
Y-71117D01*
X27200Y-71033D01*
X27327Y-71117D01*
Y-71283D01*
X27200Y-71367D01*
G01Y-69117D02*
X27073Y-69033D01*
Y-68867D01*
X27200Y-68783D01*
X27327Y-68867D01*
Y-69033D01*
X27200Y-69117D01*
G01X32807Y-68533D02*
X33060Y-68283D01*
X33250Y-67867D01*
X33377Y-67283D01*
X33250Y-66783D01*
X32997Y-66450D01*
X32553Y-66200D01*
X30843D01*
Y-71200D01*
X32933D01*
X33377Y-70867D01*
X33630Y-70367D01*
X33757Y-69783D01*
X33630Y-69200D01*
X33250Y-68700D01*
X32807Y-68533D01*
X30843D01*
G01X37400Y-71200D02*
X36893Y-71117D01*
X36450Y-70783D01*
X36070Y-70283D01*
X35817Y-69700D01*
X35690Y-69033D01*
Y-68367D01*
X35817Y-67700D01*
X36070Y-67117D01*
X36450Y-66617D01*
X36893Y-66283D01*
X37400Y-66200D01*
X37907Y-66283D01*
X38350Y-66617D01*
X38730Y-67117D01*
X38983Y-67700D01*
X39110Y-68367D01*
Y-69033D01*
X38983Y-69700D01*
X38730Y-70283D01*
X38350Y-70783D01*
X37907Y-71117D01*
X37400Y-71200D01*
G01X42500Y-66200D02*
Y-71200D01*
G01X41043Y-66200D02*
X43957D01*
G01X47600D02*
Y-71200D01*
G01X46143Y-66200D02*
X49057D01*
G01X52700Y-71200D02*
X52193Y-71117D01*
X51750Y-70783D01*
X51370Y-70283D01*
X51117Y-69700D01*
X50990Y-69033D01*
Y-68367D01*
X51117Y-67700D01*
X51370Y-67117D01*
X51750Y-66617D01*
X52193Y-66283D01*
X52700Y-66200D01*
X53207Y-66283D01*
X53650Y-66617D01*
X54030Y-67117D01*
X54283Y-67700D01*
X54410Y-68367D01*
Y-69033D01*
X54283Y-69700D01*
X54030Y-70283D01*
X53650Y-70783D01*
X53207Y-71117D01*
X52700Y-71200D01*
G01X56153D02*
Y-66200D01*
X57800Y-70367D01*
X59447Y-66200D01*
Y-71200D01*
G01X18207Y-48000D02*
Y-44900D01*
X18973D01*
X19280Y-45055D01*
X19510Y-45262D01*
X19702Y-45572D01*
X19855Y-45933D01*
X19893Y-46450D01*
X19855Y-46967D01*
X19702Y-47328D01*
X19510Y-47638D01*
X19280Y-47845D01*
X18973Y-48000D01*
X18207D01*
G01X19850Y-41500D02*
Y-44600D01*
G01X18968Y-41500D02*
X20732D01*
G01X22183Y-44600D02*
Y-41500D01*
X23103D01*
X23410Y-41655D01*
X23640Y-42017D01*
X23717Y-42430D01*
X23640Y-42843D01*
X23448Y-43153D01*
X23103Y-43308D01*
X22183D01*
G01X26050Y-44600D02*
Y-41500D01*
X25590Y-42120D01*
G01Y-44600D02*
X26510D01*
G01X24750Y-30600D02*
Y-29205D01*
X23983Y-27500D01*
G01X25517D02*
X24750Y-29205D01*
G01X27122Y-28017D02*
X27352Y-27707D01*
X27620Y-27552D01*
X27927Y-27500D01*
X28310Y-27603D01*
X28578Y-27862D01*
X28655Y-28172D01*
X28617Y-28482D01*
X28463Y-28740D01*
X27697Y-29257D01*
X27352Y-29618D01*
X27122Y-30135D01*
X27045Y-30600D01*
X28655D01*
G01X19983Y-39800D02*
Y-36700D01*
X20942D01*
X21248Y-36855D01*
X21440Y-37062D01*
X21517Y-37475D01*
X21440Y-37888D01*
X21210Y-38147D01*
X20942Y-38302D01*
X19983D01*
G01X20942D02*
X21517Y-39800D01*
G01X23850D02*
Y-36700D01*
X23390Y-37320D01*
G01Y-39800D02*
X24310D01*
G01X26950D02*
Y-36700D01*
X26490Y-37320D01*
G01Y-39800D02*
X27410D01*
G01X28483Y-40000D02*
Y-36900D01*
X29442D01*
X29748Y-37055D01*
X29940Y-37262D01*
X30017Y-37675D01*
X29940Y-38088D01*
X29710Y-38347D01*
X29442Y-38502D01*
X28483D01*
G01X29442D02*
X30017Y-40000D01*
G01X32350D02*
Y-36900D01*
X31890Y-37520D01*
G01Y-40000D02*
X32810D01*
G01X35450Y-36900D02*
X35143Y-37003D01*
X34913Y-37262D01*
X34760Y-37572D01*
X34645Y-37985D01*
X34607Y-38450D01*
X34645Y-38915D01*
X34760Y-39328D01*
X34913Y-39638D01*
X35143Y-39897D01*
X35450Y-40000D01*
X35757Y-39897D01*
X35987Y-39638D01*
X36140Y-39328D01*
X36255Y-38915D01*
X36293Y-38450D01*
X36255Y-37985D01*
X36140Y-37572D01*
X35987Y-37262D01*
X35757Y-37003D01*
X35450Y-36900D01*
G01X30058Y15893D02*
X29903Y15663D01*
X29800Y15395D01*
Y15088D01*
X29955Y14743D01*
X30213Y14475D01*
X30523Y14283D01*
X31040Y14130D01*
X31505Y14092D01*
X31970Y14168D01*
X32280Y14283D01*
X32590Y14513D01*
X32797Y14782D01*
X32900Y15050D01*
Y15318D01*
X32797Y15587D01*
X32642Y15817D01*
X32435Y16008D01*
G01X30317Y17422D02*
X30007Y17652D01*
X29852Y17920D01*
X29800Y18227D01*
X29903Y18610D01*
X30162Y18878D01*
X30472Y18955D01*
X30782Y18917D01*
X31040Y18763D01*
X31557Y17997D01*
X31918Y17652D01*
X32435Y17422D01*
X32900Y17345D01*
Y18955D01*
G01X31608Y20522D02*
X31247Y20790D01*
X31040Y21020D01*
X30937Y21327D01*
X31040Y21595D01*
X31247Y21787D01*
X31557Y21940D01*
X31918Y21978D01*
X32228Y21940D01*
X32538Y21787D01*
X32797Y21557D01*
X32900Y21288D01*
X32797Y20982D01*
X32487Y20713D01*
X32022Y20560D01*
X31505Y20522D01*
X30833Y20598D01*
X30472Y20713D01*
X30110Y20905D01*
X29852Y21173D01*
X29800Y21442D01*
X29903Y21710D01*
X30162Y21902D01*
G01X24150Y53500D02*
X23843Y53552D01*
X23575Y53758D01*
X23345Y54068D01*
X23192Y54430D01*
X23115Y54843D01*
Y55257D01*
X23192Y55670D01*
X23345Y56032D01*
X23575Y56342D01*
X23843Y56548D01*
X24150Y56600D01*
X24457Y56548D01*
X24725Y56342D01*
X24955Y56032D01*
X25108Y55670D01*
X25185Y55257D01*
Y54843D01*
X25108Y54430D01*
X24955Y54068D01*
X24725Y53758D01*
X24457Y53552D01*
X24150Y53500D01*
G01X26190Y52600D02*
X27110D01*
G01X26650D02*
Y49500D01*
G01X26190D02*
X27110D01*
G01X17817Y54700D02*
X16283D01*
Y57800D01*
X17817D01*
G01X17203Y56302D02*
X16283D01*
G01X28858Y56193D02*
X28703Y55963D01*
X28600Y55695D01*
Y55388D01*
X28755Y55043D01*
X29013Y54775D01*
X29323Y54583D01*
X29840Y54430D01*
X30305Y54392D01*
X30770Y54468D01*
X31080Y54583D01*
X31390Y54813D01*
X31597Y55082D01*
X31700Y55350D01*
Y55618D01*
X31597Y55887D01*
X31442Y56117D01*
X31235Y56308D01*
G01X31700Y58450D02*
X28600D01*
X29220Y57990D01*
G01X31700D02*
Y58910D01*
G01Y62010D02*
X28600D01*
X30822Y60592D01*
Y62508D01*
G01X23307Y57400D02*
Y60500D01*
G01X24763D02*
X23307Y58588D01*
G01X24993Y57400D02*
X23958Y59467D01*
G01X20745Y61513D02*
X21052Y61255D01*
X21397Y61100D01*
X21703D01*
X22010Y61255D01*
X22240Y61513D01*
X22355Y61875D01*
X22278Y62237D01*
X22087Y62547D01*
X21742Y62753D01*
X21282Y62857D01*
X21013Y63063D01*
X20898Y63425D01*
X20975Y63787D01*
X21167Y64045D01*
X21435Y64200D01*
X21703D01*
X21972Y64097D01*
X22202Y63838D01*
G01X28958Y72093D02*
X28803Y71863D01*
X28700Y71595D01*
Y71288D01*
X28855Y70943D01*
X29113Y70675D01*
X29423Y70483D01*
X29940Y70330D01*
X30405Y70292D01*
X30870Y70368D01*
X31180Y70483D01*
X31490Y70713D01*
X31697Y70982D01*
X31800Y71250D01*
Y71518D01*
X31697Y71787D01*
X31542Y72017D01*
X31335Y72208D01*
G01X31800Y74273D02*
X31128Y74350D01*
X30560Y74465D01*
X30043Y74618D01*
X29475Y74810D01*
X28700Y75117D01*
Y73583D01*
G01X25700Y78507D02*
X22600D01*
Y79273D01*
X22755Y79580D01*
X22962Y79810D01*
X23272Y80002D01*
X23633Y80155D01*
X24150Y80193D01*
X24667Y80155D01*
X25028Y80002D01*
X25338Y79810D01*
X25545Y79580D01*
X25700Y79273D01*
Y78507D01*
G01X25287Y81645D02*
X25545Y81952D01*
X25700Y82297D01*
Y82603D01*
X25545Y82910D01*
X25287Y83140D01*
X24925Y83255D01*
X24563Y83178D01*
X24253Y82987D01*
X24047Y82642D01*
X23943Y82182D01*
X23737Y81913D01*
X23375Y81798D01*
X23013Y81875D01*
X22755Y82067D01*
X22600Y82335D01*
Y82603D01*
X22703Y82872D01*
X22962Y83102D01*
G01X25700Y86010D02*
X22600D01*
X24822Y84592D01*
Y86508D01*
G01X22000Y78507D02*
X18900D01*
Y79273D01*
X19055Y79580D01*
X19262Y79810D01*
X19572Y80002D01*
X19933Y80155D01*
X20450Y80193D01*
X20967Y80155D01*
X21328Y80002D01*
X21638Y79810D01*
X21845Y79580D01*
X22000Y79273D01*
Y78507D01*
G01X21587Y81645D02*
X21845Y81952D01*
X22000Y82297D01*
Y82603D01*
X21845Y82910D01*
X21587Y83140D01*
X21225Y83255D01*
X20863Y83178D01*
X20553Y82987D01*
X20347Y82642D01*
X20243Y82182D01*
X20037Y81913D01*
X19675Y81798D01*
X19313Y81875D01*
X19055Y82067D01*
X18900Y82335D01*
Y82603D01*
X19003Y82872D01*
X19262Y83102D01*
G01X21535Y84707D02*
X21793Y84937D01*
X21948Y85205D01*
X22000Y85550D01*
X21897Y85895D01*
X21690Y86163D01*
X21328Y86355D01*
X20915Y86393D01*
X20502Y86317D01*
X20243Y86125D01*
X20037Y85857D01*
X19985Y85588D01*
X20037Y85320D01*
X20243Y84975D01*
X18900Y85090D01*
Y86125D01*
G01X18300Y78507D02*
X15200D01*
Y79273D01*
X15355Y79580D01*
X15562Y79810D01*
X15872Y80002D01*
X16233Y80155D01*
X16750Y80193D01*
X17267Y80155D01*
X17628Y80002D01*
X17938Y79810D01*
X18145Y79580D01*
X18300Y79273D01*
Y78507D01*
G01X17887Y81645D02*
X18145Y81952D01*
X18300Y82297D01*
Y82603D01*
X18145Y82910D01*
X17887Y83140D01*
X17525Y83255D01*
X17163Y83178D01*
X16853Y82987D01*
X16647Y82642D01*
X16543Y82182D01*
X16337Y81913D01*
X15975Y81798D01*
X15613Y81875D01*
X15355Y82067D01*
X15200Y82335D01*
Y82603D01*
X15303Y82872D01*
X15562Y83102D01*
G01X17008Y84822D02*
X16647Y85090D01*
X16440Y85320D01*
X16337Y85627D01*
X16440Y85895D01*
X16647Y86087D01*
X16957Y86240D01*
X17318Y86278D01*
X17628Y86240D01*
X17938Y86087D01*
X18197Y85857D01*
X18300Y85588D01*
X18197Y85282D01*
X17887Y85013D01*
X17422Y84860D01*
X16905Y84822D01*
X16233Y84898D01*
X15872Y85013D01*
X15510Y85205D01*
X15252Y85473D01*
X15200Y85742D01*
X15303Y86010D01*
X15562Y86202D01*
G01X17800Y92100D02*
Y94350D01*
X16533Y97100D01*
G01X19067D02*
X17800Y94350D01*
G01X22203Y93767D02*
X23723D01*
G01X22900Y94850D02*
Y92683D01*
G01X35336Y-18452D02*
X35370Y-18851D01*
X35505Y-19205D01*
X35722Y-19422D01*
X36048Y-19529D01*
X36393Y-19509D01*
X36730Y-19334D01*
X36932Y-19024D01*
X37016Y-18670D01*
X36918Y-18280D01*
X36666Y-17881D01*
X36622Y-17545D01*
X36796Y-17208D01*
X37106Y-17007D01*
X37424Y-16960D01*
X37724Y-17040D01*
X37914Y-17230D01*
X38030Y-17492D01*
X38010Y-17838D01*
G01X39184Y-18500D02*
X37371Y-21071D01*
X39997Y-19313D01*
X38239Y-21939D01*
X40810Y-20126D01*
G01X41309Y-21355D02*
X41691Y-21299D01*
X41990Y-21379D01*
X42243Y-21559D01*
X42441Y-21903D01*
X42448Y-22276D01*
X42284Y-22549D01*
X42037Y-22741D01*
X41746Y-22816D01*
X40839Y-22639D01*
X40339Y-22651D01*
X39811Y-22853D01*
X39428Y-23128D01*
X40566Y-24266D01*
G01X39858Y7193D02*
X39703Y6963D01*
X39600Y6695D01*
Y6388D01*
X39755Y6043D01*
X40013Y5775D01*
X40323Y5583D01*
X40840Y5430D01*
X41305Y5392D01*
X41770Y5468D01*
X42080Y5583D01*
X42390Y5813D01*
X42597Y6082D01*
X42700Y6350D01*
Y6618D01*
X42597Y6887D01*
X42442Y7117D01*
X42235Y7308D01*
G01X40117Y8722D02*
X39807Y8952D01*
X39652Y9220D01*
X39600Y9527D01*
X39703Y9910D01*
X39962Y10178D01*
X40272Y10255D01*
X40582Y10217D01*
X40840Y10063D01*
X41357Y9297D01*
X41718Y8952D01*
X42235Y8722D01*
X42700Y8645D01*
Y10255D01*
G01Y12473D02*
X42028Y12550D01*
X41460Y12665D01*
X40943Y12818D01*
X40375Y13010D01*
X39600Y13317D01*
Y11783D01*
G01X43000Y-2617D02*
X39900D01*
Y-1658D01*
X40055Y-1352D01*
X40262Y-1160D01*
X40675Y-1083D01*
X41088Y-1160D01*
X41347Y-1390D01*
X41502Y-1658D01*
Y-2617D01*
G01Y-1658D02*
X43000Y-1083D01*
G01Y1710D02*
X39900D01*
X42122Y292D01*
Y2208D01*
G01X45750Y20600D02*
X45443Y20652D01*
X45175Y20858D01*
X44945Y21168D01*
X44792Y21530D01*
X44715Y21943D01*
Y22357D01*
X44792Y22770D01*
X44945Y23132D01*
X45175Y23442D01*
X45443Y23648D01*
X45750Y23700D01*
X46057Y23648D01*
X46325Y23442D01*
X46555Y23132D01*
X46708Y22770D01*
X46785Y22357D01*
Y21943D01*
X46708Y21530D01*
X46555Y21168D01*
X46325Y20858D01*
X46057Y20652D01*
X45750Y20600D01*
G01X46057Y21427D02*
X46517Y20600D01*
G01X48850D02*
Y23700D01*
X48390Y23080D01*
G01Y20600D02*
X49310D01*
G01X38183Y29400D02*
Y32500D01*
X39142D01*
X39448Y32345D01*
X39640Y32138D01*
X39717Y31725D01*
X39640Y31312D01*
X39410Y31053D01*
X39142Y30898D01*
X38183D01*
G01X39142D02*
X39717Y29400D01*
G01X41398Y29762D02*
X41667Y29503D01*
X41973Y29400D01*
X42280Y29503D01*
X42548Y29813D01*
X42740Y30278D01*
X42817Y30743D01*
Y31312D01*
X42740Y31777D01*
X42548Y32190D01*
X42318Y32397D01*
X42050Y32500D01*
X41743Y32397D01*
X41513Y32190D01*
X41360Y31880D01*
X41283Y31467D01*
X41360Y31105D01*
X41552Y30743D01*
X41782Y30537D01*
X42050Y30485D01*
X42357Y30588D01*
X42587Y30847D01*
X42817Y31312D01*
G01X37158Y35693D02*
X37003Y35463D01*
X36900Y35195D01*
Y34888D01*
X37055Y34543D01*
X37313Y34275D01*
X37623Y34083D01*
X38140Y33930D01*
X38605Y33892D01*
X39070Y33968D01*
X39380Y34083D01*
X39690Y34313D01*
X39897Y34582D01*
X40000Y34850D01*
Y35118D01*
X39897Y35387D01*
X39742Y35617D01*
X39535Y35808D01*
G01X37417Y37222D02*
X37107Y37452D01*
X36952Y37720D01*
X36900Y38027D01*
X37003Y38410D01*
X37262Y38678D01*
X37572Y38755D01*
X37882Y38717D01*
X38140Y38563D01*
X38657Y37797D01*
X39018Y37452D01*
X39535Y37222D01*
X40000Y37145D01*
Y38755D01*
G01X39535Y40207D02*
X39793Y40437D01*
X39948Y40705D01*
X40000Y41050D01*
X39897Y41395D01*
X39690Y41663D01*
X39328Y41855D01*
X38915Y41893D01*
X38502Y41817D01*
X38243Y41625D01*
X38037Y41357D01*
X37985Y41088D01*
X38037Y40820D01*
X38243Y40475D01*
X36900Y40590D01*
Y41625D01*
G01X36483Y43300D02*
Y46400D01*
X37442D01*
X37748Y46245D01*
X37940Y46038D01*
X38017Y45625D01*
X37940Y45212D01*
X37710Y44953D01*
X37442Y44798D01*
X36483D01*
G01X37442D02*
X38017Y43300D01*
G01X40350D02*
X40043Y43352D01*
X39775Y43558D01*
X39545Y43868D01*
X39392Y44230D01*
X39315Y44643D01*
Y45057D01*
X39392Y45470D01*
X39545Y45832D01*
X39775Y46142D01*
X40043Y46348D01*
X40350Y46400D01*
X40657Y46348D01*
X40925Y46142D01*
X41155Y45832D01*
X41308Y45470D01*
X41385Y45057D01*
Y44643D01*
X41308Y44230D01*
X41155Y43868D01*
X40925Y43558D01*
X40657Y43352D01*
X40350Y43300D01*
G01X40657Y44127D02*
X41117Y43300D01*
G01X49200Y45283D02*
X46100D01*
Y46242D01*
X46255Y46548D01*
X46462Y46740D01*
X46875Y46817D01*
X47288Y46740D01*
X47547Y46510D01*
X47702Y46242D01*
Y45283D01*
G01Y46242D02*
X49200Y46817D01*
G01Y49073D02*
X48528Y49150D01*
X47960Y49265D01*
X47443Y49418D01*
X46875Y49610D01*
X46100Y49917D01*
Y48383D01*
G01X46583Y40700D02*
Y43800D01*
X47542D01*
X47848Y43645D01*
X48040Y43438D01*
X48117Y43025D01*
X48040Y42612D01*
X47810Y42353D01*
X47542Y42198D01*
X46583D01*
G01X47542D02*
X48117Y40700D01*
G01X50450D02*
X50718Y40752D01*
X51025Y40907D01*
X51217Y41165D01*
X51293Y41527D01*
X51217Y41888D01*
X50987Y42198D01*
X50642Y42353D01*
X50258D01*
X50028Y42457D01*
X49837Y42715D01*
X49760Y43077D01*
X49875Y43438D01*
X50143Y43697D01*
X50450Y43800D01*
X50757Y43697D01*
X51025Y43438D01*
X51140Y43077D01*
X51063Y42715D01*
X50872Y42457D01*
X50642Y42353D01*
X50258D01*
X49913Y42198D01*
X49683Y41888D01*
X49607Y41527D01*
X49683Y41165D01*
X49875Y40907D01*
X50182Y40752D01*
X50450Y40700D01*
G01X32158Y78693D02*
X32003Y78463D01*
X31900Y78195D01*
Y77888D01*
X32055Y77543D01*
X32313Y77275D01*
X32623Y77083D01*
X33140Y76930D01*
X33605Y76892D01*
X34070Y76968D01*
X34380Y77083D01*
X34690Y77313D01*
X34897Y77582D01*
X35000Y77850D01*
Y78118D01*
X34897Y78387D01*
X34742Y78617D01*
X34535Y78808D01*
G01X34638Y80298D02*
X34897Y80567D01*
X35000Y80873D01*
X34897Y81180D01*
X34587Y81448D01*
X34122Y81640D01*
X33657Y81717D01*
X33088D01*
X32623Y81640D01*
X32210Y81448D01*
X32003Y81218D01*
X31900Y80950D01*
X32003Y80643D01*
X32210Y80413D01*
X32520Y80260D01*
X32933Y80183D01*
X33295Y80260D01*
X33657Y80452D01*
X33863Y80682D01*
X33915Y80950D01*
X33812Y81257D01*
X33553Y81487D01*
X33088Y81717D01*
G01X46193Y99242D02*
X45963Y99397D01*
X45695Y99500D01*
X45388D01*
X45043Y99345D01*
X44775Y99087D01*
X44583Y98777D01*
X44430Y98260D01*
X44392Y97795D01*
X44468Y97330D01*
X44583Y97020D01*
X44813Y96710D01*
X45082Y96503D01*
X45350Y96400D01*
X45618D01*
X45887Y96503D01*
X46117Y96658D01*
X46308Y96865D01*
G01X48450Y96400D02*
X48718Y96452D01*
X49025Y96607D01*
X49217Y96865D01*
X49293Y97227D01*
X49217Y97588D01*
X48987Y97898D01*
X48642Y98053D01*
X48258D01*
X48028Y98157D01*
X47837Y98415D01*
X47760Y98777D01*
X47875Y99138D01*
X48143Y99397D01*
X48450Y99500D01*
X48757Y99397D01*
X49025Y99138D01*
X49140Y98777D01*
X49063Y98415D01*
X48872Y98157D01*
X48642Y98053D01*
X48258D01*
X47913Y97898D01*
X47683Y97588D01*
X47607Y97227D01*
X47683Y96865D01*
X47875Y96607D01*
X48182Y96452D01*
X48450Y96400D01*
G01X37393Y99042D02*
X37163Y99197D01*
X36895Y99300D01*
X36588D01*
X36243Y99145D01*
X35975Y98887D01*
X35783Y98577D01*
X35630Y98060D01*
X35592Y97595D01*
X35668Y97130D01*
X35783Y96820D01*
X36013Y96510D01*
X36282Y96303D01*
X36550Y96200D01*
X36818D01*
X37087Y96303D01*
X37317Y96458D01*
X37508Y96665D01*
G01X39650Y96200D02*
Y99300D01*
X39190Y98680D01*
G01Y96200D02*
X40110D01*
G01X42022Y97492D02*
X42290Y97853D01*
X42520Y98060D01*
X42827Y98163D01*
X43095Y98060D01*
X43287Y97853D01*
X43440Y97543D01*
X43478Y97182D01*
X43440Y96872D01*
X43287Y96562D01*
X43057Y96303D01*
X42788Y96200D01*
X42482Y96303D01*
X42213Y96613D01*
X42060Y97078D01*
X42022Y97595D01*
X42098Y98267D01*
X42213Y98628D01*
X42405Y98990D01*
X42673Y99248D01*
X42942Y99300D01*
X43210Y99197D01*
X43402Y98938D01*
G01X56207Y-76200D02*
Y-78422D01*
X56360Y-78887D01*
X56667Y-79197D01*
X57050Y-79300D01*
X57433Y-79197D01*
X57740Y-78887D01*
X57893Y-78422D01*
Y-76200D01*
G01X60610Y-79300D02*
Y-76200D01*
X59192Y-78422D01*
X61108D01*
G01X55983Y-46400D02*
Y-43300D01*
X56942D01*
X57248Y-43455D01*
X57440Y-43662D01*
X57517Y-44075D01*
X57440Y-44488D01*
X57210Y-44747D01*
X56942Y-44902D01*
X55983D01*
G01X56942D02*
X57517Y-46400D01*
G01X59850D02*
Y-43300D01*
X59390Y-43920D01*
G01Y-46400D02*
X60310D01*
G01X62298Y-46038D02*
X62567Y-46297D01*
X62873Y-46400D01*
X63180Y-46297D01*
X63448Y-45987D01*
X63640Y-45522D01*
X63717Y-45057D01*
Y-44488D01*
X63640Y-44023D01*
X63448Y-43610D01*
X63218Y-43403D01*
X62950Y-43300D01*
X62643Y-43403D01*
X62413Y-43610D01*
X62260Y-43920D01*
X62183Y-44333D01*
X62260Y-44695D01*
X62452Y-45057D01*
X62682Y-45263D01*
X62950Y-45315D01*
X63257Y-45212D01*
X63487Y-44953D01*
X63717Y-44488D01*
G01X64100Y-55017D02*
X61000D01*
Y-54058D01*
X61155Y-53752D01*
X61362Y-53560D01*
X61775Y-53483D01*
X62188Y-53560D01*
X62447Y-53790D01*
X62602Y-54058D01*
Y-55017D01*
G01Y-54058D02*
X64100Y-53483D01*
G01Y-51150D02*
X61000D01*
X61620Y-51610D01*
G01X64100D02*
Y-50690D01*
G01X63635Y-48893D02*
X63893Y-48663D01*
X64048Y-48395D01*
X64100Y-48050D01*
X63997Y-47705D01*
X63790Y-47437D01*
X63428Y-47245D01*
X63015Y-47207D01*
X62602Y-47283D01*
X62343Y-47475D01*
X62137Y-47743D01*
X62085Y-48012D01*
X62137Y-48280D01*
X62343Y-48625D01*
X61000Y-48510D01*
Y-47475D01*
G01X55883Y-39200D02*
Y-36100D01*
X56842D01*
X57148Y-36255D01*
X57340Y-36462D01*
X57417Y-36875D01*
X57340Y-37288D01*
X57110Y-37547D01*
X56842Y-37702D01*
X55883D01*
G01X56842D02*
X57417Y-39200D01*
G01X59750D02*
Y-36100D01*
X59290Y-36720D01*
G01Y-39200D02*
X60210D01*
G01X62850D02*
X63118Y-39148D01*
X63425Y-38993D01*
X63617Y-38735D01*
X63693Y-38373D01*
X63617Y-38012D01*
X63387Y-37702D01*
X63042Y-37547D01*
X62658D01*
X62428Y-37443D01*
X62237Y-37185D01*
X62160Y-36823D01*
X62275Y-36462D01*
X62543Y-36203D01*
X62850Y-36100D01*
X63157Y-36203D01*
X63425Y-36462D01*
X63540Y-36823D01*
X63463Y-37185D01*
X63272Y-37443D01*
X63042Y-37547D01*
X62658D01*
X62313Y-37702D01*
X62083Y-38012D01*
X62007Y-38373D01*
X62083Y-38735D01*
X62275Y-38993D01*
X62582Y-39148D01*
X62850Y-39200D01*
G01X56183Y-28800D02*
Y-25700D01*
X57142D01*
X57448Y-25855D01*
X57640Y-26062D01*
X57717Y-26475D01*
X57640Y-26888D01*
X57410Y-27147D01*
X57142Y-27302D01*
X56183D01*
G01X57142D02*
X57717Y-28800D01*
G01X60050D02*
Y-25700D01*
X59590Y-26320D01*
G01Y-28800D02*
X60510D01*
G01X63073D02*
X63150Y-28128D01*
X63265Y-27560D01*
X63418Y-27043D01*
X63610Y-26475D01*
X63917Y-25700D01*
X62383D01*
G01X54570Y-8760D02*
X49570D01*
X53153Y-11103D01*
Y-7937D01*
G01X55883Y-20500D02*
Y-17400D01*
X56842D01*
X57148Y-17555D01*
X57340Y-17762D01*
X57417Y-18175D01*
X57340Y-18588D01*
X57110Y-18847D01*
X56842Y-19002D01*
X55883D01*
G01X56842D02*
X57417Y-20500D01*
G01X59750D02*
Y-17400D01*
X59290Y-18020D01*
G01Y-20500D02*
X60210D01*
G01X62122Y-19208D02*
X62390Y-18847D01*
X62620Y-18640D01*
X62927Y-18537D01*
X63195Y-18640D01*
X63387Y-18847D01*
X63540Y-19157D01*
X63578Y-19518D01*
X63540Y-19828D01*
X63387Y-20138D01*
X63157Y-20397D01*
X62888Y-20500D01*
X62582Y-20397D01*
X62313Y-20087D01*
X62160Y-19622D01*
X62122Y-19105D01*
X62198Y-18433D01*
X62313Y-18072D01*
X62505Y-17710D01*
X62773Y-17452D01*
X63042Y-17400D01*
X63310Y-17503D01*
X63502Y-17762D01*
G01X53820Y-913D02*
X54237Y-533D01*
X54487Y-90D01*
X54570Y480D01*
X54403Y1050D01*
X54070Y1493D01*
X53487Y1810D01*
X52820Y1873D01*
X52153Y1747D01*
X51737Y1430D01*
X51403Y987D01*
X51320Y543D01*
X51403Y100D01*
X51737Y-470D01*
X49570Y-280D01*
Y1430D01*
G01X52487Y9177D02*
X51903Y9620D01*
X51570Y10000D01*
X51403Y10507D01*
X51570Y10950D01*
X51903Y11267D01*
X52403Y11520D01*
X52987Y11583D01*
X53487Y11520D01*
X53987Y11267D01*
X54403Y10887D01*
X54570Y10443D01*
X54403Y9937D01*
X53903Y9493D01*
X53153Y9240D01*
X52320Y9177D01*
X51237Y9303D01*
X50653Y9493D01*
X50070Y9810D01*
X49653Y10253D01*
X49570Y10697D01*
X49737Y11140D01*
X50153Y11457D01*
G01X63850Y54200D02*
Y55595D01*
X63083Y57300D01*
G01X64617D02*
X63850Y55595D01*
G01X66950Y54200D02*
Y57300D01*
X66490Y56680D01*
G01Y54200D02*
X67410D01*
G01X52283Y68400D02*
Y71500D01*
X53242D01*
X53548Y71345D01*
X53740Y71138D01*
X53817Y70725D01*
X53740Y70312D01*
X53510Y70053D01*
X53242Y69898D01*
X52283D01*
G01X53242D02*
X53817Y68400D01*
G01X56150D02*
Y71500D01*
X55690Y70880D01*
G01Y68400D02*
X56610D01*
G01X58522Y70983D02*
X58752Y71293D01*
X59020Y71448D01*
X59327Y71500D01*
X59710Y71397D01*
X59978Y71138D01*
X60055Y70828D01*
X60017Y70518D01*
X59863Y70260D01*
X59097Y69743D01*
X58752Y69382D01*
X58522Y68865D01*
X58445Y68400D01*
X60055D01*
G01X54507Y90200D02*
Y87978D01*
X54660Y87513D01*
X54967Y87203D01*
X55350Y87100D01*
X55733Y87203D01*
X56040Y87513D01*
X56193Y87978D01*
Y90200D01*
G01X57607Y87720D02*
X57837Y87358D01*
X58143Y87152D01*
X58488Y87100D01*
X58795Y87152D01*
X59102Y87410D01*
X59293Y87720D01*
X59332Y88030D01*
X59255Y88392D01*
X58987Y88650D01*
X58718Y88753D01*
X58373D01*
G01X58718D02*
X58948Y88908D01*
X59140Y89167D01*
X59217Y89477D01*
X59140Y89787D01*
X58948Y90045D01*
X58603Y90200D01*
X58258Y90148D01*
X57913Y89942D01*
G01X54883Y91900D02*
Y95000D01*
X55842D01*
X56148Y94845D01*
X56340Y94638D01*
X56417Y94225D01*
X56340Y93812D01*
X56110Y93553D01*
X55842Y93398D01*
X54883D01*
G01X55842D02*
X56417Y91900D01*
G01X58750D02*
Y95000D01*
X58290Y94380D01*
G01Y91900D02*
X59210D01*
G01X61007Y92520D02*
X61237Y92158D01*
X61543Y91952D01*
X61888Y91900D01*
X62195Y91952D01*
X62502Y92210D01*
X62693Y92520D01*
X62732Y92830D01*
X62655Y93192D01*
X62387Y93450D01*
X62118Y93553D01*
X61773D01*
G01X62118D02*
X62348Y93708D01*
X62540Y93967D01*
X62617Y94277D01*
X62540Y94587D01*
X62348Y94845D01*
X62003Y95000D01*
X61658Y94948D01*
X61313Y94742D01*
G01X69093Y-62758D02*
X68863Y-62603D01*
X68595Y-62500D01*
X68288D01*
X67943Y-62655D01*
X67675Y-62913D01*
X67483Y-63223D01*
X67330Y-63740D01*
X67292Y-64205D01*
X67368Y-64670D01*
X67483Y-64980D01*
X67713Y-65290D01*
X67982Y-65497D01*
X68250Y-65600D01*
X68518D01*
X68787Y-65497D01*
X69017Y-65342D01*
X69208Y-65135D01*
G01X71350Y-65600D02*
Y-62500D01*
X70890Y-63120D01*
G01Y-65600D02*
X71810D01*
G01X74373D02*
X74450Y-64928D01*
X74565Y-64360D01*
X74718Y-63843D01*
X74910Y-63275D01*
X75217Y-62500D01*
X73683D01*
G01X83100Y-57517D02*
X80000D01*
Y-56558D01*
X80155Y-56252D01*
X80362Y-56060D01*
X80775Y-55983D01*
X81188Y-56060D01*
X81447Y-56290D01*
X81602Y-56558D01*
Y-57517D01*
G01Y-56558D02*
X83100Y-55983D01*
G01Y-53650D02*
X80000D01*
X80620Y-54110D01*
G01X83100D02*
Y-53190D01*
G01Y-50090D02*
X80000D01*
X82222Y-51508D01*
Y-49592D01*
G01X70093Y-48158D02*
X69863Y-48003D01*
X69595Y-47900D01*
X69288D01*
X68943Y-48055D01*
X68675Y-48313D01*
X68483Y-48623D01*
X68330Y-49140D01*
X68292Y-49605D01*
X68368Y-50070D01*
X68483Y-50380D01*
X68713Y-50690D01*
X68982Y-50897D01*
X69250Y-51000D01*
X69518D01*
X69787Y-50897D01*
X70017Y-50742D01*
X70208Y-50535D01*
G01X72350Y-51000D02*
Y-47900D01*
X71890Y-48520D01*
G01Y-51000D02*
X72810D01*
G01X75450D02*
X75718Y-50948D01*
X76025Y-50793D01*
X76217Y-50535D01*
X76293Y-50173D01*
X76217Y-49812D01*
X75987Y-49502D01*
X75642Y-49347D01*
X75258D01*
X75028Y-49243D01*
X74837Y-48985D01*
X74760Y-48623D01*
X74875Y-48262D01*
X75143Y-48003D01*
X75450Y-47900D01*
X75757Y-48003D01*
X76025Y-48262D01*
X76140Y-48623D01*
X76063Y-48985D01*
X75872Y-49243D01*
X75642Y-49347D01*
X75258D01*
X74913Y-49502D01*
X74683Y-49812D01*
X74607Y-50173D01*
X74683Y-50535D01*
X74875Y-50793D01*
X75182Y-50948D01*
X75450Y-51000D01*
G01X78807Y-19600D02*
Y-16500D01*
X79573D01*
X79880Y-16655D01*
X80110Y-16862D01*
X80302Y-17172D01*
X80455Y-17533D01*
X80493Y-18050D01*
X80455Y-18567D01*
X80302Y-18928D01*
X80110Y-19238D01*
X79880Y-19445D01*
X79573Y-19600D01*
X78807D01*
G01X81945Y-19187D02*
X82252Y-19445D01*
X82597Y-19600D01*
X82903D01*
X83210Y-19445D01*
X83440Y-19187D01*
X83555Y-18825D01*
X83478Y-18463D01*
X83287Y-18153D01*
X82942Y-17947D01*
X82482Y-17843D01*
X82213Y-17637D01*
X82098Y-17275D01*
X82175Y-16913D01*
X82367Y-16655D01*
X82635Y-16500D01*
X82903D01*
X83172Y-16603D01*
X83402Y-16862D01*
G01X85850Y-19600D02*
Y-16500D01*
X85390Y-17120D01*
G01Y-19600D02*
X86310D01*
G01X88107Y-18980D02*
X88337Y-19342D01*
X88643Y-19548D01*
X88988Y-19600D01*
X89295Y-19548D01*
X89602Y-19290D01*
X89793Y-18980D01*
X89832Y-18670D01*
X89755Y-18308D01*
X89487Y-18050D01*
X89218Y-17947D01*
X88873D01*
G01X89218D02*
X89448Y-17792D01*
X89640Y-17533D01*
X89717Y-17223D01*
X89640Y-16913D01*
X89448Y-16655D01*
X89103Y-16500D01*
X88758Y-16552D01*
X88413Y-16758D01*
G01X78807Y-15900D02*
Y-12800D01*
X79573D01*
X79880Y-12955D01*
X80110Y-13162D01*
X80302Y-13472D01*
X80455Y-13833D01*
X80493Y-14350D01*
X80455Y-14867D01*
X80302Y-15228D01*
X80110Y-15538D01*
X79880Y-15745D01*
X79573Y-15900D01*
X78807D01*
G01X81945Y-15487D02*
X82252Y-15745D01*
X82597Y-15900D01*
X82903D01*
X83210Y-15745D01*
X83440Y-15487D01*
X83555Y-15125D01*
X83478Y-14763D01*
X83287Y-14453D01*
X82942Y-14247D01*
X82482Y-14143D01*
X82213Y-13937D01*
X82098Y-13575D01*
X82175Y-13213D01*
X82367Y-12955D01*
X82635Y-12800D01*
X82903D01*
X83172Y-12903D01*
X83402Y-13162D01*
G01X85850Y-15900D02*
Y-12800D01*
X85390Y-13420D01*
G01Y-15900D02*
X86310D01*
G01X89410D02*
Y-12800D01*
X87992Y-15022D01*
X89908D01*
G01X69200Y-11933D02*
X69450Y-11800D01*
X69617Y-11640D01*
X69700Y-11453D01*
X69617Y-11240D01*
X69450Y-11080D01*
X69200Y-10920D01*
X68867Y-10867D01*
X67200D01*
G01X68658Y-9707D02*
X68367Y-9520D01*
X68200Y-9360D01*
X68117Y-9147D01*
X68200Y-8960D01*
X68367Y-8827D01*
X68617Y-8720D01*
X68908Y-8693D01*
X69158Y-8720D01*
X69408Y-8827D01*
X69617Y-8987D01*
X69700Y-9173D01*
X69617Y-9387D01*
X69367Y-9573D01*
X68992Y-9680D01*
X68575Y-9707D01*
X68033Y-9653D01*
X67742Y-9573D01*
X67450Y-9440D01*
X67242Y-9253D01*
X67200Y-9067D01*
X67283Y-8880D01*
X67492Y-8747D01*
G01X79207Y14100D02*
Y17200D01*
X79973D01*
X80280Y17045D01*
X80510Y16838D01*
X80702Y16528D01*
X80855Y16167D01*
X80893Y15650D01*
X80855Y15133D01*
X80702Y14772D01*
X80510Y14462D01*
X80280Y14255D01*
X79973Y14100D01*
X79207D01*
G01X82345Y14513D02*
X82652Y14255D01*
X82997Y14100D01*
X83303D01*
X83610Y14255D01*
X83840Y14513D01*
X83955Y14875D01*
X83878Y15237D01*
X83687Y15547D01*
X83342Y15753D01*
X82882Y15857D01*
X82613Y16063D01*
X82498Y16425D01*
X82575Y16787D01*
X82767Y17045D01*
X83035Y17200D01*
X83303D01*
X83572Y17097D01*
X83802Y16838D01*
G01X86250Y14100D02*
Y17200D01*
X85790Y16580D01*
G01Y14100D02*
X86710D01*
G01X88507Y14565D02*
X88737Y14307D01*
X89005Y14152D01*
X89350Y14100D01*
X89695Y14203D01*
X89963Y14410D01*
X90155Y14772D01*
X90193Y15185D01*
X90117Y15598D01*
X89925Y15857D01*
X89657Y16063D01*
X89388Y16115D01*
X89120Y16063D01*
X88775Y15857D01*
X88890Y17200D01*
X89925D01*
G01X79000Y63283D02*
X82100D01*
Y64817D01*
G01X81480Y66307D02*
X81842Y66537D01*
X82048Y66843D01*
X82100Y67188D01*
X82048Y67495D01*
X81790Y67802D01*
X81480Y67993D01*
X81170Y68032D01*
X80808Y67955D01*
X80550Y67687D01*
X80447Y67418D01*
Y67073D01*
G01Y67418D02*
X80292Y67648D01*
X80033Y67840D01*
X79723Y67917D01*
X79413Y67840D01*
X79155Y67648D01*
X79000Y67303D01*
X79052Y66958D01*
X79258Y66613D01*
G01X74900Y66683D02*
X78000D01*
Y68217D01*
G01X75417Y69822D02*
X75107Y70052D01*
X74952Y70320D01*
X74900Y70627D01*
X75003Y71010D01*
X75262Y71278D01*
X75572Y71355D01*
X75882Y71317D01*
X76140Y71163D01*
X76657Y70397D01*
X77018Y70052D01*
X77535Y69822D01*
X78000Y69745D01*
Y71355D01*
G01X79483Y72000D02*
Y68900D01*
X81017D01*
G01X83350D02*
Y72000D01*
X82890Y71380D01*
G01Y68900D02*
X83810D01*
G01X65158Y61293D02*
X65003Y61063D01*
X64900Y60795D01*
Y60488D01*
X65055Y60143D01*
X65313Y59875D01*
X65623Y59683D01*
X66140Y59530D01*
X66605Y59492D01*
X67070Y59568D01*
X67380Y59683D01*
X67690Y59913D01*
X67897Y60182D01*
X68000Y60450D01*
Y60718D01*
X67897Y60987D01*
X67742Y61217D01*
X67535Y61408D01*
G01X68000Y63550D02*
X64900D01*
X65520Y63090D01*
G01X68000D02*
Y64010D01*
G01X67535Y65807D02*
X67793Y66037D01*
X67948Y66305D01*
X68000Y66650D01*
X67897Y66995D01*
X67690Y67263D01*
X67328Y67455D01*
X66915Y67493D01*
X66502Y67417D01*
X66243Y67225D01*
X66037Y66957D01*
X65985Y66688D01*
X66037Y66420D01*
X66243Y66075D01*
X64900Y66190D01*
Y67225D01*
G01X88550Y-61300D02*
Y-64400D01*
G01X87668Y-61300D02*
X89432D01*
G01X90883Y-64400D02*
Y-61300D01*
X91803D01*
X92110Y-61455D01*
X92340Y-61817D01*
X92417Y-62230D01*
X92340Y-62643D01*
X92148Y-62953D01*
X91803Y-63108D01*
X90883D01*
G01X94750Y-64400D02*
Y-61300D01*
X94290Y-61920D01*
G01Y-64400D02*
X95210D01*
G01X97850D02*
Y-61300D01*
X97390Y-61920D01*
G01Y-64400D02*
X98310D01*
G01X87483Y-49380D02*
X87675Y-49690D01*
X87905Y-49897D01*
X88173Y-50000D01*
X88480Y-49897D01*
X88710Y-49690D01*
X88940Y-49380D01*
X89017Y-48967D01*
Y-46900D01*
G01X91273Y-50000D02*
X91350Y-49328D01*
X91465Y-48760D01*
X91618Y-48243D01*
X91810Y-47675D01*
X92117Y-46900D01*
X90583D01*
G01X90470Y-19500D02*
X93130Y-14500D01*
G01X90470D02*
X93130Y-19500D01*
G01X96203Y-17833D02*
X97723D01*
G01X96900Y-16750D02*
Y-18917D01*
G01X89383Y57100D02*
Y54000D01*
X90917D01*
G01X92445Y54413D02*
X92752Y54155D01*
X93097Y54000D01*
X93403D01*
X93710Y54155D01*
X93940Y54413D01*
X94055Y54775D01*
X93978Y55137D01*
X93787Y55447D01*
X93442Y55653D01*
X92982Y55757D01*
X92713Y55963D01*
X92598Y56325D01*
X92675Y56687D01*
X92867Y56945D01*
X93135Y57100D01*
X93403D01*
X93672Y56997D01*
X93902Y56738D01*
G01X96350Y54000D02*
Y57100D01*
X95890Y56480D01*
G01Y54000D02*
X96810D01*
G01X84593Y61242D02*
X84363Y61397D01*
X84095Y61500D01*
X83788D01*
X83443Y61345D01*
X83175Y61087D01*
X82983Y60777D01*
X82830Y60260D01*
X82792Y59795D01*
X82868Y59330D01*
X82983Y59020D01*
X83213Y58710D01*
X83482Y58503D01*
X83750Y58400D01*
X84018D01*
X84287Y58503D01*
X84517Y58658D01*
X84708Y58865D01*
G01X86850Y58400D02*
Y61500D01*
X86390Y60880D01*
G01Y58400D02*
X87310D01*
G01X89107Y59020D02*
X89337Y58658D01*
X89643Y58452D01*
X89988Y58400D01*
X90295Y58452D01*
X90602Y58710D01*
X90793Y59020D01*
X90832Y59330D01*
X90755Y59692D01*
X90487Y59950D01*
X90218Y60053D01*
X89873D01*
G01X90218D02*
X90448Y60208D01*
X90640Y60467D01*
X90717Y60777D01*
X90640Y61087D01*
X90448Y61345D01*
X90103Y61500D01*
X89758Y61448D01*
X89413Y61242D01*
G01X84593Y65242D02*
X84363Y65397D01*
X84095Y65500D01*
X83788D01*
X83443Y65345D01*
X83175Y65087D01*
X82983Y64777D01*
X82830Y64260D01*
X82792Y63795D01*
X82868Y63330D01*
X82983Y63020D01*
X83213Y62710D01*
X83482Y62503D01*
X83750Y62400D01*
X84018D01*
X84287Y62503D01*
X84517Y62658D01*
X84708Y62865D01*
G01X86850Y62400D02*
Y65500D01*
X86390Y64880D01*
G01Y62400D02*
X87310D01*
G01X89222Y64983D02*
X89452Y65293D01*
X89720Y65448D01*
X90027Y65500D01*
X90410Y65397D01*
X90678Y65138D01*
X90755Y64828D01*
X90717Y64518D01*
X90563Y64260D01*
X89797Y63743D01*
X89452Y63382D01*
X89222Y62865D01*
X89145Y62400D01*
X90755D01*
G01X93658Y71093D02*
X93503Y70863D01*
X93400Y70595D01*
Y70288D01*
X93555Y69943D01*
X93813Y69675D01*
X94123Y69483D01*
X94640Y69330D01*
X95105Y69292D01*
X95570Y69368D01*
X95880Y69483D01*
X96190Y69713D01*
X96397Y69982D01*
X96500Y70250D01*
Y70518D01*
X96397Y70787D01*
X96242Y71017D01*
X96035Y71208D01*
G01X96500Y73350D02*
X93400D01*
X94020Y72890D01*
G01X96500D02*
Y73810D01*
G01Y76450D02*
X93400D01*
X94020Y75990D01*
G01X96500D02*
Y76910D01*
G01X86393Y71642D02*
X86163Y71797D01*
X85895Y71900D01*
X85588D01*
X85243Y71745D01*
X84975Y71487D01*
X84783Y71177D01*
X84630Y70660D01*
X84592Y70195D01*
X84668Y69730D01*
X84783Y69420D01*
X85013Y69110D01*
X85282Y68903D01*
X85550Y68800D01*
X85818D01*
X86087Y68903D01*
X86317Y69058D01*
X86508Y69265D01*
G01X88650Y68800D02*
Y71900D01*
X88190Y71280D01*
G01Y68800D02*
X89110D01*
G01X91750Y71900D02*
X91443Y71797D01*
X91213Y71538D01*
X91060Y71228D01*
X90945Y70815D01*
X90907Y70350D01*
X90945Y69885D01*
X91060Y69472D01*
X91213Y69162D01*
X91443Y68903D01*
X91750Y68800D01*
X92057Y68903D01*
X92287Y69162D01*
X92440Y69472D01*
X92555Y69885D01*
X92593Y70350D01*
X92555Y70815D01*
X92440Y71228D01*
X92287Y71538D01*
X92057Y71797D01*
X91750Y71900D01*
G01X84292Y85300D02*
X85250Y88400D01*
X86208Y85300D01*
G01X85863Y86385D02*
X84637D01*
G01X89117Y85300D02*
X87583D01*
Y88400D01*
X89117D01*
G01X88503Y86902D02*
X87583D01*
G01X91450Y85300D02*
Y88400D01*
X90990Y87780D01*
G01Y85300D02*
X91910D01*
M02*
