G04 ================== begin FILE IDENTIFICATION RECORD ==================*
G04 Layout Name:  E:/git/clay/Circuit/R6_1/allegro_c6r3/CLAYc6r3.brd*
G04 Film Name:    PASTE_TOP*
G04 File Format:  Gerber RS274X*
G04 File Origin:  Cadence Allegro 16.6-P004*
G04 Origin Date:  Sun Mar 06 08:34:24 2016*
G04 *
G04 Layer:  VIA CLASS/PASTEMASK_TOP*
G04 Layer:  PIN/PASTEMASK_TOP*
G04 Layer:  DRC ERROR CLASS/PASTEMASK_TOP*
G04 *
G04 Offset:    (0.00 0.00)*
G04 Mirror:    No*
G04 Mode:      Positive*
G04 Rotation:  0*
G04 FullContactRelief:  No*
G04 UndefLineWidth:     0.00*
G04 ================== end FILE IDENTIFICATION RECORD ====================*
%FSLAX25Y25*MOIN*%
%IR0*IPPOS*OFA0.00000B0.00000*MIA0B0*SFA1.00000B1.00000*%
%ADD22R,.1X.03*%
%AMMACRO30*
21,1,.021,.02,0.0,0.0,135.*%
%ADD30MACRO30*%
%ADD44R,.05X.125*%
%ADD47R,.105X.028*%
%ADD39R,.014X.007*%
%ADD38R,.007X.014*%
%ADD24R,.009X.022*%
%ADD18R,.031X.009*%
%ADD28R,.014X.009*%
%AMMACRO19*
21,1,.018,.028,0.0,0.0,135.*%
%ADD19MACRO19*%
%ADD27R,.009X.014*%
%ADD43R,.019X.008*%
%ADD46R,.008X.019*%
%ADD45R,.09X.09*%
%ADD32R,.02X.05*%
%ADD36R,.052X.011*%
%ADD10R,.06X.03*%
%ADD48R,.03X.06*%
%ADD41R,.03X.033*%
%ADD35R,.011X.052*%
%AMMACRO17*
4,1,44,.0311,-.04567,
.01496,-.04567,
.01496,-.07402,
.00472,-.07402,
.00472,-.05433,
.00871,-.05433,
.00871,-.04567,
.00433,-.04567,
.00433,-.008,
-.00433,-.008,
-.00433,-.04567,
-.00898,-.04567,
-.00898,-.05433,
-.00472,-.05433,
-.00472,-.07402,
-.01496,-.07402,
-.01496,-.04567,
-.0311,-.04567,
-.0311,-.00433,
-.008,-.00433,
-.008,.00433,
-.0311,.00433,
-.0311,.04567,
-.01496,.04567,
-.01496,.07402,
-.00472,.07402,
-.00472,.05433,
-.00936,.05433,
-.00936,.04567,
-.00433,.04567,
-.00433,.008,
.00433,.008,
.00433,.04567,
.00942,.04567,
.00942,.05433,
.00474,.05433,
.00474,.07402,
.01496,.07402,
.01496,.04567,
.0311,.04567,
.0311,.00433,
.008,.00433,
.008,-.00433,
.0311,-.00433,
.0311,-.04567,
0.0*
%
%ADD17MACRO17*%
%ADD21R,.043X.023*%
%ADD37R,.023X.043*%
%ADD40R,.023X.019*%
%ADD16R,.028X.022*%
%AMMACRO33*
21,1,.028,.06,0.0,0.0,45.*%
%ADD33MACRO33*%
%ADD15R,.038X.04*%
%ADD25R,.05X.065*%
%ADD34R,.028X.052*%
%ADD31R,.075X.06*%
%ADD23R,.028X.018*%
%AMMACRO20*
21,1,.018,.028,0.0,0.0,45.*%
%ADD20MACRO20*%
%ADD29R,.055X.045*%
%ADD14R,.038X.036*%
%ADD13R,.018X.028*%
%ADD42R,.075X.045*%
%ADD11R,.036X.038*%
%ADD12R,.045X.075*%
%ADD26R,.135X.135*%
%LPD*%
G75*
G54D10*
X-93400Y-95393D03*
Y-82007D03*
G54D11*
X-86000Y-65000D03*
X-79000D03*
X-36100Y-73300D03*
X-29100D03*
G54D20*
X-68643Y-71943D03*
X-66557Y-69857D03*
G54D12*
X-89331Y-53134D03*
Y-38567D03*
X-80669Y-53134D03*
Y-38567D03*
G54D21*
X-67250Y-12250D03*
Y2250D03*
Y-2250D03*
Y-7750D03*
Y12250D03*
Y7750D03*
X-61750Y-12250D03*
Y2250D03*
Y-2250D03*
Y-7750D03*
Y12250D03*
Y7750D03*
X61750Y-12250D03*
Y-7750D03*
Y-2250D03*
Y2250D03*
Y7750D03*
Y12250D03*
X67250Y-12250D03*
Y-7750D03*
Y-2250D03*
Y2250D03*
Y7750D03*
Y12250D03*
G54D30*
X-55050Y18924D03*
X-57950Y21824D03*
X-51973Y21999D03*
X-51796Y27975D03*
X-54873Y24899D03*
X-48896Y25075D03*
X-45821Y28152D03*
X-48721Y31052D03*
G54D13*
X-86375Y-32000D03*
X-89325D03*
X-86775Y27600D03*
X-73975Y-64000D03*
X-71025D03*
Y-60000D03*
X-73975D03*
X-83625Y-59700D03*
X-80675D03*
X-83975Y-69500D03*
X-81025D03*
X-75075Y22400D03*
X-72125D03*
X-75075Y18300D03*
X-72125D03*
X-75075Y26500D03*
X-72125D03*
X-83825Y27600D03*
X-81575Y48000D03*
X-78625D03*
X-56725Y-39100D03*
X-59675D03*
X-61275Y39200D03*
X-58325D03*
Y43300D03*
X-61275D03*
X-54475Y59400D03*
X-51525D03*
X-45425D03*
X-48375D03*
X-2275Y37100D03*
X6375Y-37100D03*
X3425D03*
X675Y37100D03*
X27575Y-59200D03*
X24625D03*
X22075Y-37100D03*
X19125D03*
X41925Y-44800D03*
X44875D03*
X47425Y38400D03*
X46825Y69900D03*
X47475Y93300D03*
X44525D03*
X38525D03*
X41475D03*
X54575Y-44800D03*
X51625D03*
X50375Y38400D03*
X49775Y69900D03*
X62025Y81600D03*
X50625Y93300D03*
X53575D03*
X70625Y-60200D03*
X73575D03*
X70625Y-56200D03*
X73575D03*
X68975Y71200D03*
X66025D03*
X64975Y81600D03*
X68975Y75200D03*
X66025D03*
X70975Y81600D03*
X68025D03*
G54D31*
X-64400Y79500D03*
G54D40*
X27735Y-36025D03*
Y-39175D03*
X32065Y-36025D03*
Y-39175D03*
G54D22*
X-68100Y52780D03*
Y62820D03*
G54D14*
X-94300Y30900D03*
Y23900D03*
X-41700Y-24000D03*
Y-17000D03*
Y5600D03*
Y12600D03*
X41700Y-8200D03*
Y-1200D03*
X33500Y85200D03*
Y92200D03*
G54D23*
X-75000Y83475D03*
Y80525D03*
X-55900Y77175D03*
Y74225D03*
Y81825D03*
Y84775D03*
X-49800Y-72125D03*
Y-75075D03*
X-45800Y-72125D03*
Y-75075D03*
X-40600D03*
Y-72125D03*
X-37100Y-22275D03*
Y-19325D03*
Y7225D03*
Y10175D03*
X-37600Y53775D03*
Y50825D03*
X-41700Y53675D03*
Y50725D03*
Y59875D03*
Y56925D03*
X-37600Y59875D03*
Y56925D03*
X31100Y-61675D03*
Y-58725D03*
X37700Y-50525D03*
Y-53475D03*
X37100Y-6375D03*
Y-3425D03*
X46700Y22475D03*
Y19525D03*
X37100Y21025D03*
Y23975D03*
X34000Y71025D03*
X34600Y59375D03*
Y56425D03*
X34000Y73975D03*
X54500Y49075D03*
Y46125D03*
X62000Y62125D03*
Y65075D03*
X62500Y75025D03*
Y77975D03*
X58400Y80875D03*
Y77925D03*
X66500Y-45475D03*
X77200Y-58475D03*
Y-55525D03*
X67000Y-58675D03*
Y-55725D03*
X66500Y-42525D03*
Y-37475D03*
Y-34525D03*
Y-27525D03*
Y-30475D03*
Y-22475D03*
Y-19525D03*
X74600Y78625D03*
Y81575D03*
G54D41*
X46700Y26550D03*
X50400Y34450D03*
X54100Y26550D03*
G54D32*
X-37100Y-64200D03*
X-42100D03*
X-37100Y-44800D03*
X-42100D03*
X-27100Y-64200D03*
X-32100D03*
X-27100Y-44800D03*
X-32100D03*
G54D42*
X41266Y56419D03*
Y65081D03*
X55833Y56419D03*
Y65081D03*
G54D15*
X-84737Y36800D03*
Y42900D03*
X-87537Y68100D03*
X-76863Y36800D03*
Y42900D03*
X-79663Y68100D03*
G54D33*
X-43133Y33867D03*
X-33667Y43333D03*
G54D24*
X-68335Y85012D03*
Y73988D03*
X-66367Y85012D03*
X-64399D03*
X-62431D03*
X-60463D03*
X-66367Y73988D03*
X-64399D03*
X-62431D03*
X-60463D03*
G54D34*
X-20400Y-38100D03*
X-14600D03*
G54D25*
X-74400Y92100D03*
X-57400D03*
G54D16*
X-94400Y35200D03*
Y44000D03*
X-33300Y50900D03*
Y59700D03*
G54D43*
X63140Y-82780D03*
Y-81210D03*
Y-79640D03*
Y-78070D03*
Y-76500D03*
Y-74930D03*
Y-73360D03*
Y-71790D03*
Y-70220D03*
X81060Y-82780D03*
Y-81210D03*
Y-79640D03*
Y-78070D03*
Y-76500D03*
Y-74930D03*
Y-73360D03*
Y-71790D03*
Y-70220D03*
G54D26*
X-58700Y-54100D03*
G54D17*
X-84600Y57500D03*
G54D35*
X-19685Y-30512D03*
X-21654D03*
X-23622D03*
X-19685Y30512D03*
X-21654D03*
X-23622D03*
X-3937Y-30512D03*
X-5906D03*
X-7874D03*
X-9842D03*
X-11811D03*
X-13780D03*
X-15748D03*
X-17716D03*
X-3937Y30512D03*
X-5906D03*
X-7874D03*
X-9842D03*
X-11811D03*
X-13780D03*
X-15748D03*
X-17716D03*
X13780Y-30512D03*
X11811D03*
X9842D03*
X7874D03*
X5906D03*
X3937D03*
X1968D03*
X0D03*
X-1968D03*
X13780Y30512D03*
X11811D03*
X9842D03*
X7874D03*
X5906D03*
X3937D03*
X1968D03*
X0D03*
X-1968D03*
X23622Y-30512D03*
X21654D03*
X19685D03*
X17716D03*
X15748D03*
X23622Y30512D03*
X21654D03*
X19685D03*
X17716D03*
X15748D03*
G54D44*
X59674Y34500D03*
X93926D03*
G54D36*
X-30512Y-23622D03*
Y-21654D03*
Y-19685D03*
Y-17716D03*
Y-15748D03*
Y-13780D03*
Y-11811D03*
Y-9842D03*
Y-7874D03*
Y-5906D03*
Y-3937D03*
Y-1968D03*
Y0D03*
Y1968D03*
Y3937D03*
Y5906D03*
Y7874D03*
Y9842D03*
Y11811D03*
Y13780D03*
Y15748D03*
Y17716D03*
Y19685D03*
Y21654D03*
Y23622D03*
X30512Y-23622D03*
Y-21654D03*
Y-19685D03*
Y-17716D03*
Y-15748D03*
Y-13780D03*
Y-11811D03*
Y-9842D03*
Y-7874D03*
Y-5906D03*
Y-3937D03*
Y-1968D03*
Y0D03*
Y1968D03*
Y3937D03*
Y5906D03*
Y7874D03*
Y9842D03*
Y11811D03*
Y13780D03*
Y15748D03*
Y17716D03*
Y19685D03*
Y21654D03*
Y23622D03*
G54D45*
X72100Y-76500D03*
G54D27*
X-51800Y-63160D03*
X-53770D03*
X-55740D03*
X-57710D03*
X-59680D03*
X-61650D03*
X-63620D03*
X-65590D03*
X-51800Y-45040D03*
X-53770D03*
X-55740D03*
X-57710D03*
X-59680D03*
X-61650D03*
X-63620D03*
X-65590D03*
X47466Y73310D03*
X45497D03*
X43528D03*
X41560D03*
X47466Y87290D03*
X45497D03*
X43528D03*
X41560D03*
X49434Y73310D03*
Y87290D03*
G54D18*
X-90407Y53563D03*
Y61437D03*
Y59468D03*
Y57500D03*
Y55532D03*
X-78793Y53563D03*
Y61437D03*
Y59468D03*
Y57500D03*
Y55532D03*
G54D37*
X-2250Y-67250D03*
Y-61750D03*
X-12250Y-67250D03*
Y-61750D03*
X-7750Y-67250D03*
Y-61750D03*
X-2250Y67250D03*
Y61750D03*
X-7750Y67250D03*
Y61750D03*
X-12250Y67250D03*
Y61750D03*
X7750Y-67250D03*
Y-61750D03*
X12250Y-67250D03*
Y-61750D03*
X2250Y-67250D03*
Y-61750D03*
X12250Y67250D03*
Y61750D03*
X7750Y67250D03*
Y61750D03*
X2250Y67250D03*
Y61750D03*
G54D46*
X78380Y-85460D03*
X76810D03*
X75240D03*
X73670D03*
X72100D03*
X70530D03*
X68960D03*
X67390D03*
X65820D03*
X78380Y-67540D03*
X76810D03*
X75240D03*
X73670D03*
X72100D03*
X70530D03*
X68960D03*
X67390D03*
X65820D03*
G54D19*
X-71057Y-74543D03*
X-73143Y-72457D03*
X-64143Y-67257D03*
X-62057Y-69343D03*
G54D28*
X-67760Y-60990D03*
Y-47200D03*
Y-49170D03*
Y-51140D03*
Y-53110D03*
Y-55080D03*
Y-57050D03*
Y-59020D03*
X-49640Y-60990D03*
Y-47200D03*
Y-49170D03*
Y-51140D03*
Y-53110D03*
Y-55080D03*
Y-57050D03*
Y-59020D03*
X38510Y76366D03*
Y78334D03*
Y80303D03*
Y82272D03*
Y84240D03*
X52490Y76366D03*
Y78334D03*
Y80303D03*
Y82272D03*
Y84240D03*
G54D29*
X-58450Y-19200D03*
X-47750D03*
G54D38*
X30262Y-55019D03*
X28687D03*
X27113D03*
X25538D03*
X23963D03*
X30262Y-43981D03*
X28687D03*
X27113D03*
X25538D03*
X23963D03*
X31837Y-55019D03*
Y-43981D03*
X79950Y-85985D03*
X64250D03*
X79950Y-67015D03*
X64250D03*
G54D47*
X74823Y-27500D03*
Y-32500D03*
Y-37500D03*
Y-42500D03*
Y-22500D03*
X90177Y-27500D03*
Y-32500D03*
Y-37500D03*
Y-42500D03*
Y-22500D03*
G54D48*
X95393Y93400D03*
X82007D03*
G54D39*
X22381Y-53437D03*
Y-51862D03*
Y-50287D03*
Y-48713D03*
Y-47138D03*
Y-45563D03*
X33459Y-53437D03*
Y-51862D03*
Y-50287D03*
Y-48713D03*
Y-47138D03*
Y-45563D03*
X62615Y-84350D03*
Y-68650D03*
X81585Y-84350D03*
Y-68650D03*
M02*
