G04 ================== begin FILE IDENTIFICATION RECORD ==================*
G04 Layout Name:  E:/git/clay/Circuit/R6_1/allegro_c6r3/CLAYc6r3.brd*
G04 Film Name:    TOP*
G04 File Format:  Gerber RS274X*
G04 File Origin:  Cadence Allegro 16.6-P004*
G04 Origin Date:  Sun Mar 06 08:34:24 2016*
G04 *
G04 Layer:  ETCH/TOP*
G04 Layer:  PIN/TOP*
G04 Layer:  VIA CLASS/TOP*
G04 *
G04 Offset:    (0.00 0.00)*
G04 Mirror:    No*
G04 Mode:      Positive*
G04 Rotation:  0*
G04 FullContactRelief:  No*
G04 UndefLineWidth:     0.00*
G04 ================== end FILE IDENTIFICATION RECORD ====================*
%FSLAX25Y25*MOIN*%
%IR0*IPPOS*OFA0.00000B0.00000*MIA0B0*SFA1.00000B1.00000*%
%ADD56R,.11X.03*%
%AMMACRO23*
21,1,.02,.03,0.0,0.0,135.*%
%ADD23MACRO23*%
%ADD26R,.106X.04*%
%AMMACRO34*
21,1,.024,.024,0.0,0.0,135.*%
%ADD34MACRO34*%
%ADD52R,.052X.134*%
%ADD51R,.02X.009*%
%ADD55R,.009X.02*%
%ADD16C,.03*%
%ADD46R,.015X.008*%
%ADD39C,.05*%
%ADD35C,.032*%
%ADD50R,.015X.009*%
%ADD45R,.008X.015*%
%ADD11C,.024*%
%ADD54R,.009X.015*%
%ADD15C,.07*%
%AMMACRO20*
4,1,20,.03248,-.04724,
.03248,.04724,
.01535,.04724,
.01535,.0748,
.00433,.0748,
.00433,.04724,
-.00433,.04724,
-.00433,.0748,
-.01535,.0748,
-.01535,.04734,
-.03248,.04734,
-.03248,-.04734,
-.01535,-.04734,
-.01535,-.0748,
-.00433,-.0748,
-.00433,-.04724,
.00433,-.04724,
.00433,-.0748,
.01535,-.0748,
.01535,-.04724,
.03248,-.04724,
0.0*
%
%ADD20MACRO20*%
%ADD22C,.048*%
%ADD41C,.03937*%
%ADD27R,.03X.02*%
%AMMACRO24*
21,1,.02,.03,0.0,0.0,45.*%
%ADD24MACRO24*%
%ADD14R,.02X.03*%
%ADD28R,.01X.024*%
%ADD47R,.024X.02*%
%ADD21R,.033X.011*%
%ADD32R,.018X.012*%
%ADD48R,.031X.035*%
%ADD43R,.055X.012*%
%ADD31R,.012X.018*%
%ADD18R,.04X.044*%
%ADD42R,.012X.055*%
%ADD40R,.03X.055*%
%ADD19R,.033X.025*%
%ADD10R,.063X.032*%
%ADD57R,.032X.063*%
%ADD37R,.022X.055*%
%ADD17R,.04X.038*%
%AMMACRO38*
21,1,.031,.066,0.0,0.0,45.*%
%ADD38MACRO38*%
%ADD25R,.045X.025*%
%ADD12R,.038X.04*%
%ADD53R,.1X.1*%
%ADD44R,.025X.045*%
%ADD33R,.06X.047*%
%ADD29R,.057X.07*%
%ADD36R,.079X.063*%
%ADD49R,.079X.048*%
%ADD30R,.148X.148*%
%ADD13R,.048X.079*%
%ADD58C,.01*%
%ADD59C,.02*%
%ADD60C,.012*%
%ADD61C,.014*%
%ADD62C,.015*%
%ADD63C,.016*%
%ADD64C,.0152*%
%ADD65C,.006*%
%ADD75R,.12002X.04004*%
%ADD77C,.06004*%
%ADD72C,.0514*%
%ADD69C,.04404*%
%ADD67C,.08204*%
%ADD76C,.05804*%
%ADD78R,.11004X.11004*%
%ADD71R,.03204X.06504*%
%ADD73R,.05004X.04804*%
%ADD70R,.04804X.05004*%
%ADD74R,.08902X.05802*%
%ADD68R,.05802X.08902*%
%ADD66R,.05802X.08904*%
G75*
%LPD*%
G75*
G36*
G01X-97999Y-79798D02*
Y-13126D01*
G02X-97317Y-12842I400J0D01*
G03Y-7158I2817J2842D01*
G02X-97999Y-6874I-282J284D01*
G01Y-3126D01*
G02X-97317Y-2842I400J0D01*
G03Y2842I2817J2842D01*
G02X-97999Y3126I-282J284D01*
G01Y6874D01*
G02X-97317Y7158I400J0D01*
G03Y12842I2817J2842D01*
G02X-97999Y13126I-282J284D01*
G01Y25258D01*
G02X-97316Y25541I400J0D01*
G01X-96902Y25127D01*
Y21398D01*
X-91698D01*
Y22998D01*
X-90873D01*
X-89573Y21698D01*
X-88699D01*
G03X-84720Y22297I1899J902D01*
G02X-84247Y22632I396J-58D01*
G03X-82211Y25027I347J1768D01*
G01X-82223Y25060D01*
Y29702D01*
X-88377D01*
Y25498D01*
X-87702D01*
Y24499D01*
G03X-88503Y23833I902J-1899D01*
G02X-89109Y23784I-324J234D01*
G01X-90127Y24802D01*
X-91698D01*
Y26402D01*
X-95627D01*
X-96798Y27573D01*
Y28398D01*
X-91698D01*
Y29798D01*
X-89981D01*
X-87481Y32298D01*
X-80451D01*
X-80000Y32749D01*
X-79549Y32298D01*
X-73373D01*
G02X-73049Y31664I0J-400D01*
G03X-72820Y29294I1461J-1055D01*
G02X-73093Y28602I-273J-292D01*
G01X-76677D01*
Y18034D01*
X-77911Y16800D01*
X-77982Y16793D01*
G03X-77979Y13207I182J-1793D01*
G02X-77706Y12559I-39J-398D01*
G03X-76839Y6630I3206J-2559D01*
G02X-77067Y5902I-228J-328D01*
G01X-77740D01*
G03Y4098I-1560J-902D01*
G01X-77067D01*
G02X-76839Y3370I0J-400D01*
G03Y-3370I2339J-3370D01*
G02X-77067Y-4098I-228J-328D01*
G01X-77740D01*
G03Y-5902I-1560J-902D01*
G01X-77067D01*
G02X-76839Y-6630I0J-400D01*
G03X-70857Y-11886I2339J-3370D01*
G02X-70102Y-12070I355J-184D01*
G01Y-14102D01*
X-68279D01*
G02X-67956Y-14738I0J-400D01*
G03X-68060Y-14898I1457J-1061D01*
G01X-73173D01*
X-79492Y-21217D01*
X-79606Y-21184D01*
G03X-78184Y-22606I-594J-2016D01*
G01X-78217Y-22492D01*
X-72427Y-16702D01*
X-69542D01*
G02X-69259Y-17384I0J-400D01*
G01X-70173Y-18298D01*
X-70871D01*
X-72902Y-20329D01*
Y-47271D01*
X-70617Y-49556D01*
G02X-70900Y-50238I-283J-282D01*
G01X-74187D01*
X-78827Y-45598D01*
X-82575D01*
X-86330Y-41844D01*
Y-34002D01*
X-84874D01*
Y-29998D01*
X-87724D01*
Y-29898D01*
X-90926D01*
Y-34016D01*
X-92332D01*
Y-43118D01*
X-87604D01*
X-83321Y-47402D01*
X-79573D01*
X-79075Y-47900D01*
G02X-79358Y-48582I-283J-282D01*
G01X-83670D01*
Y-57698D01*
X-85126D01*
Y-61702D01*
X-82276D01*
Y-61802D01*
X-79074D01*
Y-57686D01*
X-77668D01*
Y-54036D01*
X-76996D01*
X-76972Y-54012D01*
X-71052D01*
G02X-70769Y-54694I0J-400D01*
G01X-71032Y-54957D01*
X-71137Y-54935D01*
G03X-73145Y-57435I-363J-1765D01*
G02X-73510Y-57998I-365J-163D01*
G01X-75476D01*
Y-61898D01*
X-75577D01*
Y-64098D01*
X-76498D01*
Y-62398D01*
X-81502D01*
Y-66227D01*
X-81926Y-66652D01*
Y-67398D01*
X-82626D01*
Y-67498D01*
X-83598D01*
Y-62498D01*
X-88402D01*
Y-67502D01*
X-85476D01*
Y-71502D01*
X-82626D01*
Y-71602D01*
X-79424D01*
Y-70798D01*
X-79000Y-70375D01*
X-78884Y-70413D01*
G03X-76563Y-69078I559J1713D01*
G02X-75995Y-68803I391J-84D01*
G03X-73487Y-66626I795J1617D01*
G02X-73107Y-66102I380J124D01*
G01X-72710D01*
Y-66337D01*
X-72722Y-66369D01*
G03X-69423Y-66150I1697J-606D01*
G01Y-64902D01*
X-68909D01*
X-68900Y-65091D01*
G03X-67359Y-66783I1800J91D01*
G02X-67134Y-67462I-58J-396D01*
G01X-71221Y-71549D01*
X-72789Y-69980D01*
X-75620Y-72811D01*
X-74535Y-73896D01*
G02X-74818Y-74578I-283J-282D01*
G01X-92984D01*
X-94760Y-76354D01*
Y-76374D01*
X-94762Y-76376D01*
Y-79798D01*
X-97999D01*
G37*
G36*
G01X-75398Y-97999D02*
Y-79798D01*
X-92038D01*
Y-77504D01*
X-92036Y-77502D01*
Y-77482D01*
X-91856Y-77302D01*
X-71890D01*
X-71580Y-76992D01*
X-71411Y-77161D01*
X-68550Y-74301D01*
X-68289Y-74561D01*
X-63979Y-70251D01*
X-62411Y-71820D01*
X-59580Y-68989D01*
X-61595Y-66974D01*
X-61525Y-66903D01*
X-62298Y-66130D01*
Y-64662D01*
X-60390D01*
X-59660Y-65392D01*
X-59682Y-65497D01*
G03X-56238Y-65207I1765J-363D01*
G02X-55865Y-64662I373J145D01*
G01X-54672D01*
Y-66210D01*
G03X-52268Y-68766I902J-1560D01*
G02X-51729Y-68644I333J-221D01*
G03X-50731Y-68901I930J1544D01*
G02X-50433Y-69583I15J-400D01*
G01X-50702Y-69852D01*
Y-70524D01*
X-51902D01*
Y-73726D01*
X-51802D01*
Y-76576D01*
X-43798D01*
Y-73726D01*
X-43698D01*
Y-70524D01*
X-44898D01*
Y-68503D01*
X-43947Y-67552D01*
X-42536D01*
G02X-42185Y-68142I0J-400D01*
G03X-42150Y-69919I1585J-858D01*
G02X-42494Y-70524I-344J-205D01*
G01X-42702D01*
Y-73726D01*
X-42602D01*
Y-76576D01*
X-38598D01*
Y-75902D01*
X-33598D01*
Y-70698D01*
X-34253D01*
G02X-34588Y-70081I0J400D01*
G03X-35398Y-67440I-1512J981D01*
G01Y-60848D01*
X-36198D01*
Y-57473D01*
X-35864Y-57138D01*
G02X-35215Y-57260I283J-283D01*
G03X-33431Y-58332I1650J725D01*
G02X-33002Y-58731I29J-399D01*
G01Y-60848D01*
X-33802D01*
Y-67552D01*
X-30398D01*
Y-60848D01*
X-31198D01*
Y-57627D01*
X-31822Y-57003D01*
X-31800Y-56898D01*
G03X-32840Y-54885I-1765J363D01*
G02X-32962Y-54236I161J366D01*
G01X-28848Y-50123D01*
Y-48152D01*
X-25398D01*
Y-41448D01*
X-26198D01*
Y-40777D01*
X-30377Y-36598D01*
X-35813D01*
X-38763Y-33648D01*
X-60969D01*
X-64522Y-37201D01*
Y-39348D01*
G02X-65067Y-39721I-400J0D01*
G03X-66492Y-43028I-653J-1679D01*
G01Y-43538D01*
X-66792D01*
Y-45998D01*
X-69262D01*
Y-46298D01*
X-69627D01*
X-69898Y-46027D01*
Y-25362D01*
G02X-69163Y-25145I400J-1D01*
G03X-66283Y-22219I1763J1145D01*
G02X-66366Y-21612I213J338D01*
G03X-67172Y-18677I-1334J1212D01*
G02X-67337Y-18012I118J382D01*
G01X-66888Y-17563D01*
X-66787Y-17579D01*
G03X-65044Y-14738I287J1779D01*
G02X-64721Y-14102I323J236D01*
G01X-58898D01*
Y-14088D01*
G02X-58371Y-13709I400J0D01*
G03X-56523Y-10728I571J1709D01*
G02X-56505Y-10147I283J282D01*
G03X-56452Y-7498I-1195J1349D01*
G02X-56482Y-6954I277J288D01*
G03X-58383Y-4074I-1384J1154D01*
G02X-58898Y-3691I-115J383D01*
G01Y-3611D01*
G02X-58335Y-3245I400J1D01*
G03X-56308Y-344I735J1645D01*
G02X-56307Y215I287J279D01*
G03X-56330Y2761I-1287J1261D01*
G02X-56354Y3305I280J285D01*
G03X-58358Y6162I-1371J1169D01*
G02X-58898Y6536I-140J374D01*
G01Y6917D01*
G02X-58302Y7266I400J0D01*
G03X-56325Y10268I881J1572D01*
G02X-56333Y10897I243J318D01*
G03X-56160Y13543I-1131J1403D01*
G02X-56166Y14088I290J276D01*
G03X-59290Y15092I-1334J1212D01*
G01X-59279Y14996D01*
X-60173Y14102D01*
X-68827D01*
X-70676Y15951D01*
X-70574Y16198D01*
X-70523D01*
Y17398D01*
X-69852D01*
X-68898Y18352D01*
Y20754D01*
X-66454Y23198D01*
X-60599D01*
X-59967Y22566D01*
X-60604Y21930D01*
X-58056Y19382D01*
X-55508Y21930D01*
X-56999Y23421D01*
G02X-56716Y24104I283J283D01*
G01X-56625D01*
X-54979Y22457D01*
X-52431Y25005D01*
X-53923Y26497D01*
G02X-53640Y27180I283J283D01*
G01X-53548D01*
X-51902Y25533D01*
X-49354Y28081D01*
X-50847Y29574D01*
G02X-50564Y30256I283J282D01*
G01X-50473D01*
X-48827Y28610D01*
X-46279Y31158D01*
X-48827Y33706D01*
X-50473Y32060D01*
X-69312D01*
X-69624Y31748D01*
G02X-70212Y31773I-283J283D01*
G03X-71141Y32355I-1376J-1164D01*
G02X-71324Y33025I100J387D01*
G01X-70498Y33851D01*
Y47449D01*
X-71965Y48916D01*
G02X-71682Y49598I283J282D01*
G01X-62451D01*
X-61598Y50451D01*
Y58049D01*
X-62149Y58600D01*
X-61698Y59051D01*
Y63182D01*
G02X-61016Y63465I400J0D01*
G01X-60449Y62898D01*
X-54949D01*
X-54235Y62185D01*
G02X-54518Y61502I-283J-283D01*
G01X-56077D01*
Y61380D01*
G02X-56608Y61002I-400J0D01*
G03Y57598I-592J-1702D01*
G02X-56085Y57298I131J-378D01*
G01X-52849D01*
X-52349Y56798D01*
X-47451D01*
X-46951Y57298D01*
X-45485D01*
G02X-45343Y56957I0J-200D01*
G01X-45602Y56698D01*
Y55203D01*
X-48302Y52503D01*
Y44827D01*
X-44174Y40700D01*
X-35026D01*
X-34551Y41174D01*
X-32430Y39053D01*
X-29387Y42096D01*
X-34904Y47613D01*
X-37947Y44570D01*
X-36562Y43185D01*
G02X-36845Y42503I-283J-282D01*
G01X-43428D01*
X-46498Y45573D01*
Y51757D01*
X-44484Y53771D01*
G02X-43802Y53488I282J-283D01*
G01Y52074D01*
X-43702D01*
Y49224D01*
X-41460D01*
G02X-41140Y48583I0J-400D01*
G03X-37935Y47863I1440J-1083D01*
G01X-37957Y47968D01*
X-36702Y49223D01*
X-35552D01*
Y49048D01*
X-31048D01*
Y49264D01*
G02X-30321Y49493I400J-1D01*
G03X-29194Y52716I1721J1207D01*
G01X-29308Y52683D01*
X-29998Y53373D01*
Y54342D01*
X-31157Y55501D01*
X-31135Y55606D01*
G03X-31644Y57262I-1765J364D01*
G02X-31366Y57948I279J286D01*
G01X-31148D01*
Y61452D01*
X-35298D01*
Y63151D01*
X-27798Y70651D01*
Y75549D01*
X-30451Y78202D01*
X-35149D01*
X-36016Y77335D01*
G02X-36699Y77618I-283J283D01*
G01Y79249D01*
X-44951Y87502D01*
X-54548D01*
Y87998D01*
X-53948D01*
Y96202D01*
X-60852D01*
Y93452D01*
X-67001D01*
X-69016Y91437D01*
G02X-69698Y91719I-282J283D01*
G01Y95849D01*
X-71151Y97302D01*
X-96849D01*
X-97316Y96834D01*
G02X-97999Y97117I-283J283D01*
G01Y97999D01*
X-13126D01*
G02X-12842Y97317I0J-400D01*
G03X-7158I2842J-2817D01*
G02X-6874Y97999I284J282D01*
G01X-3126D01*
G02X-2842Y97317I0J-400D01*
G03X2842I2842J-2817D01*
G02X3126Y97999I284J282D01*
G01X6874D01*
G02X7158Y97317I0J-400D01*
G03X12842I2842J-2817D01*
G02X13126Y97999I284J282D01*
G01X79798D01*
Y95152D01*
X76140D01*
X73248Y92260D01*
Y83176D01*
X72577D01*
Y83702D01*
X60423D01*
Y82702D01*
X58669D01*
X58444Y82477D01*
X56298D01*
Y81976D01*
X55344D01*
X54772Y81404D01*
X53992D01*
Y81505D01*
X53892D01*
Y83038D01*
X53992D01*
Y83338D01*
X54613D01*
X54732Y83457D01*
X54837Y83435D01*
G03X53442Y85597I363J1765D01*
G01X53407Y85442D01*
X50988D01*
Y83038D01*
X51088D01*
Y81505D01*
X50988D01*
Y75164D01*
X54134D01*
X55375Y73924D01*
X60398D01*
Y73423D01*
X64424D01*
Y69098D01*
X67626D01*
Y69198D01*
X70476D01*
Y77202D01*
X67626D01*
Y77302D01*
X64602D01*
Y79498D01*
X72598D01*
Y77124D01*
X76602D01*
Y79974D01*
X76702D01*
Y83176D01*
X75952D01*
Y91140D01*
X77260Y92448D01*
X79798D01*
Y75398D01*
X97999D01*
Y13126D01*
G02X97317Y12842I-400J0D01*
G03Y7158I-2817J-2842D01*
G02X97999Y6874I282J-284D01*
G01Y3126D01*
G02X97317Y2842I-400J0D01*
G03Y-2842I-2817J-2842D01*
G02X97999Y-3126I282J-284D01*
G01Y-6874D01*
G02X97317Y-7158I-400J0D01*
G03Y-12842I-2817J-2842D01*
G02X97999Y-13126I282J-284D01*
G01Y-97999D01*
X55112D01*
G02X54829Y-97316I0J400D01*
G01X58743Y-93402D01*
X67717D01*
X70816Y-90302D01*
X72870D01*
X73997Y-89176D01*
G02X74338Y-89317I141J-141D01*
G01Y-89757D01*
X70253Y-93842D01*
X70148Y-93820D01*
G03X70967Y-96945I-363J-1765D01*
G02X71519Y-96972I262J-302D01*
G03X74096Y-97008I1306J1242D01*
G02X74654Y-97002I282J-283D01*
G03X77128Y-97019I1246J1302D01*
G02X77672I272J-293D01*
G03X80128I1228J1319D01*
G02X80672I272J-293D01*
G03X83176Y-96972I1228J1319D01*
G02X83741Y-96971I283J-283D01*
G03X86266Y-96985I1270J1279D01*
G02X86824I279J-287D01*
G03X89305Y-97016I1257J1291D01*
G02X89850Y-97018I271J-294D01*
G03X90718Y-93937I1231J1316D01*
G01X90613Y-93959D01*
X86828Y-90174D01*
Y-81977D01*
X85050Y-80199D01*
G02X85333Y-79517I283J282D01*
G01X92458D01*
X92672Y-79303D01*
X92772Y-79318D01*
G03X94218Y-76176I263J1783D01*
G02X94354Y-75495I263J302D01*
G03X92020Y-74148I-569J1710D01*
G01X92042Y-74253D01*
X91742Y-74554D01*
X91563Y-74375D01*
X91549Y-74325D01*
G03X90167Y-73048I-1734J-490D01*
G01X90108Y-73036D01*
X89923Y-72852D01*
X90282Y-72493D01*
X90387Y-72515D01*
G03X89040Y-70181I363J1765D01*
G02X88359Y-70317I-379J127D01*
G03X88179Y-70137I-1361J-1181D01*
G02X88288Y-69465I262J302D01*
G03X86142Y-66741I-688J1665D01*
G02X85543Y-66795I-323J236D01*
G03X84302Y-66298I-1243J-1305D01*
G02X83902Y-65898I0J400D01*
G03X83419Y-64673I-1802J-3D01*
G02X83510Y-64055I293J273D01*
G03X83821Y-63825I-910J1555D01*
G02X84397Y-63860I271J-294D01*
G03X88016Y-61906I1603J1360D01*
G01X87983Y-61792D01*
X93532Y-56243D01*
X93637Y-56265D01*
G03X92235Y-54863I363J1765D01*
G01X92257Y-54968D01*
X86708Y-60517D01*
X86594Y-60484D01*
G03X84397Y-61140I-594J-2016D01*
G02X83821Y-61175I-305J259D01*
G03X82919Y-60726I-1222J-1324D01*
G02X82592Y-60290I71J394D01*
G03X79901Y-58538I-1792J190D01*
G02X79302Y-58192I-199J347D01*
G01Y-56874D01*
X79202D01*
Y-54024D01*
X76303D01*
G02X75919Y-53510I0J400D01*
G03X72482Y-53572I-1728J510D01*
G02X72103Y-54098I-379J-126D01*
G01X71974D01*
Y-54198D01*
X69124D01*
Y-54224D01*
X65502D01*
Y-53227D01*
X62573Y-50298D01*
X53499D01*
G03X52502Y-49301I-1899J-902D01*
G01Y-47598D01*
X52526Y-47573D01*
Y-46902D01*
X56177D01*
Y-45702D01*
X63052D01*
X63727Y-46376D01*
X64398D01*
Y-47077D01*
X64412D01*
G02X64791Y-47604I0J-400D01*
G03X68209I1709J-571D01*
G02X68588Y-47077I379J127D01*
G01X68602D01*
Y-44602D01*
X80924D01*
Y-40398D01*
X68722D01*
Y-40923D01*
X64793D01*
G02X64510Y-40240I0J400D01*
G01X65673Y-39076D01*
X68722D01*
Y-39602D01*
X80924D01*
Y-35398D01*
X68502D01*
Y-34602D01*
X80924D01*
Y-31921D01*
G02X81520Y-31572I400J0D01*
G03X83526Y-31407I880J1572D01*
G02X84176Y-31719I250J-312D01*
G01Y-34502D01*
X96178D01*
Y-30498D01*
X84600D01*
G02X84200Y-30081I-1J400D01*
G03X84202Y-30001I-1800J85D01*
G02X84602Y-29602I400J-1D01*
G01X96278D01*
Y-25398D01*
X84076D01*
Y-28205D01*
G02X83444Y-28531I-400J0D01*
G03X81520Y-28428I-1043J-1469D01*
G02X80924Y-28079I-196J349D01*
G01Y-25398D01*
X68722D01*
Y-25923D01*
X64793D01*
G02X64510Y-25240I0J400D01*
G01X65673Y-24077D01*
X68722D01*
Y-24602D01*
X80924D01*
Y-20398D01*
X78947D01*
G02X78612Y-19781I0J400D01*
G03X78054Y-17271I-1512J981D01*
G01X77960Y-17212D01*
Y-16902D01*
X78540D01*
G03Y-15098I1560J902D01*
G01X76128D01*
X74528Y-16698D01*
X73629D01*
X72904Y-17424D01*
X69446D01*
X68746Y-16724D01*
X64254D01*
X63198Y-17779D01*
Y-22304D01*
X60198Y-25304D01*
Y-30633D01*
X59298Y-31533D01*
Y-35427D01*
X59227Y-35498D01*
X54286D01*
X53086Y-34298D01*
X49559D01*
X46759Y-31498D01*
X44066D01*
X41154Y-28586D01*
X39651D01*
X37602Y-26537D01*
Y-19881D01*
X34535Y-16814D01*
X33864D01*
Y-6672D01*
X33764D01*
Y-5139D01*
X33864D01*
Y-4838D01*
X34561D01*
X34657Y-4743D01*
G02X34998Y-4884I141J-141D01*
G01Y-5026D01*
X35098D01*
Y-7876D01*
X39198D01*
Y-10602D01*
X44202D01*
Y-5798D01*
X39102D01*
Y-5026D01*
X39202D01*
Y-4326D01*
X39848D01*
X40473Y-3702D01*
X44302D01*
Y1302D01*
X42602D01*
Y2173D01*
X42043Y2732D01*
X42065Y2837D01*
G03X39346Y1671I-1765J363D01*
G01X39440Y1612D01*
Y1302D01*
X39098D01*
Y-1824D01*
X34998D01*
Y-2524D01*
X34327D01*
X34205Y-2645D01*
G02X33864Y-2503I-141J142D01*
G01Y6972D01*
X34945D01*
X39219Y11246D01*
X47217D01*
X56468Y20498D01*
X61428D01*
X62057Y19868D01*
X62035Y19763D01*
G03X65561Y19019I1765J-363D01*
G02X66009Y19330I391J-85D01*
G03X67665Y22246I254J1784D01*
G02X67976Y22898I311J252D01*
G01X70182D01*
X73598Y19481D01*
Y14005D01*
X73450Y13965D01*
G03X70857Y11886I1049J-3965D01*
G02X70102Y12070I-355J184D01*
G01Y14102D01*
X68152D01*
Y14773D01*
X66197Y16728D01*
X58602D01*
X57958Y16084D01*
X57853Y16106D01*
G03X56147Y13140I-363J-1765D01*
G02X56136Y12595I-298J-267D01*
G03X56112Y10112I1294J-1254D01*
G02X56113Y9567I-292J-273D01*
G03X56114Y7114I1321J-1226D01*
G02Y6569I-293J-273D01*
G03Y4113I1318J-1228D01*
G02Y3568I-293J-273D01*
G03Y1114I1320J-1227D01*
G02Y569I-293J-273D01*
G03Y-1887I1318J-1228D01*
G02Y-2432I-293J-272D01*
G03X56158Y-4931I1320J-1227D01*
G02X56177Y-5476I-283J-283D01*
G03X56049Y-7675I1360J-1182D01*
G02X55968Y-8214I-330J-226D01*
G03X57451Y-11390I1120J-1411D01*
G01X57556Y-11368D01*
X58898Y-12710D01*
Y-14102D01*
X68827D01*
X69654Y-14929D01*
X69668Y-14980D01*
G03X73205Y-14427I1736J483D01*
G02X73684Y-14020I400J15D01*
G03X74358Y-5900I815J4020D01*
G02X73955Y-5410I-14J399D01*
G03Y-4590I-1755J410D01*
G02X74358Y-4100I389J91D01*
G03Y4100I142J4100D01*
G02X73955Y4590I-14J399D01*
G03Y5410I-1755J410D01*
G02X74358Y5900I389J91D01*
G03X75550Y13965I142J4100D01*
G01X75402Y14005D01*
Y20227D01*
X70928Y24700D01*
X56152D01*
Y27198D01*
X62876D01*
Y41802D01*
X56472D01*
Y36102D01*
X54911D01*
X54861Y36052D01*
X52552D01*
Y36802D01*
X52002D01*
Y39038D01*
X51977Y39063D01*
Y40502D01*
X51976D01*
Y41837D01*
X54663Y44523D01*
X56602D01*
Y50677D01*
X52172D01*
G03X51871Y47391I-872J-1577D01*
G02X52398Y47012I127J-379D01*
G01Y46788D01*
X48774Y43163D01*
Y40502D01*
X45823D01*
Y39302D01*
X44927D01*
X42814Y37189D01*
Y18689D01*
X42743Y18618D01*
X33864D01*
Y20887D01*
X33764D01*
Y22420D01*
X33864D01*
Y22720D01*
X34535D01*
X34657Y22842D01*
G02X34998Y22701I141J-141D01*
G01Y22374D01*
X35098D01*
Y19524D01*
X39102D01*
Y22374D01*
X39698D01*
X39739Y22353D01*
G03X39699Y25576I786J1622D01*
G01X34998D01*
Y24876D01*
X34142D01*
X34089Y24824D01*
X27102D01*
Y35527D01*
X33592Y42017D01*
X33706Y41984D01*
G03X32789Y45461I594J2016D01*
G02X32102Y45739I-287J278D01*
G01Y52597D01*
X33102Y53597D01*
Y54824D01*
X36714D01*
Y53418D01*
X45818D01*
Y58146D01*
X47726Y60055D01*
Y67798D01*
X48874D01*
Y66016D01*
X50710Y64180D01*
X51282D01*
Y62080D01*
X59998D01*
Y60624D01*
X64002D01*
Y63474D01*
X64102D01*
Y66676D01*
X60384D01*
Y68082D01*
X51377D01*
Y72002D01*
X50636D01*
Y74812D01*
X46264D01*
Y74712D01*
X44730D01*
Y74812D01*
X40358D01*
Y71808D01*
X40410D01*
G02X40552Y71467I0J-200D01*
G01X39681Y70596D01*
G02X38999Y70901I-283J283D01*
G03X36462Y72644I-1799J99D01*
G01X36423Y72626D01*
X36002D01*
Y75417D01*
G02X36343Y75558I200J0D01*
G01X36437Y75464D01*
X37008D01*
Y75164D01*
X40012D01*
Y85442D01*
X38400D01*
G02X38258Y85783I0J200D01*
G01X38433Y85958D01*
X38453Y85970D01*
G03X35735Y87861I-953J1530D01*
G01X35702Y87702D01*
X30898D01*
Y83302D01*
X21327D01*
X20408Y82383D01*
X20294Y82416D01*
G03X18798Y78501I-594J-2016D01*
G01Y77168D01*
X16298Y74668D01*
Y74074D01*
G02X15693Y73730I-400J-1D01*
G03X14549Y73973I-926J-1546D01*
G02X14100Y74381I-49J397D01*
G03X5900Y74358I-4100J118D01*
G02X5410Y73955I-399J-14D01*
G03X4590I-410J-1755D01*
G02X4100Y74358I-91J389D01*
G03X-4100I-4100J142D01*
G02X-4590Y73955I-399J-14D01*
G03X-5410I-410J-1755D01*
G02X-5900Y74358I-91J389D01*
G03X-13965Y75550I-4100J142D01*
G01X-14005Y75402D01*
X-14773D01*
X-19702Y70473D01*
Y55535D01*
G02X-20299Y55187I-400J0D01*
G03X-20585Y55318I-891J-1567D01*
G02X-20823Y55841I134J377D01*
G03X-21095Y57629I-1677J660D01*
G02X-21058Y58171I311J251D01*
G03X-23942I-1442J1529D01*
G02X-23905Y57629I-274J-291D01*
G03X-23106Y54803I1405J-1129D01*
G02X-22868Y54280I-134J-377D01*
G03X-22954Y53249I1677J-659D01*
G01X-22932Y53143D01*
X-23559Y52516D01*
X-23580Y52503D01*
G03X-20559Y51506I1080J-1803D01*
G02X-20371Y52016I369J154D01*
G03X-20299Y52055I-822J1604D01*
G02X-19702Y51707I197J-348D01*
G01Y49773D01*
X-22556Y46919D01*
Y33864D01*
X-24824D01*
Y27160D01*
X-12712D01*
Y26489D01*
X-11944Y25720D01*
Y-8469D01*
X-22532Y-19057D01*
X-22637Y-19035D01*
G03X-23501Y-22531I-363J-1765D01*
G02X-23330Y-23198I-112J-384D01*
G01X-24730Y-24598D01*
X-27260D01*
Y-20887D01*
X-27160D01*
Y-2870D01*
X-26489D01*
X-21298Y2321D01*
Y15740D01*
G03X-23737Y18241I-902J1560D01*
G02X-24391Y18201I-341J209D01*
G03X-24658Y18472I-1410J-1122D01*
G02X-24695Y19058I253J310D01*
G03X-24744Y21593I-1305J1243D01*
G02X-24738Y22173I278J287D01*
G03X-27179Y24824I-1224J1322D01*
G01X-28738D01*
G02X-29077Y25438I-1J400D01*
G03X-32123I-1523J962D01*
G02X-32462Y24824I-338J-214D01*
G01X-33864D01*
Y16650D01*
X-34579D01*
X-38394Y20465D01*
Y30403D01*
X-39737Y31746D01*
X-38853Y32630D01*
X-44370Y38147D01*
X-45254Y37263D01*
X-48093Y40102D01*
X-56723D01*
Y41302D01*
X-56724D01*
Y45402D01*
X-59926D01*
Y45302D01*
X-62776D01*
Y41302D01*
X-62877D01*
Y36872D01*
G03X-59591Y36571I1577J-872D01*
G02X-59212Y37098I379J127D01*
G01X-56723D01*
Y38298D01*
X-48839D01*
X-46529Y35988D01*
X-47413Y35104D01*
X-41896Y29587D01*
X-41012Y30471D01*
X-40198Y29657D01*
Y20402D01*
X-46503D01*
X-48727Y22626D01*
X-46384Y24969D01*
X-48790Y27375D01*
X-51196Y24969D01*
X-49705Y23477D01*
G02X-49987Y22794I-283J-283D01*
G01X-50221D01*
X-51867Y24441D01*
X-54415Y21893D01*
X-52924Y20402D01*
G02X-53207Y19720I-283J-282D01*
G01X-53298D01*
X-54944Y21366D01*
X-57492Y18818D01*
X-54944Y16270D01*
X-53298Y17916D01*
X-52719D01*
X-52201Y17398D01*
X-41273D01*
X-39659Y15784D01*
G02X-39942Y15102I-283J-282D01*
G01X-44302D01*
Y14688D01*
G02X-44828Y14309I-400J0D01*
G03Y10891I-572J-1709D01*
G02X-44302Y10512I126J-379D01*
G01Y10098D01*
X-40473D01*
X-39648Y9274D01*
X-39202D01*
Y8574D01*
X-39102D01*
Y8002D01*
X-44202D01*
Y3198D01*
X-39198D01*
Y5724D01*
X-35098D01*
Y8574D01*
X-34998D01*
Y8940D01*
X-33864D01*
Y8640D01*
X-33764D01*
Y7108D01*
X-33864D01*
Y-16614D01*
X-35947D01*
X-37056Y-17724D01*
X-37144D01*
X-38969Y-15898D01*
X-39098D01*
Y-14498D01*
X-44302D01*
Y-16248D01*
X-51352D01*
Y-22152D01*
X-44202D01*
Y-26402D01*
X-39198D01*
Y-23776D01*
X-35098D01*
Y-20926D01*
X-34998D01*
Y-20786D01*
X-33864D01*
Y-20887D01*
X-33764D01*
Y-24589D01*
X-37132Y-27957D01*
X-37237Y-27935D01*
G03X-35835Y-29337I-363J-1765D01*
G01X-35857Y-29232D01*
X-33027Y-26402D01*
X-26375D01*
G02X-26092Y-27084I0J-400D01*
G01X-27016Y-28008D01*
Y-34258D01*
X-26372Y-34902D01*
X-26394Y-35007D01*
G03X-23215Y-36487I1765J-363D01*
G02X-22502Y-36735I313J-249D01*
G01Y-41452D01*
X-18298D01*
Y-39042D01*
G02X-17616Y-38759I400J0D01*
G01X-17373Y-39002D01*
X-16702D01*
Y-41452D01*
X-12498D01*
Y-36442D01*
G02X-11816Y-36159I400J0D01*
G01X-10502Y-37473D01*
Y-42827D01*
X-11773Y-44098D01*
X-16701D01*
G03Y-45902I-1899J-902D01*
G01X-13892D01*
G02X-13609Y-46584I0J-400D01*
G01X-17892Y-50867D01*
X-18006Y-50834D01*
G03X-17677Y-54739I-594J-2016D01*
G02X-17102Y-55098I175J-359D01*
G01Y-57927D01*
X-17892Y-58717D01*
X-18006Y-58684D01*
G03X-16584Y-60106I-594J-2016D01*
G01X-16617Y-59992D01*
X-15298Y-58673D01*
Y-52521D01*
X-11079Y-48302D01*
X-10031D01*
X-6298Y-44569D01*
Y-35731D01*
X-7482Y-34547D01*
G02X-7199Y-33864I283J283D01*
G01X25D01*
G02X308Y-34547I0J-400D01*
G01X-302Y-35157D01*
Y-42373D01*
X2057Y-44732D01*
X2035Y-44837D01*
G03X5028Y-46519I1765J-363D01*
G02X5572I272J-293D01*
G03X8141Y-46404I1228J1319D01*
G02X8736I298J-267D01*
G03X12316Y-44406I1564J1404D01*
G01X12283Y-44292D01*
X14050Y-42525D01*
X14216Y-42691D01*
G02X14167Y-43297I-283J-282D01*
G03X17315Y-44132I1233J-1703D01*
G02X17644Y-43914I182J82D01*
G03X18061Y-44249I1325J1222D01*
G02X18219Y-44770I-201J-346D01*
G03X20567Y-47211I1618J-793D01*
G02X21129Y-47576I162J-365D01*
G01Y-53000D01*
G02X20446Y-53283I-400J0D01*
G01X17361Y-50198D01*
X6839D01*
X5339Y-51698D01*
X3264D01*
X3164Y-51798D01*
X3135D01*
X835Y-54098D01*
X-1967D01*
X-2867Y-54998D01*
X-4971D01*
X-7671Y-57698D01*
X-10473D01*
X-11673Y-58898D01*
X-14102D01*
Y-66348D01*
X-14773D01*
X-15902Y-67477D01*
Y-70640D01*
G03X-14590Y-73955I902J-1560D01*
G02X-14100Y-74358I91J-389D01*
G03X-5900I4100J-142D01*
G02X-5410Y-73955I399J14D01*
G03X-4590I410J1755D01*
G02X-4100Y-74358I91J-389D01*
G03X4100I4100J-142D01*
G02X4590Y-73955I399J14D01*
G03X5410I410J1755D01*
G02X5900Y-74358I91J-389D01*
G03X12823Y-77476I4100J-142D01*
G02X13498Y-77766I275J-290D01*
G01Y-81234D01*
G02X12823Y-81524I-400J0D01*
G03Y-87476I-2823J-2976D01*
G02X13498Y-87766I275J-290D01*
G01Y-90790D01*
X20243Y-97534D01*
X22436D01*
X22559Y-97658D01*
G02X22417Y-97999I-142J-141D01*
G01X13126D01*
G02X12842Y-97317I0J400D01*
G03X7158I-2842J2817D01*
G02X6874Y-97999I-284J-282D01*
G01X3126D01*
G02X2842Y-97317I0J400D01*
G03X-2842I-2842J2817D01*
G02X-3126Y-97999I-284J-282D01*
G01X-6874D01*
G02X-7158Y-97317I0J400D01*
G03X-12842I-2842J2817D01*
G02X-13126Y-97999I-284J-282D01*
G01X-75398D01*
G37*
G36*
G01X-43398Y63000D02*
G02X-43598Y63200I0J200D01*
G03X-47134Y62710I-1802J0D01*
G01X-47102Y62598D01*
X-47300Y62400D01*
Y57800D01*
X-47700Y57400D01*
X-49722D01*
G03X-49878I-78J-1700D01*
G01X-52100D01*
X-52600Y57900D01*
Y61400D01*
X-54535Y63335D01*
G02X-54515Y63918I283J282D01*
G03X-54889Y67343I-1385J1582D01*
G02X-54881Y68048I193J350D01*
G03X-57619Y71376I-1019J1952D01*
G01X-61003D01*
X-61129Y71503D01*
G02X-60847Y72186I283J283D01*
G01X-59361D01*
Y73086D01*
X-58002D01*
Y72624D01*
X-52851D01*
G03Y75826I826J1601D01*
G01X-58002D01*
Y75126D01*
X-58673D01*
X-58910Y74890D01*
X-59361D01*
Y75790D01*
X-69437D01*
Y74890D01*
X-70628D01*
G03Y73086I-1560J-902D01*
G01X-69437D01*
Y72225D01*
X-69563Y72175D01*
G03X-67442Y69440I663J-1675D01*
G02X-66841Y69493I324J-235D01*
G03X-63828Y71168I1251J1297D01*
G01X-63851Y71274D01*
X-63674Y71451D01*
G02X-63332Y71310I142J-141D01*
G01Y71157D01*
X-61749Y69574D01*
X-58066D01*
X-58026Y69426D01*
G03X-56919Y68048I2126J574D01*
G02X-56911Y67343I-185J-355D01*
G03X-57516Y64156I1011J-1843D01*
G02X-57823Y63500I-307J-256D01*
G01X-60200D01*
X-62700Y66000D01*
X-71700D01*
X-77500Y71800D01*
X-81700D01*
X-82900Y70600D01*
Y65700D01*
X-81300Y64100D01*
Y52600D01*
X-80300Y51600D01*
Y33437D01*
X-80430Y33388D01*
G03X-81088Y32960I630J-1688D01*
G01X-81147Y32900D01*
X-81453D01*
X-81512Y32960D01*
G03X-84088I-1288J-1260D01*
G01X-84147Y32900D01*
X-84453D01*
X-84512Y32960D01*
G03X-87144Y32900I-1288J-1260D01*
G01X-87200D01*
X-88000Y33700D01*
Y62300D01*
X-88156Y62456D01*
Y62588D01*
X-88289D01*
X-90800Y65100D01*
Y72323D01*
G03Y75077I-1000J1377D01*
G01Y78100D01*
X-88602Y80298D01*
X-88351D01*
X-86998Y81651D01*
Y88651D01*
X-86351Y89298D01*
X-79849D01*
X-77449Y86899D01*
X-74979D01*
G02X-74697Y86216I-1J-400D01*
G01X-75835Y85077D01*
X-77102D01*
Y78923D01*
X-75902D01*
Y78564D01*
X-75991Y78505D01*
G03X-74009I991J-1505D01*
G01X-74098Y78564D01*
Y78923D01*
X-72898D01*
Y81148D01*
G02X-72353Y81521I400J0D01*
G03X-69920Y83482I653J1679D01*
G01X-69923Y83498D01*
Y83692D01*
X-69909Y83706D01*
X-69656D01*
X-69648Y83714D01*
X-69437D01*
Y83210D01*
X-65265D01*
Y86900D01*
X-63533D01*
Y83210D01*
X-59361D01*
Y83660D01*
X-58002D01*
Y83174D01*
X-53798D01*
Y86376D01*
X-54548D01*
Y86900D01*
X-45200D01*
X-37300Y79000D01*
Y76051D01*
X-37302Y76049D01*
Y75798D01*
X-37800Y75300D01*
G02X-38510Y75061I-400J13D01*
G03Y71267I-2327J-1897D01*
G02X-37800Y71015I310J-252D01*
G01Y69700D01*
X-37302Y69202D01*
Y68549D01*
X-42851Y63000D01*
X-43398D01*
G37*
G36*
G01X-91698Y32002D02*
Y33007D01*
G02X-91262Y33405I400J0D01*
G03X-91864Y36832I162J1795D01*
G01X-91904Y36813D01*
X-92148D01*
Y37052D01*
X-96798D01*
Y40727D01*
X-95377Y42148D01*
X-92148D01*
Y45852D01*
X-95477D01*
X-96798Y47173D01*
Y57027D01*
X-96284Y57541D01*
G02X-95602Y57266I282J-283D01*
G03X-93392Y55545I1802J34D01*
G02X-92902Y55155I90J-390D01*
G01Y54851D01*
X-92857Y54806D01*
G02X-92998Y54465I-141J-141D01*
G01X-93330D01*
X-94702Y53093D01*
Y52160D01*
G03X-92417Y51755I902J-1560D01*
G02X-92110Y52412I307J257D01*
G01X-88602D01*
Y34293D01*
X-90893Y32002D01*
X-91698D01*
G37*
G36*
G01X-87700Y56200D02*
X-92100D01*
X-92300Y56000D01*
Y55100D01*
X-92100Y54900D01*
X-87700D01*
Y56200D01*
G37*
G36*
G01X-91402Y64851D02*
X-89822Y63272D01*
G02X-90105Y62589I-283J-283D01*
G01X-92190D01*
G03X-95390Y60938I-1567J-889D01*
G02X-95753Y60370I-363J-168D01*
G01X-96005D01*
X-97316Y59059D01*
G02X-97999Y59342I-283J283D01*
G01Y80483D01*
G02X-97316Y80766I400J0D01*
G01X-96849Y80298D01*
X-90418D01*
G02X-90135Y79616I0J-400D01*
G01X-91402Y78349D01*
Y64851D01*
G37*
G36*
G01X-96600Y80900D02*
X-97600Y81900D01*
Y95700D01*
X-96600Y96700D01*
X-71400D01*
X-70300Y95600D01*
Y90086D01*
X-70302Y90085D01*
Y89000D01*
X-71801Y87500D01*
X-77200D01*
X-79600Y89900D01*
X-86600D01*
X-87600Y88900D01*
Y81900D01*
X-88600Y80900D01*
X-96600D01*
G37*
G36*
G01X-75249Y56198D02*
X-74602Y55551D01*
Y50451D01*
X-73749Y49598D01*
X-73498D01*
X-71100Y47200D01*
Y34100D01*
X-72300Y32900D01*
X-75456D01*
G03X-78088Y32960I-1344J-1200D01*
G01X-78147Y32900D01*
X-78453D01*
X-78512Y32960D01*
G03X-79529Y33481I-1288J-1260D01*
G01X-79699Y33507D01*
Y45202D01*
X-79002Y45898D01*
X-77024D01*
Y46076D01*
X-77000Y46100D01*
Y52412D01*
X-76542D01*
Y52958D01*
X-76500Y53000D01*
Y54600D01*
X-76542Y54642D01*
Y54714D01*
X-76615D01*
X-76700Y54800D01*
X-80500D01*
X-80698Y54998D01*
Y56102D01*
X-80602Y56198D01*
X-75249D01*
G37*
G36*
G01X-70523Y27402D02*
Y28602D01*
X-70926D01*
Y28928D01*
X-70812Y28982D01*
G03X-70028Y29708I-777J1626D01*
G01X-69115D01*
X-68566Y30257D01*
X-53240D01*
G02X-52957Y29574I0J-400D01*
G01X-53548Y28982D01*
X-55246D01*
X-56827Y27402D01*
X-70523D01*
G37*
G36*
G01X-73500Y50200D02*
X-74000Y50700D01*
Y55800D01*
X-75000Y56800D01*
X-80400D01*
X-80600Y57000D01*
Y58100D01*
X-80502Y58198D01*
X-76851D01*
X-76749Y58300D01*
X-76451D01*
X-76449Y58298D01*
X-62698D01*
X-62200Y57800D01*
Y50700D01*
X-62700Y50200D01*
X-73500D01*
G37*
G36*
G01X-80698Y64349D02*
X-82298Y65949D01*
Y70351D01*
X-81451Y71198D01*
X-77749D01*
X-71949Y65398D01*
X-62949D01*
X-62300Y64749D01*
Y59300D01*
X-62700Y58900D01*
X-76200D01*
X-76298Y58998D01*
Y60149D01*
X-76851Y60702D01*
X-76902D01*
X-77000Y60800D01*
X-80500D01*
X-80600Y60900D01*
Y64000D01*
X-80698Y64098D01*
Y64349D01*
G37*
G36*
G01X-81500Y58800D02*
X-77100D01*
X-76900Y59000D01*
Y59900D01*
X-77100Y60100D01*
X-81500D01*
Y58800D01*
G37*
G36*
G01X-66130Y90500D02*
X-65881Y90748D01*
X-60852D01*
Y87998D01*
X-57252D01*
Y87502D01*
X-64268D01*
G02X-64649Y88022I0J400D01*
G03X-65899Y90307I-1718J545D01*
G01X-65950Y90321D01*
X-66130Y90500D01*
G37*
G36*
G01X-37637Y-68160D02*
G03X-37612Y-70081I1537J-941D01*
G02X-37947Y-70698I-335J-217D01*
G01X-38498D01*
Y-70524D01*
X-38706D01*
G02X-39050Y-69919I0J400D01*
G03X-40239Y-67235I-1550J919D01*
G01X-40398Y-67202D01*
Y-60848D01*
X-41198D01*
Y-56273D01*
X-40642Y-55716D01*
X-37957D01*
G02X-37674Y-56399I0J-400D01*
G01X-38002Y-56727D01*
Y-60848D01*
X-38802D01*
Y-67552D01*
X-37979D01*
G02X-37637Y-68160I0J-400D01*
G37*
G36*
G01X-48999Y-67169D02*
G03X-50709Y-65300I-1801J69D01*
G02X-50898Y-65101I11J199D01*
G01Y-64662D01*
X-50598D01*
Y-62192D01*
X-48138D01*
Y-59268D01*
G02X-47611Y-58889I400J0D01*
G03X-46149Y-58746I571J1709D01*
G02X-45552Y-59094I197J-348D01*
G01Y-59556D01*
X-46202Y-60206D01*
Y-65352D01*
X-48317Y-67467D01*
G02X-48999Y-67169I-282J283D01*
G37*
G36*
G01X-36089Y-51463D02*
G03X-38761Y-51551I-1296J-1252D01*
G02X-39349Y-51576I-305J258D01*
G01X-39520Y-51405D01*
G02X-39303Y-50727I282J283D01*
G03X-37828Y-48624I-297J1777D01*
G02X-37434Y-48152I393J72D01*
G01X-35402D01*
Y-51185D01*
G02X-36089Y-51463I-400J0D01*
G37*
G36*
G01X-44148Y-21598D02*
Y-20302D01*
X-43444D01*
X-42644Y-19502D01*
X-39202D01*
Y-20926D01*
X-39102D01*
Y-21598D01*
X-44148D01*
G37*
G36*
G01X-43426Y58526D02*
X-43500Y58600D01*
Y61500D01*
X-36700Y68300D01*
Y75800D01*
X-34900Y77600D01*
X-30700D01*
X-28400Y75300D01*
Y70900D01*
X-35900Y63400D01*
Y58526D01*
X-43426D01*
G37*
G36*
G01X-33599Y-51358D02*
Y-48152D01*
X-30652D01*
Y-49377D01*
X-32916Y-51641D01*
G02X-33599Y-51358I-283J283D01*
G37*
G36*
G01X-26477Y-308D02*
G02X-27160Y-25I-283J283D01*
G01Y7108D01*
X-27260D01*
Y8640D01*
X-27160D01*
Y15096D01*
G02X-26586Y15456I400J0D01*
G03X-24263Y16137I786J1622D01*
G02X-23609Y16177I341J-209D01*
G03X-23102Y15740I1409J1123D01*
G01Y3067D01*
X-26477Y-308D01*
G37*
G36*
G01X5898Y70102D02*
Y59573D01*
X5759Y59528D01*
G03X7494Y56457I546J-1717D01*
G02X8039Y56442I264J-300D01*
G03X10564Y56437I1265J1283D01*
G02X11109Y56451I280J-286D01*
G03X13915Y58608I1195J1349D01*
G01X13894Y58698D01*
G02X14093Y58898I200J0D01*
G01X14102D01*
Y70243D01*
X14300Y70441D01*
X14405Y70419D01*
G03X15693Y70638I363J1765D01*
G02X16298Y70294I205J-343D01*
G01Y61532D01*
X16598Y61232D01*
Y57657D01*
X17898Y56357D01*
Y53532D01*
X18098Y53332D01*
Y44771D01*
X15792Y42464D01*
Y38982D01*
X16384Y38390D01*
Y36158D01*
X14846Y34621D01*
Y33864D01*
X766D01*
Y33764D01*
X-766D01*
Y33864D01*
X-1066D01*
Y34998D01*
X-674D01*
Y35098D01*
X2176D01*
Y39102D01*
X251D01*
G02X-121Y39647I1J400D01*
G03X-3509Y39728I-1679J653D01*
G02X-3876Y39202I-379J-126D01*
G01Y37192D01*
G02X-4410Y36814I-400J-1D01*
G03X-6570Y34215I-599J-1699D01*
G01X-6493Y34082D01*
X-6711Y33864D01*
X-8908D01*
Y39929D01*
X-8966Y39987D01*
Y40072D01*
X-8872Y40167D01*
X-8849Y40180D01*
G03X-10834Y40116I-1052J1820D01*
G01Y39213D01*
X-10776Y39155D01*
Y37229D01*
G02X-11426Y37101I-368J155D01*
G01X-15617Y41292D01*
X-15584Y41406D01*
G03X-17006Y39984I-2016J594D01*
G01X-16892Y40017D01*
X-12702Y35827D01*
Y34546D01*
X-12712Y34535D01*
Y33864D01*
X-20752D01*
Y46173D01*
X-17898Y49027D01*
Y69727D01*
X-14477Y73148D01*
G02X-13822Y73010I282J-283D01*
G03X-11886Y70857I3822J1490D01*
G02X-12070Y70102I-184J-355D01*
G01X-14102D01*
Y59850D01*
X-14291Y59651D01*
G03X-13037Y56472I94J-1800D01*
G02X-12493Y56445I257J-306D01*
G03X-9929Y56423I1293J1255D01*
G02X-9384Y56441I282J-283D01*
G03X-6491Y58371I1184J1359D01*
G02X-6112Y58898I379J127D01*
G01X-5625D01*
Y58655D01*
X-5643Y58616D01*
G03X-2849Y56489I1643J-741D01*
G02X-2304Y56457I255J-308D01*
G03X272Y56423I1305J1243D01*
G02X817Y56441I282J-284D01*
G03X3709Y58371I1183J1359D01*
G02X4088Y58898I379J127D01*
G01X4102D01*
Y70027D01*
X4532Y70457D01*
X4637Y70435D01*
G03X6599Y71369I363J1765D01*
G02X7225Y71479I355J-184D01*
G03X8114Y70857I2775J3021D01*
G02X7930Y70102I-184J-355D01*
G01X5898D01*
G37*
G36*
G01X-17008Y-23910D02*
X-17361Y-23557D01*
G02X-17336Y-22969I283J283D01*
G03X-18165Y-19822I-1164J1376D01*
G02X-18374Y-19147I74J393D01*
G01X-8940Y-9713D01*
Y27160D01*
X-4838D01*
Y26719D01*
X-4851Y26685D01*
G03X-1451Y26633I1691J-623D01*
G02X-1072Y27160I379J127D01*
G01X-766D01*
Y27260D01*
X766D01*
Y27160D01*
X3036D01*
Y26103D01*
X2298Y25366D01*
Y22356D01*
X2254Y22311D01*
Y21398D01*
G03X4954Y19743I901J-1560D01*
G02X5399Y20119I400J-22D01*
G03X7405Y21820I206J1790D01*
G02X7822Y22200I400J-20D01*
G03X9701Y23937I78J1800D01*
G02X10194Y24311I400J-15D01*
G03X12323Y26634I419J1753D01*
G02X12702Y27160I379J126D01*
G01X24824D01*
Y33864D01*
X24788D01*
X24686Y34111D01*
X24957Y34382D01*
G02X25298Y34241I141J-141D01*
G01Y19974D01*
X26489Y18784D01*
X27160D01*
Y4838D01*
X23864D01*
X15927Y-3098D01*
X9360D01*
G03X5998Y-4039I-1560J-902D01*
G02X5454Y-4421I-400J-9D01*
G03X6360Y-7002I-654J-1679D01*
G01X9622D01*
G02X9945Y-7637I0J-400D01*
G03X9721Y-9353I1455J-1063D01*
G02X9348Y-9898I-373J-145D01*
G01X-1193D01*
X-6470Y-15174D01*
Y-22002D01*
G02X-7145Y-22292I-400J0D01*
G03X-9681Y-22349I-1239J-1308D01*
G02X-10255Y-22352I-288J277D01*
G03X-12671Y-22207I-1288J-1260D01*
G02X-13215Y-22167I-251J312D01*
G03X-16328Y-23584I-1321J-1226D01*
G02X-17008Y-23910I-398J-43D01*
G37*
G36*
G01X12224Y-41802D02*
X11008Y-43017D01*
X10894Y-42984D01*
G03X8586Y-43783I-594J-2016D01*
G02X7995Y-43851I-326J231D01*
G03X7955Y-43817I-1187J-1356D01*
G02X7929Y-43227I257J307D01*
G01X9602Y-41554D01*
Y-35677D01*
X10744Y-34535D01*
Y-33864D01*
X13496D01*
G02X13779Y-34547I0J-400D01*
G01X12224Y-36103D01*
Y-41802D01*
G37*
G36*
G01X5572Y-43881D02*
G02X5028I-272J293D01*
G03X3437Y-43435I-1228J-1319D01*
G01X3332Y-43457D01*
X1502Y-41627D01*
Y-41160D01*
X1812D01*
X1871Y-41254D01*
G03X5044Y-39562I1529J953D01*
G01X5026Y-39523D01*
Y-39102D01*
X7798D01*
Y-40808D01*
X5898Y-42708D01*
Y-43640D01*
G03X5572Y-43881I901J-1560D01*
G37*
G36*
G01X20401Y-16276D02*
X24712Y-20586D01*
X27160D01*
Y-24824D01*
X29610D01*
Y-31869D01*
G02X28928Y-32152I-400J0D01*
G01X26386Y-29610D01*
X24824D01*
Y-27160D01*
X22420D01*
Y-27260D01*
X20887D01*
Y-27160D01*
X18618D01*
Y-26489D01*
X14350Y-22221D01*
G02X14482Y-21568I283J283D01*
G03X14701Y-18340I-682J1668D01*
G01Y-16898D01*
X12247Y-14443D01*
G02X12388Y-14101I141J142D01*
G01X12927D01*
X15657Y-16832D01*
X15635Y-16937D01*
G03X19190Y-17091I1765J-363D01*
G02X19529Y-16649I397J46D01*
G03X20264Y-16366I-264J1782D01*
G01X20401Y-16276D01*
G37*
G36*
G01X-509Y-21957D02*
G03X563Y-22065I708J1657D01*
G01X668Y-22043D01*
X1312Y-22686D01*
X3114D01*
X7167Y-26740D01*
X10838D01*
X10910Y-26811D01*
Y-27160D01*
X6672D01*
Y-27260D01*
X5139D01*
Y-27160D01*
X-1066D01*
Y-22324D01*
G02X-509Y-21957I400J0D01*
G37*
G36*
G01X23443Y-15901D02*
G02X22770Y-16095I-390J89D01*
G01X22268Y-15593D01*
Y-12893D01*
X17173Y-7798D01*
X12960D01*
G03X11434Y-6898I-1560J-902D01*
G02X11159Y-6216I8J400D01*
G01X11273Y-6102D01*
X17171D01*
X24339Y1066D01*
X27160D01*
Y-5139D01*
X27260D01*
Y-6672D01*
X27160D01*
Y-10968D01*
G02X26513Y-11283I-400J0D01*
G03X24285Y-14116I-1114J-1416D01*
G02X24249Y-14770I-247J-314D01*
G03X23443Y-15901I951J-1530D01*
G37*
G36*
G01X30236Y-87466D02*
X29853D01*
Y-87255D01*
X29855Y-87243D01*
G03X26505Y-86132I-1790J210D01*
G01X24973D01*
X24902Y-86060D01*
Y-68320D01*
X23702Y-67120D01*
Y-64936D01*
G02X24247Y-64564I400J-1D01*
G03X26274Y-61719I653J1679D01*
G01X26226Y-61663D01*
Y-61202D01*
X29098D01*
Y-63176D01*
X33102D01*
Y-61263D01*
G02X33683Y-60906I400J1D01*
G03X34863Y-61065I817J1606D01*
G01X34968Y-61043D01*
X37498Y-63573D01*
Y-64101D01*
G03X39302I902J-1899D01*
G01Y-62827D01*
X36243Y-59768D01*
X36265Y-59663D01*
G03X36140Y-58552I-1765J364D01*
G02X36376Y-58008I364J165D01*
G03X37360Y-57202I-577J1707D01*
G01X39727D01*
X41917Y-59392D01*
X41884Y-59506D01*
G03X43306Y-58084I2016J-594D01*
G01X43192Y-58117D01*
X40473Y-55398D01*
X39802D01*
Y-54376D01*
X40564D01*
X42576Y-52365D01*
G02X43185Y-52416I283J-282D01*
G03X46799Y-52102I1715J1216D01*
G01X47832D01*
X50232Y-54502D01*
X52968D01*
X54168Y-53302D01*
X61329D01*
X62498Y-54471D01*
Y-60919D01*
X63698Y-62119D01*
Y-62171D01*
X64311Y-62784D01*
G02X64028Y-63466I-283J-282D01*
G01X62524D01*
G03X61031Y-62567I-1560J-902D01*
G02X60649Y-62113I14J400D01*
G03X57962Y-63428I-1785J245D01*
G01Y-66363D01*
G02X57456Y-66748I-400J1D01*
G03X57049Y-66684I-482J-1736D01*
G02X56668Y-66238I16J399D01*
G03X53871Y-67524I-1790J209D01*
G01X53887Y-67534D01*
X53912Y-67558D01*
Y-67729D01*
X53812Y-67829D01*
Y-69818D01*
G02X53375Y-69987I-335J218D01*
G03X52986Y-69929I-459J-1743D01*
G02X52604Y-69475I14J400D01*
G03X49918Y-70790I-1785J245D01*
G01Y-72973D01*
X50077Y-73133D01*
X49840Y-73450D01*
G03X49050Y-73234I-858J-1585D01*
G02X48668Y-72780I14J400D01*
G03X45098I-1785J245D01*
G02X44716Y-73234I-396J-54D01*
G03X44637Y-73239I74J-1801D01*
G01X44620Y-73240D01*
G02X44420Y-73040I0J200D01*
G01X44427Y-72989D01*
G03X40898Y-72780I-1744J454D01*
G02X40516Y-73234I-396J-54D01*
G03X40437Y-73239I74J-1801D01*
G01X40420Y-73240D01*
G02X40220Y-73040I0J200D01*
G01X40227Y-72989D01*
G03X36698Y-72780I-1744J454D01*
G02X36316Y-73234I-396J-54D01*
G03X36144Y-73249I70J-1801D01*
G02X35924Y-72999I-27J198D01*
G03X32398Y-72780I-1741J464D01*
G02X32016Y-73234I-396J-54D01*
G03X31182Y-76595I67J-1801D01*
G01Y-77508D01*
X33178Y-79505D01*
X33102Y-79638D01*
G03X32937Y-81050I1562J-898D01*
G02X32671Y-81546I-383J-114D01*
G03X31550Y-82544I529J-1723D01*
G02X30901Y-82666I-366J161D01*
G01X30516Y-82281D01*
Y-81905D01*
G03X28714I-901J1560D01*
G01Y-83027D01*
X31619Y-85933D01*
G02X31420Y-86606I-283J-282D01*
G03X30295Y-87377I381J-1762D01*
G01X30236Y-87466D01*
G37*
G36*
G01X26540Y-53768D02*
Y-53667D01*
X23633D01*
Y-46564D01*
X23732D01*
Y-46532D01*
X26684D01*
X27740Y-45477D01*
Y-45333D01*
X29689D01*
Y-45232D01*
X30836D01*
Y-45332D01*
X32207D01*
Y-52436D01*
X32108D01*
Y-53667D01*
X27685D01*
Y-53768D01*
X26540D01*
G37*
G36*
G01X29600Y-52500D02*
Y-45332D01*
X29688D01*
Y-45232D01*
X30836D01*
Y-45332D01*
X32207D01*
Y-52436D01*
X32108D01*
Y-52500D01*
X29600D01*
G37*
G36*
G01X20446Y-53283D02*
X17361Y-50198D01*
X17300D01*
Y-49200D01*
X19235Y-47265D01*
X19347Y-47297D01*
G03X20567Y-47211I491J1734D01*
G02X21129Y-47576I162J-365D01*
G01Y-53000D01*
G02X20446Y-53283I-400J0D01*
G37*
G36*
G01X23633Y-53667D02*
Y-46564D01*
X23732D01*
Y-46532D01*
X25500D01*
Y-53667D01*
X23633D01*
G37*
G36*
G01X25251Y-40769D02*
X23576Y-39095D01*
Y-35098D01*
X20726D01*
Y-34998D01*
X20586D01*
Y-33864D01*
X20887D01*
Y-33764D01*
X22420D01*
Y-33864D01*
X24824D01*
Y-31414D01*
X25640D01*
X28067Y-33841D01*
G02X27784Y-34524I-283J-283D01*
G01X26034D01*
Y-37574D01*
X25934D01*
Y-40486D01*
G02X25251Y-40769I-400J0D01*
G37*
G36*
G01X27137Y38111D02*
G02X26481Y38250I-283J283D01*
G03X23523Y38871I-1681J-650D01*
G02X22976Y38853I-283J283D01*
G03X21912Y39296I-1188J-1355D01*
G02X21586Y39881I28J399D01*
G03X20718Y42373I-1593J842D01*
G02X20596Y43022I161J366D01*
G01X21092Y43517D01*
X21206Y43484D01*
G03X23816Y46094I594J2016D01*
G01X23783Y46208D01*
X24502Y46927D01*
Y66131D01*
X26002Y67631D01*
Y76027D01*
X26673Y76698D01*
X35398D01*
Y76503D01*
X35742Y76159D01*
G02X35459Y75477I-283J-282D01*
G01X31998D01*
Y72626D01*
X31898D01*
Y69424D01*
X32000D01*
X32102Y69177D01*
X31598Y68673D01*
Y64943D01*
X31498Y64843D01*
Y62357D01*
X31598Y62257D01*
Y61421D01*
X31298Y61121D01*
Y54343D01*
X30298Y53343D01*
Y41273D01*
X27137Y38111D01*
G37*
G36*
G01X39802Y-52107D02*
Y-51874D01*
X39702D01*
Y-49024D01*
X35698D01*
Y-51874D01*
X35598D01*
Y-52536D01*
X34810D01*
Y-52436D01*
X34711D01*
Y-45691D01*
G02X35236Y-45312I400J-1D01*
G03X36478Y-45270I564J1712D01*
G02X36987Y-45464I150J-370D01*
G03X39683Y-46111I1617J796D01*
G02X40323Y-46431I240J-320D01*
G01Y-46902D01*
X41178D01*
Y-47927D01*
G03X40915Y-50863I901J-1560D01*
G02X40940Y-51451I-258J-305D01*
G01X40143Y-52248D01*
G02X39802Y-52107I-141J141D01*
G37*
G36*
G01X37570Y-40556D02*
X36268Y-41857D01*
X36163Y-41835D01*
G03X34081Y-44141I-363J-1765D01*
G02X33700Y-44661I-381J-120D01*
G01X32838D01*
Y-42630D01*
X32152D01*
G02X31983Y-42323I0J200D01*
G03X32017Y-42267I-1523J963D01*
G01X32030Y-42245D01*
X32966Y-41308D01*
Y-40777D01*
X33867D01*
Y-34423D01*
X32966D01*
Y-33752D01*
X31414Y-32199D01*
Y-24824D01*
X33864D01*
Y-23114D01*
G02X34205Y-22972I200J0D01*
G01X34598Y-23365D01*
Y-27781D01*
X36162Y-29345D01*
G02X36021Y-29686I-141J-141D01*
G01X35572D01*
G03X34275Y-32371I-1560J-902D01*
G02X34729Y-32825I59J-395D01*
G03X36295Y-34877I1783J-263D01*
G02X36646Y-35297I-48J-397D01*
G03X37126Y-36628I1799J-103D01*
G02Y-37172I-293J-272D01*
G03X37497Y-39933I1319J-1228D01*
G02X37570Y-40556I-210J-340D01*
G37*
G36*
G01X35236Y-45312D02*
G03X35440Y-45366I562J1712D01*
G01X35600Y-45398D01*
Y-51874D01*
X35598D01*
Y-52500D01*
X34810D01*
Y-52436D01*
X34711D01*
Y-45691D01*
G02X35236Y-45312I400J-1D01*
G37*
G36*
G01X49485Y19460D02*
G02X48802Y19743I-283J283D01*
G01Y24198D01*
X48852D01*
Y28902D01*
X44618D01*
Y36443D01*
X45140Y36965D01*
G02X45823Y36682I283J-283D01*
G01Y36298D01*
X48248D01*
Y32098D01*
X52552D01*
Y32848D01*
X56187D01*
X56226Y32887D01*
X56472Y32785D01*
Y28802D01*
X52048D01*
Y24298D01*
X53358D01*
G02X53641Y23616I0J-400D01*
G01X49485Y19460D01*
G37*
G36*
G01X36602Y59420D02*
Y60876D01*
X33402D01*
Y63003D01*
X33302Y63103D01*
Y64097D01*
X33402Y64197D01*
Y67927D01*
X33473Y67998D01*
X36814D01*
Y62180D01*
X45924D01*
Y60801D01*
X44543Y59420D01*
X36602D01*
G37*
G36*
G01X71582Y-83958D02*
Y-83858D01*
X64742D01*
Y-69142D01*
X71582D01*
Y-69042D01*
X72618D01*
Y-69142D01*
X74722D01*
Y-69042D01*
X75758D01*
Y-69142D01*
X79458D01*
Y-83858D01*
X72618D01*
Y-83958D01*
X71582D01*
G37*
%LPC*%
G75*
G36*
G01X-43309Y28046D02*
X-45715Y25640D01*
X-48121Y28046D01*
X-45715Y30452D01*
X-43309Y28046D01*
G37*
G36*
G01X46699Y85788D02*
X42326D01*
Y85888D01*
X40458D01*
Y88692D01*
X40698D01*
G03X40981Y89374I0J400D01*
G01X40574Y89782D01*
Y91198D01*
X39874D01*
Y91298D01*
X37024D01*
Y95302D01*
X39874D01*
Y95402D01*
X46126D01*
Y95302D01*
X49024D01*
Y95402D01*
X52226D01*
Y95302D01*
X55076D01*
Y91298D01*
X52226D01*
Y91198D01*
X51726D01*
Y90244D01*
X50536Y89053D01*
Y88592D01*
X50636D01*
Y85788D01*
X48232D01*
Y85888D01*
X46699D01*
Y85788D01*
G37*
G36*
G01X-27598Y57849D02*
Y57564D01*
X-27509Y57505D01*
G02X-29720Y57326I-991J-1505D01*
G03X-29769Y57953I-271J294D01*
G02X-27503Y57907I1169J1747D01*
G01X-27598Y57849D01*
G37*
G36*
G01X97128Y41802D02*
Y27198D01*
X90724D01*
Y33138D01*
X87880D01*
G02Y35862I-1180J1362D01*
G01X90724D01*
Y41802D01*
X97128D01*
G37*
G36*
G01X-56412Y-22152D02*
G03X-56791Y-22678I0J-400D01*
G02X-60209I-1709J-572D01*
G03X-60588Y-22152I-379J126D01*
G01X-62052D01*
Y-16248D01*
X-54848D01*
Y-22152D01*
X-56412D01*
G37*
G36*
G01X95910Y-44602D02*
G03X95545Y-45165I0J-400D01*
G02X92340Y-46802I-1646J-734D01*
G01X90904D01*
X89276Y-45173D01*
Y-44602D01*
X84076D01*
Y-40398D01*
X96278D01*
Y-44602D01*
X95910D01*
G37*
G54D75*
X90177Y-37500D03*
Y-22500D03*
G54D77*
X-32963Y73164D03*
G54D72*
X-31000Y-31000D03*
X31000Y31000D03*
G54D69*
X-21500Y-88000D03*
G54D67*
X-84500Y-10000D03*
Y0D03*
Y10000D03*
X0Y-84500D03*
X-10000D03*
Y84500D03*
X0D03*
X10000D03*
X84500Y-10000D03*
Y0D03*
Y10000D03*
G54D76*
X-82600Y84900D03*
X-92600D03*
G54D78*
X72100Y-76500D03*
G54D71*
X-27100Y-64200D03*
G54D73*
X33500Y92200D03*
G54D70*
X-29100Y-73300D03*
G54D74*
X55833Y56419D03*
G54D68*
X-80669Y-38567D03*
G54D66*
X-89331Y-53134D03*
%LPD*%
G75*
G54D10*
X-93400Y-95393D03*
Y-82007D03*
G54D20*
X-84600Y57500D03*
G54D11*
X-96500Y-76300D03*
X-90500Y-78500D03*
X-87500D03*
X-84500D03*
X-93500Y-59800D03*
Y-62800D03*
Y-65800D03*
Y-68800D03*
X-96500Y-73300D03*
X-93500D03*
X-96500Y-70300D03*
Y-67300D03*
Y-64300D03*
Y-61300D03*
X-90500Y-73300D03*
X-87500D03*
X-84500D03*
X-93500Y-44800D03*
Y-53800D03*
Y-47800D03*
Y-50800D03*
Y-56800D03*
X-85100Y-53200D03*
X-89000Y-46000D03*
X-96500Y-58300D03*
Y-52300D03*
Y-49300D03*
Y-55300D03*
Y-46300D03*
Y-43300D03*
X-93500Y-32800D03*
X-84900Y-38400D03*
X-96500Y-40300D03*
Y-37300D03*
Y-31300D03*
Y-28300D03*
X-93500D03*
X-90500D03*
X-87500D03*
X-84500D03*
X-96500Y-34300D03*
X-86000Y-25300D03*
X-89000D03*
X-92000D03*
X-95000D03*
X-84100Y18200D03*
X-83900Y24400D03*
X-91100Y35200D03*
X-85800Y31700D03*
X-90100Y38300D03*
X-93800Y50600D03*
X-86400Y53900D03*
X-90400Y49500D03*
X-95400Y54300D03*
X-90100Y44300D03*
Y41300D03*
X-93757Y61700D03*
X-93800Y57300D03*
X-94800Y67700D03*
Y70700D03*
X-86400Y61100D03*
X-84600Y57500D03*
X-94800Y64700D03*
Y73700D03*
X-91800D03*
X-88800D03*
X-85800D03*
X-70900Y-96100D03*
X-74000Y-96000D03*
Y-93000D03*
X-68000Y-81500D03*
X-71000D03*
X-74000Y-81000D03*
Y-84000D03*
Y-87000D03*
Y-90000D03*
X-75500Y-78500D03*
X-72500D03*
X-69500D03*
X-81500D03*
X-78500D03*
X-71025Y-66975D03*
X-67100Y-65000D03*
X-75200Y-67186D03*
X-78325Y-68700D03*
X-78500Y-73300D03*
X-77176Y-60000D03*
X-81500Y-73300D03*
X-71500Y-56700D03*
X-73200Y-49000D03*
X-80700Y-44300D03*
X-67200Y-29300D03*
X-68700Y-32300D03*
X-74100Y-31300D03*
X-77000D03*
X-80000D03*
X-83000Y-32000D03*
X-81500Y-28300D03*
X-78500D03*
X-75500D03*
X-67700Y-20400D03*
X-77000Y-25300D03*
X-83000D03*
X-79300Y5000D03*
Y-5000D03*
X-77800Y15000D03*
X-72800Y35000D03*
Y38000D03*
X-71588Y30609D03*
X-82800Y31700D03*
X-79800D03*
X-76800D03*
X-72800Y41000D03*
Y44000D03*
Y47000D03*
X-67800Y43700D03*
Y46700D03*
X-82800Y53900D03*
X-75600Y66500D03*
Y63500D03*
X-78600D03*
X-68900Y70500D03*
X-73800Y70700D03*
X-67800Y67700D03*
X-70800D03*
X-82800Y61100D03*
X-71700Y83200D03*
X-72188Y73988D03*
X-75000Y77000D03*
X-82800Y73700D03*
X-79800D03*
X-76800D03*
X-60900Y-96100D03*
X-53000Y-81500D03*
X-56000D03*
X-59000D03*
X-62000D03*
X-65000D03*
X-66500Y-78500D03*
X-63500D03*
X-60500D03*
X-57500D03*
X-54500D03*
X-51500D03*
X-50800Y-67100D03*
X-53770Y-67770D03*
X-57917Y-65860D03*
X-58300Y-70300D03*
X-58700Y-54100D03*
X-59800Y-26300D03*
X-62700D03*
X-61300Y-29300D03*
X-64200D03*
X-65700Y-32300D03*
X-62800D03*
X-59900D03*
X-65720Y-41400D03*
X-66500Y-15800D03*
X-57800Y-12000D03*
X-58500Y-23250D03*
X-57594Y1476D03*
X-57700Y-8798D03*
X-57600Y-1600D03*
X-57866Y-5800D03*
X-57726Y4474D03*
X-57464Y12300D03*
X-57420Y8837D03*
X-57500Y15300D03*
X-61300Y36000D03*
X-55700Y34900D03*
X-61900Y28700D03*
X-64800Y46700D03*
X-58800D03*
Y49700D03*
Y52700D03*
X-52800Y55700D03*
X-55800D03*
X-58800D03*
X-61800Y46700D03*
X-52800Y47600D03*
X-57200Y59300D03*
X-65590Y70790D03*
X-64800Y67700D03*
X-66367Y88567D03*
X-52025Y74225D03*
X-62700Y89200D03*
X-45900Y-96100D03*
X-35000Y-81500D03*
X-38000D03*
X-41000D03*
X-44000D03*
X-47000D03*
X-50000D03*
X-48500Y-78500D03*
X-45500D03*
X-42500D03*
X-39500D03*
X-36500D03*
X-36100Y-69100D03*
X-40600Y-69000D03*
X-47800Y-64100D03*
X-34400Y-59600D03*
X-43700Y-69000D03*
Y-50700D03*
X-42785Y-53615D03*
X-39600Y-48950D03*
X-46200Y-45000D03*
X-47040Y-57180D03*
X-37385Y-52715D03*
X-39700Y-57500D03*
X-36600Y-49600D03*
X-46591Y-47978D03*
X-41500Y-40250D03*
X-48551Y-42398D03*
X-40851Y-29300D03*
X-43851D03*
X-34500Y-35400D03*
X-45351Y-32300D03*
X-42451D03*
X-39551D03*
X-36958Y-33758D03*
X-48251Y-32300D03*
X-37600Y-29700D03*
X-37900Y-12900D03*
X-47400Y-12600D03*
X-37900Y-4100D03*
X-46900D03*
X-45400Y12600D03*
X-46700Y9800D03*
X-39500Y37400D03*
X-46800Y55700D03*
X-49800D03*
X-39700Y47500D03*
X-44900Y48025D03*
X-45400Y63200D03*
X-39100Y94100D03*
X-49100D03*
X-23400Y-96100D03*
X-21500Y-77000D03*
X-23000Y-81500D03*
X-26000D03*
X-29000D03*
X-32000D03*
X-33500Y-78500D03*
X-30500D03*
X-27500D03*
X-24500D03*
X-20000Y-68000D03*
Y-65000D03*
X-21500Y-74000D03*
Y-71000D03*
X-23000Y-60500D03*
Y-63500D03*
Y-66500D03*
X-24500Y-69500D03*
Y-72500D03*
Y-75500D03*
X-33565Y-56535D03*
X-26000Y-59000D03*
Y-56000D03*
Y-53000D03*
Y-50000D03*
X-18300Y-56600D03*
X-17600Y-48500D03*
X-32400Y-49400D03*
X-23000Y-45500D03*
Y-48500D03*
Y-51500D03*
Y-54500D03*
Y-57500D03*
X-24629Y-35370D03*
X-28859Y-36349D03*
X-26350Y-37828D03*
X-24992Y-40391D03*
X-23000Y-42500D03*
X-18500Y-21593D03*
X-23000Y-20800D03*
X-20900Y-6100D03*
X-26000Y20300D03*
X-25800Y17078D03*
X-22200Y17300D03*
X-25100Y12000D03*
X-25962Y23495D03*
X-30600Y26400D03*
X-21191Y53621D03*
X-32900Y55969D03*
X-28500Y56000D03*
X-25800Y42300D03*
X-22500Y56500D03*
X-30500Y63100D03*
X-18000Y82900D03*
X-24100Y94100D03*
X-15400Y-79800D03*
X-5000Y-80100D03*
Y-72200D03*
X-15000D03*
X-3500Y-50100D03*
X-14200Y-42700D03*
X-3700Y-38300D03*
X-8384Y-23600D03*
X-11543Y-23612D03*
X-14536Y-23393D03*
X-15500Y-20300D03*
X-8500Y-19800D03*
X-3000Y-6100D03*
X-17400Y13700D03*
X-3100Y13600D03*
X-5009Y35115D03*
X-3160Y26062D03*
X-1800Y40300D03*
X-13600Y46500D03*
X-11200Y57700D03*
X-4000Y57875D03*
X-999Y57700D03*
X-8200Y57800D03*
X-14197Y57851D03*
X-5000Y72200D03*
X-4900Y82000D03*
X4700Y-80100D03*
X5000Y-72200D03*
X6800Y-45200D03*
X3800D03*
X3400Y-40300D03*
X10900Y-36600D03*
X6500Y-40300D03*
X200Y-20300D03*
X722Y-17322D03*
X6000Y-19600D03*
Y-16500D03*
X13800Y-19900D03*
X200Y-23600D03*
X7800Y-4000D03*
X11400Y-8700D03*
X4800Y-6100D03*
X3155Y19838D03*
X5605Y21909D03*
X7900Y24000D03*
X10613Y26064D03*
X3500Y35200D03*
X13200Y50300D03*
X9304Y57725D03*
X12304Y57800D03*
X6305Y57811D03*
X2000Y57800D03*
X14768Y72184D03*
X5000Y72200D03*
X13700Y79400D03*
X2600D03*
X28065Y-87033D03*
X29615Y-80345D03*
X31800Y-88368D03*
X32083Y-75035D03*
X24900Y-62885D03*
X27899Y-62793D03*
X19837Y-45563D03*
X19300Y-50200D03*
X16425Y-37900D03*
X30460Y-41360D03*
X18967Y-42691D03*
X22168Y-42000D03*
X24800Y-37588D03*
X17400Y-17300D03*
X19266Y-14866D03*
X17234Y-12466D03*
X25200Y-16300D03*
X25400Y-12700D03*
X25900Y-21900D03*
X23000Y-7000D03*
X23900Y13000D03*
X21788Y37498D03*
X24800Y37600D03*
X19993Y40723D03*
X21200Y51200D03*
X30100Y56100D03*
X29000Y52100D03*
X27200Y54600D03*
X19600Y58900D03*
Y68900D03*
X30200Y68100D03*
Y65100D03*
Y62100D03*
X30100Y59100D03*
X30200Y71100D03*
X27200Y69600D03*
Y57600D03*
Y60600D03*
Y63600D03*
Y66600D03*
Y72600D03*
X21200Y87800D03*
Y84800D03*
X30200Y74100D03*
X24200Y89300D03*
Y86300D03*
X27200Y84800D03*
Y87800D03*
X21200Y96800D03*
Y93800D03*
Y90800D03*
X24200Y95300D03*
Y92300D03*
X27200Y90800D03*
Y93800D03*
X30200Y96800D03*
X27200D03*
X46787Y-93157D03*
X39802Y-90768D03*
X35900Y-89568D03*
X34664Y-80536D03*
X43708Y-91968D03*
X33200Y-83269D03*
X36383Y-75035D03*
X42683Y-72535D03*
X34183D03*
X44783Y-75035D03*
X40583D03*
X46883Y-72535D03*
X38483D03*
X35800Y-56300D03*
X34500Y-59300D03*
X42079Y-49487D03*
X38604Y-44668D03*
X35800Y-43600D03*
X36512Y-33088D03*
X34012Y-30588D03*
X38445Y-35400D03*
Y-38400D03*
X35340Y-38694D03*
X42500Y-20500D03*
X40300Y3200D03*
X36900Y5600D03*
X40525Y23975D03*
X46300Y33500D03*
X38000Y27300D03*
X41000D03*
X34800Y49100D03*
X37800D03*
X40800D03*
X43800D03*
X46800D03*
X48200Y56200D03*
X48300Y52100D03*
X45300D03*
X42300D03*
X39300D03*
X36300D03*
X33300D03*
X42700Y69300D03*
X37200Y71000D03*
X35400Y62900D03*
X42400Y60800D03*
X37500Y87500D03*
X45400Y80000D03*
X44500Y90100D03*
X48200Y96800D03*
X39200D03*
X33200D03*
X36200D03*
X42200D03*
X45200D03*
X49540Y-94351D03*
X52300Y-95600D03*
X60964Y-64368D03*
X48983Y-75035D03*
X52919Y-71730D03*
X54878Y-66029D03*
X56978Y-68485D03*
X58864Y-61868D03*
X50819Y-69230D03*
X57432Y-659D03*
X57434Y2341D03*
Y-3659D03*
X57432Y5341D03*
X57537Y-6658D03*
X57088Y-9625D03*
X57490Y14341D03*
X57434Y8341D03*
X63800Y19400D03*
X57430Y11341D03*
X50600Y23100D03*
X60300Y18400D03*
X56100Y17000D03*
X53900Y30700D03*
X51300Y49100D03*
X60300Y46100D03*
X63300D03*
X58800Y49100D03*
X61800D03*
X64800D03*
X53800Y40600D03*
X61500Y56400D03*
X63300Y52100D03*
X60300D03*
X57300D03*
X54300D03*
X51300D03*
X53700Y72000D03*
X54400Y60700D03*
X62000Y59400D03*
X49600Y62100D03*
X55200Y85200D03*
X64700Y93800D03*
X61700D03*
X58700D03*
X64300Y89800D03*
X51200Y96800D03*
X54200D03*
X57200D03*
X60200D03*
X63200D03*
X72825Y-95730D03*
X78900Y-95700D03*
X69785Y-95585D03*
X75900Y-95700D03*
X72100Y-76500D03*
X77200Y-62500D03*
X80800Y-60100D03*
X74191Y-53000D03*
X66500Y-48175D03*
X77184Y-52792D03*
X66777Y-53025D03*
X71197Y-52803D03*
X80100Y-16000D03*
X77100Y-18800D03*
X71404Y-14496D03*
X72200Y-5000D03*
Y5000D03*
X79100Y-5000D03*
Y5300D03*
X66263Y21114D03*
X71600Y17700D03*
X72100Y27700D03*
Y37700D03*
X69300Y46100D03*
X72300D03*
X75300D03*
X78300D03*
X81300D03*
X66300D03*
X67800Y49100D03*
X70800D03*
X73800D03*
X76800D03*
X79800D03*
X81200Y56300D03*
X76600Y54800D03*
X81300Y52100D03*
X78300D03*
X75300D03*
X72300D03*
X69300D03*
X66300D03*
X81200Y68300D03*
Y65300D03*
Y62300D03*
Y59300D03*
X73800Y57500D03*
Y67500D03*
X78200Y57800D03*
Y60800D03*
Y63800D03*
Y66800D03*
Y72800D03*
X81200D03*
X78200Y69800D03*
X69000Y88800D03*
X72000Y87300D03*
X78200Y87800D03*
Y84800D03*
Y81800D03*
Y78800D03*
Y75800D03*
X69000Y91800D03*
X72000Y93300D03*
Y90300D03*
X66200Y96800D03*
X69200D03*
X72200D03*
X75200D03*
X78200D03*
Y90800D03*
X81900Y-95700D03*
X85011Y-95692D03*
X91081Y-95702D03*
X88081Y-95694D03*
X93035Y-77535D03*
X95900Y-83200D03*
X82600Y-62500D03*
X87600Y-67800D03*
X89815Y-74815D03*
X87000Y-71500D03*
X84300Y-68100D03*
X90750Y-70750D03*
X82100Y-65900D03*
X93785Y-73785D03*
X94000Y-54500D03*
X93900Y-45900D03*
X82400Y-30000D03*
X82600Y-34900D03*
X85600Y-16600D03*
X82500Y-25000D03*
X86700Y34500D03*
X82100Y37700D03*
Y27700D03*
X87300Y46100D03*
X90300D03*
X93300D03*
X96300D03*
X84300D03*
X85800Y49100D03*
X88800D03*
X91800D03*
X94800D03*
X82800D03*
X96300Y52100D03*
X93300D03*
X90300D03*
X87300D03*
X84300D03*
X84200Y69800D03*
Y66800D03*
Y63800D03*
Y60800D03*
Y57800D03*
X95700Y66900D03*
X84200Y72800D03*
X87200D03*
X90200D03*
X93200D03*
X96200D03*
G54D30*
X-58700Y-54100D03*
G54D12*
X-86000Y-65000D03*
X-79000D03*
X-36100Y-73300D03*
X-29100D03*
G54D21*
X-90407Y53563D03*
Y61437D03*
Y59468D03*
Y57500D03*
Y55532D03*
X-78793Y53563D03*
Y61437D03*
Y59468D03*
Y57500D03*
Y55532D03*
G54D13*
X-89331Y-53134D03*
Y-38567D03*
X-80669Y-53134D03*
Y-38567D03*
G54D40*
X-20400Y-38100D03*
X-14600D03*
G54D31*
X-51800Y-63160D03*
X-53770D03*
X-55740D03*
X-57710D03*
X-59680D03*
X-61650D03*
X-63620D03*
X-65590D03*
X-51800Y-45040D03*
X-53770D03*
X-55740D03*
X-57710D03*
X-59680D03*
X-61650D03*
X-63620D03*
X-65590D03*
X47466Y73310D03*
X45497D03*
X43528D03*
X41560D03*
X47466Y87290D03*
X45497D03*
X43528D03*
X41560D03*
X49434Y73310D03*
Y87290D03*
G54D22*
X-82600Y84900D03*
X-92600D03*
G54D32*
X-67760Y-60990D03*
Y-47200D03*
Y-49170D03*
Y-51140D03*
Y-53110D03*
Y-55080D03*
Y-57050D03*
Y-59020D03*
X-49640Y-60990D03*
Y-47200D03*
Y-49170D03*
Y-51140D03*
Y-53110D03*
Y-55080D03*
Y-57050D03*
Y-59020D03*
X38510Y76366D03*
Y78334D03*
Y80303D03*
Y82272D03*
Y84240D03*
X52490Y76366D03*
Y78334D03*
Y80303D03*
Y82272D03*
Y84240D03*
G54D14*
X-86375Y-32000D03*
X-89325D03*
X-86775Y27600D03*
X-73975Y-64000D03*
X-71025D03*
Y-60000D03*
X-73975D03*
X-83625Y-59700D03*
X-80675D03*
X-83975Y-69500D03*
X-81025D03*
X-75075Y22400D03*
X-72125D03*
X-75075Y18300D03*
X-72125D03*
X-75075Y26500D03*
X-72125D03*
X-83825Y27600D03*
X-81575Y48000D03*
X-78625D03*
X-56725Y-39100D03*
X-59675D03*
X-61275Y39200D03*
X-58325D03*
Y43300D03*
X-61275D03*
X-54475Y59400D03*
X-51525D03*
X-45425D03*
X-48375D03*
X-2275Y37100D03*
X6375Y-37100D03*
X3425D03*
X675Y37100D03*
X27575Y-59200D03*
X24625D03*
X22075Y-37100D03*
X19125D03*
X41925Y-44800D03*
X44875D03*
X47425Y38400D03*
X46825Y69900D03*
X47475Y93300D03*
X44525D03*
X38525D03*
X41475D03*
X54575Y-44800D03*
X51625D03*
X50375Y38400D03*
X49775Y69900D03*
X62025Y81600D03*
X50625Y93300D03*
X53575D03*
X70625Y-60200D03*
X73575D03*
X70625Y-56200D03*
X73575D03*
X68975Y71200D03*
X66025D03*
X64975Y81600D03*
X68975Y75200D03*
X66025D03*
X70975Y81600D03*
X68025D03*
G54D41*
X-31000Y-31000D03*
X31000Y31000D03*
G54D50*
X62615Y-84350D03*
Y-68650D03*
X81585Y-84350D03*
Y-68650D03*
G54D23*
X-71057Y-74543D03*
X-73143Y-72457D03*
X-64143Y-67257D03*
X-62057Y-69343D03*
G54D60*
G01X-36165Y73164D02*
X-32963D01*
G01Y69962D02*
Y73164D01*
G01D02*
Y76366D01*
G01Y73164D02*
X-29761D01*
G54D33*
X-58450Y-19200D03*
X-47750D03*
G54D42*
X-19685Y-30512D03*
X-21654D03*
X-23622D03*
X-19685Y30512D03*
X-21654D03*
X-23622D03*
X-3937Y-30512D03*
X-5906D03*
X-7874D03*
X-9842D03*
X-11811D03*
X-13780D03*
X-15748D03*
X-17716D03*
X-3937Y30512D03*
X-5906D03*
X-7874D03*
X-9842D03*
X-11811D03*
X-13780D03*
X-15748D03*
X-17716D03*
X13780Y-30512D03*
X11811D03*
X9842D03*
X7874D03*
X5906D03*
X3937D03*
X1968D03*
X0D03*
X-1968D03*
X13780Y30512D03*
X11811D03*
X9842D03*
X7874D03*
X5906D03*
X3937D03*
X1968D03*
X0D03*
X-1968D03*
X23622Y-30512D03*
X21654D03*
X19685D03*
X17716D03*
X15748D03*
X23622Y30512D03*
X21654D03*
X19685D03*
X17716D03*
X15748D03*
G54D24*
X-68643Y-71943D03*
X-66557Y-69857D03*
G54D15*
X-94500Y-10000D03*
X-84500D03*
X-94500Y0D03*
X-84500D03*
X-94500Y10000D03*
X-84500D03*
X-74500Y-10000D03*
Y0D03*
Y10000D03*
X0Y-94500D03*
X-10000D03*
X0Y-84500D03*
X-10000D03*
X0Y-74500D03*
X-10000D03*
Y74500D03*
X0D03*
X-10000Y84500D03*
X0D03*
X-10000Y94500D03*
X0D03*
X10000Y-94500D03*
Y-84500D03*
Y-74500D03*
Y74500D03*
Y84500D03*
Y94500D03*
X74500Y-10000D03*
Y0D03*
Y10000D03*
X94500Y-10000D03*
X84500D03*
X94500Y0D03*
X84500D03*
X94500Y10000D03*
X84500D03*
G54D51*
X63140Y-82780D03*
Y-81210D03*
Y-79640D03*
Y-78070D03*
Y-76500D03*
Y-74930D03*
Y-73360D03*
Y-71790D03*
Y-70220D03*
X81060Y-82780D03*
Y-81210D03*
Y-79640D03*
Y-78070D03*
Y-76500D03*
Y-74930D03*
Y-73360D03*
Y-71790D03*
Y-70220D03*
G54D61*
G01X-63620Y-63160D02*
X-63610Y-63176D01*
Y-64624D01*
X-63600Y-64634D01*
Y-66700D01*
G54D25*
X-67250Y-12250D03*
Y2250D03*
Y-2250D03*
Y-7750D03*
Y12250D03*
Y7750D03*
X-61750Y-12250D03*
Y2250D03*
Y-2250D03*
Y-7750D03*
Y12250D03*
Y7750D03*
X61750Y-12250D03*
Y-7750D03*
Y-2250D03*
Y2250D03*
Y7750D03*
Y12250D03*
X67250Y-12250D03*
Y-7750D03*
Y-2250D03*
Y2250D03*
Y7750D03*
Y12250D03*
G54D43*
X-30512Y-23622D03*
Y-21654D03*
Y-19685D03*
Y-17716D03*
Y-15748D03*
Y-13780D03*
Y-11811D03*
Y-9842D03*
Y-7874D03*
Y-5906D03*
Y-3937D03*
Y-1968D03*
Y0D03*
Y1968D03*
Y3937D03*
Y5906D03*
Y7874D03*
Y9842D03*
Y11811D03*
Y13780D03*
Y15748D03*
Y17716D03*
Y19685D03*
Y21654D03*
Y23622D03*
X30512Y-23622D03*
Y-21654D03*
Y-19685D03*
Y-17716D03*
Y-15748D03*
Y-13780D03*
Y-11811D03*
Y-9842D03*
Y-7874D03*
Y-5906D03*
Y-3937D03*
Y-1968D03*
Y0D03*
Y1968D03*
Y3937D03*
Y5906D03*
Y7874D03*
Y9842D03*
Y11811D03*
Y13780D03*
Y15748D03*
Y17716D03*
Y19685D03*
Y21654D03*
Y23622D03*
G54D16*
X-86800Y22600D03*
X-80200Y-23200D03*
X-67400Y-24000D03*
X-18600Y-60700D03*
Y-45000D03*
Y-52850D03*
X-22500Y50700D03*
X-28600D03*
X-22500Y59700D03*
X-28600D03*
X-17600Y42000D03*
X-9900D03*
X10300Y-45000D03*
X15400D03*
X21200Y54900D03*
X21800Y45500D03*
X19600Y62900D03*
X19700Y80400D03*
X19600Y73300D03*
X43900Y-60100D03*
X38400Y-66000D03*
X44900Y-51200D03*
X34300Y44000D03*
X51600Y-51200D03*
X86000Y-62500D03*
G54D52*
X59674Y34500D03*
X93926D03*
G54D34*
X-54944Y18818D03*
X-58056Y21930D03*
X-51867Y21893D03*
X-51902Y28081D03*
X-54979Y25005D03*
X-48790Y24969D03*
X-45715Y28046D03*
X-48827Y31158D03*
G54D62*
G01X-75075Y18300D02*
Y17725D01*
X-77800Y15000D01*
G01X-75075Y18300D02*
Y22400D01*
G01Y26500D02*
Y22400D01*
G01X-57400Y92100D02*
X-66441D01*
X-68917Y89624D01*
Y89558D01*
X-68950Y89525D01*
Y88440D01*
X-71640Y85750D01*
X-73251D01*
X-75000Y84001D01*
Y83475D01*
G01X-55900Y84775D02*
Y90600D01*
X-57400Y92100D01*
G01X-55900Y84775D02*
X-56137Y85012D01*
X-60463D01*
G01X-38998Y5600D02*
X-37373Y7225D01*
G01X38998Y-8200D02*
X37173Y-6375D01*
G01X74600Y81575D02*
Y91700D01*
X76700Y93800D01*
X81607D01*
X82007Y93400D01*
G54D44*
X-2250Y-67250D03*
Y-61750D03*
X-12250Y-67250D03*
Y-61750D03*
X-7750Y-67250D03*
Y-61750D03*
X-2250Y67250D03*
Y61750D03*
X-7750Y67250D03*
Y61750D03*
X-12250Y67250D03*
Y61750D03*
X7750Y-67250D03*
Y-61750D03*
X12250Y-67250D03*
Y-61750D03*
X2250Y-67250D03*
Y-61750D03*
X12250Y67250D03*
Y61750D03*
X7750Y67250D03*
Y61750D03*
X2250Y67250D03*
Y61750D03*
G54D53*
X72100Y-76500D03*
G54D17*
X-94300Y30900D03*
Y23900D03*
X-41700Y-24000D03*
Y-17000D03*
Y5600D03*
Y12600D03*
X41700Y-8200D03*
Y-1200D03*
X33500Y85200D03*
Y92200D03*
G54D35*
X-55900Y65500D03*
Y70000D03*
X-21500Y-88000D03*
G54D26*
X-68100Y52780D03*
Y62820D03*
G54D63*
G01X-85677Y-69500D02*
X-83975D01*
G01X-86000Y-67702D02*
Y-65000D01*
G01D02*
Y-62298D01*
G01X-88602Y-65000D02*
X-86000D01*
G01D02*
X-83398D01*
G01X-85327Y-59700D02*
X-83625D01*
G01X-89331Y-57786D02*
Y-53134D01*
G01D02*
Y-48482D01*
G01X-92433Y-53134D02*
X-89331D01*
G01D02*
X-86229D01*
G01X-86375Y-32000D02*
Y-29798D01*
G01Y-32000D02*
X-84673D01*
G01X-94500Y-14202D02*
Y-10000D01*
G01Y5798D02*
Y10000D01*
G01Y-4202D02*
Y0D01*
G01D02*
Y4202D01*
G01Y0D02*
X-90298D01*
G01X-94500Y-10000D02*
Y-5798D01*
G01Y-10000D02*
X-90298D01*
G01X-94500Y10000D02*
Y14202D01*
G01Y10000D02*
X-90298D01*
G01X-92600Y81798D02*
Y84900D01*
G01D02*
Y88002D01*
G01X-95702Y84900D02*
X-92600D01*
G01D02*
X-89498D01*
G01X-85702D02*
X-82600D01*
G01X-83975Y-71702D02*
Y-69500D01*
G01X-83625Y-61902D02*
Y-59700D01*
G01X-73975Y-60000D02*
Y-57798D01*
G01X-75677Y-60000D02*
X-73975D01*
G01X-80669Y-43219D02*
Y-38567D01*
G01D02*
Y-33915D01*
G01X-83771Y-38567D02*
X-80669D01*
G01D02*
X-77567D01*
G01X-82600Y81798D02*
Y84900D01*
G01D02*
Y88002D01*
G01Y84900D02*
X-79498D01*
G01X-52002Y-75075D02*
X-49800D01*
G01X-62057Y-69343D02*
X-60854Y-70546D01*
G01X-62057Y-69343D02*
X-60500Y-67786D01*
G01X-61275Y43300D02*
Y45502D01*
G01X-62977Y43300D02*
X-61275D01*
G01X-58202Y65500D02*
X-55900D01*
G01D02*
X-53598D01*
G01X-40600Y-76777D02*
Y-75075D01*
G01X-42802D02*
X-40600D01*
G01X-45800Y-76777D02*
Y-75075D01*
G01D02*
X-43598D01*
G01X-49800Y-76777D02*
Y-75075D01*
G01X-37100Y-23977D02*
Y-22275D01*
G01D02*
X-34898D01*
G01X-41700Y-26602D02*
Y-24000D01*
G01D02*
Y-21398D01*
G01X-44402Y-24000D02*
X-41700D01*
G01D02*
X-38998D01*
G01X-37100Y5523D02*
Y7225D01*
G01X-41700Y2998D02*
Y5600D01*
G01D02*
Y8202D01*
G01X-44402Y5600D02*
X-41700D01*
G01D02*
X-38998D01*
G01X-37100Y7225D02*
X-34898D01*
G01X-45715Y28046D02*
X-44370Y26701D01*
G01X-47060D02*
X-45715Y28046D01*
G01D02*
X-44370Y29391D01*
G01X-48790Y24969D02*
X-47445Y23624D01*
G01X-48790Y24969D02*
X-47445Y26314D01*
G01X-40837Y69962D02*
Y73164D01*
G01D02*
Y76366D01*
G01X-44039Y73164D02*
X-40837D01*
G01X-27100Y-67652D02*
Y-64200D01*
G01D02*
Y-60748D01*
G01X-28902Y-64200D02*
X-27100D01*
G01D02*
X-25298D01*
G01X-29100Y-76002D02*
Y-73300D01*
G01D02*
Y-70598D01*
G01X-31702Y-73300D02*
X-29100D01*
G01D02*
X-26498D01*
G01X-33964Y-23622D02*
X-30512D01*
G01D02*
X-27060D01*
G01X-10000Y-94500D02*
Y-90298D01*
G01X-14202Y-94500D02*
X-10000D01*
G01D02*
X-5798D01*
G01X-4202D02*
X0D01*
G01X-4202Y94500D02*
X0D01*
G01X-10000Y90298D02*
Y94500D01*
G01X-14202D02*
X-10000D01*
G01D02*
X-5798D01*
G01X10000Y-94500D02*
Y-90298D01*
G01X5798Y-94500D02*
X10000D01*
G01D02*
X14202D01*
G01X0D02*
Y-90298D01*
G01Y-94500D02*
X4202D01*
G01X675Y37100D02*
Y39302D01*
G01Y37100D02*
X2377D01*
G01X10000Y90298D02*
Y94500D01*
G01X5798D02*
X10000D01*
G01D02*
X14202D01*
G01X0Y90298D02*
Y94500D01*
G01D02*
X4202D01*
G01X31100Y-63377D02*
Y-61675D01*
G01X28898D02*
X31100D01*
G01D02*
X33302D01*
G01X22075Y-37100D02*
Y-34898D01*
G01Y-37100D02*
X23777D01*
G01X30798Y92200D02*
X33500D01*
G01X41700Y-8200D02*
Y-11400D01*
G01X37100Y-8077D02*
Y-6375D01*
G01X34898D02*
X37100D01*
G01X41700Y-8200D02*
Y-5598D01*
G01X38998Y-8200D02*
X41700D01*
G01D02*
X44402D01*
G01X34000Y73975D02*
Y75677D01*
G01X31798Y73975D02*
X34000D01*
G01X38525Y91098D02*
Y93300D01*
G01D02*
Y95502D01*
G01X36823Y93300D02*
X38525D01*
G01X33500Y89598D02*
Y92200D01*
G01D02*
Y94802D01*
G01Y92200D02*
X36202D01*
G01X54100Y26550D02*
Y29002D01*
G01X51848Y26550D02*
X54100D01*
G01D02*
X56352D01*
G01X55833Y53317D02*
Y56419D01*
G01D02*
Y59521D01*
G01X51181Y56419D02*
X55833D01*
G01X53575Y91098D02*
Y93300D01*
G01D02*
Y95502D01*
G01Y93300D02*
X55277D01*
G01X66398Y-76500D02*
X72100D01*
G01D02*
X77802D01*
G01X68975Y68998D02*
Y71200D01*
G01D02*
X70677D01*
G01X74600Y76923D02*
Y78625D01*
G01X72398D02*
X74600D01*
G01D02*
X76802D01*
G01X68975Y75200D02*
Y77402D01*
G01Y75200D02*
X70677D01*
G01X90177Y-37500D02*
Y-35298D01*
G01X83975Y-37500D02*
X90177D01*
G01D02*
X96379D01*
G01X90177Y-34702D02*
Y-32500D01*
G01X83975D02*
X90177D01*
G01D02*
X96379D01*
G01X94500Y-14202D02*
Y-10000D01*
G01X90177Y-22500D02*
Y-20298D01*
G01X83975Y-22500D02*
X90177D01*
G01D02*
X96379D01*
G01X94500Y5798D02*
Y10000D01*
G01Y-4202D02*
Y0D01*
G01D02*
Y4202D01*
G01X90298Y0D02*
X94500D01*
G01Y-10000D02*
Y-5798D01*
G01X90298Y-10000D02*
X94500D01*
G01Y10000D02*
Y14202D01*
G01X90298Y10000D02*
X94500D01*
G54D36*
X-64400Y79500D03*
G54D18*
X-84737Y36800D03*
Y42900D03*
X-87537Y68100D03*
X-76863Y36800D03*
Y42900D03*
X-79663Y68100D03*
G54D27*
X-75000Y83475D03*
Y80525D03*
X-55900Y77175D03*
Y74225D03*
Y81825D03*
Y84775D03*
X-49800Y-72125D03*
Y-75075D03*
X-45800Y-72125D03*
Y-75075D03*
X-40600D03*
Y-72125D03*
X-37100Y-22275D03*
Y-19325D03*
Y7225D03*
Y10175D03*
X-37600Y53775D03*
Y50825D03*
X-41700Y53675D03*
Y50725D03*
Y59875D03*
Y56925D03*
X-37600Y59875D03*
Y56925D03*
X31100Y-61675D03*
Y-58725D03*
X37700Y-50525D03*
Y-53475D03*
X37100Y-6375D03*
Y-3425D03*
X46700Y22475D03*
Y19525D03*
X37100Y21025D03*
Y23975D03*
X34000Y71025D03*
X34600Y59375D03*
Y56425D03*
X34000Y73975D03*
X54500Y49075D03*
Y46125D03*
X62000Y62125D03*
Y65075D03*
X62500Y75025D03*
Y77975D03*
X58400Y80875D03*
Y77925D03*
X66500Y-45475D03*
X77200Y-58475D03*
Y-55525D03*
X67000Y-58675D03*
Y-55725D03*
X66500Y-42525D03*
Y-37475D03*
Y-34525D03*
Y-27525D03*
Y-30475D03*
Y-22475D03*
Y-19525D03*
X74600Y78625D03*
Y81575D03*
G54D54*
X79950Y-85985D03*
X64250D03*
X79950Y-67015D03*
X64250D03*
G54D45*
X30262Y-55019D03*
X28687D03*
X27113D03*
X25538D03*
X23963D03*
X30262Y-43981D03*
X28687D03*
X27113D03*
X25538D03*
X23963D03*
X31837Y-55019D03*
Y-43981D03*
G54D64*
G01X-93400Y-82007D02*
Y-76940D01*
X-93398Y-76938D01*
Y-76918D01*
X-92420Y-75940D01*
X-72454D01*
X-71057Y-74543D01*
G01X-68643Y-71943D02*
Y-72129D01*
X-71057Y-74543D01*
G01X-66557Y-69857D02*
X-64143Y-67443D01*
Y-67257D01*
G01X-63600Y-66700D02*
X-64143Y-67243D01*
Y-67257D01*
G01X93926Y34500D02*
X86700D01*
G54D37*
X-37100Y-64200D03*
X-42100D03*
X-37100Y-44800D03*
X-42100D03*
X-27100Y-64200D03*
X-32100D03*
X-27100Y-44800D03*
X-32100D03*
G54D19*
X-94400Y35200D03*
Y44000D03*
X-33300Y50900D03*
Y59700D03*
G54D28*
X-68335Y85012D03*
Y73988D03*
X-66367Y85012D03*
X-64399D03*
X-62431D03*
X-60463D03*
X-66367Y73988D03*
X-64399D03*
X-62431D03*
X-60463D03*
G54D46*
X22381Y-53437D03*
Y-51862D03*
Y-50287D03*
Y-48713D03*
Y-47138D03*
Y-45563D03*
X33459Y-53437D03*
Y-51862D03*
Y-50287D03*
Y-48713D03*
Y-47138D03*
Y-45563D03*
G54D55*
X78380Y-85460D03*
X76810D03*
X75240D03*
X73670D03*
X72100D03*
X70530D03*
X68960D03*
X67390D03*
X65820D03*
X78380Y-67540D03*
X76810D03*
X75240D03*
X73670D03*
X72100D03*
X70530D03*
X68960D03*
X67390D03*
X65820D03*
G54D65*
G01X-67760Y-51140D02*
X-74560D01*
X-79200Y-46500D01*
X-82948D01*
X-89331Y-40117D01*
Y-38567D01*
G01X-89325Y-32000D02*
Y-38561D01*
X-89331Y-38567D01*
G01X-86800Y22600D02*
Y25175D01*
X-86775Y25200D01*
Y27600D01*
G01X-94300Y23900D02*
X-90500D01*
X-89200Y22600D01*
X-86800D01*
G01X-94300Y23900D02*
X-94400D01*
X-97700Y27200D01*
Y41100D01*
X-94800Y44000D01*
G01X-94400Y35200D02*
X-91100D01*
G01X-90407Y53563D02*
X-92957D01*
X-93800Y52720D01*
Y50600D01*
G01X-94400Y44000D02*
X-94800D01*
G01X-90407Y59468D02*
X-95632D01*
X-97700Y57400D01*
Y46800D01*
X-94900Y44000D01*
X-94800D01*
G01X-95400Y54300D02*
X-94500Y55200D01*
G01X-93800Y57300D02*
X-93600Y57500D01*
X-90407D01*
G01Y61437D02*
X-92937D01*
X-93200Y61700D01*
X-93757D01*
G01X-94500Y55200D02*
X-91500D01*
X-91168Y55532D01*
X-90407D01*
G01X-71025Y-66975D02*
Y-64000D01*
G01D02*
X-69225D01*
X-67760Y-62535D01*
Y-60990D01*
G01X-81025Y-69500D02*
Y-67025D01*
X-79000Y-65000D01*
G01X-73975Y-64000D02*
Y-65175D01*
X-75200Y-66400D01*
Y-67186D01*
G01X-79000Y-65000D02*
X-74975D01*
X-73975Y-64000D01*
G01X-78325Y-68700D02*
X-78600D01*
X-79788Y-69888D01*
X-80637D01*
X-81025Y-69500D01*
G01X-78500Y-73300D02*
X-77015Y-71815D01*
G01D02*
X-73785D01*
X-73143Y-72457D01*
G01X-67760Y-47200D02*
X-70000D01*
X-70800Y-46400D01*
Y-21200D01*
X-70000Y-20400D01*
X-67700D01*
G01X-66500Y-15800D02*
X-66570Y-15870D01*
Y-16300D01*
X-66900D01*
X-69800Y-19200D01*
X-70498D01*
X-72000Y-20702D01*
Y-46898D01*
X-69728Y-49170D01*
X-67760D01*
G01Y-55080D02*
X-69880D01*
X-71500Y-56700D01*
G01D02*
X-71150Y-57050D01*
X-67760D01*
G01X-80675Y-59700D02*
Y-53140D01*
X-80669Y-53134D01*
G01D02*
X-77369D01*
X-77345Y-53110D01*
X-67760D01*
G01X-71025Y-60000D02*
X-70045Y-59020D01*
X-67760D01*
G01X-66500Y-15800D02*
X-72800D01*
X-80200Y-23200D01*
G01X-79300Y-5000D02*
X-71000D01*
X-68250Y-7750D01*
X-67250D01*
G01X-79300Y5000D02*
X-71000D01*
X-68250Y2250D01*
X-67250D01*
G01X-77800Y15000D02*
X-71000D01*
X-68250Y12250D01*
X-67250D01*
G01X-72125Y18300D02*
X-70225D01*
X-69800Y18725D01*
Y21127D01*
X-66827Y24100D01*
X-60226D01*
X-58056Y21930D01*
G01X-51902Y28081D02*
X-54873D01*
X-56454Y26500D01*
X-72125D01*
G01Y22400D02*
X-70225D01*
X-67325Y25300D01*
X-57872D01*
X-57577Y25005D01*
X-54979D01*
G01X-48827Y31158D02*
X-68939D01*
X-69488Y30609D01*
X-71588D01*
G01X-83825Y27600D02*
Y24775D01*
X-83900Y24700D01*
Y24400D01*
G01X-66367Y73988D02*
Y72983D01*
X-67462Y71888D01*
X-68112D01*
X-68900Y71100D01*
Y70500D01*
G01X-84600Y57500D02*
X-82600Y55500D01*
G01X-68335Y85012D02*
X-69635D01*
X-70032Y84615D01*
X-70285D01*
X-71700Y83200D01*
G01X-68335Y73988D02*
X-72188D01*
G01X-75000Y80525D02*
Y77000D01*
G01X-53770Y-63160D02*
Y-67770D01*
G01X-61650Y-63160D02*
X-59680D01*
G01D02*
Y-64097D01*
X-57917Y-65860D01*
G01X-65590Y-63160D02*
Y-63460D01*
X-67100Y-64970D01*
Y-65000D01*
G01X-42100Y-64200D02*
Y-55900D01*
X-41015Y-54815D01*
X-36515D01*
X-34500Y-52800D01*
Y-41800D01*
X-35150Y-41150D01*
X-37630D01*
X-40630Y-38150D01*
X-51750D01*
X-55100Y-41500D01*
X-56600D01*
X-57710Y-42610D01*
Y-45040D01*
G01X-59675Y-39100D02*
Y-43335D01*
X-59680Y-43340D01*
Y-45040D01*
G01X-37385Y-52715D02*
X-39485D01*
X-41600Y-50600D01*
Y-49830D01*
X-42830Y-48600D01*
X-43500D01*
X-44100Y-48000D01*
Y-40898D01*
X-45648Y-39350D01*
X-51252D01*
X-55740Y-43838D01*
Y-45040D01*
G01X-48551Y-42398D02*
X-52602D01*
X-53770Y-43566D01*
Y-45040D01*
G01X-27100Y-44800D02*
Y-41150D01*
X-30750Y-37500D01*
X-36186D01*
X-39136Y-34550D01*
X-60596D01*
X-63620Y-37574D01*
Y-45040D01*
G01X-61650D02*
Y-37302D01*
X-60098Y-35750D01*
X-39634D01*
X-36684Y-38700D01*
X-32202D01*
X-29750Y-41152D01*
Y-49750D01*
X-37100Y-57100D01*
Y-64200D01*
G01X-65590Y-45040D02*
Y-41530D01*
X-65720Y-41400D01*
G01X-32100Y-44800D02*
Y-40500D01*
X-32700Y-39900D01*
X-37182D01*
X-40132Y-36950D01*
X-52675D01*
X-54825Y-39100D01*
X-56725D01*
G01X-67400Y-24000D02*
X-67700Y-23700D01*
Y-20400D01*
G01X-67250Y-12250D02*
X-66650D01*
X-64500Y-10100D01*
X-59327D01*
X-58025Y-8798D01*
X-57700D01*
G01X-57800Y-12000D02*
X-61500D01*
X-61750Y-12250D01*
G01X-57594Y1476D02*
X-59170Y-100D01*
X-64500D01*
X-66650Y-2250D01*
X-67250D01*
G01X-57600Y-1600D02*
X-58100Y-2100D01*
X-61600D01*
X-61750Y-2250D01*
G01X-57866Y-5800D02*
X-59000D01*
X-60700Y-7500D01*
X-61500D01*
X-61750Y-7750D01*
G01X-57726Y4474D02*
X-58626D01*
X-60850Y2250D01*
X-61750D01*
G01X-67250Y7750D02*
X-66650D01*
X-64300Y10100D01*
X-59127D01*
X-58600Y10627D01*
Y11300D01*
X-57600Y12300D01*
X-57464D01*
G01X-57420Y8837D02*
X-59563D01*
X-60775Y7625D01*
X-61625D01*
X-61750Y7750D01*
G01X-57500Y15300D02*
X-57700D01*
X-60750Y12250D01*
X-61750D01*
G01X-54944Y18818D02*
X-52346D01*
X-51828Y18300D01*
X-40900D01*
X-34400Y11800D01*
X-30523D01*
X-30512Y11811D01*
G01X-61300Y36000D02*
Y36700D01*
X-61275Y36725D01*
Y39200D01*
G01X-58325D02*
X-48466D01*
X-43133Y33867D01*
G01X-58325Y39200D02*
Y43300D01*
G01X-65590Y70790D02*
Y70810D01*
X-64399Y72001D01*
Y73988D01*
G01X-57200Y59300D02*
X-57100Y59400D01*
X-54475D01*
G01X-55900Y70000D02*
X-56375Y70475D01*
X-61376D01*
X-62431Y71530D01*
Y73988D01*
G01X-66367Y85012D02*
Y88567D01*
G01X-55900Y74225D02*
X-58300D01*
X-58537Y73988D01*
X-60463D01*
G01X-51800Y-63160D02*
Y-66100D01*
X-50800Y-67100D01*
G01X-36100Y-73300D02*
Y-69100D01*
G01X-40600Y-72125D02*
Y-69000D01*
G01X-49800Y-72125D02*
Y-70225D01*
X-45300Y-65725D01*
Y-60579D01*
X-44650Y-59929D01*
Y-56448D01*
X-46018Y-55080D01*
X-49640D01*
G01X-45800Y-72125D02*
Y-68130D01*
X-44100Y-66430D01*
Y-61077D01*
X-43450Y-60427D01*
Y-55950D01*
X-46290Y-53110D01*
X-49640D01*
G01X-43700Y-50700D02*
X-45800D01*
X-46400Y-50100D01*
X-47182D01*
X-47342Y-49940D01*
X-48067D01*
X-48367Y-49640D01*
X-49170D01*
X-49640Y-49170D01*
G01X-42785Y-53615D02*
X-43600Y-52800D01*
X-44570D01*
X-45460Y-51910D01*
X-47070D01*
X-47840Y-51140D01*
X-49640D01*
G01X-42100Y-44800D02*
Y-46450D01*
X-39600Y-48950D01*
G01X-51800Y-45040D02*
X-48240D01*
X-48200Y-45000D01*
X-46200D01*
G01X-49640Y-57050D02*
X-47170D01*
X-47040Y-57180D01*
G01X-37100Y-44800D02*
X-39000D01*
X-40000Y-43800D01*
Y-41800D01*
X-40085Y-41715D01*
Y-41665D01*
X-41500Y-40250D01*
G01X-49640Y-47200D02*
X-47200D01*
X-46600Y-47800D01*
Y-47969D01*
X-46591Y-47978D01*
G01X-37600Y-29700D02*
X-33400Y-25500D01*
X-24357D01*
X-20900Y-22043D01*
Y-20398D01*
X-9842Y-9340D01*
Y30512D01*
G01X-37373Y7225D02*
X-37100D01*
G01X-43133Y33867D02*
X-39296Y30030D01*
Y20092D01*
X-34952Y15748D01*
X-30512D01*
G01X-37100Y10175D02*
X-39275D01*
X-41700Y12600D01*
G01X-30512Y9842D02*
X-34367D01*
X-34700Y10175D01*
X-37100D01*
G01X-41700Y12600D02*
X-45400D01*
G01X-51867Y21893D02*
X-49269D01*
X-46876Y19500D01*
X-40402D01*
X-34682Y13780D01*
X-30512D01*
G01Y7874D02*
X-36451D01*
X-37100Y7225D01*
G01X-41700Y53675D02*
X-41225Y53200D01*
X-38175D01*
X-37600Y53775D01*
G01Y56925D02*
Y53775D01*
G01X-33300Y50900D02*
X-37525D01*
X-37600Y50825D01*
G01D02*
Y49600D01*
X-39700Y47500D01*
G01X-33667Y43333D02*
X-35399Y41601D01*
X-43801D01*
X-47400Y45200D01*
Y52130D01*
X-44700Y54830D01*
Y56325D01*
X-44100Y56925D01*
X-41700D01*
G01X-44900Y48025D02*
X-42200Y50725D01*
X-41700D01*
G01X-45400Y63200D02*
Y59425D01*
X-45425Y59400D01*
G01X-51525D02*
X-48375D01*
G01X-32100Y-64200D02*
Y-58000D01*
X-33565Y-56535D01*
G01X-19685Y-30512D02*
Y-34162D01*
X-19700Y-34177D01*
Y-34400D01*
X-20400Y-35100D01*
Y-38100D01*
G01X-24629Y-35370D02*
X-26114Y-33885D01*
Y-28381D01*
X-24433Y-26700D01*
X-22499D01*
X-21654Y-27545D01*
Y-30512D01*
G01X-25900Y-21600D02*
X-25954Y-21654D01*
G01X-34898Y-22275D02*
X-34277Y-21654D01*
G01X-25954D02*
X-30512D01*
G01X-34277D02*
X-30512D01*
G01X-23000Y-20800D02*
X-11042Y-8842D01*
Y26093D01*
X-11811Y26862D01*
Y30512D01*
G01X-22200Y17300D02*
Y2694D01*
X-26862Y-1968D01*
X-30512D01*
G01X-26000Y20300D02*
X-26600Y19700D01*
X-30497D01*
X-30512Y19685D01*
G01X-25800Y17078D02*
Y17200D01*
X-26400Y17800D01*
X-26500D01*
X-26584Y17716D01*
X-30512D01*
G01X-25962Y23495D02*
X-26005D01*
X-27900Y21600D01*
X-30458D01*
X-30512Y21654D01*
G01X-21654Y30512D02*
Y46546D01*
X-18800Y49400D01*
Y70100D01*
X-14400Y74500D01*
X-10000D01*
G01X-30600Y26400D02*
X-30500Y26300D01*
Y23634D01*
X-30512Y23622D01*
G01X-21191Y53621D02*
X-21200Y53612D01*
Y53600D01*
X-22600Y52200D01*
Y50800D01*
X-22500Y50700D01*
G01X-32900Y55969D02*
X-30900Y53969D01*
Y53000D01*
X-28600Y50700D01*
G01X-22500Y56500D02*
Y59700D01*
G01X-28500Y56000D02*
Y59600D01*
X-28600Y59700D01*
G01X-30500Y63100D02*
X-32050D01*
X-33300Y61850D01*
G01D02*
Y59700D01*
G01X-18600Y-60700D02*
X-16200Y-58300D01*
Y-52148D01*
X-11452Y-47400D01*
X-10404D01*
X-7200Y-44196D01*
Y-36104D01*
X-9374Y-33930D01*
Y-33527D01*
X-9842Y-33059D01*
Y-30512D01*
G01X35900Y-89568D02*
X33800D01*
X32900Y-90468D01*
X26832D01*
X25797Y-89433D01*
X23604D01*
X21600Y-87429D01*
Y-69689D01*
X20400Y-68489D01*
Y-62137D01*
X19401Y-61138D01*
Y-57300D01*
X19400Y-57299D01*
Y-56908D01*
X15992Y-53500D01*
X8208D01*
X6708Y-55000D01*
X4633D01*
X4533Y-55100D01*
X4504D01*
X2204Y-57400D01*
X-598D01*
X-1498Y-58300D01*
X-3573D01*
X-4400Y-59127D01*
Y-63173D01*
X-7750Y-66523D01*
Y-67250D01*
G01X28065Y-87033D02*
X24600D01*
X24000Y-86433D01*
Y-68693D01*
X22800Y-67493D01*
Y-61142D01*
X22300Y-60641D01*
X21801Y-60142D01*
Y-56304D01*
X21800Y-56303D01*
Y-55912D01*
X16988Y-51100D01*
X7212D01*
X5712Y-52600D01*
X3637D01*
X3537Y-52700D01*
X3508D01*
X1208Y-55000D01*
X-1594D01*
X-2494Y-55900D01*
X-4598D01*
X-7298Y-58600D01*
X-10100D01*
X-12250Y-60750D01*
Y-61750D01*
G01X31800Y-88368D02*
X29700D01*
X28935Y-89133D01*
X27195D01*
X26295Y-88233D01*
X24102D01*
X22800Y-86931D01*
Y-69191D01*
X21600Y-67991D01*
Y-61639D01*
X20601Y-60639D01*
Y-56802D01*
X20600Y-56801D01*
Y-56410D01*
X16490Y-52300D01*
X7710D01*
X6210Y-53800D01*
X4135D01*
X4035Y-53900D01*
X4006D01*
X1706Y-56200D01*
X-1096D01*
X-1996Y-57100D01*
X-4100D01*
X-7750Y-60750D01*
Y-61750D01*
G01X-2250Y-67250D02*
X-4400D01*
X-5000Y-67850D01*
Y-72200D01*
G01X-15000D02*
Y-67850D01*
X-14400Y-67250D01*
X-12250D01*
G01X-18600Y-52850D02*
X-11950Y-46200D01*
X-10902D01*
X-8400Y-43698D01*
Y-36602D01*
X-11342Y-33660D01*
Y-33458D01*
X-11900Y-32900D01*
Y-30601D01*
X-11811Y-30512D01*
G01X-18600Y-45000D02*
X-11400D01*
X-9600Y-43200D01*
Y-37100D01*
X-12538Y-34162D01*
X-12784D01*
X-13311Y-33635D01*
Y-33389D01*
X-13780Y-32920D01*
Y-30512D01*
G01X39802Y-90768D02*
X37702D01*
X36802Y-91668D01*
X26334D01*
X25299Y-90633D01*
X23106D01*
X20400Y-87927D01*
Y-70187D01*
X19200Y-68987D01*
Y-62635D01*
X18200Y-61635D01*
Y-57406D01*
X15494Y-54700D01*
X8706D01*
X7206Y-56200D01*
X5131D01*
X5031Y-56300D01*
X5002D01*
X2702Y-58600D01*
X-100D01*
X-2250Y-60750D01*
Y-61750D01*
G01X17400Y-17300D02*
X13300Y-13200D01*
X175D01*
X-3168Y-16543D01*
Y-26093D01*
X-3937Y-26862D01*
Y-30512D01*
G01X-17716D02*
Y-37384D01*
X-17000Y-38100D01*
X-14600D01*
G01X-8384Y-23600D02*
X-9842Y-25058D01*
Y-30512D01*
G01X-11811D02*
Y-25980D01*
X-11543Y-25712D01*
Y-23612D01*
G01X-14536Y-23393D02*
X-14600Y-23457D01*
Y-24292D01*
X-13700Y-25192D01*
Y-26782D01*
X-13780Y-26862D01*
Y-30512D01*
G01X-18500Y-21593D02*
Y-23693D01*
X-15748Y-26445D01*
Y-30512D01*
G01X19266Y-14866D02*
X16664D01*
X13798Y-12000D01*
X-323D01*
X-4368Y-16045D01*
Y-25324D01*
X-5906Y-26862D01*
Y-30512D01*
G01X-7874D02*
Y-26862D01*
X-5568Y-24556D01*
Y-15547D01*
X-820Y-10799D01*
X174D01*
X175Y-10800D01*
X14296D01*
X14477Y-10981D01*
X15749D01*
X17234Y-12466D01*
G01X-5009Y35115D02*
X-4900Y35006D01*
Y34400D01*
X-5906Y33394D01*
Y30512D01*
G01X-3160Y26062D02*
X-3262D01*
X-3937Y26737D01*
Y30512D01*
G01X-1968D02*
Y34393D01*
X-2275Y34700D01*
Y37100D01*
G01X-9900Y42000D02*
Y39600D01*
X-9842Y39542D01*
Y30512D01*
G01X-17600Y42000D02*
X-11800Y36200D01*
Y34173D01*
X-11811Y34162D01*
Y30512D01*
G01X-2275Y37100D02*
Y39525D01*
X-1800Y40000D01*
Y40300D01*
G01X-11200Y57700D02*
X-10100Y58800D01*
Y64373D01*
X-12250Y66523D01*
Y67250D01*
G01X-4000Y57875D02*
X-3800Y58075D01*
Y59200D01*
X-2250Y60750D01*
Y61750D01*
G01X-999Y57700D02*
X-100Y58599D01*
Y64373D01*
X-2250Y66523D01*
Y67250D01*
G01X-8200Y57800D02*
X-7750Y58250D01*
Y61750D01*
G01X-12250D02*
Y59620D01*
X-14019Y57851D01*
X-14197D01*
G01X-7750Y67250D02*
Y69450D01*
X-5000Y72200D01*
G01X49540Y-94351D02*
X48591Y-95300D01*
X24872D01*
X23805Y-94233D01*
X21612D01*
X16800Y-89421D01*
Y-71681D01*
X15600Y-70481D01*
Y-64129D01*
X14600Y-63129D01*
Y-58900D01*
X14000Y-58300D01*
X10200D01*
X7750Y-60750D01*
Y-61750D01*
G01X12250Y-67250D02*
Y-70527D01*
X14400Y-72677D01*
Y-90417D01*
X20616Y-96633D01*
X22809D01*
X23876Y-97700D01*
X53170D01*
X58370Y-92500D01*
X67344D01*
X70443Y-89401D01*
X72497D01*
X73670Y-88228D01*
Y-85460D01*
G01X43708Y-91968D02*
X41608D01*
X40708Y-92868D01*
X25836D01*
X24801Y-91833D01*
X22608D01*
X19200Y-88425D01*
Y-70685D01*
X18000Y-69485D01*
Y-63133D01*
X17000Y-62133D01*
Y-57904D01*
X14996Y-55900D01*
X9204D01*
X7704Y-57400D01*
X5629D01*
X5529Y-57500D01*
X5500D01*
X2250Y-60750D01*
Y-61750D01*
G01X52300Y-95600D02*
X51400Y-96500D01*
X24374D01*
X23307Y-95433D01*
X21114D01*
X15600Y-89919D01*
Y-72179D01*
X14400Y-70979D01*
Y-64627D01*
X13873Y-64100D01*
X12850D01*
X12250Y-63500D01*
Y-61750D01*
G01X46787Y-93157D02*
X45876Y-94068D01*
X25338D01*
X24303Y-93033D01*
X22110D01*
X18000Y-88923D01*
Y-71183D01*
X16800Y-69983D01*
Y-63631D01*
X15800Y-62631D01*
Y-58402D01*
X14498Y-57100D01*
X9702D01*
X8202Y-58600D01*
X6127D01*
X4700Y-60027D01*
Y-64073D01*
X2250Y-66523D01*
Y-67250D01*
G01X7750D02*
X5600D01*
X5000Y-67850D01*
Y-72200D01*
G01X6800Y-45200D02*
Y-43081D01*
X8700Y-41181D01*
Y-35304D01*
X9842Y-34162D01*
Y-30512D01*
G01X3800Y-45200D02*
X600Y-42000D01*
Y-35530D01*
X1968Y-34162D01*
Y-30512D01*
G01X10300Y-45000D02*
X13125Y-42175D01*
Y-36476D01*
X15748Y-33853D01*
Y-30512D01*
G01X11811D02*
Y-26438D01*
X11211Y-25838D01*
X7540D01*
X3487Y-21785D01*
X1685D01*
X200Y-20300D01*
G01X722Y-17322D02*
X8038Y-24638D01*
X11709D01*
X13780Y-26709D01*
Y-30512D01*
G01X3937D02*
Y-34188D01*
X3425Y-34700D01*
Y-37100D01*
G01D02*
Y-38975D01*
X3400Y-39000D01*
Y-40300D01*
G01X13800Y-19900D02*
Y-17271D01*
X10929Y-14400D01*
X673D01*
X-1968Y-17041D01*
Y-30512D01*
G01X6375Y-37100D02*
X6500Y-37225D01*
Y-40300D01*
G01X5906Y-30512D02*
Y-34231D01*
X6375Y-34700D01*
Y-37100D01*
G01X6000Y-19600D02*
X8756D01*
X15748Y-26592D01*
Y-30512D01*
G01X6000Y-16500D02*
X8100D01*
X9545Y-17945D01*
Y-18691D01*
X17716Y-26862D01*
Y-30512D01*
G01X7800Y-4000D02*
X16300D01*
X24237Y3937D01*
X30512D01*
G01X11400Y-8700D02*
X16800D01*
X21366Y-13266D01*
Y-15966D01*
X25085Y-19685D01*
X30512D01*
G01X4800Y-6100D02*
X10000D01*
X10900Y-5200D01*
X16798D01*
X23966Y1968D01*
X30512D01*
G01X3155Y19838D02*
Y21938D01*
X3200Y21983D01*
Y24993D01*
X3937Y25730D01*
Y30512D01*
G01X7874D02*
Y26126D01*
X7900Y26100D01*
Y24000D01*
G01X10613Y26064D02*
X10529Y26148D01*
Y27171D01*
X9842Y27858D01*
Y30512D01*
G01X5605Y21909D02*
Y24009D01*
X5800Y24204D01*
Y24870D01*
X5900Y24970D01*
Y25995D01*
X5906Y26001D01*
Y30512D01*
G01X0D02*
Y34500D01*
G01D02*
X675Y35175D01*
Y37100D01*
G01X9304Y57725D02*
X9900Y58321D01*
Y64400D01*
X7750Y66550D01*
Y67250D01*
G01X12304Y57800D02*
Y57801D01*
X12300Y57805D01*
Y57900D01*
X12250Y57950D01*
Y61750D01*
G01X6305Y57811D02*
Y58505D01*
X6900Y59100D01*
Y60900D01*
X7750Y61750D01*
G01X2250D02*
Y58150D01*
X2000Y57900D01*
Y57800D01*
G01X2250Y67250D02*
Y69450D01*
X5000Y72200D01*
G01X14768Y72184D02*
X12250Y69666D01*
Y67250D01*
G01X29615Y-80345D02*
Y-82654D01*
X32330Y-85369D01*
X37373D01*
X41872Y-89868D01*
X44578D01*
X45767Y-91057D01*
X47657D01*
X47900Y-91300D01*
X66846D01*
X70530Y-87616D01*
Y-85460D01*
G01X24625Y-59200D02*
Y-62610D01*
X24900Y-62885D01*
G01X27575Y-59200D02*
X27899Y-59524D01*
Y-62793D01*
G01X34500Y-59300D02*
Y-58100D01*
X33068Y-56669D01*
X31064D01*
X30537Y-56142D01*
Y-55294D01*
X30262Y-55019D01*
G01X15400Y-45000D02*
Y-42600D01*
X14325Y-41525D01*
Y-36974D01*
X17716Y-33583D01*
Y-30512D01*
G01X24625Y-59200D02*
Y-58376D01*
X25263Y-57738D01*
Y-55294D01*
X25538Y-55019D01*
G01X22381Y-45563D02*
X19837D01*
G01X22381D02*
X23122D01*
X23190Y-45631D01*
X26311D01*
X26838Y-45104D01*
Y-44623D01*
X27113Y-44348D01*
Y-43981D01*
G01X28687Y-55019D02*
Y-56488D01*
X30924Y-58725D01*
X31100D01*
G01X27113Y-55019D02*
Y-58738D01*
X27575Y-59200D01*
G01X24700Y-53200D02*
X24531Y-53369D01*
G01X27100Y-52700D02*
X27113Y-52713D01*
G01X30300Y-45900D02*
X30262Y-45862D01*
G01D02*
Y-43981D01*
G01X24531Y-53369D02*
X23190D01*
X23122Y-53437D01*
X22381D01*
G01X30813Y-48713D02*
X30800Y-48700D01*
G01X20762Y-51862D02*
X20700Y-51800D01*
G01X22381Y-51862D02*
X20762D01*
G01X20713Y-50287D02*
X20700Y-50300D01*
G01X22381Y-50287D02*
X20713D01*
G01X20913Y-48713D02*
X20700Y-48500D01*
G01X22381Y-48713D02*
X20913D01*
G01X24438Y-47138D02*
X24500Y-47200D01*
G01X22381Y-47138D02*
X24438D01*
G01X24487Y-48713D02*
X24600Y-48600D01*
G01X22381Y-48713D02*
X24487D01*
G01Y-50287D02*
X24500Y-50300D01*
G01X22381Y-50287D02*
X24487D01*
G01X24862Y-51862D02*
X24900Y-51900D01*
G01X22381Y-51862D02*
X24862D01*
G01X20785Y-47585D02*
X21232Y-47138D01*
X22381D01*
G01X20800Y-52900D02*
X21337Y-53437D01*
X22381D01*
G01X27113Y-52713D02*
Y-55019D01*
G01X23622Y-30512D02*
X26013D01*
X29835Y-34334D01*
Y-37398D01*
X28058Y-39175D01*
X27735D01*
G01X19685Y-30512D02*
Y-36540D01*
X19125Y-37100D01*
G01X30460Y-41360D02*
X31640D01*
X32065Y-40935D01*
Y-39175D01*
G01X19125Y-37100D02*
X17700D01*
X16900Y-37900D01*
X16425D01*
G01X32065Y-36025D02*
Y-34125D01*
X30512Y-32572D01*
Y-23622D01*
G01X18967Y-42691D02*
Y-40591D01*
X19658Y-39900D01*
X23107D01*
X25538Y-42331D01*
Y-43981D01*
G01X22168Y-42000D02*
X22200Y-42032D01*
Y-43381D01*
X22800Y-43981D01*
X23963D01*
G01X24800Y-37588D02*
X25212D01*
X25900Y-36900D01*
G01X22075Y-34898D02*
Y-34700D01*
X21654Y-34279D01*
G01D02*
Y-30512D01*
G01X25900Y-36900D02*
X26860D01*
X27735Y-36025D01*
G01X21654Y-26154D02*
Y-30512D01*
G01X30512Y-17716D02*
X34162D01*
X36700Y-20254D01*
Y-26910D01*
X39278Y-29488D01*
X40781D01*
X43693Y-32400D01*
X46386D01*
X49186Y-35200D01*
X52713D01*
X53913Y-36400D01*
X59600D01*
X60200Y-35800D01*
Y-31906D01*
X61100Y-31006D01*
Y-25677D01*
X64100Y-22677D01*
Y-18152D01*
X64627Y-17625D01*
X68373D01*
X69073Y-18325D01*
X73277D01*
X74002Y-17600D01*
X74901D01*
X76501Y-16000D01*
X80100D01*
G01X66500Y-22475D02*
X66000D01*
X62800Y-25675D01*
Y-27127D01*
X62300Y-27627D01*
Y-31504D01*
X61400Y-32404D01*
Y-36298D01*
X60098Y-37600D01*
X53415D01*
X52215Y-36400D01*
X48688D01*
X45888Y-33600D01*
X43195D01*
X40283Y-30688D01*
X38780D01*
X35500Y-27408D01*
Y-22992D01*
X34162Y-21654D01*
X30512D01*
G01Y-15748D02*
X25752D01*
X25200Y-16300D01*
G01X30512Y-13780D02*
X26480D01*
X25400Y-12700D01*
G01X21600Y-26100D02*
X21654Y-26154D01*
G01X30512Y-3937D02*
X34188D01*
X34700Y-3425D01*
X37100D01*
G01X34231Y-5906D02*
X30512D01*
G01X31200Y40900D02*
X26200Y35900D01*
Y20347D01*
X26862Y19685D01*
X30512D01*
G01Y17716D02*
X43116D01*
X43716Y18316D01*
Y36816D01*
X45300Y38400D01*
X47425D01*
G01X63800Y19400D02*
X61801Y21399D01*
X56095D01*
X46844Y12148D01*
X38846D01*
X34572Y7874D01*
X30512D01*
G01X74500Y10000D02*
Y19854D01*
X70555Y23799D01*
X55099D01*
X45848Y14548D01*
X37349D01*
X34612Y11811D01*
X30512D01*
G01X66263Y21114D02*
X64778Y22599D01*
X55597D01*
X46346Y13348D01*
X38348D01*
X34842Y9842D01*
X30512D01*
G01Y21654D02*
X33746D01*
X34375Y21025D01*
G01X46700Y19525D02*
Y17625D01*
X44823Y15748D01*
X30512D01*
G01X17716Y30512D02*
Y34162D01*
X18485Y34931D01*
Y39261D01*
X17893Y39853D01*
Y41593D01*
X21800Y45500D01*
G01X21788Y37498D02*
Y34296D01*
X21654Y34162D01*
Y30512D01*
G01X19993Y40723D02*
Y38589D01*
X19685Y38281D01*
Y30512D01*
G01X23622D02*
Y34322D01*
X24800Y35500D01*
Y37600D01*
G01X19700Y80400D02*
Y76795D01*
X17200Y74295D01*
Y61905D01*
X17500Y61605D01*
Y58030D01*
X18800Y56730D01*
Y53905D01*
X19000Y53705D01*
Y44398D01*
X16693Y42091D01*
Y39355D01*
X17285Y38763D01*
Y35785D01*
X15748Y34248D01*
Y30512D01*
G01X37100Y23975D02*
X34515D01*
X34162Y23622D01*
X30512D01*
G01X21800Y45500D02*
X23600Y47300D01*
Y66504D01*
X25100Y68004D01*
Y76400D01*
X26300Y77600D01*
X35800D01*
X36300Y77100D01*
Y76876D01*
X36810Y76366D01*
X38510D01*
G01X21200Y54900D02*
Y57300D01*
X22000Y58100D01*
Y66602D01*
X23900Y68502D01*
Y76900D01*
X25800Y78800D01*
X36344D01*
X36810Y78334D01*
X38510D01*
G01X21200Y54900D02*
Y51200D01*
G01X19600Y62900D02*
Y65900D01*
X22700Y69000D01*
Y77400D01*
X25300Y80000D01*
X36869D01*
X37172Y80303D01*
X38510D01*
G01X19600Y62900D02*
Y58900D01*
G01Y73300D02*
Y68900D01*
G01Y73300D02*
X21500Y75200D01*
Y77898D01*
X24802Y81200D01*
X36371D01*
X37443Y82272D01*
X38510D01*
G01X19700Y80400D02*
X21700Y82400D01*
X35873D01*
X36400Y82927D01*
Y83502D01*
X37138Y84240D01*
X38510D01*
G01X36383Y-75035D02*
Y-75889D01*
X44362Y-83868D01*
X47068D01*
X47550Y-84350D01*
X62615D01*
G01X42683Y-72535D02*
Y-77095D01*
X45228Y-79640D01*
X63140D01*
G01X34664Y-80536D02*
X36149Y-82021D01*
X37421D01*
X42868Y-87468D01*
X45574D01*
X46763Y-88657D01*
X48653D01*
X48896Y-88900D01*
X65850D01*
X67390Y-87360D01*
Y-85460D01*
G01X34183Y-72535D02*
Y-75905D01*
X35478Y-77200D01*
X35996D01*
X43864Y-85068D01*
X46570D01*
X47487Y-85985D01*
X64250D01*
G01X44783Y-75035D02*
Y-77497D01*
X45726Y-78440D01*
X50246D01*
X50616Y-78070D01*
X63140D01*
G01X40583Y-75035D02*
Y-76693D01*
X45100Y-81210D01*
X63140D01*
G01X33200Y-83269D02*
X36971D01*
X42370Y-88668D01*
X45076D01*
X46265Y-89857D01*
X48155D01*
X48398Y-90100D01*
X66348D01*
X68960Y-87488D01*
Y-85460D01*
G01X38483Y-72535D02*
Y-76291D01*
X44860Y-82668D01*
X47566D01*
X47678Y-82780D01*
X63140D01*
G01X32083Y-75035D02*
Y-77135D01*
X33348Y-78400D01*
X35498D01*
X43366Y-86268D01*
X46072D01*
X47261Y-87457D01*
X49151D01*
X49394Y-87700D01*
X65220D01*
X65820Y-87100D01*
Y-85460D01*
G01X38400Y-66000D02*
Y-63200D01*
X34500Y-59300D01*
G01X63140Y-76500D02*
X50488D01*
X49853Y-77135D01*
X48113D01*
X46883Y-75905D01*
Y-72535D01*
G01X35800Y-56300D02*
X40100D01*
X43900Y-60100D01*
G01X31837Y-55019D02*
X34519D01*
X35800Y-56300D01*
G01X33459Y-53437D02*
X35262D01*
X35300Y-53475D01*
X37700D01*
G01X42079Y-49487D02*
Y-51587D01*
X40191Y-53475D01*
X37700D01*
G01X41925Y-44800D02*
X42079Y-44954D01*
Y-49487D01*
G01X38604Y-44668D02*
Y-42895D01*
X39299Y-42200D01*
X44300D01*
X44875Y-42775D01*
Y-44800D01*
G01X44900Y-51200D02*
X48205D01*
X50605Y-53600D01*
X52595D01*
X53795Y-52400D01*
X61702D01*
X63400Y-54098D01*
Y-60546D01*
X64600Y-61746D01*
Y-61798D01*
X67390Y-64588D01*
Y-67540D01*
G01X44900Y-51200D02*
Y-47225D01*
X44875Y-47200D01*
Y-44800D01*
G01X37700Y-50525D02*
X35149D01*
G01D02*
X34911Y-50287D01*
G01X35200Y-45700D02*
X35400Y-45900D01*
G01X34930Y-45700D02*
X35200D01*
G01X33459Y-45563D02*
X34793D01*
G01X31638Y-51862D02*
X31400Y-52100D01*
G01X33459Y-51862D02*
X31638D01*
G01X31513Y-50287D02*
X31200Y-50600D01*
G01X33459Y-50287D02*
X31513D01*
G01X33459Y-48713D02*
X30813D01*
G01X31838Y-47138D02*
X31800Y-47100D01*
G01X33459Y-47138D02*
X31838D01*
G01X35700Y-47100D02*
X35662Y-47138D01*
G01X34930Y-45563D02*
Y-45700D01*
G01X34793Y-45563D02*
X34930D01*
G01X35700Y-48700D02*
X35687Y-48713D01*
G01X33459Y-50287D02*
X34911D01*
G01X35262Y-51862D02*
X35300Y-51900D01*
G01X33459Y-51862D02*
X35262D01*
G01X31500Y-45631D02*
X32610D01*
X32678Y-45563D01*
X33459D01*
G01X35662Y-47138D02*
X33459D01*
G01X35687Y-48713D02*
X33459D01*
G01X74823Y-32500D02*
X64700D01*
X63800Y-33400D01*
Y-37294D01*
X61094Y-40000D01*
X52419D01*
X51219Y-38800D01*
X47692D01*
X44892Y-36000D01*
X42199D01*
X39287Y-33088D01*
X36512D01*
G01X34012Y-30588D02*
X36112D01*
X36512Y-30988D01*
X37382D01*
X38282Y-31888D01*
X39785D01*
X42697Y-34800D01*
X45390D01*
X48190Y-37600D01*
X51717D01*
X52917Y-38800D01*
X60596D01*
X62600Y-36796D01*
Y-32902D01*
X63500Y-32002D01*
Y-28125D01*
X64100Y-27525D01*
X66500D01*
G01Y-37475D02*
X66000D01*
X62275Y-41200D01*
X51921D01*
X50721Y-40000D01*
X47194D01*
X44394Y-37200D01*
X40245D01*
X38445Y-35400D01*
G01X66500Y-42525D02*
X64100D01*
X63975Y-42400D01*
X51423D01*
X50223Y-41200D01*
X46696D01*
X43896Y-38400D01*
X38445D01*
G01X35800Y-43600D02*
X38400Y-41000D01*
X44798D01*
X46198Y-42400D01*
X49725D01*
X51625Y-44300D01*
Y-44800D01*
G01X37100Y-3425D02*
X39475D01*
X41700Y-1200D01*
G01D02*
Y1800D01*
X40300Y3200D01*
G01X37173Y-6375D02*
X37100D01*
G01X34898D02*
X34700D01*
X34231Y-5906D01*
G01X40300Y21000D02*
X40275Y21025D01*
G01D02*
X37100D01*
G01X34375D02*
X37100D01*
G01X46700Y26550D02*
Y22475D01*
G01X37100Y23975D02*
X40525D01*
G01X34300Y44000D02*
X31200Y40900D01*
G01D02*
Y52970D01*
X32200Y53970D01*
Y60748D01*
X32500Y61048D01*
Y62630D01*
X32400Y62730D01*
Y64470D01*
X32500Y64570D01*
Y68300D01*
X33100Y68900D01*
X39260D01*
X41560Y71200D01*
Y73310D01*
G01X34600Y56425D02*
X34606Y56419D01*
X41266D01*
G01X47466Y73310D02*
Y71366D01*
X46825Y70725D01*
Y69900D01*
G01D02*
Y60428D01*
X42816Y56419D01*
X41266D01*
G01X43528Y73310D02*
Y70528D01*
X42700Y69700D01*
Y69300D01*
G01X34000Y71025D02*
X35775D01*
X35800Y71000D01*
X37200D01*
G01X35400Y62900D02*
Y64481D01*
X36000Y65081D01*
G01X34600Y59375D02*
X34500Y59475D01*
Y62000D01*
G01X36000Y65081D02*
X41266D01*
G01X34500Y62000D02*
X35400Y62900D01*
G01X41475Y93300D02*
Y90155D01*
X43528Y88102D01*
Y87290D01*
G01X45497D02*
Y88990D01*
X44500Y89987D01*
Y90100D01*
G01X33500Y85200D02*
X36400D01*
X37500Y86300D01*
Y87500D01*
G01X47466Y85590D02*
X45876Y84000D01*
X43150D01*
X41560Y85590D01*
G01X45497Y73310D02*
Y74114D01*
X44296Y75315D01*
G01X39025Y73975D02*
X35000D01*
G01X44296Y75315D02*
X40515D01*
X39100Y73900D01*
X39025Y73975D01*
G01X41560Y85590D02*
Y87290D01*
G01X44525Y93300D02*
X44500Y93275D01*
Y90100D01*
G01X60964Y-64368D02*
X64548D01*
X65820Y-65640D01*
Y-67540D01*
G01X48983Y-75035D02*
X54282D01*
X54387Y-74930D01*
X63140D01*
G01X52919Y-71730D02*
X55019D01*
X55079Y-71790D01*
X63140D01*
G01Y-70220D02*
X58213D01*
X57848Y-70585D01*
X55629D01*
X54778Y-69734D01*
Y-68229D01*
X54878Y-68129D01*
Y-66029D01*
G01X56978Y-68485D02*
X59078D01*
X59243Y-68650D01*
X62615D01*
G01X58864Y-61868D02*
Y-66414D01*
X59465Y-67015D01*
X64250D01*
G01X63140Y-73360D02*
X54259D01*
X53789Y-73830D01*
X52049D01*
X50819Y-72600D01*
Y-69230D01*
G01X54575Y-44800D02*
X63425D01*
X64100Y-45475D01*
X66500D01*
G01X51600Y-51200D02*
Y-47225D01*
X51625Y-47200D01*
Y-44800D01*
G01X51600Y-51200D02*
X62200D01*
X64600Y-53600D01*
Y-60048D01*
X65800Y-61248D01*
Y-61300D01*
X68960Y-64460D01*
Y-67540D01*
G01X57088Y-9625D02*
X59713Y-12250D01*
X61750D01*
G01X57432Y-659D02*
X57541D01*
X59582Y-2700D01*
X61300D01*
X61750Y-2250D01*
G01Y2250D02*
X57632D01*
X57541Y2341D01*
X57434D01*
G01X67250Y-7750D02*
Y-5600D01*
X66101Y-4451D01*
X58333D01*
X57541Y-3659D01*
X57434D01*
G01X57537Y-6658D02*
X59458D01*
X60550Y-7750D01*
X61750D01*
G01X57490Y14341D02*
X58975Y15826D01*
X65824D01*
X67250Y14400D01*
Y12250D01*
G01X61750Y7750D02*
X58132D01*
X57541Y8341D01*
X57434D01*
G01X57432Y5341D02*
X66309D01*
X67250Y4400D01*
Y2250D01*
G01X57430Y11341D02*
X57538Y11449D01*
X59949D01*
X60750Y12250D01*
X61750D01*
G01X54500Y49075D02*
X51925D01*
X51900Y49100D01*
X51300D01*
G01X62000Y65075D02*
X61994Y65081D01*
X55833D01*
G01X49434Y73310D02*
Y70241D01*
X49775Y69900D01*
G01D02*
Y66389D01*
X51083Y65081D01*
X55833D01*
G01X62000Y62125D02*
Y59400D01*
G01X61500Y56400D02*
X60600D01*
X60581Y56419D01*
G01D02*
X55833D01*
G01X52490Y84240D02*
X54240D01*
X55200Y85200D01*
G01X47466Y87290D02*
Y85590D01*
G01X47475Y93300D02*
Y89099D01*
X47466Y89090D01*
Y87290D01*
G01Y85590D02*
X50784Y82272D01*
G01D02*
X52490D01*
G01X76810Y-85460D02*
Y-91690D01*
X74310Y-94190D01*
Y-94245D01*
X72825Y-95730D01*
G01X79950Y-85985D02*
Y-94250D01*
X78900Y-95300D01*
Y-95700D01*
G01X69785Y-95585D02*
X75240Y-90130D01*
Y-85460D01*
G01X78380D02*
Y-93220D01*
X75900Y-95700D01*
G01X72100Y-85460D02*
Y-76500D01*
G01X77200Y-58475D02*
Y-62500D01*
G01X76810Y-67540D02*
Y-64890D01*
X77200Y-64500D01*
Y-62500D01*
G01X67000Y-58675D02*
Y-60802D01*
X70530Y-64332D01*
Y-67540D01*
G01X79950Y-67015D02*
X81100D01*
X81700Y-66415D01*
Y-66300D01*
X82100Y-65900D01*
G01X78380Y-67540D02*
Y-65320D01*
X79385Y-64315D01*
Y-61515D01*
X80800Y-60100D01*
G01X73575Y-60200D02*
Y-65645D01*
X73670Y-65740D01*
Y-67540D01*
G01X72100D02*
Y-64200D01*
X70625Y-62725D01*
Y-60200D01*
G01X72100Y-76500D02*
Y-67540D01*
G01X75240D02*
Y-73360D01*
X72100Y-76500D01*
G01X73575Y-56200D02*
Y-53616D01*
X74191Y-53000D01*
G01X73575Y-56200D02*
Y-60200D01*
G01X66500Y-45475D02*
Y-48175D01*
G01X70625Y-60200D02*
Y-56200D01*
G01X71197Y-52803D02*
X71196Y-52804D01*
X71146D01*
X70625Y-53325D01*
G01X66777Y-53025D02*
X66859Y-53107D01*
Y-53575D01*
X67000Y-53716D01*
G01X77184Y-52792D02*
Y-53084D01*
X77200Y-53100D01*
G01X70625Y-53325D02*
Y-56200D01*
G01X67000Y-53716D02*
Y-55725D01*
G01X77200Y-53100D02*
Y-55525D01*
G01X66500Y-30475D02*
X68575D01*
X68950Y-30100D01*
X82300D01*
X82400Y-30000D01*
G01X74823Y-37500D02*
X66525D01*
X66500Y-37475D01*
G01X74823Y-42500D02*
X74798Y-42525D01*
X66500D01*
G01X68800Y-34800D02*
X68525Y-34525D01*
X66500D01*
G01X71404Y-14496D02*
X70496D01*
X68250Y-12250D01*
X67250D01*
G01X77100Y-18800D02*
X74500D01*
X73775Y-19525D01*
X66500D01*
G01Y-22475D02*
X66525Y-22500D01*
X74823D01*
G01Y-27500D02*
X66525D01*
X66500Y-27525D01*
G01X72200Y-5000D02*
X71000D01*
X68250Y-2250D01*
X67250D01*
G01X72200Y5000D02*
X71000D01*
X68250Y7750D01*
X67250D01*
G01X81900Y-95700D02*
Y-86015D01*
X81585Y-85700D01*
Y-84350D01*
G01X85011Y-95692D02*
X83526Y-94207D01*
Y-83346D01*
X82960Y-82780D01*
X81060D01*
G01X91081Y-95702D02*
X85926Y-90547D01*
Y-82350D01*
X83586Y-80010D01*
X82770D01*
X82400Y-79640D01*
X81060D01*
G01X88081Y-95694D02*
X84726Y-92339D01*
Y-82848D01*
X83088Y-81210D01*
X81060D01*
G01Y-78070D02*
X82731D01*
X83278Y-78615D01*
X92085D01*
X93000Y-77700D01*
Y-77570D01*
X93035Y-77535D01*
G01X94000Y-54500D02*
X86000Y-62500D01*
G01D02*
X82600D01*
G01X81060Y-70220D02*
X85180D01*
X87600Y-67800D01*
G01X81060Y-74930D02*
X83230D01*
X84015Y-75715D01*
X88885D01*
X89600Y-75000D01*
X89630D01*
X89815Y-74815D01*
G01X81060Y-71790D02*
X84490D01*
X84780Y-71500D01*
X87000D01*
G01X81585Y-68650D02*
X83750D01*
X84300Y-68100D01*
G01X81060Y-73360D02*
X83860D01*
X84400Y-73900D01*
X87600D01*
X90750Y-70750D01*
G01X81060Y-76500D02*
X82860D01*
X83460Y-77100D01*
X90500D01*
X92370Y-75230D01*
Y-75200D01*
X93785Y-73785D01*
G01X90177Y-42500D02*
Y-44800D01*
X91277Y-45900D01*
X93900D01*
G54D29*
X-74400Y92100D03*
X-57400D03*
G54D38*
X-43133Y33867D03*
X-33667Y43333D03*
G54D47*
X27735Y-36025D03*
Y-39175D03*
X32065Y-36025D03*
Y-39175D03*
G54D56*
X74823Y-27500D03*
Y-32500D03*
Y-37500D03*
Y-42500D03*
Y-22500D03*
X90177Y-27500D03*
Y-32500D03*
Y-37500D03*
Y-42500D03*
Y-22500D03*
G54D57*
X95393Y93400D03*
X82007D03*
G54D48*
X46700Y26550D03*
X50400Y34450D03*
X54100Y26550D03*
G54D39*
X-32963Y73164D03*
X-40837D03*
G54D58*
G01X-130750Y-137900D02*
Y-147900D01*
G01X-133625Y-137900D02*
X-127875D01*
G01X-120750Y-147900D02*
X-121750Y-147733D01*
X-122625Y-147067D01*
X-123375Y-146067D01*
X-123875Y-144900D01*
X-124125Y-143567D01*
Y-142233D01*
X-123875Y-140900D01*
X-123375Y-139733D01*
X-122625Y-138733D01*
X-121750Y-138067D01*
X-120750Y-137900D01*
X-119750Y-138067D01*
X-118875Y-138733D01*
X-118125Y-139733D01*
X-117625Y-140900D01*
X-117375Y-142233D01*
Y-143567D01*
X-117625Y-144900D01*
X-118125Y-146067D01*
X-118875Y-147067D01*
X-119750Y-147733D01*
X-120750Y-147900D01*
G01X-113250D02*
Y-137900D01*
X-110250D01*
X-109250Y-138400D01*
X-108500Y-139567D01*
X-108250Y-140900D01*
X-108500Y-142233D01*
X-109125Y-143233D01*
X-110250Y-143734D01*
X-113250D01*
G01X-94300Y30900D02*
X-90437D01*
X-84737Y36600D01*
G01D02*
Y36800D01*
G01X-78793Y53563D02*
Y50768D01*
X-78625Y50600D01*
Y48000D01*
G01X-58450Y-19200D02*
Y-22250D01*
X-58500Y-22300D01*
Y-23250D01*
G01X-41700Y-17000D02*
X-39425D01*
X-37100Y-19325D01*
G01X-47750Y-19200D02*
X-43900D01*
X-41700Y-17000D01*
G01X-30512Y-17716D02*
X-35491D01*
X-37100Y-19325D01*
G01X-30512Y-19685D02*
X-36738D01*
X-37098Y-19325D01*
X-37100D01*
G01X50625Y93300D02*
Y90700D01*
X49434Y89509D01*
Y87290D01*
G01X58400Y77925D02*
X62450D01*
X62500Y77975D01*
G01X52490Y78334D02*
X55391D01*
X55800Y77925D01*
X58400D01*
G01X62500Y75025D02*
X65850D01*
X66025Y75200D01*
G01X62500Y75025D02*
X55831D01*
X54490Y76366D01*
X52490D01*
G01Y80303D02*
X55228D01*
X55800Y80875D01*
X58400D01*
G01X62025Y81600D02*
X59125D01*
X58400Y80875D01*
G01X66025Y75200D02*
Y71200D01*
G01X64975Y81600D02*
X68025D01*
G01X70975D02*
X74575D01*
X74600Y81575D01*
G54D49*
X41266Y56419D03*
Y65081D03*
X55833Y56419D03*
Y65081D03*
G54D59*
G01X-55900Y74225D02*
X-52025D01*
G01X50375Y38400D02*
X50400Y38375D01*
Y34450D01*
G01D02*
X55524D01*
X55574Y34500D01*
X59674D01*
G01X54500Y46125D02*
X54000D01*
X50375Y42500D01*
Y38400D01*
M02*
