G04 ================== begin FILE IDENTIFICATION RECORD ==================*
G04 Layout Name:  E:/git/clay/Circuit/R6_1/allegro_c6r3/CLAYc6r3.brd*
G04 Film Name:    SILK_TOP*
G04 File Format:  Gerber RS274X*
G04 File Origin:  Cadence Allegro 16.6-P004*
G04 Origin Date:  Sun Mar 06 08:34:24 2016*
G04 *
G04 Layer:  REF DES/SILKSCREEN_TOP*
G04 Layer:  PACKAGE GEOMETRY/SILKSCREEN_TOP*
G04 Layer:  BOARD GEOMETRY/SILKSCREEN_TOP*
G04 *
G04 Offset:    (0.00 0.00)*
G04 Mirror:    No*
G04 Mode:      Positive*
G04 Rotation:  0*
G04 FullContactRelief:  No*
G04 UndefLineWidth:     10.00*
G04 ================== end FILE IDENTIFICATION RECORD ====================*
%FSLAX25Y25*MOIN*%
%IR0*IPPOS*OFA0.00000B0.00000*MIA0B0*SFA1.00000B1.00000*%
%ADD10C,.012*%
%ADD11C,.017*%
%ADD12C,.01*%
%ADD13C,.005*%
%ADD14C,.006*%
G75*
%LPD*%
G75*
G36*
G01X22187Y-44303D02*
G03I-389J0D01*
G37*
G54D10*
G01X-98830Y-22700D02*
X-96170Y-17700D01*
G01X-98830D02*
X-96170Y-22700D01*
G01X-93823Y-21033D02*
X-92177D01*
G01X-93500Y-21000D02*
X-89100D01*
G01X-52000Y-8007D02*
X-52583Y-8387D01*
X-52917Y-8893D01*
X-53000Y-9463D01*
X-52917Y-9970D01*
X-52500Y-10477D01*
X-52000Y-10793D01*
X-51500Y-10857D01*
X-50917Y-10730D01*
X-50500Y-10287D01*
X-50333Y-9843D01*
Y-9273D01*
G01Y-9843D02*
X-50083Y-10223D01*
X-49667Y-10540D01*
X-49167Y-10667D01*
X-48667Y-10540D01*
X-48250Y-10223D01*
X-48000Y-9653D01*
X-48083Y-9083D01*
X-48417Y-8513D01*
G01X-48833Y1803D02*
X-48333Y1423D01*
X-48083Y980D01*
X-48000Y473D01*
X-48167Y-160D01*
X-48583Y-603D01*
X-49083Y-730D01*
X-49583Y-667D01*
X-50000Y-413D01*
X-50833Y853D01*
X-51417Y1423D01*
X-52250Y1803D01*
X-53000Y1930D01*
Y-730D01*
G01Y10300D02*
X-48000D01*
X-49000Y11060D01*
G01X-53000D02*
Y9540D01*
G01X-9040Y-54100D02*
Y-49100D01*
X-11383Y-52683D01*
X-8217D01*
G01X2300Y53200D02*
Y48200D01*
X3060Y49200D01*
G01Y53200D02*
X1540D01*
G01X-2200D02*
Y48200D01*
X-1440Y49200D01*
G01Y53200D02*
X-2960D01*
G01X-8500D02*
Y48200D01*
X-7740Y49200D01*
G01Y53200D02*
X-9260D01*
G01X-11797Y49033D02*
X-12177Y48533D01*
X-12620Y48283D01*
X-13127Y48200D01*
X-13760Y48367D01*
X-14203Y48783D01*
X-14330Y49283D01*
X-14267Y49783D01*
X-14013Y50200D01*
X-12747Y51033D01*
X-12177Y51617D01*
X-11797Y52450D01*
X-11670Y53200D01*
X-14330D01*
G01X-1293Y-53350D02*
X-913Y-53767D01*
X-470Y-54017D01*
X100Y-54100D01*
X670Y-53933D01*
X1113Y-53600D01*
X1430Y-53017D01*
X1493Y-52350D01*
X1367Y-51683D01*
X1050Y-51267D01*
X607Y-50933D01*
X163Y-50850D01*
X-280Y-50933D01*
X-850Y-51267D01*
X-660Y-49100D01*
X1050D01*
G01X8797Y-52017D02*
X9240Y-51433D01*
X9620Y-51100D01*
X10127Y-50933D01*
X10570Y-51100D01*
X10887Y-51433D01*
X11140Y-51933D01*
X11203Y-52517D01*
X11140Y-53017D01*
X10887Y-53517D01*
X10507Y-53933D01*
X10063Y-54100D01*
X9557Y-53933D01*
X9113Y-53433D01*
X8860Y-52683D01*
X8797Y-51850D01*
X8923Y-50767D01*
X9113Y-50183D01*
X9430Y-49600D01*
X9873Y-49183D01*
X10317Y-49100D01*
X10760Y-49267D01*
X11077Y-49683D01*
G01X13500Y53200D02*
Y48200D01*
X14260Y49200D01*
G01Y53200D02*
X12740D01*
G01X9000Y48200D02*
X9507Y48367D01*
X9887Y48783D01*
X10140Y49283D01*
X10330Y49950D01*
X10393Y50700D01*
X10330Y51450D01*
X10140Y52117D01*
X9887Y52617D01*
X9507Y53033D01*
X9000Y53200D01*
X8493Y53033D01*
X8113Y52617D01*
X7860Y52117D01*
X7670Y51450D01*
X7607Y50700D01*
X7670Y49950D01*
X7860Y49283D01*
X8113Y48783D01*
X8493Y48367D01*
X9000Y48200D01*
G01X16900Y-96700D02*
Y-94450D01*
X15633Y-91700D01*
G01X18167D02*
X16900Y-94450D01*
G01X20577Y-95033D02*
X22223D01*
G01X25600Y-95000D02*
X21200D01*
G01X16297Y-75900D02*
X18703D01*
X16297Y-80900D01*
X18703D01*
G01X21303Y-79233D02*
X22823D01*
G01X22000Y-78150D02*
Y-80317D01*
G01X26500Y-81067D02*
X26373Y-80983D01*
Y-80817D01*
X26500Y-80733D01*
X26627Y-80817D01*
Y-80983D01*
X26500Y-81067D01*
G01Y-78817D02*
X26373Y-78733D01*
Y-78567D01*
X26500Y-78483D01*
X26627Y-78567D01*
Y-78733D01*
X26500Y-78817D01*
G01X31000Y-75900D02*
Y-80900D01*
G01X29543Y-75900D02*
X32457D01*
G01X35500Y-80900D02*
X34993Y-80817D01*
X34550Y-80483D01*
X34170Y-79983D01*
X33917Y-79400D01*
X33790Y-78733D01*
Y-78067D01*
X33917Y-77400D01*
X34170Y-76817D01*
X34550Y-76317D01*
X34993Y-75983D01*
X35500Y-75900D01*
X36007Y-75983D01*
X36450Y-76317D01*
X36830Y-76817D01*
X37083Y-77400D01*
X37210Y-78067D01*
Y-78733D01*
X37083Y-79400D01*
X36830Y-79983D01*
X36450Y-80483D01*
X36007Y-80817D01*
X35500Y-80900D01*
G01X38733D02*
Y-75900D01*
X40253D01*
X40760Y-76150D01*
X41140Y-76733D01*
X41267Y-77400D01*
X41140Y-78067D01*
X40823Y-78567D01*
X40253Y-78817D01*
X38733D01*
G01X16297Y-82200D02*
X18703D01*
X16297Y-87200D01*
X18703D01*
G01X21177Y-85533D02*
X22823D01*
G01X26500Y-87367D02*
X26373Y-87283D01*
Y-87117D01*
X26500Y-87033D01*
X26627Y-87117D01*
Y-87283D01*
X26500Y-87367D01*
G01Y-85117D02*
X26373Y-85033D01*
Y-84867D01*
X26500Y-84783D01*
X26627Y-84867D01*
Y-85033D01*
X26500Y-85117D01*
G01X31507Y-84533D02*
X31760Y-84283D01*
X31950Y-83867D01*
X32077Y-83283D01*
X31950Y-82783D01*
X31697Y-82450D01*
X31253Y-82200D01*
X29543D01*
Y-87200D01*
X31633D01*
X32077Y-86867D01*
X32330Y-86367D01*
X32457Y-85783D01*
X32330Y-85200D01*
X31950Y-84700D01*
X31507Y-84533D01*
X29543D01*
G01X35500Y-87200D02*
X34993Y-87117D01*
X34550Y-86783D01*
X34170Y-86283D01*
X33917Y-85700D01*
X33790Y-85033D01*
Y-84367D01*
X33917Y-83700D01*
X34170Y-83117D01*
X34550Y-82617D01*
X34993Y-82283D01*
X35500Y-82200D01*
X36007Y-82283D01*
X36450Y-82617D01*
X36830Y-83117D01*
X37083Y-83700D01*
X37210Y-84367D01*
Y-85033D01*
X37083Y-85700D01*
X36830Y-86283D01*
X36450Y-86783D01*
X36007Y-87117D01*
X35500Y-87200D01*
G01X40000Y-82200D02*
Y-87200D01*
G01X38543Y-82200D02*
X41457D01*
G01X44500D02*
Y-87200D01*
G01X43043Y-82200D02*
X45957D01*
G01X49000Y-87200D02*
X48493Y-87117D01*
X48050Y-86783D01*
X47670Y-86283D01*
X47417Y-85700D01*
X47290Y-85033D01*
Y-84367D01*
X47417Y-83700D01*
X47670Y-83117D01*
X48050Y-82617D01*
X48493Y-82283D01*
X49000Y-82200D01*
X49507Y-82283D01*
X49950Y-82617D01*
X50330Y-83117D01*
X50583Y-83700D01*
X50710Y-84367D01*
Y-85033D01*
X50583Y-85700D01*
X50330Y-86283D01*
X49950Y-86783D01*
X49507Y-87117D01*
X49000Y-87200D01*
G01X51853D02*
Y-82200D01*
X53500Y-86367D01*
X55147Y-82200D01*
Y-87200D01*
G01X24136Y-79203D02*
X19736D01*
G01X21936Y-81503D02*
Y-77103D01*
G01X24836Y-85503D02*
X20436D01*
G01X17800Y92100D02*
Y94350D01*
X16533Y97100D01*
G01X19067D02*
X17800Y94350D01*
G01X21603Y93767D02*
X23123D01*
G01X22300Y94850D02*
Y92683D01*
G01X24500Y93800D02*
X20100D01*
G01X22400Y95900D02*
Y91500D01*
G01X52570Y-10547D02*
X51487Y-10420D01*
X50570Y-10230D01*
X49737Y-9977D01*
X48820Y-9660D01*
X47570Y-9153D01*
Y-11687D01*
G01X52570Y-220D02*
X52487Y223D01*
X52237Y730D01*
X51820Y1047D01*
X51237Y1173D01*
X50653Y1047D01*
X50153Y667D01*
X49903Y97D01*
Y-537D01*
X49737Y-917D01*
X49320Y-1233D01*
X48737Y-1360D01*
X48153Y-1170D01*
X47737Y-727D01*
X47570Y-220D01*
X47737Y287D01*
X48153Y730D01*
X48737Y920D01*
X49320Y793D01*
X49737Y477D01*
X49903Y97D01*
Y-537D01*
X50153Y-1107D01*
X50653Y-1487D01*
X51237Y-1613D01*
X51820Y-1487D01*
X52237Y-1170D01*
X52487Y-663D01*
X52570Y-220D01*
G01X51987Y8403D02*
X52403Y8847D01*
X52570Y9353D01*
X52403Y9860D01*
X51903Y10303D01*
X51153Y10620D01*
X50403Y10747D01*
X49487D01*
X48737Y10620D01*
X48070Y10303D01*
X47737Y9923D01*
X47570Y9480D01*
X47737Y8973D01*
X48070Y8593D01*
X48570Y8340D01*
X49237Y8213D01*
X49820Y8340D01*
X50403Y8657D01*
X50737Y9037D01*
X50820Y9480D01*
X50653Y9987D01*
X50237Y10367D01*
X49487Y10747D01*
G01X89470Y-19500D02*
X92130Y-14500D01*
G01X89470D02*
X92130Y-19500D01*
G01X94603Y-17833D02*
X96123D01*
G01X95300Y-16750D02*
Y-18917D01*
G01Y-20100D02*
Y-15700D01*
G01X97600Y-17800D02*
X93200D01*
G54D11*
G01X46217Y-18750D02*
X46076Y-17972D01*
X45752Y-17224D01*
X45139Y-16611D01*
X44131Y-16240D01*
X43065Y-16234D01*
X42045Y-16487D01*
X40678Y-17241D01*
X39647Y-18119D01*
X38845Y-19227D01*
X38439Y-20093D01*
X38262Y-21189D01*
X38374Y-22150D01*
X38698Y-22898D01*
X39234Y-23434D01*
X39983Y-23758D01*
X40760Y-23900D01*
X41568Y-23859D01*
G01X43294Y-27494D02*
X49658Y-21130D01*
G01X49269Y-33469D02*
X53512Y-29227D01*
G01X52769Y-29969D02*
X52887Y-29238D01*
X52639Y-28566D01*
X52209Y-27924D01*
X51461Y-27600D01*
X50577Y-27565D01*
X49634Y-27895D01*
X48632Y-28590D01*
X47937Y-29592D01*
X47607Y-30535D01*
X47643Y-31418D01*
X47967Y-32167D01*
X48609Y-32597D01*
X49387Y-32738D01*
X50117Y-32621D01*
G01X48968Y-36987D02*
X49216Y-37658D01*
X50041Y-38059D01*
X50848Y-38018D01*
X51685Y-37794D01*
X53841Y-36557D01*
X58337Y-34052D01*
G01X55886Y-31601D02*
X53841Y-36557D01*
G54D12*
G01X22821Y-55406D02*
X21994D01*
Y-54500D01*
G01Y-44854D02*
X23254Y-43594D01*
G01X33806Y-54421D02*
Y-55406D01*
X32979D01*
G01X32821Y-43594D02*
X33806D01*
Y-44539D01*
G54D13*
G01X-89600Y-80100D02*
Y-97300D01*
X-97200D01*
Y-80100D01*
X-89600D01*
G01X-76800Y-67300D02*
X-88200D01*
Y-62700D01*
X-76800D01*
Y-67300D01*
G01X-79700Y-71300D02*
X-85300D01*
Y-67700D01*
X-79700D01*
Y-71300D01*
G01X-91600Y-57450D02*
X-78400D01*
G01X-90650Y-30200D02*
X-85050D01*
Y-33800D01*
X-90650D01*
Y-30200D01*
G01X-96600Y21700D02*
Y33100D01*
X-92000D01*
Y21700D01*
X-96600D01*
G01X-87100Y34000D02*
Y39600D01*
X-74500D01*
Y34000D01*
X-87100D01*
G01X-88100Y29400D02*
X-82500D01*
Y25800D01*
X-88100D01*
Y29400D01*
G01X-87100Y40100D02*
Y45700D01*
X-74500D01*
Y40100D01*
X-87100D01*
G01X-86500Y51200D02*
X-90500D01*
G01X-92300Y45900D02*
X-96400D01*
G01X-89900Y65300D02*
Y70900D01*
X-77300D01*
Y65300D01*
X-89900D01*
G01X-72807Y-70247D02*
X-68847Y-74207D01*
X-71393Y-76753D01*
X-75353Y-72793D01*
X-72807Y-70247D01*
G01X-48400Y-43800D02*
X-69000D01*
Y-62800D01*
X-67400Y-64400D01*
X-48400D01*
Y-43800D01*
G01X-69700Y-65800D02*
X-75300D01*
Y-62200D01*
X-69700D01*
Y-65800D01*
G01X-75300Y-58200D02*
X-69700D01*
Y-61800D01*
X-75300D01*
Y-58200D01*
G01X-64347Y-70193D02*
X-68307Y-74153D01*
X-70853Y-71607D01*
X-66893Y-67647D01*
X-64347Y-70193D01*
G01X-79350Y-61500D02*
X-84950D01*
Y-57900D01*
X-79350D01*
Y-61500D01*
G01X-59200Y-13800D02*
Y-6200D01*
X-69800D01*
Y-13800D01*
X-59200D01*
G01Y-3800D02*
Y3800D01*
X-69800D01*
Y-3800D01*
X-59200D01*
G01X-70800Y20600D02*
X-76400D01*
Y24200D01*
X-70800D01*
Y20600D01*
G01Y16500D02*
X-76400D01*
Y20100D01*
X-70800D01*
Y16500D01*
G01X-59200Y6200D02*
Y13800D01*
X-69800D01*
Y6200D01*
X-59200D01*
G01X-70800Y24700D02*
X-76400D01*
Y28300D01*
X-70800D01*
Y24700D01*
G01X-62500Y65100D02*
Y50500D01*
X-73700D01*
Y65100D01*
X-62500D01*
G01X-78700Y51200D02*
X-82700D01*
G01X-77300Y46200D02*
X-82900D01*
Y49800D01*
X-77300D01*
Y46200D01*
G01X-76800Y79200D02*
Y84800D01*
X-73200D01*
Y79200D01*
X-76800D01*
G01X-62393Y-71553D02*
X-66353Y-67593D01*
X-63807Y-65047D01*
X-59847Y-69007D01*
X-62393Y-71553D01*
G01X-61000Y-37300D02*
X-55400D01*
Y-40900D01*
X-61000D01*
Y-37300D01*
G01X-54449Y16202D02*
X-52329Y18323D01*
G01X-54944Y16697D02*
X-60178Y21929D01*
X-58056Y24051D01*
X-52824Y18818D01*
X-54944Y16697D01*
G01X-51868Y19772D02*
X-57100Y25005D01*
X-54980Y27125D01*
X-49746Y21893D01*
X-51868Y19772D01*
G01X-48790Y22848D02*
X-54023Y28081D01*
X-51902Y30201D01*
X-46670Y24970D01*
X-48790Y22848D01*
G01X-57000Y37400D02*
X-62600D01*
Y41000D01*
X-57000D01*
Y37400D01*
G01X-62600Y45100D02*
X-57000D01*
Y41500D01*
X-62600D01*
Y45100D01*
G01X-53400Y61800D02*
X-20400D01*
Y98100D01*
X-53400D01*
Y61800D01*
G01X-50200Y57600D02*
X-55800D01*
Y61200D01*
X-50200D01*
Y57600D01*
G01X-58100Y73700D02*
Y85300D01*
G01X-57700Y72900D02*
Y78500D01*
X-54100D01*
Y72900D01*
X-57700D01*
G01X-54100Y86100D02*
Y80500D01*
X-57700D01*
Y86100D01*
X-54100D01*
G01X-54000Y87000D02*
Y97200D01*
G01X-38300Y-71000D02*
X-26900D01*
Y-75600D01*
X-38300D01*
Y-71000D01*
G01X-51600Y-76400D02*
Y-70800D01*
X-48000D01*
Y-76400D01*
X-51600D01*
G01X-47600D02*
Y-70800D01*
X-44000D01*
Y-76400D01*
X-47600D01*
G01X-38800Y-70800D02*
Y-76400D01*
X-42400D01*
Y-70800D01*
X-38800D01*
G01X-44800Y-42300D02*
Y-66700D01*
G01X-39400Y-14800D02*
Y-26200D01*
X-44000D01*
Y-14800D01*
X-39400D01*
G01X-35300Y-18000D02*
Y-23600D01*
X-38900D01*
Y-18000D01*
X-35300D01*
G01X-39400Y14800D02*
Y3400D01*
X-44000D01*
Y14800D01*
X-39400D01*
G01X-51372Y19278D02*
X-49251Y21399D01*
G01X-35300Y11500D02*
Y5900D01*
X-38900D01*
Y11500D01*
X-35300D01*
G01X-48295Y22353D02*
X-46175Y24475D01*
G01X-45220Y25430D02*
X-43098Y27552D01*
G01X-45714Y25925D02*
X-50947Y31158D01*
X-48826Y33279D01*
X-43593Y28047D01*
X-45714Y25925D01*
G01X-39400Y49500D02*
Y55100D01*
X-35800D01*
Y49500D01*
X-39400D01*
G01X-43500Y49400D02*
Y55000D01*
X-39900D01*
Y49400D01*
X-43500D01*
G01X-49700Y61200D02*
X-44100D01*
Y57600D01*
X-49700D01*
Y61200D01*
G01X-43500Y55600D02*
Y61200D01*
X-39900D01*
Y55600D01*
X-43500D01*
G01X-39400D02*
Y61200D01*
X-35800D01*
Y55600D01*
X-39400D01*
G01X-30600Y25800D02*
X-25800Y30600D01*
G01X-35400Y49000D02*
X-31300D01*
G01X3800Y-59200D02*
X-3800D01*
Y-69800D01*
X3800D01*
Y-59200D01*
G01X-6200D02*
X-13800D01*
Y-69800D01*
X-6200D01*
Y-59200D01*
G01X-3600Y38900D02*
X2000D01*
Y35300D01*
X-3600D01*
Y38900D01*
G01X-3800Y59200D02*
X3800D01*
Y69800D01*
X-3800D01*
Y59200D01*
G01X-13800D02*
X-6200D01*
Y69800D01*
X-13800D01*
Y59200D01*
G01X13800Y-59200D02*
X6200D01*
Y-69800D01*
X13800D01*
Y-59200D01*
G01X2100Y-35300D02*
X7700D01*
Y-38900D01*
X2100D01*
Y-35300D01*
G01X6200Y59200D02*
X13800D01*
Y69800D01*
X6200D01*
Y59200D01*
G01X23300Y-57400D02*
X28900D01*
Y-61000D01*
X23300D01*
Y-57400D01*
G01X32900D02*
Y-63000D01*
X29300D01*
Y-57400D01*
X32900D01*
G01X30600Y-25800D02*
Y-30600D01*
X25800D01*
G01X17800Y-35300D02*
X23400D01*
Y-38900D01*
X17800D01*
Y-35300D01*
G01X46200Y-46600D02*
X40600D01*
Y-43000D01*
X46200D01*
Y-46600D01*
G01X35900Y-54800D02*
Y-49200D01*
X39500D01*
Y-54800D01*
X35900D01*
G01X33600Y-39900D02*
Y-35300D01*
G01X44000Y1000D02*
Y-10400D01*
X39400D01*
Y1000D01*
X44000D01*
G01X38900Y-2100D02*
Y-7700D01*
X35300D01*
Y-2100D01*
X38900D01*
G01X44900Y18200D02*
Y23800D01*
X48500D01*
Y18200D01*
X44900D01*
G01X38900Y25300D02*
Y19700D01*
X35300D01*
Y25300D01*
X38900D01*
G01X46100Y40200D02*
X51700D01*
Y36600D01*
X46100D01*
Y40200D01*
G01X44000Y24900D02*
Y36100D01*
G01X36950Y67350D02*
Y54150D01*
G01X45500Y71700D02*
X51100D01*
Y68100D01*
X45500D01*
Y71700D01*
G01X32200Y69700D02*
Y75300D01*
X35800D01*
Y69700D01*
X32200D01*
G01X32800Y55100D02*
Y60700D01*
X36400D01*
Y55100D01*
X32800D01*
G01X31200Y83000D02*
Y94400D01*
X35800D01*
Y83000D01*
X31200D01*
G01X43200Y95100D02*
X48800D01*
Y91500D01*
X43200D01*
Y95100D01*
G01X42800Y91500D02*
X37200D01*
Y95100D01*
X42800D01*
Y91500D01*
G01X61800Y-67500D02*
Y-86800D01*
X82400D01*
Y-66200D01*
X63100D01*
X61800Y-67500D01*
G01X50300Y-43000D02*
X55900D01*
Y-46600D01*
X50300D01*
Y-43000D01*
G01X59200Y-6200D02*
Y-13800D01*
X69800D01*
Y-6200D01*
X59200D01*
G01Y3800D02*
Y-3800D01*
X69800D01*
Y3800D01*
X59200D01*
G01X56800Y52500D02*
Y16500D01*
X96800D01*
Y52500D01*
X56800D01*
G01X59200Y13800D02*
Y6200D01*
X69800D01*
Y13800D01*
X59200D01*
G01X52700Y44800D02*
Y50400D01*
X56300D01*
Y44800D01*
X52700D01*
G01X63800Y66400D02*
Y60800D01*
X60200D01*
Y66400D01*
X63800D01*
G01X64300Y79300D02*
Y73700D01*
X60700D01*
Y79300D01*
X64300D01*
G01X56600Y76600D02*
Y82200D01*
X60200D01*
Y76600D01*
X56600D01*
G01X60700Y83400D02*
X66300D01*
Y79800D01*
X60700D01*
Y83400D01*
G01X54900Y91500D02*
X49300D01*
Y95100D01*
X54900D01*
Y91500D01*
G01X74900Y-62000D02*
X69300D01*
Y-58400D01*
X74900D01*
Y-62000D01*
G01X95700Y-45300D02*
X69300D01*
G01X64700Y-46800D02*
Y-41200D01*
X68300D01*
Y-46800D01*
X64700D01*
G01X79000Y-54200D02*
Y-59800D01*
X75400D01*
Y-54200D01*
X79000D01*
G01X68800Y-54400D02*
Y-60000D01*
X65200D01*
Y-54400D01*
X68800D01*
G01X74900Y-58000D02*
X69300D01*
Y-54400D01*
X74900D01*
Y-58000D01*
G01X68300Y-33200D02*
Y-38800D01*
X64700D01*
Y-33200D01*
X68300D01*
G01X64700Y-31800D02*
Y-26200D01*
X68300D01*
Y-31800D01*
X64700D01*
G01X68300Y-18200D02*
Y-23800D01*
X64700D01*
Y-18200D01*
X68300D01*
G01X64700Y73000D02*
X70300D01*
Y69400D01*
X64700D01*
Y73000D01*
G01X75900Y72300D02*
Y72400D01*
X70400Y77900D01*
X72200D01*
X70500Y76200D01*
X70400Y76300D01*
Y77900D01*
G01X64700Y77000D02*
X70300D01*
Y73400D01*
X64700D01*
Y77000D01*
G01X76400Y82900D02*
Y77300D01*
X72800D01*
Y82900D01*
X76400D01*
G01X66700Y83400D02*
X72300D01*
Y79800D01*
X66700D01*
Y83400D01*
G01X80100Y97200D02*
X97300D01*
Y89600D01*
X80100D01*
Y97200D01*
G54D14*
G01X-87600Y-81092D02*
X-84500Y-82050D01*
X-87600Y-83008D01*
G01X-86515Y-82663D02*
Y-81437D01*
G01X-87600Y-85917D02*
Y-84383D01*
X-84500D01*
Y-85917D01*
G01X-85998Y-85303D02*
Y-84383D01*
G01X-85017Y-87522D02*
X-84707Y-87752D01*
X-84552Y-88020D01*
X-84500Y-88327D01*
X-84603Y-88710D01*
X-84862Y-88978D01*
X-85172Y-89055D01*
X-85482Y-89017D01*
X-85740Y-88863D01*
X-86257Y-88097D01*
X-86618Y-87752D01*
X-87135Y-87522D01*
X-87600Y-87445D01*
Y-89055D01*
G01X-94800Y-65881D02*
X-95072Y-65934D01*
X-95335Y-66051D01*
X-95552Y-66268D01*
X-95686Y-66621D01*
X-95693Y-66994D01*
X-95609Y-67348D01*
X-95353Y-67822D01*
X-95051Y-68178D01*
X-94668Y-68453D01*
X-94367Y-68591D01*
X-93985Y-68647D01*
X-93650Y-68603D01*
X-93387Y-68487D01*
X-93197Y-68297D01*
X-93080Y-68034D01*
X-93027Y-67762D01*
X-93038Y-67480D01*
G01X-92230Y-66453D02*
X-91811Y-66546D01*
X-91448Y-66475D01*
X-91168Y-66268D01*
X-90987Y-66014D01*
X-90953Y-65615D01*
X-91037Y-65260D01*
X-91229Y-65014D01*
X-91539Y-64812D01*
X-91911Y-64819D01*
X-92174Y-64936D01*
X-92418Y-65180D01*
G01X-92174Y-64936D02*
X-92121Y-64664D01*
X-92168Y-64346D01*
X-92333Y-64072D01*
X-92607Y-63907D01*
X-92925Y-63860D01*
X-93278Y-63994D01*
X-93486Y-64275D01*
X-93584Y-64665D01*
G01X-90038Y-64261D02*
X-89619Y-64354D01*
X-89256Y-64283D01*
X-88976Y-64076D01*
X-88795Y-63822D01*
X-88761Y-63423D01*
X-88845Y-63068D01*
X-89037Y-62822D01*
X-89347Y-62620D01*
X-89719Y-62627D01*
X-89982Y-62744D01*
X-90226Y-62988D01*
G01X-89982Y-62744D02*
X-89929Y-62472D01*
X-89976Y-62154D01*
X-90141Y-61880D01*
X-90415Y-61715D01*
X-90733Y-61668D01*
X-91086Y-61802D01*
X-91294Y-62083D01*
X-91392Y-62473D01*
G01X-92807Y-58758D02*
X-93037Y-58603D01*
X-93305Y-58500D01*
X-93612D01*
X-93957Y-58655D01*
X-94225Y-58913D01*
X-94417Y-59223D01*
X-94570Y-59740D01*
X-94608Y-60205D01*
X-94532Y-60670D01*
X-94417Y-60980D01*
X-94187Y-61290D01*
X-93918Y-61497D01*
X-93650Y-61600D01*
X-93382D01*
X-93113Y-61497D01*
X-92883Y-61342D01*
X-92692Y-61135D01*
G01X-91393Y-60980D02*
X-91163Y-61342D01*
X-90857Y-61548D01*
X-90512Y-61600D01*
X-90205Y-61548D01*
X-89898Y-61290D01*
X-89707Y-60980D01*
X-89668Y-60670D01*
X-89745Y-60308D01*
X-90013Y-60050D01*
X-90282Y-59947D01*
X-90627D01*
G01X-90282D02*
X-90052Y-59792D01*
X-89860Y-59533D01*
X-89783Y-59223D01*
X-89860Y-58913D01*
X-90052Y-58655D01*
X-90397Y-58500D01*
X-90742Y-58552D01*
X-91087Y-58758D01*
G01X-87450Y-61600D02*
X-87182Y-61548D01*
X-86875Y-61393D01*
X-86683Y-61135D01*
X-86607Y-60773D01*
X-86683Y-60412D01*
X-86913Y-60102D01*
X-87258Y-59947D01*
X-87642D01*
X-87872Y-59843D01*
X-88063Y-59585D01*
X-88140Y-59223D01*
X-88025Y-58862D01*
X-87757Y-58603D01*
X-87450Y-58500D01*
X-87143Y-58603D01*
X-86875Y-58862D01*
X-86760Y-59223D01*
X-86837Y-59585D01*
X-87028Y-59843D01*
X-87258Y-59947D01*
X-87642D01*
X-87987Y-60102D01*
X-88217Y-60412D01*
X-88293Y-60773D01*
X-88217Y-61135D01*
X-88025Y-61393D01*
X-87718Y-61548D01*
X-87450Y-61600D01*
G01X-92607Y-68758D02*
X-92837Y-68603D01*
X-93105Y-68500D01*
X-93412D01*
X-93757Y-68655D01*
X-94025Y-68913D01*
X-94217Y-69223D01*
X-94370Y-69740D01*
X-94408Y-70205D01*
X-94332Y-70670D01*
X-94217Y-70980D01*
X-93987Y-71290D01*
X-93718Y-71497D01*
X-93450Y-71600D01*
X-93182D01*
X-92913Y-71497D01*
X-92683Y-71342D01*
X-92492Y-71135D01*
G01X-91193Y-70980D02*
X-90963Y-71342D01*
X-90657Y-71548D01*
X-90312Y-71600D01*
X-90005Y-71548D01*
X-89698Y-71290D01*
X-89507Y-70980D01*
X-89468Y-70670D01*
X-89545Y-70308D01*
X-89813Y-70050D01*
X-90082Y-69947D01*
X-90427D01*
G01X-90082D02*
X-89852Y-69792D01*
X-89660Y-69533D01*
X-89583Y-69223D01*
X-89660Y-68913D01*
X-89852Y-68655D01*
X-90197Y-68500D01*
X-90542Y-68552D01*
X-90887Y-68758D01*
G01X-88093Y-71135D02*
X-87863Y-71393D01*
X-87595Y-71548D01*
X-87250Y-71600D01*
X-86905Y-71497D01*
X-86637Y-71290D01*
X-86445Y-70928D01*
X-86407Y-70515D01*
X-86483Y-70102D01*
X-86675Y-69843D01*
X-86943Y-69637D01*
X-87212Y-69585D01*
X-87480Y-69637D01*
X-87825Y-69843D01*
X-87710Y-68500D01*
X-86675D01*
G01X-91979Y14005D02*
X-89787Y11813D01*
G01X-92602Y13382D02*
X-91355Y14629D01*
G01X-88137Y13463D02*
X-90329Y15655D01*
X-89678Y16306D01*
X-89352Y16413D01*
X-88934Y16320D01*
X-88587Y16082D01*
X-88349Y15735D01*
X-88265Y15380D01*
X-88400Y15027D01*
X-89050Y14376D01*
G01X-87745Y17509D02*
X-87801Y17891D01*
X-87721Y18190D01*
X-87541Y18443D01*
X-87197Y18641D01*
X-86824Y18648D01*
X-86551Y18484D01*
X-86359Y18237D01*
X-86284Y17946D01*
X-86461Y17039D01*
X-86449Y16539D01*
X-86247Y16011D01*
X-85972Y15628D01*
X-84834Y16766D01*
G01X-84246Y18231D02*
X-83827Y18138D01*
X-83464Y18209D01*
X-83184Y18416D01*
X-83003Y18670D01*
X-82969Y19069D01*
X-83053Y19424D01*
X-83245Y19670D01*
X-83555Y19872D01*
X-83927Y19865D01*
X-84190Y19748D01*
X-84434Y19504D01*
G01X-84190Y19748D02*
X-84137Y20020D01*
X-84184Y20338D01*
X-84349Y20612D01*
X-84623Y20777D01*
X-84941Y20824D01*
X-85294Y20690D01*
X-85502Y20409D01*
X-85600Y20019D01*
G01X-96242Y15093D02*
X-96397Y14863D01*
X-96500Y14595D01*
Y14288D01*
X-96345Y13943D01*
X-96087Y13675D01*
X-95777Y13483D01*
X-95260Y13330D01*
X-94795Y13292D01*
X-94330Y13368D01*
X-94020Y13483D01*
X-93710Y13713D01*
X-93503Y13982D01*
X-93400Y14250D01*
Y14518D01*
X-93503Y14787D01*
X-93658Y15017D01*
X-93865Y15208D01*
G01X-93400Y17810D02*
X-96500D01*
X-94278Y16392D01*
Y18308D01*
G01X-96500Y20450D02*
X-96397Y20143D01*
X-96138Y19913D01*
X-95828Y19760D01*
X-95415Y19645D01*
X-94950Y19607D01*
X-94485Y19645D01*
X-94072Y19760D01*
X-93762Y19913D01*
X-93503Y20143D01*
X-93400Y20450D01*
X-93503Y20757D01*
X-93762Y20987D01*
X-94072Y21140D01*
X-94485Y21255D01*
X-94950Y21293D01*
X-95415Y21255D01*
X-95828Y21140D01*
X-96138Y20987D01*
X-96397Y20757D01*
X-96500Y20450D01*
G01X-86917Y30000D02*
Y33100D01*
X-85958D01*
X-85652Y32945D01*
X-85460Y32738D01*
X-85383Y32325D01*
X-85460Y31912D01*
X-85690Y31653D01*
X-85958Y31498D01*
X-86917D01*
G01X-85958D02*
X-85383Y30000D01*
G01X-83893Y30620D02*
X-83663Y30258D01*
X-83357Y30052D01*
X-83012Y30000D01*
X-82705Y30052D01*
X-82398Y30310D01*
X-82207Y30620D01*
X-82168Y30930D01*
X-82245Y31292D01*
X-82513Y31550D01*
X-82782Y31653D01*
X-83127D01*
G01X-82782D02*
X-82552Y31808D01*
X-82360Y32067D01*
X-82283Y32377D01*
X-82360Y32687D01*
X-82552Y32945D01*
X-82897Y33100D01*
X-83242Y33048D01*
X-83587Y32842D01*
G01X-79950Y30000D02*
Y33100D01*
X-80410Y32480D01*
G01Y30000D02*
X-79490D01*
G01X-89707Y49342D02*
X-89937Y49497D01*
X-90205Y49600D01*
X-90512D01*
X-90857Y49445D01*
X-91125Y49187D01*
X-91317Y48877D01*
X-91470Y48360D01*
X-91508Y47895D01*
X-91432Y47430D01*
X-91317Y47120D01*
X-91087Y46810D01*
X-90818Y46603D01*
X-90550Y46500D01*
X-90282D01*
X-90013Y46603D01*
X-89783Y46758D01*
X-89592Y46965D01*
G01X-88293Y47120D02*
X-88063Y46758D01*
X-87757Y46552D01*
X-87412Y46500D01*
X-87105Y46552D01*
X-86798Y46810D01*
X-86607Y47120D01*
X-86568Y47430D01*
X-86645Y47792D01*
X-86913Y48050D01*
X-87182Y48153D01*
X-87527D01*
G01X-87182D02*
X-86952Y48308D01*
X-86760Y48567D01*
X-86683Y48877D01*
X-86760Y49187D01*
X-86952Y49445D01*
X-87297Y49600D01*
X-87642Y49548D01*
X-87987Y49342D01*
G01X-85078Y49083D02*
X-84848Y49393D01*
X-84580Y49548D01*
X-84273Y49600D01*
X-83890Y49497D01*
X-83622Y49238D01*
X-83545Y48928D01*
X-83583Y48618D01*
X-83737Y48360D01*
X-84503Y47843D01*
X-84848Y47482D01*
X-85078Y46965D01*
X-85155Y46500D01*
X-83545D01*
G01X-95500Y46507D02*
X-98600D01*
Y47273D01*
X-98445Y47580D01*
X-98238Y47810D01*
X-97928Y48002D01*
X-97567Y48155D01*
X-97050Y48193D01*
X-96533Y48155D01*
X-96172Y48002D01*
X-95862Y47810D01*
X-95655Y47580D01*
X-95500Y47273D01*
Y46507D01*
G01X-98083Y49722D02*
X-98393Y49952D01*
X-98548Y50220D01*
X-98600Y50527D01*
X-98497Y50910D01*
X-98238Y51178D01*
X-97928Y51255D01*
X-97618Y51217D01*
X-97360Y51063D01*
X-96843Y50297D01*
X-96482Y49952D01*
X-95965Y49722D01*
X-95500Y49645D01*
Y51255D01*
G01X-97020Y69983D02*
X-96710Y70175D01*
X-96503Y70405D01*
X-96400Y70673D01*
X-96503Y70980D01*
X-96710Y71210D01*
X-97020Y71440D01*
X-97433Y71517D01*
X-99500D01*
G01X-96400Y73850D02*
X-99500D01*
X-98880Y73390D01*
G01X-96400D02*
Y74310D01*
G01X-93242Y65993D02*
X-93397Y65763D01*
X-93500Y65495D01*
Y65188D01*
X-93345Y64843D01*
X-93087Y64575D01*
X-92777Y64383D01*
X-92260Y64230D01*
X-91795Y64192D01*
X-91330Y64268D01*
X-91020Y64383D01*
X-90710Y64613D01*
X-90503Y64882D01*
X-90400Y65150D01*
Y65418D01*
X-90503Y65687D01*
X-90658Y65917D01*
X-90865Y66108D01*
G01X-91020Y67407D02*
X-90658Y67637D01*
X-90452Y67943D01*
X-90400Y68288D01*
X-90452Y68595D01*
X-90710Y68902D01*
X-91020Y69093D01*
X-91330Y69132D01*
X-91692Y69055D01*
X-91950Y68787D01*
X-92053Y68518D01*
Y68173D01*
G01Y68518D02*
X-92208Y68748D01*
X-92467Y68940D01*
X-92777Y69017D01*
X-93087Y68940D01*
X-93345Y68748D01*
X-93500Y68403D01*
X-93448Y68058D01*
X-93242Y67713D01*
G01X-93500Y71350D02*
X-93397Y71043D01*
X-93138Y70813D01*
X-92828Y70660D01*
X-92415Y70545D01*
X-91950Y70507D01*
X-91485Y70545D01*
X-91072Y70660D01*
X-90762Y70813D01*
X-90503Y71043D01*
X-90400Y71350D01*
X-90503Y71657D01*
X-90762Y71887D01*
X-91072Y72040D01*
X-91485Y72155D01*
X-91950Y72193D01*
X-92415Y72155D01*
X-92828Y72040D01*
X-93138Y71887D01*
X-93397Y71657D01*
X-93500Y71350D01*
G01X-91650Y78050D02*
Y81150D01*
X-92110Y80530D01*
G01Y78050D02*
X-91190D01*
G01X-67337Y-92279D02*
X-69529Y-94471D01*
X-68445Y-95555D01*
G01X-66849Y-97151D02*
X-66320Y-96730D01*
X-65837Y-96410D01*
X-65363Y-96153D01*
X-64826Y-95886D01*
X-64061Y-95555D01*
X-65145Y-94471D01*
G01X-72117Y-87600D02*
Y-84500D01*
X-71158D01*
X-70852Y-84655D01*
X-70660Y-84862D01*
X-70583Y-85275D01*
X-70660Y-85688D01*
X-70890Y-85947D01*
X-71158Y-86102D01*
X-72117D01*
G01X-71158D02*
X-70583Y-87600D01*
G01X-68978Y-85017D02*
X-68748Y-84707D01*
X-68480Y-84552D01*
X-68173Y-84500D01*
X-67790Y-84603D01*
X-67522Y-84862D01*
X-67445Y-85172D01*
X-67483Y-85482D01*
X-67637Y-85740D01*
X-68403Y-86257D01*
X-68748Y-86618D01*
X-68978Y-87135D01*
X-69055Y-87600D01*
X-67445D01*
G01X-65993Y-87135D02*
X-65763Y-87393D01*
X-65495Y-87548D01*
X-65150Y-87600D01*
X-64805Y-87497D01*
X-64537Y-87290D01*
X-64345Y-86928D01*
X-64307Y-86515D01*
X-64383Y-86102D01*
X-64575Y-85843D01*
X-64843Y-85637D01*
X-65112Y-85585D01*
X-65380Y-85637D01*
X-65725Y-85843D01*
X-65610Y-84500D01*
X-64575D01*
G01X-72117Y-83600D02*
Y-80500D01*
X-71158D01*
X-70852Y-80655D01*
X-70660Y-80862D01*
X-70583Y-81275D01*
X-70660Y-81688D01*
X-70890Y-81947D01*
X-71158Y-82102D01*
X-72117D01*
G01X-71158D02*
X-70583Y-83600D01*
G01X-68978Y-81017D02*
X-68748Y-80707D01*
X-68480Y-80552D01*
X-68173Y-80500D01*
X-67790Y-80603D01*
X-67522Y-80862D01*
X-67445Y-81172D01*
X-67483Y-81482D01*
X-67637Y-81740D01*
X-68403Y-82257D01*
X-68748Y-82618D01*
X-68978Y-83135D01*
X-69055Y-83600D01*
X-67445D01*
G01X-65227D02*
X-65150Y-82928D01*
X-65035Y-82360D01*
X-64882Y-81843D01*
X-64690Y-81275D01*
X-64383Y-80500D01*
X-65917D01*
G01X-74800Y-51550D02*
X-76195D01*
X-77900Y-52317D01*
G01Y-50783D02*
X-76195Y-51550D01*
G01X-74800Y-47990D02*
X-77900D01*
X-75678Y-49408D01*
Y-47492D01*
G01X-70900Y-42793D02*
X-68678D01*
X-68213Y-42640D01*
X-67903Y-42333D01*
X-67800Y-41950D01*
X-67903Y-41567D01*
X-68213Y-41260D01*
X-68678Y-41107D01*
X-70900D01*
G01X-67800Y-38927D02*
X-68472Y-38850D01*
X-69040Y-38735D01*
X-69557Y-38582D01*
X-70125Y-38390D01*
X-70900Y-38083D01*
Y-39617D01*
G01X-79307Y-30258D02*
X-79537Y-30103D01*
X-79805Y-30000D01*
X-80112D01*
X-80457Y-30155D01*
X-80725Y-30413D01*
X-80917Y-30723D01*
X-81070Y-31240D01*
X-81108Y-31705D01*
X-81032Y-32170D01*
X-80917Y-32480D01*
X-80687Y-32790D01*
X-80418Y-32997D01*
X-80150Y-33100D01*
X-79882D01*
X-79613Y-32997D01*
X-79383Y-32842D01*
X-79192Y-32635D01*
G01X-77893Y-32480D02*
X-77663Y-32842D01*
X-77357Y-33048D01*
X-77012Y-33100D01*
X-76705Y-33048D01*
X-76398Y-32790D01*
X-76207Y-32480D01*
X-76168Y-32170D01*
X-76245Y-31808D01*
X-76513Y-31550D01*
X-76782Y-31447D01*
X-77127D01*
G01X-76782D02*
X-76552Y-31292D01*
X-76360Y-31033D01*
X-76283Y-30723D01*
X-76360Y-30413D01*
X-76552Y-30155D01*
X-76897Y-30000D01*
X-77242Y-30052D01*
X-77587Y-30258D01*
G01X-74602Y-32738D02*
X-74333Y-32997D01*
X-74027Y-33100D01*
X-73720Y-32997D01*
X-73452Y-32687D01*
X-73260Y-32222D01*
X-73183Y-31757D01*
Y-31188D01*
X-73260Y-30723D01*
X-73452Y-30310D01*
X-73682Y-30103D01*
X-73950Y-30000D01*
X-74257Y-30103D01*
X-74487Y-30310D01*
X-74640Y-30620D01*
X-74717Y-31033D01*
X-74640Y-31395D01*
X-74448Y-31757D01*
X-74218Y-31963D01*
X-73950Y-32015D01*
X-73643Y-31912D01*
X-73413Y-31653D01*
X-73183Y-31188D01*
G01X-81617Y21000D02*
Y24100D01*
X-80658D01*
X-80352Y23945D01*
X-80160Y23738D01*
X-80083Y23325D01*
X-80160Y22912D01*
X-80390Y22653D01*
X-80658Y22498D01*
X-81617D01*
G01X-80658D02*
X-80083Y21000D01*
G01X-78478Y23583D02*
X-78248Y23893D01*
X-77980Y24048D01*
X-77673Y24100D01*
X-77290Y23997D01*
X-77022Y23738D01*
X-76945Y23428D01*
X-76983Y23118D01*
X-77137Y22860D01*
X-77903Y22343D01*
X-78248Y21982D01*
X-78478Y21465D01*
X-78555Y21000D01*
X-76945D01*
G01X-81617Y16600D02*
Y19700D01*
X-80658D01*
X-80352Y19545D01*
X-80160Y19338D01*
X-80083Y18925D01*
X-80160Y18512D01*
X-80390Y18253D01*
X-80658Y18098D01*
X-81617D01*
G01X-80658D02*
X-80083Y16600D01*
G01X-78593Y17220D02*
X-78363Y16858D01*
X-78057Y16652D01*
X-77712Y16600D01*
X-77405Y16652D01*
X-77098Y16910D01*
X-76907Y17220D01*
X-76868Y17530D01*
X-76945Y17892D01*
X-77213Y18150D01*
X-77482Y18253D01*
X-77827D01*
G01X-77482D02*
X-77252Y18408D01*
X-77060Y18667D01*
X-76983Y18977D01*
X-77060Y19287D01*
X-77252Y19545D01*
X-77597Y19700D01*
X-77942Y19648D01*
X-78287Y19442D01*
G01X-69507Y41842D02*
X-69737Y41997D01*
X-70005Y42100D01*
X-70312D01*
X-70657Y41945D01*
X-70925Y41687D01*
X-71117Y41377D01*
X-71270Y40860D01*
X-71308Y40395D01*
X-71232Y39930D01*
X-71117Y39620D01*
X-70887Y39310D01*
X-70618Y39103D01*
X-70350Y39000D01*
X-70082D01*
X-69813Y39103D01*
X-69583Y39258D01*
X-69392Y39465D01*
G01X-68093Y39620D02*
X-67863Y39258D01*
X-67557Y39052D01*
X-67212Y39000D01*
X-66905Y39052D01*
X-66598Y39310D01*
X-66407Y39620D01*
X-66368Y39930D01*
X-66445Y40292D01*
X-66713Y40550D01*
X-66982Y40653D01*
X-67327D01*
G01X-66982D02*
X-66752Y40808D01*
X-66560Y41067D01*
X-66483Y41377D01*
X-66560Y41687D01*
X-66752Y41945D01*
X-67097Y42100D01*
X-67442Y42048D01*
X-67787Y41842D01*
G01X-64150Y39000D02*
Y42100D01*
X-64610Y41480D01*
G01Y39000D02*
X-63690D01*
G01X-69707Y37942D02*
X-69937Y38097D01*
X-70205Y38200D01*
X-70512D01*
X-70857Y38045D01*
X-71125Y37787D01*
X-71317Y37477D01*
X-71470Y36960D01*
X-71508Y36495D01*
X-71432Y36030D01*
X-71317Y35720D01*
X-71087Y35410D01*
X-70818Y35203D01*
X-70550Y35100D01*
X-70282D01*
X-70013Y35203D01*
X-69783Y35358D01*
X-69592Y35565D01*
G01X-68178Y37683D02*
X-67948Y37993D01*
X-67680Y38148D01*
X-67373Y38200D01*
X-66990Y38097D01*
X-66722Y37838D01*
X-66645Y37528D01*
X-66683Y37218D01*
X-66837Y36960D01*
X-67603Y36443D01*
X-67948Y36082D01*
X-68178Y35565D01*
X-68255Y35100D01*
X-66645D01*
G01X-65002Y35462D02*
X-64733Y35203D01*
X-64427Y35100D01*
X-64120Y35203D01*
X-63852Y35513D01*
X-63660Y35978D01*
X-63583Y36443D01*
Y37012D01*
X-63660Y37477D01*
X-63852Y37890D01*
X-64082Y38097D01*
X-64350Y38200D01*
X-64657Y38097D01*
X-64887Y37890D01*
X-65040Y37580D01*
X-65117Y37167D01*
X-65040Y36805D01*
X-64848Y36443D01*
X-64618Y36237D01*
X-64350Y36185D01*
X-64043Y36288D01*
X-63813Y36547D01*
X-63583Y37012D01*
G01X-79829Y24371D02*
X-82021Y26563D01*
X-81343Y27241D01*
X-81017Y27348D01*
X-80735Y27337D01*
X-80389Y27099D01*
X-80151Y26753D01*
X-80131Y26408D01*
X-80211Y26108D01*
X-80888Y25431D01*
G01X-80211Y26108D02*
X-78745Y25455D01*
G01X-79437Y28417D02*
X-79493Y28799D01*
X-79413Y29098D01*
X-79233Y29351D01*
X-78889Y29549D01*
X-78516Y29556D01*
X-78243Y29392D01*
X-78051Y29145D01*
X-77976Y28854D01*
X-78153Y27947D01*
X-78141Y27447D01*
X-77939Y26919D01*
X-77664Y26536D01*
X-76526Y27674D01*
G01X-74903Y29297D02*
X-77095Y31489D01*
X-76982Y30726D01*
G01X-75228Y28972D02*
X-74578Y29622D01*
G01X-76900Y55507D02*
X-74678D01*
X-74213Y55660D01*
X-73903Y55967D01*
X-73800Y56350D01*
X-73903Y56733D01*
X-74213Y57040D01*
X-74678Y57193D01*
X-76900D01*
G01X-75092Y58722D02*
X-75453Y58990D01*
X-75660Y59220D01*
X-75763Y59527D01*
X-75660Y59795D01*
X-75453Y59987D01*
X-75143Y60140D01*
X-74782Y60178D01*
X-74472Y60140D01*
X-74162Y59987D01*
X-73903Y59757D01*
X-73800Y59488D01*
X-73903Y59182D01*
X-74213Y58913D01*
X-74678Y58760D01*
X-75195Y58722D01*
X-75867Y58798D01*
X-76228Y58913D01*
X-76590Y59105D01*
X-76848Y59373D01*
X-76900Y59642D01*
X-76797Y59910D01*
X-76538Y60102D01*
G01X-73500Y74283D02*
X-76600D01*
Y75242D01*
X-76445Y75548D01*
X-76238Y75740D01*
X-75825Y75817D01*
X-75412Y75740D01*
X-75153Y75510D01*
X-74998Y75242D01*
Y74283D01*
G01Y75242D02*
X-73500Y75817D01*
G01Y78150D02*
X-76600D01*
X-75980Y77690D01*
G01X-73500D02*
Y78610D01*
G01X-65500Y-90181D02*
X-65772Y-90234D01*
X-66035Y-90351D01*
X-66252Y-90568D01*
X-66386Y-90921D01*
X-66393Y-91294D01*
X-66309Y-91648D01*
X-66053Y-92122D01*
X-65751Y-92478D01*
X-65368Y-92753D01*
X-65067Y-92891D01*
X-64685Y-92947D01*
X-64350Y-92903D01*
X-64087Y-92787D01*
X-63897Y-92597D01*
X-63780Y-92334D01*
X-63727Y-92062D01*
X-63738Y-91780D01*
G01X-62930Y-90753D02*
X-62511Y-90846D01*
X-62148Y-90775D01*
X-61868Y-90568D01*
X-61687Y-90314D01*
X-61653Y-89915D01*
X-61737Y-89560D01*
X-61929Y-89314D01*
X-62239Y-89112D01*
X-62611Y-89119D01*
X-62874Y-89236D01*
X-63118Y-89480D01*
G01X-62874Y-89236D02*
X-62821Y-88964D01*
X-62868Y-88646D01*
X-63033Y-88372D01*
X-63307Y-88207D01*
X-63625Y-88160D01*
X-63978Y-88294D01*
X-64186Y-88575D01*
X-64284Y-88965D01*
G01X-59757Y-88457D02*
X-60178Y-87928D01*
X-60498Y-87445D01*
X-60755Y-86971D01*
X-61022Y-86434D01*
X-61353Y-85669D01*
X-62437Y-86753D01*
G01X-59837Y-81279D02*
X-62029Y-83471D01*
X-60945Y-84555D01*
G01X-58897Y-84777D02*
X-58451Y-84711D01*
X-58142Y-84727D01*
X-57852Y-84871D01*
X-57736Y-85134D01*
X-57746Y-85416D01*
X-57857Y-85743D01*
X-58086Y-86026D01*
X-58332Y-86218D01*
X-58660Y-86329D01*
X-59005Y-86349D01*
X-59268Y-86232D01*
X-59411Y-85942D01*
X-59382Y-85533D01*
X-59162Y-85096D01*
X-58823Y-84704D01*
X-58294Y-84283D01*
X-57957Y-84109D01*
X-57566Y-83988D01*
X-57194Y-83995D01*
X-56967Y-84149D01*
X-56851Y-84411D01*
X-56898Y-84730D01*
G01X-65617Y-29500D02*
Y-26400D01*
X-64658D01*
X-64352Y-26555D01*
X-64160Y-26762D01*
X-64083Y-27175D01*
X-64160Y-27588D01*
X-64390Y-27847D01*
X-64658Y-28002D01*
X-65617D01*
G01X-64658D02*
X-64083Y-29500D01*
G01X-54317Y-40600D02*
Y-37500D01*
X-53358D01*
X-53052Y-37655D01*
X-52860Y-37862D01*
X-52783Y-38275D01*
X-52860Y-38688D01*
X-53090Y-38947D01*
X-53358Y-39102D01*
X-54317D01*
G01X-53358D02*
X-52783Y-40600D01*
G01X-51178Y-38017D02*
X-50948Y-37707D01*
X-50680Y-37552D01*
X-50373Y-37500D01*
X-49990Y-37603D01*
X-49722Y-37862D01*
X-49645Y-38172D01*
X-49683Y-38482D01*
X-49837Y-38740D01*
X-50603Y-39257D01*
X-50948Y-39618D01*
X-51178Y-40135D01*
X-51255Y-40600D01*
X-49645D01*
G01X-48078Y-39308D02*
X-47810Y-38947D01*
X-47580Y-38740D01*
X-47273Y-38637D01*
X-47005Y-38740D01*
X-46813Y-38947D01*
X-46660Y-39257D01*
X-46622Y-39618D01*
X-46660Y-39928D01*
X-46813Y-40238D01*
X-47043Y-40497D01*
X-47312Y-40600D01*
X-47618Y-40497D01*
X-47887Y-40187D01*
X-48040Y-39722D01*
X-48078Y-39205D01*
X-48002Y-38533D01*
X-47887Y-38172D01*
X-47695Y-37810D01*
X-47427Y-37552D01*
X-47158Y-37500D01*
X-46890Y-37603D01*
X-46698Y-37862D01*
G01X-55717Y-23400D02*
Y-26500D01*
X-54183D01*
G01X-51390D02*
Y-23400D01*
X-52808Y-25622D01*
X-50892D01*
G01X-63937Y30121D02*
X-66129Y27929D01*
X-65045Y26845D01*
G01X-61203Y27387D02*
X-63395Y25195D01*
G01X-61826Y28010D02*
X-60579Y26763D01*
G01X-59891Y25345D02*
X-59509Y25401D01*
X-59210Y25321D01*
X-58957Y25141D01*
X-58759Y24797D01*
X-58752Y24424D01*
X-58916Y24151D01*
X-59163Y23959D01*
X-59454Y23884D01*
X-60361Y24061D01*
X-60861Y24049D01*
X-61389Y23847D01*
X-61772Y23572D01*
X-60634Y22434D01*
G01X-53781Y38000D02*
X-53834Y38272D01*
X-53951Y38535D01*
X-54168Y38752D01*
X-54521Y38886D01*
X-54894Y38893D01*
X-55248Y38809D01*
X-55722Y38553D01*
X-56078Y38251D01*
X-56353Y37868D01*
X-56491Y37567D01*
X-56547Y37185D01*
X-56503Y36850D01*
X-56387Y36587D01*
X-56197Y36397D01*
X-55934Y36280D01*
X-55662Y36227D01*
X-55380Y36238D01*
G01X-54764Y34964D02*
X-52572Y37156D01*
G01X-51434Y36018D02*
X-53626Y33826D01*
G01X-52530Y34922D02*
X-53668Y36060D01*
G01X-50744Y33136D02*
X-50202Y32594D01*
X-50860Y31936D01*
X-51242Y31880D01*
X-51577Y31924D01*
X-51922Y32122D01*
X-52119Y32466D01*
X-52163Y32801D01*
X-52107Y33183D01*
X-51959Y33548D01*
X-51721Y33894D01*
X-51465Y34150D01*
X-51192Y34315D01*
X-50828Y34462D01*
X-50446Y34519D01*
X-50137Y34502D01*
X-49811Y34395D01*
X-49621Y34205D01*
X-49477Y33915D01*
X-49461Y33606D01*
G01X-59829Y34129D02*
X-57637Y36321D01*
X-56986Y35670D01*
X-56879Y35344D01*
X-56972Y34926D01*
X-57210Y34579D01*
X-57557Y34341D01*
X-57912Y34257D01*
X-58265Y34392D01*
X-58916Y35042D01*
G01X-57095Y31395D02*
X-57275Y31648D01*
X-57319Y31984D01*
X-57262Y32366D01*
X-57115Y32730D01*
X-56877Y33077D01*
X-56585Y33369D01*
X-56238Y33607D01*
X-55874Y33754D01*
X-55492Y33811D01*
X-55156Y33767D01*
X-54903Y33587D01*
X-54722Y33334D01*
X-54679Y32998D01*
X-54735Y32616D01*
X-54883Y32252D01*
X-55121Y31905D01*
X-55413Y31613D01*
X-55760Y31375D01*
X-56124Y31227D01*
X-56506Y31171D01*
X-56841Y31215D01*
X-57095Y31395D01*
G01X-53524Y32208D02*
X-55337Y29637D01*
X-52711Y31395D01*
X-54469Y28769D01*
X-51898Y30582D01*
G01X-60637Y33221D02*
X-62829Y31029D01*
X-61745Y29945D01*
G01X-57903Y30487D02*
X-60095Y28295D01*
G01X-58526Y31110D02*
X-57279Y29863D01*
G01X-57903Y26103D02*
X-55711Y28295D01*
X-56474Y28182D01*
G01X-58228Y26428D02*
X-57578Y25778D01*
G01X-56100Y40300D02*
X-54200D01*
X-51800Y42700D01*
G01X-55717Y43700D02*
Y46800D01*
X-54758D01*
X-54452Y46645D01*
X-54260Y46438D01*
X-54183Y46025D01*
X-54260Y45612D01*
X-54490Y45353D01*
X-54758Y45198D01*
X-55717D01*
G01X-54758D02*
X-54183Y43700D01*
G01X-52693Y44320D02*
X-52463Y43958D01*
X-52157Y43752D01*
X-51812Y43700D01*
X-51505Y43752D01*
X-51198Y44010D01*
X-51007Y44320D01*
X-50968Y44630D01*
X-51045Y44992D01*
X-51313Y45250D01*
X-51582Y45353D01*
X-51927D01*
G01X-51582D02*
X-51352Y45508D01*
X-51160Y45767D01*
X-51083Y46077D01*
X-51160Y46387D01*
X-51352Y46645D01*
X-51697Y46800D01*
X-52042Y46748D01*
X-52387Y46542D01*
G01X-49593Y44320D02*
X-49363Y43958D01*
X-49057Y43752D01*
X-48712Y43700D01*
X-48405Y43752D01*
X-48098Y44010D01*
X-47907Y44320D01*
X-47868Y44630D01*
X-47945Y44992D01*
X-48213Y45250D01*
X-48482Y45353D01*
X-48827D01*
G01X-48482D02*
X-48252Y45508D01*
X-48060Y45767D01*
X-47983Y46077D01*
X-48060Y46387D01*
X-48252Y46645D01*
X-48597Y46800D01*
X-48942Y46748D01*
X-49287Y46542D01*
G01X-55717Y47700D02*
Y50800D01*
X-54758D01*
X-54452Y50645D01*
X-54260Y50438D01*
X-54183Y50025D01*
X-54260Y49612D01*
X-54490Y49353D01*
X-54758Y49198D01*
X-55717D01*
G01X-54758D02*
X-54183Y47700D01*
G01X-52693Y48320D02*
X-52463Y47958D01*
X-52157Y47752D01*
X-51812Y47700D01*
X-51505Y47752D01*
X-51198Y48010D01*
X-51007Y48320D01*
X-50968Y48630D01*
X-51045Y48992D01*
X-51313Y49250D01*
X-51582Y49353D01*
X-51927D01*
G01X-51582D02*
X-51352Y49508D01*
X-51160Y49767D01*
X-51083Y50077D01*
X-51160Y50387D01*
X-51352Y50645D01*
X-51697Y50800D01*
X-52042Y50748D01*
X-52387Y50542D01*
G01X-48290Y47700D02*
Y50800D01*
X-49708Y48578D01*
X-47792D01*
G01X-61600Y60383D02*
X-58500D01*
Y61917D01*
G01X-58965Y63407D02*
X-58707Y63637D01*
X-58552Y63905D01*
X-58500Y64250D01*
X-58603Y64595D01*
X-58810Y64863D01*
X-59172Y65055D01*
X-59585Y65093D01*
X-59998Y65017D01*
X-60257Y64825D01*
X-60463Y64557D01*
X-60515Y64288D01*
X-60463Y64020D01*
X-60257Y63675D01*
X-61600Y63790D01*
Y64825D01*
G01X-49700Y62683D02*
X-52800D01*
Y63642D01*
X-52645Y63948D01*
X-52438Y64140D01*
X-52025Y64217D01*
X-51612Y64140D01*
X-51353Y63910D01*
X-51198Y63642D01*
Y62683D01*
G01Y63642D02*
X-49700Y64217D01*
G01X-50992Y65822D02*
X-51353Y66090D01*
X-51560Y66320D01*
X-51663Y66627D01*
X-51560Y66895D01*
X-51353Y67087D01*
X-51043Y67240D01*
X-50682Y67278D01*
X-50372Y67240D01*
X-50062Y67087D01*
X-49803Y66857D01*
X-49700Y66588D01*
X-49803Y66282D01*
X-50113Y66013D01*
X-50578Y65860D01*
X-51095Y65822D01*
X-51767Y65898D01*
X-52128Y66013D01*
X-52490Y66205D01*
X-52748Y66473D01*
X-52800Y66742D01*
X-52697Y67010D01*
X-52438Y67202D01*
G01X-62893Y72200D02*
Y69978D01*
X-62740Y69513D01*
X-62433Y69203D01*
X-62050Y69100D01*
X-61667Y69203D01*
X-61360Y69513D01*
X-61207Y69978D01*
Y72200D01*
G01X-58950Y69100D02*
Y72200D01*
X-59410Y71580D01*
G01Y69100D02*
X-58490D01*
G01X-34907Y-80058D02*
X-35137Y-79903D01*
X-35405Y-79800D01*
X-35712D01*
X-36057Y-79955D01*
X-36325Y-80213D01*
X-36517Y-80523D01*
X-36670Y-81040D01*
X-36708Y-81505D01*
X-36632Y-81970D01*
X-36517Y-82280D01*
X-36287Y-82590D01*
X-36018Y-82797D01*
X-35750Y-82900D01*
X-35482D01*
X-35213Y-82797D01*
X-34983Y-82642D01*
X-34792Y-82435D01*
G01X-33493Y-82280D02*
X-33263Y-82642D01*
X-32957Y-82848D01*
X-32612Y-82900D01*
X-32305Y-82848D01*
X-31998Y-82590D01*
X-31807Y-82280D01*
X-31768Y-81970D01*
X-31845Y-81608D01*
X-32113Y-81350D01*
X-32382Y-81247D01*
X-32727D01*
G01X-32382D02*
X-32152Y-81092D01*
X-31960Y-80833D01*
X-31883Y-80523D01*
X-31960Y-80213D01*
X-32152Y-79955D01*
X-32497Y-79800D01*
X-32842Y-79852D01*
X-33187Y-80058D01*
G01X-29090Y-82900D02*
Y-79800D01*
X-30508Y-82022D01*
X-28592D01*
G01X-48100Y-87817D02*
X-51200D01*
Y-86858D01*
X-51045Y-86552D01*
X-50838Y-86360D01*
X-50425Y-86283D01*
X-50012Y-86360D01*
X-49753Y-86590D01*
X-49598Y-86858D01*
Y-87817D01*
G01Y-86858D02*
X-48100Y-86283D01*
G01X-50683Y-84678D02*
X-50993Y-84448D01*
X-51148Y-84180D01*
X-51200Y-83873D01*
X-51097Y-83490D01*
X-50838Y-83222D01*
X-50528Y-83145D01*
X-50218Y-83183D01*
X-49960Y-83337D01*
X-49443Y-84103D01*
X-49082Y-84448D01*
X-48565Y-84678D01*
X-48100Y-84755D01*
Y-83145D01*
G01X-48720Y-81693D02*
X-48358Y-81463D01*
X-48152Y-81157D01*
X-48100Y-80812D01*
X-48152Y-80505D01*
X-48410Y-80198D01*
X-48720Y-80007D01*
X-49030Y-79968D01*
X-49392Y-80045D01*
X-49650Y-80313D01*
X-49753Y-80582D01*
Y-80927D01*
G01Y-80582D02*
X-49908Y-80352D01*
X-50167Y-80160D01*
X-50477Y-80083D01*
X-50787Y-80160D01*
X-51045Y-80352D01*
X-51200Y-80697D01*
X-51148Y-81042D01*
X-50942Y-81387D01*
G01X-44000Y-87717D02*
X-47100D01*
Y-86758D01*
X-46945Y-86452D01*
X-46738Y-86260D01*
X-46325Y-86183D01*
X-45912Y-86260D01*
X-45653Y-86490D01*
X-45498Y-86758D01*
Y-87717D01*
G01Y-86758D02*
X-44000Y-86183D01*
G01X-46583Y-84578D02*
X-46893Y-84348D01*
X-47048Y-84080D01*
X-47100Y-83773D01*
X-46997Y-83390D01*
X-46738Y-83122D01*
X-46428Y-83045D01*
X-46118Y-83083D01*
X-45860Y-83237D01*
X-45343Y-84003D01*
X-44982Y-84348D01*
X-44465Y-84578D01*
X-44000Y-84655D01*
Y-83045D01*
G01Y-80290D02*
X-47100D01*
X-44878Y-81708D01*
Y-79792D01*
G01X-42142Y-86007D02*
X-42297Y-86237D01*
X-42400Y-86505D01*
Y-86812D01*
X-42245Y-87157D01*
X-41987Y-87425D01*
X-41677Y-87617D01*
X-41160Y-87770D01*
X-40695Y-87808D01*
X-40230Y-87732D01*
X-39920Y-87617D01*
X-39610Y-87387D01*
X-39403Y-87118D01*
X-39300Y-86850D01*
Y-86582D01*
X-39403Y-86313D01*
X-39558Y-86083D01*
X-39765Y-85892D01*
G01X-39920Y-84593D02*
X-39558Y-84363D01*
X-39352Y-84057D01*
X-39300Y-83712D01*
X-39352Y-83405D01*
X-39610Y-83098D01*
X-39920Y-82907D01*
X-40230Y-82868D01*
X-40592Y-82945D01*
X-40850Y-83213D01*
X-40953Y-83482D01*
Y-83827D01*
G01Y-83482D02*
X-41108Y-83252D01*
X-41367Y-83060D01*
X-41677Y-82983D01*
X-41987Y-83060D01*
X-42245Y-83252D01*
X-42400Y-83597D01*
X-42348Y-83942D01*
X-42142Y-84287D01*
G01X-40592Y-81378D02*
X-40953Y-81110D01*
X-41160Y-80880D01*
X-41263Y-80573D01*
X-41160Y-80305D01*
X-40953Y-80113D01*
X-40643Y-79960D01*
X-40282Y-79922D01*
X-39972Y-79960D01*
X-39662Y-80113D01*
X-39403Y-80343D01*
X-39300Y-80612D01*
X-39403Y-80918D01*
X-39713Y-81187D01*
X-40178Y-81340D01*
X-40695Y-81378D01*
X-41367Y-81302D01*
X-41728Y-81187D01*
X-42090Y-80995D01*
X-42348Y-80727D01*
X-42400Y-80458D01*
X-42297Y-80190D01*
X-42038Y-79998D01*
G01X-48500Y-69193D02*
X-46278D01*
X-45813Y-69040D01*
X-45503Y-68733D01*
X-45400Y-68350D01*
X-45503Y-67967D01*
X-45813Y-67660D01*
X-46278Y-67507D01*
X-48500D01*
G01X-45400Y-65250D02*
X-45452Y-64982D01*
X-45607Y-64675D01*
X-45865Y-64483D01*
X-46227Y-64407D01*
X-46588Y-64483D01*
X-46898Y-64713D01*
X-47053Y-65058D01*
Y-65442D01*
X-47157Y-65672D01*
X-47415Y-65863D01*
X-47777Y-65940D01*
X-48138Y-65825D01*
X-48397Y-65557D01*
X-48500Y-65250D01*
X-48397Y-64943D01*
X-48138Y-64675D01*
X-47777Y-64560D01*
X-47415Y-64637D01*
X-47157Y-64828D01*
X-47053Y-65058D01*
Y-65442D01*
X-46898Y-65787D01*
X-46588Y-66017D01*
X-46227Y-66093D01*
X-45865Y-66017D01*
X-45607Y-65825D01*
X-45452Y-65518D01*
X-45400Y-65250D01*
G01X-47642Y-29207D02*
X-47797Y-29437D01*
X-47900Y-29705D01*
Y-30012D01*
X-47745Y-30357D01*
X-47487Y-30625D01*
X-47177Y-30817D01*
X-46660Y-30970D01*
X-46195Y-31008D01*
X-45730Y-30932D01*
X-45420Y-30817D01*
X-45110Y-30587D01*
X-44903Y-30318D01*
X-44800Y-30050D01*
Y-29782D01*
X-44903Y-29513D01*
X-45058Y-29283D01*
X-45265Y-29092D01*
G01X-47383Y-27678D02*
X-47693Y-27448D01*
X-47848Y-27180D01*
X-47900Y-26873D01*
X-47797Y-26490D01*
X-47538Y-26222D01*
X-47228Y-26145D01*
X-46918Y-26183D01*
X-46660Y-26337D01*
X-46143Y-27103D01*
X-45782Y-27448D01*
X-45265Y-27678D01*
X-44800Y-27755D01*
Y-26145D01*
G01X-47900Y-23850D02*
X-47797Y-24157D01*
X-47538Y-24387D01*
X-47228Y-24540D01*
X-46815Y-24655D01*
X-46350Y-24693D01*
X-45885Y-24655D01*
X-45472Y-24540D01*
X-45162Y-24387D01*
X-44903Y-24157D01*
X-44800Y-23850D01*
X-44903Y-23543D01*
X-45162Y-23313D01*
X-45472Y-23160D01*
X-45885Y-23045D01*
X-46350Y-23007D01*
X-46815Y-23045D01*
X-47228Y-23160D01*
X-47538Y-23313D01*
X-47797Y-23543D01*
X-47900Y-23850D01*
G01X-38142Y-15207D02*
X-38297Y-15437D01*
X-38400Y-15705D01*
Y-16012D01*
X-38245Y-16357D01*
X-37987Y-16625D01*
X-37677Y-16817D01*
X-37160Y-16970D01*
X-36695Y-17008D01*
X-36230Y-16932D01*
X-35920Y-16817D01*
X-35610Y-16587D01*
X-35403Y-16318D01*
X-35300Y-16050D01*
Y-15782D01*
X-35403Y-15513D01*
X-35558Y-15283D01*
X-35765Y-15092D01*
G01X-35300Y-12950D02*
X-38400D01*
X-37780Y-13410D01*
G01X-35300D02*
Y-12490D01*
G01X-35662Y-10502D02*
X-35403Y-10233D01*
X-35300Y-9927D01*
X-35403Y-9620D01*
X-35713Y-9352D01*
X-36178Y-9160D01*
X-36643Y-9083D01*
X-37212D01*
X-37677Y-9160D01*
X-38090Y-9352D01*
X-38297Y-9582D01*
X-38400Y-9850D01*
X-38297Y-10157D01*
X-38090Y-10387D01*
X-37780Y-10540D01*
X-37367Y-10617D01*
X-37005Y-10540D01*
X-36643Y-10348D01*
X-36437Y-10118D01*
X-36385Y-9850D01*
X-36488Y-9543D01*
X-36747Y-9313D01*
X-37212Y-9083D01*
G01X-41942Y-3407D02*
X-42097Y-3637D01*
X-42200Y-3905D01*
Y-4212D01*
X-42045Y-4557D01*
X-41787Y-4825D01*
X-41477Y-5017D01*
X-40960Y-5170D01*
X-40495Y-5208D01*
X-40030Y-5132D01*
X-39720Y-5017D01*
X-39410Y-4787D01*
X-39203Y-4518D01*
X-39100Y-4250D01*
Y-3982D01*
X-39203Y-3713D01*
X-39358Y-3483D01*
X-39565Y-3292D01*
G01X-41683Y-1878D02*
X-41993Y-1648D01*
X-42148Y-1380D01*
X-42200Y-1073D01*
X-42097Y-690D01*
X-41838Y-422D01*
X-41528Y-345D01*
X-41218Y-383D01*
X-40960Y-537D01*
X-40443Y-1303D01*
X-40082Y-1648D01*
X-39565Y-1878D01*
X-39100Y-1955D01*
Y-345D01*
G01Y1950D02*
X-39152Y2218D01*
X-39307Y2525D01*
X-39565Y2717D01*
X-39927Y2793D01*
X-40288Y2717D01*
X-40598Y2487D01*
X-40753Y2142D01*
Y1758D01*
X-40857Y1528D01*
X-41115Y1337D01*
X-41477Y1260D01*
X-41838Y1375D01*
X-42097Y1643D01*
X-42200Y1950D01*
X-42097Y2257D01*
X-41838Y2525D01*
X-41477Y2640D01*
X-41115Y2563D01*
X-40857Y2372D01*
X-40753Y2142D01*
Y1758D01*
X-40598Y1413D01*
X-40288Y1183D01*
X-39927Y1107D01*
X-39565Y1183D01*
X-39307Y1375D01*
X-39152Y1682D01*
X-39100Y1950D01*
G01X-38342Y-1007D02*
X-38497Y-1237D01*
X-38600Y-1505D01*
Y-1812D01*
X-38445Y-2157D01*
X-38187Y-2425D01*
X-37877Y-2617D01*
X-37360Y-2770D01*
X-36895Y-2808D01*
X-36430Y-2732D01*
X-36120Y-2617D01*
X-35810Y-2387D01*
X-35603Y-2118D01*
X-35500Y-1850D01*
Y-1582D01*
X-35603Y-1313D01*
X-35758Y-1083D01*
X-35965Y-892D01*
G01X-38083Y522D02*
X-38393Y752D01*
X-38548Y1020D01*
X-38600Y1327D01*
X-38497Y1710D01*
X-38238Y1978D01*
X-37928Y2055D01*
X-37618Y2017D01*
X-37360Y1863D01*
X-36843Y1097D01*
X-36482Y752D01*
X-35965Y522D01*
X-35500Y445D01*
Y2055D01*
G01Y4350D02*
X-38600D01*
X-37980Y3890D01*
G01X-35500D02*
Y4810D01*
G01X-41300Y38783D02*
X-44400D01*
Y39742D01*
X-44245Y40048D01*
X-44038Y40240D01*
X-43625Y40317D01*
X-43212Y40240D01*
X-42953Y40010D01*
X-42798Y39742D01*
Y38783D01*
G01Y39742D02*
X-41300Y40317D01*
G01X-43883Y41922D02*
X-44193Y42152D01*
X-44348Y42420D01*
X-44400Y42727D01*
X-44297Y43110D01*
X-44038Y43378D01*
X-43728Y43455D01*
X-43418Y43417D01*
X-43160Y43263D01*
X-42643Y42497D01*
X-42282Y42152D01*
X-41765Y41922D01*
X-41300Y41845D01*
Y43455D01*
G01X-41662Y45098D02*
X-41403Y45367D01*
X-41300Y45673D01*
X-41403Y45980D01*
X-41713Y46248D01*
X-42178Y46440D01*
X-42643Y46517D01*
X-43212D01*
X-43677Y46440D01*
X-44090Y46248D01*
X-44297Y46018D01*
X-44400Y45750D01*
X-44297Y45443D01*
X-44090Y45213D01*
X-43780Y45060D01*
X-43367Y44983D01*
X-43005Y45060D01*
X-42643Y45252D01*
X-42437Y45482D01*
X-42385Y45750D01*
X-42488Y46057D01*
X-42747Y46287D01*
X-43212Y46517D01*
G01X-36086Y31143D02*
X-35687Y31177D01*
X-35333Y31312D01*
X-35116Y31529D01*
X-35009Y31855D01*
X-35029Y32200D01*
X-35204Y32537D01*
X-35514Y32739D01*
X-35868Y32823D01*
X-36258Y32725D01*
X-36657Y32473D01*
X-36993Y32429D01*
X-37330Y32603D01*
X-37531Y32913D01*
X-37578Y33231D01*
X-37498Y33531D01*
X-37308Y33721D01*
X-37046Y33837D01*
X-36700Y33817D01*
G01X-36038Y34991D02*
X-33467Y33178D01*
X-35225Y35804D01*
X-32599Y34046D01*
X-34412Y36617D01*
G01X-30841Y35804D02*
X-33033Y37996D01*
X-32920Y37233D01*
G01X-31166Y35479D02*
X-30516Y36129D01*
G01X-40000Y42600D02*
Y44100D01*
X-37700Y46400D01*
Y48400D01*
X-37200Y47900D01*
Y47800D01*
X-38300D01*
Y48000D01*
X-37900Y48400D01*
G01X-44100Y49283D02*
X-47200D01*
Y50242D01*
X-47045Y50548D01*
X-46838Y50740D01*
X-46425Y50817D01*
X-46012Y50740D01*
X-45753Y50510D01*
X-45598Y50242D01*
Y49283D01*
G01Y50242D02*
X-44100Y50817D01*
G01X-44720Y52307D02*
X-44358Y52537D01*
X-44152Y52843D01*
X-44100Y53188D01*
X-44152Y53495D01*
X-44410Y53802D01*
X-44720Y53993D01*
X-45030Y54032D01*
X-45392Y53955D01*
X-45650Y53687D01*
X-45753Y53418D01*
Y53073D01*
G01Y53418D02*
X-45908Y53648D01*
X-46167Y53840D01*
X-46477Y53917D01*
X-46787Y53840D01*
X-47045Y53648D01*
X-47200Y53303D01*
X-47148Y52958D01*
X-46942Y52613D01*
G01X-47200Y56250D02*
X-47097Y55943D01*
X-46838Y55713D01*
X-46528Y55560D01*
X-46115Y55445D01*
X-45650Y55407D01*
X-45185Y55445D01*
X-44772Y55560D01*
X-44462Y55713D01*
X-44203Y55943D01*
X-44100Y56250D01*
X-44203Y56557D01*
X-44462Y56787D01*
X-44772Y56940D01*
X-45185Y57055D01*
X-45650Y57093D01*
X-46115Y57055D01*
X-46528Y56940D01*
X-46838Y56787D01*
X-47097Y56557D01*
X-47200Y56250D01*
G01X-45400Y64983D02*
X-48500D01*
Y65942D01*
X-48345Y66248D01*
X-48138Y66440D01*
X-47725Y66517D01*
X-47312Y66440D01*
X-47053Y66210D01*
X-46898Y65942D01*
Y64983D01*
G01Y65942D02*
X-45400Y66517D01*
G01X-45865Y68007D02*
X-45607Y68237D01*
X-45452Y68505D01*
X-45400Y68850D01*
X-45503Y69195D01*
X-45710Y69463D01*
X-46072Y69655D01*
X-46485Y69693D01*
X-46898Y69617D01*
X-47157Y69425D01*
X-47363Y69157D01*
X-47415Y68888D01*
X-47363Y68620D01*
X-47157Y68275D01*
X-48500Y68390D01*
Y69425D01*
G01X-40300Y62483D02*
X-43400D01*
Y63442D01*
X-43245Y63748D01*
X-43038Y63940D01*
X-42625Y64017D01*
X-42212Y63940D01*
X-41953Y63710D01*
X-41798Y63442D01*
Y62483D01*
G01Y63442D02*
X-40300Y64017D01*
G01X-40920Y65507D02*
X-40558Y65737D01*
X-40352Y66043D01*
X-40300Y66388D01*
X-40352Y66695D01*
X-40610Y67002D01*
X-40920Y67193D01*
X-41230Y67232D01*
X-41592Y67155D01*
X-41850Y66887D01*
X-41953Y66618D01*
Y66273D01*
G01Y66618D02*
X-42108Y66848D01*
X-42367Y67040D01*
X-42677Y67117D01*
X-42987Y67040D01*
X-43245Y66848D01*
X-43400Y66503D01*
X-43348Y66158D01*
X-43142Y65813D01*
G01X-42883Y68722D02*
X-43193Y68952D01*
X-43348Y69220D01*
X-43400Y69527D01*
X-43297Y69910D01*
X-43038Y70178D01*
X-42728Y70255D01*
X-42418Y70217D01*
X-42160Y70063D01*
X-41643Y69297D01*
X-41282Y68952D01*
X-40765Y68722D01*
X-40300Y68645D01*
Y70255D01*
G01X-36200Y62283D02*
X-39300D01*
Y63242D01*
X-39145Y63548D01*
X-38938Y63740D01*
X-38525Y63817D01*
X-38112Y63740D01*
X-37853Y63510D01*
X-37698Y63242D01*
Y62283D01*
G01Y63242D02*
X-36200Y63817D01*
G01X-38783Y65422D02*
X-39093Y65652D01*
X-39248Y65920D01*
X-39300Y66227D01*
X-39197Y66610D01*
X-38938Y66878D01*
X-38628Y66955D01*
X-38318Y66917D01*
X-38060Y66763D01*
X-37543Y65997D01*
X-37182Y65652D01*
X-36665Y65422D01*
X-36200Y65345D01*
Y66955D01*
G01Y69250D02*
X-36252Y69518D01*
X-36407Y69825D01*
X-36665Y70017D01*
X-37027Y70093D01*
X-37388Y70017D01*
X-37698Y69787D01*
X-37853Y69442D01*
Y69058D01*
X-37957Y68828D01*
X-38215Y68637D01*
X-38577Y68560D01*
X-38938Y68675D01*
X-39197Y68943D01*
X-39300Y69250D01*
X-39197Y69557D01*
X-38938Y69825D01*
X-38577Y69940D01*
X-38215Y69863D01*
X-37957Y69672D01*
X-37853Y69442D01*
Y69058D01*
X-37698Y68713D01*
X-37388Y68483D01*
X-37027Y68407D01*
X-36665Y68483D01*
X-36407Y68675D01*
X-36252Y68982D01*
X-36200Y69250D01*
G01X-24293Y-93800D02*
Y-90700D01*
X-23527D01*
X-23220Y-90855D01*
X-22990Y-91062D01*
X-22798Y-91372D01*
X-22645Y-91733D01*
X-22607Y-92250D01*
X-22645Y-92767D01*
X-22798Y-93128D01*
X-22990Y-93438D01*
X-23220Y-93645D01*
X-23527Y-93800D01*
X-24293D01*
G01X-21308D02*
X-20350Y-90700D01*
X-19392Y-93800D01*
G01X-19737Y-92715D02*
X-20963D01*
G01X-16407Y-90958D02*
X-16637Y-90803D01*
X-16905Y-90700D01*
X-17212D01*
X-17557Y-90855D01*
X-17825Y-91113D01*
X-18017Y-91423D01*
X-18170Y-91940D01*
X-18208Y-92405D01*
X-18132Y-92870D01*
X-18017Y-93180D01*
X-17787Y-93490D01*
X-17518Y-93697D01*
X-17250Y-93800D01*
X-16982D01*
X-16713Y-93697D01*
X-16483Y-93542D01*
X-16292Y-93335D01*
G01X-29600Y-86300D02*
X-29063Y-89400D01*
X-28450Y-86300D01*
X-27837Y-89400D01*
X-27300Y-86300D01*
G01X-25350Y-89400D02*
Y-86300D01*
X-25810Y-86920D01*
G01Y-89400D02*
X-24890D01*
G01X-21000Y-63183D02*
X-17900D01*
Y-64142D01*
X-18055Y-64448D01*
X-18262Y-64640D01*
X-18675Y-64717D01*
X-19088Y-64640D01*
X-19347Y-64410D01*
X-19502Y-64142D01*
Y-63183D01*
G01Y-64142D02*
X-21000Y-64717D01*
G01X-20587Y-66245D02*
X-20845Y-66552D01*
X-21000Y-66897D01*
Y-67203D01*
X-20845Y-67510D01*
X-20587Y-67740D01*
X-20225Y-67855D01*
X-19863Y-67778D01*
X-19553Y-67587D01*
X-19347Y-67242D01*
X-19243Y-66782D01*
X-19037Y-66513D01*
X-18675Y-66398D01*
X-18313Y-66475D01*
X-18055Y-66667D01*
X-17900Y-66935D01*
Y-67203D01*
X-18003Y-67472D01*
X-18262Y-67702D01*
G01X-17900Y-70150D02*
X-21000D01*
G01X-17900Y-69268D02*
Y-71032D01*
G01X-18693Y36565D02*
X-18463Y36307D01*
X-18195Y36152D01*
X-17850Y36100D01*
X-17505Y36203D01*
X-17237Y36410D01*
X-17045Y36772D01*
X-17007Y37185D01*
X-17083Y37598D01*
X-17275Y37857D01*
X-17543Y38063D01*
X-17812Y38115D01*
X-18080Y38063D01*
X-18425Y37857D01*
X-18310Y39200D01*
X-17275D01*
G01X-24500Y37350D02*
X-21400D01*
G01X-24500Y36468D02*
Y38232D01*
G01X-21400Y39683D02*
X-24500D01*
Y40603D01*
X-24345Y40910D01*
X-23983Y41140D01*
X-23570Y41217D01*
X-23157Y41140D01*
X-22847Y40948D01*
X-22692Y40603D01*
Y39683D01*
G01X-23983Y42822D02*
X-24293Y43052D01*
X-24448Y43320D01*
X-24500Y43627D01*
X-24397Y44010D01*
X-24138Y44278D01*
X-23828Y44355D01*
X-23518Y44317D01*
X-23260Y44163D01*
X-22743Y43397D01*
X-22382Y43052D01*
X-21865Y42822D01*
X-21400Y42745D01*
Y44355D01*
G01X-24500Y46650D02*
X-24397Y46343D01*
X-24138Y46113D01*
X-23828Y45960D01*
X-23415Y45845D01*
X-22950Y45807D01*
X-22485Y45845D01*
X-22072Y45960D01*
X-21762Y46113D01*
X-21503Y46343D01*
X-21400Y46650D01*
X-21503Y46957D01*
X-21762Y47187D01*
X-22072Y47340D01*
X-22485Y47455D01*
X-22950Y47493D01*
X-23415Y47455D01*
X-23828Y47340D01*
X-24138Y47187D01*
X-24397Y46957D01*
X-24500Y46650D01*
G01X-28400Y37350D02*
X-25300D01*
G01X-28400Y36468D02*
Y38232D01*
G01X-25300Y39683D02*
X-28400D01*
Y40603D01*
X-28245Y40910D01*
X-27883Y41140D01*
X-27470Y41217D01*
X-27057Y41140D01*
X-26747Y40948D01*
X-26592Y40603D01*
Y39683D01*
G01X-27883Y42822D02*
X-28193Y43052D01*
X-28348Y43320D01*
X-28400Y43627D01*
X-28297Y44010D01*
X-28038Y44278D01*
X-27728Y44355D01*
X-27418Y44317D01*
X-27160Y44163D01*
X-26643Y43397D01*
X-26282Y43052D01*
X-25765Y42822D01*
X-25300Y42745D01*
Y44355D01*
G01X-27883Y45922D02*
X-28193Y46152D01*
X-28348Y46420D01*
X-28400Y46727D01*
X-28297Y47110D01*
X-28038Y47378D01*
X-27728Y47455D01*
X-27418Y47417D01*
X-27160Y47263D01*
X-26643Y46497D01*
X-26282Y46152D01*
X-25765Y45922D01*
X-25300Y45845D01*
Y47455D01*
G01X-29650Y64400D02*
Y67500D01*
X-30110Y66880D01*
G01Y64400D02*
X-29190D01*
G01X-24400Y63550D02*
X-21300D01*
G01X-24400Y62668D02*
Y64432D01*
G01X-21300Y65883D02*
X-24400D01*
Y66803D01*
X-24245Y67110D01*
X-23883Y67340D01*
X-23470Y67417D01*
X-23057Y67340D01*
X-22747Y67148D01*
X-22592Y66803D01*
Y65883D01*
G01X-21300Y69750D02*
X-24400D01*
X-23780Y69290D01*
G01X-21300D02*
Y70210D01*
G01X-21662Y72198D02*
X-21403Y72467D01*
X-21300Y72773D01*
X-21403Y73080D01*
X-21713Y73348D01*
X-22178Y73540D01*
X-22643Y73617D01*
X-23212D01*
X-23677Y73540D01*
X-24090Y73348D01*
X-24297Y73118D01*
X-24400Y72850D01*
X-24297Y72543D01*
X-24090Y72313D01*
X-23780Y72160D01*
X-23367Y72083D01*
X-23005Y72160D01*
X-22643Y72352D01*
X-22437Y72582D01*
X-22385Y72850D01*
X-22488Y73157D01*
X-22747Y73387D01*
X-23212Y73617D01*
G01X-28500Y63350D02*
X-25400D01*
G01X-28500Y62468D02*
Y64232D01*
G01X-25400Y65683D02*
X-28500D01*
Y66603D01*
X-28345Y66910D01*
X-27983Y67140D01*
X-27570Y67217D01*
X-27157Y67140D01*
X-26847Y66948D01*
X-26692Y66603D01*
Y65683D01*
G01X-27983Y68822D02*
X-28293Y69052D01*
X-28448Y69320D01*
X-28500Y69627D01*
X-28397Y70010D01*
X-28138Y70278D01*
X-27828Y70355D01*
X-27518Y70317D01*
X-27260Y70163D01*
X-26743Y69397D01*
X-26382Y69052D01*
X-25865Y68822D01*
X-25400Y68745D01*
Y70355D01*
G01Y72650D02*
X-28500D01*
X-27880Y72190D01*
G01X-25400D02*
Y73110D01*
G01X-19600Y69500D02*
X-19063Y66400D01*
X-18450Y69500D01*
X-17837Y66400D01*
X-17300Y69500D01*
G01X-16193Y67020D02*
X-15963Y66658D01*
X-15657Y66452D01*
X-15312Y66400D01*
X-15005Y66452D01*
X-14698Y66710D01*
X-14507Y67020D01*
X-14468Y67330D01*
X-14545Y67692D01*
X-14813Y67950D01*
X-15082Y68053D01*
X-15427D01*
G01X-15082D02*
X-14852Y68208D01*
X-14660Y68467D01*
X-14583Y68777D01*
X-14660Y69087D01*
X-14852Y69345D01*
X-15197Y69500D01*
X-15542Y69448D01*
X-15887Y69242D01*
G01X-19600Y73300D02*
X-19063Y70200D01*
X-18450Y73300D01*
X-17837Y70200D01*
X-17300Y73300D01*
G01X-16078Y72783D02*
X-15848Y73093D01*
X-15580Y73248D01*
X-15273Y73300D01*
X-14890Y73197D01*
X-14622Y72938D01*
X-14545Y72628D01*
X-14583Y72318D01*
X-14737Y72060D01*
X-15503Y71543D01*
X-15848Y71182D01*
X-16078Y70665D01*
X-16155Y70200D01*
X-14545D01*
G01X-35000Y62622D02*
Y64078D01*
X-31900Y62622D01*
Y64078D01*
G01Y66450D02*
X-35000D01*
X-34380Y65990D01*
G01X-31900D02*
Y66910D01*
G01X-19042Y77093D02*
X-19197Y76863D01*
X-19300Y76595D01*
Y76288D01*
X-19145Y75943D01*
X-18887Y75675D01*
X-18577Y75483D01*
X-18060Y75330D01*
X-17595Y75292D01*
X-17130Y75368D01*
X-16820Y75483D01*
X-16510Y75713D01*
X-16303Y75982D01*
X-16200Y76250D01*
Y76518D01*
X-16303Y76787D01*
X-16458Y77017D01*
X-16665Y77208D01*
G01X-16200Y79350D02*
X-19300D01*
X-18680Y78890D01*
G01X-16200D02*
Y79810D01*
G01X-19242Y82793D02*
X-19397Y82563D01*
X-19500Y82295D01*
Y81988D01*
X-19345Y81643D01*
X-19087Y81375D01*
X-18777Y81183D01*
X-18260Y81030D01*
X-17795Y80992D01*
X-17330Y81068D01*
X-17020Y81183D01*
X-16710Y81413D01*
X-16503Y81682D01*
X-16400Y81950D01*
Y82218D01*
X-16503Y82487D01*
X-16658Y82717D01*
X-16865Y82908D01*
G01X-17020Y84207D02*
X-16658Y84437D01*
X-16452Y84743D01*
X-16400Y85088D01*
X-16452Y85395D01*
X-16710Y85702D01*
X-17020Y85893D01*
X-17330Y85932D01*
X-17692Y85855D01*
X-17950Y85587D01*
X-18053Y85318D01*
Y84973D01*
G01Y85318D02*
X-18208Y85548D01*
X-18467Y85740D01*
X-18777Y85817D01*
X-19087Y85740D01*
X-19345Y85548D01*
X-19500Y85203D01*
X-19448Y84858D01*
X-19242Y84513D01*
G01X-19717Y95420D02*
X-19525Y95110D01*
X-19295Y94903D01*
X-19027Y94800D01*
X-18720Y94903D01*
X-18490Y95110D01*
X-18260Y95420D01*
X-18183Y95833D01*
Y97900D01*
G01X-16578Y97383D02*
X-16348Y97693D01*
X-16080Y97848D01*
X-15773Y97900D01*
X-15390Y97797D01*
X-15122Y97538D01*
X-15045Y97228D01*
X-15083Y96918D01*
X-15237Y96660D01*
X-16003Y96143D01*
X-16348Y95782D01*
X-16578Y95265D01*
X-16655Y94800D01*
X-15045D01*
G01X-19293Y90800D02*
Y93900D01*
X-18527D01*
X-18220Y93745D01*
X-17990Y93538D01*
X-17798Y93228D01*
X-17645Y92867D01*
X-17607Y92350D01*
X-17645Y91833D01*
X-17798Y91472D01*
X-17990Y91162D01*
X-18220Y90955D01*
X-18527Y90800D01*
X-19293D01*
G01X-15350D02*
Y93900D01*
X-15810Y93280D01*
G01Y90800D02*
X-14890D01*
G01X-14632Y-48100D02*
Y-45000D01*
X-12868Y-48100D01*
Y-45000D01*
G01X-15493Y-56100D02*
Y-53000D01*
X-14727D01*
X-14420Y-53155D01*
X-14190Y-53362D01*
X-13998Y-53672D01*
X-13845Y-54033D01*
X-13807Y-54550D01*
X-13845Y-55067D01*
X-13998Y-55428D01*
X-14190Y-55738D01*
X-14420Y-55945D01*
X-14727Y-56100D01*
X-15493D01*
G01X-11450Y-40700D02*
Y-39305D01*
X-12217Y-37600D01*
G01X-10683D02*
X-11450Y-39305D01*
G01X-9193Y-40080D02*
X-8963Y-40442D01*
X-8657Y-40648D01*
X-8312Y-40700D01*
X-8005Y-40648D01*
X-7698Y-40390D01*
X-7507Y-40080D01*
X-7468Y-39770D01*
X-7545Y-39408D01*
X-7813Y-39150D01*
X-8082Y-39047D01*
X-8427D01*
G01X-8082D02*
X-7852Y-38892D01*
X-7660Y-38633D01*
X-7583Y-38323D01*
X-7660Y-38013D01*
X-7852Y-37755D01*
X-8197Y-37600D01*
X-8542Y-37652D01*
X-8887Y-37858D01*
G01X-4507Y-35658D02*
X-4737Y-35503D01*
X-5005Y-35400D01*
X-5312D01*
X-5657Y-35555D01*
X-5925Y-35813D01*
X-6117Y-36123D01*
X-6270Y-36640D01*
X-6308Y-37105D01*
X-6232Y-37570D01*
X-6117Y-37880D01*
X-5887Y-38190D01*
X-5618Y-38397D01*
X-5350Y-38500D01*
X-5082D01*
X-4813Y-38397D01*
X-4583Y-38242D01*
X-4392Y-38035D01*
G01X-2978Y-35917D02*
X-2748Y-35607D01*
X-2480Y-35452D01*
X-2173Y-35400D01*
X-1790Y-35503D01*
X-1522Y-35762D01*
X-1445Y-36072D01*
X-1483Y-36382D01*
X-1637Y-36640D01*
X-2403Y-37157D01*
X-2748Y-37518D01*
X-2978Y-38035D01*
X-3055Y-38500D01*
X-1445D01*
G01X1310D02*
Y-35400D01*
X-108Y-37622D01*
X1808D01*
G01X-2601Y-20D02*
X-2831Y-74D01*
X-3128Y11D01*
X-3424Y268D01*
X-3675Y606D01*
X-3787Y1011D01*
X-3808Y1404D01*
X-3691Y1690D01*
X-3507Y1838D01*
X-3278Y1892D01*
X-2981Y1807D01*
X-2684Y1549D01*
X-2469Y1195D01*
X-2322Y806D01*
X-2301Y414D01*
X-2417Y127D01*
X-2601Y-20D01*
G01X-401Y1053D02*
X-1760Y3840D01*
G01X-1103Y2493D02*
X-1044Y2809D01*
X-940Y3033D01*
X-687Y3213D01*
X-458Y3268D01*
X-126Y3200D01*
X114Y2971D01*
X770Y1625D01*
G01X5171Y3771D02*
X3812Y6558D01*
G01X4469Y5211D02*
X4528Y5527D01*
X4632Y5751D01*
X4885Y5931D01*
X5114Y5986D01*
X5446Y5918D01*
X5686Y5689D01*
X6342Y4343D01*
G01X7414Y6418D02*
X8517Y6956D01*
X8255Y7230D01*
X7992Y7332D01*
X7706Y7307D01*
X7487Y7143D01*
X7348Y6903D01*
X7369Y6511D01*
X7436Y6198D01*
X7572Y5920D01*
X7777Y5675D01*
X8085Y5480D01*
X8382Y5395D01*
X8646Y5467D01*
X8842Y5677D01*
X8947Y6073D01*
G01X11013Y5586D02*
X11265Y5594D01*
X11495Y5822D01*
X11577Y6091D01*
X11601Y6391D01*
X11446Y7235D01*
X11146Y8985D01*
G01X10044Y8448D02*
X11446Y7235D01*
G01X-9790Y36100D02*
Y39200D01*
X-11208Y36978D01*
X-9292D01*
G01X13307Y-47400D02*
Y-49622D01*
X13460Y-50087D01*
X13767Y-50397D01*
X14150Y-50500D01*
X14533Y-50397D01*
X14840Y-50087D01*
X14993Y-49622D01*
Y-47400D01*
G01X16522Y-47917D02*
X16752Y-47607D01*
X17020Y-47452D01*
X17327Y-47400D01*
X17710Y-47503D01*
X17978Y-47762D01*
X18055Y-48072D01*
X18017Y-48382D01*
X17863Y-48640D01*
X17097Y-49157D01*
X16752Y-49518D01*
X16522Y-50035D01*
X16445Y-50500D01*
X18055D01*
G01X13722Y-39417D02*
X13952Y-39107D01*
X14220Y-38952D01*
X14527Y-38900D01*
X14910Y-39003D01*
X15178Y-39262D01*
X15255Y-39572D01*
X15217Y-39882D01*
X15063Y-40140D01*
X14297Y-40657D01*
X13952Y-41018D01*
X13722Y-41535D01*
X13645Y-42000D01*
X15255D01*
G01X10150Y-38900D02*
X9843Y-39003D01*
X9613Y-39262D01*
X9460Y-39572D01*
X9345Y-39985D01*
X9307Y-40450D01*
X9345Y-40915D01*
X9460Y-41328D01*
X9613Y-41638D01*
X9843Y-41897D01*
X10150Y-42000D01*
X10457Y-41897D01*
X10687Y-41638D01*
X10840Y-41328D01*
X10955Y-40915D01*
X10993Y-40450D01*
X10955Y-39985D01*
X10840Y-39572D01*
X10687Y-39262D01*
X10457Y-39003D01*
X10150Y-38900D01*
G01X10893Y-35058D02*
X10663Y-34903D01*
X10395Y-34800D01*
X10088D01*
X9743Y-34955D01*
X9475Y-35213D01*
X9283Y-35523D01*
X9130Y-36040D01*
X9092Y-36505D01*
X9168Y-36970D01*
X9283Y-37280D01*
X9513Y-37590D01*
X9782Y-37797D01*
X10050Y-37900D01*
X10318D01*
X10587Y-37797D01*
X10817Y-37642D01*
X11008Y-37435D01*
G01X12422Y-35317D02*
X12652Y-35007D01*
X12920Y-34852D01*
X13227Y-34800D01*
X13610Y-34903D01*
X13878Y-35162D01*
X13955Y-35472D01*
X13917Y-35782D01*
X13763Y-36040D01*
X12997Y-36557D01*
X12652Y-36918D01*
X12422Y-37435D01*
X12345Y-37900D01*
X13955D01*
G01X15522Y-35317D02*
X15752Y-35007D01*
X16020Y-34852D01*
X16327Y-34800D01*
X16710Y-34903D01*
X16978Y-35162D01*
X17055Y-35472D01*
X17017Y-35782D01*
X16863Y-36040D01*
X16097Y-36557D01*
X15752Y-36918D01*
X15522Y-37435D01*
X15445Y-37900D01*
X17055D01*
G01X2493Y43142D02*
X2263Y43297D01*
X1995Y43400D01*
X1688D01*
X1343Y43245D01*
X1075Y42987D01*
X883Y42677D01*
X730Y42160D01*
X692Y41695D01*
X768Y41230D01*
X883Y40920D01*
X1113Y40610D01*
X1382Y40403D01*
X1650Y40300D01*
X1918D01*
X2187Y40403D01*
X2417Y40558D01*
X2608Y40765D01*
G01X4022Y42883D02*
X4252Y43193D01*
X4520Y43348D01*
X4827Y43400D01*
X5210Y43297D01*
X5478Y43038D01*
X5555Y42728D01*
X5517Y42418D01*
X5363Y42160D01*
X4597Y41643D01*
X4252Y41282D01*
X4022Y40765D01*
X3945Y40300D01*
X5555D01*
G01X7007Y40920D02*
X7237Y40558D01*
X7543Y40352D01*
X7888Y40300D01*
X8195Y40352D01*
X8502Y40610D01*
X8693Y40920D01*
X8732Y41230D01*
X8655Y41592D01*
X8387Y41850D01*
X8118Y41953D01*
X7773D01*
G01X8118D02*
X8348Y42108D01*
X8540Y42367D01*
X8617Y42677D01*
X8540Y42987D01*
X8348Y43245D01*
X8003Y43400D01*
X7658Y43348D01*
X7313Y43142D01*
G01X18893Y-58158D02*
X18663Y-58003D01*
X18395Y-57900D01*
X18088D01*
X17743Y-58055D01*
X17475Y-58313D01*
X17283Y-58623D01*
X17130Y-59140D01*
X17092Y-59605D01*
X17168Y-60070D01*
X17283Y-60380D01*
X17513Y-60690D01*
X17782Y-60897D01*
X18050Y-61000D01*
X18318D01*
X18587Y-60897D01*
X18817Y-60742D01*
X19008Y-60535D01*
G01X20307D02*
X20537Y-60793D01*
X20805Y-60948D01*
X21150Y-61000D01*
X21495Y-60897D01*
X21763Y-60690D01*
X21955Y-60328D01*
X21993Y-59915D01*
X21917Y-59502D01*
X21725Y-59243D01*
X21457Y-59037D01*
X21188Y-58985D01*
X20920Y-59037D01*
X20575Y-59243D01*
X20690Y-57900D01*
X21725D01*
G01X32542Y-65893D02*
X32697Y-65663D01*
X32800Y-65395D01*
Y-65088D01*
X32645Y-64743D01*
X32387Y-64475D01*
X32077Y-64283D01*
X31560Y-64130D01*
X31095Y-64092D01*
X30630Y-64168D01*
X30320Y-64283D01*
X30010Y-64513D01*
X29803Y-64782D01*
X29700Y-65050D01*
Y-65318D01*
X29803Y-65587D01*
X29958Y-65817D01*
X30165Y-66008D01*
G01X30992Y-67422D02*
X31353Y-67690D01*
X31560Y-67920D01*
X31663Y-68227D01*
X31560Y-68495D01*
X31353Y-68687D01*
X31043Y-68840D01*
X30682Y-68878D01*
X30372Y-68840D01*
X30062Y-68687D01*
X29803Y-68457D01*
X29700Y-68188D01*
X29803Y-67882D01*
X30113Y-67613D01*
X30578Y-67460D01*
X31095Y-67422D01*
X31767Y-67498D01*
X32128Y-67613D01*
X32490Y-67805D01*
X32748Y-68073D01*
X32800Y-68342D01*
X32697Y-68610D01*
X32438Y-68802D01*
G01X27850Y-34400D02*
Y-33005D01*
X27083Y-31300D01*
G01X28617D02*
X27850Y-33005D01*
G01X30222Y-31817D02*
X30452Y-31507D01*
X30720Y-31352D01*
X31027Y-31300D01*
X31410Y-31403D01*
X31678Y-31662D01*
X31755Y-31972D01*
X31717Y-32282D01*
X31563Y-32540D01*
X30797Y-33057D01*
X30452Y-33418D01*
X30222Y-33935D01*
X30145Y-34400D01*
X31755D01*
G01X24050Y40000D02*
X23743Y40052D01*
X23475Y40258D01*
X23245Y40568D01*
X23092Y40930D01*
X23015Y41343D01*
Y41757D01*
X23092Y42170D01*
X23245Y42532D01*
X23475Y42842D01*
X23743Y43048D01*
X24050Y43100D01*
X24357Y43048D01*
X24625Y42842D01*
X24855Y42532D01*
X25008Y42170D01*
X25085Y41757D01*
Y41343D01*
X25008Y40930D01*
X24855Y40568D01*
X24625Y40258D01*
X24357Y40052D01*
X24050Y40000D01*
G01X24390Y52800D02*
X25310D01*
G01X24850D02*
Y49700D01*
G01X24390D02*
X25310D01*
G01X28858Y56193D02*
X28703Y55963D01*
X28600Y55695D01*
Y55388D01*
X28755Y55043D01*
X29013Y54775D01*
X29323Y54583D01*
X29840Y54430D01*
X30305Y54392D01*
X30770Y54468D01*
X31080Y54583D01*
X31390Y54813D01*
X31597Y55082D01*
X31700Y55350D01*
Y55618D01*
X31597Y55887D01*
X31442Y56117D01*
X31235Y56308D01*
G01X31700Y58450D02*
X28600D01*
X29220Y57990D01*
G01X31700D02*
Y58910D01*
G01Y62010D02*
X28600D01*
X30822Y60592D01*
Y62508D01*
G01X22807Y59900D02*
Y63000D01*
G01X24263D02*
X22807Y61088D01*
G01X24493Y59900D02*
X23458Y61967D01*
G01X27958Y72093D02*
X27803Y71863D01*
X27700Y71595D01*
Y71288D01*
X27855Y70943D01*
X28113Y70675D01*
X28423Y70483D01*
X28940Y70330D01*
X29405Y70292D01*
X29870Y70368D01*
X30180Y70483D01*
X30490Y70713D01*
X30697Y70982D01*
X30800Y71250D01*
Y71518D01*
X30697Y71787D01*
X30542Y72017D01*
X30335Y72208D01*
G01X30800Y74273D02*
X30128Y74350D01*
X29560Y74465D01*
X29043Y74618D01*
X28475Y74810D01*
X27700Y75117D01*
Y73583D01*
G01X23145Y75213D02*
X23452Y74955D01*
X23797Y74800D01*
X24103D01*
X24410Y74955D01*
X24640Y75213D01*
X24755Y75575D01*
X24678Y75937D01*
X24487Y76247D01*
X24142Y76453D01*
X23682Y76557D01*
X23413Y76763D01*
X23298Y77125D01*
X23375Y77487D01*
X23567Y77745D01*
X23835Y77900D01*
X24103D01*
X24372Y77797D01*
X24602Y77538D01*
G01X17817Y84400D02*
X16283D01*
Y87500D01*
X17817D01*
G01X17203Y86002D02*
X16283D01*
G01X44000Y-69450D02*
X47100D01*
G01X44000Y-70332D02*
Y-68568D01*
G01X47100Y-67117D02*
X44000D01*
Y-66197D01*
X44155Y-65890D01*
X44517Y-65660D01*
X44930Y-65583D01*
X45343Y-65660D01*
X45653Y-65852D01*
X45808Y-66197D01*
Y-67117D01*
G01X47100Y-62790D02*
X44000D01*
X46222Y-64208D01*
Y-62292D01*
G01X40200Y-71350D02*
X43300D01*
G01X40200Y-72232D02*
Y-70468D01*
G01X43300Y-69017D02*
X40200D01*
Y-68097D01*
X40355Y-67790D01*
X40717Y-67560D01*
X41130Y-67483D01*
X41543Y-67560D01*
X41853Y-67752D01*
X42008Y-68097D01*
Y-69017D01*
G01X42680Y-65993D02*
X43042Y-65763D01*
X43248Y-65457D01*
X43300Y-65112D01*
X43248Y-64805D01*
X42990Y-64498D01*
X42680Y-64307D01*
X42370Y-64268D01*
X42008Y-64345D01*
X41750Y-64613D01*
X41647Y-64882D01*
Y-65227D01*
G01Y-64882D02*
X41492Y-64652D01*
X41233Y-64460D01*
X40923Y-64383D01*
X40613Y-64460D01*
X40355Y-64652D01*
X40200Y-64997D01*
X40252Y-65342D01*
X40458Y-65687D01*
G01X38458Y-59107D02*
X38303Y-59337D01*
X38200Y-59605D01*
Y-59912D01*
X38355Y-60257D01*
X38613Y-60525D01*
X38923Y-60717D01*
X39440Y-60870D01*
X39905Y-60908D01*
X40370Y-60832D01*
X40680Y-60717D01*
X40990Y-60487D01*
X41197Y-60218D01*
X41300Y-59950D01*
Y-59682D01*
X41197Y-59413D01*
X41042Y-59183D01*
X40835Y-58992D01*
G01X41300Y-56390D02*
X38200D01*
X40422Y-57808D01*
Y-55892D01*
G01X47593Y-54358D02*
X47363Y-54203D01*
X47095Y-54100D01*
X46788D01*
X46443Y-54255D01*
X46175Y-54513D01*
X45983Y-54823D01*
X45830Y-55340D01*
X45792Y-55805D01*
X45868Y-56270D01*
X45983Y-56580D01*
X46213Y-56890D01*
X46482Y-57097D01*
X46750Y-57200D01*
X47018D01*
X47287Y-57097D01*
X47517Y-56942D01*
X47708Y-56735D01*
G01X47483Y-50100D02*
Y-47000D01*
X48442D01*
X48748Y-47155D01*
X48940Y-47362D01*
X49017Y-47775D01*
X48940Y-48188D01*
X48710Y-48447D01*
X48442Y-48602D01*
X47483D01*
G01X48442D02*
X49017Y-50100D01*
G01X51350D02*
Y-47000D01*
X50890Y-47620D01*
G01Y-50100D02*
X51810D01*
G01X54450Y-47000D02*
X54143Y-47103D01*
X53913Y-47362D01*
X53760Y-47672D01*
X53645Y-48085D01*
X53607Y-48550D01*
X53645Y-49015D01*
X53760Y-49428D01*
X53913Y-49738D01*
X54143Y-49997D01*
X54450Y-50100D01*
X54757Y-49997D01*
X54987Y-49738D01*
X55140Y-49428D01*
X55255Y-49015D01*
X55293Y-48550D01*
X55255Y-48085D01*
X55140Y-47672D01*
X54987Y-47362D01*
X54757Y-47103D01*
X54450Y-47000D01*
G01X39583Y-42200D02*
Y-39100D01*
X40542D01*
X40848Y-39255D01*
X41040Y-39462D01*
X41117Y-39875D01*
X41040Y-40288D01*
X40810Y-40547D01*
X40542Y-40702D01*
X39583D01*
G01X40542D02*
X41117Y-42200D01*
G01X43450D02*
Y-39100D01*
X42990Y-39720D01*
G01Y-42200D02*
X43910D01*
G01X46550D02*
Y-39100D01*
X46090Y-39720D01*
G01Y-42200D02*
X47010D01*
G01X40558Y3893D02*
X40403Y3663D01*
X40300Y3395D01*
Y3088D01*
X40455Y2743D01*
X40713Y2475D01*
X41023Y2283D01*
X41540Y2130D01*
X42005Y2092D01*
X42470Y2168D01*
X42780Y2283D01*
X43090Y2513D01*
X43297Y2782D01*
X43400Y3050D01*
Y3318D01*
X43297Y3587D01*
X43142Y3817D01*
X42935Y4008D01*
G01X40817Y5422D02*
X40507Y5652D01*
X40352Y5920D01*
X40300Y6227D01*
X40403Y6610D01*
X40662Y6878D01*
X40972Y6955D01*
X41282Y6917D01*
X41540Y6763D01*
X42057Y5997D01*
X42418Y5652D01*
X42935Y5422D01*
X43400Y5345D01*
Y6955D01*
G01Y9173D02*
X42728Y9250D01*
X42160Y9365D01*
X41643Y9518D01*
X41075Y9710D01*
X40300Y10017D01*
Y8483D01*
G01X35358Y793D02*
X35203Y563D01*
X35100Y295D01*
Y-12D01*
X35255Y-357D01*
X35513Y-625D01*
X35823Y-817D01*
X36340Y-970D01*
X36805Y-1008D01*
X37270Y-932D01*
X37580Y-817D01*
X37890Y-587D01*
X38097Y-318D01*
X38200Y-50D01*
Y218D01*
X38097Y487D01*
X37942Y717D01*
X37735Y908D01*
G01X35617Y2322D02*
X35307Y2552D01*
X35152Y2820D01*
X35100Y3127D01*
X35203Y3510D01*
X35462Y3778D01*
X35772Y3855D01*
X36082Y3817D01*
X36340Y3663D01*
X36857Y2897D01*
X37218Y2552D01*
X37735Y2322D01*
X38200Y2245D01*
Y3855D01*
G01X36908Y5422D02*
X36547Y5690D01*
X36340Y5920D01*
X36237Y6227D01*
X36340Y6495D01*
X36547Y6687D01*
X36857Y6840D01*
X37218Y6878D01*
X37528Y6840D01*
X37838Y6687D01*
X38097Y6457D01*
X38200Y6188D01*
X38097Y5882D01*
X37787Y5613D01*
X37322Y5460D01*
X36805Y5422D01*
X36133Y5498D01*
X35772Y5613D01*
X35410Y5805D01*
X35152Y6073D01*
X35100Y6342D01*
X35203Y6610D01*
X35462Y6802D01*
G01X48200Y12783D02*
X45100D01*
Y13742D01*
X45255Y14048D01*
X45462Y14240D01*
X45875Y14317D01*
X46288Y14240D01*
X46547Y14010D01*
X46702Y13742D01*
Y12783D01*
G01Y13742D02*
X48200Y14317D01*
G01X47838Y15998D02*
X48097Y16267D01*
X48200Y16573D01*
X48097Y16880D01*
X47787Y17148D01*
X47322Y17340D01*
X46857Y17417D01*
X46288D01*
X45823Y17340D01*
X45410Y17148D01*
X45203Y16918D01*
X45100Y16650D01*
X45203Y16343D01*
X45410Y16113D01*
X45720Y15960D01*
X46133Y15883D01*
X46495Y15960D01*
X46857Y16152D01*
X47063Y16382D01*
X47115Y16650D01*
X47012Y16957D01*
X46753Y17187D01*
X46288Y17417D01*
G01X35958Y12693D02*
X35803Y12463D01*
X35700Y12195D01*
Y11888D01*
X35855Y11543D01*
X36113Y11275D01*
X36423Y11083D01*
X36940Y10930D01*
X37405Y10892D01*
X37870Y10968D01*
X38180Y11083D01*
X38490Y11313D01*
X38697Y11582D01*
X38800Y11850D01*
Y12118D01*
X38697Y12387D01*
X38542Y12617D01*
X38335Y12808D01*
G01X36217Y14222D02*
X35907Y14452D01*
X35752Y14720D01*
X35700Y15027D01*
X35803Y15410D01*
X36062Y15678D01*
X36372Y15755D01*
X36682Y15717D01*
X36940Y15563D01*
X37457Y14797D01*
X37818Y14452D01*
X38335Y14222D01*
X38800Y14145D01*
Y15755D01*
G01X38335Y17207D02*
X38593Y17437D01*
X38748Y17705D01*
X38800Y18050D01*
X38697Y18395D01*
X38490Y18663D01*
X38128Y18855D01*
X37715Y18893D01*
X37302Y18817D01*
X37043Y18625D01*
X36837Y18357D01*
X36785Y18088D01*
X36837Y17820D01*
X37043Y17475D01*
X35700Y17590D01*
Y18625D01*
G01X45750Y20600D02*
X45443Y20652D01*
X45175Y20858D01*
X44945Y21168D01*
X44792Y21530D01*
X44715Y21943D01*
Y22357D01*
X44792Y22770D01*
X44945Y23132D01*
X45175Y23442D01*
X45443Y23648D01*
X45750Y23700D01*
X46057Y23648D01*
X46325Y23442D01*
X46555Y23132D01*
X46708Y22770D01*
X46785Y22357D01*
Y21943D01*
X46708Y21530D01*
X46555Y21168D01*
X46325Y20858D01*
X46057Y20652D01*
X45750Y20600D01*
G01X46057Y21427D02*
X46517Y20600D01*
G01X48850D02*
Y23700D01*
X48390Y23080D01*
G01Y20600D02*
X49310D01*
G01X38283Y45500D02*
Y48600D01*
X39242D01*
X39548Y48445D01*
X39740Y48238D01*
X39817Y47825D01*
X39740Y47412D01*
X39510Y47153D01*
X39242Y46998D01*
X38283D01*
G01X39242D02*
X39817Y45500D01*
G01X42150D02*
X41843Y45552D01*
X41575Y45758D01*
X41345Y46068D01*
X41192Y46430D01*
X41115Y46843D01*
Y47257D01*
X41192Y47670D01*
X41345Y48032D01*
X41575Y48342D01*
X41843Y48548D01*
X42150Y48600D01*
X42457Y48548D01*
X42725Y48342D01*
X42955Y48032D01*
X43108Y47670D01*
X43185Y47257D01*
Y46843D01*
X43108Y46430D01*
X42955Y46068D01*
X42725Y45758D01*
X42457Y45552D01*
X42150Y45500D01*
G01X42457Y46327D02*
X42917Y45500D01*
G01X49200Y45283D02*
X46100D01*
Y46242D01*
X46255Y46548D01*
X46462Y46740D01*
X46875Y46817D01*
X47288Y46740D01*
X47547Y46510D01*
X47702Y46242D01*
Y45283D01*
G01Y46242D02*
X49200Y46817D01*
G01Y49073D02*
X48528Y49150D01*
X47960Y49265D01*
X47443Y49418D01*
X46875Y49610D01*
X46100Y49917D01*
Y48383D01*
G01X46583Y40700D02*
Y43800D01*
X47542D01*
X47848Y43645D01*
X48040Y43438D01*
X48117Y43025D01*
X48040Y42612D01*
X47810Y42353D01*
X47542Y42198D01*
X46583D01*
G01X47542D02*
X48117Y40700D01*
G01X50450D02*
X50718Y40752D01*
X51025Y40907D01*
X51217Y41165D01*
X51293Y41527D01*
X51217Y41888D01*
X50987Y42198D01*
X50642Y42353D01*
X50258D01*
X50028Y42457D01*
X49837Y42715D01*
X49760Y43077D01*
X49875Y43438D01*
X50143Y43697D01*
X50450Y43800D01*
X50757Y43697D01*
X51025Y43438D01*
X51140Y43077D01*
X51063Y42715D01*
X50872Y42457D01*
X50642Y42353D01*
X50258D01*
X49913Y42198D01*
X49683Y41888D01*
X49607Y41527D01*
X49683Y41165D01*
X49875Y40907D01*
X50182Y40752D01*
X50450Y40700D01*
G01X32158Y78693D02*
X32003Y78463D01*
X31900Y78195D01*
Y77888D01*
X32055Y77543D01*
X32313Y77275D01*
X32623Y77083D01*
X33140Y76930D01*
X33605Y76892D01*
X34070Y76968D01*
X34380Y77083D01*
X34690Y77313D01*
X34897Y77582D01*
X35000Y77850D01*
Y78118D01*
X34897Y78387D01*
X34742Y78617D01*
X34535Y78808D01*
G01X34638Y80298D02*
X34897Y80567D01*
X35000Y80873D01*
X34897Y81180D01*
X34587Y81448D01*
X34122Y81640D01*
X33657Y81717D01*
X33088D01*
X32623Y81640D01*
X32210Y81448D01*
X32003Y81218D01*
X31900Y80950D01*
X32003Y80643D01*
X32210Y80413D01*
X32520Y80260D01*
X32933Y80183D01*
X33295Y80260D01*
X33657Y80452D01*
X33863Y80682D01*
X33915Y80950D01*
X33812Y81257D01*
X33553Y81487D01*
X33088Y81717D01*
G01X46193Y99242D02*
X45963Y99397D01*
X45695Y99500D01*
X45388D01*
X45043Y99345D01*
X44775Y99087D01*
X44583Y98777D01*
X44430Y98260D01*
X44392Y97795D01*
X44468Y97330D01*
X44583Y97020D01*
X44813Y96710D01*
X45082Y96503D01*
X45350Y96400D01*
X45618D01*
X45887Y96503D01*
X46117Y96658D01*
X46308Y96865D01*
G01X48450Y96400D02*
X48718Y96452D01*
X49025Y96607D01*
X49217Y96865D01*
X49293Y97227D01*
X49217Y97588D01*
X48987Y97898D01*
X48642Y98053D01*
X48258D01*
X48028Y98157D01*
X47837Y98415D01*
X47760Y98777D01*
X47875Y99138D01*
X48143Y99397D01*
X48450Y99500D01*
X48757Y99397D01*
X49025Y99138D01*
X49140Y98777D01*
X49063Y98415D01*
X48872Y98157D01*
X48642Y98053D01*
X48258D01*
X47913Y97898D01*
X47683Y97588D01*
X47607Y97227D01*
X47683Y96865D01*
X47875Y96607D01*
X48182Y96452D01*
X48450Y96400D01*
G01X37393Y99042D02*
X37163Y99197D01*
X36895Y99300D01*
X36588D01*
X36243Y99145D01*
X35975Y98887D01*
X35783Y98577D01*
X35630Y98060D01*
X35592Y97595D01*
X35668Y97130D01*
X35783Y96820D01*
X36013Y96510D01*
X36282Y96303D01*
X36550Y96200D01*
X36818D01*
X37087Y96303D01*
X37317Y96458D01*
X37508Y96665D01*
G01X39650Y96200D02*
Y99300D01*
X39190Y98680D01*
G01Y96200D02*
X40110D01*
G01X42022Y97492D02*
X42290Y97853D01*
X42520Y98060D01*
X42827Y98163D01*
X43095Y98060D01*
X43287Y97853D01*
X43440Y97543D01*
X43478Y97182D01*
X43440Y96872D01*
X43287Y96562D01*
X43057Y96303D01*
X42788Y96200D01*
X42482Y96303D01*
X42213Y96613D01*
X42060Y97078D01*
X42022Y97595D01*
X42098Y98267D01*
X42213Y98628D01*
X42405Y98990D01*
X42673Y99248D01*
X42942Y99300D01*
X43210Y99197D01*
X43402Y98938D01*
G01X64100Y-61117D02*
X61000D01*
Y-60158D01*
X61155Y-59852D01*
X61362Y-59660D01*
X61775Y-59583D01*
X62188Y-59660D01*
X62447Y-59890D01*
X62602Y-60158D01*
Y-61117D01*
G01Y-60158D02*
X64100Y-59583D01*
G01Y-57250D02*
X61000D01*
X61620Y-57710D01*
G01X64100D02*
Y-56790D01*
G01X63635Y-54993D02*
X63893Y-54763D01*
X64048Y-54495D01*
X64100Y-54150D01*
X63997Y-53805D01*
X63790Y-53537D01*
X63428Y-53345D01*
X63015Y-53307D01*
X62602Y-53383D01*
X62343Y-53575D01*
X62137Y-53843D01*
X62085Y-54112D01*
X62137Y-54380D01*
X62343Y-54725D01*
X61000Y-54610D01*
Y-53575D01*
G01X54007Y-57400D02*
Y-54300D01*
X54773D01*
X55080Y-54455D01*
X55310Y-54662D01*
X55502Y-54972D01*
X55655Y-55333D01*
X55693Y-55850D01*
X55655Y-56367D01*
X55502Y-56728D01*
X55310Y-57038D01*
X55080Y-57245D01*
X54773Y-57400D01*
X54007D01*
G01X63900Y-49117D02*
X60800D01*
Y-48158D01*
X60955Y-47852D01*
X61162Y-47660D01*
X61575Y-47583D01*
X61988Y-47660D01*
X62247Y-47890D01*
X62402Y-48158D01*
Y-49117D01*
G01Y-48158D02*
X63900Y-47583D01*
G01Y-45250D02*
X60800D01*
X61420Y-45710D01*
G01X63900D02*
Y-44790D01*
G01X63538Y-42802D02*
X63797Y-42533D01*
X63900Y-42227D01*
X63797Y-41920D01*
X63487Y-41652D01*
X63022Y-41460D01*
X62557Y-41383D01*
X61988D01*
X61523Y-41460D01*
X61110Y-41652D01*
X60903Y-41882D01*
X60800Y-42150D01*
X60903Y-42457D01*
X61110Y-42687D01*
X61420Y-42840D01*
X61833Y-42917D01*
X62195Y-42840D01*
X62557Y-42648D01*
X62763Y-42418D01*
X62815Y-42150D01*
X62712Y-41843D01*
X62453Y-41613D01*
X61988Y-41383D01*
G01X63900Y-39317D02*
X60800D01*
Y-38358D01*
X60955Y-38052D01*
X61162Y-37860D01*
X61575Y-37783D01*
X61988Y-37860D01*
X62247Y-38090D01*
X62402Y-38358D01*
Y-39317D01*
G01Y-38358D02*
X63900Y-37783D01*
G01Y-35450D02*
X60800D01*
X61420Y-35910D01*
G01X63900D02*
Y-34990D01*
G01Y-32350D02*
X63848Y-32082D01*
X63693Y-31775D01*
X63435Y-31583D01*
X63073Y-31507D01*
X62712Y-31583D01*
X62402Y-31813D01*
X62247Y-32158D01*
Y-32542D01*
X62143Y-32772D01*
X61885Y-32963D01*
X61523Y-33040D01*
X61162Y-32925D01*
X60903Y-32657D01*
X60800Y-32350D01*
X60903Y-32043D01*
X61162Y-31775D01*
X61523Y-31660D01*
X61885Y-31737D01*
X62143Y-31928D01*
X62247Y-32158D01*
Y-32542D01*
X62402Y-32887D01*
X62712Y-33117D01*
X63073Y-33193D01*
X63435Y-33117D01*
X63693Y-32925D01*
X63848Y-32618D01*
X63900Y-32350D01*
G01X56183Y-28800D02*
Y-25700D01*
X57142D01*
X57448Y-25855D01*
X57640Y-26062D01*
X57717Y-26475D01*
X57640Y-26888D01*
X57410Y-27147D01*
X57142Y-27302D01*
X56183D01*
G01X57142D02*
X57717Y-28800D01*
G01X60050D02*
Y-25700D01*
X59590Y-26320D01*
G01Y-28800D02*
X60510D01*
G01X63073D02*
X63150Y-28128D01*
X63265Y-27560D01*
X63418Y-27043D01*
X63610Y-26475D01*
X63917Y-25700D01*
X62383D01*
G01X55883Y-20500D02*
Y-17400D01*
X56842D01*
X57148Y-17555D01*
X57340Y-17762D01*
X57417Y-18175D01*
X57340Y-18588D01*
X57110Y-18847D01*
X56842Y-19002D01*
X55883D01*
G01X56842D02*
X57417Y-20500D01*
G01X59750D02*
Y-17400D01*
X59290Y-18020D01*
G01Y-20500D02*
X60210D01*
G01X62122Y-19208D02*
X62390Y-18847D01*
X62620Y-18640D01*
X62927Y-18537D01*
X63195Y-18640D01*
X63387Y-18847D01*
X63540Y-19157D01*
X63578Y-19518D01*
X63540Y-19828D01*
X63387Y-20138D01*
X63157Y-20397D01*
X62888Y-20500D01*
X62582Y-20397D01*
X62313Y-20087D01*
X62160Y-19622D01*
X62122Y-19105D01*
X62198Y-18433D01*
X62313Y-18072D01*
X62505Y-17710D01*
X62773Y-17452D01*
X63042Y-17400D01*
X63310Y-17503D01*
X63502Y-17762D01*
G01X63850Y54200D02*
Y55595D01*
X63083Y57300D01*
G01X64617D02*
X63850Y55595D01*
G01X66950Y54200D02*
Y57300D01*
X66490Y56680D01*
G01Y54200D02*
X67410D01*
G01X52283Y68400D02*
Y71500D01*
X53242D01*
X53548Y71345D01*
X53740Y71138D01*
X53817Y70725D01*
X53740Y70312D01*
X53510Y70053D01*
X53242Y69898D01*
X52283D01*
G01X53242D02*
X53817Y68400D01*
G01X56150D02*
Y71500D01*
X55690Y70880D01*
G01Y68400D02*
X56610D01*
G01X58522Y70983D02*
X58752Y71293D01*
X59020Y71448D01*
X59327Y71500D01*
X59710Y71397D01*
X59978Y71138D01*
X60055Y70828D01*
X60017Y70518D01*
X59863Y70260D01*
X59097Y69743D01*
X58752Y69382D01*
X58522Y68865D01*
X58445Y68400D01*
X60055D01*
G01X54507Y90200D02*
Y87978D01*
X54660Y87513D01*
X54967Y87203D01*
X55350Y87100D01*
X55733Y87203D01*
X56040Y87513D01*
X56193Y87978D01*
Y90200D01*
G01X57607Y87720D02*
X57837Y87358D01*
X58143Y87152D01*
X58488Y87100D01*
X58795Y87152D01*
X59102Y87410D01*
X59293Y87720D01*
X59332Y88030D01*
X59255Y88392D01*
X58987Y88650D01*
X58718Y88753D01*
X58373D01*
G01X58718D02*
X58948Y88908D01*
X59140Y89167D01*
X59217Y89477D01*
X59140Y89787D01*
X58948Y90045D01*
X58603Y90200D01*
X58258Y90148D01*
X57913Y89942D01*
G01X49983Y96400D02*
Y99500D01*
X50942D01*
X51248Y99345D01*
X51440Y99138D01*
X51517Y98725D01*
X51440Y98312D01*
X51210Y98053D01*
X50942Y97898D01*
X49983D01*
G01X50942D02*
X51517Y96400D01*
G01X53850D02*
Y99500D01*
X53390Y98880D01*
G01Y96400D02*
X54310D01*
G01X56107Y97020D02*
X56337Y96658D01*
X56643Y96452D01*
X56988Y96400D01*
X57295Y96452D01*
X57602Y96710D01*
X57793Y97020D01*
X57832Y97330D01*
X57755Y97692D01*
X57487Y97950D01*
X57218Y98053D01*
X56873D01*
G01X57218D02*
X57448Y98208D01*
X57640Y98467D01*
X57717Y98777D01*
X57640Y99087D01*
X57448Y99345D01*
X57103Y99500D01*
X56758Y99448D01*
X56413Y99242D01*
G01X69207Y-88300D02*
Y-90522D01*
X69360Y-90987D01*
X69667Y-91297D01*
X70050Y-91400D01*
X70433Y-91297D01*
X70740Y-90987D01*
X70893Y-90522D01*
Y-88300D01*
G01X73610Y-91400D02*
Y-88300D01*
X72192Y-90522D01*
X74108D01*
G01X69093Y-62758D02*
X68863Y-62603D01*
X68595Y-62500D01*
X68288D01*
X67943Y-62655D01*
X67675Y-62913D01*
X67483Y-63223D01*
X67330Y-63740D01*
X67292Y-64205D01*
X67368Y-64670D01*
X67483Y-64980D01*
X67713Y-65290D01*
X67982Y-65497D01*
X68250Y-65600D01*
X68518D01*
X68787Y-65497D01*
X69017Y-65342D01*
X69208Y-65135D01*
G01X71350Y-65600D02*
Y-62500D01*
X70890Y-63120D01*
G01Y-65600D02*
X71810D01*
G01X74373D02*
X74450Y-64928D01*
X74565Y-64360D01*
X74718Y-63843D01*
X74910Y-63275D01*
X75217Y-62500D01*
X73683D01*
G01X83100Y-57517D02*
X80000D01*
Y-56558D01*
X80155Y-56252D01*
X80362Y-56060D01*
X80775Y-55983D01*
X81188Y-56060D01*
X81447Y-56290D01*
X81602Y-56558D01*
Y-57517D01*
G01Y-56558D02*
X83100Y-55983D01*
G01Y-53650D02*
X80000D01*
X80620Y-54110D01*
G01X83100D02*
Y-53190D01*
G01Y-50090D02*
X80000D01*
X82222Y-51508D01*
Y-49592D01*
G01X70093Y-48158D02*
X69863Y-48003D01*
X69595Y-47900D01*
X69288D01*
X68943Y-48055D01*
X68675Y-48313D01*
X68483Y-48623D01*
X68330Y-49140D01*
X68292Y-49605D01*
X68368Y-50070D01*
X68483Y-50380D01*
X68713Y-50690D01*
X68982Y-50897D01*
X69250Y-51000D01*
X69518D01*
X69787Y-50897D01*
X70017Y-50742D01*
X70208Y-50535D01*
G01X72350Y-51000D02*
Y-47900D01*
X71890Y-48520D01*
G01Y-51000D02*
X72810D01*
G01X75450D02*
X75718Y-50948D01*
X76025Y-50793D01*
X76217Y-50535D01*
X76293Y-50173D01*
X76217Y-49812D01*
X75987Y-49502D01*
X75642Y-49347D01*
X75258D01*
X75028Y-49243D01*
X74837Y-48985D01*
X74760Y-48623D01*
X74875Y-48262D01*
X75143Y-48003D01*
X75450Y-47900D01*
X75757Y-48003D01*
X76025Y-48262D01*
X76140Y-48623D01*
X76063Y-48985D01*
X75872Y-49243D01*
X75642Y-49347D01*
X75258D01*
X74913Y-49502D01*
X74683Y-49812D01*
X74607Y-50173D01*
X74683Y-50535D01*
X74875Y-50793D01*
X75182Y-50948D01*
X75450Y-51000D01*
G01X79400Y63083D02*
X82500D01*
Y64617D01*
G01X81880Y66107D02*
X82242Y66337D01*
X82448Y66643D01*
X82500Y66988D01*
X82448Y67295D01*
X82190Y67602D01*
X81880Y67793D01*
X81570Y67832D01*
X81208Y67755D01*
X80950Y67487D01*
X80847Y67218D01*
Y66873D01*
G01Y67218D02*
X80692Y67448D01*
X80433Y67640D01*
X80123Y67717D01*
X79813Y67640D01*
X79555Y67448D01*
X79400Y67103D01*
X79452Y66758D01*
X79658Y66413D01*
G01X75300Y66483D02*
X78400D01*
Y68017D01*
G01X75817Y69622D02*
X75507Y69852D01*
X75352Y70120D01*
X75300Y70427D01*
X75403Y70810D01*
X75662Y71078D01*
X75972Y71155D01*
X76282Y71117D01*
X76540Y70963D01*
X77057Y70197D01*
X77418Y69852D01*
X77935Y69622D01*
X78400Y69545D01*
Y71155D01*
G01X79883Y71800D02*
Y68700D01*
X81417D01*
G01X83750D02*
Y71800D01*
X83290Y71180D01*
G01Y68700D02*
X84210D01*
G01X65158Y61293D02*
X65003Y61063D01*
X64900Y60795D01*
Y60488D01*
X65055Y60143D01*
X65313Y59875D01*
X65623Y59683D01*
X66140Y59530D01*
X66605Y59492D01*
X67070Y59568D01*
X67380Y59683D01*
X67690Y59913D01*
X67897Y60182D01*
X68000Y60450D01*
Y60718D01*
X67897Y60987D01*
X67742Y61217D01*
X67535Y61408D01*
G01X68000Y63550D02*
X64900D01*
X65520Y63090D01*
G01X68000D02*
Y64010D01*
G01X67535Y65807D02*
X67793Y66037D01*
X67948Y66305D01*
X68000Y66650D01*
X67897Y66995D01*
X67690Y67263D01*
X67328Y67455D01*
X66915Y67493D01*
X66502Y67417D01*
X66243Y67225D01*
X66037Y66957D01*
X65985Y66688D01*
X66037Y66420D01*
X66243Y66075D01*
X64900Y66190D01*
Y67225D01*
G01X88550Y-61300D02*
Y-64400D01*
G01X87668Y-61300D02*
X89432D01*
G01X90883Y-64400D02*
Y-61300D01*
X91803D01*
X92110Y-61455D01*
X92340Y-61817D01*
X92417Y-62230D01*
X92340Y-62643D01*
X92148Y-62953D01*
X91803Y-63108D01*
X90883D01*
G01X94750Y-64400D02*
Y-61300D01*
X94290Y-61920D01*
G01Y-64400D02*
X95210D01*
G01X97850D02*
Y-61300D01*
X97390Y-61920D01*
G01Y-64400D02*
X98310D01*
G01X87483Y-49380D02*
X87675Y-49690D01*
X87905Y-49897D01*
X88173Y-50000D01*
X88480Y-49897D01*
X88710Y-49690D01*
X88940Y-49380D01*
X89017Y-48967D01*
Y-46900D01*
G01X91273Y-50000D02*
X91350Y-49328D01*
X91465Y-48760D01*
X91618Y-48243D01*
X91810Y-47675D01*
X92117Y-46900D01*
X90583D01*
G01X87283Y56900D02*
Y53800D01*
X88817D01*
G01X90345Y54213D02*
X90652Y53955D01*
X90997Y53800D01*
X91303D01*
X91610Y53955D01*
X91840Y54213D01*
X91955Y54575D01*
X91878Y54937D01*
X91687Y55247D01*
X91342Y55453D01*
X90882Y55557D01*
X90613Y55763D01*
X90498Y56125D01*
X90575Y56487D01*
X90767Y56745D01*
X91035Y56900D01*
X91303D01*
X91572Y56797D01*
X91802Y56538D01*
G01X94250Y53800D02*
Y56900D01*
X93790Y56280D01*
G01Y53800D02*
X94710D01*
G01X84993Y61042D02*
X84763Y61197D01*
X84495Y61300D01*
X84188D01*
X83843Y61145D01*
X83575Y60887D01*
X83383Y60577D01*
X83230Y60060D01*
X83192Y59595D01*
X83268Y59130D01*
X83383Y58820D01*
X83613Y58510D01*
X83882Y58303D01*
X84150Y58200D01*
X84418D01*
X84687Y58303D01*
X84917Y58458D01*
X85108Y58665D01*
G01X87250Y58200D02*
Y61300D01*
X86790Y60680D01*
G01Y58200D02*
X87710D01*
G01X89507Y58820D02*
X89737Y58458D01*
X90043Y58252D01*
X90388Y58200D01*
X90695Y58252D01*
X91002Y58510D01*
X91193Y58820D01*
X91232Y59130D01*
X91155Y59492D01*
X90887Y59750D01*
X90618Y59853D01*
X90273D01*
G01X90618D02*
X90848Y60008D01*
X91040Y60267D01*
X91117Y60577D01*
X91040Y60887D01*
X90848Y61145D01*
X90503Y61300D01*
X90158Y61248D01*
X89813Y61042D01*
G01X84993Y65042D02*
X84763Y65197D01*
X84495Y65300D01*
X84188D01*
X83843Y65145D01*
X83575Y64887D01*
X83383Y64577D01*
X83230Y64060D01*
X83192Y63595D01*
X83268Y63130D01*
X83383Y62820D01*
X83613Y62510D01*
X83882Y62303D01*
X84150Y62200D01*
X84418D01*
X84687Y62303D01*
X84917Y62458D01*
X85108Y62665D01*
G01X87250Y62200D02*
Y65300D01*
X86790Y64680D01*
G01Y62200D02*
X87710D01*
G01X89622Y64783D02*
X89852Y65093D01*
X90120Y65248D01*
X90427Y65300D01*
X90810Y65197D01*
X91078Y64938D01*
X91155Y64628D01*
X91117Y64318D01*
X90963Y64060D01*
X90197Y63543D01*
X89852Y63182D01*
X89622Y62665D01*
X89545Y62200D01*
X91155D01*
G01X94258Y66393D02*
X94103Y66163D01*
X94000Y65895D01*
Y65588D01*
X94155Y65243D01*
X94413Y64975D01*
X94723Y64783D01*
X95240Y64630D01*
X95705Y64592D01*
X96170Y64668D01*
X96480Y64783D01*
X96790Y65013D01*
X96997Y65282D01*
X97100Y65550D01*
Y65818D01*
X96997Y66087D01*
X96842Y66317D01*
X96635Y66508D01*
G01X97100Y68650D02*
X94000D01*
X94620Y68190D01*
G01X97100D02*
Y69110D01*
G01Y71750D02*
X94000D01*
X94620Y71290D01*
G01X97100D02*
Y72210D01*
G01X86793Y71442D02*
X86563Y71597D01*
X86295Y71700D01*
X85988D01*
X85643Y71545D01*
X85375Y71287D01*
X85183Y70977D01*
X85030Y70460D01*
X84992Y69995D01*
X85068Y69530D01*
X85183Y69220D01*
X85413Y68910D01*
X85682Y68703D01*
X85950Y68600D01*
X86218D01*
X86487Y68703D01*
X86717Y68858D01*
X86908Y69065D01*
G01X89050Y68600D02*
Y71700D01*
X88590Y71080D01*
G01Y68600D02*
X89510D01*
G01X92150Y71700D02*
X91843Y71597D01*
X91613Y71338D01*
X91460Y71028D01*
X91345Y70615D01*
X91307Y70150D01*
X91345Y69685D01*
X91460Y69272D01*
X91613Y68962D01*
X91843Y68703D01*
X92150Y68600D01*
X92457Y68703D01*
X92687Y68962D01*
X92840Y69272D01*
X92955Y69685D01*
X92993Y70150D01*
X92955Y70615D01*
X92840Y71028D01*
X92687Y71338D01*
X92457Y71597D01*
X92150Y71700D01*
G01X84292Y85300D02*
X85250Y88400D01*
X86208Y85300D01*
G01X85863Y86385D02*
X84637D01*
G01X89117Y85300D02*
X87583D01*
Y88400D01*
X89117D01*
G01X88503Y86902D02*
X87583D01*
G01X91450Y85300D02*
Y88400D01*
X90990Y87780D01*
G01Y85300D02*
X91910D01*
M02*
