G75*
%MOIN*%
%OFA0B0*%
%FSLAX25Y25*%
%IPPOS*%
%LPD*%
%AMOC8*
5,1,8,0,0,1.08239X$1,22.5*
%
%ADD10C,0.02200*%
%ADD11C,0.00800*%
%ADD12R,0.03000X0.01800*%
%ADD13R,0.01800X0.03000*%
%ADD14C,0.00500*%
%ADD15C,0.01575*%
%ADD16C,0.00197*%
D10*
X0115800Y0137680D02*
X0115800Y0137920D01*
X0108920Y0147800D02*
X0108680Y0147800D01*
X0113800Y0159680D02*
X0113800Y0159920D01*
X0115800Y0166680D02*
X0115800Y0166920D01*
X0124680Y0178800D02*
X0124920Y0178800D01*
X0105700Y0204080D02*
X0105700Y0204320D01*
X0105700Y0213080D02*
X0105700Y0213320D01*
X0107100Y0240180D02*
X0107100Y0240420D01*
X0126700Y0253080D02*
X0126700Y0253320D01*
X0129700Y0240320D02*
X0129700Y0240080D01*
X0129700Y0232320D02*
X0129700Y0232080D01*
X0151700Y0250080D02*
X0151700Y0250320D01*
X0172700Y0246120D02*
X0172700Y0245880D01*
X0169300Y0221720D02*
X0169300Y0221480D01*
X0152700Y0212320D02*
X0152700Y0212080D01*
X0183380Y0182900D02*
X0183620Y0182900D01*
X0211580Y0161300D02*
X0211820Y0161300D01*
X0227300Y0159620D02*
X0227300Y0159380D01*
X0227400Y0167380D02*
X0227400Y0167620D01*
X0196800Y0131920D02*
X0196800Y0131680D01*
X0180800Y0128920D02*
X0180800Y0128680D01*
X0180800Y0119920D02*
X0180800Y0119680D01*
X0192680Y0114800D02*
X0192920Y0114800D01*
X0209680Y0079800D02*
X0209920Y0079800D01*
X0233900Y0097880D02*
X0233900Y0098120D01*
X0216400Y0240780D02*
X0216400Y0241020D01*
D11*
X0092682Y0125430D02*
X0092682Y0104170D01*
X0096619Y0101611D02*
X0098981Y0101611D01*
X0103300Y0097800D02*
X0100800Y0095300D01*
X0100800Y0090300D01*
X0103300Y0087800D01*
X0108300Y0087800D01*
X0110800Y0090300D01*
X0113300Y0087800D01*
X0118300Y0087800D01*
X0120800Y0090300D01*
X0123300Y0087800D01*
X0128300Y0087800D01*
X0130800Y0090300D01*
X0133300Y0087800D01*
X0138300Y0087800D01*
X0140800Y0090300D01*
X0143300Y0087800D01*
X0148300Y0087800D01*
X0150800Y0090300D01*
X0153300Y0087800D01*
X0158300Y0087800D01*
X0160800Y0090300D01*
X0163300Y0087800D01*
X0168300Y0087800D01*
X0170800Y0090300D01*
X0173300Y0087800D01*
X0178300Y0087800D01*
X0180800Y0090300D01*
X0183300Y0087800D01*
X0188300Y0087800D01*
X0190800Y0090300D01*
X0193300Y0087800D01*
X0198300Y0087800D01*
X0200800Y0090300D01*
X0200800Y0095300D01*
X0198300Y0097800D01*
X0193300Y0097800D01*
X0190800Y0095300D01*
X0188300Y0097800D01*
X0183300Y0097800D01*
X0180800Y0095300D01*
X0178300Y0097800D01*
X0173300Y0097800D01*
X0170800Y0095300D01*
X0168300Y0097800D01*
X0163300Y0097800D01*
X0160800Y0095300D01*
X0158300Y0097800D01*
X0153300Y0097800D01*
X0150800Y0095300D01*
X0148300Y0097800D01*
X0143300Y0097800D01*
X0140800Y0095300D01*
X0138300Y0097800D01*
X0133300Y0097800D01*
X0130800Y0095300D01*
X0128300Y0097800D01*
X0123300Y0097800D01*
X0120800Y0095300D01*
X0118300Y0097800D01*
X0113300Y0097800D01*
X0110800Y0095300D01*
X0108300Y0097800D01*
X0103300Y0097800D01*
X0102918Y0114800D02*
X0102918Y0120706D01*
X0109863Y0116517D02*
X0109863Y0131083D01*
X0117737Y0131083D01*
X0117737Y0116517D01*
X0109863Y0116517D01*
X0098981Y0127989D02*
X0096619Y0127989D01*
X0135115Y0142115D02*
X0174485Y0142115D01*
X0174485Y0181485D01*
X0139052Y0181485D01*
X0135115Y0177548D01*
X0135115Y0142115D01*
X0118737Y0175517D02*
X0110863Y0175517D01*
X0110863Y0190083D01*
X0118737Y0190083D01*
X0118737Y0175517D01*
X0103800Y0178300D02*
X0101300Y0175800D01*
X0096300Y0175800D01*
X0093800Y0178300D01*
X0093800Y0183300D01*
X0096300Y0185800D01*
X0093800Y0188300D01*
X0093800Y0193300D01*
X0096300Y0195800D01*
X0101300Y0195800D01*
X0103800Y0193300D01*
X0103800Y0188300D01*
X0101300Y0185800D01*
X0103800Y0183300D01*
X0103800Y0178300D01*
X0145119Y0218957D02*
X0147481Y0218957D01*
X0152599Y0226438D02*
X0152599Y0231162D01*
X0147481Y0238643D02*
X0145119Y0238643D01*
X0140001Y0231162D02*
X0140001Y0226438D01*
X0162500Y0211700D02*
X0162500Y0207700D01*
X0169500Y0207700D02*
X0169500Y0211700D01*
X0191138Y0244601D02*
X0195862Y0244601D01*
X0203343Y0249719D02*
X0203343Y0252081D01*
X0195862Y0257199D02*
X0191138Y0257199D01*
X0183657Y0252081D02*
X0183657Y0249719D01*
X0116200Y0252200D02*
X0116200Y0256200D01*
X0109200Y0256200D02*
X0109200Y0252200D01*
X0194438Y0150099D02*
X0199162Y0150099D01*
X0206643Y0144981D02*
X0206643Y0142619D01*
X0199162Y0137501D02*
X0194438Y0137501D01*
X0186957Y0142619D02*
X0186957Y0144981D01*
X0208910Y0123690D02*
X0209894Y0122706D01*
X0219100Y0123300D02*
X0221700Y0123300D01*
X0229989Y0138131D02*
X0231800Y0138131D01*
X0230880Y0139351D01*
X0231800Y0138131D02*
X0233611Y0138131D01*
X0232660Y0139351D02*
X0231900Y0138191D01*
X0256400Y0139300D02*
X0256400Y0134300D01*
X0258900Y0131800D01*
X0263900Y0131800D01*
X0266400Y0134300D01*
X0266400Y0139300D01*
X0263900Y0141800D01*
X0266400Y0144300D01*
X0266400Y0149300D01*
X0263900Y0151800D01*
X0266400Y0154300D01*
X0266400Y0159300D01*
X0263900Y0161800D01*
X0266400Y0164300D01*
X0266400Y0169300D01*
X0263900Y0171800D01*
X0266400Y0174300D01*
X0266400Y0179300D01*
X0263900Y0181800D01*
X0266400Y0184300D01*
X0266400Y0189300D01*
X0263900Y0191800D01*
X0266400Y0194300D01*
X0266400Y0199300D01*
X0263900Y0201800D01*
X0266400Y0204300D01*
X0266400Y0209300D01*
X0263900Y0211800D01*
X0258900Y0211800D01*
X0256400Y0209300D01*
X0256400Y0204300D01*
X0258900Y0201800D01*
X0256400Y0199300D01*
X0256400Y0194300D01*
X0258900Y0191800D01*
X0256400Y0189300D01*
X0256400Y0184300D01*
X0258900Y0181800D01*
X0256400Y0179300D01*
X0256400Y0174300D01*
X0258900Y0171800D01*
X0256400Y0169300D01*
X0256400Y0164300D01*
X0258900Y0161800D01*
X0256400Y0159300D01*
X0256400Y0154300D01*
X0258900Y0151800D01*
X0256400Y0149300D01*
X0256400Y0144300D01*
X0258900Y0141800D01*
X0256400Y0139300D01*
X0267300Y0139300D02*
X0267300Y0134300D01*
X0269800Y0131800D01*
X0274800Y0131800D01*
X0277300Y0134300D01*
X0277300Y0139300D01*
X0274800Y0141800D01*
X0277300Y0144300D01*
X0277300Y0149300D01*
X0274800Y0151800D01*
X0277300Y0154300D01*
X0277300Y0159300D01*
X0274800Y0161800D01*
X0277300Y0164300D01*
X0277300Y0169300D01*
X0274800Y0171800D01*
X0277300Y0174300D01*
X0277300Y0179300D01*
X0274800Y0181800D01*
X0277300Y0184300D01*
X0277300Y0189300D01*
X0274800Y0191800D01*
X0277300Y0194300D01*
X0277300Y0199300D01*
X0274800Y0201800D01*
X0277300Y0204300D01*
X0277300Y0209300D01*
X0274800Y0211800D01*
X0269800Y0211800D01*
X0267300Y0209300D01*
X0267300Y0204300D01*
X0269800Y0201800D01*
X0267300Y0199300D01*
X0267300Y0194300D01*
X0269800Y0191800D01*
X0267300Y0189300D01*
X0267300Y0184300D01*
X0269800Y0181800D01*
X0267300Y0179300D01*
X0267300Y0174300D01*
X0269800Y0171800D01*
X0267300Y0169300D01*
X0267300Y0164300D01*
X0269800Y0161800D01*
X0267300Y0159300D01*
X0267300Y0154300D01*
X0269800Y0151800D01*
X0267300Y0149300D01*
X0267300Y0144300D01*
X0269800Y0141800D01*
X0267300Y0139300D01*
X0278200Y0139300D02*
X0278200Y0134300D01*
X0280700Y0131800D01*
X0285700Y0131800D01*
X0288200Y0134300D01*
X0288200Y0139300D01*
X0285700Y0141800D01*
X0288200Y0144300D01*
X0288200Y0149300D01*
X0285700Y0151800D01*
X0288200Y0154300D01*
X0288200Y0159300D01*
X0285700Y0161800D01*
X0288200Y0164300D01*
X0288200Y0169300D01*
X0285700Y0171800D01*
X0288200Y0174300D01*
X0288200Y0179300D01*
X0285700Y0181800D01*
X0288200Y0184300D01*
X0288200Y0189300D01*
X0285700Y0191800D01*
X0288200Y0194300D01*
X0288200Y0199300D01*
X0285700Y0201800D01*
X0288200Y0204300D01*
X0288200Y0209300D01*
X0285700Y0211800D01*
X0280700Y0211800D01*
X0278200Y0209300D01*
X0278200Y0204300D01*
X0280700Y0201800D01*
X0278200Y0199300D01*
X0278200Y0194300D01*
X0280700Y0191800D01*
X0278200Y0189300D01*
X0278200Y0184300D01*
X0280700Y0181800D01*
X0278200Y0179300D01*
X0278200Y0174300D01*
X0280700Y0171800D01*
X0278200Y0169300D01*
X0278200Y0164300D01*
X0280700Y0161800D01*
X0278200Y0159300D01*
X0278200Y0154300D01*
X0280700Y0151800D01*
X0278200Y0149300D01*
X0278200Y0144300D01*
X0280700Y0141800D01*
X0278200Y0139300D01*
X0221700Y0110300D02*
X0219100Y0110300D01*
X0212600Y0110300D02*
X0210000Y0110300D01*
X0210028Y0101902D02*
X0213572Y0101902D01*
X0213572Y0089698D02*
X0210028Y0089698D01*
D12*
X0223100Y0102600D03*
X0235900Y0107000D03*
X0231800Y0124800D03*
X0157700Y0228200D03*
X0120800Y0147800D03*
D13*
X0184100Y0199200D03*
X0204000Y0194200D03*
X0218800Y0194400D03*
X0220800Y0143800D03*
X0220800Y0132800D03*
X0233900Y0088000D03*
X0233900Y0080000D03*
X0105700Y0221300D03*
X0173900Y0235100D03*
D14*
X0204994Y0182606D02*
X0206176Y0182606D01*
X0204994Y0182606D02*
X0204994Y0181424D01*
X0215624Y0182606D02*
X0216806Y0182606D01*
X0216806Y0181424D01*
X0216806Y0171976D02*
X0216806Y0170794D01*
X0215624Y0170794D01*
X0206176Y0170794D02*
X0204994Y0170794D01*
X0204994Y0171976D01*
X0164036Y0126099D02*
X0143564Y0126099D01*
X0143564Y0113501D02*
X0164036Y0113501D01*
X0138769Y0176831D02*
X0138771Y0176894D01*
X0138777Y0176956D01*
X0138787Y0177018D01*
X0138800Y0177080D01*
X0138818Y0177140D01*
X0138839Y0177199D01*
X0138864Y0177257D01*
X0138893Y0177313D01*
X0138925Y0177367D01*
X0138960Y0177419D01*
X0138998Y0177468D01*
X0139040Y0177516D01*
X0139084Y0177560D01*
X0139132Y0177602D01*
X0139181Y0177640D01*
X0139233Y0177675D01*
X0139287Y0177707D01*
X0139343Y0177736D01*
X0139401Y0177761D01*
X0139460Y0177782D01*
X0139520Y0177800D01*
X0139582Y0177813D01*
X0139644Y0177823D01*
X0139706Y0177829D01*
X0139769Y0177831D01*
X0139832Y0177829D01*
X0139894Y0177823D01*
X0139956Y0177813D01*
X0140018Y0177800D01*
X0140078Y0177782D01*
X0140137Y0177761D01*
X0140195Y0177736D01*
X0140251Y0177707D01*
X0140305Y0177675D01*
X0140357Y0177640D01*
X0140406Y0177602D01*
X0140454Y0177560D01*
X0140498Y0177516D01*
X0140540Y0177468D01*
X0140578Y0177419D01*
X0140613Y0177367D01*
X0140645Y0177313D01*
X0140674Y0177257D01*
X0140699Y0177199D01*
X0140720Y0177140D01*
X0140738Y0177080D01*
X0140751Y0177018D01*
X0140761Y0176956D01*
X0140767Y0176894D01*
X0140769Y0176831D01*
X0140767Y0176768D01*
X0140761Y0176706D01*
X0140751Y0176644D01*
X0140738Y0176582D01*
X0140720Y0176522D01*
X0140699Y0176463D01*
X0140674Y0176405D01*
X0140645Y0176349D01*
X0140613Y0176295D01*
X0140578Y0176243D01*
X0140540Y0176194D01*
X0140498Y0176146D01*
X0140454Y0176102D01*
X0140406Y0176060D01*
X0140357Y0176022D01*
X0140305Y0175987D01*
X0140251Y0175955D01*
X0140195Y0175926D01*
X0140137Y0175901D01*
X0140078Y0175880D01*
X0140018Y0175862D01*
X0139956Y0175849D01*
X0139894Y0175839D01*
X0139832Y0175833D01*
X0139769Y0175831D01*
X0139706Y0175833D01*
X0139644Y0175839D01*
X0139582Y0175849D01*
X0139520Y0175862D01*
X0139460Y0175880D01*
X0139401Y0175901D01*
X0139343Y0175926D01*
X0139287Y0175955D01*
X0139233Y0175987D01*
X0139181Y0176022D01*
X0139132Y0176060D01*
X0139084Y0176102D01*
X0139040Y0176146D01*
X0138998Y0176194D01*
X0138960Y0176243D01*
X0138925Y0176295D01*
X0138893Y0176349D01*
X0138864Y0176405D01*
X0138839Y0176463D01*
X0138818Y0176522D01*
X0138800Y0176582D01*
X0138787Y0176644D01*
X0138777Y0176706D01*
X0138771Y0176768D01*
X0138769Y0176831D01*
D15*
X0203813Y0183393D03*
D16*
X0120158Y0207001D02*
X0120160Y0207043D01*
X0120166Y0207084D01*
X0120176Y0207125D01*
X0120190Y0207165D01*
X0120207Y0207203D01*
X0120228Y0207239D01*
X0120252Y0207273D01*
X0120280Y0207305D01*
X0120310Y0207334D01*
X0120343Y0207359D01*
X0120378Y0207382D01*
X0120415Y0207401D01*
X0120454Y0207417D01*
X0120494Y0207429D01*
X0120535Y0207437D01*
X0120577Y0207441D01*
X0120619Y0207441D01*
X0120661Y0207437D01*
X0120702Y0207429D01*
X0120742Y0207417D01*
X0120781Y0207401D01*
X0120818Y0207382D01*
X0120853Y0207359D01*
X0120886Y0207334D01*
X0120916Y0207305D01*
X0120944Y0207273D01*
X0120968Y0207239D01*
X0120989Y0207203D01*
X0121006Y0207165D01*
X0121020Y0207125D01*
X0121030Y0207084D01*
X0121036Y0207043D01*
X0121038Y0207001D01*
X0121036Y0206959D01*
X0121030Y0206918D01*
X0121020Y0206877D01*
X0121006Y0206837D01*
X0120989Y0206799D01*
X0120968Y0206763D01*
X0120944Y0206729D01*
X0120916Y0206697D01*
X0120886Y0206668D01*
X0120853Y0206643D01*
X0120818Y0206620D01*
X0120781Y0206601D01*
X0120742Y0206585D01*
X0120702Y0206573D01*
X0120661Y0206565D01*
X0120619Y0206561D01*
X0120577Y0206561D01*
X0120535Y0206565D01*
X0120494Y0206573D01*
X0120454Y0206585D01*
X0120415Y0206601D01*
X0120378Y0206620D01*
X0120343Y0206643D01*
X0120310Y0206668D01*
X0120280Y0206697D01*
X0120252Y0206729D01*
X0120228Y0206763D01*
X0120207Y0206799D01*
X0120190Y0206837D01*
X0120176Y0206877D01*
X0120166Y0206918D01*
X0120160Y0206959D01*
X0120158Y0207001D01*
M02*
