%
M48
M72
T01C0.02362
T02C0.02400
T03C0.03543
T04C0.04000
%
T01
X61600Y63500
X66600Y63500
X71600Y63500
X76600Y63500
X81600Y63500
X85600Y59500
X89600Y55500
X93300Y51400
X98100Y47500
X100900Y43200
X107100Y43500
X112100Y43500
X117100Y43500
X117600Y50500
X112600Y50500
X107600Y50500
X103100Y52500
X105600Y57500
X100600Y57500
X110600Y57500
X115600Y57500
X120600Y57500
X125600Y57500
X130600Y56500
X130600Y61500
X130600Y66500
X130600Y71500
X130600Y76500
X130600Y81500
X132600Y86000
X138100Y88500
X138600Y94000
X139100Y99000
X144600Y99500
X150600Y100500
X152100Y106500
X146600Y105500
X150600Y112500
X150600Y117500
X150600Y122500
X150600Y127500
X151600Y136000
X158600Y126000
X159100Y116500
X164100Y111500
X160600Y108000
X158600Y99000
X167600Y115500
X169900Y122500
X177600Y124500
X177600Y119500
X177600Y114500
X177600Y109500
X177600Y104500
X181300Y100000
X186600Y100300
X191600Y100500
X195600Y97500
X195600Y92500
X195600Y87500
X200300Y80800
X196600Y76500
X198600Y71500
X203900Y72100
X208600Y72500
X213600Y72500
X218600Y72500
X218600Y67500
X218600Y62500
X218600Y57500
X213600Y57500
X208600Y57500
X203600Y57500
X198600Y57500
X201100Y53000
X205600Y50000
X210600Y50000
X215600Y50000
X220600Y50000
X225600Y50000
X225600Y43000
X220600Y43000
X215600Y43000
X210600Y43000
X205600Y43000
X200600Y43500
X196600Y47500
X192600Y51500
X189100Y56500
X184600Y60500
X179600Y60500
X175600Y57500
X170600Y57500
X165600Y57500
X160600Y57500
X155600Y57500
X150600Y57500
X145600Y57500
X140600Y57500
X135600Y57500
X119700Y67500
X116300Y83900
X123600Y84500
X110100Y102100
X99100Y113600
X87600Y108500
X88100Y120000
X93700Y131700
X100800Y138400
X106700Y135300
X107600Y128700
X113700Y129200
X114700Y137600
X119600Y144000
X117300Y153100
X108600Y151000
X103600Y151000
X98600Y151000
X93600Y150000
X104000Y156100
X106100Y162500
X113900Y174300
X108400Y181300
X102200Y186000
X97100Y193600
X113500Y206700
X97000Y223500
X99600Y233200
X89300Y225400
X62200Y231700
X62400Y249700
X61900Y265900
X99100Y257700
X122200Y258400
X139500Y226100
X166100Y245500
X188600Y250500
X202500Y258300
X228000Y236700
X245100Y260500
X278600Y249200
X284900Y249400
X276100Y225500
X267100Y201000
X241400Y191600
X227600Y179000
X220500Y193400
X201400Y169300
X196500Y168100
X196500Y155600
X210600Y165300
X229300Y147000
X226300Y142000
X222200Y137900
X218400Y133600
X214800Y129100
X211200Y124900
X206400Y121400
X202500Y118000
X194200Y119900
X190200Y123800
X190200Y115200
X187300Y107900
X187400Y107800
X218100Y97800
X242900Y97600
X266000Y98000
X257900Y68200
X232400Y67900
X145800Y150200
X144200Y144400
X142600Y139000
X131000Y133600
X131600Y126000
X123300Y117200
X113600Y118300
X105600Y144000
X82800Y143700
X82600Y138500
X82600Y133500
X77600Y138500
X72600Y138500
X67600Y138500
X61600Y138500
X61600Y133500
X61600Y128500
X61600Y123500
X61600Y118500
X61600Y113500
X61600Y108500
X61600Y103500
X61600Y98500
X61600Y93500
X61600Y88500
X61600Y83500
X61600Y78500
X61600Y73500
X61600Y68500
X82600Y78500
X97300Y91000
X72700Y129700
X60600Y149600
X83100Y165500
X60000Y178000
X76600Y196500
X152600Y180000
X153600Y172000
X151600Y167500
X156600Y165500
X161600Y160500
X156600Y154500
X166600Y154500
X171700Y164700
X177100Y167600
X171100Y171500
X164100Y172500
X172600Y180000
X176100Y184500
X198100Y219800
X74000Y48100
T02
X152100Y186500
X131700Y226600
X173100Y245500
X186100Y240000
X195400Y254300
X213100Y246500
X226100Y252000
X224100Y231500
X217100Y230500
X212100Y232500
X76800Y202200
T03
X62700Y199194
X62700Y211006
T04
X71800Y168800
X71800Y158800
X284900Y160800
X284900Y150800
X284900Y140800
X284900Y130800
X284900Y120800
X284900Y110800
X284900Y100800
X284900Y90800
X284900Y80800
X284900Y170800
X284900Y180800
X284900Y190800
X284900Y200800
X284900Y210800
X284900Y220800
M30
