G75*
%MOIN*%
%OFA0B0*%
%FSLAX25Y25*%
%IPPOS*%
%LPD*%
%AMOC8*
5,1,8,0,0,1.08239X$1,22.5*
%
%ADD10R,0.04737X0.05131*%
%ADD11R,0.05131X0.04737*%
%ADD12R,0.08200X0.08200*%
%ADD13C,0.08200*%
%ADD14R,0.02953X0.06693*%
%ADD15R,0.05315X0.03543*%
%ADD16R,0.06706X0.05918*%
%ADD17C,0.01421*%
%ADD18R,0.05131X0.01922*%
%ADD19R,0.01922X0.05131*%
%ADD20R,0.04146X0.01969*%
%ADD21R,0.01902X0.03556*%
%ADD22R,0.06496X0.09448*%
%ADD23R,0.07493X0.10249*%
%ADD24R,0.08280X0.05131*%
%ADD25C,0.06800*%
%ADD26R,0.07493X0.04737*%
%ADD27R,0.03556X0.04343*%
%ADD28R,0.04343X0.03556*%
%ADD29R,0.05131X0.08280*%
%ADD30R,0.02375X0.03162*%
%ADD31C,0.01706*%
%ADD32R,0.06706X0.03556*%
%ADD33R,0.03162X0.04737*%
%ADD34R,0.03950X0.04737*%
%ADD35C,0.04343*%
%ADD36R,0.02375X0.01784*%
%ADD37R,0.01784X0.02375*%
%ADD38R,0.10800X0.10800*%
%ADD39C,0.04762*%
%ADD40C,0.04800*%
D10*
X0108800Y0144454D03*
X0108800Y0151146D03*
X0120800Y0151146D03*
X0120800Y0144454D03*
X0124800Y0175454D03*
X0124800Y0182146D03*
X0157700Y0224854D03*
X0157700Y0231546D03*
X0183500Y0186246D03*
X0183500Y0179554D03*
X0211700Y0164646D03*
X0211700Y0157954D03*
X0231800Y0128146D03*
X0231800Y0121454D03*
X0235900Y0110346D03*
X0235900Y0103654D03*
X0223100Y0105946D03*
X0223100Y0099254D03*
X0209800Y0083146D03*
X0209800Y0076454D03*
X0192800Y0111454D03*
X0192800Y0118146D03*
D11*
X0184146Y0119800D03*
X0177454Y0119800D03*
X0177454Y0128800D03*
X0184146Y0128800D03*
X0193454Y0131800D03*
X0200146Y0131800D03*
X0217454Y0132800D03*
X0224146Y0132800D03*
X0224146Y0143800D03*
X0217454Y0143800D03*
X0223954Y0159500D03*
X0230646Y0159500D03*
X0230746Y0167500D03*
X0224054Y0167500D03*
X0222146Y0194400D03*
X0215454Y0194400D03*
X0207346Y0194200D03*
X0200654Y0194200D03*
X0187446Y0199200D03*
X0180754Y0199200D03*
X0172646Y0221600D03*
X0165954Y0221600D03*
X0156046Y0212200D03*
X0149354Y0212200D03*
X0133046Y0232200D03*
X0126354Y0232200D03*
X0126354Y0240200D03*
X0133046Y0240200D03*
X0130046Y0253200D03*
X0123354Y0253200D03*
X0110446Y0240300D03*
X0103754Y0240300D03*
X0102354Y0221300D03*
X0109046Y0221300D03*
X0109046Y0213200D03*
X0102354Y0213200D03*
X0102354Y0204200D03*
X0109046Y0204200D03*
X0112454Y0166800D03*
X0119146Y0166800D03*
X0117146Y0159800D03*
X0110454Y0159800D03*
X0112454Y0137800D03*
X0119146Y0137800D03*
X0170554Y0235100D03*
X0177246Y0235100D03*
X0176046Y0246000D03*
X0169354Y0246000D03*
X0155046Y0250200D03*
X0148354Y0250200D03*
X0213054Y0240900D03*
X0219746Y0240900D03*
X0230554Y0098000D03*
X0237246Y0098000D03*
X0237246Y0088000D03*
X0230554Y0088000D03*
X0230554Y0080000D03*
X0237246Y0080000D03*
D12*
X0261400Y0206800D03*
X0272300Y0206800D03*
X0283200Y0206800D03*
D13*
X0283200Y0196800D03*
X0283200Y0186800D03*
X0283200Y0176800D03*
X0283200Y0166800D03*
X0283200Y0156800D03*
X0283200Y0146800D03*
X0283200Y0136800D03*
X0272300Y0136800D03*
X0272300Y0146800D03*
X0272300Y0156800D03*
X0272300Y0166800D03*
X0272300Y0176800D03*
X0272300Y0186800D03*
X0272300Y0196800D03*
X0261400Y0196800D03*
X0261400Y0186800D03*
X0261400Y0176800D03*
X0261400Y0166800D03*
X0261400Y0156800D03*
X0261400Y0146800D03*
X0261400Y0136800D03*
X0098800Y0180800D03*
X0098800Y0190800D03*
D14*
X0205599Y0095800D03*
X0218001Y0095800D03*
D15*
X0216820Y0090682D03*
X0216820Y0100918D03*
X0206780Y0100918D03*
X0206780Y0090682D03*
D16*
X0113800Y0120060D03*
X0113800Y0127540D03*
X0114800Y0179060D03*
X0114800Y0186540D03*
D17*
X0230142Y0143911D02*
X0233458Y0143911D01*
X0233458Y0140595D01*
X0230142Y0140595D01*
X0230142Y0143911D01*
X0230142Y0142015D02*
X0233458Y0142015D01*
X0233458Y0143435D02*
X0230142Y0143435D01*
X0230142Y0137005D02*
X0233458Y0137005D01*
X0233458Y0133689D01*
X0230142Y0133689D01*
X0230142Y0137005D01*
X0230142Y0135109D02*
X0233458Y0135109D01*
X0233458Y0136529D02*
X0230142Y0136529D01*
D18*
X0177241Y0147036D03*
X0177241Y0149005D03*
X0177241Y0150973D03*
X0177241Y0152942D03*
X0177241Y0154910D03*
X0177241Y0156879D03*
X0177241Y0158847D03*
X0177241Y0160816D03*
X0177241Y0162784D03*
X0177241Y0164753D03*
X0177241Y0166721D03*
X0177241Y0168690D03*
X0177241Y0170658D03*
X0177241Y0172627D03*
X0177241Y0174595D03*
X0177241Y0176564D03*
X0132359Y0176564D03*
X0132359Y0174595D03*
X0132359Y0172627D03*
X0132359Y0170658D03*
X0132359Y0168690D03*
X0132359Y0166721D03*
X0132359Y0164753D03*
X0132359Y0162784D03*
X0132359Y0160816D03*
X0132359Y0158847D03*
X0132359Y0156879D03*
X0132359Y0154910D03*
X0132359Y0152942D03*
X0132359Y0150973D03*
X0132359Y0149005D03*
X0132359Y0147036D03*
D19*
X0140036Y0139359D03*
X0142005Y0139359D03*
X0143973Y0139359D03*
X0145942Y0139359D03*
X0147910Y0139359D03*
X0149879Y0139359D03*
X0151847Y0139359D03*
X0153816Y0139359D03*
X0155784Y0139359D03*
X0157753Y0139359D03*
X0159721Y0139359D03*
X0161690Y0139359D03*
X0163658Y0139359D03*
X0165627Y0139359D03*
X0167595Y0139359D03*
X0169564Y0139359D03*
X0169564Y0184241D03*
X0167595Y0184241D03*
X0165627Y0184241D03*
X0163658Y0184241D03*
X0161690Y0184241D03*
X0159721Y0184241D03*
X0157753Y0184241D03*
X0155784Y0184241D03*
X0153816Y0184241D03*
X0151847Y0184241D03*
X0149879Y0184241D03*
X0147910Y0184241D03*
X0145942Y0184241D03*
X0143973Y0184241D03*
X0142005Y0184241D03*
X0140036Y0184241D03*
D20*
X0209993Y0120737D03*
X0209993Y0118769D03*
X0209993Y0116800D03*
X0209993Y0114831D03*
X0209993Y0112863D03*
X0221607Y0112863D03*
X0221607Y0114831D03*
X0221607Y0116800D03*
X0221607Y0118769D03*
X0221607Y0120737D03*
D21*
X0216784Y0122706D03*
X0214816Y0122706D03*
X0214816Y0110894D03*
X0216784Y0110894D03*
D22*
X0215800Y0116800D03*
D23*
X0161083Y0119800D03*
X0146517Y0119800D03*
D24*
X0189517Y0139272D03*
X0189517Y0148328D03*
X0204083Y0148328D03*
X0204083Y0139272D03*
X0200783Y0246372D03*
X0200783Y0255428D03*
X0186217Y0255428D03*
X0186217Y0246372D03*
D25*
X0185800Y0092800D03*
X0175800Y0092800D03*
X0165800Y0092800D03*
X0155800Y0092800D03*
X0145800Y0092800D03*
X0135800Y0092800D03*
X0125800Y0092800D03*
X0115800Y0092800D03*
X0105800Y0092800D03*
X0195800Y0092800D03*
D26*
X0166000Y0204779D03*
X0166000Y0214621D03*
X0112700Y0249279D03*
X0112700Y0259121D03*
D27*
X0124141Y0246200D03*
X0129259Y0246200D03*
D28*
X0112700Y0232759D03*
X0112700Y0227641D03*
X0102500Y0227741D03*
X0102500Y0232859D03*
D29*
X0141772Y0236083D03*
X0150828Y0236083D03*
X0150828Y0221517D03*
X0141772Y0221517D03*
D30*
X0209813Y0225161D03*
X0214538Y0225161D03*
X0219262Y0225161D03*
X0223987Y0225161D03*
X0223987Y0207839D03*
X0219262Y0207839D03*
X0214538Y0207839D03*
X0209813Y0207839D03*
D31*
X0210113Y0183334D02*
X0210113Y0181878D01*
X0211687Y0181878D02*
X0211687Y0183334D01*
X0213262Y0183334D02*
X0213262Y0181878D01*
X0214837Y0181878D02*
X0214837Y0183334D01*
X0216078Y0180637D02*
X0217534Y0180637D01*
X0217534Y0179062D02*
X0216078Y0179062D01*
X0216078Y0177487D02*
X0217534Y0177487D01*
X0217534Y0175913D02*
X0216078Y0175913D01*
X0216078Y0174338D02*
X0217534Y0174338D01*
X0217534Y0172763D02*
X0216078Y0172763D01*
X0214837Y0171522D02*
X0214837Y0170066D01*
X0213262Y0170066D02*
X0213262Y0171522D01*
X0211687Y0171522D02*
X0211687Y0170066D01*
X0210113Y0170066D02*
X0210113Y0171522D01*
X0208538Y0171522D02*
X0208538Y0170066D01*
X0206963Y0170066D02*
X0206963Y0171522D01*
X0205722Y0172763D02*
X0204266Y0172763D01*
X0204266Y0174338D02*
X0205722Y0174338D01*
X0205722Y0175913D02*
X0204266Y0175913D01*
X0204266Y0177487D02*
X0205722Y0177487D01*
X0205722Y0179062D02*
X0204266Y0179062D01*
X0204266Y0180637D02*
X0205722Y0180637D01*
X0206963Y0181878D02*
X0206963Y0183334D01*
X0208538Y0183334D02*
X0208538Y0181878D01*
D32*
X0104690Y0123658D03*
X0104690Y0111847D03*
X0104690Y0105942D03*
D33*
X0093863Y0100430D03*
X0093863Y0129170D03*
D34*
X0102131Y0129170D03*
X0102131Y0100430D03*
D35*
X0097800Y0108894D03*
X0097800Y0120706D03*
D36*
X0119613Y0209363D03*
X0119613Y0211331D03*
X0119613Y0213300D03*
X0119613Y0215269D03*
X0119613Y0217237D03*
X0133787Y0217237D03*
X0133787Y0215269D03*
X0133787Y0213300D03*
X0133787Y0211331D03*
X0133787Y0209363D03*
X0182945Y0209910D03*
X0182945Y0211879D03*
X0182945Y0213847D03*
X0182945Y0215816D03*
X0182945Y0217784D03*
X0182945Y0219753D03*
X0182945Y0221721D03*
X0182945Y0223690D03*
X0201055Y0223690D03*
X0201055Y0221721D03*
X0201055Y0219753D03*
X0201055Y0217784D03*
X0201055Y0215816D03*
X0201055Y0213847D03*
X0201055Y0211879D03*
X0201055Y0209910D03*
D37*
X0198890Y0207745D03*
X0196921Y0207745D03*
X0194953Y0207745D03*
X0192984Y0207745D03*
X0191016Y0207745D03*
X0189047Y0207745D03*
X0187079Y0207745D03*
X0185110Y0207745D03*
X0185110Y0225855D03*
X0187079Y0225855D03*
X0189047Y0225855D03*
X0191016Y0225855D03*
X0192984Y0225855D03*
X0194953Y0225855D03*
X0196921Y0225855D03*
X0198890Y0225855D03*
X0130637Y0220387D03*
X0128669Y0220387D03*
X0126700Y0220387D03*
X0124731Y0220387D03*
X0122763Y0220387D03*
X0122763Y0206213D03*
X0124731Y0206213D03*
X0126700Y0206213D03*
X0128669Y0206213D03*
X0130637Y0206213D03*
D38*
X0192000Y0216800D03*
D39*
X0197100Y0222900D03*
X0204300Y0231000D03*
X0211400Y0233200D03*
X0209600Y0221700D03*
X0212000Y0212200D03*
X0210400Y0201000D03*
X0207300Y0188500D03*
X0198800Y0173300D03*
X0206500Y0165400D03*
X0202300Y0160500D03*
X0195600Y0162100D03*
X0188000Y0172900D03*
X0173100Y0183900D03*
X0176000Y0192100D03*
X0166800Y0173800D03*
X0169700Y0164100D03*
X0170800Y0146800D03*
X0145300Y0168200D03*
X0132800Y0186800D03*
X0133000Y0194300D03*
X0137800Y0200800D03*
X0144800Y0195800D03*
X0157800Y0199800D03*
X0176800Y0227800D03*
X0164100Y0238100D03*
X0139500Y0249100D03*
X0119800Y0234800D03*
X0126800Y0200800D03*
X0200200Y0118700D03*
X0212200Y0132900D03*
X0212200Y0146900D03*
X0231900Y0149200D03*
X0223800Y0182200D03*
X0221400Y0189200D03*
X0224200Y0203300D03*
X0223700Y0213600D03*
X0221700Y0220600D03*
X0231300Y0219700D03*
X0283200Y0136800D03*
X0242900Y0093000D03*
X0242900Y0083000D03*
X0216800Y0082800D03*
X0199800Y0076800D03*
X0175800Y0112800D03*
X0114100Y0112800D03*
X0106000Y0083300D03*
D40*
X0137800Y0133800D03*
X0151800Y0145800D03*
X0123800Y0159800D03*
X0114800Y0154800D03*
X0114800Y0145800D03*
X0110800Y0172800D03*
X0121800Y0187800D03*
X0194800Y0124800D03*
X0215800Y0117800D03*
M02*
