%
M48
M72
T01C0.02362
T02C0.02400
T03C0.03543
T04C0.04000
%
T01
X106000Y83300
X114100Y112800
X145300Y168200
X166800Y173800
X173100Y183900
X176000Y192100
X188000Y172900
X198800Y173300
X206500Y165400
X202300Y160500
X195600Y162100
X212200Y146900
X212200Y132900
X200200Y118700
X175800Y112800
X170800Y146800
X169700Y164100
X144800Y195800
X137800Y200800
X133000Y194300
X132800Y186800
X126800Y200800
X157800Y199800
X176800Y227800
X164100Y238100
X139500Y249100
X119800Y234800
X197100Y222900
X204300Y231000
X211400Y233200
X209600Y221700
X212000Y212200
X210400Y201000
X207300Y188500
X221400Y189200
X223800Y182200
X224200Y203300
X223700Y213600
X221700Y220600
X231300Y219700
X231900Y149200
X283200Y136800
X242900Y93000
X242900Y83000
X216800Y82800
X199800Y76800
T02
X215800Y117800
X194800Y124800
X151800Y145800
X137800Y133800
X114800Y145800
X114800Y154800
X123800Y159800
X110800Y172800
X121800Y187800
T03
X97800Y108894
X97800Y120706
T04
X105800Y92800
X115800Y92800
X125800Y92800
X135800Y92800
X145800Y92800
X155800Y92800
X165800Y92800
X175800Y92800
X185800Y92800
X195800Y92800
X261400Y136800
X261400Y146800
X261400Y156800
X261400Y166800
X261400Y176800
X261400Y186800
X261400Y196800
X261400Y206800
X272300Y206800
X272300Y196800
X272300Y186800
X272300Y176800
X272300Y166800
X272300Y156800
X272300Y146800
X272300Y136800
X283200Y136800
X283200Y146800
X283200Y156800
X283200Y166800
X283200Y176800
X283200Y186800
X283200Y196800
X283200Y206800
X98800Y190800
X98800Y180800
M30
