%
M48
M72
T01C0.02000
T02C0.02362
T03C0.03543
T04C0.04000
%
T01
X127500Y97500
X152500Y111500
X170500Y127500
X170500Y137500
X179500Y137500
X201500Y134500
X207500Y130500
X210500Y136500
X225500Y131500
X209500Y114500
X191500Y105500
X190500Y114500
X183500Y114500
X175500Y109500
X154500Y131500
X149500Y129500
X132500Y134500
X122500Y127500
X110500Y131500
X141500Y153500
X148500Y152500
X154500Y152500
X153500Y160500
X149500Y165500
X161500Y164500
X166500Y164500
X172500Y160500
X182500Y164500
X182500Y171500
X187500Y171500
X189500Y176500
X184500Y180500
X192500Y184500
X200500Y190500
X205500Y193500
X211500Y190500
X211500Y182500
X217500Y177500
X222500Y181500
X210500Y166500
X199500Y172500
X191500Y164500
X171500Y183500
X166500Y179500
X156500Y183500
X150500Y182500
X145500Y181500
X143500Y176500
X144000Y190000
X137000Y189500
X128500Y186500
X128500Y192500
X121500Y191500
X130500Y199500
X110500Y216500
X114500Y177500
X157000Y210500
X162500Y223500
X158500Y232500
X177500Y208500
X170500Y197500
X166500Y190500
X177500Y190500
X201500Y211500
X211500Y211500
X207500Y222500
X214500Y228500
X198500Y229500
X195500Y225500
X225500Y162500
X221500Y158500
T02
X201000Y183500
X147000Y214500
T03
X139406Y103500
X127594Y103500
T04
X96800Y100500
X108200Y100500
X97500Y114500
X97500Y124500
X97500Y134500
X97500Y144500
X97500Y154500
X97500Y164500
X97500Y174500
X97500Y184500
X97500Y194500
X97500Y204500
X97500Y214500
X97500Y224500
X96800Y238500
X108200Y238500
X224800Y238500
X236200Y238500
X235500Y209500
X235500Y199500
X235500Y189500
X235500Y179500
X235500Y169500
X235500Y159500
X235500Y149500
X235500Y139500
X235500Y129500
X236200Y100500
X224800Y100500
X172200Y100500
X160800Y100500
M30
