G04 ================== begin FILE IDENTIFICATION RECORD ==================*
G04 Layout Name:  E:/git/clay/Circuit/R6_1/allegro_c6r3/CLAYc6r3.brd*
G04 Film Name:    SILK_BOTTOM*
G04 File Format:  Gerber RS274X*
G04 File Origin:  Cadence Allegro 16.6-P004*
G04 Origin Date:  Sun Mar 06 08:34:24 2016*
G04 *
G04 Layer:  REF DES/SILKSCREEN_BOTTOM*
G04 Layer:  PACKAGE GEOMETRY/SILKSCREEN_BOTTOM*
G04 Layer:  BOARD GEOMETRY/SILKSCREEN_BOTTOM*
G04 *
G04 Offset:    (0.00 0.00)*
G04 Mirror:    No*
G04 Mode:      Positive*
G04 Rotation:  0*
G04 FullContactRelief:  No*
G04 UndefLineWidth:     10.00*
G04 ================== end FILE IDENTIFICATION RECORD ====================*
%FSLAX25Y25*MOIN*%
%IR0*IPPOS*OFA0.00000B0.00000*MIA0B0*SFA1.00000B1.00000*%
%ADD10C,.012*%
%ADD11C,.017*%
G75*
%LPD*%
G75*
G54D10*
G01X29410Y-64657D02*
X33040Y-61027D01*
G01X32314Y-61753D02*
X32382Y-61096D01*
X32360Y-60529D01*
X32038Y-60026D01*
X31653Y-59822D01*
X31027Y-59740D01*
G01X27464Y-57811D02*
X25579Y-55925D01*
X26391Y-55467D01*
X27048Y-55399D01*
X27642Y-55630D01*
X27964Y-56133D01*
X28045Y-56759D01*
X27646Y-57630D01*
X27219Y-58292D01*
X26675Y-58836D01*
X26012Y-59263D01*
X25173Y-59513D01*
X24457Y-59522D01*
X23953Y-59200D01*
X23722Y-58606D01*
X23854Y-57650D01*
G01X21443Y-56690D02*
X25073Y-53060D01*
G01X24075Y-54058D02*
X24352Y-53428D01*
X24420Y-52770D01*
X24189Y-52176D01*
X23595Y-51945D01*
X22937Y-52014D01*
X22307Y-52291D01*
X19675Y-54922D01*
G01X22307Y-52291D02*
X22584Y-51660D01*
X22652Y-51003D01*
X22421Y-50409D01*
X21827Y-50178D01*
X21170Y-50246D01*
X20448Y-50614D01*
X17907Y-53154D01*
G01X15220Y-50467D02*
X15664Y-50730D01*
X16381Y-50721D01*
X17252Y-50321D01*
X18096Y-49713D01*
X18704Y-48869D01*
X19103Y-47998D01*
X19113Y-47282D01*
X18850Y-46838D01*
X18406Y-46575D01*
X17689Y-46584D01*
X16818Y-46984D01*
X16033Y-47651D01*
X15366Y-48436D01*
X14967Y-49306D01*
X14957Y-50023D01*
X15220Y-50467D01*
G01X16210Y-40568D02*
X10765Y-46012D01*
G01X15220Y-43207D02*
X13570Y-41558D01*
G01X9644Y-39991D02*
X7759Y-38105D01*
X8571Y-37647D01*
X9228Y-37579D01*
X9822Y-37810D01*
X10144Y-38313D01*
X10225Y-38939D01*
X9826Y-39810D01*
X9399Y-40472D01*
X8855Y-41016D01*
X8192Y-41443D01*
X7353Y-41693D01*
X6637Y-41702D01*
X6133Y-41380D01*
X5902Y-40786D01*
X6034Y-39830D01*
G01X50540Y-43645D02*
X49883Y-43713D01*
X49198Y-43573D01*
X48844Y-43219D01*
X48672Y-42684D01*
X48709Y-42177D01*
X48954Y-41696D01*
X49558Y-41210D01*
X50065Y-41174D01*
X51670Y-41690D01*
X52542Y-41290D01*
X52877Y-40719D01*
X52914Y-40211D01*
X52651Y-39767D01*
X52207Y-39504D01*
X51581Y-39422D01*
G01X49669Y-36785D02*
X45332Y-39707D01*
X48196Y-35312D01*
X43800Y-38175D01*
X46723Y-33838D01*
G01X43741Y-30857D02*
X40111Y-34486D01*
G01X45193Y-29405D02*
X45401Y-29432D01*
X45583Y-29250D01*
X45556Y-29042D01*
X45347Y-29014D01*
X45166Y-29196D01*
X45193Y-29405D01*
G01X41101Y-24587D02*
X35656Y-30031D01*
G01X40111Y-27226D02*
X38461Y-25577D01*
G01X33435Y-21457D02*
X34210Y-21507D01*
X34654Y-21770D01*
X34944Y-22423D01*
X34935Y-23139D01*
X34535Y-24010D01*
X33959Y-24704D01*
X33265Y-25280D01*
X32485Y-25589D01*
X31677Y-25689D01*
X31024Y-25399D01*
X30793Y-24805D01*
X30803Y-24089D01*
G01X27748Y-22123D02*
X33193Y-16678D01*
G01X30561Y-19310D02*
X30720Y-18562D01*
X30698Y-17995D01*
X30317Y-17433D01*
X29873Y-17170D01*
X29097Y-17120D01*
X28376Y-17488D01*
X25744Y-20119D01*
G01X70976Y-23209D02*
X70319Y-23277D01*
X69634Y-23137D01*
X69280Y-22783D01*
X69108Y-22248D01*
X69145Y-21741D01*
X69390Y-21260D01*
X69994Y-20774D01*
X70501Y-20738D01*
X72106Y-21254D01*
X72978Y-20854D01*
X73313Y-20283D01*
X73350Y-19775D01*
X73087Y-19331D01*
X72643Y-19068D01*
X72017Y-18986D01*
G01X68336Y-16939D02*
X66451Y-15053D01*
X67263Y-14595D01*
X67920Y-14527D01*
X68514Y-14758D01*
X68836Y-15261D01*
X68917Y-15887D01*
X68518Y-16758D01*
X68091Y-17420D01*
X67547Y-17964D01*
X66884Y-18391D01*
X66045Y-18641D01*
X65329Y-18650D01*
X64825Y-18328D01*
X64594Y-17734D01*
X64726Y-16778D01*
G01X61549Y-15052D02*
X65179Y-11422D01*
G01X64271Y-12330D02*
X64489Y-11640D01*
X64499Y-10924D01*
X64118Y-10362D01*
X63615Y-10040D01*
X62898Y-10049D01*
X62086Y-10508D01*
X59545Y-13048D01*
G01X57611Y-9844D02*
X56954Y-9912D01*
X56269Y-9772D01*
X55915Y-9418D01*
X55743Y-8883D01*
X55780Y-8376D01*
X56025Y-7895D01*
X56629Y-7409D01*
X57136Y-7373D01*
X58741Y-7889D01*
X59613Y-7489D01*
X59948Y-6918D01*
X59985Y-6410D01*
X59722Y-5966D01*
X59278Y-5703D01*
X58652Y-5621D01*
G01X51637Y-5140D02*
X52081Y-5403D01*
X52798Y-5394D01*
X53669Y-4994D01*
X54513Y-4386D01*
X55121Y-3542D01*
X55520Y-2671D01*
X55530Y-1955D01*
X55267Y-1511D01*
X54823Y-1248D01*
X54106Y-1257D01*
X53235Y-1657D01*
X52450Y-2324D01*
X51783Y-3109D01*
X51384Y-3979D01*
X51374Y-4696D01*
X51637Y-5140D01*
G01X48007Y-1510D02*
X51637Y2120D01*
G01X50911Y1394D02*
X50979Y2051D01*
X50957Y2618D01*
X50635Y3121D01*
X50250Y3325D01*
X49624Y3407D01*
G54D11*
G01X20700Y-73486D02*
X20043Y-73554D01*
X19358Y-73414D01*
X19004Y-73060D01*
X18832Y-72525D01*
X18869Y-72018D01*
X19114Y-71537D01*
X19718Y-71051D01*
X20225Y-71015D01*
X21830Y-71531D01*
X22702Y-71131D01*
X23037Y-70560D01*
X23074Y-70052D01*
X22811Y-69608D01*
X22367Y-69345D01*
X21741Y-69263D01*
G01X18060Y-67216D02*
X16175Y-65330D01*
X16987Y-64872D01*
X17644Y-64804D01*
X18238Y-65035D01*
X18560Y-65538D01*
X18641Y-66164D01*
X18242Y-67035D01*
X17815Y-67697D01*
X17271Y-68241D01*
X16608Y-68668D01*
X15769Y-68918D01*
X15053Y-68927D01*
X14549Y-68605D01*
X14318Y-68011D01*
X14450Y-67055D01*
G01X10271Y-64327D02*
X15716Y-58883D01*
G01X9150Y-58306D02*
X7265Y-56420D01*
X8077Y-55962D01*
X8734Y-55894D01*
X9328Y-56125D01*
X9650Y-56628D01*
X9731Y-57254D01*
X9332Y-58125D01*
X8905Y-58787D01*
X8361Y-59331D01*
X7698Y-59758D01*
X6859Y-60008D01*
X6143Y-60017D01*
X5639Y-59695D01*
X5408Y-59101D01*
X5540Y-58145D01*
G01X3595Y-51298D02*
X4370Y-51348D01*
X4814Y-51611D01*
X5104Y-52264D01*
X5095Y-52980D01*
X4695Y-53851D01*
X4119Y-54545D01*
X3425Y-55121D01*
X2645Y-55430D01*
X1837Y-55530D01*
X1184Y-55240D01*
X953Y-54646D01*
X963Y-53930D01*
G01X2351Y-45518D02*
X-3094Y-50962D01*
G01X1361Y-48157D02*
X-289Y-46508D01*
G01X-12004Y-42052D02*
X-11560Y-42315D01*
X-10843Y-42306D01*
X-9972Y-41906D01*
X-9128Y-41298D01*
X-8520Y-40454D01*
X-8121Y-39583D01*
X-8111Y-38867D01*
X-8374Y-38423D01*
X-8818Y-38160D01*
X-9535Y-38169D01*
X-10406Y-38569D01*
X-11191Y-39236D01*
X-11858Y-40021D01*
X-12257Y-40891D01*
X-12267Y-41608D01*
X-12004Y-42052D01*
G01X-15457Y-38599D02*
X-11827Y-34969D01*
G01X-12735Y-35877D02*
X-12517Y-35187D01*
X-12507Y-34471D01*
X-12888Y-33909D01*
X-13391Y-33587D01*
X-14108Y-33596D01*
X-14920Y-34055D01*
X-17461Y-36595D01*
G01X-26429Y-27627D02*
X-22800Y-23997D01*
G01X-23435Y-24632D02*
X-22836Y-24505D01*
X-22301Y-24677D01*
X-21798Y-24999D01*
X-21567Y-25593D01*
X-21576Y-26309D01*
X-21885Y-27089D01*
X-22493Y-27933D01*
X-23337Y-28541D01*
X-24117Y-28850D01*
X-24834Y-28859D01*
X-25428Y-28628D01*
X-25749Y-28125D01*
X-25831Y-27499D01*
X-25704Y-26901D01*
G01X-28822Y-25234D02*
X-25192Y-21604D01*
G01X-26100Y-22512D02*
X-25882Y-21822D01*
X-25872Y-21106D01*
X-26253Y-20544D01*
X-26756Y-20222D01*
X-27473Y-20231D01*
X-28285Y-20690D01*
X-30826Y-23230D01*
G01X-34279Y-19777D02*
X-33835Y-20040D01*
X-33118Y-20031D01*
X-32247Y-19631D01*
X-31403Y-19023D01*
X-30795Y-18179D01*
X-30396Y-17308D01*
X-30386Y-16592D01*
X-30649Y-16148D01*
X-31093Y-15885D01*
X-31810Y-15894D01*
X-32681Y-16294D01*
X-33466Y-16961D01*
X-34133Y-17746D01*
X-34532Y-18616D01*
X-34542Y-19333D01*
X-34279Y-19777D01*
G01X-33289Y-9878D02*
X-38734Y-15322D01*
G01X-34279Y-12517D02*
X-35929Y-10868D01*
G01X-42187Y-11869D02*
X-36742Y-6424D01*
G01X-39374Y-9056D02*
X-39215Y-8308D01*
X-39237Y-7741D01*
X-39618Y-7179D01*
X-40062Y-6916D01*
X-40838Y-6866D01*
X-41559Y-7234D01*
X-44191Y-9865D01*
G01X-44310Y-4846D02*
X-46195Y-2960D01*
X-45383Y-2502D01*
X-44726Y-2434D01*
X-44132Y-2665D01*
X-43810Y-3168D01*
X-43729Y-3794D01*
X-44128Y-4665D01*
X-44555Y-5327D01*
X-45099Y-5871D01*
X-45762Y-6298D01*
X-46601Y-6548D01*
X-47317Y-6557D01*
X-47821Y-6235D01*
X-48052Y-5641D01*
X-47920Y-4685D01*
G01X-51274Y-2782D02*
X-47644Y848D01*
G01X-48370Y122D02*
X-48302Y779D01*
X-48324Y1346D01*
X-48646Y1849D01*
X-49031Y2053D01*
X-49657Y2135D01*
G01X-57314Y13240D02*
X-56688Y13159D01*
X-56094Y12928D01*
X-55623Y12456D01*
X-55365Y11654D01*
X-55406Y10788D01*
X-55656Y9948D01*
X-56328Y8805D01*
X-57085Y7930D01*
X-58020Y7231D01*
X-58741Y6863D01*
X-59639Y6672D01*
X-60415Y6722D01*
X-61009Y6953D01*
X-61421Y7365D01*
X-61652Y7959D01*
X-61734Y8585D01*
X-61665Y9243D01*
G01X-65464Y11408D02*
X-60019Y16852D01*
G01X-70979Y16923D02*
X-67350Y20553D01*
G01X-67985Y19918D02*
X-67386Y20045D01*
X-66851Y19873D01*
X-66348Y19551D01*
X-66117Y18957D01*
X-66126Y18241D01*
X-66435Y17461D01*
X-67043Y16617D01*
X-67887Y16009D01*
X-68667Y15700D01*
X-69384Y15691D01*
X-69978Y15922D01*
X-70299Y16425D01*
X-70381Y17051D01*
X-70254Y17649D01*
G01X-74770Y17447D02*
X-75305Y17619D01*
X-75595Y18272D01*
X-75526Y18929D01*
X-75308Y19619D01*
X-74210Y21424D01*
X-71982Y25185D01*
G01X-70096Y23299D02*
X-74210Y21424D01*
G01X-46503Y-60749D02*
X-41875Y-56121D01*
X-41539Y-55549D01*
X-41503Y-55041D01*
X-41766Y-54597D01*
X-42301Y-54425D01*
X-42931Y-54702D01*
G01X-43767Y-56952D02*
X-42588Y-58130D01*
G01X-51312Y-55940D02*
X-45867Y-50496D01*
G01X-52137Y-47856D02*
X-55767Y-51485D01*
G01X-50685Y-46404D02*
X-50477Y-46431D01*
X-50295Y-46249D01*
X-50322Y-46041D01*
X-50531Y-46013D01*
X-50712Y-46195D01*
X-50685Y-46404D01*
G01X-60976Y-49906D02*
X-55531Y-44461D01*
G01X-56348Y-45278D02*
X-56189Y-44529D01*
X-56211Y-43963D01*
X-56592Y-43401D01*
X-57095Y-43079D01*
X-57961Y-43120D01*
X-58773Y-43578D01*
X-59468Y-44155D01*
X-60044Y-44849D01*
X-60502Y-45661D01*
X-60512Y-46377D01*
X-60222Y-47030D01*
X-59719Y-47352D01*
X-59034Y-47492D01*
X-58435Y-47365D01*
G01X40619Y-53803D02*
X46064Y-48358D01*
G01X43432Y-50990D02*
X43591Y-50242D01*
X43569Y-49675D01*
X43188Y-49113D01*
X42744Y-48850D01*
X41968Y-48800D01*
X41247Y-49168D01*
X38615Y-51799D01*
G01X35162Y-48346D02*
X35606Y-48609D01*
X36323Y-48600D01*
X37194Y-48200D01*
X38038Y-47592D01*
X38646Y-46748D01*
X39045Y-45877D01*
X39055Y-45161D01*
X38792Y-44717D01*
X38348Y-44454D01*
X37631Y-44463D01*
X36760Y-44863D01*
X35975Y-45530D01*
X35308Y-46315D01*
X34909Y-47185D01*
X34899Y-47902D01*
X35162Y-48346D01*
G01X30707Y-43891D02*
X36152Y-38447D01*
G01X30636Y-32931D02*
X25192Y-38376D01*
G01X26008Y-37559D02*
X25790Y-38248D01*
X25872Y-38874D01*
X26193Y-39377D01*
X26846Y-39667D01*
X27653Y-39567D01*
X28434Y-39258D01*
X29128Y-38682D01*
X29704Y-37988D01*
X30013Y-37208D01*
X30113Y-36400D01*
X29823Y-35748D01*
X29320Y-35426D01*
X28844Y-35313D01*
X28186Y-35381D01*
G01X18403Y-31587D02*
X23848Y-26142D01*
G01X21125Y-28865D02*
X21375Y-28025D01*
X21294Y-27400D01*
X21031Y-26955D01*
X20319Y-26607D01*
X19603Y-26616D01*
X18732Y-27015D01*
X18006Y-27741D01*
X17398Y-28585D01*
X17089Y-29365D01*
X17138Y-30141D01*
X17401Y-30585D01*
X17845Y-30848D01*
X18471Y-30929D01*
X19219Y-30770D01*
G01X17519Y-23443D02*
X14978Y-25984D01*
X14107Y-26384D01*
X13390Y-26393D01*
X12887Y-26071D01*
X12566Y-25568D01*
X12575Y-24852D01*
X12974Y-23981D01*
G01X11885Y-25069D02*
X15515Y-21440D01*
G01X13877Y-16172D02*
X8432Y-21616D01*
G01X12887Y-18811D02*
X11237Y-17162D01*
G01X9422Y-11717D02*
X3977Y-17161D01*
G01X8432Y-14356D02*
X6782Y-12707D01*
G01X-478Y-12706D02*
X-34Y-12969D01*
X683Y-12960D01*
X1554Y-12560D01*
X2398Y-11952D01*
X3006Y-11108D01*
X3405Y-10237D01*
X3415Y-9521D01*
X3152Y-9077D01*
X2708Y-8814D01*
X1991Y-8823D01*
X1120Y-9223D01*
X335Y-9890D01*
X-332Y-10675D01*
X-731Y-11545D01*
X-741Y-12262D01*
X-478Y-12706D01*
G01X-3931Y-9253D02*
X-301Y-5623D01*
G01X-1209Y-6531D02*
X-991Y-5841D01*
X-981Y-5125D01*
X-1362Y-4563D01*
X-1865Y-4241D01*
X-2582Y-4250D01*
X-3394Y-4709D01*
X-5935Y-7249D01*
G01X-8398Y6103D02*
X-13843Y659D01*
G01X-9388Y3464D02*
X-11038Y5113D01*
G01X-17296Y4112D02*
X-11851Y9557D01*
G01X-14483Y6925D02*
X-14324Y7673D01*
X-14346Y8240D01*
X-14727Y8802D01*
X-15171Y9065D01*
X-15947Y9115D01*
X-16668Y8747D01*
X-19300Y6116D01*
G01X-19419Y11135D02*
X-21304Y13021D01*
X-20492Y13479D01*
X-19835Y13547D01*
X-19241Y13316D01*
X-18919Y12813D01*
X-18838Y12187D01*
X-19237Y11316D01*
X-19664Y10654D01*
X-20208Y10110D01*
X-20871Y9683D01*
X-21710Y9433D01*
X-22426Y9424D01*
X-22930Y9746D01*
X-23161Y10340D01*
X-23029Y11296D01*
G01X-26206Y13022D02*
X-22576Y16652D01*
G01X-23484Y15744D02*
X-23266Y16434D01*
X-23256Y17150D01*
X-23637Y17712D01*
X-24140Y18034D01*
X-24857Y18025D01*
X-25669Y17566D01*
X-28210Y15026D01*
G01X-34599Y22685D02*
X-35256Y22617D01*
X-35941Y22757D01*
X-36295Y23111D01*
X-36467Y23646D01*
X-36430Y24153D01*
X-36185Y24634D01*
X-35581Y25120D01*
X-35074Y25156D01*
X-33469Y24640D01*
X-32597Y25040D01*
X-32262Y25611D01*
X-32225Y26119D01*
X-32488Y26563D01*
X-32932Y26826D01*
X-33558Y26908D01*
G01X-37239Y28955D02*
X-39124Y30841D01*
X-38312Y31299D01*
X-37655Y31367D01*
X-37061Y31136D01*
X-36739Y30633D01*
X-36658Y30007D01*
X-37057Y29136D01*
X-37484Y28474D01*
X-38028Y27930D01*
X-38691Y27503D01*
X-39530Y27253D01*
X-40246Y27244D01*
X-40750Y27566D01*
X-40981Y28160D01*
X-40849Y29116D01*
G01X-45028Y31844D02*
X-39583Y37288D01*
G01X-46149Y37865D02*
X-48034Y39751D01*
X-47222Y40209D01*
X-46565Y40277D01*
X-45971Y40046D01*
X-45649Y39543D01*
X-45568Y38917D01*
X-45967Y38046D01*
X-46394Y37384D01*
X-46938Y36840D01*
X-47601Y36413D01*
X-48440Y36163D01*
X-49156Y36154D01*
X-49660Y36476D01*
X-49891Y37070D01*
X-49759Y38026D01*
G01X-51704Y44873D02*
X-50929Y44823D01*
X-50485Y44560D01*
X-50195Y43907D01*
X-50204Y43191D01*
X-50604Y42320D01*
X-51180Y41626D01*
X-51874Y41050D01*
X-52654Y40741D01*
X-53462Y40641D01*
X-54115Y40931D01*
X-54346Y41525D01*
X-54336Y42241D01*
G01X-52948Y50653D02*
X-58393Y45209D01*
G01X-53938Y48014D02*
X-55588Y49663D01*
G01X59298Y-35241D02*
X64743Y-29796D01*
G01X63926Y-30613D02*
X64085Y-29864D01*
X64063Y-29298D01*
X63682Y-28736D01*
X63179Y-28414D01*
X62313Y-28455D01*
X61501Y-28913D01*
X60806Y-29490D01*
X60230Y-30184D01*
X59772Y-30996D01*
X59762Y-31712D01*
X60052Y-32365D01*
X60555Y-32687D01*
X61240Y-32827D01*
X61839Y-32700D01*
G01X56422Y-28735D02*
X60052Y-25105D01*
G01X59326Y-25831D02*
X59394Y-25174D01*
X59372Y-24607D01*
X59050Y-24104D01*
X58665Y-23900D01*
X58039Y-23818D01*
G01X54476Y-21889D02*
X52591Y-20003D01*
X53403Y-19545D01*
X54060Y-19477D01*
X54654Y-19708D01*
X54976Y-20211D01*
X55057Y-20837D01*
X54658Y-21708D01*
X54231Y-22370D01*
X53687Y-22914D01*
X53024Y-23341D01*
X52185Y-23591D01*
X51469Y-23600D01*
X50965Y-23278D01*
X50734Y-22684D01*
X50866Y-21728D01*
G01X48206Y-19249D02*
X47549Y-19317D01*
X46864Y-19177D01*
X46510Y-18823D01*
X46338Y-18288D01*
X46375Y-17781D01*
X46620Y-17300D01*
X47224Y-16814D01*
X47731Y-16778D01*
X49336Y-17294D01*
X50208Y-16894D01*
X50543Y-16323D01*
X50580Y-15815D01*
X50317Y-15371D01*
X49873Y-15108D01*
X49247Y-15026D01*
G01X43751Y-14794D02*
X43094Y-14862D01*
X42409Y-14722D01*
X42055Y-14368D01*
X41883Y-13833D01*
X41920Y-13326D01*
X42165Y-12845D01*
X42769Y-12359D01*
X43276Y-12323D01*
X44881Y-12839D01*
X45753Y-12439D01*
X46088Y-11868D01*
X46125Y-11360D01*
X45862Y-10916D01*
X45418Y-10653D01*
X44792Y-10571D01*
G01X34383Y-6696D02*
X39828Y-1251D01*
G01X37105Y-3974D02*
X37355Y-3134D01*
X37274Y-2509D01*
X37011Y-2064D01*
X36299Y-1716D01*
X35583Y-1725D01*
X34712Y-2124D01*
X33986Y-2850D01*
X33378Y-3694D01*
X33069Y-4474D01*
X33118Y-5250D01*
X33381Y-5694D01*
X33825Y-5957D01*
X34451Y-6038D01*
X35199Y-5879D01*
G01X33499Y1448D02*
X30958Y-1093D01*
X30087Y-1493D01*
X29370Y-1502D01*
X28867Y-1180D01*
X28546Y-677D01*
X28555Y39D01*
X28954Y910D01*
G01X27865Y-178D02*
X31495Y3451D01*
G01X29857Y8719D02*
X24412Y3275D01*
G01X28867Y6080D02*
X27217Y7729D01*
G01X25402Y13174D02*
X19957Y7730D01*
G01X24412Y10535D02*
X22762Y12184D01*
G01X15502Y12185D02*
X15946Y11922D01*
X16663Y11931D01*
X17534Y12331D01*
X18378Y12939D01*
X18986Y13783D01*
X19385Y14654D01*
X19395Y15370D01*
X19132Y15814D01*
X18688Y16077D01*
X17971Y16068D01*
X17100Y15668D01*
X16315Y15001D01*
X15648Y14216D01*
X15249Y13346D01*
X15239Y12629D01*
X15502Y12185D01*
G01X12049Y15638D02*
X15679Y19268D01*
G01X14771Y18360D02*
X14989Y19050D01*
X14999Y19766D01*
X14618Y20328D01*
X14115Y20650D01*
X13398Y20641D01*
X12586Y20182D01*
X10045Y17642D01*
G01X7582Y30994D02*
X2137Y25550D01*
G01X6592Y28355D02*
X4942Y30004D01*
G01X-2318Y30005D02*
X-1874Y29742D01*
X-1157Y29751D01*
X-286Y30151D01*
X558Y30759D01*
X1166Y31603D01*
X1565Y32474D01*
X1575Y33190D01*
X1312Y33634D01*
X868Y33897D01*
X151Y33888D01*
X-720Y33488D01*
X-1505Y32821D01*
X-2172Y32036D01*
X-2571Y31166D01*
X-2581Y30449D01*
X-2318Y30005D01*
G01X-9709Y38666D02*
X-10366Y38598D01*
X-11051Y38738D01*
X-11405Y39092D01*
X-11577Y39627D01*
X-11540Y40134D01*
X-11295Y40615D01*
X-10691Y41101D01*
X-10184Y41137D01*
X-8579Y40621D01*
X-7707Y41021D01*
X-7372Y41592D01*
X-7335Y42100D01*
X-7598Y42544D01*
X-8042Y42807D01*
X-8668Y42889D01*
G01X-12349Y44936D02*
X-14234Y46822D01*
X-13422Y47280D01*
X-12765Y47348D01*
X-12171Y47117D01*
X-11849Y46614D01*
X-11768Y45988D01*
X-12167Y45117D01*
X-12594Y44455D01*
X-13138Y43911D01*
X-13801Y43484D01*
X-14640Y43234D01*
X-15356Y43225D01*
X-15860Y43547D01*
X-16091Y44141D01*
X-15959Y45097D01*
G01X-20138Y47825D02*
X-14693Y53269D01*
G01X-21259Y53846D02*
X-23144Y55732D01*
X-22332Y56190D01*
X-21675Y56258D01*
X-21081Y56027D01*
X-20759Y55524D01*
X-20678Y54898D01*
X-21077Y54027D01*
X-21504Y53365D01*
X-22048Y52821D01*
X-22711Y52394D01*
X-23550Y52144D01*
X-24266Y52135D01*
X-24770Y52457D01*
X-25001Y53051D01*
X-24869Y54007D01*
G01X-26814Y60854D02*
X-26039Y60804D01*
X-25595Y60541D01*
X-25305Y59888D01*
X-25314Y59172D01*
X-25714Y58301D01*
X-26290Y57607D01*
X-26984Y57031D01*
X-27764Y56722D01*
X-28572Y56622D01*
X-29225Y56912D01*
X-29456Y57506D01*
X-29446Y58222D01*
G01X-28058Y66634D02*
X-33503Y61190D01*
G01X-29048Y63995D02*
X-30698Y65644D01*
G01X56762Y35256D02*
X56105Y35188D01*
X55420Y35328D01*
X55066Y35682D01*
X54894Y36217D01*
X54931Y36724D01*
X55176Y37205D01*
X55780Y37691D01*
X56287Y37727D01*
X57892Y37211D01*
X58764Y37611D01*
X59099Y38182D01*
X59136Y38690D01*
X58873Y39134D01*
X58429Y39397D01*
X57803Y39479D01*
G01X56233Y45404D02*
X50788Y39960D01*
G01X55243Y42765D02*
X53593Y44414D01*
G01X45273Y45475D02*
X48902Y49105D01*
G01X48267Y48470D02*
X48866Y48597D01*
X49401Y48425D01*
X49904Y48103D01*
X50135Y47509D01*
X50126Y46793D01*
X49817Y46013D01*
X49209Y45169D01*
X48365Y44561D01*
X47585Y44252D01*
X46868Y44243D01*
X46274Y44474D01*
X45953Y44977D01*
X45871Y45603D01*
X45998Y46201D01*
G01X42703Y48045D02*
X46333Y51675D01*
G01X45607Y50949D02*
X45675Y51606D01*
X45653Y52173D01*
X45331Y52676D01*
X44946Y52880D01*
X44320Y52962D01*
G01X42868Y58769D02*
X37423Y53325D01*
G01X41878Y56130D02*
X40228Y57779D01*
M02*
