G75*
%MOIN*%
%OFA0B0*%
%FSLAX25Y25*%
%IPPOS*%
%LPD*%
%AMOC8*
5,1,8,0,0,1.08239X$1,22.5*
%
%ADD10R,0.05131X0.04737*%
%ADD11R,0.04737X0.05131*%
%ADD12R,0.06693X0.02953*%
%ADD13R,0.03543X0.05315*%
%ADD14R,0.06706X0.05918*%
%ADD15C,0.01421*%
%ADD16R,0.05131X0.01922*%
%ADD17R,0.01922X0.05131*%
%ADD18R,0.04146X0.01969*%
%ADD19R,0.01902X0.03556*%
%ADD20R,0.06496X0.09448*%
%ADD21R,0.07493X0.10249*%
%ADD22R,0.08280X0.05131*%
%ADD23C,0.08200*%
%ADD24R,0.04737X0.07493*%
%ADD25R,0.07493X0.04737*%
%ADD26R,0.03556X0.04343*%
%ADD27R,0.05131X0.08280*%
%ADD28R,0.03162X0.02375*%
%ADD29C,0.01706*%
%ADD30R,0.06706X0.03556*%
%ADD31R,0.03162X0.04737*%
%ADD32R,0.03950X0.04737*%
%ADD33C,0.04343*%
%ADD34R,0.02375X0.01784*%
%ADD35R,0.01784X0.02375*%
%ADD36R,0.10800X0.10800*%
%ADD37C,0.04762*%
D10*
X0078054Y0078400D03*
X0084746Y0078400D03*
G36*
X0091295Y0065754D02*
X0094922Y0062127D01*
X0091573Y0058778D01*
X0087946Y0062405D01*
X0091295Y0065754D01*
G37*
G36*
X0096027Y0061022D02*
X0099654Y0057395D01*
X0096305Y0054046D01*
X0092678Y0057673D01*
X0096027Y0061022D01*
G37*
G36*
X0104322Y0061173D02*
X0100695Y0057546D01*
X0097346Y0060895D01*
X0100973Y0064522D01*
X0104322Y0061173D01*
G37*
G36*
X0109054Y0065905D02*
X0105427Y0062278D01*
X0102078Y0065627D01*
X0105705Y0069254D01*
X0109054Y0065905D01*
G37*
G36*
X0109973Y0066278D02*
X0106346Y0069905D01*
X0109695Y0073254D01*
X0113322Y0069627D01*
X0109973Y0066278D01*
G37*
G36*
X0114705Y0061546D02*
X0111078Y0065173D01*
X0114427Y0068522D01*
X0118054Y0064895D01*
X0114705Y0061546D01*
G37*
X0143354Y0060600D03*
X0150046Y0060600D03*
X0149946Y0089400D03*
X0143254Y0089400D03*
X0185454Y0089000D03*
X0192146Y0089000D03*
X0192046Y0080700D03*
X0185354Y0080700D03*
X0185354Y0072600D03*
X0192046Y0072600D03*
X0203254Y0058600D03*
X0209946Y0058600D03*
X0211454Y0097200D03*
X0211454Y0102200D03*
X0211454Y0107200D03*
X0218146Y0107200D03*
X0218146Y0102200D03*
X0218146Y0097200D03*
X0214846Y0142400D03*
X0208154Y0142400D03*
X0207954Y0149300D03*
X0214646Y0149300D03*
X0217046Y0161600D03*
X0210354Y0161600D03*
X0211354Y0180200D03*
X0218046Y0180200D03*
X0198246Y0197000D03*
X0191554Y0197000D03*
X0184346Y0197000D03*
X0177654Y0197000D03*
X0176454Y0188200D03*
X0183146Y0188200D03*
X0136546Y0183300D03*
X0129854Y0183300D03*
X0119146Y0194600D03*
X0112454Y0194600D03*
X0103346Y0184800D03*
X0096654Y0184800D03*
X0090846Y0184800D03*
X0084154Y0184800D03*
X0083854Y0176300D03*
X0090546Y0176300D03*
X0096854Y0176700D03*
X0103546Y0176700D03*
X0102954Y0170800D03*
X0109646Y0170800D03*
X0084546Y0201400D03*
X0077854Y0201400D03*
X0097154Y0209500D03*
X0103846Y0209500D03*
X0103646Y0218200D03*
X0096954Y0218200D03*
X0089546Y0223400D03*
X0082854Y0223400D03*
X0084046Y0108400D03*
X0077354Y0108400D03*
D11*
X0092900Y0106454D03*
X0092900Y0113146D03*
X0091300Y0085546D03*
X0091300Y0078854D03*
X0126200Y0085154D03*
X0126200Y0091846D03*
X0135500Y0079446D03*
X0135500Y0072754D03*
X0162200Y0064746D03*
X0168200Y0064746D03*
X0168200Y0058054D03*
X0162200Y0058054D03*
X0195900Y0058654D03*
X0195900Y0065346D03*
X0124400Y0110854D03*
X0124400Y0117546D03*
X0126600Y0134954D03*
X0118700Y0134954D03*
X0118700Y0141646D03*
X0126600Y0141646D03*
X0109200Y0149654D03*
X0109200Y0156346D03*
X0118800Y0179154D03*
X0118800Y0185846D03*
X0084700Y0209054D03*
X0084700Y0215746D03*
X0076200Y0215246D03*
X0076200Y0208554D03*
X0148700Y0147546D03*
X0148700Y0140854D03*
X0158200Y0195154D03*
X0158200Y0201846D03*
X0209900Y0173746D03*
X0209900Y0167054D03*
X0218400Y0167254D03*
X0218400Y0173946D03*
D12*
X0114600Y0199999D03*
X0114600Y0212401D03*
D13*
X0109482Y0211220D03*
X0109482Y0201180D03*
X0119718Y0201180D03*
X0119718Y0211220D03*
D14*
X0228000Y0171240D03*
X0228000Y0163760D03*
X0227900Y0154740D03*
X0227900Y0147260D03*
D15*
X0223389Y0108858D02*
X0223389Y0105542D01*
X0223389Y0108858D02*
X0226705Y0108858D01*
X0226705Y0105542D01*
X0223389Y0105542D01*
X0223389Y0106962D02*
X0226705Y0106962D01*
X0226705Y0108382D02*
X0223389Y0108382D01*
X0223389Y0103858D02*
X0223389Y0100542D01*
X0223389Y0103858D02*
X0226705Y0103858D01*
X0226705Y0100542D01*
X0223389Y0100542D01*
X0223389Y0101962D02*
X0226705Y0101962D01*
X0226705Y0103382D02*
X0223389Y0103382D01*
X0223389Y0098858D02*
X0223389Y0095542D01*
X0223389Y0098858D02*
X0226705Y0098858D01*
X0226705Y0095542D01*
X0223389Y0095542D01*
X0223389Y0096962D02*
X0226705Y0096962D01*
X0226705Y0098382D02*
X0223389Y0098382D01*
X0230295Y0098858D02*
X0230295Y0095542D01*
X0230295Y0098858D02*
X0233611Y0098858D01*
X0233611Y0095542D01*
X0230295Y0095542D01*
X0230295Y0096962D02*
X0233611Y0096962D01*
X0233611Y0098382D02*
X0230295Y0098382D01*
X0230295Y0100542D02*
X0230295Y0103858D01*
X0233611Y0103858D01*
X0233611Y0100542D01*
X0230295Y0100542D01*
X0230295Y0101962D02*
X0233611Y0101962D01*
X0233611Y0103382D02*
X0230295Y0103382D01*
X0230295Y0105542D02*
X0230295Y0108858D01*
X0233611Y0108858D01*
X0233611Y0105542D01*
X0230295Y0105542D01*
X0230295Y0106962D02*
X0233611Y0106962D01*
X0233611Y0108382D02*
X0230295Y0108382D01*
X0112258Y0174689D02*
X0108942Y0174689D01*
X0108942Y0178005D01*
X0112258Y0178005D01*
X0112258Y0174689D01*
X0112258Y0176109D02*
X0108942Y0176109D01*
X0108942Y0177529D02*
X0112258Y0177529D01*
X0112258Y0181595D02*
X0108942Y0181595D01*
X0108942Y0184911D01*
X0112258Y0184911D01*
X0112258Y0181595D01*
X0112258Y0183015D02*
X0108942Y0183015D01*
X0108942Y0184435D02*
X0112258Y0184435D01*
D16*
X0155559Y0172864D03*
X0155559Y0170895D03*
X0155559Y0168927D03*
X0155559Y0166958D03*
X0155559Y0164990D03*
X0155559Y0163021D03*
X0155559Y0161053D03*
X0155559Y0159084D03*
X0155559Y0157116D03*
X0155559Y0155147D03*
X0155559Y0153179D03*
X0155559Y0151210D03*
X0155559Y0149242D03*
X0155559Y0147273D03*
X0155559Y0145305D03*
X0155559Y0143336D03*
X0200441Y0143336D03*
X0200441Y0145305D03*
X0200441Y0147273D03*
X0200441Y0149242D03*
X0200441Y0151210D03*
X0200441Y0153179D03*
X0200441Y0155147D03*
X0200441Y0157116D03*
X0200441Y0159084D03*
X0200441Y0161053D03*
X0200441Y0163021D03*
X0200441Y0164990D03*
X0200441Y0166958D03*
X0200441Y0168927D03*
X0200441Y0170895D03*
X0200441Y0172864D03*
D17*
X0192764Y0180541D03*
X0190795Y0180541D03*
X0188827Y0180541D03*
X0186858Y0180541D03*
X0184890Y0180541D03*
X0182921Y0180541D03*
X0180953Y0180541D03*
X0178984Y0180541D03*
X0177016Y0180541D03*
X0175047Y0180541D03*
X0173079Y0180541D03*
X0171110Y0180541D03*
X0169142Y0180541D03*
X0167173Y0180541D03*
X0165205Y0180541D03*
X0163236Y0180541D03*
X0163236Y0135659D03*
X0165205Y0135659D03*
X0167173Y0135659D03*
X0169142Y0135659D03*
X0171110Y0135659D03*
X0173079Y0135659D03*
X0175047Y0135659D03*
X0177016Y0135659D03*
X0178984Y0135659D03*
X0180953Y0135659D03*
X0182921Y0135659D03*
X0184890Y0135659D03*
X0186858Y0135659D03*
X0188827Y0135659D03*
X0190795Y0135659D03*
X0192764Y0135659D03*
D18*
X0102307Y0194563D03*
X0102307Y0196531D03*
X0102307Y0198500D03*
X0102307Y0200469D03*
X0102307Y0202437D03*
X0090693Y0202437D03*
X0090693Y0200469D03*
X0090693Y0198500D03*
X0090693Y0196531D03*
X0090693Y0194563D03*
D19*
X0095516Y0192594D03*
X0097484Y0192594D03*
X0097484Y0204406D03*
X0095516Y0204406D03*
D20*
X0096500Y0198500D03*
D21*
X0180717Y0208000D03*
X0195283Y0208000D03*
D22*
X0149483Y0198328D03*
X0149483Y0189272D03*
X0134917Y0189272D03*
X0134917Y0198328D03*
D23*
X0077200Y0142900D03*
X0077200Y0132900D03*
X0244900Y0136500D03*
X0244900Y0146500D03*
X0244900Y0156500D03*
X0244900Y0166500D03*
X0244900Y0176500D03*
X0244900Y0186500D03*
X0244900Y0196500D03*
X0244900Y0206500D03*
X0244900Y0126500D03*
X0244900Y0116500D03*
X0244900Y0106500D03*
X0244900Y0096500D03*
X0244900Y0086500D03*
X0244900Y0076500D03*
X0244900Y0066500D03*
D24*
X0126421Y0043600D03*
X0116579Y0043600D03*
D25*
X0232600Y0040279D03*
X0232600Y0050121D03*
D26*
X0191259Y0065800D03*
X0186141Y0065800D03*
X0181159Y0065800D03*
X0176041Y0065800D03*
X0178059Y0060600D03*
X0172941Y0060600D03*
D27*
X0151128Y0067617D03*
X0142072Y0067617D03*
X0142072Y0082183D03*
X0151128Y0082183D03*
X0084728Y0085717D03*
X0075672Y0085717D03*
X0075672Y0100283D03*
X0084728Y0100283D03*
D28*
X0100139Y0106413D03*
X0100139Y0111138D03*
X0100139Y0115862D03*
X0100139Y0120587D03*
X0117461Y0120587D03*
X0117461Y0115862D03*
X0117461Y0111138D03*
X0117461Y0106413D03*
D29*
X0116838Y0146466D02*
X0116838Y0147922D01*
X0118413Y0147922D02*
X0118413Y0146466D01*
X0119987Y0146466D02*
X0119987Y0147922D01*
X0121562Y0147922D02*
X0121562Y0146466D01*
X0123137Y0146466D02*
X0123137Y0147922D01*
X0124378Y0149163D02*
X0125834Y0149163D01*
X0125834Y0150738D02*
X0124378Y0150738D01*
X0124378Y0152313D02*
X0125834Y0152313D01*
X0125834Y0153887D02*
X0124378Y0153887D01*
X0124378Y0155462D02*
X0125834Y0155462D01*
X0125834Y0157037D02*
X0124378Y0157037D01*
X0123137Y0158278D02*
X0123137Y0159734D01*
X0121562Y0159734D02*
X0121562Y0158278D01*
X0119987Y0158278D02*
X0119987Y0159734D01*
X0118413Y0159734D02*
X0118413Y0158278D01*
X0116838Y0158278D02*
X0116838Y0159734D01*
X0115263Y0159734D02*
X0115263Y0158278D01*
X0114022Y0157037D02*
X0112566Y0157037D01*
X0112566Y0155462D02*
X0114022Y0155462D01*
X0114022Y0153887D02*
X0112566Y0153887D01*
X0112566Y0152313D02*
X0114022Y0152313D01*
X0114022Y0150738D02*
X0112566Y0150738D01*
X0112566Y0149163D02*
X0114022Y0149163D01*
X0115263Y0147922D02*
X0115263Y0146466D01*
D30*
X0064390Y0168942D03*
X0064390Y0174847D03*
X0064390Y0186658D03*
D31*
X0053563Y0192170D03*
X0053563Y0163430D03*
D32*
X0061831Y0163430D03*
X0061831Y0192170D03*
D33*
X0057500Y0183706D03*
X0057500Y0171894D03*
D34*
X0099445Y0096490D03*
X0099445Y0094521D03*
X0099445Y0092553D03*
X0099445Y0090584D03*
X0099445Y0088616D03*
X0099445Y0086647D03*
X0099445Y0084679D03*
X0099445Y0082710D03*
X0117555Y0082710D03*
X0117555Y0084679D03*
X0117555Y0086647D03*
X0117555Y0088616D03*
X0117555Y0090584D03*
X0117555Y0092553D03*
X0117555Y0094521D03*
X0117555Y0096490D03*
X0165013Y0082037D03*
X0165013Y0080069D03*
X0165013Y0078100D03*
X0165013Y0076131D03*
X0165013Y0074163D03*
X0179187Y0074163D03*
X0179187Y0076131D03*
X0179187Y0078100D03*
X0179187Y0080069D03*
X0179187Y0082037D03*
D35*
X0176037Y0085187D03*
X0174069Y0085187D03*
X0172100Y0085187D03*
X0170131Y0085187D03*
X0168163Y0085187D03*
X0168163Y0071013D03*
X0170131Y0071013D03*
X0172100Y0071013D03*
X0174069Y0071013D03*
X0176037Y0071013D03*
X0115390Y0080545D03*
X0113421Y0080545D03*
X0111453Y0080545D03*
X0109484Y0080545D03*
X0107516Y0080545D03*
X0105547Y0080545D03*
X0103579Y0080545D03*
X0101610Y0080545D03*
X0101610Y0098655D03*
X0103579Y0098655D03*
X0105547Y0098655D03*
X0107516Y0098655D03*
X0109484Y0098655D03*
X0111453Y0098655D03*
X0113421Y0098655D03*
X0115390Y0098655D03*
D36*
X0108500Y0089600D03*
D37*
X0108500Y0089600D03*
X0097500Y0101100D03*
X0093500Y0097200D03*
X0112000Y0105800D03*
X0121700Y0104700D03*
X0131600Y0094100D03*
X0117700Y0075400D03*
X0100600Y0071500D03*
X0106000Y0116200D03*
X0105100Y0122800D03*
X0099200Y0125900D03*
X0109200Y0129600D03*
X0117000Y0125100D03*
X0112100Y0116700D03*
X0128900Y0128300D03*
X0144000Y0130100D03*
X0141300Y0143400D03*
X0130200Y0147400D03*
X0133400Y0153600D03*
X0137600Y0159000D03*
X0126000Y0163300D03*
X0118400Y0163500D03*
X0118400Y0173000D03*
X0112200Y0189400D03*
X0103200Y0190400D03*
X0078300Y0184600D03*
X0077700Y0196400D03*
X0067600Y0215000D03*
X0064900Y0157600D03*
X0092100Y0147400D03*
X0109100Y0143300D03*
X0161700Y0158100D03*
X0164700Y0150900D03*
X0164700Y0144900D03*
X0185500Y0152200D03*
X0206200Y0157000D03*
X0212600Y0155200D03*
X0220600Y0152000D03*
X0211400Y0135400D03*
X0199700Y0130900D03*
X0175900Y0112200D03*
X0173800Y0106900D03*
X0174200Y0101300D03*
X0176400Y0096400D03*
X0167200Y0091000D03*
X0161600Y0089400D03*
X0165700Y0097300D03*
X0157500Y0100500D03*
X0166900Y0106500D03*
X0205000Y0107600D03*
X0205000Y0102600D03*
X0205000Y0097300D03*
X0189600Y0174100D03*
X0223300Y0180300D03*
X0227900Y0187400D03*
M02*
