G75*
%MOIN*%
%OFA0B0*%
%FSLAX25Y25*%
%IPPOS*%
%LPD*%
%AMOC8*
5,1,8,0,0,1.08239X$1,22.5*
%
%ADD10C,0.00000*%
D10*
X0050500Y0036500D02*
X0050500Y0276500D01*
X0290500Y0276500D01*
X0290500Y0036500D01*
X0050500Y0036500D01*
X0060928Y0199194D02*
X0060930Y0199278D01*
X0060936Y0199361D01*
X0060946Y0199444D01*
X0060960Y0199527D01*
X0060977Y0199609D01*
X0060999Y0199690D01*
X0061024Y0199769D01*
X0061053Y0199848D01*
X0061086Y0199925D01*
X0061122Y0200000D01*
X0061162Y0200074D01*
X0061205Y0200146D01*
X0061252Y0200215D01*
X0061302Y0200282D01*
X0061355Y0200347D01*
X0061411Y0200409D01*
X0061469Y0200469D01*
X0061531Y0200526D01*
X0061595Y0200579D01*
X0061662Y0200630D01*
X0061731Y0200677D01*
X0061802Y0200722D01*
X0061875Y0200762D01*
X0061950Y0200799D01*
X0062027Y0200833D01*
X0062105Y0200863D01*
X0062184Y0200889D01*
X0062265Y0200912D01*
X0062347Y0200930D01*
X0062429Y0200945D01*
X0062512Y0200956D01*
X0062595Y0200963D01*
X0062679Y0200966D01*
X0062763Y0200965D01*
X0062846Y0200960D01*
X0062930Y0200951D01*
X0063012Y0200938D01*
X0063094Y0200922D01*
X0063175Y0200901D01*
X0063256Y0200877D01*
X0063334Y0200849D01*
X0063412Y0200817D01*
X0063488Y0200781D01*
X0063562Y0200742D01*
X0063634Y0200700D01*
X0063704Y0200654D01*
X0063772Y0200605D01*
X0063837Y0200553D01*
X0063900Y0200498D01*
X0063960Y0200440D01*
X0064018Y0200379D01*
X0064072Y0200315D01*
X0064124Y0200249D01*
X0064172Y0200181D01*
X0064217Y0200110D01*
X0064258Y0200037D01*
X0064297Y0199963D01*
X0064331Y0199887D01*
X0064362Y0199809D01*
X0064389Y0199730D01*
X0064413Y0199649D01*
X0064432Y0199568D01*
X0064448Y0199486D01*
X0064460Y0199403D01*
X0064468Y0199319D01*
X0064472Y0199236D01*
X0064472Y0199152D01*
X0064468Y0199069D01*
X0064460Y0198985D01*
X0064448Y0198902D01*
X0064432Y0198820D01*
X0064413Y0198739D01*
X0064389Y0198658D01*
X0064362Y0198579D01*
X0064331Y0198501D01*
X0064297Y0198425D01*
X0064258Y0198351D01*
X0064217Y0198278D01*
X0064172Y0198207D01*
X0064124Y0198139D01*
X0064072Y0198073D01*
X0064018Y0198009D01*
X0063960Y0197948D01*
X0063900Y0197890D01*
X0063837Y0197835D01*
X0063772Y0197783D01*
X0063704Y0197734D01*
X0063634Y0197688D01*
X0063562Y0197646D01*
X0063488Y0197607D01*
X0063412Y0197571D01*
X0063334Y0197539D01*
X0063256Y0197511D01*
X0063175Y0197487D01*
X0063094Y0197466D01*
X0063012Y0197450D01*
X0062930Y0197437D01*
X0062846Y0197428D01*
X0062763Y0197423D01*
X0062679Y0197422D01*
X0062595Y0197425D01*
X0062512Y0197432D01*
X0062429Y0197443D01*
X0062347Y0197458D01*
X0062265Y0197476D01*
X0062184Y0197499D01*
X0062105Y0197525D01*
X0062027Y0197555D01*
X0061950Y0197589D01*
X0061875Y0197626D01*
X0061802Y0197666D01*
X0061731Y0197711D01*
X0061662Y0197758D01*
X0061595Y0197809D01*
X0061531Y0197862D01*
X0061469Y0197919D01*
X0061411Y0197979D01*
X0061355Y0198041D01*
X0061302Y0198106D01*
X0061252Y0198173D01*
X0061205Y0198242D01*
X0061162Y0198314D01*
X0061122Y0198388D01*
X0061086Y0198463D01*
X0061053Y0198540D01*
X0061024Y0198619D01*
X0060999Y0198698D01*
X0060977Y0198779D01*
X0060960Y0198861D01*
X0060946Y0198944D01*
X0060936Y0199027D01*
X0060930Y0199110D01*
X0060928Y0199194D01*
X0060928Y0211006D02*
X0060930Y0211090D01*
X0060936Y0211173D01*
X0060946Y0211256D01*
X0060960Y0211339D01*
X0060977Y0211421D01*
X0060999Y0211502D01*
X0061024Y0211581D01*
X0061053Y0211660D01*
X0061086Y0211737D01*
X0061122Y0211812D01*
X0061162Y0211886D01*
X0061205Y0211958D01*
X0061252Y0212027D01*
X0061302Y0212094D01*
X0061355Y0212159D01*
X0061411Y0212221D01*
X0061469Y0212281D01*
X0061531Y0212338D01*
X0061595Y0212391D01*
X0061662Y0212442D01*
X0061731Y0212489D01*
X0061802Y0212534D01*
X0061875Y0212574D01*
X0061950Y0212611D01*
X0062027Y0212645D01*
X0062105Y0212675D01*
X0062184Y0212701D01*
X0062265Y0212724D01*
X0062347Y0212742D01*
X0062429Y0212757D01*
X0062512Y0212768D01*
X0062595Y0212775D01*
X0062679Y0212778D01*
X0062763Y0212777D01*
X0062846Y0212772D01*
X0062930Y0212763D01*
X0063012Y0212750D01*
X0063094Y0212734D01*
X0063175Y0212713D01*
X0063256Y0212689D01*
X0063334Y0212661D01*
X0063412Y0212629D01*
X0063488Y0212593D01*
X0063562Y0212554D01*
X0063634Y0212512D01*
X0063704Y0212466D01*
X0063772Y0212417D01*
X0063837Y0212365D01*
X0063900Y0212310D01*
X0063960Y0212252D01*
X0064018Y0212191D01*
X0064072Y0212127D01*
X0064124Y0212061D01*
X0064172Y0211993D01*
X0064217Y0211922D01*
X0064258Y0211849D01*
X0064297Y0211775D01*
X0064331Y0211699D01*
X0064362Y0211621D01*
X0064389Y0211542D01*
X0064413Y0211461D01*
X0064432Y0211380D01*
X0064448Y0211298D01*
X0064460Y0211215D01*
X0064468Y0211131D01*
X0064472Y0211048D01*
X0064472Y0210964D01*
X0064468Y0210881D01*
X0064460Y0210797D01*
X0064448Y0210714D01*
X0064432Y0210632D01*
X0064413Y0210551D01*
X0064389Y0210470D01*
X0064362Y0210391D01*
X0064331Y0210313D01*
X0064297Y0210237D01*
X0064258Y0210163D01*
X0064217Y0210090D01*
X0064172Y0210019D01*
X0064124Y0209951D01*
X0064072Y0209885D01*
X0064018Y0209821D01*
X0063960Y0209760D01*
X0063900Y0209702D01*
X0063837Y0209647D01*
X0063772Y0209595D01*
X0063704Y0209546D01*
X0063634Y0209500D01*
X0063562Y0209458D01*
X0063488Y0209419D01*
X0063412Y0209383D01*
X0063334Y0209351D01*
X0063256Y0209323D01*
X0063175Y0209299D01*
X0063094Y0209278D01*
X0063012Y0209262D01*
X0062930Y0209249D01*
X0062846Y0209240D01*
X0062763Y0209235D01*
X0062679Y0209234D01*
X0062595Y0209237D01*
X0062512Y0209244D01*
X0062429Y0209255D01*
X0062347Y0209270D01*
X0062265Y0209288D01*
X0062184Y0209311D01*
X0062105Y0209337D01*
X0062027Y0209367D01*
X0061950Y0209401D01*
X0061875Y0209438D01*
X0061802Y0209478D01*
X0061731Y0209523D01*
X0061662Y0209570D01*
X0061595Y0209621D01*
X0061531Y0209674D01*
X0061469Y0209731D01*
X0061411Y0209791D01*
X0061355Y0209853D01*
X0061302Y0209918D01*
X0061252Y0209985D01*
X0061205Y0210054D01*
X0061162Y0210126D01*
X0061122Y0210200D01*
X0061086Y0210275D01*
X0061053Y0210352D01*
X0061024Y0210431D01*
X0060999Y0210510D01*
X0060977Y0210591D01*
X0060960Y0210673D01*
X0060946Y0210756D01*
X0060936Y0210839D01*
X0060930Y0210922D01*
X0060928Y0211006D01*
X0249000Y0271500D02*
X0257976Y0271500D01*
X0257976Y0265598D01*
X0257978Y0265522D01*
X0257984Y0265446D01*
X0257993Y0265371D01*
X0258007Y0265296D01*
X0258024Y0265222D01*
X0258045Y0265149D01*
X0258069Y0265077D01*
X0258098Y0265006D01*
X0258129Y0264937D01*
X0258164Y0264870D01*
X0258203Y0264805D01*
X0258245Y0264741D01*
X0258290Y0264680D01*
X0258338Y0264621D01*
X0258389Y0264565D01*
X0258443Y0264511D01*
X0258499Y0264460D01*
X0258558Y0264412D01*
X0258619Y0264367D01*
X0258683Y0264325D01*
X0258748Y0264286D01*
X0258815Y0264251D01*
X0258884Y0264220D01*
X0258955Y0264191D01*
X0259027Y0264167D01*
X0259100Y0264146D01*
X0259174Y0264129D01*
X0259249Y0264115D01*
X0259324Y0264106D01*
X0259400Y0264100D01*
X0259476Y0264098D01*
X0259823Y0264098D01*
X0259899Y0264100D01*
X0259975Y0264106D01*
X0260050Y0264115D01*
X0260125Y0264129D01*
X0260199Y0264146D01*
X0260272Y0264167D01*
X0260344Y0264191D01*
X0260415Y0264220D01*
X0260484Y0264251D01*
X0260551Y0264286D01*
X0260616Y0264325D01*
X0260680Y0264367D01*
X0260741Y0264412D01*
X0260800Y0264460D01*
X0260856Y0264511D01*
X0260910Y0264565D01*
X0260961Y0264621D01*
X0261009Y0264680D01*
X0261054Y0264741D01*
X0261096Y0264805D01*
X0261135Y0264870D01*
X0261170Y0264937D01*
X0261201Y0265006D01*
X0261230Y0265077D01*
X0261254Y0265149D01*
X0261275Y0265222D01*
X0261292Y0265296D01*
X0261306Y0265371D01*
X0261315Y0265446D01*
X0261321Y0265522D01*
X0261323Y0265598D01*
X0261323Y0271500D01*
X0276677Y0271500D01*
X0276677Y0265598D01*
X0276679Y0265522D01*
X0276685Y0265446D01*
X0276694Y0265371D01*
X0276708Y0265296D01*
X0276725Y0265222D01*
X0276746Y0265149D01*
X0276770Y0265077D01*
X0276799Y0265006D01*
X0276830Y0264937D01*
X0276865Y0264870D01*
X0276904Y0264805D01*
X0276946Y0264741D01*
X0276991Y0264680D01*
X0277039Y0264621D01*
X0277090Y0264565D01*
X0277144Y0264511D01*
X0277200Y0264460D01*
X0277259Y0264412D01*
X0277320Y0264367D01*
X0277384Y0264325D01*
X0277449Y0264286D01*
X0277516Y0264251D01*
X0277585Y0264220D01*
X0277656Y0264191D01*
X0277728Y0264167D01*
X0277801Y0264146D01*
X0277875Y0264129D01*
X0277950Y0264115D01*
X0278025Y0264106D01*
X0278101Y0264100D01*
X0278177Y0264098D01*
X0278524Y0264098D01*
X0278600Y0264100D01*
X0278676Y0264106D01*
X0278751Y0264115D01*
X0278826Y0264129D01*
X0278900Y0264146D01*
X0278973Y0264167D01*
X0279045Y0264191D01*
X0279116Y0264220D01*
X0279185Y0264251D01*
X0279252Y0264286D01*
X0279317Y0264325D01*
X0279381Y0264367D01*
X0279442Y0264412D01*
X0279501Y0264460D01*
X0279557Y0264511D01*
X0279611Y0264565D01*
X0279662Y0264621D01*
X0279710Y0264680D01*
X0279755Y0264741D01*
X0279797Y0264805D01*
X0279836Y0264870D01*
X0279871Y0264937D01*
X0279902Y0265006D01*
X0279931Y0265077D01*
X0279955Y0265149D01*
X0279976Y0265222D01*
X0279993Y0265296D01*
X0280007Y0265371D01*
X0280016Y0265446D01*
X0280022Y0265522D01*
X0280024Y0265598D01*
X0280024Y0271500D01*
X0289000Y0271500D01*
M02*
