G04 ================== begin FILE IDENTIFICATION RECORD ==================*
G04 Layout Name:  C:/Users/thebh/Desktop/dtf/git/clay/Circuit/R6_1/allegro/CLAYR6.brd*
G04 Film Name:    SILK_BOTTOM*
G04 File Format:  Gerber RS274X*
G04 File Origin:  Cadence Allegro 16.6-P004*
G04 Origin Date:  Sat Feb 13 14:58:59 2016*
G04 *
G04 Layer:  REF DES/SILKSCREEN_BOTTOM*
G04 Layer:  PACKAGE GEOMETRY/SILKSCREEN_BOTTOM*
G04 Layer:  BOARD GEOMETRY/SILKSCREEN_BOTTOM*
G04 *
G04 Offset:    (0.00 0.00)*
G04 Mirror:    No*
G04 Mode:      Positive*
G04 Rotation:  0*
G04 FullContactRelief:  No*
G04 UndefLineWidth:     10.00*
G04 ================== end FILE IDENTIFICATION RECORD ====================*
%FSLAX25Y25*MOIN*%
%IR0*IPPOS*OFA0.00000B0.00000*MIA0B0*SFA1.00000B1.00000*%
%ADD10C,.017*%
G75*
%LPD*%
G75*
G54D10*
G01X46450Y38817D02*
X45850Y39575D01*
X45700Y40225D01*
X46000Y41092D01*
X46600Y41742D01*
X47650Y42175D01*
X48700Y42283D01*
X49750Y42175D01*
X50650Y41742D01*
X51400Y41092D01*
X51700Y40225D01*
X51400Y39467D01*
X50800Y38817D01*
G01X51700Y34050D02*
X51550Y34700D01*
X50950Y35350D01*
X49900Y35783D01*
X48700Y36000D01*
X47500Y35783D01*
X46450Y35350D01*
X45850Y34700D01*
X45700Y34050D01*
X45850Y33400D01*
X46450Y32750D01*
X47500Y32317D01*
X48700Y32208D01*
X49900Y32317D01*
X50950Y32750D01*
X51550Y33400D01*
X51700Y34050D01*
G01Y30800D02*
X45700D01*
G01X47350D02*
X46600Y30475D01*
X46000Y29933D01*
X45700Y29175D01*
X46000Y28417D01*
X46600Y27875D01*
X47350Y27550D01*
X51700D01*
G01X47350D02*
X46600Y27225D01*
X46000Y26683D01*
X45700Y25925D01*
X46000Y25167D01*
X46600Y24625D01*
X47500Y24300D01*
X51700D01*
G01X54700Y23000D02*
X45700D01*
G01X47050D02*
X46300Y22458D01*
X45850Y21917D01*
X45700Y21050D01*
X45850Y20292D01*
X46600Y19533D01*
X47650Y19208D01*
X48700Y19100D01*
X49750Y19208D01*
X50800Y19533D01*
X51400Y20183D01*
X51700Y21050D01*
X51550Y21808D01*
X51100Y22567D01*
X50500Y23000D01*
G01X45700Y16392D02*
X49900D01*
X50950Y15958D01*
X51550Y15308D01*
X51700Y14550D01*
X51550Y13792D01*
X50950Y13142D01*
X49900Y12708D01*
G01X51700D02*
X45700D01*
G01X42700Y8050D02*
X51700D01*
G01X45700Y9567D02*
Y6533D01*
G01X47650Y3175D02*
Y-292D01*
X46600Y33D01*
X46000Y575D01*
X45700Y1333D01*
X45850Y2092D01*
X46300Y2742D01*
X47350Y3175D01*
X48250Y3392D01*
X49150D01*
X50050Y3175D01*
X50950Y2633D01*
X51550Y1983D01*
X51700Y1225D01*
X51400Y467D01*
X50500Y-292D01*
G01X51700Y-3433D02*
X45700D01*
G01X46900D02*
X46300Y-3975D01*
X45850Y-4517D01*
X45700Y-5275D01*
X45850Y-5817D01*
X46300Y-6467D01*
G01X52000Y-11450D02*
X51850Y-11233D01*
X51550D01*
X51400Y-11450D01*
X51550Y-11667D01*
X51850D01*
X52000Y-11450D01*
G01X46450Y-19683D02*
X45850Y-18925D01*
X45700Y-18275D01*
X46000Y-17408D01*
X46600Y-16758D01*
X47650Y-16325D01*
X48700Y-16217D01*
X49750Y-16325D01*
X50650Y-16758D01*
X51400Y-17408D01*
X51700Y-18275D01*
X51400Y-19033D01*
X50800Y-19683D01*
G01X51700Y-26400D02*
X45700D01*
G01X46750D02*
X46150Y-25967D01*
X45850Y-25317D01*
X45700Y-24558D01*
X46000Y-23800D01*
X46600Y-23150D01*
X47500Y-22717D01*
X48700Y-22500D01*
X49900Y-22717D01*
X50800Y-23150D01*
X51400Y-23800D01*
X51700Y-24558D01*
X51550Y-25317D01*
X51100Y-25967D01*
X50500Y-26400D01*
G01X51700Y-27700D02*
X45700D01*
G01X47350D02*
X46600Y-28025D01*
X46000Y-28567D01*
X45700Y-29325D01*
X46000Y-30083D01*
X46600Y-30625D01*
X47350Y-30950D01*
X51700D01*
G01X47350D02*
X46600Y-31275D01*
X46000Y-31817D01*
X45700Y-32575D01*
X46000Y-33333D01*
X46600Y-33875D01*
X47500Y-34200D01*
X51700D01*
G01X54700Y-35500D02*
X45700D01*
G01X47050D02*
X46300Y-36042D01*
X45850Y-36583D01*
X45700Y-37450D01*
X45850Y-38208D01*
X46600Y-38967D01*
X47650Y-39292D01*
X48700Y-39400D01*
X49750Y-39292D01*
X50800Y-38967D01*
X51400Y-38317D01*
X51700Y-37450D01*
X51550Y-36692D01*
X51100Y-35933D01*
X50500Y-35500D01*
M02*
