G04 ================== begin FILE IDENTIFICATION RECORD ==================*
G04 Layout Name:  C:/Users/thebh/Desktop/dtf/git/clay/Circuit/R6_1/allegro/CLAYR6.brd*
G04 Film Name:    SOLDERMASK_BOTTOM*
G04 File Format:  Gerber RS274X*
G04 File Origin:  Cadence Allegro 16.6-P004*
G04 Origin Date:  Sat Feb 13 00:20:59 2016*
G04 *
G04 Layer:  VIA CLASS/SOLDERMASK_BOTTOM*
G04 Layer:  PIN/SOLDERMASK_BOTTOM*
G04 *
G04 Offset:    (0.00 0.00)*
G04 Mirror:    No*
G04 Mode:      Positive*
G04 Rotation:  0*
G04 FullContactRelief:  No*
G04 UndefLineWidth:     0.00*
G04 ================== end FILE IDENTIFICATION RECORD ====================*
%FSLAX25Y25*MOIN*%
%IR0*IPPOS*OFA0.00000B0.00000*MIA0B0*SFA1.00000B1.00000*%
%ADD13C,.05*%
%ADD12C,.032*%
%ADD10C,.07*%
%ADD11C,.048*%
%LPD*%
G75*
G54D10*
X-94500Y-10000D03*
X-84500D03*
X-94500Y0D03*
X-84500D03*
X-94500Y10000D03*
X-84500D03*
X-74500Y-10000D03*
Y0D03*
Y10000D03*
X0Y-94500D03*
X-10000D03*
X0Y-84500D03*
X-10000D03*
X0Y-74500D03*
X-10000D03*
Y74500D03*
X0D03*
X-10000Y84500D03*
X0D03*
X-10000Y94500D03*
X0D03*
X10000Y-94500D03*
Y-84500D03*
Y-74500D03*
Y74500D03*
Y84500D03*
Y94500D03*
X74500Y-10000D03*
Y0D03*
Y10000D03*
X94500Y-10000D03*
X84500D03*
X94500Y0D03*
X84500D03*
X94500Y10000D03*
X84500D03*
G54D11*
X-82600Y84900D03*
X-92600D03*
G54D12*
X-55900Y65500D03*
Y70000D03*
X-21500Y-88000D03*
G54D13*
X-32963Y73164D03*
X-40837D03*
M02*
