%
M48
M72
T01C0.01969
T02C0.02362
T03C0.03543
T04C0.04000
%
T01
X265100Y220500
X270600Y231500
X270600Y261000
T02
X61100Y68500
X61100Y73500
X61100Y78500
X61100Y83500
X61100Y88500
X61100Y93500
X61100Y98500
X61100Y103500
X61100Y108500
X61100Y113500
X61100Y118500
X61100Y123500
X61100Y128500
X61100Y133500
X61100Y138500
X61100Y143500
X67100Y143500
X72100Y143500
X77100Y143500
X82500Y144200
X81100Y149400
X82100Y138500
X72200Y134700
X87600Y125000
X87100Y113500
X98600Y118600
X109600Y107100
X96800Y94900
X82100Y83500
X81100Y68500
X76100Y68500
X71100Y68500
X66100Y68500
X74000Y51500
X85100Y64500
X89100Y60500
X93900Y56300
X97600Y52500
X101500Y48800
X107100Y48500
X112100Y48500
X117100Y48500
X117100Y55500
X112100Y55500
X107100Y55500
X102600Y57500
X100100Y62500
X105100Y62500
X110100Y62500
X115100Y62500
X120100Y62500
X125100Y62500
X130100Y61500
X130100Y66500
X130100Y71500
X130100Y76500
X130100Y81500
X130100Y86500
X132100Y91500
X137600Y93500
X138100Y99000
X138600Y104000
X144100Y104500
X150100Y105500
X151600Y111500
X146100Y110500
X150100Y117500
X150100Y122500
X150100Y127500
X150100Y132500
X151100Y141000
X158100Y131000
X158600Y121500
X163600Y116500
X160100Y113000
X158100Y104000
X167100Y120500
X169600Y127500
X177100Y125000
X177100Y120000
X177100Y115000
X177100Y109500
X181100Y105500
X186100Y105500
X191100Y105500
X195100Y102500
X195100Y97500
X195100Y92500
X199800Y85800
X195100Y83000
X198100Y79000
X202900Y77600
X208100Y77500
X213100Y77500
X218100Y77500
X218100Y72500
X218100Y67500
X218100Y62500
X213100Y62500
X208100Y62500
X203100Y62500
X198100Y62500
X200600Y58000
X205100Y55000
X210100Y55000
X215100Y55000
X220100Y55000
X225100Y55000
X225100Y48100
X220100Y48100
X215100Y48100
X210100Y48100
X205100Y48100
X200100Y48500
X196100Y52500
X192100Y56500
X188600Y61500
X184100Y65500
X179100Y65500
X175100Y62500
X170100Y62500
X165100Y62500
X160100Y62500
X155100Y62500
X150100Y62500
X145100Y62500
X140100Y62500
X135100Y62500
X118000Y72800
X115800Y88900
X123100Y91000
X122800Y122200
X113300Y123300
X113200Y134200
X107100Y133700
X106200Y140300
X114200Y142600
X119100Y149000
X116700Y156500
X108100Y156000
X103100Y156000
X98100Y156000
X93100Y155000
X99300Y161100
X104500Y168000
X114500Y179800
X107900Y186300
X101700Y191000
X96600Y198600
X79600Y195400
X80800Y183400
X82600Y170500
X86000Y163300
X105100Y149000
X100300Y143400
X93200Y136700
X130500Y138600
X131100Y131000
X142100Y144000
X143700Y149400
X145300Y155200
X156100Y159500
X161100Y165500
X156100Y170500
X151100Y172500
X153100Y177000
X152100Y185000
X152100Y191000
X170100Y186000
X168100Y181000
X166100Y175000
X175000Y170500
X183100Y179000
X195700Y175300
X210100Y170300
X210600Y159900
X228800Y152000
X225800Y147000
X221700Y142900
X217900Y138600
X214300Y134100
X210700Y129900
X205900Y126400
X202000Y123000
X193700Y124900
X189700Y128800
X189700Y120200
X186800Y112900
X186900Y112800
X177100Y130000
X205100Y100200
X229600Y98500
X230100Y78100
X263600Y91000
X272500Y94000
X263600Y102500
X255100Y115500
X262600Y124500
X255100Y131500
X252600Y144500
X240600Y145000
X254100Y157500
X258300Y167600
X246800Y167500
X236600Y158500
X242200Y189100
X251200Y187700
X261800Y187500
X268900Y194500
X272600Y213500
X272600Y221000
X272600Y227000
X263100Y231500
X258100Y229500
X250100Y215500
X236800Y236700
X229500Y249200
X229500Y254200
X224500Y254200
X224500Y249200
X219500Y249200
X219500Y254200
X214500Y254200
X214500Y249200
X209500Y249200
X209500Y254200
X214600Y262200
X193400Y268700
X209100Y239000
X197200Y228300
X212800Y198600
X173100Y191000
X172100Y159500
X166100Y159500
X101100Y216500
X96500Y228500
X88800Y230400
X99100Y238200
X100300Y260600
X121700Y263400
X146000Y268600
X160100Y236500
X160100Y226000
X137100Y224500
X62400Y220300
X62400Y242100
X62400Y265300
X238600Y126200
X272600Y70500
X251100Y254700
X240500Y258000
T03
X60500Y198006
X60500Y186194
T04
X164300Y255800
X174300Y255800
X254600Y270400
X264600Y270400
X274600Y270400
X284600Y270400
X284400Y225800
X284400Y215800
X284400Y205800
X284400Y195800
X284400Y185800
X284400Y175800
X284400Y165800
X284400Y155800
X284400Y145800
X284400Y135800
X284400Y125800
X284400Y115800
X284400Y105800
X284400Y95800
X284400Y85800
M30
