M48
INCH,TZ
T01C.04
T02C.03
T03C.016
T04C.012
;LEADER: 12 
;HEADER: 
;CODE  : ASCII 
;FILE  : CLAYR6-1-4.drl for  ... layers TOP and BOTTOM
;T01 Holesize 1. = 40.000000 Tolerance = +0.000000/-0.000000 PLATED MILS Quantity = 38
;T02 Holesize 2. = 30.000000 Tolerance = +0.000000/-0.000000 PLATED MILS Quantity = 2
;T03 Holesize 3. = 16.000000 Tolerance = +0.000000/-0.000000 PLATED MILS Quantity = 3
;T04 Holesize 4. = 12.000000 Tolerance = +0.000000/-0.000000 PLATED MILS Quantity = 539
%
G90
T01
X-7450Y1000
R02Y-1000
X-8450Y1000
R02Y-1000
X-9450Y1000
R02Y-1000
X-9260Y8490
X-8260Y8490
X1000Y7450
R02X-1000
X1000Y8450
R02X-1000
X1000Y9450
R02X-1000
X-1000Y-7450
R02X1000
X-1000Y-8450
R02X1000
X-1000Y-9450
R02X1000
X7450Y-1000
R02Y1000
X8450Y-1000
R02Y1000
X9450Y-1000
R02Y1000
T02
X-3296Y7316
X-4084Y7316
T03
X-2150Y-8800
X-5590Y7000
X-5590Y6550
T04
X180Y4890
X-1760Y-2820
X2210Y-5050
X-9480Y6470
X-4170Y4810
X-7400Y-9300
X-7400Y-9600
X3230Y-9340
X3230Y-9640
X3530Y-9640
X-8450Y-7850
R02X-300
X-9650Y-7630
X-7850Y-7850
X-8150Y-7850
X-6950Y-7850
R02X-300
X-7400Y-9000
R03Y300
X-5150Y-7850
R05X-300
X-3650Y-7850
R04X-300
X-2450Y-7850
R03X-300
X-500Y-8010
X470Y-8010
X1430Y-7840
X1730Y-7840
X2030Y-8140
X2030Y-8440
X2330Y-8440
X2630Y-8740
X2630Y-9040
X2930Y-9040
X7210Y-7650
X-8450Y-7330
R02X-300
X-9650Y-6130
R03Y-300
X-9350Y-7330
X-9650Y-7330
X-8150Y-7330
X-7718Y-6000
X-7850Y-7330
X-5830Y-7030
X-4370Y-6900
X-3440Y-5960
X-4920Y-6350
X-2450Y-7550
R02Y300
X-2300Y-6650
R02Y300
X-1730Y-6620
X6100Y-6290
X-9650Y-4330
X-9650Y-4630
X-9650Y-3430
X-9650Y-5530
X-9650Y-4930
X-9650Y-5230
X-9650Y-5830
X-8900Y-4600
X-8510Y-5320
X-3660Y-4960
X-2300Y-5750
R04Y300
X-3240Y-4940
X-1040Y-5280
X7120Y-5280
X6678Y-5302
X7718Y-5279
X-8450Y-2830
R04X-300
X-9650Y-3130
X-9650Y-3730
X-9650Y-4030
X-6870Y-2830
X-6870Y-3430
X-6870Y-3130
X-7550Y-2830
R02X-300
X-8300Y-3200
X-5670Y-3230
R03X-300
X-4855Y-3230
X-3655Y-3230
X-3955Y-3230
R02X-300
X-2300Y-4250
X-2450Y-3950
X-2450Y-3650
X-2455Y-3230
R03X-300
X-1820Y-3960
X-310Y-3300
X290Y-4080
X100Y-2680
X2220Y-2848
X8250Y-3500
X2956Y-2260
X2710Y-1930
X2220Y-1983
X8250Y-2500
X-7980Y-500
X-7970Y510
X3150Y442
X7910Y530
X7910Y-500
X5840Y1810
X7160Y1770
X-470Y3890
X4200Y3390
X3500Y3450
X-9540Y5430
X2720Y5460
X2900Y5210
X3330Y5210
X3630Y5210
R09X300
X6150Y5640
X6630Y5210
R05X300
X7660Y5480
X8430Y5210
R04X300
X2720Y7260
X2720Y6660
X2720Y6360
R02Y-300
X2720Y6960
X4240Y6080
X3450Y6360
X4960Y6210
X6200Y5940
X7820Y6980
X8120Y7280
X7820Y7280
X7820Y6680
R03Y-300
X9620Y7280
R04X-300
X-490Y8200
X260Y7940
X1370Y7940
X2720Y8780
X2720Y8480
X3910Y7390
X7820Y7580
R04Y300
X7200Y8730
X2720Y9680
X3020Y9680
X2720Y9380
X2720Y9080
X4520Y9680
X4220Y9680
X3620Y9680
X3320Y9680
X3920Y9680
X4820Y9680
X6320Y9680
R04X-300
X7820Y9080
X7820Y9680
X7520Y9680
R03X-300
X7200Y9030
X7200Y9330
X1710Y-2690
X-3050Y6310
X-5870Y-5410
X-9040Y4950
X-4300Y1810
X-8490Y-3840
X-8070Y-4430
X-7320Y-4900
X9590Y-8320
X8750Y-8730
X-4270Y-5320
X-3970Y-5750
X1530Y910
X110Y-1230
X-1630Y2140
X-1540Y100
X-3010Y240
X-4220Y-130
X960Y3440
X-5460Y3250
X4820Y5620
X5440Y6070
X5370Y7200
X4540Y8000
X-1800Y8290
X-1550Y7030
X-1620Y5960
X1100Y5720
X1380Y-3460
X-5570Y890
X-2100Y3350
X-1150Y5330
X-1600Y5120
X-4910Y9410
X-3910Y9410
X-2410Y9410
X6430Y8980
X7380Y6750
X7380Y5750
X8330Y5690
X9570Y6690
X7210Y4770
R02Y-1000
X8210Y2770
R02Y1000
X-7090Y-9610
X-6090Y-9610
X-4590Y-9610
X-2340Y-9610
X6626Y2111
X-9110Y3520
X-6130Y3600
X-3760Y4750
X-2470Y1596
X-6180Y4670
X-8460Y5750
X-8640Y6110
X-8280Y6110
X-8640Y5390
X-8280Y5390
X-5880Y5570
X-6480Y6770
X-7080Y6770
X-6780Y6770
X-7380Y7070
X-7680Y7370
R06X-300
X-9480Y7070
X-9480Y6770
X-5580Y5570
R03X300
X-6780Y4670
X-6780Y4370
X-5880Y5270
R02Y-300
X-6480Y4670
X730Y-2890
X1600Y-4150
X1990Y118
X190Y-3100
X1170Y-4180
X2035Y-225
X150Y-3460
X-4140Y-2510
X-8390Y2440
X-4046Y3710
X3044Y-1876
X1699Y-970
X2550Y-1290
X2030Y-890
X3070Y-1040
X1451Y-454
X-7159Y3061
X-7500Y7700
X-7219Y7399
X-990Y2640
X-2850Y5600
X-6890Y7050
X-1340Y2850
X-3290Y5597
X-4855Y-4293
X-4150Y-4025
X-3356Y-5654
X-3738Y-5272
X-5202Y7422
X-7860Y6350
X-9380Y5730
X-9376Y6170
X-7170Y7840
X-6270Y8920
X-7560Y6350
X-7560Y6650
X9670Y-9670
X-7832Y-6870
X-7520Y-6719
X-6710Y-6500
X-5792Y-6586
X-4060Y-6900
X-3610Y-6910
X-1500Y-7220
R02X1000
X-7150Y-5670
X-4680Y-5850
X-4620Y-4500
X-3960Y-4895
X-1340Y-5280
X290Y-4380
X7419Y-5300
X6674Y-4762
X9390Y-4590
X-1807Y-3600
X-208Y-2672
X-980Y-3160
X1380Y-2680
X790Y-3500
X1880Y-3490
X6330Y-3000
X-2150Y-1230
X2946Y-2600
X6601Y-1683
X7300Y-1560
X-7220Y-500
X-7220Y500
X-5350Y-675
X7220Y500
X7220Y-500
X-7220Y1500
X3100Y1280
X-9380Y5060
X-7280Y4700
R04Y-300
X-4260Y2637
X-750Y3770
X3500Y3750
X8670Y3450
X5130Y4910
X-500Y7220
X500Y7220
X3720Y7100
X4270Y6930
X1750Y7450
X3750Y8750
X5520Y8520
X4450Y9010
X-1870Y-3130
X-4340Y-1160
X-4670Y40
X-9010Y3830
X-8580Y3170
X-7680Y3170
X-7980Y3170
X-8280Y3170
X-9010Y4430
X-9010Y4130
X-904Y-693
X-3156Y3528
X-2655Y3495
X-2899Y3683
X-1595Y5445
X-1381Y4856
X8080Y-6010
X5680Y-1517
X9379Y-7378
X5680Y930
X6380Y1940
X3140Y-5700
X-4650Y350
X3780Y-5450
X-5300Y1146
X8190Y-9560
X5290Y-9320
X5040Y-5450
X394Y5383
X4620Y-5450
X-150Y5100
X-237Y-453
X5890Y-5450
X780Y5660
X-657Y-522
X4573Y-8327
X9390Y-9560
X-530Y3450
X3120Y2890
X8210Y-6590
X5680Y-1200
X2720Y-5700
X-5735Y-1224
X3990Y-5700
X-5000Y1150
X9075Y-7075
X5680Y330
X-630Y3140
X3354Y2680
X4410Y-5700
X-850Y5630
X5680Y-5700
X1780Y6860
X2510Y-5450
X-5770Y-770
X7580Y-9560
X5920Y-9560
X5470Y-5454
X-200Y5750
X8430Y-6810
X5680Y-570
X8700Y-7150
X5680Y30
X8982Y-7482
X5680Y630
X3350Y-5450
X-5770Y-230
X5000Y-9200
X8490Y-9560
X4428Y-7975
X9620Y-9340
X2930Y-5450
X-7153Y-1439
X4200Y-5450
X-4700Y1150
X3570Y-5700
X-5750Y100
X5580Y-9440
X7890Y-9560
X5250Y-5700
X800Y5150
X4830Y-5700
X-1520Y6730
X6100Y-5700
X490Y5803
X8760Y-6780
X5680Y-270
X4759Y-8606
X9090Y-9560
X4820Y-8900
X8790Y-9560
X9304Y-7753
X5680Y1230
X1840Y5230
X1345Y5230
X-4540Y6320
X-5377Y-6777
X-5751Y-2160
X-1930Y-40
X-6559Y7079
X-5720Y5930
X-5080Y-6710
X-5451Y-2161
X-1742Y-316
X-1487Y-820
X-3870Y-2300
X-7102Y-6698
X-7530Y-4490
X-4528Y-5114
X-5150Y-2161
X910Y-549
X-4675Y-4815
X-4850Y-2160
X598Y-648
X809Y-1156
X-3784Y-2810
X2850Y-1293
X1494Y-751
X480Y-1150
X-3364Y-2790
X-696Y-2486
X632Y-4632
X8260Y-6250
X7720Y-6250
X9400Y-5450
X7600Y-1560
X2950Y-422
X-6637Y8857
X-540Y2170
X-2250Y5650
X-7170Y8320
X-760Y2430
X-2119Y5362
M30
