%
M48
M72
T01C0.02362
T02C0.02400
T03C0.03543
T04C0.04000
%
T01
X106000Y83300
X114100Y112800
X154800Y154800
X160800Y150800
X165800Y150800
X170800Y146800
X169700Y167100
X162800Y177800
X160900Y189300
X161900Y194000
X165800Y199800
X162800Y206300
X152300Y212300
X142300Y205800
X138800Y209800
X135100Y214500
X129900Y206500
X125000Y201100
X129700Y196600
X132800Y186800
X145300Y169200
X173100Y187900
X174000Y194100
X181300Y203300
X197200Y221900
X204300Y231000
X211400Y233200
X209600Y221700
X212000Y212200
X210400Y201000
X207300Y188500
X198800Y173300
X206500Y165400
X202300Y160500
X195600Y162100
X188000Y172900
X212200Y146900
X212200Y132900
X200200Y118700
X196800Y110800
X196800Y105800
X191800Y104800
X204800Y103800
X207800Y97800
X203800Y87800
X216800Y81800
X242900Y83000
X242900Y93000
X245800Y103800
X252800Y109800
X243800Y122800
X231900Y149200
X230800Y174800
X220800Y183200
X221400Y189200
X224200Y203300
X223700Y213600
X221700Y220600
X231300Y219700
X243800Y186300
X252800Y177300
X283200Y136800
X190800Y129800
X175800Y112800
X106500Y196700
X120300Y206700
X111600Y240900
X122400Y264700
X142800Y265300
X162800Y249300
X159800Y241300
X162300Y225800
X176800Y227800
X187100Y234100
T02
X121800Y187800
X110800Y172800
X123800Y159800
X114800Y154800
X114800Y145800
X137800Y133800
X151800Y145800
T03
X97800Y108894
X97800Y120706
T04
X105800Y92800
X115800Y92800
X125800Y92800
X135800Y92800
X145800Y92800
X155800Y92800
X165800Y92800
X175800Y92800
X185800Y92800
X195800Y92800
X261400Y136800
X261400Y146800
X261400Y156800
X261400Y166800
X261400Y176800
X261400Y186800
X261400Y196800
X261400Y206800
X272300Y206800
X272300Y196800
X272300Y186800
X272300Y176800
X272300Y166800
X272300Y156800
X272300Y146800
X272300Y136800
X283200Y136800
X283200Y146800
X283200Y156800
X283200Y166800
X283200Y176800
X283200Y186800
X283200Y196800
X283200Y206800
X98800Y190800
X98800Y180800
M30
