G75*
%MOIN*%
%OFA0B0*%
%FSLAX25Y25*%
%IPPOS*%
%LPD*%
%AMOC8*
5,1,8,0,0,1.08239X$1,22.5*
%
%ADD10C,0.02200*%
%ADD11C,0.00800*%
%ADD12R,0.01800X0.03000*%
%ADD13R,0.03000X0.01800*%
%ADD14C,0.00500*%
%ADD15C,0.01575*%
%ADD16C,0.00197*%
D10*
X0115800Y0137680D02*
X0115800Y0137920D01*
X0108920Y0147800D02*
X0108680Y0147800D01*
X0113800Y0159680D02*
X0113800Y0159920D01*
X0115800Y0166680D02*
X0115800Y0166920D01*
X0124680Y0178800D02*
X0124920Y0178800D01*
X0099200Y0209980D02*
X0099200Y0210220D01*
X0099200Y0218980D02*
X0099200Y0219220D01*
X0120100Y0237080D02*
X0120100Y0237320D01*
X0120100Y0245180D02*
X0120100Y0245420D01*
X0113700Y0259480D02*
X0113700Y0259720D01*
X0100600Y0246320D02*
X0100600Y0246080D01*
X0133200Y0259380D02*
X0133200Y0259620D01*
X0138700Y0221920D02*
X0138700Y0221680D01*
X0174300Y0221420D02*
X0174300Y0221180D01*
X0173900Y0243080D02*
X0173900Y0243320D01*
X0216400Y0241020D02*
X0216400Y0240780D01*
X0183620Y0182900D02*
X0183380Y0182900D01*
X0211580Y0161300D02*
X0211820Y0161300D01*
X0227300Y0159620D02*
X0227300Y0159380D01*
X0227400Y0167380D02*
X0227400Y0167620D01*
X0199800Y0131920D02*
X0199800Y0131680D01*
X0192920Y0117800D02*
X0192680Y0117800D01*
X0180800Y0119680D02*
X0180800Y0119920D01*
X0180800Y0128680D02*
X0180800Y0128920D01*
X0209680Y0079800D02*
X0209920Y0079800D01*
X0233900Y0097880D02*
X0233900Y0098120D01*
D11*
X0092682Y0104170D02*
X0092682Y0125430D01*
X0096619Y0127989D02*
X0098981Y0127989D01*
X0102918Y0120706D02*
X0102918Y0114800D01*
X0109863Y0116517D02*
X0109863Y0131083D01*
X0117737Y0131083D01*
X0117737Y0116517D01*
X0109863Y0116517D01*
X0098981Y0101611D02*
X0096619Y0101611D01*
X0100800Y0095300D02*
X0103300Y0097800D01*
X0108300Y0097800D01*
X0110800Y0095300D01*
X0113300Y0097800D01*
X0118300Y0097800D01*
X0120800Y0095300D01*
X0123300Y0097800D01*
X0128300Y0097800D01*
X0130800Y0095300D01*
X0133300Y0097800D01*
X0138300Y0097800D01*
X0140800Y0095300D01*
X0143300Y0097800D01*
X0148300Y0097800D01*
X0150800Y0095300D01*
X0153300Y0097800D01*
X0158300Y0097800D01*
X0160800Y0095300D01*
X0163300Y0097800D01*
X0168300Y0097800D01*
X0170800Y0095300D01*
X0173300Y0097800D01*
X0178300Y0097800D01*
X0180800Y0095300D01*
X0183300Y0097800D01*
X0188300Y0097800D01*
X0190800Y0095300D01*
X0193300Y0097800D01*
X0198300Y0097800D01*
X0200800Y0095300D01*
X0200800Y0090300D01*
X0198300Y0087800D01*
X0193300Y0087800D01*
X0190800Y0090300D01*
X0188300Y0087800D01*
X0183300Y0087800D01*
X0180800Y0090300D01*
X0178300Y0087800D01*
X0173300Y0087800D01*
X0170800Y0090300D01*
X0168300Y0087800D01*
X0163300Y0087800D01*
X0160800Y0090300D01*
X0158300Y0087800D01*
X0153300Y0087800D01*
X0150800Y0090300D01*
X0148300Y0087800D01*
X0143300Y0087800D01*
X0140800Y0090300D01*
X0138300Y0087800D01*
X0133300Y0087800D01*
X0130800Y0090300D01*
X0128300Y0087800D01*
X0123300Y0087800D01*
X0120800Y0090300D01*
X0118300Y0087800D01*
X0113300Y0087800D01*
X0110800Y0090300D01*
X0108300Y0087800D01*
X0103300Y0087800D01*
X0100800Y0090300D01*
X0100800Y0095300D01*
X0135115Y0142115D02*
X0174485Y0142115D01*
X0174485Y0181485D01*
X0139052Y0181485D01*
X0135115Y0177548D01*
X0135115Y0142115D01*
X0118737Y0175517D02*
X0110863Y0175517D01*
X0110863Y0190083D01*
X0118737Y0190083D01*
X0118737Y0175517D01*
X0103800Y0178300D02*
X0101300Y0175800D01*
X0096300Y0175800D01*
X0093800Y0178300D01*
X0093800Y0183300D01*
X0096300Y0185800D01*
X0093800Y0188300D01*
X0093800Y0193300D01*
X0096300Y0195800D01*
X0101300Y0195800D01*
X0103800Y0193300D01*
X0103800Y0188300D01*
X0101300Y0185800D01*
X0103800Y0183300D01*
X0103800Y0178300D01*
X0137019Y0231357D02*
X0139381Y0231357D01*
X0144499Y0238838D02*
X0144499Y0243562D01*
X0139381Y0251043D02*
X0137019Y0251043D01*
X0131901Y0243562D02*
X0131901Y0238838D01*
X0102200Y0257500D02*
X0102200Y0261500D01*
X0095200Y0261500D02*
X0095200Y0257500D01*
X0166500Y0212200D02*
X0166500Y0208200D01*
X0173500Y0208200D02*
X0173500Y0212200D01*
X0191138Y0239601D02*
X0195862Y0239601D01*
X0203343Y0244719D02*
X0203343Y0247081D01*
X0195862Y0252199D02*
X0191138Y0252199D01*
X0183657Y0247081D02*
X0183657Y0244719D01*
X0256400Y0209300D02*
X0256400Y0204300D01*
X0258900Y0201800D01*
X0256400Y0199300D01*
X0256400Y0194300D01*
X0258900Y0191800D01*
X0256400Y0189300D01*
X0256400Y0184300D01*
X0258900Y0181800D01*
X0256400Y0179300D01*
X0256400Y0174300D01*
X0258900Y0171800D01*
X0256400Y0169300D01*
X0256400Y0164300D01*
X0258900Y0161800D01*
X0256400Y0159300D01*
X0256400Y0154300D01*
X0258900Y0151800D01*
X0256400Y0149300D01*
X0256400Y0144300D01*
X0258900Y0141800D01*
X0256400Y0139300D01*
X0256400Y0134300D01*
X0258900Y0131800D01*
X0263900Y0131800D01*
X0266400Y0134300D01*
X0266400Y0139300D01*
X0263900Y0141800D01*
X0266400Y0144300D01*
X0266400Y0149300D01*
X0263900Y0151800D01*
X0266400Y0154300D01*
X0266400Y0159300D01*
X0263900Y0161800D01*
X0266400Y0164300D01*
X0266400Y0169300D01*
X0263900Y0171800D01*
X0266400Y0174300D01*
X0266400Y0179300D01*
X0263900Y0181800D01*
X0266400Y0184300D01*
X0266400Y0189300D01*
X0263900Y0191800D01*
X0266400Y0194300D01*
X0266400Y0199300D01*
X0263900Y0201800D01*
X0266400Y0204300D01*
X0266400Y0209300D01*
X0263900Y0211800D01*
X0258900Y0211800D01*
X0256400Y0209300D01*
X0267300Y0209300D02*
X0267300Y0204300D01*
X0269800Y0201800D01*
X0267300Y0199300D01*
X0267300Y0194300D01*
X0269800Y0191800D01*
X0267300Y0189300D01*
X0267300Y0184300D01*
X0269800Y0181800D01*
X0267300Y0179300D01*
X0267300Y0174300D01*
X0269800Y0171800D01*
X0267300Y0169300D01*
X0267300Y0164300D01*
X0269800Y0161800D01*
X0267300Y0159300D01*
X0267300Y0154300D01*
X0269800Y0151800D01*
X0267300Y0149300D01*
X0267300Y0144300D01*
X0269800Y0141800D01*
X0267300Y0139300D01*
X0267300Y0134300D01*
X0269800Y0131800D01*
X0274800Y0131800D01*
X0277300Y0134300D01*
X0277300Y0139300D01*
X0274800Y0141800D01*
X0277300Y0144300D01*
X0277300Y0149300D01*
X0274800Y0151800D01*
X0277300Y0154300D01*
X0277300Y0159300D01*
X0274800Y0161800D01*
X0277300Y0164300D01*
X0277300Y0169300D01*
X0274800Y0171800D01*
X0277300Y0174300D01*
X0277300Y0179300D01*
X0274800Y0181800D01*
X0277300Y0184300D01*
X0277300Y0189300D01*
X0274800Y0191800D01*
X0277300Y0194300D01*
X0277300Y0199300D01*
X0274800Y0201800D01*
X0277300Y0204300D01*
X0277300Y0209300D01*
X0274800Y0211800D01*
X0269800Y0211800D01*
X0267300Y0209300D01*
X0266469Y0219989D02*
X0266469Y0221800D01*
X0265249Y0220880D01*
X0266469Y0221800D02*
X0266469Y0223611D01*
X0265249Y0222660D02*
X0266409Y0221900D01*
X0266469Y0228989D02*
X0266469Y0230800D01*
X0265249Y0229880D01*
X0266469Y0230800D02*
X0266469Y0232611D01*
X0265249Y0231660D02*
X0266409Y0230900D01*
X0266469Y0237989D02*
X0266469Y0239800D01*
X0265249Y0238880D01*
X0266469Y0239800D02*
X0266469Y0241611D01*
X0265249Y0240660D02*
X0266409Y0239900D01*
X0280700Y0211800D02*
X0278200Y0209300D01*
X0278200Y0204300D01*
X0280700Y0201800D01*
X0278200Y0199300D01*
X0278200Y0194300D01*
X0280700Y0191800D01*
X0278200Y0189300D01*
X0278200Y0184300D01*
X0280700Y0181800D01*
X0278200Y0179300D01*
X0278200Y0174300D01*
X0280700Y0171800D01*
X0278200Y0169300D01*
X0278200Y0164300D01*
X0280700Y0161800D01*
X0278200Y0159300D01*
X0278200Y0154300D01*
X0280700Y0151800D01*
X0278200Y0149300D01*
X0278200Y0144300D01*
X0280700Y0141800D01*
X0278200Y0139300D01*
X0278200Y0134300D01*
X0280700Y0131800D01*
X0285700Y0131800D01*
X0288200Y0134300D01*
X0288200Y0139300D01*
X0285700Y0141800D01*
X0288200Y0144300D01*
X0288200Y0149300D01*
X0285700Y0151800D01*
X0288200Y0154300D01*
X0288200Y0159300D01*
X0285700Y0161800D01*
X0288200Y0164300D01*
X0288200Y0169300D01*
X0285700Y0171800D01*
X0288200Y0174300D01*
X0288200Y0179300D01*
X0285700Y0181800D01*
X0288200Y0184300D01*
X0288200Y0189300D01*
X0285700Y0191800D01*
X0288200Y0194300D01*
X0288200Y0199300D01*
X0285700Y0201800D01*
X0288200Y0204300D01*
X0288200Y0209300D01*
X0285700Y0211800D01*
X0280700Y0211800D01*
X0232660Y0139351D02*
X0231900Y0138191D01*
X0231800Y0138131D02*
X0230880Y0139351D01*
X0229989Y0138131D02*
X0231800Y0138131D01*
X0233611Y0138131D01*
X0221700Y0123300D02*
X0219100Y0123300D01*
X0209894Y0122706D02*
X0208910Y0123690D01*
X0199162Y0137501D02*
X0194438Y0137501D01*
X0186957Y0142619D02*
X0186957Y0144981D01*
X0194438Y0150099D02*
X0199162Y0150099D01*
X0206643Y0144981D02*
X0206643Y0142619D01*
X0210000Y0110300D02*
X0212600Y0110300D01*
X0219100Y0110300D02*
X0221700Y0110300D01*
X0221572Y0097902D02*
X0218028Y0097902D01*
X0218028Y0085698D02*
X0221572Y0085698D01*
D12*
X0233900Y0088000D03*
X0233900Y0080000D03*
X0223100Y0105600D03*
X0220800Y0132800D03*
X0220800Y0143800D03*
X0218800Y0194400D03*
X0204000Y0194200D03*
X0184100Y0199200D03*
X0173900Y0235100D03*
X0099200Y0227200D03*
X0278800Y0230800D03*
X0278800Y0221800D03*
X0278800Y0239800D03*
D13*
X0231800Y0124800D03*
X0235900Y0107000D03*
X0120800Y0147800D03*
X0151200Y0245400D03*
D14*
X0204994Y0182606D02*
X0206176Y0182606D01*
X0204994Y0182606D02*
X0204994Y0181424D01*
X0215624Y0182606D02*
X0216806Y0182606D01*
X0216806Y0181424D01*
X0216806Y0171976D02*
X0216806Y0170794D01*
X0215624Y0170794D01*
X0206176Y0170794D02*
X0204994Y0170794D01*
X0204994Y0171976D01*
X0164036Y0126099D02*
X0143564Y0126099D01*
X0143564Y0113501D02*
X0164036Y0113501D01*
X0138769Y0176831D02*
X0138771Y0176894D01*
X0138777Y0176956D01*
X0138787Y0177018D01*
X0138800Y0177080D01*
X0138818Y0177140D01*
X0138839Y0177199D01*
X0138864Y0177257D01*
X0138893Y0177313D01*
X0138925Y0177367D01*
X0138960Y0177419D01*
X0138998Y0177468D01*
X0139040Y0177516D01*
X0139084Y0177560D01*
X0139132Y0177602D01*
X0139181Y0177640D01*
X0139233Y0177675D01*
X0139287Y0177707D01*
X0139343Y0177736D01*
X0139401Y0177761D01*
X0139460Y0177782D01*
X0139520Y0177800D01*
X0139582Y0177813D01*
X0139644Y0177823D01*
X0139706Y0177829D01*
X0139769Y0177831D01*
X0139832Y0177829D01*
X0139894Y0177823D01*
X0139956Y0177813D01*
X0140018Y0177800D01*
X0140078Y0177782D01*
X0140137Y0177761D01*
X0140195Y0177736D01*
X0140251Y0177707D01*
X0140305Y0177675D01*
X0140357Y0177640D01*
X0140406Y0177602D01*
X0140454Y0177560D01*
X0140498Y0177516D01*
X0140540Y0177468D01*
X0140578Y0177419D01*
X0140613Y0177367D01*
X0140645Y0177313D01*
X0140674Y0177257D01*
X0140699Y0177199D01*
X0140720Y0177140D01*
X0140738Y0177080D01*
X0140751Y0177018D01*
X0140761Y0176956D01*
X0140767Y0176894D01*
X0140769Y0176831D01*
X0140767Y0176768D01*
X0140761Y0176706D01*
X0140751Y0176644D01*
X0140738Y0176582D01*
X0140720Y0176522D01*
X0140699Y0176463D01*
X0140674Y0176405D01*
X0140645Y0176349D01*
X0140613Y0176295D01*
X0140578Y0176243D01*
X0140540Y0176194D01*
X0140498Y0176146D01*
X0140454Y0176102D01*
X0140406Y0176060D01*
X0140357Y0176022D01*
X0140305Y0175987D01*
X0140251Y0175955D01*
X0140195Y0175926D01*
X0140137Y0175901D01*
X0140078Y0175880D01*
X0140018Y0175862D01*
X0139956Y0175849D01*
X0139894Y0175839D01*
X0139832Y0175833D01*
X0139769Y0175831D01*
X0139706Y0175833D01*
X0139644Y0175839D01*
X0139582Y0175849D01*
X0139520Y0175862D01*
X0139460Y0175880D01*
X0139401Y0175901D01*
X0139343Y0175926D01*
X0139287Y0175955D01*
X0139233Y0175987D01*
X0139181Y0176022D01*
X0139132Y0176060D01*
X0139084Y0176102D01*
X0139040Y0176146D01*
X0138998Y0176194D01*
X0138960Y0176243D01*
X0138925Y0176295D01*
X0138893Y0176349D01*
X0138864Y0176405D01*
X0138839Y0176463D01*
X0138818Y0176522D01*
X0138800Y0176582D01*
X0138787Y0176644D01*
X0138777Y0176706D01*
X0138771Y0176768D01*
X0138769Y0176831D01*
D15*
X0203813Y0183393D03*
D16*
X0113658Y0212901D02*
X0113660Y0212943D01*
X0113666Y0212984D01*
X0113676Y0213025D01*
X0113690Y0213065D01*
X0113707Y0213103D01*
X0113728Y0213139D01*
X0113752Y0213173D01*
X0113780Y0213205D01*
X0113810Y0213234D01*
X0113843Y0213259D01*
X0113878Y0213282D01*
X0113915Y0213301D01*
X0113954Y0213317D01*
X0113994Y0213329D01*
X0114035Y0213337D01*
X0114077Y0213341D01*
X0114119Y0213341D01*
X0114161Y0213337D01*
X0114202Y0213329D01*
X0114242Y0213317D01*
X0114281Y0213301D01*
X0114318Y0213282D01*
X0114353Y0213259D01*
X0114386Y0213234D01*
X0114416Y0213205D01*
X0114444Y0213173D01*
X0114468Y0213139D01*
X0114489Y0213103D01*
X0114506Y0213065D01*
X0114520Y0213025D01*
X0114530Y0212984D01*
X0114536Y0212943D01*
X0114538Y0212901D01*
X0114536Y0212859D01*
X0114530Y0212818D01*
X0114520Y0212777D01*
X0114506Y0212737D01*
X0114489Y0212699D01*
X0114468Y0212663D01*
X0114444Y0212629D01*
X0114416Y0212597D01*
X0114386Y0212568D01*
X0114353Y0212543D01*
X0114318Y0212520D01*
X0114281Y0212501D01*
X0114242Y0212485D01*
X0114202Y0212473D01*
X0114161Y0212465D01*
X0114119Y0212461D01*
X0114077Y0212461D01*
X0114035Y0212465D01*
X0113994Y0212473D01*
X0113954Y0212485D01*
X0113915Y0212501D01*
X0113878Y0212520D01*
X0113843Y0212543D01*
X0113810Y0212568D01*
X0113780Y0212597D01*
X0113752Y0212629D01*
X0113728Y0212663D01*
X0113707Y0212699D01*
X0113690Y0212737D01*
X0113676Y0212777D01*
X0113666Y0212818D01*
X0113660Y0212859D01*
X0113658Y0212901D01*
M02*
