G04 ================== begin FILE IDENTIFICATION RECORD ==================*
G04 Layout Name:  E:/git/clay/Circuit/R6_1/allegro_c6r3/CLAYc6r3.brd*
G04 Film Name:    BOTTOM*
G04 File Format:  Gerber RS274X*
G04 File Origin:  Cadence Allegro 16.6-P004*
G04 Origin Date:  Sun Mar 06 08:34:24 2016*
G04 *
G04 Layer:  ETCH/BOTTOM*
G04 Layer:  PIN/BOTTOM*
G04 Layer:  VIA CLASS/BOTTOM*
G04 *
G04 Offset:    (0.00 0.00)*
G04 Mirror:    No*
G04 Mode:      Positive*
G04 Rotation:  0*
G04 FullContactRelief:  No*
G04 UndefLineWidth:     0.00*
G04 ================== end FILE IDENTIFICATION RECORD ====================*
%FSLAX25Y25*MOIN*%
%IR0*IPPOS*OFA0.00000B0.00000*MIA0B0*SFA1.00000B1.00000*%
%ADD14C,.05*%
%ADD13C,.032*%
%ADD10C,.024*%
%ADD11C,.07*%
%ADD12C,.048*%
%ADD15C,.01*%
%ADD16C,.016*%
%ADD17C,.006*%
%ADD20C,.06004*%
%ADD21C,.06204*%
%ADD19C,.03604*%
%ADD18C,.08204*%
G75*
%LPD*%
G75*
G36*
G01X97999Y-6874D02*
G02X97317Y-7158I-400J0D01*
G03Y-12842I-2817J-2842D01*
G02X97999Y-13126I282J-284D01*
G01Y-97999D01*
X13126D01*
G02X12842Y-97317I0J400D01*
G03X7158I-2842J2817D01*
G02X6874Y-97999I-284J-282D01*
G01X3126D01*
G02X2842Y-97317I0J400D01*
G03X-2842I-2842J2817D01*
G02X-3126Y-97999I-284J-282D01*
G01X-6874D01*
G02X-7158Y-97317I0J400D01*
G03X-12842I-2842J2817D01*
G02X-13126Y-97999I-284J-282D01*
G01X-75398D01*
Y-79798D01*
X-97999D01*
Y-13126D01*
G02X-97317Y-12842I400J0D01*
G03Y-7158I2817J2842D01*
G02X-97999Y-6874I-282J284D01*
G01Y-3126D01*
G02X-97317Y-2842I400J0D01*
G03Y2842I2817J2842D01*
G02X-97999Y3126I-282J284D01*
G01Y6874D01*
G02X-97317Y7158I400J0D01*
G03Y12842I2817J2842D01*
G02X-97999Y13126I-282J284D01*
G01Y34861D01*
G02X-97316Y35143I400J-1D01*
G01X-89671Y27498D01*
X-73424D01*
X-72056Y28866D01*
X-71951Y28844D01*
G03X-69978Y31419I363J1765D01*
G02X-69621Y31998I357J179D01*
G01X-64027D01*
X-61768Y34257D01*
X-61663Y34235D01*
G03X-63065Y35637I363J1765D01*
G01X-63043Y35532D01*
X-64773Y33802D01*
X-70749D01*
G02X-71121Y34347I1J400D01*
G03X-71481Y36228I-1679J654D01*
G02Y36772I293J272D01*
G03Y39228I-1319J1228D01*
G02Y39772I293J272D01*
G03Y42228I-1319J1228D01*
G02Y42772I293J272D01*
G03Y45228I-1319J1228D01*
G02Y45772I293J272D01*
G03X-74360Y47902I-1319J1228D01*
G01X-91927D01*
X-92661Y48636D01*
G02X-92636Y49224I283J283D01*
G03X-94702Y49040I-1164J1376D01*
G01Y48127D01*
X-92673Y46098D01*
X-74360D01*
G03X-74119Y45772I1560J901D01*
G02Y45228I-293J-272D01*
G03Y42772I1319J-1228D01*
G02Y42228I-293J-272D01*
G03Y39772I1319J-1228D01*
G02Y39228I-293J-272D01*
G03Y36772I1319J-1228D01*
G02Y36228I-293J-272D01*
G03X-73725Y33454I1319J-1228D01*
G02X-73647Y32827I-205J-344D01*
G01X-75973Y30502D01*
X-88427D01*
X-90198Y32273D01*
Y33640D01*
G03X-92002I-902J1560D01*
G01Y33344D01*
G02X-92684Y33061I-400J0D01*
G01X-96598Y36975D01*
Y74127D01*
X-94627Y76098D01*
X-76560D01*
G03Y77902I1560J902D01*
G01X-95373D01*
X-97316Y75959D01*
G02X-97999Y76241I-283J283D01*
G01Y97999D01*
X-13126D01*
G02X-12842Y97317I0J-400D01*
G03X-12170Y91138I2842J-2817D01*
G02X-12387Y90402I-217J-336D01*
G01X-18873D01*
X-24202Y85073D01*
Y80240D01*
G02X-24884Y79957I-400J0D01*
G01X-30130Y85202D01*
X-32873D01*
X-32973Y85102D01*
X-64327D01*
X-65466Y86240D01*
Y87007D01*
G03X-67269I-901J1560D01*
G01Y85494D01*
X-66559Y84784D01*
G02X-66842Y84102I-283J-282D01*
G01X-70140D01*
G03Y82298I-1560J-902D01*
G01X-65773D01*
X-65463Y81988D01*
X-71720Y75731D01*
X-71825Y75753D01*
G03X-70423Y74351I-363J-1765D01*
G01X-70445Y74456D01*
X-70143Y74758D01*
G02X-69801Y74617I142J-141D01*
G01Y72060D01*
G03X-67442Y69440I901J-1560D01*
G02X-66841Y69493I324J-235D01*
G03X-64214Y69626I1251J1297D01*
G02X-63626Y69651I305J-258D01*
G01X-61702Y67727D01*
Y62527D01*
X-58943Y59768D01*
X-58965Y59663D01*
G03X-57563Y61065I1765J-363D01*
G01X-57668Y61043D01*
X-59898Y63273D01*
Y68473D01*
X-63117Y71692D01*
X-64030D01*
G03X-67048Y71850I-1560J-902D01*
G02X-67649Y71797I-324J235D01*
G03X-67998Y72060I-1251J-1297D01*
G01Y75127D01*
X-63512Y79614D01*
X-32286D01*
X-29002Y76329D01*
Y69673D01*
X-33802Y64873D01*
Y57529D01*
G03Y54409I902J-1560D01*
G01Y43842D01*
G02X-34484Y43559I-400J0D01*
G01X-37957Y47032D01*
X-37935Y47137D01*
G03X-39337Y45735I-1765J363D01*
G01X-39232Y45757D01*
X-35002Y41527D01*
Y36496D01*
X-35004Y34629D01*
X-26273Y25898D01*
G02X-26448Y25230I-283J-283D01*
G03X-27522Y24396I486J-1735D01*
G01X-29091D01*
G02X-29365Y25088I0J400D01*
G03X-32365Y26037I-1235J1312D01*
G01X-32343Y25932D01*
X-32678Y25596D01*
X-61876D01*
X-62171Y25302D01*
X-82340D01*
G03Y23498I-1560J-902D01*
G01X-63242D01*
G02X-62959Y22816I0J-400D01*
G01X-72306Y13469D01*
X-72439Y13547D01*
G03X-75593Y13954I-2061J-3547D01*
G02X-76081Y14459I-106J385D01*
G03X-77979Y13207I-1719J541D01*
G02X-77706Y12559I-39J-398D01*
G03X-71677Y7024I3206J-2559D01*
G02X-71002Y6734I275J-290D01*
G01Y4773D01*
X-72306Y3469D01*
X-72439Y3547D01*
G03X-70953Y2061I-2061J-3547D01*
G01X-71031Y2194D01*
X-70484Y2741D01*
G02X-69802Y2458I282J-283D01*
G01Y-8427D01*
X-70023Y-8648D01*
G02X-70678Y-8510I-282J283D01*
G03X-70535Y-11050I-3822J-1489D01*
G01X-70495Y-10902D01*
X-69727D01*
X-67998Y-9173D01*
Y11829D01*
X-59634Y20194D01*
X-30190D01*
X-27543Y17546D01*
X-27565Y17441D01*
G03X-24263Y16137I1765J-363D01*
G02X-23609Y16177I341J-209D01*
G03X-22563Y19065I1409J1123D01*
G01X-22668Y19043D01*
X-22898Y19273D01*
Y23256D01*
G02X-22216Y23539I400J0D01*
G01X-17613Y18936D01*
X1595D01*
G03X4954Y19743I1560J902D01*
G02X5399Y20119I400J-22D01*
G03X7405Y21820I206J1790D01*
G02X7822Y22200I400J-20D01*
G03X9701Y23937I78J1800D01*
G02X10194Y24311I400J-15D01*
G03X9118Y27071I419J1753D01*
G01X9108Y27055D01*
X9084Y27030D01*
X8913D01*
X8877Y27066D01*
X6630D01*
X5739Y26176D01*
X3837D01*
X2966Y25304D01*
X889D01*
X-11Y24404D01*
X-1617D01*
G02X-1719Y24980I218J336D01*
G03X-3523Y27827I-1441J1082D01*
G01X-3628Y27805D01*
X-6208Y30384D01*
Y33063D01*
G02X-5662Y33436I400J0D01*
G03X-4108Y36675I653J1679D01*
G01Y48092D01*
X-4131Y48116D01*
G02X-3848Y48798I283J282D01*
G01X-2275D01*
X-2204Y48727D01*
Y47640D01*
X-2202Y47639D01*
Y42844D01*
X-2073Y42714D01*
G02X-2254Y42044I-282J-283D01*
G03X-56Y39846I454J-1744D01*
G02X614Y40027I387J-101D01*
G01X23743Y16898D01*
X29243D01*
X40460Y5681D01*
G02X40199Y4999I-283J-283D01*
G03X42099Y3099I101J-1799D01*
G02X42781Y3360I399J-22D01*
G01X44198Y1943D01*
Y-4775D01*
G02X43516Y-5058I-400J0D01*
G01X29856Y8602D01*
X-52491D01*
X-55721Y11832D01*
X-55699Y11937D01*
G03X-56160Y13543I-1765J363D01*
G02X-56166Y14088I290J276D01*
G03X-59265Y14937I-1334J1212D01*
G01X-59243Y14832D01*
X-61002Y13073D01*
Y8174D01*
X-59069Y6241D01*
G02X-59057Y5689I-283J-282D01*
G03X-59491Y4111I1331J-1215D01*
G01X-59469Y4006D01*
X-60602Y2873D01*
Y-2843D01*
X-59032Y-4413D01*
X-59168Y-4554D01*
G03X-59631Y-6163I1302J-1246D01*
G01X-59609Y-6268D01*
X-60802Y-7461D01*
Y-13243D01*
X-59829Y-14216D01*
G02X-60112Y-14898I-283J-282D01*
G01X-64940D01*
G03Y-16702I-1560J-902D01*
G01X-64142D01*
G02X-63859Y-17384I0J-400D01*
G01X-65736Y-19261D01*
G02X-66324Y-19236I-283J283D01*
G03X-66140Y-21302I-1376J-1164D01*
G01X-65227D01*
X-61827Y-17902D01*
X-50230D01*
G02X-49947Y-18584I0J-400D01*
G01X-58602Y-27239D01*
Y-33409D01*
X-63591Y-38398D01*
X-67773D01*
X-76502Y-47127D01*
Y-57973D01*
X-71926Y-62548D01*
Y-65415D01*
G03X-70124I901J-1560D01*
G01Y-61802D01*
X-74698Y-57227D01*
Y-47873D01*
X-68191Y-41366D01*
G02X-67510Y-41603I283J-282D01*
G03X-64160Y-42302I1790J203D01*
G01X-63247D01*
X-56784Y-35839D01*
G02X-56102Y-36122I282J-283D01*
G01Y-38912D01*
X-56352Y-39163D01*
Y-45633D01*
X-56102Y-45884D01*
Y-48749D01*
X-52902Y-51949D01*
Y-63527D01*
X-54672Y-65297D01*
Y-66210D01*
G03X-52268Y-68766I902J-1560D01*
G02X-51729Y-68644I333J-221D01*
G03X-49898Y-65540I930J1543D01*
G01Y-52522D01*
G02X-49216Y-52239I400J0D01*
G01X-46938Y-54516D01*
X-44345D01*
G03X-41921Y-52034I1560J901D01*
G02X-42087Y-51504I192J351D01*
G03X-44349Y-49019I-1613J804D01*
G02X-44874Y-48524I-144J373D01*
G03X-45124Y-46931I-1717J547D01*
G02X-45053Y-46390I325J232D01*
G03X-44746Y-43936I-1147J1390D01*
G02X-44423Y-43300I323J236D01*
G01X-43275D01*
X-41968Y-41993D01*
X-41863Y-42015D01*
G03X-43265Y-40613I363J1765D01*
G01X-43243Y-40718D01*
X-44021Y-41496D01*
X-46991D01*
G03X-48999Y-40653I-1560J-902D01*
G02X-49498Y-40266I-99J387D01*
G01Y-30873D01*
X-44927Y-26302D01*
X-39173D01*
X-38502Y-26973D01*
Y-28140D01*
G03X-36698I902J-1560D01*
G01Y-26227D01*
X-37141Y-25784D01*
G02X-36858Y-25102I283J282D01*
G01X-28865D01*
X-27465Y-26502D01*
X-26637D01*
X-25737Y-27402D01*
X-22030D01*
X-20930Y-28502D01*
X-17068D01*
X-16775Y-28794D01*
X-735D01*
G02X-452Y-29477I0J-400D01*
G01X-2102Y-31127D01*
Y-68027D01*
X-3073Y-68998D01*
X-9773D01*
X-10902Y-70127D01*
Y-70495D01*
X-11050Y-70535D01*
G03X-12775Y-71479I1049J-3965D01*
G02X-13401Y-71369I-271J294D01*
G03X-16063Y-70745I-1599J-831D01*
G02X-16698Y-70422I-235J323D01*
G01Y-69973D01*
X-15298Y-68573D01*
Y-50443D01*
X-14598Y-49743D01*
Y-47257D01*
X-14998Y-46857D01*
Y-43726D01*
X-22886Y-35838D01*
X-22864Y-35733D01*
G03X-24266Y-37135I-1765J363D01*
G01X-24161Y-37113D01*
X-16802Y-44472D01*
Y-47603D01*
X-16402Y-48003D01*
Y-48997D01*
X-17102Y-49697D01*
Y-67827D01*
X-18502Y-69227D01*
Y-81227D01*
X-22402Y-85127D01*
Y-85991D01*
G03X-20247Y-86189I902J-2009D01*
G02X-20302Y-85577I227J329D01*
G01X-16698Y-81973D01*
Y-73978D01*
G02X-16063Y-73655I400J0D01*
G03X-14590Y-73955I1063J1455D01*
G02X-14100Y-74358I91J-389D01*
G03X-5900I4100J-142D01*
G02X-5410Y-73955I399J14D01*
G03X-4590I410J1755D01*
G02X-4100Y-74358I91J-389D01*
G03X4100I4100J-142D01*
G02X4590Y-73955I399J14D01*
G03X5410I410J1755D01*
G02X5900Y-74358I91J-389D01*
G03X11050Y-70535I4100J-142D01*
G01X10902Y-70495D01*
Y-70327D01*
X9773Y-69198D01*
X3273D01*
X2102Y-68027D01*
Y-46978D01*
G02X2737Y-46655I400J0D01*
G03X2898Y-46760I1063J1455D01*
G01Y-47673D01*
X12927Y-57702D01*
X31627D01*
X32757Y-58832D01*
X32735Y-58937D01*
G03X35005Y-61030I1765J-363D01*
G02X35518Y-61414I113J-384D01*
G01Y-61609D01*
X34618Y-62509D01*
Y-62762D01*
X27582Y-69798D01*
Y-71896D01*
X26682Y-72796D01*
Y-78686D01*
X27872Y-79877D01*
X27850Y-79982D01*
G03X30514Y-81907I1765J-363D01*
G02X30814Y-82080I100J-173D01*
G01Y-82157D01*
X31457Y-82801D01*
X31435Y-82906D01*
G03X31521Y-83922I1765J-362D01*
G02X31148Y-84468I-373J-146D01*
G01X29356D01*
X28533Y-85290D01*
X28428Y-85268D01*
G03X29330Y-88317I-363J-1765D01*
G02X30008Y-88559I281J-285D01*
G03X33565Y-88005I1792J191D01*
G01X33543Y-87900D01*
X33972Y-87470D01*
X34498D01*
G02X34752Y-88179I0J-400D01*
G03X37665Y-89205I1148J-1389D01*
G01X37643Y-89100D01*
X38072Y-88670D01*
X38400D01*
G02X38654Y-89379I0J-400D01*
G03X41567Y-90405I1148J-1389D01*
G01X41545Y-90300D01*
X41974Y-89870D01*
X42306D01*
G02X42560Y-90579I0J-400D01*
G03X44538Y-93567I1148J-1388D01*
G02X45097Y-93783I184J-355D01*
G03X47389Y-94856I1690J626D01*
G02X47889Y-95072I134J-377D01*
G03X50130Y-96054I1652J721D01*
G02X50631Y-96281I131J-378D01*
G03X54095Y-95438I1669J680D01*
G02X54493Y-95002I398J36D01*
G01X67591D01*
G02X67989Y-95435I0J-400D01*
G03X70967Y-96945I1796J-150D01*
G02X71519Y-96972I262J-302D01*
G03X74096Y-97008I1306J1242D01*
G02X74654Y-97002I282J-283D01*
G03X77128Y-97019I1246J1302D01*
G02X77672I272J-293D01*
G03X80128I1228J1319D01*
G02X80672I272J-293D01*
G03X83176Y-96972I1228J1319D01*
G02X83741Y-96971I283J-283D01*
G03X86266Y-96985I1270J1279D01*
G02X86824I279J-287D01*
G03X89305Y-97016I1257J1291D01*
G02X89850Y-97018I271J-294D01*
G03X91982Y-94142I1231J1315D01*
G01Y-93229D01*
X83552Y-84798D01*
X83167D01*
X82836Y-84468D01*
X35252D01*
G02X34879Y-83922I0J400D01*
G03X34927Y-82755I-1679J654D01*
G02X35193Y-82259I383J114D01*
G03X34301Y-78771I-528J1723D01*
G01X34196Y-78793D01*
X33552Y-78150D01*
X33502D01*
X32686Y-77334D01*
G02X32808Y-76685I283J283D01*
G03X33827Y-74581I-725J1650D01*
G01X33820Y-74530D01*
G02X34020Y-74330I200J0D01*
G01X34037Y-74331D01*
G03X34198Y-74337I148J1796D01*
G02X34598Y-74791I4J-400D01*
G03X38127Y-74581I1785J-244D01*
G01X38120Y-74530D01*
G02X38320Y-74330I200J0D01*
G01X38337Y-74331D01*
G03X38416Y-74336I153J1796D01*
G02X38798Y-74790I-14J-400D01*
G03X42327Y-74581I1785J-245D01*
G01X42320Y-74530D01*
G02X42520Y-74330I200J0D01*
G01X42537Y-74331D01*
G03X42616Y-74336I153J1796D01*
G02X42998Y-74790I-14J-400D01*
G03X46527Y-74581I1785J-245D01*
G01X46520Y-74530D01*
G02X46720Y-74330I200J0D01*
G01X46737Y-74331D01*
G03X46816Y-74336I153J1796D01*
G02X47198Y-74790I-14J-400D01*
G03X49884Y-73475I1785J-245D01*
G01Y-71366D01*
G02X50382Y-70978I400J0D01*
G03X50752Y-71031I439J1748D01*
G02X51134Y-71485I-14J-400D01*
G03X53898Y-70218I1785J-245D01*
G01Y-67954D01*
X53758Y-67813D01*
Y-67609D01*
X53850Y-67517D01*
X53982Y-67593D01*
G03X54807Y-67830I896J1564D01*
G02X55188Y-68276I-16J-399D01*
G03X57880Y-66925I1790J-209D01*
G01Y-63990D01*
G02X58386Y-63605I400J-1D01*
G03X58797Y-63669I481J1737D01*
G02X59179Y-64123I-14J-400D01*
G03X61866Y-62808I1785J-245D01*
G01Y-59739D01*
X64302Y-57303D01*
Y-49445D01*
G02X65028Y-49215I400J-1D01*
G03Y-47135I1472J1040D01*
G02X64302Y-46905I-326J231D01*
G01Y-38942D01*
G02X64984Y-38659I400J0D01*
G01X78414Y-52088D01*
Y-58988D01*
X79057Y-59632D01*
X79035Y-59737D01*
G03X79238Y-60999I1765J-363D01*
G02X78892Y-61598I-347J-199D01*
G01X78764D01*
X78705Y-61509D01*
G03X78760Y-63402I-1505J-991D01*
G01X81040D01*
G03X81281Y-63727I1559J904D01*
G02X81190Y-64345I-293J-273D01*
G03X82098Y-67702I910J-1555D01*
G02X82498Y-68102I0J-400D01*
G03X85758Y-69159I1802J2D01*
G02X86357Y-69105I323J-236D01*
G03X86421Y-69163I1242J1306D01*
G02X86312Y-69835I-262J-302D01*
G03X88710Y-72069I688J-1665D01*
G02X89391Y-71933I379J-127D01*
G03X90398Y-72517I1359J1183D01*
G01X90457Y-72529D01*
X90642Y-72713D01*
X90283Y-73072D01*
X90178Y-73050D01*
G03X91580Y-74452I-363J-1765D01*
G01X91558Y-74347D01*
X91858Y-74046D01*
X92037Y-74225D01*
X92051Y-74275D01*
G03X92602Y-75144I1734J490D01*
G02X92466Y-75825I-263J-302D01*
G03X94800Y-77172I569J-1710D01*
G01X94778Y-77067D01*
X95422Y-76423D01*
Y-76393D01*
X96786Y-75028D01*
Y-65120D01*
X94302Y-62635D01*
Y-57471D01*
X93814Y-56983D01*
G02X94079Y-56300I282J283D01*
G03X92495Y-53509I-79J1800D01*
G01X92436Y-53598D01*
X92127D01*
X91016Y-52488D01*
Y-46860D01*
X81002Y-36845D01*
Y-31962D01*
G02X81583Y-31606I400J0D01*
G03Y-28394I817J1606D01*
G02X81002Y-28038I-181J356D01*
G01Y-17560D01*
G03X79198I-902J1560D01*
G01Y-18365D01*
X78855D01*
X78809Y-18228D01*
G03X78490Y-19947I-1709J-572D01*
G02X79198Y-20201I308J-255D01*
G01Y-35774D01*
G02X78516Y-36057I-400J0D01*
G01X75102Y-32643D01*
Y-19889D01*
X72007Y-16795D01*
G02X72129Y-16146I283J283D01*
G03X73205Y-14427I-725J1650D01*
G02X73684Y-14020I400J15D01*
G03X74358Y-5900I815J4020D01*
G02X73955Y-5410I-14J399D01*
G03Y-4590I-1755J410D01*
G02X74358Y-4100I389J91D01*
G03Y4100I142J4100D01*
G02X73955Y4590I-14J399D01*
G03Y5410I-1755J410D01*
G02X74358Y5900I389J91D01*
G03X71130Y12339I142J4100D01*
G02X70402Y12567I-328J228D01*
G01Y18250D01*
X68006Y20646D01*
X68028Y20751D01*
G03X64502Y21495I-1765J363D01*
G02X64054Y21184I-391J85D01*
G03X64163Y17635I-254J-1784D01*
G01X64268Y17657D01*
X67398Y14527D01*
Y6723D01*
G02X66715Y6441I-400J0D01*
G01X61553Y11642D01*
X61463D01*
X59233Y13873D01*
X59255Y13978D01*
G03X56147Y13140I-1765J363D01*
G02X56136Y12595I-298J-267D01*
G03X56112Y10112I1294J-1254D01*
G02X56113Y9567I-292J-273D01*
G03X56114Y7114I1321J-1226D01*
G02Y6569I-293J-273D01*
G03X55964Y6387I1313J-1235D01*
G01X55905Y6303D01*
X55602D01*
Y6673D01*
X40730Y21545D01*
G02X40924Y22218I283J283D01*
G03X38768Y24374I-399J1757D01*
G02X38095Y24180I-390J89D01*
G01X33973Y28302D01*
X28473D01*
X21748Y35027D01*
G02X21987Y35707I283J282D01*
G03X23065Y36227I-199J1791D01*
G02X23612Y36245I283J-283D01*
G03X25702Y39160I1188J1355D01*
G01Y40073D01*
X25602Y40173D01*
Y64773D01*
X23073Y67302D01*
X22473D01*
X21343Y68432D01*
X21365Y68537D01*
G03X19963Y67135I-1765J363D01*
G01X20068Y67157D01*
X21727Y65498D01*
X22327D01*
X23798Y64027D01*
Y53812D01*
G02X23116Y53529I-400J0D01*
G01X20502Y56143D01*
Y57340D01*
G03X18698I-902J1560D01*
G01Y55397D01*
X20597Y53499D01*
G02X20475Y52850I-283J-283D01*
G03X20036Y49824I725J-1650D01*
G02X20061Y49236I-258J-305D01*
G01X19092Y48266D01*
Y42283D01*
G03X19869Y38925I901J-1560D01*
G02X20195Y38340I-28J-399D01*
G03X19997Y37697I1593J-842D01*
G02X19317Y37458I-398J44D01*
G01X9202Y47573D01*
Y54248D01*
X10206Y55252D01*
Y56165D01*
G03X10564Y56437I-903J1560D01*
G02X11109Y56451I280J-286D01*
G03X11941Y59565I1195J1349D01*
G01X11836Y59543D01*
X10566Y60812D01*
X5062D01*
X3305Y59056D01*
X3165Y59175D01*
G03X1637Y59565I-1165J-1375D01*
G01X1532Y59543D01*
X-27Y61102D01*
X-5018D01*
X-6981Y59139D01*
X-7120Y59243D01*
G03X-8563Y59565I-1079J-1443D01*
G01X-8668Y59543D01*
X-9978Y60852D01*
X-15440D01*
X-17198Y59094D01*
Y59020D01*
X-17445Y58918D01*
X-21198Y62671D01*
Y69037D01*
X-14728Y75497D01*
G02X-14050Y75151I283J-283D01*
G03X-7225Y71479I4050J-651D01*
G02X-6599Y71369I271J-294D01*
G03X-3401I1599J831D01*
G02X-2775Y71479I355J-184D01*
G03X2775I2775J3021D01*
G02X3401Y71369I271J-294D01*
G03X6599I1599J831D01*
G02X7225Y71479I355J-184D01*
G03X12628Y71351I2775J3021D01*
G02X13227Y71251I257J-307D01*
G03X14549Y73973I1541J933D01*
G02X14100Y74381I-49J397D01*
G03X7939Y78047I-4100J119D01*
G01X7806Y77969D01*
X5902Y79873D01*
Y81933D01*
G02X6630Y82161I400J0D01*
G03Y86839I3370J2339D01*
G02X5902Y87067I-328J228D01*
G01Y87374D01*
X2874Y90402D01*
X2387D01*
G02X2170Y91138I0J400D01*
G03X2842Y97317I-2170J3362D01*
G02X3126Y97999I284J282D01*
G01X6874D01*
G02X7158Y97317I0J-400D01*
G03X12842I2842J-2817D01*
G02X13126Y97999I284J282D01*
G01X79798D01*
Y75398D01*
X97999D01*
Y25002D01*
X84198D01*
Y19066D01*
X97999D01*
Y13126D01*
G02X97317Y12842I-400J0D01*
G03Y7158I-2817J-2842D01*
G02X97999Y6874I282J-284D01*
G01Y3126D01*
G02X97317Y2842I-400J0D01*
G03Y-2842I-2817J-2842D01*
G02X97999Y-3126I282J-284D01*
G01Y-6874D01*
G37*
G36*
G01X-7336Y-25066D02*
G03X-8747Y-21835I-1048J1466D01*
G01X-8852Y-21857D01*
X-12125Y-18584D01*
G02X-11842Y-17902I283J282D01*
G01X-3473D01*
X-1543Y-19832D01*
X-1565Y-19937D01*
G03X1704Y-19308I1765J-363D01*
G02X1799Y-18767I334J220D01*
G03X359Y-15557I-1077J1445D01*
G01X254Y-15579D01*
X-427Y-14898D01*
X-55488D01*
G02X-55771Y-14216I0J400D01*
G01X-54798Y-13243D01*
Y-11971D01*
X-53498Y-10671D01*
Y-9267D01*
X-52464Y-8233D01*
Y-5803D01*
X-49463Y-2802D01*
X5748D01*
G02X6121Y-3347I0J-400D01*
G03X5998Y-4039I1679J-655D01*
G02X5454Y-4421I-400J-9D01*
G03X5163Y-7865I-654J-1679D01*
G01X5268Y-7843D01*
X7198Y-9773D01*
Y-14448D01*
G02X6653Y-14821I-400J0D01*
G03X4215Y-16253I-653J-1679D01*
G01X4206Y-16319D01*
X2998Y-17527D01*
Y-22631D01*
X-162Y-25792D01*
X-7104D01*
G02X-7336Y-25066I0J400D01*
G37*
G36*
G01X-14157Y-19102D02*
X-12003Y-21256D01*
G02X-12151Y-21916I-283J-283D01*
G03X-12671Y-22207I608J-1696D01*
G02X-13215Y-22167I-251J312D01*
G03X-16096Y-22492I-1321J-1226D01*
G01X-16355D01*
G02X-16745Y-22001I0J400D01*
G03X-20302Y-21598I-1755J408D01*
G02X-20702Y-21998I-400J0D01*
G01X-20948D01*
G02X-21321Y-21453I0J400D01*
G03X-21545Y-19737I-1679J653D01*
G02X-21222Y-19102I323J235D01*
G01X-14157D01*
G37*
G36*
G01X-28398Y46757D02*
X-24547Y50620D01*
X-19948D01*
X-18190Y52378D01*
Y53237D01*
G02X-17507Y53520I400J0D01*
G01X-16436Y52450D01*
X-15288D01*
X-13937Y51098D01*
X-12665D01*
X-11565Y49998D01*
X-10263D01*
X-7110Y46846D01*
Y37258D01*
X-8010Y36358D01*
Y29638D01*
X-4903Y26530D01*
X-4925Y26425D01*
G03X-4601Y24980I1765J-363D01*
G02X-4921Y24340I-320J-240D01*
G01X-15373D01*
X-28398Y37365D01*
Y46757D01*
G37*
G36*
G01X-31999Y50070D02*
Y54409D01*
G03X-31998Y57529I-901J1560D01*
G01Y64127D01*
X-28484Y67641D01*
G02X-27802Y67358I282J-283D01*
G01Y59933D01*
X-27462Y59593D01*
Y58107D01*
G02X-27977Y57725I-400J1D01*
G03Y54275I-523J-1725D01*
G02X-27462Y53893I115J-383D01*
G01Y53653D01*
X-31315Y49788D01*
G02X-31999Y50070I-284J282D01*
G37*
G36*
G01X-12369Y80400D02*
X-21716Y71068D01*
G02X-22398Y71351I-282J283D01*
G01Y84327D01*
X-18127Y88598D01*
X-12567D01*
G02X-12339Y87870I0J-400D01*
G03X-11730Y80781I2339J-3370D01*
G01X-11615Y80727D01*
Y80400D01*
X-12369D01*
G37*
G36*
G01X4098Y79127D02*
X6531Y76694D01*
X6453Y76561D01*
G03X5900Y74358I3547J-2061D01*
G02X5410Y73955I-399J-14D01*
G03X4590I-410J-1755D01*
G02X4100Y74358I-91J389D01*
G03X-3552Y76551I-4100J142D01*
G02X-4298Y76751I-346J200D01*
G01Y78272D01*
X-6426Y80400D01*
X-7436D01*
G02X-7664Y81128I0J400D01*
G03X-7661Y87870I-2336J3372D01*
G02X-7433Y88598I228J328D01*
G01X-2567D01*
G02X-2339Y87870I0J-400D01*
G03X3370Y82161I2339J-3370D01*
G02X4098Y81933I328J-228D01*
G01Y79127D01*
G37*
G36*
G01X-7830Y91138D02*
G03X-7158Y97317I-2170J3362D01*
G02X-6874Y97999I284J282D01*
G01X-3126D01*
G02X-2842Y97317I0J-400D01*
G03X-2170Y91138I2842J-2817D01*
G02X-2387Y90402I-217J-336D01*
G01X-7613D01*
G02X-7830Y91138I0J400D01*
G37*
G36*
G01X25126Y-2802D02*
X33398Y-11074D01*
Y-24883D01*
X34219Y-25704D01*
G02X33936Y-26386I-283J-282D01*
G01X32271D01*
X31371Y-27286D01*
X30543D01*
X29243Y-28586D01*
X21673D01*
X21602Y-28515D01*
Y-21567D01*
X21902Y-21267D01*
Y-20439D01*
X22802Y-19539D01*
Y-17273D01*
X22873Y-17202D01*
X23640D01*
G03X26315Y-14884I1560J902D01*
G02X26351Y-14230I247J314D01*
G03X23604Y-12850I-951J1530D01*
G02X23206Y-13284I-399J-34D01*
G01X22544D01*
X21565Y-14263D01*
G02X20916Y-14141I-283J283D01*
G03X19397Y-13069I-1650J-725D01*
G02X19028Y-12633I29J399D01*
G03X15469Y-12829I-1794J167D01*
G01X15491Y-12934D01*
X13698Y-14727D01*
Y-18093D01*
X13529Y-18119D01*
G03X12898Y-21460I271J-1781D01*
G01Y-22473D01*
X13798Y-23373D01*
Y-33272D01*
X16043Y-35518D01*
G02X15881Y-36182I-283J-283D01*
G03X17981Y-36991I544J-1718D01*
G02X18326Y-36390I345J201D01*
G01X33720D01*
X34826Y-37496D01*
X35468D01*
X35474Y-37502D01*
X36272D01*
X36702Y-37932D01*
X36680Y-38037D01*
G03X39098Y-40079I1765J-363D01*
G02X39644Y-40452I146J-373D01*
G01Y-41082D01*
X37044D01*
X36268Y-41857D01*
X36163Y-41835D01*
G03X34035Y-43963I-363J-1765D01*
G01X34057Y-44068D01*
X33527Y-44598D01*
X23173D01*
X23070Y-44495D01*
Y-43560D01*
G03X20604Y-41105I-902J1560D01*
G02X20023Y-41231I-347J199D01*
G03X17202Y-43054I-1056J-1460D01*
G01X17224Y-43159D01*
X16580Y-43803D01*
Y-46552D01*
X18593Y-48564D01*
X21080D01*
X22043Y-47602D01*
X36945D01*
X38136Y-46411D01*
X38241Y-46433D01*
G03X38486Y-46466I362J1765D01*
G01X38561Y-46471D01*
X38755Y-46666D01*
X37862Y-47559D01*
Y-54856D01*
G02X37161Y-55118I-400J0D01*
G03X34240Y-55398I-1361J-1182D01*
G01X33571D01*
X32871Y-54698D01*
X14373D01*
X7702Y-48027D01*
Y-46760D01*
G03X5572Y-43881I-902J1560D01*
G02X5028I-272J293D01*
G03X2737Y-43745I-1228J-1319D01*
G02X2102Y-43422I-235J323D01*
G01Y-42310D01*
G02X2665Y-41945I400J0D01*
G03Y-38655I735J1645D01*
G02X2102Y-38290I-163J365D01*
G01Y-32869D01*
X11402Y-23569D01*
Y-12073D01*
X12302Y-11173D01*
Y-10260D01*
G03X10747Y-7021I-903J1559D01*
G02X10202Y-6648I-145J373D01*
G01Y-5127D01*
X9543Y-4468D01*
X9565Y-4363D01*
G03X9479Y-3347I-1765J362D01*
G02X9852Y-2802I373J145D01*
G01X25126D01*
G37*
G36*
G01X43116Y-23561D02*
X41202Y-21647D01*
Y-17720D01*
G02X41884Y-17437I400J0D01*
G01X43798Y-19351D01*
Y-23278D01*
G02X43116Y-23561I-400J0D01*
G37*
%LPC*%
G75*
G36*
G01X-76828Y62181D02*
G03X-77372I-272J-293D01*
G02Y64819I-1228J1319D01*
G03X-76828I272J293D01*
G02X-76793Y64850I1212J-1333D01*
G03Y65150I-133J150D01*
G02X-74281Y65272I1193J1350D01*
G03Y64728I293J-272D01*
G02X-76828Y62181I-1319J-1228D01*
G37*
G36*
G01X-35620Y-53078D02*
X-35642Y-53183D01*
X-34033Y-54792D01*
X-33928Y-54770D01*
G02X-35330Y-56172I363J-1765D01*
G01X-35308Y-56067D01*
X-36917Y-54458D01*
X-37022Y-54480D01*
G02X-35620Y-53078I-363J1765D01*
G37*
G36*
G01X-75995Y-68803D02*
G03X-76563Y-69078I-177J-359D01*
G02X-77530Y-67083I-1762J378D01*
G03X-76962Y-66808I177J359D01*
G02X-75995Y-68803I1762J-378D01*
G37*
G36*
G01X-46302Y64760D02*
Y67127D01*
X-48273Y69098D01*
X-53891D01*
G02X-54794Y68096I-2009J902D01*
G03Y67404I201J-346D01*
G02X-57006I-1106J-1904D01*
G03Y68096I-201J346D01*
G02X-53891Y70902I1106J1904D01*
G01X-47527D01*
X-44498Y67873D01*
Y64760D01*
G02X-46302I-902J-1560D01*
G37*
G54D20*
X-82600Y84900D03*
X-92600D03*
G54D21*
X-32963Y73164D03*
X-40837D03*
G54D19*
X-93757Y61700D03*
X-93800Y57300D03*
X-67100Y-65000D03*
X-71500Y-56700D03*
X-79300Y5000D03*
Y-5000D03*
X-57917Y-65860D03*
X-58500Y-23250D03*
X-52025Y74225D03*
X-36100Y-69100D03*
X-40600Y-69000D03*
X-39600Y-48950D03*
X-47040Y-57180D03*
X-45400Y12600D03*
X24900Y-62885D03*
X42700Y69300D03*
X37200Y71000D03*
X37500Y87500D03*
X44500Y90100D03*
X51300Y49100D03*
X55200Y85200D03*
X74191Y-53000D03*
X93900Y-45900D03*
X86700Y34500D03*
X30460Y-41360D03*
G54D18*
X-84500Y-10000D03*
Y0D03*
Y10000D03*
X0Y-84500D03*
X-10000D03*
X10000D03*
X84500Y-10000D03*
Y0D03*
Y10000D03*
%LPD*%
G75*
G54D10*
X-96500Y-76300D03*
X-90500Y-78500D03*
X-87500D03*
X-84500D03*
X-93500Y-59800D03*
Y-62800D03*
Y-65800D03*
Y-68800D03*
X-96500Y-73300D03*
X-93500D03*
X-96500Y-70300D03*
Y-67300D03*
Y-64300D03*
Y-61300D03*
X-90500Y-73300D03*
X-87500D03*
X-84500D03*
X-93500Y-44800D03*
Y-53800D03*
Y-47800D03*
Y-50800D03*
Y-56800D03*
X-85100Y-53200D03*
X-89000Y-46000D03*
X-96500Y-58300D03*
Y-52300D03*
Y-49300D03*
Y-55300D03*
Y-46300D03*
Y-43300D03*
X-93500Y-32800D03*
X-84900Y-38400D03*
X-96500Y-40300D03*
Y-37300D03*
Y-31300D03*
Y-28300D03*
X-93500D03*
X-90500D03*
X-87500D03*
X-84500D03*
X-96500Y-34300D03*
X-86000Y-25300D03*
X-89000D03*
X-92000D03*
X-95000D03*
X-84100Y18200D03*
X-83900Y24400D03*
X-91100Y35200D03*
X-85800Y31700D03*
X-90100Y38300D03*
X-93800Y50600D03*
X-86400Y53900D03*
X-90400Y49500D03*
X-95400Y54300D03*
X-90100Y44300D03*
Y41300D03*
X-93757Y61700D03*
X-93800Y57300D03*
X-94800Y67700D03*
Y70700D03*
X-86400Y61100D03*
X-84600Y57500D03*
X-94800Y64700D03*
Y73700D03*
X-91800D03*
X-88800D03*
X-85800D03*
X-70900Y-96100D03*
X-74000Y-96000D03*
Y-93000D03*
X-68000Y-81500D03*
X-71000D03*
X-74000Y-81000D03*
Y-84000D03*
Y-87000D03*
Y-90000D03*
X-75500Y-78500D03*
X-72500D03*
X-69500D03*
X-81500D03*
X-78500D03*
X-71025Y-66975D03*
X-67100Y-65000D03*
X-75200Y-67186D03*
X-78325Y-68700D03*
X-78500Y-73300D03*
X-77176Y-60000D03*
X-81500Y-73300D03*
X-71500Y-56700D03*
X-73200Y-49000D03*
X-80700Y-44300D03*
X-67200Y-29300D03*
X-68700Y-32300D03*
X-74100Y-31300D03*
X-77000D03*
X-80000D03*
X-83000Y-32000D03*
X-81500Y-28300D03*
X-78500D03*
X-75500D03*
X-67700Y-20400D03*
X-77000Y-25300D03*
X-83000D03*
X-79300Y5000D03*
Y-5000D03*
X-77800Y15000D03*
X-72800Y35000D03*
Y38000D03*
X-71588Y30609D03*
X-82800Y31700D03*
X-79800D03*
X-76800D03*
X-72800Y41000D03*
Y44000D03*
Y47000D03*
X-67800Y43700D03*
Y46700D03*
X-82800Y53900D03*
X-75600Y66500D03*
Y63500D03*
X-78600D03*
X-68900Y70500D03*
X-73800Y70700D03*
X-67800Y67700D03*
X-70800D03*
X-82800Y61100D03*
X-71700Y83200D03*
X-72188Y73988D03*
X-75000Y77000D03*
X-82800Y73700D03*
X-79800D03*
X-76800D03*
X-60900Y-96100D03*
X-53000Y-81500D03*
X-56000D03*
X-59000D03*
X-62000D03*
X-65000D03*
X-66500Y-78500D03*
X-63500D03*
X-60500D03*
X-57500D03*
X-54500D03*
X-51500D03*
X-50800Y-67100D03*
X-53770Y-67770D03*
X-57917Y-65860D03*
X-58300Y-70300D03*
X-58700Y-54100D03*
X-59800Y-26300D03*
X-62700D03*
X-61300Y-29300D03*
X-64200D03*
X-65700Y-32300D03*
X-62800D03*
X-59900D03*
X-65720Y-41400D03*
X-66500Y-15800D03*
X-57800Y-12000D03*
X-58500Y-23250D03*
X-57594Y1476D03*
X-57700Y-8798D03*
X-57600Y-1600D03*
X-57866Y-5800D03*
X-57726Y4474D03*
X-57464Y12300D03*
X-57420Y8837D03*
X-57500Y15300D03*
X-61300Y36000D03*
X-55700Y34900D03*
X-61900Y28700D03*
X-64800Y46700D03*
X-58800D03*
Y49700D03*
Y52700D03*
X-52800Y55700D03*
X-55800D03*
X-58800D03*
X-61800Y46700D03*
X-52800Y47600D03*
X-57200Y59300D03*
X-65590Y70790D03*
X-64800Y67700D03*
X-66367Y88567D03*
X-52025Y74225D03*
X-62700Y89200D03*
X-45900Y-96100D03*
X-35000Y-81500D03*
X-38000D03*
X-41000D03*
X-44000D03*
X-47000D03*
X-50000D03*
X-48500Y-78500D03*
X-45500D03*
X-42500D03*
X-39500D03*
X-36500D03*
X-36100Y-69100D03*
X-40600Y-69000D03*
X-47800Y-64100D03*
X-34400Y-59600D03*
X-43700Y-69000D03*
Y-50700D03*
X-42785Y-53615D03*
X-39600Y-48950D03*
X-46200Y-45000D03*
X-47040Y-57180D03*
X-37385Y-52715D03*
X-39700Y-57500D03*
X-36600Y-49600D03*
X-46591Y-47978D03*
X-41500Y-40250D03*
X-48551Y-42398D03*
X-40851Y-29300D03*
X-43851D03*
X-34500Y-35400D03*
X-45351Y-32300D03*
X-42451D03*
X-39551D03*
X-36958Y-33758D03*
X-48251Y-32300D03*
X-37600Y-29700D03*
X-37900Y-12900D03*
X-47400Y-12600D03*
X-37900Y-4100D03*
X-46900D03*
X-45400Y12600D03*
X-46700Y9800D03*
X-39500Y37400D03*
X-46800Y55700D03*
X-49800D03*
X-39700Y47500D03*
X-44900Y48025D03*
X-45400Y63200D03*
X-39100Y94100D03*
X-49100D03*
X-23400Y-96100D03*
X-21500Y-77000D03*
X-23000Y-81500D03*
X-26000D03*
X-29000D03*
X-32000D03*
X-33500Y-78500D03*
X-30500D03*
X-27500D03*
X-24500D03*
X-20000Y-68000D03*
Y-65000D03*
X-21500Y-74000D03*
Y-71000D03*
X-23000Y-60500D03*
Y-63500D03*
Y-66500D03*
X-24500Y-69500D03*
Y-72500D03*
Y-75500D03*
X-33565Y-56535D03*
X-26000Y-59000D03*
Y-56000D03*
Y-53000D03*
Y-50000D03*
X-18300Y-56600D03*
X-17600Y-48500D03*
X-32400Y-49400D03*
X-23000Y-45500D03*
Y-48500D03*
Y-51500D03*
Y-54500D03*
Y-57500D03*
X-24629Y-35370D03*
X-28859Y-36349D03*
X-26350Y-37828D03*
X-24992Y-40391D03*
X-23000Y-42500D03*
X-18500Y-21593D03*
X-23000Y-20800D03*
X-20900Y-6100D03*
X-26000Y20300D03*
X-25800Y17078D03*
X-22200Y17300D03*
X-25100Y12000D03*
X-25962Y23495D03*
X-30600Y26400D03*
X-21191Y53621D03*
X-32900Y55969D03*
X-28500Y56000D03*
X-25800Y42300D03*
X-22500Y56500D03*
X-30500Y63100D03*
X-18000Y82900D03*
X-24100Y94100D03*
X-15400Y-79800D03*
X-5000Y-80100D03*
Y-72200D03*
X-15000D03*
X-3500Y-50100D03*
X-14200Y-42700D03*
X-3700Y-38300D03*
X-8384Y-23600D03*
X-11543Y-23612D03*
X-14536Y-23393D03*
X-15500Y-20300D03*
X-8500Y-19800D03*
X-3000Y-6100D03*
X-17400Y13700D03*
X-3100Y13600D03*
X-5009Y35115D03*
X-3160Y26062D03*
X-1800Y40300D03*
X-13600Y46500D03*
X-11200Y57700D03*
X-4000Y57875D03*
X-999Y57700D03*
X-8200Y57800D03*
X-14197Y57851D03*
X-5000Y72200D03*
X-4900Y82000D03*
X4700Y-80100D03*
X5000Y-72200D03*
X6800Y-45200D03*
X3800D03*
X3400Y-40300D03*
X10900Y-36600D03*
X6500Y-40300D03*
X200Y-20300D03*
X722Y-17322D03*
X6000Y-19600D03*
Y-16500D03*
X13800Y-19900D03*
X200Y-23600D03*
X7800Y-4000D03*
X11400Y-8700D03*
X4800Y-6100D03*
X3155Y19838D03*
X5605Y21909D03*
X7900Y24000D03*
X10613Y26064D03*
X3500Y35200D03*
X13200Y50300D03*
X9304Y57725D03*
X12304Y57800D03*
X6305Y57811D03*
X2000Y57800D03*
X14768Y72184D03*
X5000Y72200D03*
X13700Y79400D03*
X2600D03*
X28065Y-87033D03*
X29615Y-80345D03*
X31800Y-88368D03*
X32083Y-75035D03*
X24900Y-62885D03*
X27899Y-62793D03*
X19837Y-45563D03*
X19300Y-50200D03*
X16425Y-37900D03*
X30460Y-41360D03*
X18967Y-42691D03*
X22168Y-42000D03*
X24800Y-37588D03*
X17400Y-17300D03*
X19266Y-14866D03*
X17234Y-12466D03*
X25200Y-16300D03*
X25400Y-12700D03*
X25900Y-21900D03*
X23000Y-7000D03*
X23900Y13000D03*
X21788Y37498D03*
X24800Y37600D03*
X19993Y40723D03*
X21200Y51200D03*
X30100Y56100D03*
X29000Y52100D03*
X27200Y54600D03*
X19600Y58900D03*
Y68900D03*
X30200Y68100D03*
Y65100D03*
Y62100D03*
X30100Y59100D03*
X30200Y71100D03*
X27200Y69600D03*
Y57600D03*
Y60600D03*
Y63600D03*
Y66600D03*
Y72600D03*
X21200Y87800D03*
Y84800D03*
X30200Y74100D03*
X24200Y89300D03*
Y86300D03*
X27200Y84800D03*
Y87800D03*
X21200Y96800D03*
Y93800D03*
Y90800D03*
X24200Y95300D03*
Y92300D03*
X27200Y90800D03*
Y93800D03*
X30200Y96800D03*
X27200D03*
X46787Y-93157D03*
X39802Y-90768D03*
X35900Y-89568D03*
X34664Y-80536D03*
X43708Y-91968D03*
X33200Y-83269D03*
X36383Y-75035D03*
X42683Y-72535D03*
X34183D03*
X44783Y-75035D03*
X40583D03*
X46883Y-72535D03*
X38483D03*
X35800Y-56300D03*
X34500Y-59300D03*
X42079Y-49487D03*
X38604Y-44668D03*
X35800Y-43600D03*
X36512Y-33088D03*
X34012Y-30588D03*
X38445Y-35400D03*
Y-38400D03*
X35340Y-38694D03*
X42500Y-20500D03*
X40300Y3200D03*
X36900Y5600D03*
X40525Y23975D03*
X46300Y33500D03*
X38000Y27300D03*
X41000D03*
X34800Y49100D03*
X37800D03*
X40800D03*
X43800D03*
X46800D03*
X48200Y56200D03*
X48300Y52100D03*
X45300D03*
X42300D03*
X39300D03*
X36300D03*
X33300D03*
X42700Y69300D03*
X37200Y71000D03*
X35400Y62900D03*
X42400Y60800D03*
X37500Y87500D03*
X45400Y80000D03*
X44500Y90100D03*
X48200Y96800D03*
X39200D03*
X33200D03*
X36200D03*
X42200D03*
X45200D03*
X49540Y-94351D03*
X52300Y-95600D03*
X60964Y-64368D03*
X48983Y-75035D03*
X52919Y-71730D03*
X54878Y-66029D03*
X56978Y-68485D03*
X58864Y-61868D03*
X50819Y-69230D03*
X57432Y-659D03*
X57434Y2341D03*
Y-3659D03*
X57432Y5341D03*
X57537Y-6658D03*
X57088Y-9625D03*
X57490Y14341D03*
X57434Y8341D03*
X63800Y19400D03*
X57430Y11341D03*
X50600Y23100D03*
X60300Y18400D03*
X56100Y17000D03*
X53900Y30700D03*
X51300Y49100D03*
X60300Y46100D03*
X63300D03*
X58800Y49100D03*
X61800D03*
X64800D03*
X53800Y40600D03*
X61500Y56400D03*
X63300Y52100D03*
X60300D03*
X57300D03*
X54300D03*
X51300D03*
X53700Y72000D03*
X54400Y60700D03*
X62000Y59400D03*
X49600Y62100D03*
X55200Y85200D03*
X64700Y93800D03*
X61700D03*
X58700D03*
X64300Y89800D03*
X51200Y96800D03*
X54200D03*
X57200D03*
X60200D03*
X63200D03*
X72825Y-95730D03*
X78900Y-95700D03*
X69785Y-95585D03*
X75900Y-95700D03*
X72100Y-76500D03*
X77200Y-62500D03*
X80800Y-60100D03*
X74191Y-53000D03*
X66500Y-48175D03*
X77184Y-52792D03*
X66777Y-53025D03*
X71197Y-52803D03*
X80100Y-16000D03*
X77100Y-18800D03*
X71404Y-14496D03*
X72200Y-5000D03*
Y5000D03*
X79100Y-5000D03*
Y5300D03*
X66263Y21114D03*
X71600Y17700D03*
X72100Y27700D03*
Y37700D03*
X69300Y46100D03*
X72300D03*
X75300D03*
X78300D03*
X81300D03*
X66300D03*
X67800Y49100D03*
X70800D03*
X73800D03*
X76800D03*
X79800D03*
X81200Y56300D03*
X76600Y54800D03*
X81300Y52100D03*
X78300D03*
X75300D03*
X72300D03*
X69300D03*
X66300D03*
X81200Y68300D03*
Y65300D03*
Y62300D03*
Y59300D03*
X73800Y57500D03*
Y67500D03*
X78200Y57800D03*
Y60800D03*
Y63800D03*
Y66800D03*
Y72800D03*
X81200D03*
X78200Y69800D03*
X69000Y88800D03*
X72000Y87300D03*
X78200Y87800D03*
Y84800D03*
Y81800D03*
Y78800D03*
Y75800D03*
X69000Y91800D03*
X72000Y93300D03*
Y90300D03*
X66200Y96800D03*
X69200D03*
X72200D03*
X75200D03*
X78200D03*
Y90800D03*
X81900Y-95700D03*
X85011Y-95692D03*
X91081Y-95702D03*
X88081Y-95694D03*
X93035Y-77535D03*
X95900Y-83200D03*
X82600Y-62500D03*
X87600Y-67800D03*
X89815Y-74815D03*
X87000Y-71500D03*
X84300Y-68100D03*
X90750Y-70750D03*
X82100Y-65900D03*
X93785Y-73785D03*
X94000Y-54500D03*
X93900Y-45900D03*
X82400Y-30000D03*
X82600Y-34900D03*
X85600Y-16600D03*
X82500Y-25000D03*
X86700Y34500D03*
X82100Y37700D03*
Y27700D03*
X87300Y46100D03*
X90300D03*
X93300D03*
X96300D03*
X84300D03*
X85800Y49100D03*
X88800D03*
X91800D03*
X94800D03*
X82800D03*
X96300Y52100D03*
X93300D03*
X90300D03*
X87300D03*
X84300D03*
X84200Y69800D03*
Y66800D03*
Y63800D03*
Y60800D03*
Y57800D03*
X95700Y66900D03*
X84200Y72800D03*
X87200D03*
X90200D03*
X93200D03*
X96200D03*
G54D11*
X-94500Y-10000D03*
X-84500D03*
X-94500Y0D03*
X-84500D03*
X-94500Y10000D03*
X-84500D03*
X-74500Y-10000D03*
Y0D03*
Y10000D03*
X0Y-94500D03*
X-10000D03*
X0Y-84500D03*
X-10000D03*
X0Y-74500D03*
X-10000D03*
Y74500D03*
X0D03*
X-10000Y84500D03*
X0D03*
X-10000Y94500D03*
X0D03*
X10000Y-94500D03*
Y-84500D03*
Y-74500D03*
Y74500D03*
Y84500D03*
Y94500D03*
X74500Y-10000D03*
Y0D03*
Y10000D03*
X94500Y-10000D03*
X84500D03*
X94500Y0D03*
X84500D03*
X94500Y10000D03*
X84500D03*
G54D12*
X-82600Y84900D03*
X-92600D03*
G54D13*
X-55900Y65500D03*
Y70000D03*
X-21500Y-88000D03*
G54D14*
X-32963Y73164D03*
X-40837D03*
G54D15*
G01X-129750Y-180067D02*
X-129250Y-179567D01*
X-128875Y-178734D01*
X-128625Y-177567D01*
X-128875Y-176567D01*
X-129375Y-175900D01*
X-130250Y-175400D01*
X-133625D01*
Y-185400D01*
X-129500D01*
X-128625Y-184733D01*
X-128125Y-183733D01*
X-127875Y-182567D01*
X-128125Y-181400D01*
X-128875Y-180400D01*
X-129750Y-180067D01*
X-133625D01*
G01X-120750Y-185400D02*
X-121750Y-185233D01*
X-122625Y-184567D01*
X-123375Y-183567D01*
X-123875Y-182400D01*
X-124125Y-181067D01*
Y-179733D01*
X-123875Y-178400D01*
X-123375Y-177233D01*
X-122625Y-176233D01*
X-121750Y-175567D01*
X-120750Y-175400D01*
X-119750Y-175567D01*
X-118875Y-176233D01*
X-118125Y-177233D01*
X-117625Y-178400D01*
X-117375Y-179733D01*
Y-181067D01*
X-117625Y-182400D01*
X-118125Y-183567D01*
X-118875Y-184567D01*
X-119750Y-185233D01*
X-120750Y-185400D01*
G01X-110750Y-175400D02*
Y-185400D01*
G01X-113625Y-175400D02*
X-107875D01*
G01X-100750D02*
Y-185400D01*
G01X-103625Y-175400D02*
X-97875D01*
G01X-90750Y-185400D02*
X-91750Y-185233D01*
X-92625Y-184567D01*
X-93375Y-183567D01*
X-93875Y-182400D01*
X-94125Y-181067D01*
Y-179733D01*
X-93875Y-178400D01*
X-93375Y-177233D01*
X-92625Y-176233D01*
X-91750Y-175567D01*
X-90750Y-175400D01*
X-89750Y-175567D01*
X-88875Y-176233D01*
X-88125Y-177233D01*
X-87625Y-178400D01*
X-87375Y-179733D01*
Y-181067D01*
X-87625Y-182400D01*
X-88125Y-183567D01*
X-88875Y-184567D01*
X-89750Y-185233D01*
X-90750Y-185400D01*
G01X-84000D02*
Y-175400D01*
X-80750Y-183733D01*
X-77500Y-175400D01*
Y-185400D01*
G54D16*
G01X-94500Y-14202D02*
Y-10000D01*
G01Y5798D02*
Y10000D01*
G01Y-4202D02*
Y0D01*
G01D02*
Y4202D01*
G01Y0D02*
X-90298D01*
G01X-94500Y-10000D02*
Y-5798D01*
G01Y-10000D02*
X-90298D01*
G01X-94500Y10000D02*
Y14202D01*
G01Y10000D02*
X-90298D01*
G01X-10000Y-94500D02*
Y-90298D01*
G01X-14202Y-94500D02*
X-10000D01*
G01D02*
X-5798D01*
G01X-4202D02*
X0D01*
G01X-4202Y94500D02*
X0D01*
G01X-14202D02*
X-10000D01*
G01D02*
X-5798D01*
G01X10000Y-94500D02*
Y-90298D01*
G01X5798Y-94500D02*
X10000D01*
G01D02*
X14202D01*
G01X0D02*
Y-90298D01*
G01Y-94500D02*
X4202D01*
G01X10000Y90298D02*
Y94500D01*
G01X5798D02*
X10000D01*
G01D02*
X14202D01*
G01X0D02*
X4202D01*
G01X94500Y-14202D02*
Y-10000D01*
G01Y5798D02*
Y10000D01*
G01Y-4202D02*
Y0D01*
G01D02*
Y4202D01*
G01X90298Y0D02*
X94500D01*
G01Y-10000D02*
Y-5798D01*
G01X90298Y-10000D02*
X94500D01*
G01Y10000D02*
Y14202D01*
G01X90298Y10000D02*
X94500D01*
G54D17*
G01X-71588Y30609D02*
X-73797Y28400D01*
X-89298D01*
X-97500Y36602D01*
Y74500D01*
X-95000Y77000D01*
X-75000D01*
G01X-91100Y35200D02*
Y31900D01*
X-88800Y29600D01*
X-75600D01*
X-72300Y32900D01*
X-64400D01*
X-61300Y36000D01*
G01X-72800Y47000D02*
X-92300D01*
X-93800Y48500D01*
Y50600D01*
G01X-71025Y-66975D02*
Y-62175D01*
X-75600Y-57600D01*
Y-47500D01*
X-67400Y-39300D01*
X-63218D01*
X-57700Y-33782D01*
Y-27612D01*
X-48288Y-18200D01*
X-13784D01*
X-8384Y-23600D01*
G01X-26000Y20300D02*
X-27995Y22295D01*
X-60505D01*
X-70100Y12700D01*
Y4400D01*
X-74500Y0D01*
G01X-25800Y17078D02*
X-29817Y21095D01*
X-60007D01*
X-68900Y12202D01*
Y-8800D01*
X-70100Y-10000D01*
X-74500D01*
G01X-25962Y23495D02*
X-61005D01*
X-74500Y10000D01*
G01X-30600Y26400D02*
X-32305Y24695D01*
X-61503D01*
X-61798Y24400D01*
X-83900D01*
G01X-68900Y70500D02*
Y75500D01*
X-63885Y80515D01*
X-31913D01*
X-28100Y76702D01*
Y69300D01*
X-32900Y64500D01*
Y55969D01*
G01X-25360Y52782D02*
Y60464D01*
X-25700Y60804D01*
Y77800D01*
X-31000Y83100D01*
X-32000D01*
X-32100Y83000D01*
X-65200D01*
X-65400Y83200D01*
X-71700D01*
G01X-26560Y55341D02*
Y59966D01*
X-26900Y60306D01*
Y77200D01*
X-31500Y81800D01*
X-64376D01*
X-72188Y73988D01*
G01X-53770Y-67770D02*
Y-65670D01*
X-52000Y-63900D01*
Y-51576D01*
X-55200Y-48376D01*
Y-45511D01*
X-55451Y-45260D01*
Y-39536D01*
X-55200Y-39285D01*
Y-28508D01*
X-47292Y-20600D01*
X-26998D01*
X-25598Y-22000D01*
X-24770D01*
X-23870Y-22900D01*
X-20163D01*
X-19370Y-23693D01*
X-17630D01*
X-17330Y-23393D01*
X-14536D01*
G01X6000Y-16500D02*
X5300D01*
X3900Y-17900D01*
Y-23004D01*
X211Y-26693D01*
X-15904D01*
X-16197Y-26400D01*
X-20059D01*
X-21159Y-25300D01*
X-24866D01*
X-25766Y-24400D01*
X-26594D01*
X-27994Y-23000D01*
X-46296D01*
X-52800Y-29504D01*
Y-40281D01*
X-53051Y-40532D01*
Y-44264D01*
X-52800Y-44515D01*
Y-47380D01*
X-46565Y-53615D01*
X-42785D01*
G01X-11543Y-23612D02*
X-13028Y-25097D01*
X-13270D01*
X-13666Y-25493D01*
X-15406D01*
X-15699Y-25200D01*
X-19561D01*
X-20661Y-24100D01*
X-24368D01*
X-25268Y-23200D01*
X-26096D01*
X-27496Y-21800D01*
X-46794D01*
X-54000Y-29006D01*
Y-39783D01*
X-54251Y-40034D01*
Y-44762D01*
X-54000Y-45013D01*
Y-47878D01*
X-50800Y-51078D01*
Y-67100D01*
G01X-23000Y-20800D02*
X-25100D01*
X-26500Y-19400D01*
X-47790D01*
X-56401Y-28011D01*
Y-34181D01*
X-63620Y-41400D01*
X-65720D01*
G01X200Y-20300D02*
X-3100Y-17000D01*
X-62200D01*
X-65600Y-20400D01*
X-67700D01*
G01X-66500Y-15800D02*
X-800D01*
X722Y-17322D01*
G01X-57866Y-5800D02*
X-59900Y-7834D01*
Y-12870D01*
X-58670Y-14100D01*
X-56930D01*
X-55700Y-12870D01*
Y-11598D01*
X-54400Y-10298D01*
Y-8894D01*
X-53366Y-7860D01*
Y-5430D01*
X-49836Y-1900D01*
X25499D01*
X34300Y-10701D01*
Y-24510D01*
X42945Y-33155D01*
Y-43751D01*
X38764Y-47932D01*
Y-56264D01*
X38078Y-56950D01*
Y-57785D01*
X37178Y-58685D01*
Y-60245D01*
X36419Y-61004D01*
Y-61982D01*
X35519Y-62882D01*
Y-63135D01*
X28483Y-70171D01*
Y-72269D01*
X27583Y-73169D01*
Y-78313D01*
X29615Y-80345D01*
G01X-57800Y-12000D02*
X-55600Y-9800D01*
Y-8396D01*
X-54566Y-7362D01*
Y-4932D01*
X-50334Y-700D01*
X25997D01*
X35500Y-10203D01*
Y-24012D01*
X44145Y-32657D01*
Y-44249D01*
X39964Y-48430D01*
Y-56762D01*
X39278Y-57448D01*
Y-58283D01*
X38378Y-59183D01*
Y-60743D01*
X37619Y-61502D01*
Y-62480D01*
X36719Y-63380D01*
Y-63633D01*
X29683Y-70669D01*
Y-72767D01*
X28783Y-73667D01*
Y-76403D01*
X31715Y-79335D01*
Y-81784D01*
X33200Y-83269D01*
G01X-57594Y1476D02*
X-54950D01*
X-52326Y4100D01*
X27989D01*
X40300Y-8211D01*
Y-22020D01*
X48945Y-30665D01*
Y-36945D01*
X49000Y-37000D01*
Y-50916D01*
X44764Y-55152D01*
Y-58754D01*
X44078Y-59440D01*
Y-60275D01*
X43178Y-61175D01*
Y-62735D01*
X42419Y-63494D01*
Y-64472D01*
X41519Y-65372D01*
Y-65701D01*
X37283Y-69937D01*
Y-70765D01*
X36383Y-71665D01*
Y-75035D01*
G01X-57700Y-8798D02*
X-55766Y-6864D01*
Y-4434D01*
X-50832Y500D01*
X26495D01*
X36700Y-9705D01*
Y-23514D01*
X45345Y-32159D01*
Y-49477D01*
X41164Y-53658D01*
Y-57260D01*
X40478Y-57946D01*
Y-58781D01*
X39578Y-59681D01*
Y-61241D01*
X38819Y-62000D01*
Y-62978D01*
X37919Y-63878D01*
Y-64131D01*
X30883Y-71167D01*
Y-73265D01*
X29983Y-74165D01*
Y-75905D01*
X33129Y-79051D01*
X33179D01*
X34664Y-80536D01*
G01X-57600Y-1600D02*
X-56115Y-115D01*
X-54843D01*
X-51828Y2900D01*
X27491D01*
X39100Y-8709D01*
Y-22518D01*
X47745Y-31163D01*
Y-50473D01*
X43564Y-54654D01*
Y-58256D01*
X42878Y-58942D01*
Y-59777D01*
X41978Y-60677D01*
Y-62237D01*
X41219Y-62996D01*
Y-63974D01*
X40319Y-64874D01*
Y-65203D01*
X36083Y-69439D01*
Y-70267D01*
X35183Y-71167D01*
Y-71535D01*
X34183Y-72535D01*
G01X-57500Y15300D02*
X-60100Y12700D01*
Y8547D01*
X-58290Y6737D01*
X-57018D01*
X-55581Y5300D01*
X28487D01*
X41500Y-7713D01*
Y-15778D01*
X44700Y-18978D01*
Y-24722D01*
X50200Y-30222D01*
Y-51414D01*
X45964Y-55650D01*
Y-59252D01*
X45278Y-59938D01*
Y-60773D01*
X44378Y-61673D01*
Y-63233D01*
X43619Y-63992D01*
Y-64970D01*
X42719Y-65870D01*
Y-66199D01*
X38483Y-70435D01*
Y-72535D01*
G01X32083Y-75035D02*
Y-71665D01*
X39119Y-64629D01*
Y-64376D01*
X40019Y-63476D01*
Y-62498D01*
X40778Y-61739D01*
Y-60179D01*
X41678Y-59279D01*
Y-58444D01*
X42364Y-57758D01*
Y-54156D01*
X46545Y-49975D01*
Y-31661D01*
X37900Y-23016D01*
Y-9207D01*
X26993Y1700D01*
X-51330D01*
X-56730Y-3700D01*
X-58470D01*
X-59700Y-2470D01*
Y2500D01*
X-57726Y4474D01*
G01X42683Y-72535D02*
Y-69631D01*
X45119Y-67195D01*
Y-66866D01*
X46019Y-65966D01*
Y-64988D01*
X46778Y-64229D01*
Y-62669D01*
X47678Y-61769D01*
Y-60934D01*
X48364Y-60248D01*
Y-56646D01*
X52600Y-52410D01*
Y-29226D01*
X47100Y-23726D01*
Y-17982D01*
X43900Y-14782D01*
Y-6717D01*
X29483Y7700D01*
X-52864D01*
X-57464Y12300D01*
G01X40583Y-75035D02*
Y-70033D01*
X43919Y-66697D01*
Y-66368D01*
X44819Y-65468D01*
Y-64490D01*
X45578Y-63731D01*
Y-62171D01*
X46478Y-61271D01*
Y-60436D01*
X47164Y-59750D01*
Y-56148D01*
X51400Y-51912D01*
Y-29724D01*
X45900Y-24224D01*
Y-18480D01*
X42700Y-15280D01*
Y-7215D01*
X28985Y6500D01*
X-55083D01*
X-57420Y8837D01*
G01X-57200Y59300D02*
X-60800Y62900D01*
Y68100D01*
X-63490Y70790D01*
X-65590D01*
G01X-45400Y63200D02*
Y67500D01*
X-47900Y70000D01*
X-55900D01*
G01X-22498Y56502D02*
X-22602D01*
X-24160Y58060D01*
Y60962D01*
X-24500Y61302D01*
Y78298D01*
X-30503Y84301D01*
X-31497D01*
X-31498Y84300D01*
X-32500D01*
X-32600Y84200D01*
X-64700D01*
X-66367Y85867D01*
Y88567D01*
G01X6000Y-19600D02*
Y-22602D01*
X709Y-27893D01*
X-16402D01*
X-16695Y-27600D01*
X-20557D01*
X-21657Y-26500D01*
X-25364D01*
X-26264Y-25600D01*
X-27092D01*
X-28492Y-24200D01*
X-45798D01*
X-51600Y-30002D01*
Y-40779D01*
X-51851Y-41030D01*
Y-43766D01*
X-51600Y-44017D01*
Y-46882D01*
X-47782Y-50700D01*
X-43700D01*
G01X-33565Y-56535D02*
X-37385Y-52715D01*
G01X-37600Y-29700D02*
Y-26600D01*
X-38800Y-25400D01*
X-45300D01*
X-50400Y-30500D01*
Y-41277D01*
X-50651Y-41528D01*
Y-43268D01*
X-50400Y-43519D01*
Y-46384D01*
X-48806Y-47978D01*
X-46591D01*
G01X-48551Y-42398D02*
X-43648D01*
X-41500Y-40250D01*
G01X-22200Y17300D02*
X-23800Y18900D01*
Y24700D01*
X-34102Y35002D01*
X-34100Y36495D01*
Y41900D01*
X-39700Y47500D01*
G01X-24629Y-35370D02*
X-15900Y-44099D01*
Y-47230D01*
X-15500Y-47630D01*
Y-49370D01*
X-16200Y-50070D01*
Y-68200D01*
X-17600Y-69600D01*
Y-81600D01*
X-21500Y-85500D01*
Y-88000D01*
G01X3155Y19838D02*
X-17240D01*
X-32901Y35499D01*
X-32900Y36494D01*
Y55969D01*
G01X7900Y24000D02*
X5800D01*
X5791Y24009D01*
X4735D01*
X3864Y23138D01*
X1787D01*
X887Y22238D01*
X-16244D01*
X-30500Y36494D01*
Y47628D01*
X-25700Y52441D01*
X-25360Y52782D01*
G01X10613Y26064D02*
X8513D01*
X8477Y26100D01*
X7030D01*
X6139Y25209D01*
X4237D01*
X3366Y24338D01*
X1289D01*
X389Y23438D01*
X-15746D01*
X-29300Y36992D01*
Y47130D01*
X-24921Y51521D01*
X-20321D01*
X-19091Y52751D01*
Y54652D01*
X-20941Y56502D01*
X-22498D01*
G01X5605Y21909D02*
X3505D01*
X3476Y21938D01*
X2285D01*
X1385Y21038D01*
X-16742D01*
X-31700Y35996D01*
Y48125D01*
X-26560Y53280D01*
Y55341D01*
G01X-21191Y53621D02*
X-23291D01*
X-24130Y52782D01*
X-25360D01*
G01X-22498Y56502D02*
X-22500Y56500D01*
G01X-5009Y35115D02*
Y47719D01*
X-9390Y52100D01*
X-10694D01*
X-11794Y53200D01*
X-13066D01*
X-14417Y54551D01*
X-15565D01*
X-18100Y57086D01*
Y58298D01*
X-22100Y62298D01*
Y69411D01*
X-11996Y79498D01*
X-6799D01*
X-5200Y77899D01*
Y75100D01*
X-4600Y74500D01*
X0D01*
G01X10000D02*
X5000Y79500D01*
Y87001D01*
X2501Y89500D01*
X-18500D01*
X-23300Y84700D01*
Y61800D01*
X-19300Y57800D01*
Y56588D01*
X-16063Y53351D01*
X-14915D01*
X-13564Y52000D01*
X-12292D01*
X-11192Y50900D01*
X-9890D01*
X-6209Y47219D01*
Y36885D01*
X-7109Y35985D01*
Y30011D01*
X-3160Y26062D01*
G01X-28500Y56000D02*
X-27841Y55341D01*
X-26560D01*
G01X4800Y-6100D02*
X8100Y-9400D01*
Y-22200D01*
X-1200Y-31500D01*
Y-68400D01*
X-2700Y-69900D01*
X-9400D01*
X-10000Y-70500D01*
Y-74500D01*
G01X48983Y-75035D02*
Y-70364D01*
X48719Y-70100D01*
Y-68360D01*
X49619Y-67460D01*
Y-66482D01*
X50378Y-65723D01*
Y-64163D01*
X51278Y-63263D01*
Y-62428D01*
X51964Y-61742D01*
Y-58140D01*
X56200Y-53904D01*
Y-27732D01*
X50700Y-22232D01*
Y-16488D01*
X47500Y-13288D01*
Y3312D01*
X30612Y20200D01*
X25112D01*
X1100Y44212D01*
Y49007D01*
X1098Y49009D01*
Y51500D01*
X498Y52100D01*
X-3721D01*
X-7321Y55700D01*
X-9200D01*
X-11200Y57700D01*
G01X-4000Y57875D02*
Y55775D01*
X-2725Y54500D01*
X2403D01*
X3498Y53405D01*
Y50005D01*
X3500Y50003D01*
Y45208D01*
X26108Y22600D01*
X31608D01*
X49900Y4308D01*
Y-12292D01*
X53100Y-15492D01*
Y-21236D01*
X58600Y-26736D01*
Y-54900D01*
X57100Y-56400D01*
Y-56404D01*
X54364Y-59140D01*
Y-62738D01*
X53678Y-63424D01*
Y-64259D01*
X52778Y-65159D01*
Y-68219D01*
X52919Y-68360D01*
Y-71730D01*
G01X44783Y-75035D02*
Y-69229D01*
X46319Y-67693D01*
Y-67364D01*
X47219Y-66464D01*
Y-65486D01*
X47978Y-64727D01*
Y-63167D01*
X48878Y-62267D01*
Y-61432D01*
X49564Y-60746D01*
Y-57144D01*
X53800Y-52908D01*
Y-28728D01*
X48300Y-23228D01*
Y-17484D01*
X45100Y-14284D01*
Y2316D01*
X29616Y17800D01*
X24116D01*
X-1301Y43217D01*
Y48012D01*
X-1302Y48013D01*
Y49100D01*
X-1902Y49700D01*
X-4717D01*
X-8317Y53300D01*
X-10196D01*
X-11296Y54400D01*
X-12568D01*
X-13919Y55751D01*
X-15067D01*
X-16297Y56981D01*
Y58721D01*
X-15067Y59951D01*
X-10351D01*
X-8200Y57800D01*
G01X-14197Y57851D02*
X-13900D01*
X-13300Y57251D01*
Y56830D01*
X-12070Y55600D01*
X-10798D01*
X-9698Y54500D01*
X-7819D01*
X-4219Y50900D01*
X-702D01*
X-102Y50300D01*
Y48511D01*
X-100Y48509D01*
Y43714D01*
X24614Y19000D01*
X30114D01*
X46300Y2814D01*
Y-13786D01*
X49500Y-16986D01*
Y-22730D01*
X55000Y-28230D01*
Y-53406D01*
X50764Y-57642D01*
Y-61244D01*
X50078Y-61930D01*
Y-62765D01*
X49178Y-63665D01*
Y-65225D01*
X48419Y-65984D01*
Y-66962D01*
X47519Y-67862D01*
Y-68191D01*
X46883Y-68827D01*
Y-72535D01*
G01X2000Y57800D02*
X-400Y60200D01*
X-4645D01*
X-6100Y58745D01*
Y57005D01*
X-5200Y56105D01*
Y55277D01*
X-3223Y53300D01*
X1698D01*
X2298Y52700D01*
Y49507D01*
X2300Y49505D01*
Y44710D01*
X25610Y21400D01*
X31110D01*
X48700Y3810D01*
Y-12790D01*
X51900Y-15990D01*
Y-21734D01*
X57400Y-27234D01*
Y-54402D01*
X53164Y-58638D01*
Y-62240D01*
X52478Y-62926D01*
Y-63761D01*
X51578Y-64661D01*
Y-66221D01*
X50819Y-66980D01*
Y-69230D01*
G01X0Y-74500D02*
Y-31998D01*
X9300Y-22698D01*
Y-5500D01*
X7800Y-4000D01*
G01X10000Y-74500D02*
Y-70700D01*
X9400Y-70100D01*
X2900D01*
X1200Y-68400D01*
Y-32496D01*
X10500Y-23196D01*
Y-11700D01*
X11400Y-10800D01*
Y-8700D01*
G01X35800Y-56300D02*
X33198D01*
X32498Y-55600D01*
X14000D01*
X6800Y-48400D01*
Y-45200D01*
G01X34500Y-59300D02*
X32000Y-56800D01*
X13300D01*
X3800Y-47300D01*
Y-45200D01*
G01X38445Y-38400D02*
X36645Y-36600D01*
X35847D01*
X35841Y-36594D01*
X35199D01*
X34093Y-35488D01*
X17288D01*
X14699Y-32899D01*
Y-31905D01*
X14700Y-31904D01*
Y-23000D01*
X13800Y-22100D01*
Y-19900D01*
G01X-999Y57700D02*
X1001Y55700D01*
X2901D01*
X4698Y53903D01*
Y50503D01*
X4700Y50501D01*
Y45706D01*
X26606Y23800D01*
X32106D01*
X51100Y4806D01*
Y-11794D01*
X54300Y-14994D01*
Y-20738D01*
X59800Y-26238D01*
Y-55402D01*
X55564Y-59638D01*
Y-63236D01*
X54878Y-63922D01*
Y-66029D01*
G01X56978Y-68485D02*
Y-62952D01*
X56764Y-62738D01*
Y-60136D01*
X61000Y-55900D01*
Y-25740D01*
X55500Y-20240D01*
Y-14496D01*
X52300Y-11296D01*
Y5304D01*
X32604Y25000D01*
X27104D01*
X5900Y46204D01*
Y54399D01*
X4100Y56199D01*
Y58576D01*
X5435Y59911D01*
X10193D01*
X12304Y57800D01*
G01X60964Y-64368D02*
Y-59366D01*
X63400Y-56930D01*
Y-24744D01*
X57900Y-19244D01*
Y-13500D01*
X54700Y-10300D01*
Y6300D01*
X33599Y27401D01*
X32604Y27400D01*
X28100D01*
X8300Y47200D01*
Y54621D01*
X9304Y55625D01*
Y57725D01*
G01X58864Y-61868D02*
Y-59768D01*
X62200Y-56432D01*
Y-25242D01*
X56700Y-19742D01*
Y-13998D01*
X53500Y-10798D01*
Y5802D01*
X33102Y26200D01*
X27602D01*
X7100Y46702D01*
Y54916D01*
X6305Y55711D01*
Y57811D01*
G01X28065Y-87033D02*
X29729Y-85369D01*
X82463D01*
X82794Y-85700D01*
X83179D01*
X91081Y-93602D01*
Y-95702D01*
G01X38604Y-44668D02*
X36572Y-46700D01*
X21670D01*
X20707Y-47663D01*
X18966D01*
X17482Y-46179D01*
Y-44176D01*
X18967Y-42691D01*
G01X35800Y-43600D02*
X33900Y-45500D01*
X22800D01*
X22168Y-44868D01*
Y-42000D01*
G01X36512Y-33088D02*
X19685D01*
X19684Y-33087D01*
X18283D01*
X17100Y-31904D01*
Y-19700D01*
X17400Y-19400D01*
Y-17300D01*
G01X19266Y-14866D02*
Y-16196D01*
X19500Y-16430D01*
Y-18170D01*
X18600Y-19070D01*
Y-19898D01*
X18300Y-20198D01*
Y-31288D01*
X18899Y-31887D01*
X20182D01*
X20183Y-31888D01*
X30612D01*
X31912Y-30588D01*
X34012D01*
G01X38445Y-35400D02*
X36345D01*
X36339Y-35394D01*
X35697D01*
X34591Y-34288D01*
X17786D01*
X15900Y-32402D01*
Y-19030D01*
X14600Y-17730D01*
Y-15100D01*
X17234Y-12466D01*
G01X38604Y-44668D02*
X40089Y-43183D01*
X41017D01*
X41745Y-42455D01*
Y-33653D01*
X35380Y-27288D01*
X32644D01*
X31744Y-28188D01*
X30916D01*
X29616Y-29488D01*
X21300D01*
X20700Y-28888D01*
Y-21194D01*
X21000Y-20894D01*
Y-20066D01*
X21900Y-19166D01*
Y-16900D01*
X22500Y-16300D01*
X25200D01*
G01X25400Y-12700D02*
X23915Y-14185D01*
X22917D01*
X20700Y-16402D01*
Y-18668D01*
X19800Y-19568D01*
Y-20396D01*
X19500Y-20696D01*
Y-30088D01*
X20099Y-30687D01*
X20680D01*
X20681Y-30688D01*
X30114D01*
X31414Y-29388D01*
X32242D01*
X33142Y-28488D01*
X34882D01*
X40545Y-34151D01*
Y-41555D01*
X40117Y-41983D01*
X37417D01*
X35800Y-43600D01*
G01X19600Y58900D02*
Y55770D01*
X23300Y52070D01*
Y50330D01*
X22400Y49430D01*
Y48602D01*
X22300Y48502D01*
Y40110D01*
X21788Y39598D01*
Y37498D01*
G01X24800Y37600D02*
Y39700D01*
X24700Y39800D01*
Y64400D01*
X22700Y66400D01*
X22100D01*
X19600Y68900D01*
G01X21200Y51200D02*
Y49100D01*
X19993Y47893D01*
Y40723D01*
G01X39802Y-90768D02*
X41601Y-88969D01*
X80969D01*
X81900Y-89900D01*
Y-95700D01*
G01X35900Y-89568D02*
X37699Y-87769D01*
X81467D01*
X85011Y-91313D01*
Y-95692D01*
G01X43708Y-91968D02*
X45193Y-90483D01*
X78283D01*
X78900Y-91100D01*
Y-95700D01*
G01X31800Y-88368D02*
X33599Y-86569D01*
X81965D01*
X88081Y-92685D01*
Y-95694D01*
G01X75900Y-95700D02*
Y-92300D01*
X75300Y-91700D01*
X47853D01*
X46853Y-92700D01*
Y-93091D01*
X46787Y-93157D01*
G01X49540Y-94351D02*
Y-93500D01*
X50140Y-92900D01*
X72225D01*
X72825Y-93500D01*
Y-95730D01*
G01X52300Y-95600D02*
X53800Y-94100D01*
X68300D01*
X69785Y-95585D01*
G01X57432Y-659D02*
X59532D01*
X61100Y-2227D01*
Y-2886D01*
X62700Y-4486D01*
Y-17252D01*
X68200Y-22752D01*
Y-35506D01*
X82915Y-50221D01*
Y-55849D01*
X87400Y-60334D01*
Y-65500D01*
X87600Y-65700D01*
Y-67800D01*
G01X87000Y-71500D02*
X90215Y-68285D01*
Y-66615D01*
X88600Y-65000D01*
Y-59836D01*
X84115Y-55351D01*
Y-49723D01*
X69400Y-35008D01*
Y-22254D01*
X63900Y-16754D01*
Y-3988D01*
X62300Y-2388D01*
Y1741D01*
X61700Y2341D01*
X57434D01*
G01Y-3659D02*
X60175D01*
X61500Y-4984D01*
Y-17750D01*
X67000Y-23250D01*
Y-36004D01*
X81715Y-50719D01*
Y-56347D01*
X86200Y-60832D01*
Y-66200D01*
X84300Y-68100D01*
G01X57537Y-6658D02*
X59700D01*
X60300Y-7258D01*
Y-18248D01*
X65800Y-23748D01*
Y-36502D01*
X80515Y-51217D01*
Y-56845D01*
X85000Y-61330D01*
Y-65000D01*
X84100Y-65900D01*
X82100D01*
G01X57088Y-9625D02*
X59100Y-11637D01*
Y-18746D01*
X64600Y-24246D01*
Y-37000D01*
X79315Y-51715D01*
Y-58615D01*
X80800Y-60100D01*
G01X57434Y8341D02*
X60178D01*
X64700Y3783D01*
Y-1392D01*
X66300Y-2992D01*
Y-10894D01*
X66301Y-10895D01*
Y-14693D01*
X66300Y-14694D01*
Y-15758D01*
X71800Y-21258D01*
Y-34012D01*
X86515Y-48727D01*
Y-54355D01*
X91000Y-58840D01*
Y-64004D01*
X93485Y-66489D01*
Y-71145D01*
X92945Y-71685D01*
X92915D01*
X91685Y-72915D01*
Y-72945D01*
X89815Y-74815D01*
G01X57432Y5341D02*
X61415D01*
X63500Y3256D01*
Y-1890D01*
X65100Y-3490D01*
Y-11392D01*
X65101Y-11393D01*
Y-14195D01*
X65100Y-14196D01*
Y-16256D01*
X70600Y-21756D01*
Y-34510D01*
X85315Y-49225D01*
Y-54853D01*
X89800Y-59338D01*
Y-64502D01*
X92235Y-66937D01*
Y-69265D01*
X90750Y-70750D01*
G01X57490Y14341D02*
X61090Y10741D01*
X61178D01*
X67100Y4773D01*
Y-396D01*
X68700Y-1996D01*
Y-9898D01*
X69400Y-10598D01*
Y-13530D01*
X69304Y-13626D01*
Y-15366D01*
X74200Y-20262D01*
Y-33016D01*
X88915Y-47731D01*
Y-53359D01*
X93400Y-57844D01*
Y-63008D01*
X95885Y-65493D01*
Y-74655D01*
X94520Y-76020D01*
Y-76050D01*
X93035Y-77535D01*
G01X63800Y19400D02*
X68300Y14900D01*
Y102D01*
X69900Y-1498D01*
Y-9400D01*
X70500Y-10000D01*
X74500D01*
G01X57430Y11341D02*
X59230Y9541D01*
X60678D01*
X65900Y4278D01*
Y-894D01*
X67500Y-2494D01*
Y-10396D01*
X68200Y-11096D01*
Y-13032D01*
X68104Y-13128D01*
Y-15864D01*
X73000Y-20760D01*
Y-33514D01*
X87715Y-48229D01*
Y-53857D01*
X92200Y-58342D01*
Y-63506D01*
X94685Y-65991D01*
Y-72885D01*
X93785Y-73785D01*
G01X82600Y-62500D02*
X77200D01*
G01X80100Y-16000D02*
Y-37218D01*
X90115Y-47233D01*
Y-52861D01*
X91754Y-54500D01*
X94000D01*
G01X66263Y21114D02*
X69500Y17877D01*
Y600D01*
X70100Y0D01*
X74500D01*
G01X94707Y23842D02*
X94937Y23997D01*
X95205Y24100D01*
X95512D01*
X95857Y23945D01*
X96125Y23687D01*
X96317Y23377D01*
X96470Y22860D01*
X96508Y22395D01*
X96432Y21930D01*
X96317Y21620D01*
X96087Y21310D01*
X95818Y21103D01*
X95550Y21000D01*
X95282D01*
X95013Y21103D01*
X94783Y21258D01*
X94592Y21465D01*
G01X93178Y22292D02*
X92910Y22653D01*
X92680Y22860D01*
X92373Y22963D01*
X92105Y22860D01*
X91913Y22653D01*
X91760Y22343D01*
X91722Y21982D01*
X91760Y21672D01*
X91913Y21362D01*
X92143Y21103D01*
X92412Y21000D01*
X92718Y21103D01*
X92987Y21413D01*
X93140Y21878D01*
X93178Y22395D01*
X93102Y23067D01*
X92987Y23428D01*
X92795Y23790D01*
X92527Y24048D01*
X92258Y24100D01*
X91990Y23997D01*
X91798Y23738D01*
G01X90117Y21000D02*
Y24100D01*
X89158D01*
X88852Y23945D01*
X88660Y23738D01*
X88583Y23325D01*
X88660Y22912D01*
X88890Y22653D01*
X89158Y22498D01*
X90117D01*
G01X89158D02*
X88583Y21000D01*
G01X87093Y21620D02*
X86863Y21258D01*
X86557Y21052D01*
X86212Y21000D01*
X85905Y21052D01*
X85598Y21310D01*
X85407Y21620D01*
X85368Y21930D01*
X85445Y22292D01*
X85713Y22550D01*
X85982Y22653D01*
X86327D01*
G01X85982D02*
X85752Y22808D01*
X85560Y23067D01*
X85483Y23377D01*
X85560Y23687D01*
X85752Y23945D01*
X86097Y24100D01*
X86442Y24048D01*
X86787Y23842D01*
M02*
