G04 ================== begin FILE IDENTIFICATION RECORD ==================*
G04 Layout Name:  E:/git/clay/Circuit/R6_1/allegro_c6r3/CLAYc6r3.brd*
G04 Film Name:    PWR*
G04 File Format:  Gerber RS274X*
G04 File Origin:  Cadence Allegro 16.6-P004*
G04 Origin Date:  Sun Mar 06 08:34:24 2016*
G04 *
G04 Layer:  ETCH/PWR*
G04 Layer:  PIN/PWR*
G04 Layer:  VIA CLASS/PWR*
G04 *
G04 Offset:    (0.00 0.00)*
G04 Mirror:    No*
G04 Mode:      Positive*
G04 Rotation:  0*
G04 FullContactRelief:  No*
G04 UndefLineWidth:     0.00*
G04 ================== end FILE IDENTIFICATION RECORD ====================*
%FSLAX25Y25*MOIN*%
%IR0*IPPOS*OFA0.00000B0.00000*MIA0B0*SFA1.00000B1.00000*%
%ADD14C,.05*%
%ADD13C,.032*%
%ADD10C,.024*%
%ADD11C,.07*%
%ADD12C,.048*%
%ADD15C,.01*%
%ADD16C,.016*%
%ADD21C,.06004*%
%ADD22C,.06204*%
%ADD20C,.04404*%
%ADD18C,.08004*%
%ADD17C,.03604*%
%ADD19C,.08204*%
G75*
%LPD*%
G75*
G36*
G01X63472Y92481D02*
G03X66358Y94505I1228J1319D01*
G02X66631Y95050I368J156D01*
G03X67428Y95481I-431J1750D01*
G02X67972I272J-293D01*
G03X70428I1228J1319D01*
G02X70972I272J-293D01*
G03X71029Y95430I1230J1317D01*
G02X70993Y94794I-260J-304D01*
G03X70250Y93731I1007J-1495D01*
G02X69705Y93458I-389J95D01*
G03X67681Y90572I-705J-1658D01*
G02Y90028I-293J-272D01*
G03X69705Y87142I1319J-1228D01*
G02X70250Y86869I156J-368D01*
G03X73319Y88528I1750J431D01*
G02Y89072I293J272D01*
G03Y91528I-1319J1228D01*
G02Y92072I293J272D01*
G03X73171Y94670I-1319J1228D01*
G02X73207Y95306I260J304D01*
G03X73428Y95481I-1005J1496D01*
G02X73972I272J-293D01*
G03X76428I1228J1319D01*
G02X76972I272J-293D01*
G03X79181Y95288I1228J1319D01*
G02X79798Y94953I217J-335D01*
G01Y92647D01*
G02X79181Y92312I-400J0D01*
G03X76881Y89572I-981J-1511D01*
G02Y89028I-293J-272D01*
G03Y86572I1319J-1228D01*
G02Y86028I-293J-272D01*
G03Y83572I1319J-1228D01*
G02Y83028I-293J-272D01*
G03Y80572I1319J-1228D01*
G02Y80028I-293J-272D01*
G03Y77572I1319J-1228D01*
G02Y77028I-293J-272D01*
G03Y74572I1319J-1228D01*
G02Y74028I-293J-272D01*
G03Y71572I1319J-1228D01*
G02Y71028I-293J-272D01*
G03Y68572I1319J-1228D01*
G02Y68028I-293J-272D01*
G03Y65572I1319J-1228D01*
G02Y65028I-293J-272D01*
G03Y62572I1319J-1228D01*
G02Y62028I-293J-272D01*
G03Y59572I1319J-1228D01*
G02Y59028I-293J-272D01*
G03X76535Y57111I1319J-1228D01*
G02X76244Y56567I-370J-152D01*
G03X76041Y56513I361J-1766D01*
G02X75532Y57003I-124J380D01*
G03X74359Y55787I-1732J497D01*
G02X74868Y55297I124J-380D01*
G03X74878Y54268I1732J-498D01*
G02X74642Y53778I-382J-118D01*
G03X74072Y53419I659J-1678D01*
G02X73528I-272J293D01*
G03X71072I-1228J-1319D01*
G02X70528I-272J293D01*
G03X68072I-1228J-1319D01*
G02X67528I-272J293D01*
G03X65072I-1228J-1319D01*
G02X64528I-272J293D01*
G03X62072I-1228J-1319D01*
G02X61528I-272J293D01*
G03X59072I-1228J-1319D01*
G02X58528I-272J293D01*
G03X56072I-1228J-1319D01*
G02X55528I-272J293D01*
G03X53072I-1228J-1319D01*
G02X52528I-272J293D01*
G03X50072I-1228J-1319D01*
G02X49528I-272J293D01*
G03X47072I-1228J-1319D01*
G02X46528I-272J293D01*
G03X44072I-1228J-1319D01*
G02X43528I-272J293D01*
G03X41072I-1228J-1319D01*
G02X40528I-272J293D01*
G03X38072I-1228J-1319D01*
G02X37528I-272J293D01*
G03X35072I-1228J-1319D01*
G02X34528I-272J293D01*
G03X32869Y50350I-1228J-1319D01*
G02X33142Y49805I-95J-389D01*
G03X36028Y47781I1658J-705D01*
G02X36572I272J-293D01*
G03X39028I1228J1319D01*
G02X39572I272J-293D01*
G03X42028I1228J1319D01*
G02X42572I272J-293D01*
G03X45028I1228J1319D01*
G02X45572I272J-293D01*
G03X48458Y49805I1228J1319D01*
G02X48731Y50350I368J156D01*
G03X49528Y50781I-431J1750D01*
G02X50072I272J-293D01*
G03X52528I1228J1319D01*
G02X53072I272J-293D01*
G03X55528I1228J1319D01*
G02X56072I272J-293D01*
G03X56869Y50350I1228J1319D01*
G02X57142Y49805I-95J-389D01*
G03X58369Y47350I1658J-705D01*
G02X58642Y46805I-95J-389D01*
G03X61528Y44781I1658J-705D01*
G02X62072I272J-293D01*
G03X64528I1228J1319D01*
G02X65072I272J-293D01*
G03X67528I1228J1319D01*
G02X68072I272J-293D01*
G03X70528I1228J1319D01*
G02X71072I272J-293D01*
G03X73528I1228J1319D01*
G02X74072I272J-293D01*
G03X76528I1228J1319D01*
G02X77072I272J-293D01*
G03X79528I1228J1319D01*
G02X80072I272J-293D01*
G03X82528I1228J1319D01*
G02X83072I272J-293D01*
G03X85528I1228J1319D01*
G02X86072I272J-293D01*
G03X88528I1228J1319D01*
G02X89072I272J-293D01*
G03X91528I1228J1319D01*
G02X92072I272J-293D01*
G03X94528I1228J1319D01*
G02X95072I272J-293D01*
G03X97363Y44645I1228J1319D01*
G02X97999Y44322I236J-323D01*
G01Y13265D01*
G02X97324Y12975I-400J0D01*
G03Y7025I-2824J-2975D01*
G02X97999Y6735I275J-290D01*
G01Y3265D01*
G02X97324Y2975I-400J0D01*
G03Y-2975I-2824J-2975D01*
G02X97999Y-3265I275J-290D01*
G01Y-6735D01*
G02X97324Y-7025I-400J0D01*
G03Y-12975I-2824J-2975D01*
G02X97999Y-13265I275J-290D01*
G01Y-81800D01*
G02X97290Y-82054I-400J0D01*
G03Y-84346I-1390J-1146D01*
G02X97999Y-84600I309J-254D01*
G01Y-97999D01*
X13265D01*
G02X12975Y-97324I0J400D01*
G03X7025I-2975J2824D01*
G02X6735Y-97999I-290J-275D01*
G01X3265D01*
G02X2975Y-97324I0J400D01*
G03X-2975I-2975J2824D01*
G02X-3265Y-97999I-290J-275D01*
G01X-6735D01*
G02X-7025Y-97324I0J400D01*
G03X-12975I-2975J2824D01*
G02X-13265Y-97999I-290J-275D01*
G01X-21787D01*
G02X-22080Y-97327I0J400D01*
G03X-24720I-1320J1227D01*
G02X-25013Y-97999I-293J-272D01*
G01X-44287D01*
G02X-44580Y-97327I0J400D01*
G03X-47220I-1320J1227D01*
G02X-47513Y-97999I-293J-272D01*
G01X-59287D01*
G02X-59580Y-97327I0J400D01*
G03X-62220I-1320J1227D01*
G02X-62513Y-97999I-293J-272D01*
G01X-69287D01*
G02X-69580Y-97327I0J400D01*
G03X-72127Y-94780I-1320J1227D01*
G02X-72690Y-94762I-272J293D01*
G03X-72807Y-94650I-1303J-1244D01*
G02Y-94350I133J150D01*
G03X-72681Y-91772I-1193J1350D01*
G02Y-91228I293J272D01*
G03Y-88772I-1319J1228D01*
G02Y-88228I293J272D01*
G03Y-85772I-1319J1228D01*
G02Y-85228I293J272D01*
G03X-72239Y-83617I-1319J1228D01*
G02X-71694Y-83163I391J85D01*
G03X-69772Y-82819I694J1663D01*
G02X-69228I272J-293D01*
G03X-66772I1228J1319D01*
G02X-66228I272J-293D01*
G03X-63772I1228J1319D01*
G02X-63228I272J-293D01*
G03X-60772I1228J1319D01*
G02X-60228I272J-293D01*
G03X-57772I1228J1319D01*
G02X-57228I272J-293D01*
G03X-54772I1228J1319D01*
G02X-54228I272J-293D01*
G03X-51772I1228J1319D01*
G02X-51228I272J-293D01*
G03X-48772I1228J1319D01*
G02X-48228I272J-293D01*
G03X-45772I1228J1319D01*
G02X-45228I272J-293D01*
G03X-42772I1228J1319D01*
G02X-42228I272J-293D01*
G03X-39772I1228J1319D01*
G02X-39228I272J-293D01*
G03X-36772I1228J1319D01*
G02X-36228I272J-293D01*
G03X-33772I1228J1319D01*
G02X-33228I272J-293D01*
G03X-30772I1228J1319D01*
G02X-30228I272J-293D01*
G03X-27772I1228J1319D01*
G02X-27228I272J-293D01*
G03X-24772I1228J1319D01*
G02X-24228I272J-293D01*
G03X-22569Y-79750I1228J1319D01*
G02X-22842Y-79205I95J389D01*
G03X-22750Y-78931I-1657J709D01*
G02X-22205Y-78658I389J-95D01*
G03X-20181Y-75772I705J1658D01*
G02Y-75228I293J272D01*
G03Y-72772I-1319J1228D01*
G02Y-72228I293J272D01*
G03X-19842Y-70295I-1319J1228D01*
G02X-19569Y-69750I368J156D01*
G03X-18681Y-66772I-431J1750D01*
G02Y-66228I293J272D01*
G03X-20705Y-63342I-1319J1228D01*
G02X-21250Y-63069I-156J368D01*
G03X-21681Y-62272I-1750J-431D01*
G02Y-61728I293J272D01*
G03Y-59272I-1319J1228D01*
G02Y-58728I293J272D01*
G03Y-56272I-1319J1228D01*
G02Y-55728I293J272D01*
G03Y-53272I-1319J1228D01*
G02Y-52728I293J272D01*
G03Y-50272I-1319J1228D01*
G02Y-49728I293J272D01*
G03Y-47272I-1319J1228D01*
G02Y-46728I293J272D01*
G03Y-44272I-1319J1228D01*
G02Y-43728I293J272D01*
G03X-22829Y-40706I-1319J1228D01*
G02X-23191Y-40323I38J398D01*
G03X-24350Y-38707I-1801J-68D01*
G02X-24596Y-38242I143J373D01*
G03X-24565Y-37579I-1754J414D01*
G02X-24253Y-37132I396J56D01*
G03X-26414Y-35619I-376J1762D01*
G02X-26726Y-36066I-396J-56D01*
G03X-26806Y-36084I355J-1767D01*
G01X-26902Y-36108D01*
X-27100Y-35950D01*
X-27117Y-35886D01*
G03X-28519Y-38119I-1742J-463D01*
G02X-28063Y-38387I76J-393D01*
G03X-26992Y-39512I1713J559D01*
G02X-26746Y-39977I-143J-373D01*
G03X-25163Y-42185I1754J-414D01*
G02X-24801Y-42568I-38J-398D01*
G03X-24319Y-43728I1801J68D01*
G02Y-44272I-293J-272D01*
G03Y-46728I1319J-1228D01*
G02Y-47272I-293J-272D01*
G03X-24750Y-48069I1319J-1228D01*
G02X-25295Y-48342I-389J95D01*
G03X-27319Y-51228I-705J-1658D01*
G02Y-51772I-293J-272D01*
G03Y-54228I1319J-1228D01*
G02Y-54772I-293J-272D01*
G03Y-57228I1319J-1228D01*
G02Y-57772I-293J-272D01*
G03X-25295Y-60658I1319J-1228D01*
G02X-24750Y-60931I156J-368D01*
G03X-24319Y-61728I1750J431D01*
G02Y-62272I-293J-272D01*
G03Y-64728I1319J-1228D01*
G02Y-65272I-293J-272D01*
G03X-24658Y-67205I1319J-1228D01*
G02X-24931Y-67750I-368J-156D01*
G03X-25819Y-70728I431J-1750D01*
G02Y-71272I-293J-272D01*
G03Y-73728I1319J-1228D01*
G02Y-74272I-293J-272D01*
G03Y-76728I1319J-1228D01*
G02Y-77272I-293J-272D01*
G03X-25850Y-77307I1333J-1212D01*
G02X-26150I-150J133D01*
G03X-28728Y-77181I-1350J-1193D01*
G02X-29272I-272J293D01*
G03X-31728I-1228J-1319D01*
G02X-32272I-272J293D01*
G03X-34728I-1228J-1319D01*
G02X-35272I-272J293D01*
G03X-37728I-1228J-1319D01*
G02X-38272I-272J293D01*
G03X-40728I-1228J-1319D01*
G02X-41272I-272J293D01*
G03X-43728I-1228J-1319D01*
G02X-44272I-272J293D01*
G03X-46728I-1228J-1319D01*
G02X-47272I-272J293D01*
G03X-49728I-1228J-1319D01*
G02X-50272I-272J293D01*
G03X-52728I-1228J-1319D01*
G02X-53272I-272J293D01*
G03X-55728I-1228J-1319D01*
G02X-56272I-272J293D01*
G03X-58728I-1228J-1319D01*
G02X-59272I-272J293D01*
G03X-61728I-1228J-1319D01*
G02X-62272I-272J293D01*
G03X-64728I-1228J-1319D01*
G02X-65272I-272J293D01*
G03X-67728I-1228J-1319D01*
G02X-68272I-272J293D01*
G03X-70728I-1228J-1319D01*
G02X-71272I-272J293D01*
G03X-73728I-1228J-1319D01*
G02X-74272I-272J293D01*
G03X-76728I-1228J-1319D01*
G02X-77272I-272J293D01*
G03X-79728I-1228J-1319D01*
G02X-80272I-272J293D01*
G03X-82728I-1228J-1319D01*
G02X-83272I-272J293D01*
G03X-85728I-1228J-1319D01*
G02X-86272I-272J293D01*
G03X-88728I-1228J-1319D01*
G02X-89272I-272J293D01*
G03X-92145Y-79235I-1228J-1319D01*
G02X-92510Y-79798I-365J-163D01*
G01X-97999D01*
Y-78207D01*
G02X-97399Y-77861I400J-1D01*
G03X-95181Y-75072I899J1562D01*
G02Y-74528I293J272D01*
G03X-95150Y-74493I-1333J1212D01*
G02X-94850I150J-133D01*
G03X-92272Y-74619I1350J1193D01*
G02X-91728I272J-293D01*
G03X-89272I1228J1319D01*
G02X-88728I272J-293D01*
G03X-86272I1228J1319D01*
G02X-85728I272J-293D01*
G03X-83272I1228J1319D01*
G02X-82728I272J-293D01*
G03X-80272I1228J1319D01*
G02X-79728I272J-293D01*
G03Y-71981I1228J1319D01*
G02X-80272I-272J293D01*
G03X-82728I-1228J-1319D01*
G02X-83272I-272J293D01*
G03X-85728I-1228J-1319D01*
G02X-86272I-272J293D01*
G03X-88728I-1228J-1319D01*
G02X-89272I-272J293D01*
G03X-91728I-1228J-1319D01*
G02X-92272I-272J293D01*
G03X-94728I-1228J-1319D01*
G02X-95272I-272J293D01*
G03X-95307Y-71950I-1212J-1333D01*
G02Y-71650I133J150D01*
G03X-94750Y-70731I-1192J1351D01*
G02X-94205Y-70458I389J-95D01*
G03X-92181Y-67572I705J1658D01*
G02Y-67028I293J272D01*
G03Y-64572I-1319J1228D01*
G02Y-64028I293J272D01*
G03Y-61572I-1319J1228D01*
G02Y-61028I293J272D01*
G03Y-58572I-1319J1228D01*
G02Y-58028I293J272D01*
G03Y-55572I-1319J1228D01*
G02Y-55028I293J272D01*
G03Y-52572I-1319J1228D01*
G02Y-52028I293J272D01*
G03Y-49572I-1319J1228D01*
G02Y-49028I293J272D01*
G03Y-46572I-1319J1228D01*
G02Y-46028I293J272D01*
G03X-94205Y-43142I-1319J1228D01*
G02X-94750Y-42869I-156J368D01*
G03X-95181Y-42072I-1750J-431D01*
G02Y-41528I293J272D01*
G03Y-39072I-1319J1228D01*
G02Y-38528I293J272D01*
G03Y-36072I-1319J1228D01*
G02Y-35528I293J272D01*
G03X-94750Y-34731I-1319J1228D01*
G02X-94205Y-34458I389J-95D01*
G03Y-31142I705J1658D01*
G02X-94750Y-30869I-156J368D01*
G03X-95181Y-30072I-1750J-431D01*
G02Y-29528I293J272D01*
G03X-95150Y-29493I-1333J1212D01*
G02X-94850I150J-133D01*
G03X-92272Y-29619I1350J1193D01*
G02X-91728I272J-293D01*
G03X-89272I1228J1319D01*
G02X-88728I272J-293D01*
G03X-86272I1228J1319D01*
G02X-85728I272J-293D01*
G03X-84591Y-30100I1228J1319D01*
G02X-84319Y-30772I-20J-399D01*
G03X-81480Y-32968I1319J-1228D01*
G02X-80935Y-32840I338J-214D01*
G03X-78772Y-32619I935J1540D01*
G02X-78228I272J-293D01*
G03X-75813Y-32656I1228J1319D01*
G02X-75287I263J-301D01*
G03X-73596Y-29570I1187J1356D01*
G02X-73850Y-29025I112J384D01*
G03X-75069Y-26550I-1650J725D01*
G02X-75342Y-26005I95J389D01*
G03X-78658I-1658J705D01*
G02X-78931Y-26550I-368J-156D01*
G03X-79728Y-26981I431J-1750D01*
G02X-80272I-272J293D01*
G03X-81069Y-26550I-1228J-1319D01*
G02X-81342Y-26005I95J389D01*
G03X-84228Y-23981I-1658J705D01*
G02X-84772I-272J293D01*
G03X-87228I-1228J-1319D01*
G02X-87772I-272J293D01*
G03X-90228I-1228J-1319D01*
G02X-90772I-272J293D01*
G03X-93228I-1228J-1319D01*
G02X-93772I-272J293D01*
G03X-96658Y-26005I-1228J-1319D01*
G02X-96931Y-26550I-368J-156D01*
G03X-97399Y-26739I434J-1749D01*
G02X-97999Y-26393I-200J347D01*
G01Y-13265D01*
G02X-97324Y-12975I400J0D01*
G03Y-7025I2824J2975D01*
G02X-97999Y-6735I-275J290D01*
G01Y-3265D01*
G02X-97324Y-2975I400J0D01*
G03Y2975I2824J2975D01*
G02X-97999Y3265I-275J290D01*
G01Y6735D01*
G02X-97324Y7025I400J0D01*
G03Y12975I2824J2975D01*
G02X-97999Y13265I-275J290D01*
G01Y50298D01*
X-95451D01*
X-93451Y52298D01*
X-87226D01*
G03X-85574I826J1602D01*
G01X-83626D01*
G03X-81974I826J1602D01*
G01X-75651D01*
X-73251Y54698D01*
X-60298D01*
G03X-60119Y54472I1498J1002D01*
G02Y53928I-293J-272D01*
G03Y51472I1319J-1228D01*
G02Y50928I-293J-272D01*
G03Y48472I1319J-1228D01*
G02Y47928I-293J-272D01*
G03X-60150Y47893I1333J-1212D01*
G02X-60450I-150J133D01*
G03X-63028Y48019I-1350J-1193D01*
G02X-63572I-272J293D01*
G03X-66028I-1228J-1319D01*
G02X-66572I-272J293D01*
G03X-69119Y45472I-1228J-1319D01*
G02Y44928I-293J-272D01*
G03X-66481I1319J-1228D01*
G02Y45472I293J272D01*
G03X-66450Y45507I-1333J1212D01*
G02X-66150I150J-133D01*
G03X-63572Y45381I1350J1193D01*
G02X-63028I272J-293D01*
G03X-60572I1228J1319D01*
G02X-60028I272J-293D01*
G03X-57481Y47928I1228J1319D01*
G02Y48472I293J272D01*
G03Y50928I-1319J1228D01*
G02Y51472I293J272D01*
G03Y53928I-1319J1228D01*
G02Y54472I293J272D01*
G03X-57450Y54507I-1333J1212D01*
G02X-57150I150J-133D01*
G03X-54572Y54381I1350J1193D01*
G02X-54028I272J-293D01*
G03X-51572I1228J1319D01*
G02X-51028I272J-293D01*
G03X-48572I1228J1319D01*
G02X-48028I272J-293D01*
G03X-45302Y54698I1228J1319D01*
G01X-34178D01*
G03X-31622I1278J1271D01*
G01X-29746D01*
G03X-27254I1246J1302D01*
G01X-23286D01*
G02X-22906Y54175I0J-400D01*
G03X-20585Y55318I1715J-554D01*
G02X-20823Y55841I134J377D01*
G03X-20712Y56727I-1677J660D01*
G01X-20725Y56825D01*
X-19798Y57751D01*
Y81199D01*
G02X-19145Y81508I400J0D01*
G03Y84292I1145J1392D01*
G02X-19798Y84601I-253J309D01*
G01Y97999D01*
X-13265D01*
G02X-12975Y97324I0J-400D01*
G03X-7025I2975J-2824D01*
G02X-6735Y97999I290J275D01*
G01X-3265D01*
G02X-2975Y97324I0J-400D01*
G03X2975I2975J-2824D01*
G02X3265Y97999I290J275D01*
G01X6735D01*
G02X7025Y97324I0J-400D01*
G03X12975I2975J-2824D01*
G02X13265Y97999I290J275D01*
G01X19148D01*
G02X19521Y97454I0J-400D01*
G03X19881Y95572I1679J-654D01*
G02Y95028I-293J-272D01*
G03Y92572I1319J-1228D01*
G02Y92028I-293J-272D01*
G03Y89572I1319J-1228D01*
G02Y89028I-293J-272D01*
G03Y86572I1319J-1228D01*
G02Y86028I-293J-272D01*
G03X22950Y84369I1319J-1228D01*
G02X23495Y84642I389J-95D01*
G03X24905I705J1658D01*
G02X25450Y84369I156J-368D01*
G03X28519Y86028I1750J431D01*
G02Y86572I293J272D01*
G03Y89028I-1319J1228D01*
G02Y89572I293J272D01*
G03Y92028I-1319J1228D01*
G02Y92572I293J272D01*
G03Y95028I-1319J1228D01*
G02Y95572I293J272D01*
G03X28550Y95607I-1333J1212D01*
G02X28850I150J-133D01*
G03X31428Y95481I1350J1193D01*
G02X31972I272J-293D01*
G03X34428I1228J1319D01*
G02X34972I272J-293D01*
G03X37428I1228J1319D01*
G02X37972I272J-293D01*
G03X40428I1228J1319D01*
G02X40972I272J-293D01*
G03X43428I1228J1319D01*
G02X43972I272J-293D01*
G03X46428I1228J1319D01*
G02X46972I272J-293D01*
G03X49428I1228J1319D01*
G02X49972I272J-293D01*
G03X52428I1228J1319D01*
G02X52972I272J-293D01*
G03X55428I1228J1319D01*
G02X55972I272J-293D01*
G03X56769Y95050I1228J1319D01*
G02X57042Y94505I-95J-389D01*
G03X59928Y92481I1658J-705D01*
G02X60472I272J-293D01*
G03X62928I1228J1319D01*
G02X63472I272J-293D01*
G37*
G36*
G01X-98000Y50900D02*
Y57999D01*
X-97999Y58000D01*
Y97999D01*
X-20400D01*
Y58000D01*
X-20643Y57757D01*
G02X-21212Y57760I-283J283D01*
G03X-24179Y55845I-1288J-1260D01*
G02X-24551Y55300I-373J-145D01*
G01X-26319D01*
G02X-26715Y55754I0J400D01*
G03X-30285I-1785J246D01*
G02X-30681Y55300I-396J-54D01*
G01X-30715D01*
G02X-31112Y55749I0J400D01*
G03X-34688I-1788J220D01*
G02X-35085Y55300I-397J-49D01*
G01X-44598D01*
G02X-44998Y55700I0J400D01*
G03X-48028Y57019I-1802J0D01*
G02X-48572I-272J293D01*
G03X-51028I-1228J-1319D01*
G02X-51572I-272J293D01*
G03X-54028I-1228J-1319D01*
G02X-54572I-272J293D01*
G03X-55566Y57487I-1228J-1319D01*
G02X-55820Y58141I52J396D01*
G03X-58591Y58154I-1380J1159D01*
G02X-58881Y57500I-309J-254D01*
G03X-60602Y55700I81J-1800D01*
G02X-61002Y55300I-400J0D01*
G01X-73500D01*
X-75900Y52900D01*
X-80681D01*
G02X-81066Y53409I0J400D01*
G03X-84273Y54938I-1734J491D01*
G02X-84927I-327J230D01*
G03X-88134Y53409I-1473J-1038D01*
G02X-88519Y52900I-385J-109D01*
G01X-93700D01*
X-94256Y52344D01*
X-94305Y52330D01*
G03X-95530Y51105I505J-1730D01*
G01X-95544Y51056D01*
X-95700Y50900D01*
X-98000D01*
G37*
%LPC*%
G75*
G36*
G01X3307Y77743D02*
G03X3157Y77119I157J-368D01*
G02X399Y78583I-3158J-2619D01*
G03X831Y79057I39J398D01*
G02X900Y79997I1769J343D01*
G03X475Y80526I-378J132D01*
G02X-2605Y81462I-475J3974D01*
G03X-3235Y81311I-260J-304D01*
G02X-6606Y81421I-1665J689D01*
G03X-7259Y81584I-379J-128D01*
G02X-6016Y84120I-2741J2916D01*
G03X-5488Y83704I398J-38D01*
G02X-4480Y83752I586J-1704D01*
G03X-3989Y84174I92J389D01*
G02X2937Y81781I3989J326D01*
G03X3116Y81127I294J-271D01*
G02X3307Y77743I-516J-1727D01*
G37*
G36*
G01X8039Y56442D02*
G03X7494Y56457I-281J-285D01*
G02X7570Y59094I-1189J1354D01*
G03X8115Y59079I281J285D01*
G02X10499Y59074I1189J-1354D01*
G03X11044Y59088I265J300D01*
G02X11109Y56451I1260J-1288D01*
G03X10564Y56437I-265J-300D01*
G02X8039Y56442I-1260J1288D01*
G37*
G36*
G01X-2304Y56457D02*
G03X-2849Y56489I-290J-276D01*
G02X-2695Y59118I-1151J1386D01*
G03X-2150Y59086I290J276D01*
G02X184Y59059I1151J-1386D01*
G03X729Y59077I263J302D01*
G02X817Y56441I1271J-1277D01*
G03X272Y56423I-263J-302D01*
G02X-2304Y56457I-1271J1277D01*
G37*
G36*
G01X-12904Y59106D02*
G03X-12360Y59079I287J279D01*
G02X-10016Y59059I1160J-1379D01*
G03X-9471Y59077I263J301D01*
G02X-9384Y56441I1271J-1277D01*
G03X-9929Y56423I-263J-301D01*
G02X-12493Y56445I-1271J1277D01*
G03X-13037Y56472I-287J-279D01*
G02X-12904Y59106I-1160J1379D01*
G37*
G36*
G01X63081Y57958D02*
G03X62990Y57413I240J-320D01*
G02X60419Y57842I-1490J-1013D01*
G03X60510Y58387I-240J320D01*
G02X63081Y57958I1490J1013D01*
G37*
G36*
G01X27905Y74258D02*
G03X28450Y74531I156J368D01*
G02X31519Y72872I1750J-431D01*
G03Y72328I293J-272D01*
G02Y69872I-1319J-1228D01*
G03Y69328I293J-272D01*
G02Y66872I-1319J-1228D01*
G03Y66328I293J-272D01*
G02Y63872I-1319J-1228D01*
G03Y63328I293J-272D01*
G02X31477Y60829I-1319J-1228D01*
G03X31459Y60284I283J-282D01*
G02X31419Y57872I-1359J-1184D01*
G03Y57328I293J-272D01*
G02X29274Y54498I-1319J-1228D01*
G03X28984Y54349I-92J-178D01*
G02X28982Y54329I-1792J169D01*
G03X29309Y53875I395J-60D01*
G02X27218Y52371I-309J-1775D01*
G03X26891Y52825I-395J60D01*
G02X25881Y55828I309J1775D01*
G03Y56372I-293J272D01*
G02Y58828I1319J1228D01*
G03Y59372I-293J272D01*
G02Y61828I1319J1228D01*
G03Y62372I-293J272D01*
G02Y64828I1319J1228D01*
G03Y65372I-293J272D01*
G02Y67828I1319J1228D01*
G03Y68372I-293J272D01*
G02Y70828I1319J1228D01*
G03Y71372I-293J272D01*
G02X27905Y74258I1319J1228D01*
G37*
G36*
G01X-84028Y30381D02*
G03X-84572I-272J-293D01*
G02Y33019I-1228J1319D01*
G03X-84028I272J293D01*
G02X-81572I1228J-1319D01*
G03X-81028I272J293D01*
G02X-78572I1228J-1319D01*
G03X-78028I272J293D01*
G02Y30381I1228J-1319D01*
G03X-78572I-272J-293D01*
G02X-81028I-1228J1319D01*
G03X-81572I-272J-293D01*
G02X-84028I-1228J1319D01*
G37*
G36*
G01X39772Y25981D02*
G03X39228I-272J-293D01*
G02Y28619I-1228J1319D01*
G03X39772I272J293D01*
G02Y25981I1228J-1319D01*
G37*
G36*
G01X5399Y20119D02*
G03X4954Y19743I-45J-398D01*
G02X3361Y21628I-1799J95D01*
G03X3806Y22004I45J398D01*
G02X5683Y23709I1799J-95D01*
G03X6100Y24089I17J400D01*
G02X8319Y25753I1800J-89D01*
G03X8812Y26127I93J389D01*
G02X10194Y24311I1801J-63D01*
G03X9701Y23937I-93J-389D01*
G02X7822Y22200I-1801J63D01*
G03X7405Y21820I-17J-400D01*
G02X5399Y20119I-1800J89D01*
G37*
G36*
G01X-56333Y10897D02*
G03X-56325Y10268I251J-311D01*
G02X-58551Y10240I-1095J-1431D01*
G03X-58559Y10869I-251J311D01*
G02X-58798Y13512I1095J1431D01*
G03X-58804Y14057I-296J269D01*
G02X-56166Y14088I1305J1243D01*
G03X-56160Y13543I296J-269D01*
G02X-56333Y10897I-1304J-1243D01*
G37*
G36*
G01X-56307Y215D02*
G03X-56308Y-344I286J-280D01*
G02X-58887Y-339I-1292J-1256D01*
G03X-58886Y220I-286J280D01*
G02X-58966Y2645I1292J1256D01*
G03X-58990Y3189I-304J259D01*
G02X-56354Y3305I1264J1285D01*
G03X-56330Y2761I304J-259D01*
G02X-56307Y215I-1264J-1285D01*
G37*
G36*
G01X58657Y-8069D02*
G03X58576Y-8608I249J-313D01*
G02X55968Y-8214I-1487J-1017D01*
G03X56049Y-7675I-249J313D01*
G02X56177Y-5476I1488J1017D01*
G03X56158Y-4931I-302J262D01*
G02X56114Y-2432I1276J1272D01*
G03Y-1887I-293J273D01*
G02Y569I1318J1228D01*
G03Y1114I-293J272D01*
G02Y3568I1320J1227D01*
G03Y4113I-293J272D01*
G02Y6569I1318J1228D01*
G03Y7114I-293J273D01*
G02X56113Y9567I1320J1227D01*
G03X56112Y10112I-293J272D01*
G02X56136Y12595I1318J1229D01*
G03X56147Y13140I-287J278D01*
G02X55752Y14818I1343J1202D01*
G03X55500Y15301I-386J106D01*
G02X57838Y16523I600J1699D01*
G03X58090Y16040I386J-106D01*
G02X58784Y13087I-600J-1699D01*
G03X58773Y12542I287J-278D01*
G02X58751Y10115I-1343J-1201D01*
G03X58752Y9570I293J-272D01*
G02Y7113I-1318J-1229D01*
G03Y6568I293J-272D01*
G02Y4114I-1320J-1227D01*
G03Y3569I293J-273D01*
G02Y1113I-1318J-1228D01*
G03Y568I293J-273D01*
G02Y-1886I-1320J-1227D01*
G03Y-2431I293J-273D01*
G02X58794Y-4841I-1318J-1228D01*
G03X58813Y-5386I302J-262D01*
G02X58657Y-8069I-1276J-1272D01*
G37*
G36*
G01X-56505Y-10147D02*
G03X-56523Y-10728I265J-299D01*
G02X-58995Y-10651I-1277J-1272D01*
G03X-58977Y-10070I-265J299D01*
G02X-59084Y-7644I1277J1272D01*
G03X-59114Y-7100I-307J256D01*
G02X-56482Y-6954I1248J1300D01*
G03X-56452Y-7498I307J-256D01*
G02X-56505Y-10147I-1248J-1300D01*
G37*
G36*
G01X17472Y-14699D02*
G03X17103Y-14263I-398J37D01*
G02X19028Y-12633I131J1797D01*
G03X19397Y-13069I398J-37D01*
G02X19529Y-16649I-131J-1797D01*
G03X19190Y-17091I58J-396D01*
G02X17137Y-15517I-1790J-209D01*
G03X17476Y-15075I-58J396D01*
G02X17472Y-14699I1790J207D01*
G37*
G36*
G01X7280Y-17768D02*
G03Y-18332I284J-282D01*
G02X4720I-1280J-1268D01*
G03Y-17768I-284J282D01*
G02X7280I1280J1268D01*
G37*
G36*
G01X-993Y-22250D02*
G03Y-21650I-265J300D01*
G02X-877Y-18855I1193J1350D01*
G03X-782Y-18314I-239J321D01*
G02X1799Y-18767I1504J992D01*
G03X1704Y-19308I239J-321D01*
G02X1393Y-21650I-1504J-992D01*
G03Y-22250I265J-300D01*
G02X-993I-1193J-1350D01*
G37*
G36*
G01X-59650Y-30025D02*
G03X-59396Y-30570I366J-161D01*
G02X-61087Y-33656I-504J-1730D01*
G03X-61613I-263J-301D01*
G02X-63987I-1187J1356D01*
G03X-64513I-263J-301D01*
G02X-66928Y-33619I-1187J1356D01*
G03X-67472I-272J-293D01*
G02X-69131Y-30550I-1228J1319D01*
G03X-68858Y-30005I-95J389D01*
G02X-65972Y-27981I1658J705D01*
G03X-65428I272J293D01*
G02X-64631Y-27550I1228J-1319D01*
G03X-64358Y-27005I-95J389D01*
G02X-61513Y-24944I1658J705D01*
G03X-60987I263J301D01*
G02X-59369Y-28050I1187J-1356D01*
G03X-59642Y-28595I95J-389D01*
G02X-59650Y-30025I-1658J-706D01*
G37*
G36*
G01X-35210Y-33319D02*
G03X-34764Y-33617I388J97D01*
G02X-36248Y-35839I264J-1783D01*
G03X-36694Y-35541I-388J-97D01*
G02X-38670Y-34320I-264J1783D01*
G03X-39141Y-34055I-380J-124D01*
G02X-40738Y-33656I-410J1755D01*
G03X-41264I-263J-301D01*
G02X-43638I-1187J1356D01*
G03X-44164I-263J-301D01*
G02X-46538I-1187J1356D01*
G03X-47064I-263J-301D01*
G02Y-30944I-1187J1356D01*
G03X-46538I263J301D01*
G02X-45782Y-30550I1187J-1356D01*
G03X-45509Y-30005I-95J389D01*
G02X-42623Y-27981I1658J705D01*
G03X-42079I272J293D01*
G02X-39374Y-28268I1228J-1319D01*
G03X-38783Y-28341I328J229D01*
G02X-37636Y-31502I1183J-1359D01*
G03X-37831Y-31761I-4J-200D01*
G02X-37793Y-31905I-1722J-531D01*
G03X-37534Y-32050I195J44D01*
G02X-35210Y-33319I576J-1708D01*
G37*
G36*
G01X36646Y-35297D02*
G03X36295Y-34877I-399J23D01*
G02X34729Y-32825I217J1789D01*
G03X34275Y-32371I-395J59D01*
G02X35795Y-30851I-263J1783D01*
G03X36249Y-31305I395J-59D01*
G02X38311Y-33191I263J-1783D01*
G03X38662Y-33611I399J-23D01*
G02X39764Y-36628I-217J-1789D01*
G03Y-37172I293J-272D01*
G02X37294Y-39787I-1318J-1229D01*
G03X36730Y-39840I-256J-308D01*
G02X36491Y-37307I-1390J1147D01*
G03X37055Y-37254I256J308D01*
G02X37126Y-37172I1397J-1138D01*
G03Y-36628I-293J272D01*
G02X36646Y-35297I1319J1228D01*
G37*
G36*
G01X21112Y-43460D02*
G03X20531Y-43586I-234J-325D01*
G02X20023Y-41231I-1564J895D01*
G03X20604Y-41105I234J325D01*
G02X21112Y-43460I1564J-895D01*
G37*
G36*
G01X37417Y-42804D02*
G03X37926Y-42998I359J176D01*
G02X36987Y-45464I678J-1670D01*
G03X36478Y-45270I-359J-176D01*
G02X37417Y-42804I-678J1670D01*
G37*
G36*
G01X5572Y-46519D02*
G03X5028I-272J-293D01*
G02Y-43881I-1228J1319D01*
G03X5572I272J293D01*
G02Y-46519I1228J-1319D01*
G37*
G36*
G01X-35726Y-51176D02*
G03X-35869Y-51742I194J-350D01*
G02X-38259Y-51139I-1517J-973D01*
G03X-38116Y-50573I-194J350D01*
G02X-35726Y-51176I1517J973D01*
G37*
G36*
G01X33924Y-57592D02*
G03X34160Y-57048I-128J379D01*
G02X36376Y-58008I1640J748D01*
G03X36140Y-58552I128J-379D01*
G02X33924Y-57592I-1640J-748D01*
G37*
G36*
G01X-32703Y-58117D02*
G03X-32854Y-58674I192J-351D01*
G02X-35262Y-58018I-1546J-926D01*
G03X-35111Y-57461I-192J351D01*
G02X-32703Y-58117I1546J926D01*
G37*
G36*
G01X60649Y-62113D02*
G03X61031Y-62567I396J-54D01*
G02X59179Y-64123I-67J-1801D01*
G03X58797Y-63669I-396J54D01*
G02X60649Y-62113I67J1801D01*
G37*
G36*
G01X-51729Y-68644D02*
G03X-52268Y-68766I-206J-343D01*
G02X-52841Y-66226I-1502J996D01*
G03X-52302Y-66104I206J343D01*
G02X-51729Y-68644I1502J-996D01*
G37*
G36*
G01X56668Y-66238D02*
G03X57049Y-66684I397J-47D01*
G02X55188Y-68276I-71J-1801D01*
G03X54807Y-67830I-397J47D01*
G02X56668Y-66238I71J1801D01*
G37*
G36*
G01X51134Y-71485D02*
G03X50752Y-71031I-396J54D01*
G02X52604Y-69475I67J1801D01*
G03X52986Y-69929I396J-54D01*
G02X51134Y-71485I-67J-1801D01*
G37*
G36*
G01X34037Y-74331D02*
G03X33827Y-74581I-17J-199D01*
G02X32016Y-73234I-1744J-454D01*
G03X32398Y-72780I-14J400D01*
G02X35968Y-72779I1785J246D01*
G03X36368Y-73233I396J-54D01*
G02X36529Y-73239I13J-1802D01*
G03X36739Y-72989I17J199D01*
G02X40268Y-72780I1744J454D01*
G03X40650Y-73234I396J-54D01*
G02X40729Y-73239I-74J-1801D01*
G03X40939Y-72989I17J199D01*
G02X44468Y-72780I1744J454D01*
G03X44850Y-73234I396J-54D01*
G02X44929Y-73239I-74J-1801D01*
G03X45139Y-72989I17J199D01*
G02X48668Y-72780I1744J454D01*
G03X49050Y-73234I396J-54D01*
G02X47198Y-74790I-67J-1801D01*
G03X46816Y-74336I-396J54D01*
G02X46737Y-74331I74J1801D01*
G03X46527Y-74581I-17J-199D01*
G02X42998Y-74790I-1744J-454D01*
G03X42616Y-74336I-396J54D01*
G02X42537Y-74331I74J1801D01*
G03X42327Y-74581I-17J-199D01*
G02X38798Y-74790I-1744J-454D01*
G03X38416Y-74336I-396J54D01*
G02X38337Y-74331I74J1801D01*
G03X38127Y-74581I-17J-199D01*
G02X34598Y-74791I-1744J-454D01*
G03X34198Y-74337I-396J54D01*
G02X34037Y-74331I-13J1802D01*
G37*
G36*
G01X32671Y-81546D02*
G03X32937Y-81050I-117J382D01*
G02X35193Y-82259I1727J514D01*
G03X34927Y-82755I117J-382D01*
G02X32671Y-81546I-1727J-514D01*
G37*
G36*
G01X51209Y-93670D02*
G03X51710Y-93897I370J151D01*
G02X50631Y-96281I590J-1703D01*
G03X50130Y-96054I-370J-151D01*
G02X47889Y-95072I-589J1703D01*
G03X47389Y-94856I-366J-161D01*
G02X45097Y-93783I-602J1699D01*
G03X44538Y-93567I-375J-139D01*
G02X45398Y-91342I-830J1599D01*
G03X45957Y-91558I375J139D01*
G02X48438Y-92436I830J-1599D01*
G03X48938Y-92652I366J161D01*
G02X51209Y-93670I602J-1699D01*
G37*
G36*
G01X74654Y-97002D02*
G03X74096Y-97008I-276J-289D01*
G02X71519Y-96972I-1271J1278D01*
G03X70967Y-96945I-290J-275D01*
G02X71091Y-94343I-1182J1360D01*
G03X71643Y-94370I290J275D01*
G02X74071Y-94428I1182J-1360D01*
G03X74629Y-94422I276J289D01*
G02X77128Y-94381I1271J-1278D01*
G03X77672I272J293D01*
G02X80128I1228J-1319D01*
G03X80672I272J293D01*
G02X83170Y-94421I1228J-1319D01*
G03X83735Y-94420I282J284D01*
G02X86268Y-94401I1276J-1272D01*
G03X86826I279J287D01*
G02X89312Y-94378I1255J-1293D01*
G03X89857Y-94380I274J292D01*
G02X89850Y-97018I1224J-1322D01*
G03X89305Y-97016I-274J-292D01*
G02X86824Y-96985I-1224J1322D01*
G03X86266I-279J-287D01*
G02X83741Y-96971I-1255J1293D01*
G03X83176Y-96972I-282J-284D01*
G02X80672Y-97019I-1276J1272D01*
G03X80128I-272J-293D01*
G02X77672I-1228J1319D01*
G03X77128I-272J-293D01*
G02X74654Y-97002I-1228J1319D01*
G37*
G36*
G01X13282Y76960D02*
G02X11468Y78330I-3282J-2460D01*
G03X11990Y78830I143J374D01*
G02X13620Y77600I1709J570D01*
G03X13282Y76960I-18J-400D01*
G37*
G36*
G01X23065Y36227D02*
G02X20195Y38340I-1277J1271D01*
G03X19869Y38925I-354J186D01*
G02X21586Y39881I124J1798D01*
G03X21912Y39296I354J-186D01*
G02X22976Y38853I-124J-1798D01*
G03X23523Y38871I264J301D01*
G02X23612Y36245I1277J-1271D01*
G03X23065Y36227I-264J-301D01*
G37*
G36*
G01X62011Y17834D02*
G02X61453Y19784I-1711J565D01*
G03X62089Y19966I256J307D01*
G02X64054Y21184I1711J-566D01*
G03X64502Y21495I57J396D01*
G02X66009Y19330I1761J-381D01*
G03X65561Y19019I-57J-396D01*
G02X62647Y18016I-1761J381D01*
G03X62011Y17834I-256J-307D01*
G37*
G36*
G01X-24263Y16137D02*
G02X-27105Y18320I-1537J940D01*
G03X-27142Y18906I-290J276D01*
G02X-27224Y21622I1142J1394D01*
G03X-27218Y22202I-272J293D01*
G02X-24738Y22173I1255J1293D01*
G03X-24744Y21593I272J-293D01*
G02X-24695Y19058I-1256J-1292D01*
G03X-24658Y18472I290J-276D01*
G02X-24391Y18201I-1143J-1393D01*
G03X-23737Y18241I313J249D01*
G02X-23609Y16177I1537J-941D01*
G03X-24263Y16137I-313J-249D01*
G37*
G36*
G01X6602Y-6061D02*
G02X5454Y-4421I-1802J-39D01*
G03X5998Y-4039I144J373D01*
G02X7146Y-5679I1802J39D01*
G03X6602Y-6061I-144J-373D01*
G37*
G36*
G01X26315Y-14884D02*
G02X24249Y-14770I-1114J-1416D01*
G03X24285Y-14116I-211J340D01*
G02X26351Y-14230I1114J1416D01*
G03X26315Y-14884I211J-340D01*
G37*
G36*
G01X-10246Y-24863D02*
G02X-12864Y-24838I-1297J1251D01*
G03X-13408Y-24798I-293J-272D01*
G02X-16096Y-22491I-1128J1405D01*
G03X-16271Y-21929I-346J201D01*
G02X-13940Y-21202I771J1629D01*
G03X-13765Y-21764I346J-201D01*
G02X-13215Y-22167I-771J-1629D01*
G03X-12671Y-22207I293J272D01*
G02X-10255Y-22352I1128J-1405D01*
G03X-9681Y-22349I286J280D01*
G02X-9341Y-22073I1297J-1251D01*
G03X-9362Y-21383I-212J339D01*
G02X-7543Y-21327I862J1583D01*
G03X-7522Y-22017I212J-339D01*
G02X-9672Y-24860I-862J-1583D01*
G03X-10246Y-24863I-286J-280D01*
G37*
G36*
G01X-41921Y-52034D02*
G02X-44398Y-52811I-864J-1581D01*
G03X-44564Y-52281I-358J179D01*
G02X-45417Y-50154I864J1581D01*
G03X-45942Y-49659I-381J122D01*
G02X-44874Y-48524I-649J1681D01*
G03X-44349Y-49019I381J-122D01*
G02X-42087Y-51504I649J-1681D01*
G03X-41921Y-52034I358J-179D01*
G37*
G36*
G01X88710Y-72069D02*
G02X86312Y-69835I-1710J569D01*
G03X86421Y-69163I-153J370D01*
G02X86357Y-69105I1178J1364D01*
G03X85758Y-69159I-276J-290D01*
G02X82498Y-68102I-1458J1059D01*
G03X82098Y-67702I-400J0D01*
G02X81190Y-64345I2J1802D01*
G03X81281Y-63727I-202J345D01*
G02X80808Y-62310I1319J1228D01*
G03X80481Y-61874I-398J42D01*
G02X82592Y-60290I319J1774D01*
G03X82919Y-60726I398J-42D01*
G02X83510Y-64055I-319J-1774D01*
G03X83419Y-64673I202J-345D01*
G02X83902Y-65898I-1319J-1228D01*
G03X84302Y-66298I400J0D01*
G02X85543Y-66795I-2J-1802D01*
G03X86142Y-66741I276J290D01*
G02X88288Y-69465I1458J-1059D01*
G03X88179Y-70137I153J-370D01*
G02X88359Y-70317I-1181J-1361D01*
G03X89040Y-70181I302J263D01*
G02X89391Y-71933I1710J-569D01*
G03X88710Y-72069I-302J-263D01*
G37*
G36*
G01X94218Y-76176D02*
G02X92466Y-75825I-1183J-1359D01*
G03X92602Y-75144I-127J379D01*
G02X94354Y-75495I1183J1359D01*
G03X94218Y-76176I127J-379D01*
G37*
G36*
G01X30535Y-87084D02*
G02X30008Y-88559I1265J-1284D01*
G03X29330Y-88317I-397J-43D01*
G02X29857Y-86842I-1265J1284D01*
G03X30535Y-87084I397J43D01*
G37*
G36*
G01X-91845Y36841D02*
G03X-91663Y37404I-165J364D01*
G02X-91419Y39528I1563J896D01*
G03Y40072I-293J272D01*
G02Y42528I1319J1228D01*
G03Y43072I-293J272D01*
G02X-88781I1319J1228D01*
G03Y42528I293J-272D01*
G02Y40072I-1319J-1228D01*
G03Y39528I293J-272D01*
G02X-89355Y36659I-1319J-1228D01*
G03X-89537Y36096I165J-364D01*
G02X-91845Y36841I-1563J-896D01*
G37*
G36*
G01X-67649Y71797D02*
G03X-67048Y71850I277J288D01*
G02X-64063Y69833I1458J-1060D01*
G03X-63919Y69272I339J-212D01*
G02X-66028Y66381I-881J-1572D01*
G03X-66572I-272J-293D01*
G02X-69028I-1228J1319D01*
G03X-69572I-272J-293D01*
G02X-70977Y69493I-1228J1319D01*
G03X-70632Y70002I-39J398D01*
G02X-67649Y71797I1732J498D01*
G37*
G36*
G01X-84273Y60062D02*
G03X-84927I-327J-230D01*
G02Y62138I-1473J1038D01*
G03X-84273I327J230D01*
G02Y60062I1473J-1038D01*
G37*
G36*
G01X-93481Y65928D02*
G02X-96119I-1319J-1228D01*
G03Y66472I-293J272D01*
G02Y68928I1319J1228D01*
G03Y69472I-293J272D01*
G02Y71928I1319J1228D01*
G03Y72472I-293J272D01*
G02X-93572Y75019I1319J1228D01*
G03X-93028I272J293D01*
G02X-90572I1228J-1319D01*
G03X-90028I272J293D01*
G02X-87572I1228J-1319D01*
G03X-87028I272J293D01*
G02X-84572I1228J-1319D01*
G03X-84028I272J293D01*
G02X-81572I1228J-1319D01*
G03X-81028I272J293D01*
G02X-78572I1228J-1319D01*
G03X-78028I272J293D01*
G02X-76888Y75500I1228J-1319D01*
G03X-76561Y76099I-19J399D01*
G02X-74912Y75200I1561J901D01*
G03X-75239Y74601I19J-399D01*
G02X-78028Y72381I-1561J-901D01*
G03X-78572I-272J-293D01*
G02X-81028I-1228J1319D01*
G03X-81572I-272J-293D01*
G02X-84028I-1228J1319D01*
G03X-84572I-272J-293D01*
G02X-87028I-1228J1319D01*
G03X-87572I-272J-293D01*
G02X-90028I-1228J1319D01*
G03X-90572I-272J-293D01*
G02X-93028I-1228J1319D01*
G03X-93572I-272J-293D01*
G02X-93607Y72350I-1212J1333D01*
G03Y72050I133J-150D01*
G02X-93481Y69472I-1193J-1350D01*
G03Y68928I293J-272D01*
G02Y66472I-1319J-1228D01*
G03Y65928I293J-272D01*
G37*
G36*
G01X-54794Y67404D02*
G02X-57006I-1106J-1904D01*
G03Y68096I-201J346D01*
G02X-54794I1106J1904D01*
G03Y67404I201J-346D01*
G37*
G36*
G01X-72242Y71605D02*
G02X-74039Y72486I-1558J-905D01*
G03X-73746Y73083I-53J397D01*
G02X-71949Y72202I1558J905D01*
G03X-72242Y71605I53J-397D01*
G37*
G36*
G01X-64703Y87876D02*
G02X-65030Y89776I-1664J692D01*
G03X-64364Y89891I297J268D01*
G02X-64037Y87991I1664J-692D01*
G03X-64703Y87876I-297J-268D01*
G37*
G36*
G01X-94259Y52905D02*
G02X-94005Y53159I-1141J1395D01*
G01X-94119Y53019D01*
X-94259Y52905D01*
G37*
G54D21*
X-82600Y84900D03*
X-92600D03*
X-32963Y73164D03*
G54D22*
X-40837D03*
G54D20*
X-21500Y-88000D03*
G54D18*
X-84500Y-10000D03*
Y0D03*
Y10000D03*
X0Y-84500D03*
X-10000D03*
X10000D03*
Y84500D03*
X84500Y-10000D03*
Y0D03*
Y10000D03*
G54D17*
X82600Y-34900D03*
X-85100Y-53200D03*
X-89000Y-46000D03*
X-84900Y-38400D03*
X-84100Y18200D03*
X-83900Y24400D03*
X-90400Y49500D03*
X-71025Y-66975D03*
X-77176Y-60000D03*
X-73200Y-49000D03*
X-80700Y-44300D03*
X-67700Y-20400D03*
X-71588Y30609D03*
X-58300Y-70300D03*
X-58700Y-54100D03*
X-65720Y-41400D03*
X-66500Y-15800D03*
X-61300Y36000D03*
X-55700Y34900D03*
X-61900Y28700D03*
X-52800Y47600D03*
X-47800Y-64100D03*
X-43700Y-69000D03*
X-39700Y-57500D03*
X-41500Y-40250D03*
X-48551Y-42398D03*
X-37900Y-12900D03*
X-47400Y-12600D03*
X-37900Y-4100D03*
X-46900D03*
X-46700Y9800D03*
X-39500Y37400D03*
X-39700Y47500D03*
X-44900Y48025D03*
X-18300Y-56600D03*
X-17600Y-48500D03*
X-32400Y-49400D03*
X-23000Y-20800D03*
X-20900Y-6100D03*
X-25100Y12000D03*
X-30600Y26400D03*
X-25800Y42300D03*
X-15400Y-79800D03*
X-5000Y-80100D03*
X-3500Y-50100D03*
X-14200Y-42700D03*
X-3700Y-38300D03*
X-3000Y-6100D03*
X-17400Y13700D03*
X-3100Y13600D03*
X-5009Y35115D03*
X-3160Y26062D03*
X-13600Y46500D03*
X4700Y-80100D03*
X10900Y-36600D03*
X6500Y-40300D03*
X13800Y-19900D03*
X11400Y-8700D03*
X3500Y35200D03*
X13200Y50300D03*
X29615Y-80345D03*
X27899Y-62793D03*
X19300Y-50200D03*
X24800Y-37588D03*
X25900Y-21900D03*
X23000Y-7000D03*
X21200Y51200D03*
X19600Y58900D03*
Y68900D03*
X39802Y-90768D03*
X35900Y-89568D03*
X42500Y-20500D03*
X36900Y5600D03*
X46300Y33500D03*
X48200Y56200D03*
X35400Y62900D03*
X42400Y60800D03*
X45400Y80000D03*
X50600Y23100D03*
X53900Y30700D03*
X53800Y40600D03*
X53700Y72000D03*
X54400Y60700D03*
X49600Y62100D03*
X64300Y89800D03*
X72100Y-76500D03*
X77200Y-62500D03*
X77184Y-52792D03*
X66777Y-53025D03*
X71197Y-52803D03*
X80100Y-16000D03*
X79100Y-5000D03*
Y5300D03*
X71600Y17700D03*
X72100Y27700D03*
Y37700D03*
X73800Y67500D03*
X89815Y-74815D03*
X94000Y-54500D03*
X85600Y-16600D03*
X82500Y-25000D03*
X82100Y37700D03*
Y27700D03*
X23900Y13000D03*
X-84600Y57500D03*
X-71700Y83200D03*
X-45400Y63200D03*
X-39100Y94100D03*
X-49100D03*
X-30500Y63100D03*
X-24100Y94100D03*
G54D19*
X-74500Y-10000D03*
Y0D03*
Y10000D03*
X0Y-74500D03*
X-10000D03*
Y74500D03*
X10000Y-74500D03*
X74500Y-10000D03*
Y0D03*
Y10000D03*
%LPD*%
G75*
G54D10*
X-96500Y-76300D03*
X-90500Y-78500D03*
X-87500D03*
X-84500D03*
X-93500Y-59800D03*
Y-62800D03*
Y-65800D03*
Y-68800D03*
X-96500Y-73300D03*
X-93500D03*
X-96500Y-70300D03*
Y-67300D03*
Y-64300D03*
Y-61300D03*
X-90500Y-73300D03*
X-87500D03*
X-84500D03*
X-93500Y-44800D03*
Y-53800D03*
Y-47800D03*
Y-50800D03*
Y-56800D03*
X-85100Y-53200D03*
X-89000Y-46000D03*
X-96500Y-58300D03*
Y-52300D03*
Y-49300D03*
Y-55300D03*
Y-46300D03*
Y-43300D03*
X-93500Y-32800D03*
X-84900Y-38400D03*
X-96500Y-40300D03*
Y-37300D03*
Y-31300D03*
Y-28300D03*
X-93500D03*
X-90500D03*
X-87500D03*
X-84500D03*
X-96500Y-34300D03*
X-86000Y-25300D03*
X-89000D03*
X-92000D03*
X-95000D03*
X-84100Y18200D03*
X-83900Y24400D03*
X-91100Y35200D03*
X-85800Y31700D03*
X-90100Y38300D03*
X-93800Y50600D03*
X-86400Y53900D03*
X-90400Y49500D03*
X-95400Y54300D03*
X-90100Y44300D03*
Y41300D03*
X-93757Y61700D03*
X-93800Y57300D03*
X-94800Y67700D03*
Y70700D03*
X-86400Y61100D03*
X-84600Y57500D03*
X-94800Y64700D03*
Y73700D03*
X-91800D03*
X-88800D03*
X-85800D03*
X-70900Y-96100D03*
X-74000Y-96000D03*
Y-93000D03*
X-68000Y-81500D03*
X-71000D03*
X-74000Y-81000D03*
Y-84000D03*
Y-87000D03*
Y-90000D03*
X-75500Y-78500D03*
X-72500D03*
X-69500D03*
X-81500D03*
X-78500D03*
X-71025Y-66975D03*
X-67100Y-65000D03*
X-75200Y-67186D03*
X-78325Y-68700D03*
X-78500Y-73300D03*
X-77176Y-60000D03*
X-81500Y-73300D03*
X-71500Y-56700D03*
X-73200Y-49000D03*
X-80700Y-44300D03*
X-67200Y-29300D03*
X-68700Y-32300D03*
X-74100Y-31300D03*
X-77000D03*
X-80000D03*
X-83000Y-32000D03*
X-81500Y-28300D03*
X-78500D03*
X-75500D03*
X-67700Y-20400D03*
X-77000Y-25300D03*
X-83000D03*
X-79300Y5000D03*
Y-5000D03*
X-77800Y15000D03*
X-72800Y35000D03*
Y38000D03*
X-71588Y30609D03*
X-82800Y31700D03*
X-79800D03*
X-76800D03*
X-72800Y41000D03*
Y44000D03*
Y47000D03*
X-67800Y43700D03*
Y46700D03*
X-82800Y53900D03*
X-75600Y66500D03*
Y63500D03*
X-78600D03*
X-68900Y70500D03*
X-73800Y70700D03*
X-67800Y67700D03*
X-70800D03*
X-82800Y61100D03*
X-71700Y83200D03*
X-72188Y73988D03*
X-75000Y77000D03*
X-82800Y73700D03*
X-79800D03*
X-76800D03*
X-60900Y-96100D03*
X-53000Y-81500D03*
X-56000D03*
X-59000D03*
X-62000D03*
X-65000D03*
X-66500Y-78500D03*
X-63500D03*
X-60500D03*
X-57500D03*
X-54500D03*
X-51500D03*
X-50800Y-67100D03*
X-53770Y-67770D03*
X-57917Y-65860D03*
X-58300Y-70300D03*
X-58700Y-54100D03*
X-59800Y-26300D03*
X-62700D03*
X-61300Y-29300D03*
X-64200D03*
X-65700Y-32300D03*
X-62800D03*
X-59900D03*
X-65720Y-41400D03*
X-66500Y-15800D03*
X-57800Y-12000D03*
X-58500Y-23250D03*
X-57594Y1476D03*
X-57700Y-8798D03*
X-57600Y-1600D03*
X-57866Y-5800D03*
X-57726Y4474D03*
X-57464Y12300D03*
X-57420Y8837D03*
X-57500Y15300D03*
X-61300Y36000D03*
X-55700Y34900D03*
X-61900Y28700D03*
X-64800Y46700D03*
X-58800D03*
Y49700D03*
Y52700D03*
X-52800Y55700D03*
X-55800D03*
X-58800D03*
X-61800Y46700D03*
X-52800Y47600D03*
X-57200Y59300D03*
X-65590Y70790D03*
X-64800Y67700D03*
X-66367Y88567D03*
X-52025Y74225D03*
X-62700Y89200D03*
X-45900Y-96100D03*
X-35000Y-81500D03*
X-38000D03*
X-41000D03*
X-44000D03*
X-47000D03*
X-50000D03*
X-48500Y-78500D03*
X-45500D03*
X-42500D03*
X-39500D03*
X-36500D03*
X-36100Y-69100D03*
X-40600Y-69000D03*
X-47800Y-64100D03*
X-34400Y-59600D03*
X-43700Y-69000D03*
Y-50700D03*
X-42785Y-53615D03*
X-39600Y-48950D03*
X-46200Y-45000D03*
X-47040Y-57180D03*
X-37385Y-52715D03*
X-39700Y-57500D03*
X-36600Y-49600D03*
X-46591Y-47978D03*
X-41500Y-40250D03*
X-48551Y-42398D03*
X-40851Y-29300D03*
X-43851D03*
X-34500Y-35400D03*
X-45351Y-32300D03*
X-42451D03*
X-39551D03*
X-36958Y-33758D03*
X-48251Y-32300D03*
X-37600Y-29700D03*
X-37900Y-12900D03*
X-47400Y-12600D03*
X-37900Y-4100D03*
X-46900D03*
X-45400Y12600D03*
X-46700Y9800D03*
X-39500Y37400D03*
X-46800Y55700D03*
X-49800D03*
X-39700Y47500D03*
X-44900Y48025D03*
X-45400Y63200D03*
X-39100Y94100D03*
X-49100D03*
X-23400Y-96100D03*
X-21500Y-77000D03*
X-23000Y-81500D03*
X-26000D03*
X-29000D03*
X-32000D03*
X-33500Y-78500D03*
X-30500D03*
X-27500D03*
X-24500D03*
X-20000Y-68000D03*
Y-65000D03*
X-21500Y-74000D03*
Y-71000D03*
X-23000Y-60500D03*
Y-63500D03*
Y-66500D03*
X-24500Y-69500D03*
Y-72500D03*
Y-75500D03*
X-33565Y-56535D03*
X-26000Y-59000D03*
Y-56000D03*
Y-53000D03*
Y-50000D03*
X-18300Y-56600D03*
X-17600Y-48500D03*
X-32400Y-49400D03*
X-23000Y-45500D03*
Y-48500D03*
Y-51500D03*
Y-54500D03*
Y-57500D03*
X-24629Y-35370D03*
X-28859Y-36349D03*
X-26350Y-37828D03*
X-24992Y-40391D03*
X-23000Y-42500D03*
X-18500Y-21593D03*
X-23000Y-20800D03*
X-20900Y-6100D03*
X-26000Y20300D03*
X-25800Y17078D03*
X-22200Y17300D03*
X-25100Y12000D03*
X-25962Y23495D03*
X-30600Y26400D03*
X-21191Y53621D03*
X-32900Y55969D03*
X-28500Y56000D03*
X-25800Y42300D03*
X-22500Y56500D03*
X-30500Y63100D03*
X-18000Y82900D03*
X-24100Y94100D03*
X-15400Y-79800D03*
X-5000Y-80100D03*
Y-72200D03*
X-15000D03*
X-3500Y-50100D03*
X-14200Y-42700D03*
X-3700Y-38300D03*
X-8384Y-23600D03*
X-11543Y-23612D03*
X-14536Y-23393D03*
X-15500Y-20300D03*
X-8500Y-19800D03*
X-3000Y-6100D03*
X-17400Y13700D03*
X-3100Y13600D03*
X-5009Y35115D03*
X-3160Y26062D03*
X-1800Y40300D03*
X-13600Y46500D03*
X-11200Y57700D03*
X-4000Y57875D03*
X-999Y57700D03*
X-8200Y57800D03*
X-14197Y57851D03*
X-5000Y72200D03*
X-4900Y82000D03*
X4700Y-80100D03*
X5000Y-72200D03*
X6800Y-45200D03*
X3800D03*
X3400Y-40300D03*
X10900Y-36600D03*
X6500Y-40300D03*
X200Y-20300D03*
X722Y-17322D03*
X6000Y-19600D03*
Y-16500D03*
X13800Y-19900D03*
X200Y-23600D03*
X7800Y-4000D03*
X11400Y-8700D03*
X4800Y-6100D03*
X3155Y19838D03*
X5605Y21909D03*
X7900Y24000D03*
X10613Y26064D03*
X3500Y35200D03*
X13200Y50300D03*
X9304Y57725D03*
X12304Y57800D03*
X6305Y57811D03*
X2000Y57800D03*
X14768Y72184D03*
X5000Y72200D03*
X13700Y79400D03*
X2600D03*
X28065Y-87033D03*
X29615Y-80345D03*
X31800Y-88368D03*
X32083Y-75035D03*
X24900Y-62885D03*
X27899Y-62793D03*
X19837Y-45563D03*
X19300Y-50200D03*
X16425Y-37900D03*
X30460Y-41360D03*
X18967Y-42691D03*
X22168Y-42000D03*
X24800Y-37588D03*
X17400Y-17300D03*
X19266Y-14866D03*
X17234Y-12466D03*
X25200Y-16300D03*
X25400Y-12700D03*
X25900Y-21900D03*
X23000Y-7000D03*
X23900Y13000D03*
X21788Y37498D03*
X24800Y37600D03*
X19993Y40723D03*
X21200Y51200D03*
X30100Y56100D03*
X29000Y52100D03*
X27200Y54600D03*
X19600Y58900D03*
Y68900D03*
X30200Y68100D03*
Y65100D03*
Y62100D03*
X30100Y59100D03*
X30200Y71100D03*
X27200Y69600D03*
Y57600D03*
Y60600D03*
Y63600D03*
Y66600D03*
Y72600D03*
X21200Y87800D03*
Y84800D03*
X30200Y74100D03*
X24200Y89300D03*
Y86300D03*
X27200Y84800D03*
Y87800D03*
X21200Y96800D03*
Y93800D03*
Y90800D03*
X24200Y95300D03*
Y92300D03*
X27200Y90800D03*
Y93800D03*
X30200Y96800D03*
X27200D03*
X46787Y-93157D03*
X39802Y-90768D03*
X35900Y-89568D03*
X34664Y-80536D03*
X43708Y-91968D03*
X33200Y-83269D03*
X36383Y-75035D03*
X42683Y-72535D03*
X34183D03*
X44783Y-75035D03*
X40583D03*
X46883Y-72535D03*
X38483D03*
X35800Y-56300D03*
X34500Y-59300D03*
X42079Y-49487D03*
X38604Y-44668D03*
X35800Y-43600D03*
X36512Y-33088D03*
X34012Y-30588D03*
X38445Y-35400D03*
Y-38400D03*
X35340Y-38694D03*
X42500Y-20500D03*
X40300Y3200D03*
X36900Y5600D03*
X40525Y23975D03*
X46300Y33500D03*
X38000Y27300D03*
X41000D03*
X34800Y49100D03*
X37800D03*
X40800D03*
X43800D03*
X46800D03*
X48200Y56200D03*
X48300Y52100D03*
X45300D03*
X42300D03*
X39300D03*
X36300D03*
X33300D03*
X42700Y69300D03*
X37200Y71000D03*
X35400Y62900D03*
X42400Y60800D03*
X37500Y87500D03*
X45400Y80000D03*
X44500Y90100D03*
X48200Y96800D03*
X39200D03*
X33200D03*
X36200D03*
X42200D03*
X45200D03*
X49540Y-94351D03*
X52300Y-95600D03*
X60964Y-64368D03*
X48983Y-75035D03*
X52919Y-71730D03*
X54878Y-66029D03*
X56978Y-68485D03*
X58864Y-61868D03*
X50819Y-69230D03*
X57432Y-659D03*
X57434Y2341D03*
Y-3659D03*
X57432Y5341D03*
X57537Y-6658D03*
X57088Y-9625D03*
X57490Y14341D03*
X57434Y8341D03*
X63800Y19400D03*
X57430Y11341D03*
X50600Y23100D03*
X60300Y18400D03*
X56100Y17000D03*
X53900Y30700D03*
X51300Y49100D03*
X60300Y46100D03*
X63300D03*
X58800Y49100D03*
X61800D03*
X64800D03*
X53800Y40600D03*
X61500Y56400D03*
X63300Y52100D03*
X60300D03*
X57300D03*
X54300D03*
X51300D03*
X53700Y72000D03*
X54400Y60700D03*
X62000Y59400D03*
X49600Y62100D03*
X55200Y85200D03*
X64700Y93800D03*
X61700D03*
X58700D03*
X64300Y89800D03*
X51200Y96800D03*
X54200D03*
X57200D03*
X60200D03*
X63200D03*
X72825Y-95730D03*
X78900Y-95700D03*
X69785Y-95585D03*
X75900Y-95700D03*
X72100Y-76500D03*
X77200Y-62500D03*
X80800Y-60100D03*
X74191Y-53000D03*
X66500Y-48175D03*
X77184Y-52792D03*
X66777Y-53025D03*
X71197Y-52803D03*
X80100Y-16000D03*
X77100Y-18800D03*
X71404Y-14496D03*
X72200Y-5000D03*
Y5000D03*
X79100Y-5000D03*
Y5300D03*
X66263Y21114D03*
X71600Y17700D03*
X72100Y27700D03*
Y37700D03*
X69300Y46100D03*
X72300D03*
X75300D03*
X78300D03*
X81300D03*
X66300D03*
X67800Y49100D03*
X70800D03*
X73800D03*
X76800D03*
X79800D03*
X81200Y56300D03*
X76600Y54800D03*
X81300Y52100D03*
X78300D03*
X75300D03*
X72300D03*
X69300D03*
X66300D03*
X81200Y68300D03*
Y65300D03*
Y62300D03*
Y59300D03*
X73800Y57500D03*
Y67500D03*
X78200Y57800D03*
Y60800D03*
Y63800D03*
Y66800D03*
Y72800D03*
X81200D03*
X78200Y69800D03*
X69000Y88800D03*
X72000Y87300D03*
X78200Y87800D03*
Y84800D03*
Y81800D03*
Y78800D03*
Y75800D03*
X69000Y91800D03*
X72000Y93300D03*
Y90300D03*
X66200Y96800D03*
X69200D03*
X72200D03*
X75200D03*
X78200D03*
Y90800D03*
X81900Y-95700D03*
X85011Y-95692D03*
X91081Y-95702D03*
X88081Y-95694D03*
X93035Y-77535D03*
X95900Y-83200D03*
X82600Y-62500D03*
X87600Y-67800D03*
X89815Y-74815D03*
X87000Y-71500D03*
X84300Y-68100D03*
X90750Y-70750D03*
X82100Y-65900D03*
X93785Y-73785D03*
X94000Y-54500D03*
X93900Y-45900D03*
X82400Y-30000D03*
X82600Y-34900D03*
X85600Y-16600D03*
X82500Y-25000D03*
X86700Y34500D03*
X82100Y37700D03*
Y27700D03*
X87300Y46100D03*
X90300D03*
X93300D03*
X96300D03*
X84300D03*
X85800Y49100D03*
X88800D03*
X91800D03*
X94800D03*
X82800D03*
X96300Y52100D03*
X93300D03*
X90300D03*
X87300D03*
X84300D03*
X84200Y69800D03*
Y66800D03*
Y63800D03*
Y60800D03*
Y57800D03*
X95700Y66900D03*
X84200Y72800D03*
X87200D03*
X90200D03*
X93200D03*
X96200D03*
G54D11*
X-94500Y-10000D03*
X-84500D03*
X-94500Y0D03*
X-84500D03*
X-94500Y10000D03*
X-84500D03*
X-74500Y-10000D03*
Y0D03*
Y10000D03*
X0Y-94500D03*
X-10000D03*
X0Y-84500D03*
X-10000D03*
X0Y-74500D03*
X-10000D03*
Y74500D03*
X0D03*
X-10000Y84500D03*
X0D03*
X-10000Y94500D03*
X0D03*
X10000Y-94500D03*
Y-84500D03*
Y-74500D03*
Y74500D03*
Y84500D03*
Y94500D03*
X74500Y-10000D03*
Y0D03*
Y10000D03*
X94500Y-10000D03*
X84500D03*
X94500Y0D03*
X84500D03*
X94500Y10000D03*
X84500D03*
G54D12*
X-82600Y84900D03*
X-92600D03*
G54D13*
X-55900Y65500D03*
Y70000D03*
X-21500Y-88000D03*
G54D14*
X-32963Y73164D03*
X-40837D03*
G54D15*
G01X-133250Y-162900D02*
Y-172900D01*
X-128250D01*
G01X-123875D02*
X-120750Y-162900D01*
X-117625Y-172900D01*
G01X-118750Y-169400D02*
X-122750D01*
G01X-110750Y-172900D02*
Y-168400D01*
X-113250Y-162900D01*
G01X-108250D02*
X-110750Y-168400D01*
G01X-98250Y-172900D02*
X-103250D01*
Y-162900D01*
X-98250D01*
G01X-100250Y-167733D02*
X-103250D01*
G01X-93250Y-172900D02*
Y-162900D01*
X-90125D01*
X-89125Y-163400D01*
X-88500Y-164067D01*
X-88250Y-165400D01*
X-88500Y-166733D01*
X-89250Y-167567D01*
X-90125Y-168067D01*
X-93250D01*
G01X-90125D02*
X-88250Y-172900D01*
G01X-73500Y-170900D02*
X-72750Y-172067D01*
X-71750Y-172733D01*
X-70625Y-172900D01*
X-69625Y-172733D01*
X-68625Y-171900D01*
X-68000Y-170900D01*
X-67875Y-169900D01*
X-68125Y-168734D01*
X-69000Y-167900D01*
X-69875Y-167567D01*
X-71000D01*
G01X-69875D02*
X-69125Y-167067D01*
X-68500Y-166234D01*
X-68250Y-165233D01*
X-68500Y-164233D01*
X-69125Y-163400D01*
X-70250Y-162900D01*
X-71375Y-163067D01*
X-72500Y-163733D01*
G54D16*
G01X-88702Y0D02*
X-84500D01*
G01X-88702Y-10000D02*
X-84500D01*
G01X-88702Y10000D02*
X-84500D01*
G01Y-14202D02*
Y-10000D01*
G01Y5798D02*
Y10000D01*
G01Y-4202D02*
Y0D01*
G01D02*
Y4202D01*
G01Y0D02*
X-80298D01*
G01X-84500Y-10000D02*
Y-5798D01*
G01Y-10000D02*
X-80298D01*
G01X-84500Y10000D02*
Y14202D01*
G01Y10000D02*
X-80298D01*
G01X-36165Y73164D02*
X-32963D01*
G01Y69962D02*
Y73164D01*
G01D02*
Y76366D01*
G01Y73164D02*
X-29761D01*
G01X-10000Y-88702D02*
Y-84500D01*
G01D02*
Y-80298D01*
G01X-14202Y-84500D02*
X-10000D01*
G01D02*
X-5798D01*
G01X-4202D02*
X0D01*
G01X-10000Y80298D02*
Y84500D01*
G01D02*
Y88702D01*
G01X-14202Y84500D02*
X-10000D01*
G01D02*
X-5798D01*
G01X10000Y-88702D02*
Y-84500D01*
G01D02*
Y-80298D01*
G01X5798Y-84500D02*
X10000D01*
G01D02*
X14202D01*
G01X0Y-88702D02*
Y-84500D01*
G01D02*
Y-80298D01*
G01Y-84500D02*
X4202D01*
G01X10000Y80298D02*
Y84500D01*
G01D02*
Y88702D01*
G01X5798Y84500D02*
X10000D01*
G01D02*
X14202D01*
G01X0Y80298D02*
Y84500D01*
G01D02*
Y88702D01*
G01Y84500D02*
X4202D01*
G01X80298Y0D02*
X84500D01*
G01X80298Y-10000D02*
X84500D01*
G01X80298Y10000D02*
X84500D01*
G01Y-14202D02*
Y-10000D01*
G01Y5798D02*
Y10000D01*
G01Y-4202D02*
Y0D01*
G01D02*
Y4202D01*
G01Y0D02*
X88702D01*
G01X84500Y-10000D02*
Y-5798D01*
G01Y-10000D02*
X88702D01*
G01X84500Y10000D02*
Y14202D01*
G01Y10000D02*
X88702D01*
M02*
