G75*
%MOIN*%
%OFA0B0*%
%FSLAX25Y25*%
%IPPOS*%
%LPD*%
%AMOC8*
5,1,8,0,0,1.08239X$1,22.5*
%
%ADD10R,0.08200X0.08200*%
%ADD11C,0.08200*%
%ADD12C,0.06800*%
%ADD13C,0.04343*%
%ADD14C,0.04800*%
%ADD15C,0.04762*%
D10*
X0261400Y0206800D03*
X0272300Y0206800D03*
X0283200Y0206800D03*
D11*
X0283200Y0196800D03*
X0283200Y0186800D03*
X0283200Y0176800D03*
X0283200Y0166800D03*
X0283200Y0156800D03*
X0283200Y0146800D03*
X0283200Y0136800D03*
X0272300Y0136800D03*
X0272300Y0146800D03*
X0272300Y0156800D03*
X0272300Y0166800D03*
X0272300Y0176800D03*
X0272300Y0186800D03*
X0272300Y0196800D03*
X0261400Y0196800D03*
X0261400Y0186800D03*
X0261400Y0176800D03*
X0261400Y0166800D03*
X0261400Y0156800D03*
X0261400Y0146800D03*
X0261400Y0136800D03*
X0098800Y0180800D03*
X0098800Y0190800D03*
D12*
X0105800Y0092800D03*
X0115800Y0092800D03*
X0125800Y0092800D03*
X0135800Y0092800D03*
X0145800Y0092800D03*
X0155800Y0092800D03*
X0165800Y0092800D03*
X0175800Y0092800D03*
X0185800Y0092800D03*
X0195800Y0092800D03*
D13*
X0097800Y0108894D03*
X0097800Y0120706D03*
D14*
X0114800Y0145800D03*
X0114800Y0154800D03*
X0123800Y0159800D03*
X0110800Y0172800D03*
X0121800Y0187800D03*
X0151800Y0145800D03*
X0137800Y0133800D03*
D15*
X0154800Y0154800D03*
X0160800Y0150800D03*
X0165800Y0150800D03*
X0170800Y0146800D03*
X0169700Y0167100D03*
X0162800Y0177800D03*
X0160900Y0189300D03*
X0161900Y0194000D03*
X0165800Y0199800D03*
X0162800Y0206300D03*
X0152300Y0212300D03*
X0142300Y0205800D03*
X0138800Y0209800D03*
X0135100Y0214500D03*
X0129900Y0206500D03*
X0125000Y0201100D03*
X0129700Y0196600D03*
X0132800Y0186800D03*
X0145300Y0169200D03*
X0173100Y0187900D03*
X0174000Y0194100D03*
X0181300Y0203300D03*
X0197200Y0221900D03*
X0204300Y0231000D03*
X0211400Y0233200D03*
X0209600Y0221700D03*
X0212000Y0212200D03*
X0210400Y0201000D03*
X0207300Y0188500D03*
X0198800Y0173300D03*
X0206500Y0165400D03*
X0202300Y0160500D03*
X0195600Y0162100D03*
X0188000Y0172900D03*
X0212200Y0146900D03*
X0212200Y0132900D03*
X0200200Y0118700D03*
X0196800Y0110800D03*
X0196800Y0105800D03*
X0191800Y0104800D03*
X0204800Y0103800D03*
X0207800Y0097800D03*
X0203800Y0087800D03*
X0216800Y0081800D03*
X0242900Y0083000D03*
X0242900Y0093000D03*
X0245800Y0103800D03*
X0252800Y0109800D03*
X0243800Y0122800D03*
X0231900Y0149200D03*
X0230800Y0174800D03*
X0220800Y0183200D03*
X0221400Y0189200D03*
X0224200Y0203300D03*
X0223700Y0213600D03*
X0221700Y0220600D03*
X0231300Y0219700D03*
X0243800Y0186300D03*
X0252800Y0177300D03*
X0283200Y0136800D03*
X0190800Y0129800D03*
X0175800Y0112800D03*
X0114100Y0112800D03*
X0106000Y0083300D03*
X0106500Y0196700D03*
X0120300Y0206700D03*
X0111600Y0240900D03*
X0122400Y0264700D03*
X0142800Y0265300D03*
X0162800Y0249300D03*
X0159800Y0241300D03*
X0162300Y0225800D03*
X0176800Y0227800D03*
X0187100Y0234100D03*
M02*
