%
M48
M72
T01C0.02362
T02C0.03543
T03C0.04000
%
T01
X93500Y97200
X97500Y101100
X108500Y89600
X112000Y105800
X121700Y104700
X131600Y94100
X117700Y75400
X100600Y71500
X106000Y116200
X105100Y122800
X99200Y125900
X109200Y129600
X117000Y125100
X112100Y116700
X128900Y128300
X144000Y130100
X141300Y143400
X130200Y147400
X133400Y153600
X137600Y159000
X126000Y163300
X118400Y163500
X118400Y173000
X112200Y189400
X103200Y190400
X78300Y184600
X77700Y196400
X67600Y215000
X64900Y157600
X92100Y147400
X109100Y143300
X161700Y158100
X164700Y150900
X164700Y144900
X185500Y152200
X206200Y157000
X212600Y155200
X220600Y152000
X211400Y135400
X199700Y130900
X175900Y112200
X173800Y106900
X174200Y101300
X176400Y96400
X167200Y91000
X161600Y89400
X165700Y97300
X157500Y100500
X166900Y106500
X205000Y107600
X205000Y102600
X205000Y97300
X189600Y174100
X223300Y180300
X227900Y187400
T02
X57500Y183706
X57500Y171894
T03
X77200Y142900
X77200Y132900
X244900Y136500
X244900Y146500
X244900Y156500
X244900Y166500
X244900Y176500
X244900Y186500
X244900Y196500
X244900Y206500
X244900Y126500
X244900Y116500
X244900Y106500
X244900Y96500
X244900Y86500
X244900Y76500
X244900Y66500
M30
