G75*
%MOIN*%
%OFA0B0*%
%FSLAX25Y25*%
%IPPOS*%
%LPD*%
%AMOC8*
5,1,8,0,0,1.08239X$1,22.5*
%
%ADD10C,0.08200*%
%ADD11C,0.04343*%
%ADD12C,0.04762*%
D10*
X0077200Y0132900D03*
X0077200Y0142900D03*
X0244900Y0146500D03*
X0244900Y0136500D03*
X0244900Y0126500D03*
X0244900Y0116500D03*
X0244900Y0106500D03*
X0244900Y0096500D03*
X0244900Y0086500D03*
X0244900Y0076500D03*
X0244900Y0066500D03*
X0244900Y0156500D03*
X0244900Y0166500D03*
X0244900Y0176500D03*
X0244900Y0186500D03*
X0244900Y0196500D03*
X0244900Y0206500D03*
D11*
X0057500Y0183706D03*
X0057500Y0171894D03*
D12*
X0093500Y0097200D03*
X0097500Y0101100D03*
X0108500Y0089600D03*
X0112000Y0105800D03*
X0121700Y0104700D03*
X0131600Y0094100D03*
X0117700Y0075400D03*
X0100600Y0071500D03*
X0106000Y0116200D03*
X0105100Y0122800D03*
X0099200Y0125900D03*
X0109200Y0129600D03*
X0117000Y0125100D03*
X0112100Y0116700D03*
X0128900Y0128300D03*
X0144000Y0130100D03*
X0141300Y0143400D03*
X0130200Y0147400D03*
X0133400Y0153600D03*
X0137600Y0159000D03*
X0126000Y0163300D03*
X0118400Y0163500D03*
X0118400Y0173000D03*
X0112200Y0189400D03*
X0103200Y0190400D03*
X0078300Y0184600D03*
X0077700Y0196400D03*
X0067600Y0215000D03*
X0064900Y0157600D03*
X0092100Y0147400D03*
X0109100Y0143300D03*
X0161700Y0158100D03*
X0164700Y0150900D03*
X0164700Y0144900D03*
X0185500Y0152200D03*
X0206200Y0157000D03*
X0212600Y0155200D03*
X0220600Y0152000D03*
X0211400Y0135400D03*
X0199700Y0130900D03*
X0175900Y0112200D03*
X0173800Y0106900D03*
X0174200Y0101300D03*
X0176400Y0096400D03*
X0167200Y0091000D03*
X0161600Y0089400D03*
X0165700Y0097300D03*
X0157500Y0100500D03*
X0166900Y0106500D03*
X0205000Y0107600D03*
X0205000Y0102600D03*
X0205000Y0097300D03*
X0189600Y0174100D03*
X0223300Y0180300D03*
X0227900Y0187400D03*
M02*
